%TF.GenerationSoftware,KiCad,Pcbnew,7.0.6*%
%TF.CreationDate,2024-08-14T17:38:19+03:00*%
%TF.ProjectId,atmegaStepperDriver,61746d65-6761-4537-9465-707065724472,V0.8.4*%
%TF.SameCoordinates,Original*%
%TF.FileFunction,Legend,Bot*%
%TF.FilePolarity,Positive*%
%FSLAX46Y46*%
G04 Gerber Fmt 4.6, Leading zero omitted, Abs format (unit mm)*
G04 Created by KiCad (PCBNEW 7.0.6) date 2024-08-14 17:38:19*
%MOMM*%
%LPD*%
G01*
G04 APERTURE LIST*
%ADD10C,0.150000*%
G04 APERTURE END LIST*
D10*
G36*
X94740534Y-135564000D02*
G01*
X94422530Y-135564000D01*
X94373681Y-135392053D01*
X94019285Y-135392053D01*
X93969948Y-135564000D01*
X93644372Y-135564000D01*
X93792158Y-135173211D01*
X94084498Y-135173211D01*
X94306515Y-135173211D01*
X94195872Y-134819059D01*
X94084498Y-135173211D01*
X93792158Y-135173211D01*
X94022704Y-134563581D01*
X94362202Y-134563581D01*
X94740534Y-135564000D01*
G37*
G36*
X93231846Y-134563581D02*
G01*
X93231846Y-134829317D01*
X93077973Y-134829317D01*
X93077973Y-135032527D01*
X93231846Y-135032527D01*
X93231846Y-135303148D01*
X93231705Y-135314788D01*
X93231281Y-135325405D01*
X93230355Y-135337238D01*
X93228987Y-135347472D01*
X93226763Y-135357645D01*
X93222809Y-135367628D01*
X93216950Y-135375929D01*
X93209631Y-135382512D01*
X93200853Y-135387378D01*
X93190615Y-135390526D01*
X93178917Y-135391957D01*
X93174693Y-135392053D01*
X93164468Y-135391599D01*
X93153026Y-135390240D01*
X93142997Y-135388500D01*
X93132189Y-135386179D01*
X93120603Y-135383279D01*
X93108238Y-135379798D01*
X93098454Y-135376807D01*
X93088231Y-135373490D01*
X93067715Y-135558138D01*
X93080636Y-135560740D01*
X93093448Y-135563175D01*
X93106152Y-135565442D01*
X93118746Y-135567541D01*
X93131232Y-135569472D01*
X93143609Y-135571235D01*
X93155878Y-135572830D01*
X93168038Y-135574258D01*
X93180088Y-135575517D01*
X93192031Y-135576609D01*
X93203864Y-135577532D01*
X93215589Y-135578288D01*
X93227204Y-135578875D01*
X93238711Y-135579295D01*
X93250110Y-135579547D01*
X93261399Y-135579631D01*
X93274252Y-135579526D01*
X93286675Y-135579211D01*
X93298668Y-135578687D01*
X93310233Y-135577952D01*
X93321368Y-135577007D01*
X93332073Y-135575853D01*
X93342350Y-135574489D01*
X93352197Y-135572914D01*
X93366162Y-135570159D01*
X93379162Y-135566932D01*
X93391195Y-135563233D01*
X93402263Y-135559061D01*
X93412364Y-135554417D01*
X93415517Y-135552764D01*
X93424542Y-135547434D01*
X93433116Y-135541610D01*
X93441240Y-135535293D01*
X93448913Y-135528481D01*
X93456135Y-135521176D01*
X93462906Y-135513377D01*
X93469227Y-135505085D01*
X93475097Y-135496298D01*
X93480515Y-135487018D01*
X93485484Y-135477245D01*
X93488545Y-135470454D01*
X93492779Y-135459506D01*
X93496597Y-135447359D01*
X93499998Y-135434015D01*
X93502034Y-135424453D01*
X93503885Y-135414359D01*
X93505550Y-135403733D01*
X93507031Y-135392574D01*
X93508327Y-135380882D01*
X93509437Y-135368659D01*
X93510363Y-135355903D01*
X93511103Y-135342615D01*
X93511658Y-135328794D01*
X93512029Y-135314441D01*
X93512214Y-135299555D01*
X93512237Y-135291913D01*
X93512237Y-135032527D01*
X93615063Y-135032527D01*
X93615063Y-134829317D01*
X93512237Y-134829317D01*
X93512237Y-134701090D01*
X93231846Y-134563581D01*
G37*
G36*
X92945838Y-134829317D02*
G01*
X92684742Y-134829317D01*
X92684742Y-134937272D01*
X92677687Y-134929058D01*
X92670626Y-134921145D01*
X92663559Y-134913533D01*
X92656486Y-134906223D01*
X92649408Y-134899214D01*
X92638780Y-134889267D01*
X92628139Y-134879997D01*
X92617485Y-134871406D01*
X92606818Y-134863494D01*
X92596138Y-134856260D01*
X92585446Y-134849704D01*
X92574740Y-134843826D01*
X92571169Y-134842018D01*
X92560199Y-134836954D01*
X92548812Y-134832389D01*
X92537009Y-134828322D01*
X92524790Y-134824753D01*
X92512154Y-134821682D01*
X92499101Y-134819108D01*
X92485632Y-134817033D01*
X92471747Y-134815456D01*
X92457445Y-134814377D01*
X92447679Y-134813934D01*
X92437728Y-134813713D01*
X92432683Y-134813685D01*
X92421897Y-134813807D01*
X92411396Y-134814170D01*
X92401182Y-134814776D01*
X92391254Y-134815624D01*
X92376898Y-134817351D01*
X92363187Y-134819623D01*
X92350119Y-134822440D01*
X92337696Y-134825802D01*
X92325916Y-134829710D01*
X92314781Y-134834163D01*
X92304289Y-134839161D01*
X92294442Y-134844704D01*
X92285080Y-134850789D01*
X92276044Y-134857410D01*
X92267334Y-134864567D01*
X92258950Y-134872262D01*
X92250893Y-134880493D01*
X92243162Y-134889261D01*
X92235758Y-134898565D01*
X92228680Y-134908406D01*
X92221928Y-134918784D01*
X92215502Y-134929698D01*
X92211399Y-134937272D01*
X92203202Y-134928476D01*
X92195096Y-134920038D01*
X92187082Y-134911959D01*
X92179159Y-134904239D01*
X92171328Y-134896877D01*
X92163589Y-134889874D01*
X92155941Y-134883230D01*
X92148385Y-134876944D01*
X92137222Y-134868189D01*
X92126265Y-134860240D01*
X92115515Y-134853099D01*
X92104971Y-134846765D01*
X92094632Y-134841238D01*
X92091232Y-134839575D01*
X92080798Y-134834948D01*
X92069923Y-134830777D01*
X92058605Y-134827060D01*
X92046845Y-134823799D01*
X92034642Y-134820992D01*
X92021998Y-134818641D01*
X92008911Y-134816745D01*
X91995382Y-134815304D01*
X91981411Y-134814318D01*
X91966997Y-134813787D01*
X91957143Y-134813685D01*
X91942659Y-134813959D01*
X91928578Y-134814781D01*
X91914899Y-134816150D01*
X91901623Y-134818067D01*
X91888750Y-134820531D01*
X91876279Y-134823543D01*
X91864211Y-134827103D01*
X91852546Y-134831210D01*
X91841283Y-134835865D01*
X91830422Y-134841067D01*
X91819965Y-134846818D01*
X91809910Y-134853115D01*
X91800258Y-134859961D01*
X91791008Y-134867354D01*
X91782161Y-134875295D01*
X91773716Y-134883783D01*
X91765731Y-134892855D01*
X91758260Y-134902544D01*
X91751305Y-134912852D01*
X91744865Y-134923778D01*
X91738940Y-134935322D01*
X91733531Y-134947485D01*
X91728636Y-134960266D01*
X91724257Y-134973665D01*
X91720393Y-134987682D01*
X91717044Y-135002317D01*
X91714211Y-135017571D01*
X91711892Y-135033443D01*
X91710089Y-135049933D01*
X91708801Y-135067042D01*
X91708028Y-135084768D01*
X91707771Y-135103113D01*
X91707771Y-135564000D01*
X91988161Y-135564000D01*
X91988161Y-135144879D01*
X91988463Y-135132766D01*
X91989367Y-135121462D01*
X91990875Y-135110967D01*
X91992985Y-135101281D01*
X91996471Y-135090312D01*
X92000899Y-135080607D01*
X92006269Y-135072165D01*
X92007457Y-135070629D01*
X92014696Y-135061699D01*
X92022371Y-135053959D01*
X92030480Y-135047411D01*
X92039025Y-135042053D01*
X92048005Y-135037885D01*
X92057420Y-135034908D01*
X92067269Y-135033122D01*
X92077554Y-135032527D01*
X92089591Y-135033092D01*
X92101032Y-135034786D01*
X92111878Y-135037610D01*
X92122129Y-135041564D01*
X92131784Y-135046647D01*
X92140844Y-135052860D01*
X92149308Y-135060203D01*
X92157177Y-135068675D01*
X92164276Y-135078334D01*
X92170428Y-135089359D01*
X92174420Y-135098525D01*
X92177881Y-135108459D01*
X92180809Y-135119161D01*
X92183205Y-135130633D01*
X92185068Y-135142872D01*
X92186399Y-135155880D01*
X92187197Y-135169657D01*
X92187464Y-135184202D01*
X92187464Y-135564000D01*
X92467610Y-135564000D01*
X92467610Y-135159778D01*
X92467694Y-135148172D01*
X92467946Y-135137536D01*
X92468497Y-135125604D01*
X92469310Y-135115187D01*
X92470633Y-135104686D01*
X92472983Y-135094076D01*
X92476827Y-135084104D01*
X92481582Y-135074888D01*
X92487246Y-135066427D01*
X92493820Y-135058722D01*
X92501305Y-135051773D01*
X92504002Y-135049624D01*
X92512512Y-135043814D01*
X92521553Y-135039206D01*
X92531128Y-135035800D01*
X92541234Y-135033596D01*
X92551873Y-135032594D01*
X92555538Y-135032527D01*
X92567299Y-135033100D01*
X92578527Y-135034817D01*
X92589220Y-135037679D01*
X92599379Y-135041686D01*
X92609004Y-135046838D01*
X92618094Y-135053135D01*
X92626650Y-135060577D01*
X92634672Y-135069163D01*
X92641885Y-135079055D01*
X92648136Y-135090413D01*
X92652193Y-135099892D01*
X92655710Y-135110196D01*
X92658685Y-135121325D01*
X92661119Y-135133277D01*
X92663012Y-135146054D01*
X92664365Y-135159655D01*
X92665176Y-135174081D01*
X92665417Y-135184156D01*
X92665447Y-135189331D01*
X92665447Y-135564000D01*
X92945838Y-135564000D01*
X92945838Y-134829317D01*
G37*
G36*
X91182659Y-134813789D02*
G01*
X91194474Y-134814100D01*
X91206127Y-134814619D01*
X91217617Y-134815346D01*
X91228945Y-134816279D01*
X91240109Y-134817421D01*
X91251112Y-134818769D01*
X91261951Y-134820326D01*
X91272628Y-134822090D01*
X91283142Y-134824061D01*
X91293493Y-134826240D01*
X91303682Y-134828626D01*
X91313708Y-134831220D01*
X91323572Y-134834022D01*
X91333273Y-134837030D01*
X91342811Y-134840247D01*
X91352186Y-134843671D01*
X91361399Y-134847302D01*
X91379336Y-134855188D01*
X91396623Y-134863903D01*
X91413260Y-134873449D01*
X91429245Y-134883824D01*
X91444580Y-134895030D01*
X91459264Y-134907065D01*
X91473297Y-134919931D01*
X91480029Y-134926636D01*
X91492852Y-134940430D01*
X91504820Y-134954737D01*
X91515933Y-134969557D01*
X91526191Y-134984891D01*
X91535595Y-135000739D01*
X91544143Y-135017099D01*
X91551837Y-135033973D01*
X91558676Y-135051360D01*
X91564660Y-135069260D01*
X91569789Y-135087674D01*
X91574063Y-135106601D01*
X91575879Y-135116257D01*
X91577482Y-135126041D01*
X91578871Y-135135953D01*
X91580047Y-135145994D01*
X91581009Y-135156164D01*
X91581757Y-135166461D01*
X91582291Y-135176887D01*
X91582611Y-135187441D01*
X91582718Y-135198124D01*
X91582506Y-135213084D01*
X91581867Y-135227799D01*
X91580803Y-135242271D01*
X91579314Y-135256498D01*
X91577399Y-135270481D01*
X91575059Y-135284219D01*
X91572293Y-135297714D01*
X91569102Y-135310964D01*
X91565485Y-135323970D01*
X91561442Y-135336732D01*
X91556975Y-135349249D01*
X91552081Y-135361522D01*
X91546762Y-135373551D01*
X91541018Y-135385336D01*
X91534848Y-135396876D01*
X91528252Y-135408173D01*
X91521303Y-135419158D01*
X91514132Y-135429765D01*
X91506740Y-135439995D01*
X91499126Y-135449846D01*
X91491291Y-135459320D01*
X91483235Y-135468417D01*
X91474958Y-135477135D01*
X91466459Y-135485475D01*
X91457738Y-135493438D01*
X91448797Y-135501023D01*
X91439634Y-135508230D01*
X91430250Y-135515059D01*
X91420644Y-135521511D01*
X91410817Y-135527584D01*
X91400769Y-135533280D01*
X91390499Y-135538598D01*
X91379848Y-135543567D01*
X91368716Y-135548215D01*
X91357103Y-135552543D01*
X91345009Y-135556550D01*
X91332434Y-135560237D01*
X91319379Y-135563603D01*
X91305842Y-135566648D01*
X91291825Y-135569373D01*
X91277327Y-135571777D01*
X91262348Y-135573861D01*
X91246888Y-135575624D01*
X91230948Y-135577066D01*
X91214526Y-135578188D01*
X91197624Y-135578990D01*
X91180240Y-135579471D01*
X91162376Y-135579631D01*
X91152026Y-135579581D01*
X91141827Y-135579433D01*
X91131781Y-135579185D01*
X91121885Y-135578837D01*
X91102550Y-135577845D01*
X91083822Y-135576456D01*
X91065700Y-135574670D01*
X91048185Y-135572487D01*
X91031277Y-135569907D01*
X91014976Y-135566930D01*
X90999281Y-135563557D01*
X90984194Y-135559786D01*
X90969713Y-135555619D01*
X90955838Y-135551055D01*
X90942571Y-135546093D01*
X90929911Y-135540735D01*
X90917857Y-135534980D01*
X90906410Y-135528829D01*
X90895338Y-135522190D01*
X90884470Y-135515036D01*
X90873806Y-135507368D01*
X90863347Y-135499184D01*
X90853091Y-135490484D01*
X90843040Y-135481270D01*
X90833193Y-135471540D01*
X90823550Y-135461295D01*
X90814112Y-135450535D01*
X90804877Y-135439260D01*
X90795847Y-135427470D01*
X90787021Y-135415164D01*
X90778399Y-135402343D01*
X90769981Y-135389007D01*
X90761767Y-135375156D01*
X90753758Y-135360789D01*
X91029264Y-135329526D01*
X91037347Y-135338761D01*
X91045264Y-135347077D01*
X91053013Y-135354474D01*
X91060596Y-135360954D01*
X91069474Y-135367517D01*
X91078113Y-135372757D01*
X91087401Y-135377280D01*
X91096828Y-135381199D01*
X91106391Y-135384515D01*
X91116092Y-135387229D01*
X91125931Y-135389339D01*
X91135907Y-135390847D01*
X91146020Y-135391751D01*
X91156270Y-135392053D01*
X91164326Y-135391876D01*
X91176047Y-135390949D01*
X91187335Y-135389228D01*
X91198189Y-135386713D01*
X91208610Y-135383404D01*
X91218597Y-135379300D01*
X91228150Y-135374402D01*
X91237270Y-135368710D01*
X91245956Y-135362223D01*
X91254209Y-135354943D01*
X91262027Y-135346868D01*
X91263808Y-135344881D01*
X91270515Y-135336293D01*
X91276558Y-135326674D01*
X91281937Y-135316025D01*
X91286652Y-135304345D01*
X91289753Y-135294909D01*
X91292480Y-135284893D01*
X91294833Y-135274298D01*
X91296813Y-135263123D01*
X91298420Y-135251369D01*
X90737882Y-135251369D01*
X90737882Y-135220594D01*
X90738067Y-135203305D01*
X90738623Y-135186427D01*
X90739548Y-135169959D01*
X90740844Y-135153900D01*
X90742510Y-135138253D01*
X90744546Y-135123015D01*
X90746547Y-135110685D01*
X91022181Y-135110685D01*
X91297687Y-135110685D01*
X91297241Y-135107761D01*
X91295097Y-135096520D01*
X91292372Y-135086005D01*
X91289067Y-135076214D01*
X91285182Y-135067148D01*
X91279510Y-135056836D01*
X91272932Y-135047657D01*
X91265447Y-135039610D01*
X91260365Y-135034967D01*
X91252350Y-135028563D01*
X91243862Y-135022834D01*
X91234902Y-135017778D01*
X91225469Y-135013397D01*
X91215565Y-135009690D01*
X91205188Y-135006656D01*
X91194338Y-135004297D01*
X91183017Y-135002612D01*
X91171223Y-135001601D01*
X91158957Y-135001264D01*
X91151810Y-135001363D01*
X91141422Y-135001884D01*
X91131434Y-135002852D01*
X91118737Y-135004836D01*
X91106750Y-135007614D01*
X91095473Y-135011186D01*
X91084906Y-135015552D01*
X91075048Y-135020712D01*
X91065900Y-135026665D01*
X91059498Y-135031720D01*
X91051704Y-135039368D01*
X91044756Y-135048054D01*
X91038656Y-135057778D01*
X91033403Y-135068540D01*
X91028997Y-135080340D01*
X91026248Y-135089871D01*
X91023976Y-135099986D01*
X91022181Y-135110685D01*
X90746547Y-135110685D01*
X90746952Y-135108188D01*
X90749728Y-135093771D01*
X90752875Y-135079764D01*
X90756391Y-135066168D01*
X90760278Y-135052981D01*
X90764535Y-135040205D01*
X90769163Y-135027840D01*
X90774160Y-135015884D01*
X90779528Y-135004339D01*
X90785265Y-134993204D01*
X90791358Y-134982436D01*
X90797790Y-134971993D01*
X90804562Y-134961874D01*
X90811674Y-134952080D01*
X90819125Y-134942609D01*
X90826916Y-134933464D01*
X90835047Y-134924642D01*
X90843517Y-134916145D01*
X90852327Y-134907973D01*
X90861477Y-134900125D01*
X90870966Y-134892601D01*
X90880795Y-134885401D01*
X90890963Y-134878526D01*
X90901472Y-134871976D01*
X90912319Y-134865749D01*
X90923507Y-134859847D01*
X90935091Y-134854257D01*
X90947191Y-134849028D01*
X90959806Y-134844160D01*
X90972935Y-134839652D01*
X90986581Y-134835504D01*
X91000741Y-134831717D01*
X91015417Y-134828291D01*
X91030607Y-134825226D01*
X91046313Y-134822521D01*
X91062534Y-134820177D01*
X91079271Y-134818193D01*
X91096522Y-134816571D01*
X91114289Y-134815308D01*
X91132571Y-134814407D01*
X91151368Y-134813866D01*
X91170681Y-134813685D01*
X91182659Y-134813789D01*
G37*
G36*
X90332302Y-134814036D02*
G01*
X90348376Y-134815086D01*
X90364053Y-134816837D01*
X90379334Y-134819288D01*
X90394217Y-134822439D01*
X90408704Y-134826291D01*
X90422794Y-134830843D01*
X90436487Y-134836095D01*
X90449783Y-134842047D01*
X90462682Y-134848700D01*
X90475184Y-134856053D01*
X90487289Y-134864106D01*
X90498997Y-134872860D01*
X90510309Y-134882314D01*
X90521224Y-134892468D01*
X90531741Y-134903323D01*
X90541709Y-134914845D01*
X90551033Y-134927003D01*
X90559714Y-134939796D01*
X90567752Y-134953224D01*
X90575147Y-134967288D01*
X90581899Y-134981988D01*
X90588008Y-134997323D01*
X90593474Y-135013293D01*
X90598297Y-135029899D01*
X90602476Y-135047140D01*
X90606013Y-135065016D01*
X90608907Y-135083528D01*
X90611157Y-135102675D01*
X90612042Y-135112487D01*
X90612765Y-135122458D01*
X90613328Y-135132588D01*
X90613730Y-135142876D01*
X90613971Y-135153324D01*
X90614051Y-135163930D01*
X90613801Y-135182386D01*
X90613051Y-135200387D01*
X90611801Y-135217931D01*
X90610052Y-135235020D01*
X90607802Y-135251652D01*
X90605052Y-135267828D01*
X90601803Y-135283549D01*
X90598053Y-135298813D01*
X90593804Y-135313621D01*
X90589054Y-135327973D01*
X90583805Y-135341869D01*
X90578056Y-135355309D01*
X90571807Y-135368293D01*
X90565058Y-135380821D01*
X90557808Y-135392893D01*
X90550060Y-135404509D01*
X90538604Y-135420036D01*
X90526708Y-135434562D01*
X90514370Y-135448086D01*
X90501593Y-135460608D01*
X90488374Y-135472129D01*
X90474714Y-135482648D01*
X90460614Y-135492164D01*
X90446073Y-135500680D01*
X90431091Y-135508193D01*
X90415669Y-135514704D01*
X90399805Y-135520214D01*
X90383501Y-135524722D01*
X90366756Y-135528228D01*
X90349570Y-135530733D01*
X90331944Y-135532236D01*
X90313877Y-135532736D01*
X90304545Y-135532605D01*
X90290701Y-135531914D01*
X90277042Y-135530630D01*
X90263567Y-135528754D01*
X90250277Y-135526285D01*
X90237172Y-135523224D01*
X90224251Y-135519570D01*
X90211515Y-135515324D01*
X90198963Y-135510486D01*
X90186596Y-135505054D01*
X90174414Y-135499031D01*
X90166675Y-135494725D01*
X90156355Y-135488270D01*
X90146036Y-135480998D01*
X90138297Y-135475008D01*
X90130557Y-135468559D01*
X90122818Y-135461650D01*
X90115078Y-135454282D01*
X90107339Y-135446455D01*
X90099599Y-135438168D01*
X90091860Y-135429422D01*
X90091860Y-135534935D01*
X90091977Y-135544371D01*
X90092593Y-135557850D01*
X90093738Y-135570518D01*
X90095410Y-135582374D01*
X90097610Y-135593418D01*
X90100339Y-135603652D01*
X90103595Y-135613073D01*
X90108758Y-135624373D01*
X90114861Y-135634231D01*
X90121902Y-135642646D01*
X90127759Y-135648145D01*
X90136411Y-135654637D01*
X90146024Y-135660167D01*
X90156599Y-135664735D01*
X90168136Y-135668341D01*
X90180634Y-135670986D01*
X90190639Y-135672338D01*
X90201185Y-135673150D01*
X90212272Y-135673420D01*
X90215172Y-135673403D01*
X90226468Y-135672979D01*
X90237276Y-135671991D01*
X90247595Y-135670437D01*
X90257426Y-135668319D01*
X90269028Y-135664878D01*
X90279866Y-135660553D01*
X90289941Y-135655346D01*
X90292554Y-135653742D01*
X90301024Y-135646893D01*
X90307447Y-135639497D01*
X90313097Y-135630693D01*
X90317974Y-135620480D01*
X90321448Y-135610894D01*
X90592558Y-135579631D01*
X90592901Y-135585344D01*
X90593451Y-135595877D01*
X90593850Y-135606303D01*
X90594023Y-135617000D01*
X90593703Y-135630746D01*
X90592741Y-135644138D01*
X90591138Y-135657177D01*
X90588894Y-135669864D01*
X90586009Y-135682197D01*
X90582483Y-135694177D01*
X90578315Y-135705804D01*
X90573507Y-135717079D01*
X90568057Y-135728000D01*
X90561966Y-135738568D01*
X90555234Y-135748784D01*
X90547861Y-135758646D01*
X90539847Y-135768155D01*
X90531192Y-135777311D01*
X90521895Y-135786115D01*
X90511958Y-135794565D01*
X90501161Y-135802609D01*
X90489289Y-135810135D01*
X90476340Y-135817142D01*
X90462315Y-135823630D01*
X90447214Y-135829598D01*
X90431037Y-135835048D01*
X90413783Y-135839979D01*
X90395454Y-135844390D01*
X90385885Y-135846401D01*
X90376048Y-135848283D01*
X90365941Y-135850035D01*
X90355566Y-135851657D01*
X90344921Y-135853149D01*
X90334008Y-135854511D01*
X90322825Y-135855744D01*
X90311373Y-135856847D01*
X90299652Y-135857820D01*
X90287663Y-135858663D01*
X90275404Y-135859377D01*
X90262876Y-135859961D01*
X90250079Y-135860415D01*
X90237013Y-135860739D01*
X90223678Y-135860934D01*
X90210073Y-135860999D01*
X90204080Y-135860982D01*
X90192221Y-135860846D01*
X90180532Y-135860575D01*
X90169012Y-135860169D01*
X90157663Y-135859627D01*
X90146483Y-135858950D01*
X90135473Y-135858137D01*
X90124633Y-135857188D01*
X90113962Y-135856105D01*
X90103462Y-135854885D01*
X90093131Y-135853531D01*
X90082970Y-135852040D01*
X90072979Y-135850415D01*
X90063158Y-135848653D01*
X90053506Y-135846757D01*
X90039348Y-135843658D01*
X90030138Y-135841436D01*
X90016706Y-135837784D01*
X90003734Y-135833750D01*
X89991221Y-135829335D01*
X89979168Y-135824537D01*
X89967573Y-135819357D01*
X89956439Y-135813795D01*
X89945763Y-135807851D01*
X89935547Y-135801525D01*
X89925791Y-135794816D01*
X89916494Y-135787726D01*
X89910494Y-135782809D01*
X89901782Y-135775082D01*
X89893413Y-135766935D01*
X89885387Y-135758367D01*
X89877705Y-135749378D01*
X89870366Y-135739968D01*
X89863371Y-135730138D01*
X89856719Y-135719887D01*
X89850411Y-135709215D01*
X89844446Y-135698123D01*
X89838824Y-135686609D01*
X89835275Y-135678768D01*
X89830381Y-135666909D01*
X89826002Y-135654934D01*
X89822138Y-135642843D01*
X89818789Y-135630637D01*
X89815955Y-135618314D01*
X89813637Y-135605876D01*
X89811834Y-135593321D01*
X89810546Y-135580651D01*
X89809773Y-135567865D01*
X89809515Y-135554963D01*
X89810248Y-135522478D01*
X89810248Y-135176142D01*
X90089906Y-135176142D01*
X90089941Y-135181397D01*
X90090217Y-135191659D01*
X90090771Y-135201589D01*
X90092119Y-135215862D01*
X90094091Y-135229387D01*
X90096685Y-135242166D01*
X90099901Y-135254197D01*
X90103740Y-135265481D01*
X90108202Y-135276019D01*
X90113286Y-135285809D01*
X90118992Y-135294852D01*
X90125321Y-135303148D01*
X90127551Y-135305733D01*
X90134435Y-135312994D01*
X90144067Y-135321527D01*
X90154218Y-135328748D01*
X90164889Y-135334655D01*
X90176078Y-135339250D01*
X90187786Y-135342532D01*
X90200014Y-135344502D01*
X90212760Y-135345158D01*
X90216174Y-135345118D01*
X90226167Y-135344524D01*
X90238909Y-135342624D01*
X90250988Y-135339456D01*
X90262403Y-135335022D01*
X90273153Y-135329320D01*
X90283239Y-135322352D01*
X90292662Y-135314116D01*
X90301420Y-135304614D01*
X90303494Y-135302022D01*
X90309320Y-135293741D01*
X90314554Y-135284700D01*
X90319195Y-135274899D01*
X90323243Y-135264338D01*
X90326699Y-135253017D01*
X90329563Y-135240937D01*
X90331834Y-135228096D01*
X90333513Y-135214495D01*
X90334599Y-135200135D01*
X90334994Y-135190139D01*
X90335126Y-135179806D01*
X90335095Y-135173875D01*
X90334845Y-135162332D01*
X90334345Y-135151215D01*
X90333595Y-135140524D01*
X90332595Y-135130258D01*
X90331345Y-135120418D01*
X90329002Y-135106455D01*
X90326096Y-135093450D01*
X90322627Y-135081402D01*
X90318597Y-135070312D01*
X90314004Y-135060179D01*
X90308848Y-135051003D01*
X90303130Y-135042785D01*
X90301109Y-135040231D01*
X90292607Y-135030824D01*
X90283432Y-135022714D01*
X90273586Y-135015902D01*
X90263068Y-135010387D01*
X90251879Y-135006170D01*
X90240018Y-135003251D01*
X90227485Y-135001629D01*
X90217645Y-135001264D01*
X90214318Y-135001308D01*
X90204528Y-135001966D01*
X90191923Y-135004073D01*
X90179829Y-135007584D01*
X90168247Y-135012499D01*
X90157176Y-135018819D01*
X90149208Y-135024480D01*
X90141528Y-135030932D01*
X90134136Y-135038173D01*
X90127031Y-135046205D01*
X90122535Y-135051979D01*
X90116336Y-135061227D01*
X90110789Y-135071178D01*
X90105894Y-135081835D01*
X90101653Y-135093195D01*
X90098063Y-135105259D01*
X90095127Y-135118027D01*
X90092843Y-135131500D01*
X90091211Y-135145676D01*
X90090486Y-135155519D01*
X90090051Y-135165674D01*
X90089906Y-135176142D01*
X89810248Y-135176142D01*
X89810248Y-134829317D01*
X90072076Y-134829317D01*
X90072076Y-134928968D01*
X90078119Y-134921381D01*
X90087291Y-134910516D01*
X90096592Y-134900270D01*
X90106022Y-134890641D01*
X90115580Y-134881631D01*
X90125267Y-134873239D01*
X90135083Y-134865465D01*
X90145028Y-134858309D01*
X90155102Y-134851772D01*
X90165304Y-134845853D01*
X90175635Y-134840552D01*
X90186247Y-134835751D01*
X90197382Y-134831422D01*
X90209042Y-134827565D01*
X90221225Y-134824180D01*
X90233932Y-134821268D01*
X90247162Y-134818828D01*
X90260917Y-134816860D01*
X90275195Y-134815365D01*
X90285005Y-134814630D01*
X90295047Y-134814105D01*
X90305322Y-134813790D01*
X90315831Y-134813685D01*
X90332302Y-134814036D01*
G37*
G36*
X89291678Y-134813736D02*
G01*
X89306113Y-134814002D01*
X89320358Y-134814495D01*
X89334414Y-134815215D01*
X89348282Y-134816163D01*
X89361960Y-134817339D01*
X89375450Y-134818742D01*
X89388751Y-134820373D01*
X89401862Y-134822231D01*
X89414785Y-134824317D01*
X89427519Y-134826630D01*
X89435832Y-134828291D01*
X89447876Y-134830944D01*
X89459408Y-134833790D01*
X89470430Y-134836829D01*
X89480941Y-134840061D01*
X89490941Y-134843486D01*
X89500430Y-134847105D01*
X89512287Y-134852230D01*
X89523236Y-134857699D01*
X89533277Y-134863511D01*
X89539895Y-134867650D01*
X89549454Y-134874037D01*
X89558571Y-134880639D01*
X89567246Y-134887455D01*
X89575478Y-134894486D01*
X89583268Y-134901732D01*
X89590616Y-134909192D01*
X89597522Y-134916867D01*
X89603986Y-134924757D01*
X89610007Y-134932861D01*
X89615586Y-134941180D01*
X89620783Y-134949853D01*
X89625747Y-134959109D01*
X89630480Y-134968950D01*
X89634981Y-134979374D01*
X89639250Y-134990382D01*
X89643287Y-135001974D01*
X89647092Y-135014150D01*
X89650666Y-135026909D01*
X89654007Y-135040253D01*
X89657117Y-135054181D01*
X89659062Y-135063790D01*
X89391860Y-135095053D01*
X89390812Y-135091880D01*
X89386425Y-135079824D01*
X89381726Y-135068791D01*
X89376713Y-135058781D01*
X89371387Y-135049793D01*
X89364290Y-135039997D01*
X89356704Y-135031800D01*
X89348629Y-135025200D01*
X89344191Y-135022301D01*
X89334512Y-135017065D01*
X89323766Y-135012577D01*
X89311951Y-135008837D01*
X89302388Y-135006523D01*
X89292224Y-135004630D01*
X89281459Y-135003157D01*
X89270093Y-135002105D01*
X89258126Y-135001474D01*
X89245558Y-135001264D01*
X89232633Y-135001592D01*
X89220722Y-135002577D01*
X89209827Y-135004218D01*
X89199946Y-135006515D01*
X89189023Y-135010310D01*
X89179686Y-135015130D01*
X89170576Y-135022269D01*
X89163355Y-135031153D01*
X89158478Y-135040236D01*
X89154639Y-135050845D01*
X89152315Y-135060432D01*
X89150655Y-135070995D01*
X89149659Y-135082536D01*
X89149327Y-135095053D01*
X89152588Y-135096282D01*
X89162306Y-135099881D01*
X89171925Y-135103346D01*
X89181446Y-135106679D01*
X89190867Y-135109878D01*
X89200190Y-135112944D01*
X89212467Y-135116825D01*
X89224569Y-135120470D01*
X89236495Y-135123878D01*
X89248245Y-135127049D01*
X89257965Y-135129500D01*
X89269629Y-135132273D01*
X89283238Y-135135367D01*
X89293391Y-135137609D01*
X89304409Y-135139995D01*
X89316291Y-135142523D01*
X89329037Y-135145194D01*
X89342648Y-135148009D01*
X89357123Y-135150966D01*
X89372463Y-135154067D01*
X89388667Y-135157311D01*
X89405735Y-135160698D01*
X89423668Y-135164228D01*
X89442465Y-135167901D01*
X89452188Y-135169792D01*
X89468290Y-135173039D01*
X89483745Y-135176493D01*
X89498553Y-135180153D01*
X89512714Y-135184019D01*
X89526229Y-135188091D01*
X89539096Y-135192369D01*
X89551317Y-135196853D01*
X89562891Y-135201543D01*
X89573818Y-135206439D01*
X89584098Y-135211542D01*
X89593731Y-135216850D01*
X89602718Y-135222365D01*
X89611057Y-135228085D01*
X89622354Y-135237053D01*
X89632195Y-135246484D01*
X89640925Y-135256396D01*
X89648796Y-135266806D01*
X89655808Y-135277713D01*
X89661962Y-135289119D01*
X89667257Y-135301023D01*
X89671694Y-135313425D01*
X89675271Y-135326325D01*
X89677990Y-135339724D01*
X89679851Y-135353620D01*
X89680853Y-135368014D01*
X89681043Y-135377886D01*
X89680779Y-135388465D01*
X89679986Y-135398830D01*
X89678665Y-135408982D01*
X89676815Y-135418919D01*
X89674437Y-135428643D01*
X89671529Y-135438153D01*
X89668094Y-135447450D01*
X89664130Y-135456533D01*
X89659637Y-135465402D01*
X89654616Y-135474057D01*
X89649066Y-135482499D01*
X89642987Y-135490727D01*
X89636380Y-135498741D01*
X89629245Y-135506541D01*
X89621581Y-135514128D01*
X89613388Y-135521501D01*
X89604685Y-135528540D01*
X89595490Y-135535125D01*
X89585802Y-135541256D01*
X89575622Y-135546933D01*
X89564950Y-135552156D01*
X89553785Y-135556924D01*
X89542128Y-135561238D01*
X89529979Y-135565099D01*
X89517338Y-135568505D01*
X89504204Y-135571457D01*
X89490578Y-135573954D01*
X89476460Y-135575998D01*
X89461849Y-135577587D01*
X89446746Y-135578723D01*
X89431151Y-135579404D01*
X89415063Y-135579631D01*
X89402883Y-135579513D01*
X89390891Y-135579158D01*
X89379085Y-135578566D01*
X89367466Y-135577738D01*
X89356034Y-135576673D01*
X89344790Y-135575372D01*
X89333732Y-135573834D01*
X89322861Y-135572060D01*
X89312178Y-135570048D01*
X89301681Y-135567801D01*
X89291371Y-135565316D01*
X89281248Y-135562595D01*
X89271313Y-135559637D01*
X89261564Y-135556443D01*
X89252002Y-135553012D01*
X89242628Y-135549345D01*
X89235847Y-135546358D01*
X89225665Y-135541437D01*
X89215471Y-135535988D01*
X89205263Y-135530011D01*
X89195043Y-135523506D01*
X89184810Y-135516473D01*
X89174564Y-135508911D01*
X89164305Y-135500822D01*
X89154033Y-135492205D01*
X89143749Y-135483059D01*
X89133451Y-135473385D01*
X89132537Y-135479236D01*
X89130723Y-135490050D01*
X89128925Y-135499678D01*
X89126555Y-135510673D01*
X89123926Y-135520524D01*
X89121707Y-135526592D01*
X89117548Y-135536179D01*
X89112781Y-135545969D01*
X89107858Y-135555403D01*
X89103165Y-135564000D01*
X88840848Y-135564000D01*
X88842207Y-135561161D01*
X88847342Y-135550126D01*
X88851996Y-135539603D01*
X88856169Y-135529591D01*
X88859861Y-135520090D01*
X88863800Y-135508933D01*
X88866988Y-135498576D01*
X88869424Y-135489017D01*
X88870193Y-135485266D01*
X88871899Y-135475119D01*
X88873294Y-135463875D01*
X88874187Y-135454090D01*
X88874882Y-135443603D01*
X88875378Y-135432414D01*
X88875676Y-135420522D01*
X88875775Y-135407928D01*
X88875775Y-135235737D01*
X89149327Y-135235737D01*
X89149327Y-135276037D01*
X89149343Y-135278981D01*
X89149738Y-135290409D01*
X89150660Y-135301280D01*
X89152108Y-135311593D01*
X89154083Y-135321350D01*
X89157292Y-135332762D01*
X89161324Y-135343303D01*
X89166180Y-135352974D01*
X89172018Y-135361918D01*
X89179002Y-135370433D01*
X89187131Y-135378519D01*
X89196405Y-135386175D01*
X89204648Y-135391991D01*
X89213624Y-135397533D01*
X89223332Y-135402799D01*
X89233449Y-135407608D01*
X89243772Y-135411775D01*
X89254302Y-135415301D01*
X89265037Y-135418187D01*
X89275978Y-135420431D01*
X89287126Y-135422033D01*
X89298479Y-135422995D01*
X89310039Y-135423316D01*
X89315541Y-135423242D01*
X89326036Y-135422654D01*
X89338199Y-135421093D01*
X89349301Y-135418614D01*
X89359341Y-135415216D01*
X89368320Y-135410900D01*
X89377694Y-135404509D01*
X89380474Y-135402086D01*
X89387738Y-135394312D01*
X89393388Y-135385782D01*
X89397424Y-135376497D01*
X89399846Y-135366457D01*
X89400653Y-135355660D01*
X89399531Y-135344496D01*
X89396165Y-135333868D01*
X89391494Y-135325187D01*
X89385174Y-135316901D01*
X89377205Y-135309010D01*
X89368651Y-135302810D01*
X89359601Y-135297824D01*
X89348589Y-135292815D01*
X89339042Y-135289043D01*
X89328393Y-135285259D01*
X89316640Y-135281461D01*
X89303783Y-135277651D01*
X89289824Y-135273828D01*
X89279904Y-135271272D01*
X89269494Y-135268710D01*
X89261698Y-135266892D01*
X89250074Y-135264105D01*
X89238536Y-135261245D01*
X89227085Y-135258312D01*
X89215719Y-135255306D01*
X89204439Y-135252227D01*
X89193245Y-135249075D01*
X89182136Y-135245850D01*
X89171114Y-135242552D01*
X89160177Y-135239181D01*
X89149327Y-135235737D01*
X88875775Y-135235737D01*
X88875775Y-135083818D01*
X88875856Y-135077326D01*
X88876282Y-135067512D01*
X88877072Y-135057608D01*
X88878228Y-135047614D01*
X88879749Y-135037529D01*
X88881634Y-135027355D01*
X88883884Y-135017090D01*
X88886500Y-135006735D01*
X88889480Y-134996290D01*
X88892825Y-134985755D01*
X88896535Y-134975130D01*
X88897833Y-134971583D01*
X88901901Y-134961250D01*
X88906236Y-134951376D01*
X88910837Y-134941962D01*
X88915704Y-134933006D01*
X88920838Y-134924511D01*
X88928096Y-134913898D01*
X88935828Y-134904101D01*
X88944033Y-134895121D01*
X88952711Y-134886958D01*
X88959162Y-134881461D01*
X88969213Y-134873666D01*
X88979715Y-134866411D01*
X88990668Y-134859698D01*
X89002072Y-134853526D01*
X89013927Y-134847894D01*
X89026232Y-134842804D01*
X89038988Y-134838254D01*
X89052195Y-134834246D01*
X89065853Y-134830778D01*
X89079962Y-134827852D01*
X89089681Y-134826136D01*
X89099787Y-134824531D01*
X89110281Y-134823037D01*
X89121163Y-134821654D01*
X89132431Y-134820381D01*
X89144087Y-134819219D01*
X89156130Y-134818168D01*
X89168561Y-134817227D01*
X89181379Y-134816397D01*
X89194584Y-134815678D01*
X89208177Y-134815069D01*
X89222157Y-134814571D01*
X89236524Y-134814183D01*
X89251279Y-134813907D01*
X89266421Y-134813741D01*
X89281951Y-134813685D01*
X89291678Y-134813736D01*
G37*
G36*
X88749257Y-135223769D02*
G01*
X88453235Y-135204474D01*
X88451273Y-135218176D01*
X88448959Y-135231256D01*
X88446292Y-135243713D01*
X88443274Y-135255547D01*
X88439904Y-135266760D01*
X88436182Y-135277349D01*
X88432107Y-135287316D01*
X88427681Y-135296660D01*
X88422902Y-135305382D01*
X88415983Y-135316043D01*
X88414156Y-135318535D01*
X88407980Y-135326196D01*
X88398112Y-135336759D01*
X88387518Y-135346211D01*
X88376199Y-135354551D01*
X88364154Y-135361779D01*
X88351383Y-135367895D01*
X88337887Y-135372899D01*
X88328487Y-135375617D01*
X88318764Y-135377841D01*
X88308718Y-135379570D01*
X88298350Y-135380806D01*
X88287660Y-135381547D01*
X88276647Y-135381794D01*
X88264415Y-135381524D01*
X88252725Y-135380712D01*
X88241575Y-135379360D01*
X88230966Y-135377467D01*
X88220898Y-135375032D01*
X88211371Y-135372057D01*
X88199510Y-135367249D01*
X88188611Y-135361478D01*
X88178673Y-135354746D01*
X88174065Y-135351020D01*
X88165593Y-135343170D01*
X88158250Y-135335007D01*
X88152037Y-135326531D01*
X88146954Y-135317742D01*
X88143000Y-135308640D01*
X88140176Y-135299225D01*
X88138482Y-135289497D01*
X88137917Y-135279457D01*
X88138758Y-135267600D01*
X88141280Y-135256149D01*
X88145484Y-135245103D01*
X88151370Y-135234462D01*
X88157289Y-135226242D01*
X88164284Y-135218281D01*
X88172355Y-135210580D01*
X88182324Y-135203001D01*
X88191663Y-135197387D01*
X88202600Y-135191833D01*
X88215133Y-135186339D01*
X88224376Y-135182709D01*
X88234329Y-135179107D01*
X88244992Y-135175531D01*
X88256364Y-135171982D01*
X88268447Y-135168459D01*
X88281239Y-135164963D01*
X88294741Y-135161494D01*
X88308953Y-135158052D01*
X88323875Y-135154637D01*
X88331602Y-135152939D01*
X88344279Y-135150085D01*
X88356728Y-135147172D01*
X88368948Y-135144200D01*
X88380939Y-135141169D01*
X88392701Y-135138079D01*
X88404233Y-135134930D01*
X88415537Y-135131721D01*
X88426612Y-135128453D01*
X88437458Y-135125127D01*
X88448075Y-135121741D01*
X88458463Y-135118295D01*
X88468622Y-135114791D01*
X88478552Y-135111228D01*
X88488253Y-135107605D01*
X88497725Y-135103923D01*
X88506968Y-135100182D01*
X88515982Y-135096382D01*
X88533323Y-135088605D01*
X88549749Y-135080590D01*
X88565258Y-135072340D01*
X88579852Y-135063852D01*
X88593529Y-135055128D01*
X88606291Y-135046167D01*
X88618137Y-135036970D01*
X88623716Y-135032283D01*
X88634364Y-135022687D01*
X88644324Y-135012766D01*
X88653598Y-135002521D01*
X88662184Y-134991952D01*
X88670084Y-134981059D01*
X88677297Y-134969841D01*
X88683823Y-134958298D01*
X88689662Y-134946431D01*
X88694814Y-134934240D01*
X88699279Y-134921725D01*
X88703057Y-134908885D01*
X88706148Y-134895721D01*
X88708552Y-134882232D01*
X88710270Y-134868419D01*
X88711300Y-134854281D01*
X88711644Y-134839819D01*
X88711249Y-134825469D01*
X88710064Y-134811269D01*
X88708089Y-134797219D01*
X88705324Y-134783319D01*
X88701769Y-134769570D01*
X88697424Y-134755971D01*
X88692289Y-134742522D01*
X88686364Y-134729223D01*
X88681976Y-134720441D01*
X88677236Y-134711726D01*
X88672145Y-134703077D01*
X88666703Y-134694495D01*
X88660908Y-134686061D01*
X88654758Y-134677856D01*
X88648253Y-134669880D01*
X88641393Y-134662133D01*
X88634179Y-134654615D01*
X88626609Y-134647326D01*
X88618684Y-134640265D01*
X88610405Y-134633434D01*
X88601771Y-134626832D01*
X88592781Y-134620459D01*
X88583437Y-134614315D01*
X88573738Y-134608399D01*
X88563684Y-134602713D01*
X88553275Y-134597256D01*
X88542511Y-134592027D01*
X88531392Y-134587028D01*
X88519835Y-134582296D01*
X88507754Y-134577869D01*
X88495151Y-134573747D01*
X88482025Y-134569931D01*
X88468376Y-134566420D01*
X88454204Y-134563214D01*
X88439509Y-134560314D01*
X88424292Y-134557719D01*
X88408552Y-134555429D01*
X88392288Y-134553445D01*
X88375502Y-134551766D01*
X88358194Y-134550392D01*
X88340362Y-134549323D01*
X88322008Y-134548560D01*
X88303130Y-134548102D01*
X88283730Y-134547949D01*
X88271745Y-134548018D01*
X88259940Y-134548226D01*
X88248315Y-134548572D01*
X88236870Y-134549056D01*
X88225604Y-134549679D01*
X88214519Y-134550439D01*
X88203613Y-134551339D01*
X88192887Y-134552376D01*
X88182341Y-134553552D01*
X88171975Y-134554866D01*
X88161788Y-134556319D01*
X88151782Y-134557910D01*
X88141955Y-134559639D01*
X88132308Y-134561507D01*
X88113554Y-134565657D01*
X88095519Y-134570360D01*
X88078204Y-134575617D01*
X88061607Y-134581428D01*
X88045731Y-134587791D01*
X88030573Y-134594708D01*
X88016135Y-134602179D01*
X88002417Y-134610203D01*
X87989418Y-134618780D01*
X87977068Y-134627960D01*
X87965360Y-134637792D01*
X87954292Y-134648278D01*
X87943866Y-134659416D01*
X87934081Y-134671206D01*
X87924937Y-134683649D01*
X87916435Y-134696745D01*
X87908573Y-134710493D01*
X87901353Y-134724894D01*
X87894773Y-134739947D01*
X87888835Y-134755653D01*
X87883538Y-134772012D01*
X87878882Y-134789023D01*
X87874868Y-134806686D01*
X87871494Y-134825003D01*
X87868762Y-134843972D01*
X88162097Y-134860580D01*
X88164521Y-134848620D01*
X88167395Y-134837287D01*
X88170720Y-134826581D01*
X88174496Y-134816502D01*
X88178723Y-134807049D01*
X88183401Y-134798224D01*
X88190339Y-134787431D01*
X88198078Y-134777753D01*
X88206619Y-134769189D01*
X88211190Y-134765325D01*
X88220979Y-134758342D01*
X88231661Y-134752289D01*
X88243235Y-134747167D01*
X88252503Y-134743937D01*
X88262272Y-134741231D01*
X88272544Y-134739049D01*
X88283318Y-134737390D01*
X88294594Y-134736255D01*
X88306373Y-134735644D01*
X88314505Y-134735528D01*
X88324437Y-134735727D01*
X88336953Y-134736615D01*
X88348636Y-134738212D01*
X88359488Y-134740519D01*
X88369508Y-134743536D01*
X88378696Y-134747262D01*
X88389010Y-134752919D01*
X88396326Y-134758242D01*
X88404207Y-134765579D01*
X88410752Y-134773393D01*
X88415961Y-134781684D01*
X88420449Y-134792263D01*
X88423013Y-134803528D01*
X88423681Y-134813441D01*
X88422594Y-134823584D01*
X88419334Y-134833283D01*
X88413899Y-134842538D01*
X88407510Y-134850117D01*
X88400967Y-134856184D01*
X88392625Y-134862224D01*
X88383830Y-134866962D01*
X88373150Y-134871616D01*
X88363903Y-134875051D01*
X88353595Y-134878440D01*
X88342227Y-134881781D01*
X88329799Y-134885074D01*
X88316310Y-134888321D01*
X88306728Y-134890459D01*
X88296675Y-134892576D01*
X88284042Y-134895279D01*
X88271634Y-134897986D01*
X88259453Y-134900695D01*
X88247498Y-134903407D01*
X88235769Y-134906121D01*
X88224267Y-134908839D01*
X88212990Y-134911560D01*
X88201939Y-134914283D01*
X88191115Y-134917009D01*
X88180517Y-134919738D01*
X88170144Y-134922470D01*
X88159998Y-134925205D01*
X88150078Y-134927943D01*
X88140384Y-134930684D01*
X88130917Y-134933427D01*
X88112659Y-134938922D01*
X88095307Y-134944429D01*
X88078859Y-134949948D01*
X88063315Y-134955478D01*
X88048675Y-134961019D01*
X88034941Y-134966571D01*
X88022110Y-134972136D01*
X88010184Y-134977711D01*
X88004561Y-134980503D01*
X87993697Y-134986144D01*
X87983212Y-134991952D01*
X87973105Y-134997929D01*
X87963375Y-135004073D01*
X87954023Y-135010385D01*
X87945049Y-135016865D01*
X87936453Y-135023513D01*
X87928235Y-135030329D01*
X87920394Y-135037313D01*
X87912931Y-135044464D01*
X87905846Y-135051784D01*
X87899139Y-135059272D01*
X87892810Y-135066927D01*
X87886858Y-135074751D01*
X87878640Y-135086800D01*
X87876089Y-135090901D01*
X87868887Y-135103403D01*
X87862393Y-135116180D01*
X87856608Y-135129232D01*
X87851531Y-135142558D01*
X87847163Y-135156160D01*
X87843502Y-135170036D01*
X87840551Y-135184187D01*
X87838308Y-135198612D01*
X87837206Y-135208382D01*
X87836418Y-135218274D01*
X87835946Y-135228288D01*
X87835789Y-135238424D01*
X87835999Y-135250334D01*
X87836628Y-135262131D01*
X87837678Y-135273812D01*
X87839147Y-135285379D01*
X87841036Y-135296832D01*
X87843345Y-135308170D01*
X87846074Y-135319394D01*
X87849222Y-135330503D01*
X87852790Y-135341498D01*
X87856778Y-135352378D01*
X87861186Y-135363144D01*
X87866014Y-135373795D01*
X87871261Y-135384332D01*
X87876928Y-135394754D01*
X87883015Y-135405062D01*
X87889522Y-135415256D01*
X87896375Y-135425209D01*
X87903562Y-135434856D01*
X87911083Y-135444198D01*
X87918938Y-135453235D01*
X87927127Y-135461967D01*
X87935650Y-135470393D01*
X87944506Y-135478515D01*
X87953697Y-135486330D01*
X87963222Y-135493841D01*
X87973080Y-135501046D01*
X87983272Y-135507946D01*
X87993799Y-135514540D01*
X88004659Y-135520830D01*
X88015853Y-135526814D01*
X88027381Y-135532492D01*
X88039243Y-135537866D01*
X88051438Y-135542923D01*
X88064026Y-135547654D01*
X88077007Y-135552059D01*
X88090381Y-135556138D01*
X88104149Y-135559890D01*
X88118309Y-135563316D01*
X88132862Y-135566416D01*
X88147809Y-135569190D01*
X88163149Y-135571637D01*
X88178881Y-135573758D01*
X88195007Y-135575552D01*
X88211526Y-135577021D01*
X88228438Y-135578163D01*
X88245743Y-135578978D01*
X88263441Y-135579468D01*
X88281532Y-135579631D01*
X88297437Y-135579533D01*
X88313033Y-135579239D01*
X88328320Y-135578749D01*
X88343299Y-135578063D01*
X88357969Y-135577180D01*
X88372330Y-135576102D01*
X88386383Y-135574828D01*
X88400127Y-135573357D01*
X88413563Y-135571691D01*
X88426689Y-135569828D01*
X88439508Y-135567769D01*
X88452017Y-135565515D01*
X88464218Y-135563064D01*
X88476110Y-135560417D01*
X88487694Y-135557574D01*
X88498969Y-135554535D01*
X88509936Y-135551300D01*
X88520593Y-135547869D01*
X88530942Y-135544242D01*
X88540983Y-135540419D01*
X88550715Y-135536399D01*
X88560138Y-135532184D01*
X88569252Y-135527773D01*
X88578058Y-135523165D01*
X88594744Y-135513362D01*
X88610195Y-135502775D01*
X88624412Y-135491403D01*
X88637394Y-135479247D01*
X88649423Y-135466457D01*
X88660780Y-135453243D01*
X88671466Y-135439605D01*
X88681480Y-135425544D01*
X88690822Y-135411060D01*
X88699493Y-135396151D01*
X88707491Y-135380819D01*
X88714819Y-135365064D01*
X88721474Y-135348885D01*
X88727458Y-135332282D01*
X88732771Y-135315255D01*
X88737411Y-135297805D01*
X88741380Y-135279932D01*
X88744677Y-135261634D01*
X88747303Y-135242914D01*
X88749257Y-135223769D01*
G37*
G36*
X87366110Y-134563581D02*
G01*
X87366110Y-134829317D01*
X87212237Y-134829317D01*
X87212237Y-135032527D01*
X87366110Y-135032527D01*
X87366110Y-135303148D01*
X87365969Y-135314788D01*
X87365545Y-135325405D01*
X87364618Y-135337238D01*
X87363250Y-135347472D01*
X87361026Y-135357645D01*
X87357073Y-135367628D01*
X87351214Y-135375929D01*
X87343895Y-135382512D01*
X87335117Y-135387378D01*
X87324879Y-135390526D01*
X87313181Y-135391957D01*
X87308957Y-135392053D01*
X87298732Y-135391599D01*
X87287290Y-135390240D01*
X87277261Y-135388500D01*
X87266453Y-135386179D01*
X87254867Y-135383279D01*
X87242502Y-135379798D01*
X87232717Y-135376807D01*
X87222495Y-135373490D01*
X87201979Y-135558138D01*
X87214900Y-135560740D01*
X87227712Y-135563175D01*
X87240415Y-135565442D01*
X87253010Y-135567541D01*
X87265496Y-135569472D01*
X87277873Y-135571235D01*
X87290142Y-135572830D01*
X87302301Y-135574258D01*
X87314352Y-135575517D01*
X87326294Y-135576609D01*
X87338128Y-135577532D01*
X87349852Y-135578288D01*
X87361468Y-135578875D01*
X87372975Y-135579295D01*
X87384374Y-135579547D01*
X87395663Y-135579631D01*
X87408515Y-135579526D01*
X87420938Y-135579211D01*
X87432932Y-135578687D01*
X87444496Y-135577952D01*
X87455631Y-135577007D01*
X87466337Y-135575853D01*
X87476613Y-135574489D01*
X87486460Y-135572914D01*
X87500426Y-135570159D01*
X87513425Y-135566932D01*
X87525459Y-135563233D01*
X87536526Y-135559061D01*
X87546628Y-135554417D01*
X87549780Y-135552764D01*
X87558806Y-135547434D01*
X87567380Y-135541610D01*
X87575504Y-135535293D01*
X87583177Y-135528481D01*
X87590399Y-135521176D01*
X87597170Y-135513377D01*
X87603491Y-135505085D01*
X87609360Y-135496298D01*
X87614779Y-135487018D01*
X87619747Y-135477245D01*
X87622809Y-135470454D01*
X87627043Y-135459506D01*
X87630860Y-135447359D01*
X87634261Y-135434015D01*
X87636297Y-135424453D01*
X87638148Y-135414359D01*
X87639814Y-135403733D01*
X87641295Y-135392574D01*
X87642591Y-135380882D01*
X87643701Y-135368659D01*
X87644627Y-135355903D01*
X87645367Y-135342615D01*
X87645922Y-135328794D01*
X87646292Y-135314441D01*
X87646477Y-135299555D01*
X87646501Y-135291913D01*
X87646501Y-135032527D01*
X87749327Y-135032527D01*
X87749327Y-134829317D01*
X87646501Y-134829317D01*
X87646501Y-134701090D01*
X87366110Y-134563581D01*
G37*
G36*
X86716923Y-134813789D02*
G01*
X86728738Y-134814100D01*
X86740391Y-134814619D01*
X86751881Y-134815346D01*
X86763208Y-134816279D01*
X86774373Y-134817421D01*
X86785375Y-134818769D01*
X86796215Y-134820326D01*
X86806892Y-134822090D01*
X86817406Y-134824061D01*
X86827757Y-134826240D01*
X86837946Y-134828626D01*
X86847972Y-134831220D01*
X86857836Y-134834022D01*
X86867536Y-134837030D01*
X86877075Y-134840247D01*
X86886450Y-134843671D01*
X86895663Y-134847302D01*
X86913600Y-134855188D01*
X86930887Y-134863903D01*
X86947523Y-134873449D01*
X86963509Y-134883824D01*
X86978844Y-134895030D01*
X86993528Y-134907065D01*
X87007561Y-134919931D01*
X87014293Y-134926636D01*
X87027116Y-134940430D01*
X87039084Y-134954737D01*
X87050197Y-134969557D01*
X87060455Y-134984891D01*
X87069858Y-135000739D01*
X87078407Y-135017099D01*
X87086101Y-135033973D01*
X87092939Y-135051360D01*
X87098923Y-135069260D01*
X87104052Y-135087674D01*
X87108327Y-135106601D01*
X87110143Y-135116257D01*
X87111746Y-135126041D01*
X87113135Y-135135953D01*
X87114311Y-135145994D01*
X87115272Y-135156164D01*
X87116020Y-135166461D01*
X87116555Y-135176887D01*
X87116875Y-135187441D01*
X87116982Y-135198124D01*
X87116769Y-135213084D01*
X87116131Y-135227799D01*
X87115067Y-135242271D01*
X87113578Y-135256498D01*
X87111663Y-135270481D01*
X87109323Y-135284219D01*
X87106557Y-135297714D01*
X87103366Y-135310964D01*
X87099749Y-135323970D01*
X87095706Y-135336732D01*
X87091238Y-135349249D01*
X87086345Y-135361522D01*
X87081026Y-135373551D01*
X87075281Y-135385336D01*
X87069111Y-135396876D01*
X87062516Y-135408173D01*
X87055566Y-135419158D01*
X87048396Y-135429765D01*
X87041003Y-135439995D01*
X87033390Y-135449846D01*
X87025555Y-135459320D01*
X87017499Y-135468417D01*
X87009221Y-135477135D01*
X87000722Y-135485475D01*
X86992002Y-135493438D01*
X86983061Y-135501023D01*
X86973898Y-135508230D01*
X86964513Y-135515059D01*
X86954908Y-135521511D01*
X86945081Y-135527584D01*
X86935033Y-135533280D01*
X86924763Y-135538598D01*
X86914112Y-135543567D01*
X86902980Y-135548215D01*
X86891367Y-135552543D01*
X86879273Y-135556550D01*
X86866698Y-135560237D01*
X86853642Y-135563603D01*
X86840106Y-135566648D01*
X86826089Y-135569373D01*
X86811591Y-135571777D01*
X86796612Y-135573861D01*
X86781152Y-135575624D01*
X86765211Y-135577066D01*
X86748790Y-135578188D01*
X86731887Y-135578990D01*
X86714504Y-135579471D01*
X86696640Y-135579631D01*
X86686290Y-135579581D01*
X86676091Y-135579433D01*
X86666044Y-135579185D01*
X86656149Y-135578837D01*
X86636814Y-135577845D01*
X86618086Y-135576456D01*
X86599964Y-135574670D01*
X86582449Y-135572487D01*
X86565541Y-135569907D01*
X86549240Y-135566930D01*
X86533545Y-135563557D01*
X86518457Y-135559786D01*
X86503976Y-135555619D01*
X86490102Y-135551055D01*
X86476835Y-135546093D01*
X86464174Y-135540735D01*
X86452121Y-135534980D01*
X86440674Y-135528829D01*
X86429602Y-135522190D01*
X86418734Y-135515036D01*
X86408070Y-135507368D01*
X86397611Y-135499184D01*
X86387355Y-135490484D01*
X86377304Y-135481270D01*
X86367457Y-135471540D01*
X86357814Y-135461295D01*
X86348376Y-135450535D01*
X86339141Y-135439260D01*
X86330111Y-135427470D01*
X86321285Y-135415164D01*
X86312663Y-135402343D01*
X86304245Y-135389007D01*
X86296031Y-135375156D01*
X86288022Y-135360789D01*
X86563528Y-135329526D01*
X86571611Y-135338761D01*
X86579528Y-135347077D01*
X86587277Y-135354474D01*
X86594860Y-135360954D01*
X86603738Y-135367517D01*
X86612376Y-135372757D01*
X86621665Y-135377280D01*
X86631091Y-135381199D01*
X86640655Y-135384515D01*
X86650356Y-135387229D01*
X86660195Y-135389339D01*
X86670170Y-135390847D01*
X86680283Y-135391751D01*
X86690534Y-135392053D01*
X86698589Y-135391876D01*
X86710311Y-135390949D01*
X86721599Y-135389228D01*
X86732453Y-135386713D01*
X86742874Y-135383404D01*
X86752861Y-135379300D01*
X86762414Y-135374402D01*
X86771534Y-135368710D01*
X86780220Y-135362223D01*
X86788472Y-135354943D01*
X86796291Y-135346868D01*
X86798072Y-135344881D01*
X86804779Y-135336293D01*
X86810822Y-135326674D01*
X86816201Y-135316025D01*
X86820916Y-135304345D01*
X86824017Y-135294909D01*
X86826744Y-135284893D01*
X86829097Y-135274298D01*
X86831077Y-135263123D01*
X86832683Y-135251369D01*
X86272146Y-135251369D01*
X86272146Y-135220594D01*
X86272331Y-135203305D01*
X86272886Y-135186427D01*
X86273812Y-135169959D01*
X86275107Y-135153900D01*
X86276773Y-135138253D01*
X86278809Y-135123015D01*
X86280810Y-135110685D01*
X86556445Y-135110685D01*
X86831951Y-135110685D01*
X86831505Y-135107761D01*
X86829360Y-135096520D01*
X86826636Y-135086005D01*
X86823331Y-135076214D01*
X86819446Y-135067148D01*
X86813774Y-135056836D01*
X86807195Y-135047657D01*
X86799711Y-135039610D01*
X86794629Y-135034967D01*
X86786614Y-135028563D01*
X86778126Y-135022834D01*
X86769165Y-135017778D01*
X86759733Y-135013397D01*
X86749828Y-135009690D01*
X86739451Y-135006656D01*
X86728602Y-135004297D01*
X86717281Y-135002612D01*
X86705487Y-135001601D01*
X86693221Y-135001264D01*
X86686074Y-135001363D01*
X86675686Y-135001884D01*
X86665698Y-135002852D01*
X86653001Y-135004836D01*
X86641014Y-135007614D01*
X86629737Y-135011186D01*
X86619169Y-135015552D01*
X86609312Y-135020712D01*
X86600164Y-135026665D01*
X86593762Y-135031720D01*
X86585967Y-135039368D01*
X86579020Y-135048054D01*
X86572919Y-135057778D01*
X86567666Y-135068540D01*
X86563260Y-135080340D01*
X86560512Y-135089871D01*
X86558240Y-135099986D01*
X86556445Y-135110685D01*
X86280810Y-135110685D01*
X86281215Y-135108188D01*
X86283992Y-135093771D01*
X86287138Y-135079764D01*
X86290655Y-135066168D01*
X86294542Y-135052981D01*
X86298799Y-135040205D01*
X86303426Y-135027840D01*
X86308424Y-135015884D01*
X86313791Y-135004339D01*
X86319529Y-134993204D01*
X86325622Y-134982436D01*
X86332054Y-134971993D01*
X86338826Y-134961874D01*
X86345938Y-134952080D01*
X86353389Y-134942609D01*
X86361180Y-134933464D01*
X86369311Y-134924642D01*
X86377781Y-134916145D01*
X86386591Y-134907973D01*
X86395741Y-134900125D01*
X86405230Y-134892601D01*
X86415059Y-134885401D01*
X86425227Y-134878526D01*
X86435735Y-134871976D01*
X86446583Y-134865749D01*
X86457771Y-134859847D01*
X86469355Y-134854257D01*
X86481455Y-134849028D01*
X86494069Y-134844160D01*
X86507199Y-134839652D01*
X86520844Y-134835504D01*
X86535005Y-134831717D01*
X86549680Y-134828291D01*
X86564871Y-134825226D01*
X86580577Y-134822521D01*
X86596798Y-134820177D01*
X86613535Y-134818193D01*
X86630786Y-134816571D01*
X86648553Y-134815308D01*
X86666835Y-134814407D01*
X86685632Y-134813866D01*
X86704944Y-134813685D01*
X86716923Y-134813789D01*
G37*
G36*
X85660266Y-134813801D02*
G01*
X85673918Y-134814407D01*
X85687337Y-134815533D01*
X85700525Y-134817178D01*
X85713481Y-134819342D01*
X85726205Y-134822026D01*
X85738697Y-134825230D01*
X85750957Y-134828953D01*
X85762986Y-134833195D01*
X85774782Y-134837957D01*
X85786347Y-134843239D01*
X85789195Y-134844652D01*
X85797842Y-134849364D01*
X85806643Y-134854784D01*
X85815599Y-134860913D01*
X85824709Y-134867750D01*
X85833974Y-134875296D01*
X85843394Y-134883550D01*
X85852968Y-134892512D01*
X85862697Y-134902183D01*
X85872580Y-134912562D01*
X85879255Y-134919875D01*
X85885998Y-134927503D01*
X85885998Y-134829317D01*
X86147582Y-134829317D01*
X86147582Y-135845367D01*
X85865237Y-135845367D01*
X85865237Y-135501229D01*
X85859972Y-135506009D01*
X85851905Y-135512900D01*
X85843637Y-135519456D01*
X85835167Y-135525677D01*
X85826495Y-135531563D01*
X85817622Y-135537114D01*
X85808546Y-135542331D01*
X85799269Y-135547212D01*
X85789790Y-135551759D01*
X85780110Y-135555970D01*
X85770227Y-135559847D01*
X85763527Y-135562243D01*
X85753308Y-135565547D01*
X85742887Y-135568503D01*
X85732265Y-135571111D01*
X85721440Y-135573371D01*
X85710414Y-135575284D01*
X85699187Y-135576849D01*
X85687757Y-135578066D01*
X85676126Y-135578936D01*
X85664293Y-135579457D01*
X85652258Y-135579631D01*
X85635798Y-135579255D01*
X85619697Y-135578127D01*
X85603955Y-135576248D01*
X85588571Y-135573617D01*
X85573547Y-135570233D01*
X85558881Y-135566098D01*
X85544573Y-135561212D01*
X85530625Y-135555573D01*
X85517035Y-135549183D01*
X85503804Y-135542041D01*
X85490931Y-135534147D01*
X85478418Y-135525501D01*
X85466263Y-135516103D01*
X85454467Y-135505954D01*
X85443029Y-135495052D01*
X85431951Y-135483399D01*
X85426586Y-135477300D01*
X85416368Y-135464594D01*
X85406831Y-135451210D01*
X85397975Y-135437149D01*
X85389801Y-135422410D01*
X85382308Y-135406995D01*
X85375495Y-135390901D01*
X85369365Y-135374131D01*
X85363915Y-135356682D01*
X85359146Y-135338557D01*
X85355059Y-135319754D01*
X85353271Y-135310099D01*
X85351653Y-135300274D01*
X85350206Y-135290280D01*
X85348928Y-135280116D01*
X85347821Y-135269783D01*
X85346885Y-135259281D01*
X85346118Y-135248609D01*
X85345522Y-135237769D01*
X85345097Y-135226758D01*
X85344841Y-135215579D01*
X85344756Y-135204230D01*
X85344834Y-135193972D01*
X85624170Y-135193972D01*
X85624202Y-135200657D01*
X85624460Y-135213662D01*
X85624975Y-135226175D01*
X85625748Y-135238198D01*
X85626778Y-135249731D01*
X85628066Y-135260774D01*
X85629612Y-135271326D01*
X85631415Y-135281387D01*
X85633476Y-135290959D01*
X85637050Y-135304396D01*
X85641204Y-135316730D01*
X85645937Y-135327961D01*
X85651250Y-135338088D01*
X85657143Y-135347112D01*
X85659219Y-135349877D01*
X85665634Y-135357645D01*
X85674621Y-135366773D01*
X85684105Y-135374498D01*
X85694084Y-135380817D01*
X85704560Y-135385733D01*
X85715532Y-135389244D01*
X85727000Y-135391350D01*
X85738964Y-135392053D01*
X85749236Y-135391640D01*
X85759168Y-135390404D01*
X85768762Y-135388343D01*
X85781025Y-135384313D01*
X85792686Y-135378818D01*
X85801036Y-135373734D01*
X85809047Y-135367827D01*
X85816718Y-135361095D01*
X85824050Y-135353538D01*
X85831043Y-135345158D01*
X85837547Y-135335879D01*
X85843411Y-135325721D01*
X85848635Y-135314682D01*
X85853220Y-135302763D01*
X85857165Y-135289964D01*
X85860470Y-135276284D01*
X85862318Y-135266676D01*
X85863882Y-135256676D01*
X85865161Y-135246285D01*
X85866156Y-135235503D01*
X85866867Y-135224330D01*
X85867293Y-135212766D01*
X85867436Y-135200810D01*
X85867401Y-135194273D01*
X85867122Y-135181542D01*
X85866565Y-135169269D01*
X85865729Y-135157453D01*
X85864615Y-135146096D01*
X85863222Y-135135197D01*
X85861550Y-135124755D01*
X85859600Y-135114772D01*
X85857372Y-135105247D01*
X85853506Y-135091817D01*
X85849014Y-135079418D01*
X85843895Y-135068049D01*
X85838149Y-135057711D01*
X85831776Y-135048403D01*
X85824890Y-135039979D01*
X85817694Y-135032383D01*
X85810189Y-135025616D01*
X85799702Y-135017882D01*
X85788665Y-135011622D01*
X85777079Y-135006834D01*
X85764943Y-135003520D01*
X85752258Y-135001678D01*
X85742383Y-135001264D01*
X85736246Y-135001446D01*
X85724331Y-135002904D01*
X85712898Y-135005820D01*
X85701945Y-135010193D01*
X85691473Y-135016024D01*
X85681482Y-135023314D01*
X85671972Y-135032061D01*
X85665155Y-135039577D01*
X85658608Y-135047914D01*
X85652454Y-135057125D01*
X85646904Y-135067263D01*
X85641961Y-135078328D01*
X85637622Y-135090321D01*
X85633889Y-135103241D01*
X85630761Y-135117089D01*
X85629013Y-135126835D01*
X85627533Y-135136994D01*
X85626322Y-135147565D01*
X85625380Y-135158549D01*
X85624708Y-135169944D01*
X85624304Y-135181752D01*
X85624170Y-135193972D01*
X85344834Y-135193972D01*
X85344834Y-135193932D01*
X85345069Y-135183738D01*
X85345460Y-135173648D01*
X85346008Y-135163663D01*
X85346712Y-135153781D01*
X85347572Y-135144003D01*
X85349763Y-135124759D01*
X85352579Y-135105932D01*
X85356022Y-135087520D01*
X85360090Y-135069524D01*
X85364784Y-135051944D01*
X85370104Y-135034781D01*
X85376050Y-135018033D01*
X85382621Y-135001701D01*
X85389819Y-134985785D01*
X85397642Y-134970285D01*
X85406091Y-134955201D01*
X85415167Y-134940533D01*
X85424868Y-134926281D01*
X85435111Y-134912647D01*
X85445872Y-134899892D01*
X85457153Y-134888016D01*
X85468953Y-134877021D01*
X85481272Y-134866905D01*
X85494110Y-134857668D01*
X85507467Y-134849312D01*
X85521344Y-134841834D01*
X85535739Y-134835237D01*
X85550653Y-134829519D01*
X85566086Y-134824681D01*
X85582038Y-134820723D01*
X85598509Y-134817644D01*
X85615499Y-134815445D01*
X85633008Y-134814125D01*
X85651036Y-134813685D01*
X85660266Y-134813801D01*
G37*
G36*
X84727259Y-134813801D02*
G01*
X84740910Y-134814407D01*
X84754329Y-134815533D01*
X84767517Y-134817178D01*
X84780473Y-134819342D01*
X84793197Y-134822026D01*
X84805689Y-134825230D01*
X84817949Y-134828953D01*
X84829978Y-134833195D01*
X84841775Y-134837957D01*
X84853339Y-134843239D01*
X84856187Y-134844652D01*
X84864834Y-134849364D01*
X84873635Y-134854784D01*
X84882591Y-134860913D01*
X84891702Y-134867750D01*
X84900967Y-134875296D01*
X84910386Y-134883550D01*
X84919960Y-134892512D01*
X84929689Y-134902183D01*
X84939572Y-134912562D01*
X84946247Y-134919875D01*
X84952990Y-134927503D01*
X84952990Y-134829317D01*
X85214575Y-134829317D01*
X85214575Y-135845367D01*
X84932230Y-135845367D01*
X84932230Y-135501229D01*
X84926964Y-135506009D01*
X84918898Y-135512900D01*
X84910630Y-135519456D01*
X84902160Y-135525677D01*
X84893488Y-135531563D01*
X84884614Y-135537114D01*
X84875539Y-135542331D01*
X84866262Y-135547212D01*
X84856783Y-135551759D01*
X84847102Y-135555970D01*
X84837219Y-135559847D01*
X84830519Y-135562243D01*
X84820300Y-135565547D01*
X84809879Y-135568503D01*
X84799257Y-135571111D01*
X84788433Y-135573371D01*
X84777407Y-135575284D01*
X84766179Y-135576849D01*
X84754749Y-135578066D01*
X84743118Y-135578936D01*
X84731285Y-135579457D01*
X84719250Y-135579631D01*
X84702790Y-135579255D01*
X84686689Y-135578127D01*
X84670947Y-135576248D01*
X84655564Y-135573617D01*
X84640539Y-135570233D01*
X84625873Y-135566098D01*
X84611566Y-135561212D01*
X84597617Y-135555573D01*
X84584027Y-135549183D01*
X84570796Y-135542041D01*
X84557924Y-135534147D01*
X84545410Y-135525501D01*
X84533255Y-135516103D01*
X84521459Y-135505954D01*
X84510022Y-135495052D01*
X84498943Y-135483399D01*
X84493578Y-135477300D01*
X84483360Y-135464594D01*
X84473823Y-135451210D01*
X84464968Y-135437149D01*
X84456793Y-135422410D01*
X84449300Y-135406995D01*
X84442488Y-135390901D01*
X84436357Y-135374131D01*
X84430907Y-135356682D01*
X84426139Y-135338557D01*
X84422052Y-135319754D01*
X84420263Y-135310099D01*
X84418646Y-135300274D01*
X84417198Y-135290280D01*
X84415921Y-135280116D01*
X84414814Y-135269783D01*
X84413877Y-135259281D01*
X84413111Y-135248609D01*
X84412515Y-135237769D01*
X84412089Y-135226758D01*
X84411833Y-135215579D01*
X84411748Y-135204230D01*
X84411827Y-135193972D01*
X84691162Y-135193972D01*
X84691194Y-135200657D01*
X84691452Y-135213662D01*
X84691967Y-135226175D01*
X84692740Y-135238198D01*
X84693770Y-135249731D01*
X84695058Y-135260774D01*
X84696604Y-135271326D01*
X84698407Y-135281387D01*
X84700468Y-135290959D01*
X84704042Y-135304396D01*
X84708196Y-135316730D01*
X84712929Y-135327961D01*
X84718242Y-135338088D01*
X84724135Y-135347112D01*
X84726211Y-135349877D01*
X84732626Y-135357645D01*
X84741614Y-135366773D01*
X84751097Y-135374498D01*
X84761077Y-135380817D01*
X84771552Y-135385733D01*
X84782524Y-135389244D01*
X84793992Y-135391350D01*
X84805956Y-135392053D01*
X84816228Y-135391640D01*
X84826161Y-135390404D01*
X84835754Y-135388343D01*
X84848018Y-135384313D01*
X84859678Y-135378818D01*
X84868028Y-135373734D01*
X84876039Y-135367827D01*
X84883710Y-135361095D01*
X84891043Y-135353538D01*
X84898036Y-135345158D01*
X84904539Y-135335879D01*
X84910403Y-135325721D01*
X84915628Y-135314682D01*
X84920212Y-135302763D01*
X84924157Y-135289964D01*
X84927462Y-135276284D01*
X84929310Y-135266676D01*
X84930874Y-135256676D01*
X84932153Y-135246285D01*
X84933149Y-135235503D01*
X84933859Y-135224330D01*
X84934286Y-135212766D01*
X84934428Y-135200810D01*
X84934393Y-135194273D01*
X84934115Y-135181542D01*
X84933557Y-135169269D01*
X84932722Y-135157453D01*
X84931607Y-135146096D01*
X84930214Y-135135197D01*
X84928543Y-135124755D01*
X84926593Y-135114772D01*
X84924364Y-135105247D01*
X84920498Y-135091817D01*
X84916006Y-135079418D01*
X84910887Y-135068049D01*
X84905141Y-135057711D01*
X84898769Y-135048403D01*
X84891882Y-135039979D01*
X84884686Y-135032383D01*
X84877182Y-135025616D01*
X84866694Y-135017882D01*
X84855658Y-135011622D01*
X84844071Y-135006834D01*
X84831936Y-135003520D01*
X84819250Y-135001678D01*
X84809376Y-135001264D01*
X84803238Y-135001446D01*
X84791324Y-135002904D01*
X84779890Y-135005820D01*
X84768937Y-135010193D01*
X84758465Y-135016024D01*
X84748474Y-135023314D01*
X84738964Y-135032061D01*
X84732147Y-135039577D01*
X84725600Y-135047914D01*
X84719446Y-135057125D01*
X84713897Y-135067263D01*
X84708953Y-135078328D01*
X84704615Y-135090321D01*
X84700881Y-135103241D01*
X84697754Y-135117089D01*
X84696005Y-135126835D01*
X84694525Y-135136994D01*
X84693314Y-135147565D01*
X84692373Y-135158549D01*
X84691700Y-135169944D01*
X84691297Y-135181752D01*
X84691162Y-135193972D01*
X84411827Y-135193972D01*
X84411827Y-135193932D01*
X84412061Y-135183738D01*
X84412452Y-135173648D01*
X84413000Y-135163663D01*
X84413704Y-135153781D01*
X84414565Y-135144003D01*
X84416755Y-135124759D01*
X84419572Y-135105932D01*
X84423014Y-135087520D01*
X84427082Y-135069524D01*
X84431776Y-135051944D01*
X84437096Y-135034781D01*
X84443042Y-135018033D01*
X84449614Y-135001701D01*
X84456811Y-134985785D01*
X84464634Y-134970285D01*
X84473084Y-134955201D01*
X84482159Y-134940533D01*
X84491860Y-134926281D01*
X84502103Y-134912647D01*
X84512865Y-134899892D01*
X84524146Y-134888016D01*
X84535946Y-134877021D01*
X84548265Y-134866905D01*
X84561103Y-134857668D01*
X84574460Y-134849312D01*
X84588336Y-134841834D01*
X84602731Y-134835237D01*
X84617645Y-134829519D01*
X84633078Y-134824681D01*
X84649030Y-134820723D01*
X84665501Y-134817644D01*
X84682491Y-134815445D01*
X84700001Y-134814125D01*
X84718029Y-134813685D01*
X84727259Y-134813801D01*
G37*
G36*
X83917899Y-134813789D02*
G01*
X83929715Y-134814100D01*
X83941368Y-134814619D01*
X83952858Y-134815346D01*
X83964185Y-134816279D01*
X83975350Y-134817421D01*
X83986352Y-134818769D01*
X83997192Y-134820326D01*
X84007869Y-134822090D01*
X84018383Y-134824061D01*
X84028734Y-134826240D01*
X84038923Y-134828626D01*
X84048949Y-134831220D01*
X84058813Y-134834022D01*
X84068513Y-134837030D01*
X84078051Y-134840247D01*
X84087427Y-134843671D01*
X84096640Y-134847302D01*
X84114577Y-134855188D01*
X84131864Y-134863903D01*
X84148500Y-134873449D01*
X84164486Y-134883824D01*
X84179821Y-134895030D01*
X84194505Y-134907065D01*
X84208538Y-134919931D01*
X84215270Y-134926636D01*
X84228093Y-134940430D01*
X84240061Y-134954737D01*
X84251174Y-134969557D01*
X84261432Y-134984891D01*
X84270835Y-135000739D01*
X84279384Y-135017099D01*
X84287078Y-135033973D01*
X84293916Y-135051360D01*
X84299900Y-135069260D01*
X84305029Y-135087674D01*
X84309304Y-135106601D01*
X84311120Y-135116257D01*
X84312723Y-135126041D01*
X84314112Y-135135953D01*
X84315288Y-135145994D01*
X84316249Y-135156164D01*
X84316997Y-135166461D01*
X84317532Y-135176887D01*
X84317852Y-135187441D01*
X84317959Y-135198124D01*
X84317746Y-135213084D01*
X84317108Y-135227799D01*
X84316044Y-135242271D01*
X84314555Y-135256498D01*
X84312640Y-135270481D01*
X84310300Y-135284219D01*
X84307534Y-135297714D01*
X84304342Y-135310964D01*
X84300726Y-135323970D01*
X84296683Y-135336732D01*
X84292215Y-135349249D01*
X84287322Y-135361522D01*
X84282003Y-135373551D01*
X84276258Y-135385336D01*
X84270088Y-135396876D01*
X84263493Y-135408173D01*
X84256543Y-135419158D01*
X84249373Y-135429765D01*
X84241980Y-135439995D01*
X84234367Y-135449846D01*
X84226532Y-135459320D01*
X84218476Y-135468417D01*
X84210198Y-135477135D01*
X84201699Y-135485475D01*
X84192979Y-135493438D01*
X84184038Y-135501023D01*
X84174875Y-135508230D01*
X84165490Y-135515059D01*
X84155885Y-135521511D01*
X84146058Y-135527584D01*
X84136010Y-135533280D01*
X84125740Y-135538598D01*
X84115089Y-135543567D01*
X84103956Y-135548215D01*
X84092344Y-135552543D01*
X84080250Y-135556550D01*
X84067675Y-135560237D01*
X84054619Y-135563603D01*
X84041083Y-135566648D01*
X84027066Y-135569373D01*
X84012568Y-135571777D01*
X83997589Y-135573861D01*
X83982129Y-135575624D01*
X83966188Y-135577066D01*
X83949767Y-135578188D01*
X83932864Y-135578990D01*
X83915481Y-135579471D01*
X83897617Y-135579631D01*
X83887267Y-135579581D01*
X83877068Y-135579433D01*
X83867021Y-135579185D01*
X83857126Y-135578837D01*
X83837791Y-135577845D01*
X83819062Y-135576456D01*
X83800941Y-135574670D01*
X83783426Y-135572487D01*
X83766518Y-135569907D01*
X83750217Y-135566930D01*
X83734522Y-135563557D01*
X83719434Y-135559786D01*
X83704953Y-135555619D01*
X83691079Y-135551055D01*
X83677812Y-135546093D01*
X83665151Y-135540735D01*
X83653098Y-135534980D01*
X83641651Y-135528829D01*
X83630579Y-135522190D01*
X83619711Y-135515036D01*
X83609047Y-135507368D01*
X83598588Y-135499184D01*
X83588332Y-135490484D01*
X83578281Y-135481270D01*
X83568434Y-135471540D01*
X83558791Y-135461295D01*
X83549353Y-135450535D01*
X83540118Y-135439260D01*
X83531088Y-135427470D01*
X83522262Y-135415164D01*
X83513640Y-135402343D01*
X83505222Y-135389007D01*
X83497008Y-135375156D01*
X83488999Y-135360789D01*
X83764505Y-135329526D01*
X83772588Y-135338761D01*
X83780505Y-135347077D01*
X83788254Y-135354474D01*
X83795837Y-135360954D01*
X83804715Y-135367517D01*
X83813353Y-135372757D01*
X83822642Y-135377280D01*
X83832068Y-135381199D01*
X83841632Y-135384515D01*
X83851333Y-135387229D01*
X83861171Y-135389339D01*
X83871147Y-135390847D01*
X83881260Y-135391751D01*
X83891511Y-135392053D01*
X83899566Y-135391876D01*
X83911288Y-135390949D01*
X83922576Y-135389228D01*
X83933430Y-135386713D01*
X83943851Y-135383404D01*
X83953838Y-135379300D01*
X83963391Y-135374402D01*
X83972511Y-135368710D01*
X83981197Y-135362223D01*
X83989449Y-135354943D01*
X83997268Y-135346868D01*
X83999049Y-135344881D01*
X84005756Y-135336293D01*
X84011799Y-135326674D01*
X84017178Y-135316025D01*
X84021893Y-135304345D01*
X84024994Y-135294909D01*
X84027721Y-135284893D01*
X84030074Y-135274298D01*
X84032054Y-135263123D01*
X84033660Y-135251369D01*
X83473123Y-135251369D01*
X83473123Y-135220594D01*
X83473308Y-135203305D01*
X83473863Y-135186427D01*
X83474789Y-135169959D01*
X83476084Y-135153900D01*
X83477750Y-135138253D01*
X83479786Y-135123015D01*
X83481787Y-135110685D01*
X83757422Y-135110685D01*
X84032928Y-135110685D01*
X84032482Y-135107761D01*
X84030337Y-135096520D01*
X84027612Y-135086005D01*
X84024308Y-135076214D01*
X84020423Y-135067148D01*
X84014751Y-135056836D01*
X84008172Y-135047657D01*
X84000688Y-135039610D01*
X83995606Y-135034967D01*
X83987591Y-135028563D01*
X83979103Y-135022834D01*
X83970142Y-135017778D01*
X83960710Y-135013397D01*
X83950805Y-135009690D01*
X83940428Y-135006656D01*
X83929579Y-135004297D01*
X83918258Y-135002612D01*
X83906464Y-135001601D01*
X83894198Y-135001264D01*
X83887051Y-135001363D01*
X83876663Y-135001884D01*
X83866675Y-135002852D01*
X83853978Y-135004836D01*
X83841991Y-135007614D01*
X83830714Y-135011186D01*
X83820146Y-135015552D01*
X83810289Y-135020712D01*
X83801141Y-135026665D01*
X83794739Y-135031720D01*
X83786944Y-135039368D01*
X83779997Y-135048054D01*
X83773896Y-135057778D01*
X83768643Y-135068540D01*
X83764237Y-135080340D01*
X83761489Y-135089871D01*
X83759217Y-135099986D01*
X83757422Y-135110685D01*
X83481787Y-135110685D01*
X83482192Y-135108188D01*
X83484969Y-135093771D01*
X83488115Y-135079764D01*
X83491632Y-135066168D01*
X83495519Y-135052981D01*
X83499776Y-135040205D01*
X83504403Y-135027840D01*
X83509401Y-135015884D01*
X83514768Y-135004339D01*
X83520506Y-134993204D01*
X83526599Y-134982436D01*
X83533031Y-134971993D01*
X83539803Y-134961874D01*
X83546915Y-134952080D01*
X83554366Y-134942609D01*
X83562157Y-134933464D01*
X83570288Y-134924642D01*
X83578758Y-134916145D01*
X83587568Y-134907973D01*
X83596718Y-134900125D01*
X83606207Y-134892601D01*
X83616036Y-134885401D01*
X83626204Y-134878526D01*
X83636712Y-134871976D01*
X83647560Y-134865749D01*
X83658748Y-134859847D01*
X83670332Y-134854257D01*
X83682432Y-134849028D01*
X83695046Y-134844160D01*
X83708176Y-134839652D01*
X83721821Y-134835504D01*
X83735982Y-134831717D01*
X83750657Y-134828291D01*
X83765848Y-134825226D01*
X83781554Y-134822521D01*
X83797775Y-134820177D01*
X83814512Y-134818193D01*
X83831763Y-134816571D01*
X83849530Y-134815308D01*
X83867812Y-134814407D01*
X83886609Y-134813866D01*
X83905921Y-134813685D01*
X83917899Y-134813789D01*
G37*
G36*
X83347338Y-134829317D02*
G01*
X83085510Y-134829317D01*
X83085510Y-134950461D01*
X83080769Y-134940883D01*
X83076011Y-134931685D01*
X83071236Y-134922870D01*
X83064041Y-134910362D01*
X83056807Y-134898713D01*
X83049535Y-134887922D01*
X83042224Y-134877990D01*
X83034875Y-134868917D01*
X83027487Y-134860702D01*
X83020060Y-134853346D01*
X83012595Y-134846849D01*
X83007596Y-134842995D01*
X82997285Y-134836125D01*
X82986378Y-134830172D01*
X82974875Y-134825134D01*
X82962778Y-134821013D01*
X82953314Y-134818523D01*
X82943515Y-134816548D01*
X82933381Y-134815088D01*
X82922913Y-134814143D01*
X82912109Y-134813714D01*
X82908434Y-134813685D01*
X82896744Y-134814018D01*
X82884849Y-134815016D01*
X82872747Y-134816680D01*
X82860440Y-134819009D01*
X82847926Y-134822004D01*
X82835206Y-134825664D01*
X82822281Y-134829989D01*
X82809149Y-134834980D01*
X82795811Y-134840637D01*
X82786804Y-134844778D01*
X82777706Y-134849214D01*
X82773123Y-134851543D01*
X82859585Y-135053288D01*
X82868655Y-135049578D01*
X82880188Y-135045198D01*
X82891080Y-135041468D01*
X82901330Y-135038386D01*
X82910940Y-135035953D01*
X82922050Y-135033825D01*
X82932159Y-135032710D01*
X82937743Y-135032527D01*
X82947830Y-135032928D01*
X82960605Y-135034713D01*
X82972609Y-135037924D01*
X82983842Y-135042563D01*
X82994305Y-135048629D01*
X83003996Y-135056122D01*
X83012917Y-135065043D01*
X83019101Y-135072670D01*
X83022983Y-135078200D01*
X83028218Y-135086637D01*
X83033116Y-135095950D01*
X83037675Y-135106139D01*
X83041897Y-135117203D01*
X83045781Y-135129143D01*
X83049327Y-135141959D01*
X83052536Y-135155651D01*
X83055407Y-135170219D01*
X83057940Y-135185663D01*
X83060135Y-135201982D01*
X83061993Y-135219177D01*
X83063512Y-135237248D01*
X83064695Y-135256195D01*
X83065159Y-135265997D01*
X83065539Y-135276018D01*
X83065834Y-135286258D01*
X83066046Y-135296717D01*
X83066172Y-135307394D01*
X83066214Y-135318291D01*
X83066214Y-135564000D01*
X83347338Y-135564000D01*
X83347338Y-134829317D01*
G37*
G36*
X82705956Y-135564000D02*
G01*
X82243605Y-135564000D01*
X82233149Y-135563893D01*
X82222542Y-135563572D01*
X82211785Y-135563038D01*
X82200877Y-135562290D01*
X82189819Y-135561328D01*
X82178609Y-135560153D01*
X82167249Y-135558764D01*
X82155738Y-135557161D01*
X82144077Y-135555344D01*
X82132264Y-135553314D01*
X82120301Y-135551070D01*
X82108187Y-135548612D01*
X82095923Y-135545941D01*
X82083507Y-135543056D01*
X82070941Y-135539957D01*
X82058224Y-135536644D01*
X82044251Y-135532585D01*
X82030449Y-135527826D01*
X82021344Y-135524264D01*
X82012314Y-135520392D01*
X82003361Y-135516208D01*
X81994484Y-135511713D01*
X81985684Y-135506908D01*
X81976960Y-135501791D01*
X81968312Y-135496363D01*
X81959741Y-135490625D01*
X81951246Y-135484575D01*
X81942827Y-135478214D01*
X81934485Y-135471542D01*
X81926219Y-135464559D01*
X81918029Y-135457265D01*
X81909989Y-135449675D01*
X81902172Y-135441863D01*
X81894579Y-135433830D01*
X81887208Y-135425575D01*
X81880061Y-135417099D01*
X81873138Y-135408402D01*
X81866437Y-135399483D01*
X81859960Y-135390343D01*
X81853706Y-135380981D01*
X81847675Y-135371399D01*
X81841868Y-135361595D01*
X81836284Y-135351569D01*
X81830923Y-135341323D01*
X81825785Y-135330854D01*
X81820871Y-135320165D01*
X81816180Y-135309254D01*
X81811714Y-135297921D01*
X81807536Y-135286024D01*
X81803646Y-135273565D01*
X81800044Y-135260543D01*
X81796731Y-135246958D01*
X81793705Y-135232810D01*
X81790968Y-135218099D01*
X81788519Y-135202825D01*
X81786358Y-135186989D01*
X81784485Y-135170589D01*
X81782900Y-135153627D01*
X81781604Y-135136101D01*
X81780595Y-135118013D01*
X81779875Y-135099362D01*
X81779443Y-135080148D01*
X81779335Y-135070330D01*
X81779322Y-135066721D01*
X82091930Y-135066721D01*
X82092021Y-135081063D01*
X82092296Y-135094901D01*
X82092754Y-135108235D01*
X82093395Y-135121065D01*
X82094219Y-135133392D01*
X82095227Y-135145215D01*
X82096418Y-135156534D01*
X82097792Y-135167349D01*
X82099349Y-135177661D01*
X82101089Y-135187469D01*
X82104043Y-135201236D01*
X82107409Y-135213870D01*
X82111187Y-135225370D01*
X82115377Y-135235737D01*
X82118348Y-135242119D01*
X82123069Y-135251237D01*
X82128108Y-135259810D01*
X82135321Y-135270393D01*
X82143099Y-135280006D01*
X82151441Y-135288650D01*
X82160348Y-135296325D01*
X82169820Y-135303030D01*
X82179857Y-135308766D01*
X82182492Y-135310043D01*
X82194128Y-135314747D01*
X82204007Y-135317849D01*
X82214873Y-135320586D01*
X82226727Y-135322958D01*
X82239568Y-135324965D01*
X82253397Y-135326607D01*
X82263165Y-135327499D01*
X82273372Y-135328229D01*
X82284017Y-135328797D01*
X82295102Y-135329202D01*
X82306625Y-135329445D01*
X82318587Y-135329526D01*
X82394791Y-135329526D01*
X82394791Y-134798054D01*
X82317122Y-134798054D01*
X82309633Y-134798110D01*
X82295058Y-134798556D01*
X82281022Y-134799449D01*
X82267524Y-134800789D01*
X82254563Y-134802575D01*
X82242141Y-134804807D01*
X82230258Y-134807486D01*
X82218912Y-134810612D01*
X82208104Y-134814184D01*
X82197834Y-134818203D01*
X82188103Y-134822668D01*
X82178909Y-134827579D01*
X82170254Y-134832937D01*
X82162137Y-134838742D01*
X82154557Y-134844993D01*
X82144198Y-134855207D01*
X82137868Y-134862702D01*
X82131947Y-134870960D01*
X82126435Y-134879982D01*
X82121330Y-134889767D01*
X82116634Y-134900315D01*
X82112347Y-134911627D01*
X82108468Y-134923702D01*
X82104997Y-134936540D01*
X82101934Y-134950141D01*
X82099280Y-134964505D01*
X82097034Y-134979633D01*
X82095196Y-134995524D01*
X82093767Y-135012179D01*
X82092746Y-135029596D01*
X82092134Y-135047777D01*
X82091930Y-135066721D01*
X81779322Y-135066721D01*
X81779299Y-135060371D01*
X81779395Y-135047621D01*
X81779684Y-135034958D01*
X81780166Y-135022380D01*
X81780841Y-135009889D01*
X81781708Y-134997483D01*
X81782768Y-134985163D01*
X81784021Y-134972929D01*
X81785466Y-134960781D01*
X81787104Y-134948718D01*
X81788935Y-134936742D01*
X81790959Y-134924851D01*
X81793175Y-134913047D01*
X81795584Y-134901328D01*
X81798186Y-134889695D01*
X81800980Y-134878147D01*
X81803967Y-134866686D01*
X81807169Y-134855326D01*
X81810608Y-134844143D01*
X81814283Y-134833138D01*
X81818195Y-134822310D01*
X81822343Y-134811660D01*
X81826728Y-134801187D01*
X81831349Y-134790892D01*
X81836207Y-134780774D01*
X81841302Y-134770833D01*
X81846634Y-134761070D01*
X81852202Y-134751485D01*
X81858006Y-134742077D01*
X81864047Y-134732846D01*
X81870325Y-134723793D01*
X81876840Y-134714917D01*
X81883591Y-134706219D01*
X81890574Y-134697734D01*
X81897787Y-134689499D01*
X81905229Y-134681515D01*
X81912900Y-134673780D01*
X81920799Y-134666295D01*
X81928928Y-134659061D01*
X81937286Y-134652076D01*
X81945872Y-134645341D01*
X81954688Y-134638856D01*
X81963733Y-134632621D01*
X81973006Y-134626636D01*
X81982509Y-134620902D01*
X81992240Y-134615417D01*
X82002201Y-134610182D01*
X82012391Y-134605197D01*
X82022809Y-134600461D01*
X82033546Y-134595995D01*
X82044692Y-134591818D01*
X82056245Y-134587928D01*
X82068208Y-134584326D01*
X82080578Y-134581013D01*
X82093357Y-134577987D01*
X82106544Y-134575250D01*
X82120140Y-134572801D01*
X82134144Y-134570640D01*
X82148556Y-134568767D01*
X82163376Y-134567182D01*
X82178605Y-134565886D01*
X82194243Y-134564877D01*
X82210288Y-134564157D01*
X82226742Y-134563725D01*
X82243605Y-134563581D01*
X82705956Y-134563581D01*
X82705956Y-135564000D01*
G37*
G36*
X81637638Y-134829317D02*
G01*
X81375810Y-134829317D01*
X81375810Y-134950461D01*
X81371069Y-134940883D01*
X81366311Y-134931685D01*
X81361536Y-134922870D01*
X81354341Y-134910362D01*
X81347107Y-134898713D01*
X81339835Y-134887922D01*
X81332524Y-134877990D01*
X81325175Y-134868917D01*
X81317787Y-134860702D01*
X81310360Y-134853346D01*
X81302895Y-134846849D01*
X81297896Y-134842995D01*
X81287585Y-134836125D01*
X81276678Y-134830172D01*
X81265175Y-134825134D01*
X81253078Y-134821013D01*
X81243614Y-134818523D01*
X81233815Y-134816548D01*
X81223681Y-134815088D01*
X81213213Y-134814143D01*
X81202409Y-134813714D01*
X81198734Y-134813685D01*
X81187044Y-134814018D01*
X81175149Y-134815016D01*
X81163047Y-134816680D01*
X81150740Y-134819009D01*
X81138226Y-134822004D01*
X81125507Y-134825664D01*
X81112581Y-134829989D01*
X81099449Y-134834980D01*
X81086111Y-134840637D01*
X81077105Y-134844778D01*
X81068006Y-134849214D01*
X81063423Y-134851543D01*
X81149885Y-135053288D01*
X81158955Y-135049578D01*
X81170488Y-135045198D01*
X81181380Y-135041468D01*
X81191631Y-135038386D01*
X81201240Y-135035953D01*
X81212350Y-135033825D01*
X81222459Y-135032710D01*
X81228043Y-135032527D01*
X81238130Y-135032928D01*
X81250905Y-135034713D01*
X81262909Y-135037924D01*
X81274142Y-135042563D01*
X81284605Y-135048629D01*
X81294296Y-135056122D01*
X81303217Y-135065043D01*
X81309401Y-135072670D01*
X81313284Y-135078200D01*
X81318519Y-135086637D01*
X81323416Y-135095950D01*
X81327975Y-135106139D01*
X81332197Y-135117203D01*
X81336081Y-135129143D01*
X81339627Y-135141959D01*
X81342836Y-135155651D01*
X81345707Y-135170219D01*
X81348240Y-135185663D01*
X81350435Y-135201982D01*
X81352293Y-135219177D01*
X81353813Y-135237248D01*
X81354995Y-135256195D01*
X81355459Y-135265997D01*
X81355839Y-135276018D01*
X81356135Y-135286258D01*
X81356346Y-135296717D01*
X81356472Y-135307394D01*
X81356515Y-135318291D01*
X81356515Y-135564000D01*
X81637638Y-135564000D01*
X81637638Y-134829317D01*
G37*
G36*
X81008713Y-134563581D02*
G01*
X80729055Y-134563581D01*
X80729055Y-134751159D01*
X81008713Y-134751159D01*
X81008713Y-134563581D01*
G37*
G36*
X81008713Y-134829317D02*
G01*
X80729055Y-134829317D01*
X80729055Y-135564000D01*
X81008713Y-135564000D01*
X81008713Y-134829317D01*
G37*
G36*
X80635998Y-134829317D02*
G01*
X80344861Y-134829317D01*
X80203200Y-135294844D01*
X80056898Y-134829317D01*
X79774554Y-134829317D01*
X80084498Y-135564000D01*
X80332404Y-135564000D01*
X80635998Y-134829317D01*
G37*
G36*
X79369121Y-134813789D02*
G01*
X79380936Y-134814100D01*
X79392589Y-134814619D01*
X79404079Y-134815346D01*
X79415407Y-134816279D01*
X79426571Y-134817421D01*
X79437574Y-134818769D01*
X79448413Y-134820326D01*
X79459090Y-134822090D01*
X79469604Y-134824061D01*
X79479955Y-134826240D01*
X79490144Y-134828626D01*
X79500170Y-134831220D01*
X79510034Y-134834022D01*
X79519735Y-134837030D01*
X79529273Y-134840247D01*
X79538648Y-134843671D01*
X79547861Y-134847302D01*
X79565798Y-134855188D01*
X79583085Y-134863903D01*
X79599721Y-134873449D01*
X79615707Y-134883824D01*
X79631042Y-134895030D01*
X79645726Y-134907065D01*
X79659759Y-134919931D01*
X79666491Y-134926636D01*
X79679314Y-134940430D01*
X79691282Y-134954737D01*
X79702395Y-134969557D01*
X79712653Y-134984891D01*
X79722057Y-135000739D01*
X79730605Y-135017099D01*
X79738299Y-135033973D01*
X79745138Y-135051360D01*
X79751122Y-135069260D01*
X79756251Y-135087674D01*
X79760525Y-135106601D01*
X79762341Y-135116257D01*
X79763944Y-135126041D01*
X79765333Y-135135953D01*
X79766509Y-135145994D01*
X79767471Y-135156164D01*
X79768219Y-135166461D01*
X79768753Y-135176887D01*
X79769073Y-135187441D01*
X79769180Y-135198124D01*
X79768967Y-135213084D01*
X79768329Y-135227799D01*
X79767265Y-135242271D01*
X79765776Y-135256498D01*
X79763861Y-135270481D01*
X79761521Y-135284219D01*
X79758755Y-135297714D01*
X79755564Y-135310964D01*
X79751947Y-135323970D01*
X79747904Y-135336732D01*
X79743436Y-135349249D01*
X79738543Y-135361522D01*
X79733224Y-135373551D01*
X79727480Y-135385336D01*
X79721310Y-135396876D01*
X79714714Y-135408173D01*
X79707765Y-135419158D01*
X79700594Y-135429765D01*
X79693202Y-135439995D01*
X79685588Y-135449846D01*
X79677753Y-135459320D01*
X79669697Y-135468417D01*
X79661420Y-135477135D01*
X79652921Y-135485475D01*
X79644200Y-135493438D01*
X79635259Y-135501023D01*
X79626096Y-135508230D01*
X79616712Y-135515059D01*
X79607106Y-135521511D01*
X79597279Y-135527584D01*
X79587231Y-135533280D01*
X79576961Y-135538598D01*
X79566310Y-135543567D01*
X79555178Y-135548215D01*
X79543565Y-135552543D01*
X79531471Y-135556550D01*
X79518896Y-135560237D01*
X79505841Y-135563603D01*
X79492304Y-135566648D01*
X79478287Y-135569373D01*
X79463789Y-135571777D01*
X79448810Y-135573861D01*
X79433350Y-135575624D01*
X79417409Y-135577066D01*
X79400988Y-135578188D01*
X79384086Y-135578990D01*
X79366702Y-135579471D01*
X79348838Y-135579631D01*
X79338488Y-135579581D01*
X79328289Y-135579433D01*
X79318243Y-135579185D01*
X79308347Y-135578837D01*
X79289012Y-135577845D01*
X79270284Y-135576456D01*
X79252162Y-135574670D01*
X79234647Y-135572487D01*
X79217739Y-135569907D01*
X79201438Y-135566930D01*
X79185743Y-135563557D01*
X79170656Y-135559786D01*
X79156175Y-135555619D01*
X79142300Y-135551055D01*
X79129033Y-135546093D01*
X79116373Y-135540735D01*
X79104319Y-135534980D01*
X79092872Y-135528829D01*
X79081800Y-135522190D01*
X79070932Y-135515036D01*
X79060268Y-135507368D01*
X79049809Y-135499184D01*
X79039553Y-135490484D01*
X79029502Y-135481270D01*
X79019655Y-135471540D01*
X79010012Y-135461295D01*
X79000574Y-135450535D01*
X78991339Y-135439260D01*
X78982309Y-135427470D01*
X78973483Y-135415164D01*
X78964861Y-135402343D01*
X78956443Y-135389007D01*
X78948229Y-135375156D01*
X78940220Y-135360789D01*
X79215726Y-135329526D01*
X79223809Y-135338761D01*
X79231726Y-135347077D01*
X79239475Y-135354474D01*
X79247058Y-135360954D01*
X79255936Y-135367517D01*
X79264575Y-135372757D01*
X79273863Y-135377280D01*
X79283290Y-135381199D01*
X79292853Y-135384515D01*
X79302554Y-135387229D01*
X79312393Y-135389339D01*
X79322368Y-135390847D01*
X79332482Y-135391751D01*
X79342732Y-135392053D01*
X79350787Y-135391876D01*
X79362509Y-135390949D01*
X79373797Y-135389228D01*
X79384651Y-135386713D01*
X79395072Y-135383404D01*
X79405059Y-135379300D01*
X79414612Y-135374402D01*
X79423732Y-135368710D01*
X79432418Y-135362223D01*
X79440671Y-135354943D01*
X79448489Y-135346868D01*
X79450270Y-135344881D01*
X79456977Y-135336293D01*
X79463020Y-135326674D01*
X79468399Y-135316025D01*
X79473114Y-135304345D01*
X79476215Y-135294909D01*
X79478942Y-135284893D01*
X79481295Y-135274298D01*
X79483275Y-135263123D01*
X79484882Y-135251369D01*
X78924344Y-135251369D01*
X78924344Y-135220594D01*
X78924529Y-135203305D01*
X78925085Y-135186427D01*
X78926010Y-135169959D01*
X78927306Y-135153900D01*
X78928971Y-135138253D01*
X78931007Y-135123015D01*
X78933009Y-135110685D01*
X79208643Y-135110685D01*
X79484149Y-135110685D01*
X79483703Y-135107761D01*
X79481559Y-135096520D01*
X79478834Y-135086005D01*
X79475529Y-135076214D01*
X79471644Y-135067148D01*
X79465972Y-135056836D01*
X79459393Y-135047657D01*
X79451909Y-135039610D01*
X79446827Y-135034967D01*
X79438812Y-135028563D01*
X79430324Y-135022834D01*
X79421364Y-135017778D01*
X79411931Y-135013397D01*
X79402026Y-135009690D01*
X79391649Y-135006656D01*
X79380800Y-135004297D01*
X79369479Y-135002612D01*
X79357685Y-135001601D01*
X79345419Y-135001264D01*
X79338272Y-135001363D01*
X79327884Y-135001884D01*
X79317896Y-135002852D01*
X79305199Y-135004836D01*
X79293212Y-135007614D01*
X79281935Y-135011186D01*
X79271368Y-135015552D01*
X79261510Y-135020712D01*
X79252362Y-135026665D01*
X79245960Y-135031720D01*
X79238166Y-135039368D01*
X79231218Y-135048054D01*
X79225118Y-135057778D01*
X79219864Y-135068540D01*
X79215459Y-135080340D01*
X79212710Y-135089871D01*
X79210438Y-135099986D01*
X79208643Y-135110685D01*
X78933009Y-135110685D01*
X78933414Y-135108188D01*
X78936190Y-135093771D01*
X78939337Y-135079764D01*
X78942853Y-135066168D01*
X78946740Y-135052981D01*
X78950997Y-135040205D01*
X78955624Y-135027840D01*
X78960622Y-135015884D01*
X78965990Y-135004339D01*
X78971727Y-134993204D01*
X78977820Y-134982436D01*
X78984252Y-134971993D01*
X78991024Y-134961874D01*
X78998136Y-134952080D01*
X79005587Y-134942609D01*
X79013378Y-134933464D01*
X79021509Y-134924642D01*
X79029979Y-134916145D01*
X79038789Y-134907973D01*
X79047939Y-134900125D01*
X79057428Y-134892601D01*
X79067257Y-134885401D01*
X79077425Y-134878526D01*
X79087934Y-134871976D01*
X79098781Y-134865749D01*
X79109969Y-134859847D01*
X79121553Y-134854257D01*
X79133653Y-134849028D01*
X79146267Y-134844160D01*
X79159397Y-134839652D01*
X79173043Y-134835504D01*
X79187203Y-134831717D01*
X79201879Y-134828291D01*
X79217069Y-134825226D01*
X79232775Y-134822521D01*
X79248996Y-134820177D01*
X79265733Y-134818193D01*
X79282984Y-134816571D01*
X79300751Y-134815308D01*
X79319033Y-134814407D01*
X79337830Y-134813866D01*
X79357143Y-134813685D01*
X79369121Y-134813789D01*
G37*
G36*
X78798559Y-134829317D02*
G01*
X78536731Y-134829317D01*
X78536731Y-134950461D01*
X78531990Y-134940883D01*
X78527232Y-134931685D01*
X78522457Y-134922870D01*
X78515262Y-134910362D01*
X78508028Y-134898713D01*
X78500756Y-134887922D01*
X78493445Y-134877990D01*
X78486096Y-134868917D01*
X78478708Y-134860702D01*
X78471281Y-134853346D01*
X78463816Y-134846849D01*
X78458817Y-134842995D01*
X78448506Y-134836125D01*
X78437599Y-134830172D01*
X78426096Y-134825134D01*
X78413999Y-134821013D01*
X78404535Y-134818523D01*
X78394736Y-134816548D01*
X78384602Y-134815088D01*
X78374134Y-134814143D01*
X78363330Y-134813714D01*
X78359655Y-134813685D01*
X78347965Y-134814018D01*
X78336070Y-134815016D01*
X78323969Y-134816680D01*
X78311661Y-134819009D01*
X78299147Y-134822004D01*
X78286428Y-134825664D01*
X78273502Y-134829989D01*
X78260370Y-134834980D01*
X78247032Y-134840637D01*
X78238026Y-134844778D01*
X78228928Y-134849214D01*
X78224344Y-134851543D01*
X78310806Y-135053288D01*
X78319877Y-135049578D01*
X78331409Y-135045198D01*
X78342301Y-135041468D01*
X78352552Y-135038386D01*
X78362161Y-135035953D01*
X78373271Y-135033825D01*
X78383380Y-135032710D01*
X78388964Y-135032527D01*
X78399051Y-135032928D01*
X78411826Y-135034713D01*
X78423830Y-135037924D01*
X78435064Y-135042563D01*
X78445526Y-135048629D01*
X78455217Y-135056122D01*
X78464138Y-135065043D01*
X78470323Y-135072670D01*
X78474205Y-135078200D01*
X78479440Y-135086637D01*
X78484337Y-135095950D01*
X78488896Y-135106139D01*
X78493118Y-135117203D01*
X78497002Y-135129143D01*
X78500549Y-135141959D01*
X78503757Y-135155651D01*
X78506628Y-135170219D01*
X78509161Y-135185663D01*
X78511356Y-135201982D01*
X78513214Y-135219177D01*
X78514734Y-135237248D01*
X78515916Y-135256195D01*
X78516380Y-135265997D01*
X78516760Y-135276018D01*
X78517056Y-135286258D01*
X78517267Y-135296717D01*
X78517393Y-135307394D01*
X78517436Y-135318291D01*
X78517436Y-135564000D01*
X78798559Y-135564000D01*
X78798559Y-134829317D01*
G37*
G36*
X77795942Y-135564000D02*
G01*
X77477938Y-135564000D01*
X77429090Y-135392053D01*
X77074693Y-135392053D01*
X77025356Y-135564000D01*
X76699780Y-135564000D01*
X76847566Y-135173211D01*
X77139906Y-135173211D01*
X77361923Y-135173211D01*
X77251281Y-134819059D01*
X77139906Y-135173211D01*
X76847566Y-135173211D01*
X77078113Y-134563581D01*
X77417610Y-134563581D01*
X77795942Y-135564000D01*
G37*
G36*
X76615028Y-134563581D02*
G01*
X76334637Y-134563581D01*
X76334637Y-135564000D01*
X76615028Y-135564000D01*
X76615028Y-134563581D01*
G37*
G36*
X75669757Y-134813801D02*
G01*
X75683408Y-134814407D01*
X75696828Y-134815533D01*
X75710015Y-134817178D01*
X75722971Y-134819342D01*
X75735695Y-134822026D01*
X75748187Y-134825230D01*
X75760448Y-134828953D01*
X75772476Y-134833195D01*
X75784273Y-134837957D01*
X75795838Y-134843239D01*
X75798686Y-134844652D01*
X75807332Y-134849364D01*
X75816134Y-134854784D01*
X75825089Y-134860913D01*
X75834200Y-134867750D01*
X75843465Y-134875296D01*
X75852885Y-134883550D01*
X75862459Y-134892512D01*
X75872187Y-134902183D01*
X75882071Y-134912562D01*
X75888745Y-134919875D01*
X75895489Y-134927503D01*
X75895489Y-134829317D01*
X76157073Y-134829317D01*
X76157073Y-135845367D01*
X75874728Y-135845367D01*
X75874728Y-135501229D01*
X75869463Y-135506009D01*
X75861396Y-135512900D01*
X75853128Y-135519456D01*
X75844658Y-135525677D01*
X75835986Y-135531563D01*
X75827112Y-135537114D01*
X75818037Y-135542331D01*
X75808760Y-135547212D01*
X75799281Y-135551759D01*
X75789600Y-135555970D01*
X75779718Y-135559847D01*
X75773017Y-135562243D01*
X75762798Y-135565547D01*
X75752378Y-135568503D01*
X75741755Y-135571111D01*
X75730931Y-135573371D01*
X75719905Y-135575284D01*
X75708677Y-135576849D01*
X75697248Y-135578066D01*
X75685616Y-135578936D01*
X75673783Y-135579457D01*
X75661748Y-135579631D01*
X75645289Y-135579255D01*
X75629188Y-135578127D01*
X75613445Y-135576248D01*
X75598062Y-135573617D01*
X75583037Y-135570233D01*
X75568371Y-135566098D01*
X75554064Y-135561212D01*
X75540115Y-135555573D01*
X75526526Y-135549183D01*
X75513294Y-135542041D01*
X75500422Y-135534147D01*
X75487908Y-135525501D01*
X75475754Y-135516103D01*
X75463957Y-135505954D01*
X75452520Y-135495052D01*
X75441441Y-135483399D01*
X75436077Y-135477300D01*
X75425859Y-135464594D01*
X75416322Y-135451210D01*
X75407466Y-135437149D01*
X75399291Y-135422410D01*
X75391798Y-135406995D01*
X75384986Y-135390901D01*
X75378855Y-135374131D01*
X75373406Y-135356682D01*
X75368637Y-135338557D01*
X75364550Y-135319754D01*
X75362762Y-135310099D01*
X75361144Y-135300274D01*
X75359696Y-135290280D01*
X75358419Y-135280116D01*
X75357312Y-135269783D01*
X75356375Y-135259281D01*
X75355609Y-135248609D01*
X75355013Y-135237769D01*
X75354587Y-135226758D01*
X75354332Y-135215579D01*
X75354247Y-135204230D01*
X75354325Y-135193972D01*
X75633660Y-135193972D01*
X75633693Y-135200657D01*
X75633950Y-135213662D01*
X75634465Y-135226175D01*
X75635238Y-135238198D01*
X75636269Y-135249731D01*
X75637557Y-135260774D01*
X75639102Y-135271326D01*
X75640905Y-135281387D01*
X75642966Y-135290959D01*
X75646540Y-135304396D01*
X75650694Y-135316730D01*
X75655428Y-135327961D01*
X75660741Y-135338088D01*
X75666633Y-135347112D01*
X75668709Y-135349877D01*
X75675124Y-135357645D01*
X75684112Y-135366773D01*
X75693595Y-135374498D01*
X75703575Y-135380817D01*
X75714051Y-135385733D01*
X75725022Y-135389244D01*
X75736490Y-135391350D01*
X75748454Y-135392053D01*
X75758726Y-135391640D01*
X75768659Y-135390404D01*
X75778252Y-135388343D01*
X75790516Y-135384313D01*
X75802177Y-135378818D01*
X75810527Y-135373734D01*
X75818537Y-135367827D01*
X75826209Y-135361095D01*
X75833541Y-135353538D01*
X75840534Y-135345158D01*
X75847038Y-135335879D01*
X75852902Y-135325721D01*
X75858126Y-135314682D01*
X75862711Y-135302763D01*
X75866655Y-135289964D01*
X75869961Y-135276284D01*
X75871809Y-135266676D01*
X75873372Y-135256676D01*
X75874652Y-135246285D01*
X75875647Y-135235503D01*
X75876358Y-135224330D01*
X75876784Y-135212766D01*
X75876926Y-135200810D01*
X75876891Y-135194273D01*
X75876613Y-135181542D01*
X75876056Y-135169269D01*
X75875220Y-135157453D01*
X75874106Y-135146096D01*
X75872713Y-135135197D01*
X75871041Y-135124755D01*
X75869091Y-135114772D01*
X75866862Y-135105247D01*
X75862997Y-135091817D01*
X75858504Y-135079418D01*
X75853385Y-135068049D01*
X75847640Y-135057711D01*
X75841267Y-135048403D01*
X75834380Y-135039979D01*
X75827185Y-135032383D01*
X75819680Y-135025616D01*
X75809193Y-135017882D01*
X75798156Y-135011622D01*
X75786570Y-135006834D01*
X75774434Y-135003520D01*
X75761749Y-135001678D01*
X75751874Y-135001264D01*
X75745736Y-135001446D01*
X75733822Y-135002904D01*
X75722388Y-135005820D01*
X75711435Y-135010193D01*
X75700964Y-135016024D01*
X75690973Y-135023314D01*
X75681462Y-135032061D01*
X75674645Y-135039577D01*
X75668099Y-135047914D01*
X75661944Y-135057125D01*
X75656395Y-135067263D01*
X75651451Y-135078328D01*
X75647113Y-135090321D01*
X75643380Y-135103241D01*
X75640252Y-135117089D01*
X75638503Y-135126835D01*
X75637023Y-135136994D01*
X75635813Y-135147565D01*
X75634871Y-135158549D01*
X75634198Y-135169944D01*
X75633795Y-135181752D01*
X75633660Y-135193972D01*
X75354325Y-135193972D01*
X75354325Y-135193932D01*
X75354559Y-135183738D01*
X75354951Y-135173648D01*
X75355498Y-135163663D01*
X75356202Y-135153781D01*
X75357063Y-135144003D01*
X75359254Y-135124759D01*
X75362070Y-135105932D01*
X75365512Y-135087520D01*
X75369580Y-135069524D01*
X75374274Y-135051944D01*
X75379594Y-135034781D01*
X75385540Y-135018033D01*
X75392112Y-135001701D01*
X75399309Y-134985785D01*
X75407133Y-134970285D01*
X75415582Y-134955201D01*
X75424657Y-134940533D01*
X75434358Y-134926281D01*
X75444601Y-134912647D01*
X75455363Y-134899892D01*
X75466644Y-134888016D01*
X75478444Y-134877021D01*
X75490763Y-134866905D01*
X75503601Y-134857668D01*
X75516958Y-134849312D01*
X75530834Y-134841834D01*
X75545229Y-134835237D01*
X75560143Y-134829519D01*
X75575576Y-134824681D01*
X75591528Y-134820723D01*
X75608000Y-134817644D01*
X75624990Y-134815445D01*
X75642499Y-134814125D01*
X75660527Y-134813685D01*
X75669757Y-134813801D01*
G37*
G36*
X75225531Y-134563581D02*
G01*
X74945872Y-134563581D01*
X74945872Y-134925793D01*
X74938762Y-134918386D01*
X74931657Y-134911249D01*
X74924558Y-134904381D01*
X74913919Y-134894583D01*
X74903294Y-134885390D01*
X74892682Y-134876802D01*
X74882082Y-134868820D01*
X74871496Y-134861444D01*
X74860922Y-134854672D01*
X74850361Y-134848507D01*
X74839813Y-134842946D01*
X74832788Y-134839575D01*
X74822029Y-134834948D01*
X74810909Y-134830777D01*
X74799429Y-134827060D01*
X74787588Y-134823799D01*
X74775386Y-134820992D01*
X74762824Y-134818641D01*
X74749901Y-134816745D01*
X74736617Y-134815304D01*
X74722973Y-134814318D01*
X74708968Y-134813787D01*
X74699431Y-134813685D01*
X74685364Y-134813958D01*
X74671676Y-134814777D01*
X74658367Y-134816141D01*
X74645439Y-134818051D01*
X74632890Y-134820507D01*
X74620720Y-134823509D01*
X74608931Y-134827056D01*
X74597521Y-134831149D01*
X74586491Y-134835788D01*
X74575841Y-134840972D01*
X74565570Y-134846702D01*
X74555679Y-134852978D01*
X74546168Y-134859800D01*
X74537037Y-134867167D01*
X74528285Y-134875080D01*
X74519913Y-134883539D01*
X74511957Y-134892533D01*
X74504514Y-134902113D01*
X74497585Y-134912278D01*
X74491169Y-134923030D01*
X74485266Y-134934367D01*
X74479876Y-134946290D01*
X74475000Y-134958799D01*
X74470637Y-134971894D01*
X74466787Y-134985574D01*
X74463451Y-134999841D01*
X74460628Y-135014693D01*
X74458318Y-135030130D01*
X74456521Y-135046154D01*
X74455238Y-135062764D01*
X74454468Y-135079959D01*
X74454212Y-135097740D01*
X74454212Y-135564000D01*
X74735091Y-135564000D01*
X74735091Y-135159289D01*
X74735314Y-135146642D01*
X74735984Y-135134711D01*
X74737100Y-135123498D01*
X74738663Y-135113001D01*
X74740672Y-135103222D01*
X74744046Y-135091298D01*
X74748213Y-135080648D01*
X74753174Y-135071274D01*
X74758929Y-135063174D01*
X74760492Y-135061348D01*
X74768931Y-135053045D01*
X74778372Y-135046149D01*
X74788814Y-135040661D01*
X74800258Y-135036580D01*
X74810135Y-135034328D01*
X74820652Y-135032977D01*
X74831811Y-135032527D01*
X74844214Y-135033134D01*
X74856022Y-135034954D01*
X74867234Y-135037988D01*
X74877851Y-135042236D01*
X74887872Y-135047697D01*
X74897299Y-135054372D01*
X74906130Y-135062260D01*
X74914365Y-135071362D01*
X74921750Y-135082032D01*
X74926642Y-135091297D01*
X74930980Y-135101644D01*
X74934765Y-135113073D01*
X74937996Y-135125584D01*
X74940673Y-135139176D01*
X74942149Y-135148839D01*
X74943380Y-135158983D01*
X74944365Y-135169607D01*
X74945103Y-135180713D01*
X74945596Y-135192299D01*
X74945842Y-135204366D01*
X74945872Y-135210580D01*
X74945872Y-135564000D01*
X75225531Y-135564000D01*
X75225531Y-134563581D01*
G37*
G36*
X73937596Y-134813736D02*
G01*
X73952030Y-134814002D01*
X73966275Y-134814495D01*
X73980332Y-134815215D01*
X73994199Y-134816163D01*
X74007878Y-134817339D01*
X74021368Y-134818742D01*
X74034668Y-134820373D01*
X74047780Y-134822231D01*
X74060703Y-134824317D01*
X74073437Y-134826630D01*
X74081750Y-134828291D01*
X74093793Y-134830944D01*
X74105326Y-134833790D01*
X74116348Y-134836829D01*
X74126858Y-134840061D01*
X74136858Y-134843486D01*
X74146347Y-134847105D01*
X74158205Y-134852230D01*
X74169154Y-134857699D01*
X74179194Y-134863511D01*
X74185813Y-134867650D01*
X74195372Y-134874037D01*
X74204489Y-134880639D01*
X74213163Y-134887455D01*
X74221396Y-134894486D01*
X74229186Y-134901732D01*
X74236534Y-134909192D01*
X74243440Y-134916867D01*
X74249903Y-134924757D01*
X74255925Y-134932861D01*
X74261504Y-134941180D01*
X74266700Y-134949853D01*
X74271665Y-134959109D01*
X74276398Y-134968950D01*
X74280898Y-134979374D01*
X74285167Y-134990382D01*
X74289205Y-135001974D01*
X74293010Y-135014150D01*
X74296583Y-135026909D01*
X74299925Y-135040253D01*
X74303035Y-135054181D01*
X74304979Y-135063790D01*
X74037778Y-135095053D01*
X74036730Y-135091880D01*
X74032343Y-135079824D01*
X74027643Y-135068791D01*
X74022630Y-135058781D01*
X74017305Y-135049793D01*
X74010208Y-135039997D01*
X74002622Y-135031800D01*
X73994547Y-135025200D01*
X73990108Y-135022301D01*
X73980430Y-135017065D01*
X73969683Y-135012577D01*
X73957868Y-135008837D01*
X73948306Y-135006523D01*
X73938142Y-135004630D01*
X73927377Y-135003157D01*
X73916011Y-135002105D01*
X73904044Y-135001474D01*
X73891476Y-135001264D01*
X73878550Y-135001592D01*
X73866640Y-135002577D01*
X73855744Y-135004218D01*
X73845864Y-135006515D01*
X73834941Y-135010310D01*
X73825604Y-135015130D01*
X73816494Y-135022269D01*
X73809272Y-135031153D01*
X73804396Y-135040236D01*
X73800557Y-135050845D01*
X73798233Y-135060432D01*
X73796573Y-135070995D01*
X73795576Y-135082536D01*
X73795244Y-135095053D01*
X73798506Y-135096282D01*
X73808224Y-135099881D01*
X73817843Y-135103346D01*
X73827363Y-135106679D01*
X73836785Y-135109878D01*
X73846108Y-135112944D01*
X73858385Y-135116825D01*
X73870487Y-135120470D01*
X73882412Y-135123878D01*
X73894163Y-135127049D01*
X73903882Y-135129500D01*
X73915546Y-135132273D01*
X73929156Y-135135367D01*
X73939309Y-135137609D01*
X73950326Y-135139995D01*
X73962209Y-135142523D01*
X73974955Y-135145194D01*
X73988566Y-135148009D01*
X74003041Y-135150966D01*
X74018381Y-135154067D01*
X74034585Y-135157311D01*
X74051653Y-135160698D01*
X74069586Y-135164228D01*
X74088383Y-135167901D01*
X74098106Y-135169792D01*
X74114207Y-135173039D01*
X74129663Y-135176493D01*
X74144471Y-135180153D01*
X74158632Y-135184019D01*
X74172146Y-135188091D01*
X74185014Y-135192369D01*
X74197235Y-135196853D01*
X74208809Y-135201543D01*
X74219736Y-135206439D01*
X74230016Y-135211542D01*
X74239649Y-135216850D01*
X74248635Y-135222365D01*
X74256975Y-135228085D01*
X74268272Y-135237053D01*
X74278113Y-135246484D01*
X74286842Y-135256396D01*
X74294713Y-135266806D01*
X74301726Y-135277713D01*
X74307880Y-135289119D01*
X74313175Y-135301023D01*
X74317611Y-135313425D01*
X74321189Y-135326325D01*
X74323908Y-135339724D01*
X74325769Y-135353620D01*
X74326770Y-135368014D01*
X74326961Y-135377886D01*
X74326697Y-135388465D01*
X74325904Y-135398830D01*
X74324583Y-135408982D01*
X74322733Y-135418919D01*
X74320354Y-135428643D01*
X74317447Y-135438153D01*
X74314011Y-135447450D01*
X74310047Y-135456533D01*
X74305555Y-135465402D01*
X74300533Y-135474057D01*
X74294983Y-135482499D01*
X74288905Y-135490727D01*
X74282298Y-135498741D01*
X74275163Y-135506541D01*
X74267498Y-135514128D01*
X74259306Y-135521501D01*
X74250603Y-135528540D01*
X74241407Y-135535125D01*
X74231720Y-135541256D01*
X74221540Y-135546933D01*
X74210868Y-135552156D01*
X74199703Y-135556924D01*
X74188046Y-135561238D01*
X74175897Y-135565099D01*
X74163255Y-135568505D01*
X74150122Y-135571457D01*
X74136496Y-135573954D01*
X74122377Y-135575998D01*
X74107767Y-135577587D01*
X74092664Y-135578723D01*
X74077068Y-135579404D01*
X74060981Y-135579631D01*
X74048801Y-135579513D01*
X74036808Y-135579158D01*
X74025003Y-135578566D01*
X74013384Y-135577738D01*
X74001952Y-135576673D01*
X73990707Y-135575372D01*
X73979650Y-135573834D01*
X73968779Y-135572060D01*
X73958095Y-135570048D01*
X73947599Y-135567801D01*
X73937289Y-135565316D01*
X73927166Y-135562595D01*
X73917230Y-135559637D01*
X73907482Y-135556443D01*
X73897920Y-135553012D01*
X73888545Y-135549345D01*
X73881765Y-135546358D01*
X73871583Y-135541437D01*
X73861388Y-135535988D01*
X73851181Y-135530011D01*
X73840961Y-135523506D01*
X73830728Y-135516473D01*
X73820482Y-135508911D01*
X73810223Y-135500822D01*
X73799951Y-135492205D01*
X73789666Y-135483059D01*
X73779369Y-135473385D01*
X73778455Y-135479236D01*
X73776640Y-135490050D01*
X73774843Y-135499678D01*
X73772473Y-135510673D01*
X73769843Y-135520524D01*
X73767625Y-135526592D01*
X73763465Y-135536179D01*
X73758698Y-135545969D01*
X73753775Y-135555403D01*
X73749083Y-135564000D01*
X73486766Y-135564000D01*
X73488125Y-135561161D01*
X73493259Y-135550126D01*
X73497913Y-135539603D01*
X73502086Y-135529591D01*
X73505779Y-135520090D01*
X73509718Y-135508933D01*
X73512906Y-135498576D01*
X73515342Y-135489017D01*
X73516111Y-135485266D01*
X73517817Y-135475119D01*
X73519212Y-135463875D01*
X73520105Y-135454090D01*
X73520799Y-135443603D01*
X73521296Y-135432414D01*
X73521593Y-135420522D01*
X73521692Y-135407928D01*
X73521692Y-135235737D01*
X73795244Y-135235737D01*
X73795244Y-135276037D01*
X73795261Y-135278981D01*
X73795656Y-135290409D01*
X73796578Y-135301280D01*
X73798026Y-135311593D01*
X73800001Y-135321350D01*
X73803210Y-135332762D01*
X73807242Y-135343303D01*
X73812097Y-135352974D01*
X73817936Y-135361918D01*
X73824920Y-135370433D01*
X73833049Y-135378519D01*
X73842322Y-135386175D01*
X73850565Y-135391991D01*
X73859541Y-135397533D01*
X73869250Y-135402799D01*
X73879367Y-135407608D01*
X73889690Y-135411775D01*
X73900219Y-135415301D01*
X73910954Y-135418187D01*
X73921896Y-135420431D01*
X73933043Y-135422033D01*
X73944397Y-135422995D01*
X73955956Y-135423316D01*
X73961458Y-135423242D01*
X73971953Y-135422654D01*
X73984116Y-135421093D01*
X73995218Y-135418614D01*
X74005259Y-135415216D01*
X74014238Y-135410900D01*
X74023612Y-135404509D01*
X74026392Y-135402086D01*
X74033656Y-135394312D01*
X74039306Y-135385782D01*
X74043342Y-135376497D01*
X74045763Y-135366457D01*
X74046570Y-135355660D01*
X74045448Y-135344496D01*
X74042082Y-135333868D01*
X74037411Y-135325187D01*
X74031091Y-135316901D01*
X74023123Y-135309010D01*
X74014569Y-135302810D01*
X74005518Y-135297824D01*
X73994506Y-135292815D01*
X73984960Y-135289043D01*
X73974310Y-135285259D01*
X73962557Y-135281461D01*
X73949701Y-135277651D01*
X73935741Y-135273828D01*
X73925822Y-135271272D01*
X73915412Y-135268710D01*
X73907615Y-135266892D01*
X73895992Y-135264105D01*
X73884454Y-135261245D01*
X73873002Y-135258312D01*
X73861637Y-135255306D01*
X73850357Y-135252227D01*
X73839162Y-135249075D01*
X73828054Y-135245850D01*
X73817032Y-135242552D01*
X73806095Y-135239181D01*
X73795244Y-135235737D01*
X73521692Y-135235737D01*
X73521692Y-135083818D01*
X73521774Y-135077326D01*
X73522199Y-135067512D01*
X73522990Y-135057608D01*
X73524146Y-135047614D01*
X73525666Y-135037529D01*
X73527552Y-135027355D01*
X73529802Y-135017090D01*
X73532417Y-135006735D01*
X73535398Y-134996290D01*
X73538743Y-134985755D01*
X73542453Y-134975130D01*
X73543750Y-134971583D01*
X73547819Y-134961250D01*
X73552154Y-134951376D01*
X73556755Y-134941962D01*
X73561622Y-134933006D01*
X73566755Y-134924511D01*
X73574014Y-134913898D01*
X73581746Y-134904101D01*
X73589951Y-134895121D01*
X73598629Y-134886958D01*
X73605079Y-134881461D01*
X73615131Y-134873666D01*
X73625633Y-134866411D01*
X73636586Y-134859698D01*
X73647990Y-134853526D01*
X73659844Y-134847894D01*
X73672150Y-134842804D01*
X73684906Y-134838254D01*
X73698113Y-134834246D01*
X73711771Y-134830778D01*
X73725879Y-134827852D01*
X73735599Y-134826136D01*
X73745705Y-134824531D01*
X73756199Y-134823037D01*
X73767080Y-134821654D01*
X73778349Y-134820381D01*
X73790005Y-134819219D01*
X73802048Y-134818168D01*
X73814479Y-134817227D01*
X73827297Y-134816397D01*
X73840502Y-134815678D01*
X73854095Y-134815069D01*
X73868075Y-134814571D01*
X73882442Y-134814183D01*
X73897197Y-134813907D01*
X73912339Y-134813741D01*
X73927868Y-134813685D01*
X73937596Y-134813736D01*
G37*
G36*
X72973612Y-134563581D02*
G01*
X72648036Y-134563581D01*
X72421378Y-135283609D01*
X72198140Y-134563581D01*
X71882090Y-134563581D01*
X72255782Y-135564000D01*
X72593081Y-135564000D01*
X72973612Y-134563581D01*
G37*
G36*
X71425770Y-134548060D02*
G01*
X71438673Y-134548394D01*
X71451366Y-134548950D01*
X71463847Y-134549728D01*
X71476118Y-134550728D01*
X71488178Y-134551951D01*
X71500027Y-134553396D01*
X71511665Y-134555063D01*
X71523093Y-134556952D01*
X71534309Y-134559064D01*
X71545315Y-134561398D01*
X71556110Y-134563955D01*
X71566694Y-134566734D01*
X71577067Y-134569735D01*
X71587229Y-134572958D01*
X71597181Y-134576404D01*
X71606922Y-134580071D01*
X71616451Y-134583962D01*
X71625770Y-134588074D01*
X71634878Y-134592409D01*
X71643776Y-134596966D01*
X71652462Y-134601746D01*
X71660937Y-134606747D01*
X71669202Y-134611971D01*
X71685099Y-134623086D01*
X71700152Y-134635091D01*
X71714362Y-134647984D01*
X71727729Y-134661766D01*
X71734085Y-134669031D01*
X71740240Y-134676630D01*
X71746192Y-134684562D01*
X71751943Y-134692827D01*
X71757492Y-134701426D01*
X71762840Y-134710358D01*
X71767985Y-134719624D01*
X71772929Y-134729223D01*
X71777671Y-134739156D01*
X71782211Y-134749422D01*
X71786550Y-134760021D01*
X71790686Y-134770954D01*
X71794621Y-134782221D01*
X71798354Y-134793821D01*
X71801885Y-134805754D01*
X71805215Y-134818021D01*
X71808342Y-134830621D01*
X71811268Y-134843555D01*
X71813992Y-134856822D01*
X71816515Y-134870422D01*
X71818835Y-134884356D01*
X71820954Y-134898624D01*
X71822871Y-134913225D01*
X71824586Y-134928159D01*
X71826100Y-134943427D01*
X71827411Y-134959028D01*
X71828521Y-134974963D01*
X71829429Y-134991231D01*
X71830135Y-135007833D01*
X71830640Y-135024768D01*
X71830943Y-135042036D01*
X71831043Y-135059638D01*
X71830964Y-135074031D01*
X71830727Y-135088268D01*
X71830331Y-135102348D01*
X71829776Y-135116272D01*
X71829064Y-135130039D01*
X71828193Y-135143650D01*
X71827163Y-135157104D01*
X71825975Y-135170402D01*
X71824629Y-135183544D01*
X71823125Y-135196529D01*
X71821462Y-135209357D01*
X71819640Y-135222029D01*
X71817661Y-135234545D01*
X71815523Y-135246904D01*
X71813226Y-135259106D01*
X71810771Y-135271152D01*
X71809489Y-135277082D01*
X71806829Y-135288704D01*
X71804043Y-135300012D01*
X71801131Y-135311005D01*
X71798093Y-135321683D01*
X71794929Y-135332046D01*
X71791640Y-135342094D01*
X71788224Y-135351828D01*
X71784683Y-135361246D01*
X71779134Y-135374784D01*
X71773302Y-135387613D01*
X71767187Y-135399734D01*
X71760789Y-135411146D01*
X71754107Y-135421850D01*
X71747738Y-135431383D01*
X71741147Y-135440626D01*
X71734335Y-135449579D01*
X71727301Y-135458242D01*
X71720047Y-135466615D01*
X71712570Y-135474698D01*
X71704873Y-135482491D01*
X71696954Y-135489994D01*
X71688814Y-135497207D01*
X71680452Y-135504129D01*
X71671870Y-135510762D01*
X71663065Y-135517105D01*
X71654040Y-135523158D01*
X71644793Y-135528920D01*
X71635325Y-135534393D01*
X71625635Y-135539575D01*
X71615645Y-135544426D01*
X71605275Y-135548963D01*
X71594526Y-135553188D01*
X71583396Y-135557100D01*
X71571887Y-135560698D01*
X71559999Y-135563984D01*
X71547730Y-135566957D01*
X71535082Y-135569617D01*
X71522054Y-135571964D01*
X71508647Y-135573998D01*
X71494859Y-135575719D01*
X71480692Y-135577128D01*
X71466146Y-135578223D01*
X71451219Y-135579005D01*
X71435913Y-135579475D01*
X71420227Y-135579631D01*
X71406192Y-135579508D01*
X71392418Y-135579140D01*
X71378905Y-135578526D01*
X71365654Y-135577666D01*
X71352664Y-135576560D01*
X71339936Y-135575209D01*
X71327469Y-135573612D01*
X71315264Y-135571769D01*
X71303320Y-135569681D01*
X71291637Y-135567347D01*
X71280216Y-135564768D01*
X71269056Y-135561943D01*
X71258158Y-135558872D01*
X71247521Y-135555555D01*
X71237145Y-135551993D01*
X71227031Y-135548185D01*
X71217178Y-135544131D01*
X71207587Y-135539832D01*
X71198257Y-135535287D01*
X71189189Y-135530496D01*
X71180381Y-135525460D01*
X71171836Y-135520178D01*
X71163552Y-135514650D01*
X71155529Y-135508877D01*
X71147767Y-135502858D01*
X71140267Y-135496593D01*
X71126052Y-135483327D01*
X71112882Y-135469078D01*
X71100757Y-135453846D01*
X71095047Y-135445827D01*
X71089518Y-135437524D01*
X71084171Y-135428936D01*
X71079004Y-135420064D01*
X71074019Y-135410908D01*
X71069216Y-135401467D01*
X71064593Y-135391742D01*
X71060152Y-135381733D01*
X71055892Y-135371440D01*
X71051813Y-135360862D01*
X71047916Y-135350000D01*
X71044200Y-135338853D01*
X71040665Y-135327423D01*
X71037311Y-135315708D01*
X71034139Y-135303708D01*
X71031148Y-135291424D01*
X71028338Y-135278856D01*
X71025710Y-135266004D01*
X71023263Y-135252868D01*
X71020997Y-135239447D01*
X71018912Y-135225741D01*
X71017009Y-135211752D01*
X71015287Y-135197478D01*
X71013746Y-135182920D01*
X71012386Y-135168077D01*
X71011208Y-135152950D01*
X71010211Y-135137539D01*
X71009395Y-135121844D01*
X71008761Y-135105864D01*
X71008308Y-135089600D01*
X71008036Y-135073051D01*
X71008020Y-135070140D01*
X71286138Y-135070140D01*
X71286196Y-135086775D01*
X71286370Y-135102850D01*
X71286661Y-135118366D01*
X71287069Y-135133323D01*
X71287593Y-135147721D01*
X71288233Y-135161560D01*
X71288989Y-135174840D01*
X71289862Y-135187560D01*
X71290852Y-135199722D01*
X71291958Y-135211324D01*
X71293180Y-135222368D01*
X71294518Y-135232852D01*
X71295973Y-135242777D01*
X71298374Y-135256617D01*
X71301036Y-135269198D01*
X71301969Y-135273149D01*
X71304960Y-135284601D01*
X71308243Y-135295452D01*
X71311818Y-135305701D01*
X71315684Y-135315350D01*
X71319843Y-135324397D01*
X71325842Y-135335526D01*
X71332361Y-135345585D01*
X71339398Y-135354577D01*
X71346954Y-135362499D01*
X71354945Y-135369426D01*
X71363288Y-135375429D01*
X71371981Y-135380508D01*
X71381026Y-135384664D01*
X71390422Y-135387897D01*
X71400169Y-135390205D01*
X71410266Y-135391591D01*
X71420715Y-135392053D01*
X71428686Y-135391781D01*
X71440191Y-135390353D01*
X71451154Y-135387702D01*
X71461577Y-135383827D01*
X71471459Y-135378729D01*
X71480800Y-135372407D01*
X71489600Y-135364861D01*
X71497859Y-135356092D01*
X71505577Y-135346100D01*
X71512754Y-135334883D01*
X71519390Y-135322443D01*
X71521478Y-135317975D01*
X71525457Y-135308333D01*
X71529170Y-135297751D01*
X71532618Y-135286227D01*
X71535801Y-135273763D01*
X71538718Y-135260359D01*
X71541371Y-135246013D01*
X71543758Y-135230727D01*
X71545880Y-135214500D01*
X71547736Y-135197333D01*
X71549328Y-135179224D01*
X71550654Y-135160175D01*
X71551217Y-135150298D01*
X71551715Y-135140185D01*
X71552146Y-135129838D01*
X71552510Y-135119255D01*
X71552809Y-135108437D01*
X71553041Y-135097384D01*
X71553207Y-135086095D01*
X71553306Y-135074572D01*
X71553339Y-135062813D01*
X71553309Y-135051175D01*
X71553219Y-135039768D01*
X71553069Y-135028592D01*
X71552858Y-135017647D01*
X71552588Y-135006934D01*
X71552257Y-134996453D01*
X71551867Y-134986202D01*
X71551416Y-134976183D01*
X71550334Y-134956839D01*
X71549012Y-134938421D01*
X71547449Y-134920928D01*
X71545646Y-134904361D01*
X71543602Y-134888719D01*
X71541318Y-134874002D01*
X71538794Y-134860211D01*
X71536029Y-134847345D01*
X71533023Y-134835405D01*
X71529778Y-134824390D01*
X71526291Y-134814301D01*
X71522565Y-134805137D01*
X71518538Y-134796708D01*
X71511935Y-134785084D01*
X71504659Y-134774683D01*
X71496708Y-134765506D01*
X71488084Y-134757553D01*
X71478785Y-134750823D01*
X71468812Y-134745317D01*
X71458165Y-134741034D01*
X71446845Y-134737975D01*
X71434850Y-134736140D01*
X71422181Y-134735528D01*
X71413797Y-134735795D01*
X71401721Y-134737197D01*
X71390246Y-134739802D01*
X71379373Y-134743609D01*
X71369100Y-134748618D01*
X71359429Y-134754829D01*
X71350358Y-134762242D01*
X71341889Y-134770857D01*
X71334021Y-134780675D01*
X71326754Y-134791694D01*
X71320087Y-134803916D01*
X71315976Y-134812941D01*
X71312130Y-134822982D01*
X71308550Y-134834038D01*
X71305234Y-134846109D01*
X71302184Y-134859195D01*
X71299399Y-134873296D01*
X71296880Y-134888412D01*
X71294625Y-134904544D01*
X71292636Y-134921690D01*
X71290912Y-134939852D01*
X71289453Y-134959029D01*
X71288823Y-134968998D01*
X71288260Y-134979221D01*
X71287762Y-134989698D01*
X71287331Y-135000428D01*
X71286967Y-135011412D01*
X71286668Y-135022650D01*
X71286436Y-135034142D01*
X71286270Y-135045888D01*
X71286171Y-135057887D01*
X71286138Y-135070140D01*
X71008020Y-135070140D01*
X71007945Y-135056219D01*
X71008055Y-135041113D01*
X71008384Y-135026081D01*
X71008933Y-135011124D01*
X71009701Y-134996242D01*
X71010688Y-134981434D01*
X71011895Y-134966700D01*
X71013321Y-134952040D01*
X71014967Y-134937456D01*
X71016832Y-134922945D01*
X71018917Y-134908509D01*
X71021221Y-134894147D01*
X71023745Y-134879860D01*
X71026487Y-134865647D01*
X71029450Y-134851509D01*
X71032632Y-134837445D01*
X71036033Y-134823455D01*
X71038819Y-134812637D01*
X71041772Y-134802072D01*
X71044892Y-134791760D01*
X71048180Y-134781701D01*
X71051636Y-134771896D01*
X71055259Y-134762344D01*
X71059049Y-134753045D01*
X71063007Y-134744000D01*
X71068544Y-134732334D01*
X71074379Y-134721117D01*
X71078976Y-134712911D01*
X71085586Y-134702082D01*
X71092745Y-134691383D01*
X71098475Y-134683444D01*
X71104514Y-134675578D01*
X71110863Y-134667785D01*
X71117520Y-134660065D01*
X71124487Y-134652417D01*
X71131763Y-134644843D01*
X71139348Y-134637342D01*
X71144572Y-134632425D01*
X71152767Y-134625271D01*
X71161391Y-134618383D01*
X71170444Y-134611761D01*
X71179926Y-134605405D01*
X71189838Y-134599316D01*
X71200179Y-134593493D01*
X71210950Y-134587936D01*
X71222150Y-134582645D01*
X71233779Y-134577620D01*
X71245838Y-134572862D01*
X71249949Y-134571329D01*
X71262709Y-134567023D01*
X71276110Y-134563155D01*
X71290150Y-134559724D01*
X71299865Y-134557681D01*
X71309865Y-134555832D01*
X71320148Y-134554177D01*
X71330717Y-134552718D01*
X71341569Y-134551453D01*
X71352706Y-134550382D01*
X71364127Y-134549506D01*
X71375833Y-134548825D01*
X71387823Y-134548339D01*
X71400097Y-134548047D01*
X71412655Y-134547949D01*
X71425770Y-134548060D01*
G37*
G36*
X70870436Y-135282632D02*
G01*
X70571727Y-135282632D01*
X70571727Y-135564000D01*
X70870436Y-135564000D01*
X70870436Y-135282632D01*
G37*
G36*
X70055682Y-134548183D02*
G01*
X70074060Y-134548884D01*
X70091968Y-134550053D01*
X70109406Y-134551689D01*
X70126375Y-134553793D01*
X70142875Y-134556364D01*
X70158905Y-134559403D01*
X70174466Y-134562909D01*
X70189558Y-134566883D01*
X70204180Y-134571324D01*
X70218333Y-134576233D01*
X70232016Y-134581609D01*
X70245230Y-134587453D01*
X70257975Y-134593764D01*
X70270250Y-134600543D01*
X70282055Y-134607789D01*
X70296459Y-134617703D01*
X70309933Y-134627966D01*
X70322478Y-134638578D01*
X70334094Y-134649539D01*
X70344781Y-134660850D01*
X70354538Y-134672509D01*
X70363366Y-134684518D01*
X70371265Y-134696876D01*
X70378235Y-134709584D01*
X70384275Y-134722640D01*
X70389386Y-134736046D01*
X70393567Y-134749801D01*
X70396820Y-134763905D01*
X70399143Y-134778358D01*
X70400537Y-134793160D01*
X70401002Y-134808312D01*
X70400840Y-134817586D01*
X70399994Y-134831239D01*
X70398422Y-134844582D01*
X70396124Y-134857617D01*
X70393101Y-134870342D01*
X70389352Y-134882758D01*
X70384878Y-134894866D01*
X70379678Y-134906664D01*
X70373752Y-134918153D01*
X70367101Y-134929333D01*
X70359725Y-134940203D01*
X70355829Y-134945423D01*
X70349460Y-134953135D01*
X70342460Y-134960704D01*
X70334828Y-134968133D01*
X70326566Y-134975419D01*
X70317672Y-134982564D01*
X70308147Y-134989567D01*
X70297991Y-134996428D01*
X70287204Y-135003148D01*
X70275786Y-135009726D01*
X70263737Y-135016163D01*
X70269067Y-135018312D01*
X70279464Y-135022775D01*
X70289513Y-135027458D01*
X70299212Y-135032360D01*
X70308562Y-135037481D01*
X70317562Y-135042822D01*
X70326214Y-135048383D01*
X70334516Y-135054162D01*
X70342469Y-135060162D01*
X70353744Y-135069572D01*
X70364234Y-135079476D01*
X70373937Y-135089874D01*
X70382855Y-135100765D01*
X70390988Y-135112150D01*
X70393512Y-135116054D01*
X70400605Y-135128087D01*
X70406976Y-135140601D01*
X70412626Y-135153595D01*
X70417555Y-135167071D01*
X70421762Y-135181027D01*
X70424167Y-135190598D01*
X70426250Y-135200383D01*
X70428013Y-135210382D01*
X70429456Y-135220594D01*
X70430578Y-135231020D01*
X70431379Y-135241660D01*
X70431860Y-135252514D01*
X70432020Y-135263581D01*
X70431849Y-135274962D01*
X70431334Y-135286208D01*
X70430475Y-135297318D01*
X70429273Y-135308293D01*
X70427727Y-135319132D01*
X70425838Y-135329835D01*
X70423606Y-135340404D01*
X70421030Y-135350837D01*
X70418110Y-135361134D01*
X70414847Y-135371296D01*
X70411241Y-135381322D01*
X70407291Y-135391213D01*
X70402998Y-135400968D01*
X70398361Y-135410588D01*
X70393380Y-135420073D01*
X70388057Y-135429422D01*
X70382403Y-135438532D01*
X70376432Y-135447362D01*
X70370145Y-135455912D01*
X70363541Y-135464181D01*
X70356620Y-135472169D01*
X70349382Y-135479877D01*
X70341828Y-135487304D01*
X70333957Y-135494451D01*
X70325769Y-135501318D01*
X70317264Y-135507904D01*
X70308443Y-135514209D01*
X70299305Y-135520234D01*
X70289850Y-135525979D01*
X70280078Y-135531443D01*
X70269990Y-135536626D01*
X70259585Y-135541529D01*
X70248726Y-135546143D01*
X70237275Y-135550459D01*
X70225233Y-135554478D01*
X70212599Y-135558199D01*
X70199373Y-135561622D01*
X70185557Y-135564747D01*
X70171148Y-135567575D01*
X70156148Y-135570106D01*
X70140557Y-135572338D01*
X70124374Y-135574273D01*
X70107599Y-135575910D01*
X70090233Y-135577250D01*
X70072276Y-135578292D01*
X70053726Y-135579036D01*
X70034586Y-135579482D01*
X70024794Y-135579594D01*
X70014854Y-135579631D01*
X70004267Y-135579565D01*
X69993757Y-135579368D01*
X69983323Y-135579039D01*
X69972966Y-135578578D01*
X69962685Y-135577985D01*
X69952480Y-135577261D01*
X69942352Y-135576405D01*
X69932300Y-135575418D01*
X69922324Y-135574299D01*
X69912424Y-135573048D01*
X69902601Y-135571665D01*
X69892854Y-135570151D01*
X69883184Y-135568506D01*
X69868821Y-135565790D01*
X69854630Y-135562778D01*
X69845323Y-135560568D01*
X69831724Y-135556976D01*
X69818559Y-135553054D01*
X69805827Y-135548802D01*
X69793529Y-135544219D01*
X69781664Y-135539305D01*
X69770233Y-135534061D01*
X69759236Y-135528486D01*
X69748672Y-135522580D01*
X69738542Y-135516344D01*
X69728845Y-135509778D01*
X69722588Y-135505142D01*
X69713433Y-135497748D01*
X69704558Y-135489826D01*
X69695962Y-135481376D01*
X69687646Y-135472398D01*
X69679608Y-135462892D01*
X69671849Y-135452858D01*
X69664369Y-135442295D01*
X69657169Y-135431205D01*
X69650247Y-135419586D01*
X69643605Y-135407440D01*
X69639405Y-135399127D01*
X69633613Y-135386511D01*
X69628431Y-135373719D01*
X69623859Y-135360751D01*
X69619896Y-135347607D01*
X69616543Y-135334287D01*
X69613799Y-135320791D01*
X69611665Y-135307119D01*
X69610141Y-135293271D01*
X69609227Y-135279246D01*
X69608922Y-135265046D01*
X69609079Y-135255210D01*
X69609297Y-135251369D01*
X69890046Y-135251369D01*
X69890201Y-135258918D01*
X69891018Y-135269931D01*
X69892534Y-135280571D01*
X69894750Y-135290837D01*
X69897666Y-135300730D01*
X69901281Y-135310249D01*
X69905597Y-135319394D01*
X69910612Y-135328166D01*
X69916327Y-135336565D01*
X69922742Y-135344590D01*
X69929857Y-135352241D01*
X69934874Y-135357062D01*
X69942549Y-135363710D01*
X69950404Y-135369659D01*
X69961158Y-135376501D01*
X69972233Y-135382100D01*
X69983629Y-135386454D01*
X69995345Y-135389564D01*
X70007381Y-135391430D01*
X70019739Y-135392053D01*
X70029436Y-135391709D01*
X70042045Y-135390183D01*
X70054287Y-135387435D01*
X70066164Y-135383466D01*
X70077674Y-135378276D01*
X70088817Y-135371864D01*
X70096935Y-135366254D01*
X70104846Y-135359957D01*
X70112551Y-135352974D01*
X70117460Y-135347971D01*
X70124231Y-135340143D01*
X70130289Y-135331923D01*
X70135634Y-135323313D01*
X70140267Y-135314312D01*
X70144186Y-135304920D01*
X70147394Y-135295138D01*
X70149888Y-135284965D01*
X70151670Y-135274401D01*
X70152739Y-135263447D01*
X70153095Y-135252101D01*
X70152943Y-135244085D01*
X70152147Y-135232455D01*
X70150668Y-135221296D01*
X70148506Y-135210610D01*
X70145662Y-135200396D01*
X70142135Y-135190655D01*
X70137925Y-135181385D01*
X70133033Y-135172588D01*
X70127458Y-135164264D01*
X70121201Y-135156411D01*
X70114260Y-135149031D01*
X70111820Y-135146672D01*
X70104346Y-135140044D01*
X70094019Y-135132254D01*
X70083280Y-135125664D01*
X70072129Y-135120271D01*
X70060565Y-135116077D01*
X70048590Y-135113081D01*
X70036202Y-135111284D01*
X70023402Y-135110685D01*
X70013578Y-135111033D01*
X70000834Y-135112578D01*
X69988494Y-135115360D01*
X69976558Y-135119379D01*
X69965027Y-135124634D01*
X69953901Y-135131125D01*
X69945822Y-135136805D01*
X69937970Y-135143181D01*
X69930346Y-135150252D01*
X69925466Y-135155255D01*
X69918736Y-135163089D01*
X69912714Y-135171318D01*
X69907401Y-135179942D01*
X69902797Y-135188961D01*
X69898901Y-135198375D01*
X69895713Y-135208183D01*
X69893233Y-135218387D01*
X69891462Y-135228986D01*
X69890400Y-135239980D01*
X69890046Y-135251369D01*
X69609297Y-135251369D01*
X69609906Y-135240663D01*
X69611441Y-135226364D01*
X69613684Y-135212315D01*
X69616636Y-135198515D01*
X69620296Y-135184964D01*
X69624664Y-135171662D01*
X69629741Y-135158608D01*
X69635526Y-135145804D01*
X69642020Y-135133249D01*
X69649222Y-135120943D01*
X69651766Y-135116892D01*
X69659889Y-135105040D01*
X69668745Y-135093640D01*
X69678336Y-135082689D01*
X69685137Y-135075640D01*
X69692265Y-135068790D01*
X69699719Y-135062142D01*
X69707500Y-135055693D01*
X69715607Y-135049445D01*
X69724040Y-135043397D01*
X69732799Y-135037549D01*
X69741885Y-135031902D01*
X69751297Y-135026455D01*
X69761035Y-135021209D01*
X69771099Y-135016163D01*
X69763504Y-135011146D01*
X69752594Y-135003586D01*
X69742263Y-134995982D01*
X69732512Y-134988336D01*
X69723341Y-134980646D01*
X69714750Y-134972914D01*
X69706737Y-134965139D01*
X69699305Y-134957321D01*
X69692452Y-134949460D01*
X69686179Y-134941556D01*
X69680485Y-134933609D01*
X69675812Y-134926401D01*
X69669368Y-134915463D01*
X69663602Y-134904376D01*
X69658514Y-134893138D01*
X69654105Y-134881750D01*
X69650374Y-134870212D01*
X69647322Y-134858523D01*
X69644947Y-134846684D01*
X69643252Y-134834695D01*
X69642944Y-134831027D01*
X69908608Y-134831027D01*
X69908881Y-134838541D01*
X69910547Y-134850475D01*
X69913727Y-134861668D01*
X69918423Y-134872122D01*
X69924632Y-134881837D01*
X69932357Y-134890813D01*
X69939627Y-134897461D01*
X69947591Y-134903471D01*
X69956098Y-134908681D01*
X69965146Y-134913088D01*
X69974737Y-134916695D01*
X69984869Y-134919500D01*
X69995543Y-134921503D01*
X70006759Y-134922706D01*
X70018517Y-134923106D01*
X70021885Y-134923081D01*
X70031737Y-134922702D01*
X70044285Y-134921488D01*
X70056161Y-134919466D01*
X70067366Y-134916634D01*
X70077899Y-134912993D01*
X70087760Y-134908543D01*
X70096950Y-134903284D01*
X70105468Y-134897217D01*
X70113081Y-134890431D01*
X70121171Y-134881241D01*
X70127674Y-134871264D01*
X70132591Y-134860499D01*
X70135922Y-134848948D01*
X70137444Y-134839140D01*
X70137952Y-134828829D01*
X70137673Y-134821224D01*
X70135968Y-134809152D01*
X70132712Y-134797830D01*
X70127906Y-134787260D01*
X70121549Y-134777442D01*
X70113642Y-134768375D01*
X70106200Y-134761662D01*
X70097908Y-134755537D01*
X70089027Y-134750228D01*
X70079559Y-134745736D01*
X70069503Y-134742061D01*
X70058859Y-134739203D01*
X70047628Y-134737161D01*
X70035809Y-134735936D01*
X70023402Y-134735528D01*
X70011106Y-134735944D01*
X69999375Y-134737192D01*
X69988208Y-134739272D01*
X69977607Y-134742183D01*
X69967570Y-134745927D01*
X69958098Y-134750503D01*
X69949190Y-134755911D01*
X69940848Y-134762150D01*
X69938865Y-134763815D01*
X69931560Y-134770787D01*
X69925263Y-134778263D01*
X69918809Y-134788317D01*
X69913929Y-134799157D01*
X69910623Y-134810785D01*
X69909112Y-134820654D01*
X69908608Y-134831027D01*
X69642944Y-134831027D01*
X69642234Y-134822556D01*
X69641895Y-134810266D01*
X69642272Y-134796281D01*
X69643402Y-134782598D01*
X69645287Y-134769216D01*
X69647925Y-134756136D01*
X69651316Y-134743357D01*
X69655462Y-134730880D01*
X69660361Y-134718704D01*
X69666014Y-134706829D01*
X69672420Y-134695256D01*
X69679581Y-134683985D01*
X69687495Y-134673015D01*
X69696163Y-134662346D01*
X69705584Y-134651980D01*
X69715759Y-134641914D01*
X69726688Y-134632150D01*
X69738371Y-134622688D01*
X69744504Y-134618089D01*
X69757387Y-134609331D01*
X69771095Y-134601157D01*
X69785628Y-134593566D01*
X69800985Y-134586559D01*
X69817166Y-134580136D01*
X69834171Y-134574297D01*
X69852001Y-134569042D01*
X69870655Y-134564371D01*
X69880291Y-134562255D01*
X69890133Y-134560284D01*
X69900182Y-134558459D01*
X69910436Y-134556781D01*
X69920896Y-134555248D01*
X69931563Y-134553861D01*
X69942436Y-134552620D01*
X69953514Y-134551526D01*
X69964799Y-134550577D01*
X69976290Y-134549774D01*
X69987987Y-134549117D01*
X69999890Y-134548606D01*
X70011999Y-134548241D01*
X70024314Y-134548022D01*
X70036836Y-134547949D01*
X70055682Y-134548183D01*
G37*
G36*
X69471413Y-135282632D02*
G01*
X69172704Y-135282632D01*
X69172704Y-135564000D01*
X69471413Y-135564000D01*
X69471413Y-135282632D01*
G37*
G36*
X69061818Y-135159778D02*
G01*
X69061818Y-135392053D01*
X68552083Y-135392053D01*
X68552083Y-135564000D01*
X68308329Y-135564000D01*
X68308329Y-135392053D01*
X68181811Y-135392053D01*
X68181811Y-135157579D01*
X68308329Y-135157579D01*
X68308329Y-134842262D01*
X68552083Y-134842262D01*
X68552083Y-135157579D01*
X68821239Y-135157579D01*
X68552083Y-134842262D01*
X68308329Y-134842262D01*
X68308329Y-134547949D01*
X68552083Y-134547949D01*
X69061818Y-135159778D01*
G37*
G36*
X94656026Y-137244000D02*
G01*
X94394442Y-137244000D01*
X94394442Y-137145570D01*
X94391061Y-137149424D01*
X94384346Y-137156900D01*
X94377694Y-137164067D01*
X94367835Y-137174238D01*
X94358117Y-137183713D01*
X94348540Y-137192493D01*
X94339106Y-137200577D01*
X94329813Y-137207966D01*
X94320662Y-137214659D01*
X94311652Y-137220657D01*
X94302784Y-137225959D01*
X94294058Y-137230566D01*
X94286377Y-137234086D01*
X94274673Y-137238939D01*
X94262749Y-137243282D01*
X94250607Y-137247114D01*
X94238246Y-137250435D01*
X94225666Y-137253245D01*
X94212866Y-137255544D01*
X94199848Y-137257332D01*
X94186611Y-137258609D01*
X94173155Y-137259376D01*
X94159480Y-137259631D01*
X94148824Y-137259455D01*
X94138288Y-137258925D01*
X94127873Y-137258043D01*
X94117577Y-137256807D01*
X94107402Y-137255218D01*
X94097347Y-137253277D01*
X94087412Y-137250982D01*
X94077598Y-137248335D01*
X94067904Y-137245334D01*
X94058329Y-137241981D01*
X94048876Y-137238274D01*
X94039542Y-137234215D01*
X94030328Y-137229802D01*
X94021235Y-137225036D01*
X94012262Y-137219918D01*
X94003409Y-137214446D01*
X93994706Y-137208618D01*
X93986243Y-137202429D01*
X93978021Y-137195879D01*
X93970039Y-137188969D01*
X93962298Y-137181698D01*
X93954797Y-137174066D01*
X93947537Y-137166074D01*
X93940517Y-137157721D01*
X93933737Y-137149007D01*
X93927198Y-137139933D01*
X93920899Y-137130498D01*
X93914841Y-137120703D01*
X93909023Y-137110547D01*
X93903445Y-137100030D01*
X93898108Y-137089152D01*
X93893011Y-137077914D01*
X93888190Y-137066355D01*
X93883681Y-137054574D01*
X93879482Y-137042572D01*
X93875594Y-137030348D01*
X93872017Y-137017903D01*
X93868751Y-137005237D01*
X93865796Y-136992349D01*
X93863153Y-136979240D01*
X93860820Y-136965910D01*
X93858798Y-136952358D01*
X93857088Y-136938585D01*
X93855688Y-136924591D01*
X93854599Y-136910375D01*
X93853822Y-136895938D01*
X93853355Y-136881280D01*
X93853228Y-136869087D01*
X94132614Y-136869087D01*
X94132647Y-136875894D01*
X94132914Y-136889139D01*
X94133448Y-136901889D01*
X94134250Y-136914145D01*
X94135318Y-136925907D01*
X94136654Y-136937174D01*
X94138257Y-136947948D01*
X94140127Y-136958227D01*
X94142264Y-136968012D01*
X94145971Y-136981763D01*
X94150278Y-136994402D01*
X94155187Y-137005929D01*
X94160697Y-137016343D01*
X94166808Y-137025646D01*
X94171114Y-137031266D01*
X94177810Y-137039015D01*
X94184790Y-137045949D01*
X94194537Y-137053925D01*
X94204787Y-137060451D01*
X94215542Y-137065527D01*
X94226800Y-137069152D01*
X94238562Y-137071327D01*
X94250827Y-137072053D01*
X94254198Y-137072007D01*
X94264089Y-137071316D01*
X94276763Y-137069106D01*
X94288849Y-137065424D01*
X94300347Y-137060268D01*
X94311258Y-137053639D01*
X94319056Y-137047701D01*
X94326522Y-137040934D01*
X94333659Y-137033338D01*
X94340464Y-137024914D01*
X94342643Y-137021895D01*
X94348765Y-137012160D01*
X94354264Y-137001402D01*
X94359140Y-136989622D01*
X94363394Y-136976821D01*
X94367026Y-136962998D01*
X94369101Y-136953215D01*
X94370899Y-136942978D01*
X94372421Y-136932286D01*
X94373666Y-136921141D01*
X94374634Y-136909541D01*
X94375326Y-136897488D01*
X94375741Y-136884980D01*
X94375879Y-136872018D01*
X94375844Y-136866051D01*
X94375564Y-136854406D01*
X94375003Y-136843144D01*
X94374161Y-136832265D01*
X94373039Y-136821771D01*
X94371637Y-136811659D01*
X94369007Y-136797212D01*
X94365746Y-136783627D01*
X94361855Y-136770905D01*
X94357332Y-136759046D01*
X94352177Y-136748050D01*
X94346392Y-136737917D01*
X94339976Y-136728647D01*
X94335375Y-136722909D01*
X94328167Y-136714997D01*
X94320589Y-136707917D01*
X94312642Y-136701670D01*
X94304326Y-136696256D01*
X94295640Y-136691675D01*
X94286586Y-136687927D01*
X94277162Y-136685012D01*
X94267369Y-136682930D01*
X94257207Y-136681680D01*
X94246675Y-136681264D01*
X94240807Y-136681441D01*
X94229404Y-136682861D01*
X94218444Y-136685700D01*
X94207926Y-136689959D01*
X94197851Y-136695638D01*
X94188219Y-136702736D01*
X94179029Y-136711254D01*
X94172428Y-136718574D01*
X94166075Y-136726693D01*
X94162023Y-136732573D01*
X94156435Y-136742148D01*
X94151436Y-136752629D01*
X94147024Y-136764015D01*
X94143201Y-136776308D01*
X94139966Y-136789506D01*
X94137319Y-136803611D01*
X94135881Y-136813517D01*
X94134705Y-136823825D01*
X94133790Y-136834537D01*
X94133136Y-136845651D01*
X94132744Y-136857167D01*
X94132614Y-136869087D01*
X93853228Y-136869087D01*
X93853200Y-136866400D01*
X93853285Y-136855216D01*
X93853540Y-136844197D01*
X93853966Y-136833341D01*
X93854562Y-136822650D01*
X93855329Y-136812123D01*
X93856265Y-136801760D01*
X93857372Y-136791561D01*
X93858649Y-136781526D01*
X93860097Y-136771655D01*
X93861715Y-136761948D01*
X93865462Y-136743027D01*
X93869889Y-136724762D01*
X93874998Y-136707154D01*
X93880789Y-136690202D01*
X93887260Y-136673906D01*
X93894413Y-136658267D01*
X93902247Y-136643284D01*
X93910762Y-136628958D01*
X93919958Y-136615288D01*
X93929836Y-136602274D01*
X93940394Y-136589917D01*
X93951473Y-136578264D01*
X93962911Y-136567363D01*
X93974707Y-136557213D01*
X93986862Y-136547816D01*
X93999375Y-136539170D01*
X94012248Y-136531276D01*
X94025479Y-136524134D01*
X94039069Y-136517743D01*
X94053017Y-136512105D01*
X94067324Y-136507218D01*
X94081990Y-136503083D01*
X94097015Y-136499700D01*
X94112399Y-136497069D01*
X94128141Y-136495189D01*
X94144242Y-136494061D01*
X94160702Y-136493685D01*
X94168747Y-136493763D01*
X94180648Y-136494168D01*
X94192346Y-136494922D01*
X94203843Y-136496023D01*
X94215138Y-136497472D01*
X94226231Y-136499269D01*
X94237123Y-136501413D01*
X94247813Y-136503906D01*
X94258300Y-136506746D01*
X94268586Y-136509934D01*
X94278671Y-136513469D01*
X94285282Y-136515990D01*
X94295030Y-136520064D01*
X94304576Y-136524491D01*
X94313920Y-136529269D01*
X94323063Y-136534400D01*
X94332004Y-136539882D01*
X94340743Y-136545717D01*
X94349280Y-136551904D01*
X94357616Y-136558442D01*
X94365749Y-136565333D01*
X94373681Y-136572576D01*
X94373681Y-136243581D01*
X94656026Y-136243581D01*
X94656026Y-137244000D01*
G37*
G36*
X93805572Y-136509317D02*
G01*
X93510283Y-136509317D01*
X93359829Y-136998535D01*
X93220367Y-136509317D01*
X92944861Y-136509317D01*
X93234044Y-137294314D01*
X93240249Y-137310675D01*
X93246466Y-137326359D01*
X93252697Y-137341366D01*
X93258942Y-137355695D01*
X93265199Y-137369347D01*
X93271471Y-137382321D01*
X93277755Y-137394618D01*
X93284053Y-137406238D01*
X93290364Y-137417180D01*
X93296689Y-137427445D01*
X93303027Y-137437032D01*
X93309378Y-137445943D01*
X93315742Y-137454175D01*
X93322120Y-137461731D01*
X93331712Y-137471793D01*
X93334916Y-137474809D01*
X93344342Y-137482824D01*
X93354360Y-137490322D01*
X93364973Y-137497303D01*
X93376178Y-137503767D01*
X93387977Y-137509714D01*
X93400370Y-137515143D01*
X93413356Y-137520056D01*
X93426935Y-137524451D01*
X93441108Y-137528330D01*
X93455874Y-137531691D01*
X93471234Y-137534535D01*
X93487187Y-137536862D01*
X93503733Y-137538672D01*
X93520873Y-137539965D01*
X93538606Y-137540740D01*
X93556933Y-137540999D01*
X93568826Y-137540857D01*
X93581883Y-137540432D01*
X93596103Y-137539724D01*
X93606230Y-137539094D01*
X93616874Y-137538338D01*
X93628034Y-137537457D01*
X93639712Y-137536449D01*
X93651907Y-137535316D01*
X93664619Y-137534056D01*
X93677848Y-137532671D01*
X93691595Y-137531160D01*
X93705858Y-137529523D01*
X93720639Y-137527760D01*
X93735936Y-137525871D01*
X93743779Y-137524879D01*
X93765761Y-137333148D01*
X93754327Y-137336771D01*
X93742648Y-137340038D01*
X93730725Y-137342948D01*
X93718557Y-137345501D01*
X93706144Y-137347699D01*
X93693487Y-137349540D01*
X93680585Y-137351025D01*
X93667438Y-137352153D01*
X93654046Y-137352925D01*
X93640410Y-137353341D01*
X93631183Y-137353420D01*
X93619085Y-137353062D01*
X93607583Y-137351985D01*
X93596676Y-137350192D01*
X93586364Y-137347681D01*
X93576648Y-137344452D01*
X93567527Y-137340506D01*
X93556963Y-137334564D01*
X93551071Y-137330461D01*
X93543584Y-137324153D01*
X93536386Y-137316708D01*
X93529479Y-137308125D01*
X93522861Y-137298405D01*
X93516534Y-137287547D01*
X93511979Y-137278658D01*
X93507587Y-137269129D01*
X93503358Y-137258960D01*
X93499292Y-137248152D01*
X93805572Y-136509317D01*
G37*
G36*
X92037509Y-136493789D02*
G01*
X92049324Y-136494100D01*
X92060977Y-136494619D01*
X92072467Y-136495346D01*
X92083795Y-136496279D01*
X92094959Y-136497421D01*
X92105962Y-136498769D01*
X92116801Y-136500326D01*
X92127478Y-136502090D01*
X92137992Y-136504061D01*
X92148343Y-136506240D01*
X92158532Y-136508626D01*
X92168558Y-136511220D01*
X92178422Y-136514022D01*
X92188123Y-136517030D01*
X92197661Y-136520247D01*
X92207036Y-136523671D01*
X92216249Y-136527302D01*
X92234186Y-136535188D01*
X92251473Y-136543903D01*
X92268109Y-136553449D01*
X92284095Y-136563824D01*
X92299430Y-136575030D01*
X92314114Y-136587065D01*
X92328147Y-136599931D01*
X92334879Y-136606636D01*
X92347702Y-136620430D01*
X92359670Y-136634737D01*
X92370783Y-136649557D01*
X92381041Y-136664891D01*
X92390445Y-136680739D01*
X92398993Y-136697099D01*
X92406687Y-136713973D01*
X92413526Y-136731360D01*
X92419510Y-136749260D01*
X92424639Y-136767674D01*
X92428913Y-136786601D01*
X92430729Y-136796257D01*
X92432332Y-136806041D01*
X92433721Y-136815953D01*
X92434897Y-136825994D01*
X92435859Y-136836164D01*
X92436607Y-136846461D01*
X92437141Y-136856887D01*
X92437461Y-136867441D01*
X92437568Y-136878124D01*
X92437355Y-136893084D01*
X92436717Y-136907799D01*
X92435653Y-136922271D01*
X92434164Y-136936498D01*
X92432249Y-136950481D01*
X92429909Y-136964219D01*
X92427143Y-136977714D01*
X92423952Y-136990964D01*
X92420335Y-137003970D01*
X92416292Y-137016732D01*
X92411824Y-137029249D01*
X92406931Y-137041522D01*
X92401612Y-137053551D01*
X92395868Y-137065336D01*
X92389698Y-137076876D01*
X92383102Y-137088173D01*
X92376153Y-137099158D01*
X92368982Y-137109765D01*
X92361590Y-137119995D01*
X92353976Y-137129846D01*
X92346141Y-137139320D01*
X92338085Y-137148417D01*
X92329808Y-137157135D01*
X92321309Y-137165475D01*
X92312588Y-137173438D01*
X92303647Y-137181023D01*
X92294484Y-137188230D01*
X92285100Y-137195059D01*
X92275494Y-137201511D01*
X92265667Y-137207584D01*
X92255619Y-137213280D01*
X92245349Y-137218598D01*
X92234698Y-137223567D01*
X92223566Y-137228215D01*
X92211953Y-137232543D01*
X92199859Y-137236550D01*
X92187284Y-137240237D01*
X92174229Y-137243603D01*
X92160692Y-137246648D01*
X92146675Y-137249373D01*
X92132177Y-137251777D01*
X92117198Y-137253861D01*
X92101738Y-137255624D01*
X92085797Y-137257066D01*
X92069376Y-137258188D01*
X92052474Y-137258990D01*
X92035090Y-137259471D01*
X92017226Y-137259631D01*
X92006876Y-137259581D01*
X91996677Y-137259433D01*
X91986631Y-137259185D01*
X91976735Y-137258837D01*
X91957400Y-137257845D01*
X91938672Y-137256456D01*
X91920550Y-137254670D01*
X91903035Y-137252487D01*
X91886127Y-137249907D01*
X91869826Y-137246930D01*
X91854131Y-137243557D01*
X91839044Y-137239786D01*
X91824563Y-137235619D01*
X91810688Y-137231055D01*
X91797421Y-137226093D01*
X91784761Y-137220735D01*
X91772707Y-137214980D01*
X91761260Y-137208829D01*
X91750188Y-137202190D01*
X91739320Y-137195036D01*
X91728656Y-137187368D01*
X91718197Y-137179184D01*
X91707941Y-137170484D01*
X91697890Y-137161270D01*
X91688043Y-137151540D01*
X91678400Y-137141295D01*
X91668962Y-137130535D01*
X91659727Y-137119260D01*
X91650697Y-137107470D01*
X91641871Y-137095164D01*
X91633249Y-137082343D01*
X91624831Y-137069007D01*
X91616617Y-137055156D01*
X91608608Y-137040789D01*
X91884114Y-137009526D01*
X91892197Y-137018761D01*
X91900114Y-137027077D01*
X91907863Y-137034474D01*
X91915446Y-137040954D01*
X91924324Y-137047517D01*
X91932963Y-137052757D01*
X91942251Y-137057280D01*
X91951678Y-137061199D01*
X91961241Y-137064515D01*
X91970942Y-137067229D01*
X91980781Y-137069339D01*
X91990756Y-137070847D01*
X92000870Y-137071751D01*
X92011120Y-137072053D01*
X92019175Y-137071876D01*
X92030897Y-137070949D01*
X92042185Y-137069228D01*
X92053039Y-137066713D01*
X92063460Y-137063404D01*
X92073447Y-137059300D01*
X92083000Y-137054402D01*
X92092120Y-137048710D01*
X92100806Y-137042223D01*
X92109059Y-137034943D01*
X92116877Y-137026868D01*
X92118658Y-137024881D01*
X92125365Y-137016293D01*
X92131408Y-137006674D01*
X92136787Y-136996025D01*
X92141502Y-136984345D01*
X92144603Y-136974909D01*
X92147330Y-136964893D01*
X92149683Y-136954298D01*
X92151663Y-136943123D01*
X92153270Y-136931369D01*
X91592732Y-136931369D01*
X91592732Y-136900594D01*
X91592917Y-136883305D01*
X91593473Y-136866427D01*
X91594398Y-136849959D01*
X91595694Y-136833900D01*
X91597359Y-136818253D01*
X91599395Y-136803015D01*
X91601397Y-136790685D01*
X91877031Y-136790685D01*
X92152537Y-136790685D01*
X92152091Y-136787761D01*
X92149947Y-136776520D01*
X92147222Y-136766005D01*
X92143917Y-136756214D01*
X92140032Y-136747148D01*
X92134360Y-136736836D01*
X92127781Y-136727657D01*
X92120297Y-136719610D01*
X92115215Y-136714967D01*
X92107200Y-136708563D01*
X92098712Y-136702834D01*
X92089752Y-136697778D01*
X92080319Y-136693397D01*
X92070414Y-136689690D01*
X92060037Y-136686656D01*
X92049188Y-136684297D01*
X92037867Y-136682612D01*
X92026073Y-136681601D01*
X92013807Y-136681264D01*
X92006660Y-136681363D01*
X91996272Y-136681884D01*
X91986284Y-136682852D01*
X91973587Y-136684836D01*
X91961600Y-136687614D01*
X91950323Y-136691186D01*
X91939756Y-136695552D01*
X91929898Y-136700712D01*
X91920750Y-136706665D01*
X91914348Y-136711720D01*
X91906554Y-136719368D01*
X91899606Y-136728054D01*
X91893506Y-136737778D01*
X91888252Y-136748540D01*
X91883847Y-136760340D01*
X91881098Y-136769871D01*
X91878826Y-136779986D01*
X91877031Y-136790685D01*
X91601397Y-136790685D01*
X91601802Y-136788188D01*
X91604578Y-136773771D01*
X91607725Y-136759764D01*
X91611241Y-136746168D01*
X91615128Y-136732981D01*
X91619385Y-136720205D01*
X91624012Y-136707840D01*
X91629010Y-136695884D01*
X91634378Y-136684339D01*
X91640115Y-136673204D01*
X91646208Y-136662436D01*
X91652640Y-136651993D01*
X91659412Y-136641874D01*
X91666524Y-136632080D01*
X91673975Y-136622609D01*
X91681766Y-136613464D01*
X91689897Y-136604642D01*
X91698367Y-136596145D01*
X91707177Y-136587973D01*
X91716327Y-136580125D01*
X91725816Y-136572601D01*
X91735645Y-136565401D01*
X91745813Y-136558526D01*
X91756322Y-136551976D01*
X91767169Y-136545749D01*
X91778357Y-136539847D01*
X91789941Y-136534257D01*
X91802041Y-136529028D01*
X91814655Y-136524160D01*
X91827785Y-136519652D01*
X91841431Y-136515504D01*
X91855591Y-136511717D01*
X91870267Y-136508291D01*
X91885457Y-136505226D01*
X91901163Y-136502521D01*
X91917384Y-136500177D01*
X91934121Y-136498193D01*
X91951372Y-136496571D01*
X91969139Y-136495308D01*
X91987421Y-136494407D01*
X92006218Y-136493866D01*
X92025531Y-136493685D01*
X92037509Y-136493789D01*
G37*
G36*
X90944756Y-136915737D02*
G01*
X90944756Y-136681264D01*
X90464086Y-136681264D01*
X90464086Y-137087196D01*
X90472680Y-137093392D01*
X90481212Y-137099463D01*
X90489681Y-137105409D01*
X90498089Y-137111231D01*
X90506435Y-137116927D01*
X90514719Y-137122498D01*
X90522940Y-137127945D01*
X90539198Y-137138462D01*
X90555207Y-137148480D01*
X90570969Y-137157998D01*
X90586482Y-137167016D01*
X90601747Y-137175534D01*
X90616764Y-137183552D01*
X90631533Y-137191070D01*
X90646054Y-137198088D01*
X90660327Y-137204606D01*
X90674352Y-137210625D01*
X90688129Y-137216143D01*
X90701658Y-137221161D01*
X90708329Y-137223483D01*
X90721735Y-137227860D01*
X90735451Y-137231955D01*
X90749479Y-137235768D01*
X90763818Y-137239298D01*
X90778468Y-137242545D01*
X90793428Y-137245511D01*
X90808700Y-137248194D01*
X90824283Y-137250594D01*
X90840177Y-137252712D01*
X90856382Y-137254548D01*
X90872898Y-137256101D01*
X90889725Y-137257372D01*
X90906863Y-137258360D01*
X90924312Y-137259066D01*
X90942072Y-137259490D01*
X90960143Y-137259631D01*
X90971283Y-137259572D01*
X90982294Y-137259394D01*
X90993175Y-137259099D01*
X91003928Y-137258685D01*
X91014550Y-137258152D01*
X91025044Y-137257502D01*
X91035408Y-137256733D01*
X91045644Y-137255845D01*
X91055749Y-137254840D01*
X91065726Y-137253716D01*
X91075573Y-137252474D01*
X91085291Y-137251113D01*
X91104339Y-137248037D01*
X91122870Y-137244488D01*
X91140884Y-137240466D01*
X91158381Y-137235970D01*
X91175360Y-137231001D01*
X91191823Y-137225559D01*
X91207768Y-137219644D01*
X91223197Y-137213255D01*
X91238108Y-137206394D01*
X91252502Y-137199059D01*
X91266409Y-137191256D01*
X91279922Y-137182992D01*
X91293040Y-137174266D01*
X91305762Y-137165079D01*
X91318090Y-137155429D01*
X91330022Y-137145318D01*
X91341560Y-137134745D01*
X91352703Y-137123710D01*
X91363450Y-137112213D01*
X91373803Y-137100255D01*
X91383761Y-137087835D01*
X91393323Y-137074953D01*
X91402491Y-137061609D01*
X91411264Y-137047804D01*
X91419641Y-137033537D01*
X91427624Y-137018808D01*
X91435136Y-137003680D01*
X91442164Y-136988277D01*
X91448707Y-136972600D01*
X91454766Y-136956648D01*
X91460339Y-136940421D01*
X91465428Y-136923919D01*
X91470033Y-136907143D01*
X91474152Y-136890092D01*
X91477787Y-136872766D01*
X91480938Y-136855165D01*
X91483603Y-136837289D01*
X91485784Y-136819139D01*
X91487481Y-136800714D01*
X91488692Y-136782014D01*
X91489419Y-136763040D01*
X91489662Y-136743790D01*
X91489595Y-136733619D01*
X91489397Y-136723532D01*
X91489065Y-136713529D01*
X91488601Y-136703608D01*
X91488004Y-136693772D01*
X91487275Y-136684018D01*
X91485418Y-136664762D01*
X91483031Y-136645840D01*
X91480113Y-136627252D01*
X91476665Y-136608998D01*
X91472687Y-136591077D01*
X91468178Y-136573491D01*
X91463139Y-136556238D01*
X91457569Y-136539320D01*
X91451468Y-136522735D01*
X91444837Y-136506484D01*
X91437676Y-136490568D01*
X91429984Y-136474985D01*
X91421762Y-136459736D01*
X91412998Y-136444851D01*
X91403742Y-136430423D01*
X91393993Y-136416450D01*
X91383752Y-136402934D01*
X91373019Y-136389874D01*
X91361793Y-136377269D01*
X91350075Y-136365121D01*
X91337865Y-136353429D01*
X91325162Y-136342193D01*
X91311967Y-136331413D01*
X91298280Y-136321089D01*
X91284101Y-136311221D01*
X91269429Y-136301809D01*
X91254265Y-136292853D01*
X91238609Y-136284353D01*
X91222460Y-136276309D01*
X91209391Y-136270453D01*
X91195769Y-136264975D01*
X91181593Y-136259874D01*
X91166864Y-136255152D01*
X91151582Y-136250807D01*
X91135746Y-136246840D01*
X91119357Y-136243251D01*
X91102415Y-136240039D01*
X91084919Y-136237206D01*
X91066870Y-136234750D01*
X91048267Y-136232672D01*
X91029111Y-136230972D01*
X91019326Y-136230263D01*
X91009402Y-136229649D01*
X90999340Y-136229130D01*
X90989139Y-136228705D01*
X90978801Y-136228374D01*
X90968323Y-136228138D01*
X90957708Y-136227996D01*
X90946954Y-136227949D01*
X90936610Y-136227980D01*
X90926430Y-136228071D01*
X90916414Y-136228224D01*
X90906562Y-136228438D01*
X90887351Y-136229048D01*
X90868796Y-136229903D01*
X90850898Y-136231002D01*
X90833656Y-136232346D01*
X90817070Y-136233933D01*
X90801141Y-136235765D01*
X90785868Y-136237841D01*
X90771252Y-136240161D01*
X90757292Y-136242726D01*
X90743988Y-136245535D01*
X90731341Y-136248588D01*
X90719350Y-136251885D01*
X90708016Y-136255427D01*
X90697338Y-136259212D01*
X90687099Y-136263225D01*
X90677081Y-136267509D01*
X90667285Y-136272064D01*
X90657710Y-136276889D01*
X90648356Y-136281986D01*
X90639223Y-136287354D01*
X90630312Y-136292992D01*
X90621623Y-136298902D01*
X90613154Y-136305082D01*
X90604907Y-136311534D01*
X90596882Y-136318256D01*
X90589077Y-136325250D01*
X90581494Y-136332514D01*
X90574133Y-136340049D01*
X90566992Y-136347855D01*
X90560073Y-136355933D01*
X90553341Y-136364252D01*
X90546819Y-136372846D01*
X90540510Y-136381715D01*
X90534413Y-136390859D01*
X90528527Y-136400278D01*
X90522853Y-136409971D01*
X90517391Y-136419939D01*
X90512141Y-136430182D01*
X90507102Y-136440700D01*
X90502276Y-136451493D01*
X90497661Y-136462560D01*
X90493258Y-136473902D01*
X90489067Y-136485519D01*
X90485087Y-136497410D01*
X90481319Y-136509577D01*
X90477764Y-136522018D01*
X90777938Y-136571843D01*
X90781646Y-136562125D01*
X90785809Y-136552844D01*
X90790427Y-136544001D01*
X90795501Y-136535596D01*
X90802973Y-136525071D01*
X90811254Y-136515324D01*
X90820345Y-136506356D01*
X90830244Y-136498166D01*
X90840953Y-136490755D01*
X90849456Y-136485691D01*
X90858389Y-136481126D01*
X90867752Y-136477059D01*
X90877543Y-136473490D01*
X90887764Y-136470418D01*
X90898415Y-136467845D01*
X90909494Y-136465770D01*
X90921003Y-136464193D01*
X90932942Y-136463114D01*
X90945309Y-136462533D01*
X90953793Y-136462422D01*
X90966423Y-136462683D01*
X90978729Y-136463464D01*
X90990710Y-136464767D01*
X91002367Y-136466590D01*
X91013699Y-136468934D01*
X91024707Y-136471799D01*
X91035391Y-136475185D01*
X91045750Y-136479092D01*
X91055785Y-136483520D01*
X91065496Y-136488469D01*
X91074882Y-136493938D01*
X91083944Y-136499929D01*
X91092681Y-136506440D01*
X91101094Y-136513473D01*
X91109183Y-136521026D01*
X91116947Y-136529101D01*
X91124312Y-136537739D01*
X91131201Y-136546984D01*
X91137615Y-136556836D01*
X91143554Y-136567294D01*
X91149018Y-136578360D01*
X91154007Y-136590032D01*
X91158521Y-136602311D01*
X91162560Y-136615196D01*
X91166123Y-136628689D01*
X91169211Y-136642788D01*
X91171825Y-136657494D01*
X91173963Y-136672807D01*
X91175626Y-136688727D01*
X91176813Y-136705253D01*
X91177526Y-136722386D01*
X91177764Y-136740127D01*
X91177523Y-136758987D01*
X91176802Y-136777160D01*
X91175600Y-136794646D01*
X91173917Y-136811445D01*
X91171753Y-136827558D01*
X91169108Y-136842983D01*
X91165983Y-136857722D01*
X91162376Y-136871773D01*
X91158289Y-136885138D01*
X91153721Y-136897816D01*
X91148672Y-136909807D01*
X91143142Y-136921110D01*
X91137132Y-136931727D01*
X91130640Y-136941657D01*
X91123668Y-136950900D01*
X91116214Y-136959457D01*
X91108332Y-136967413D01*
X91100072Y-136974855D01*
X91091433Y-136981785D01*
X91082417Y-136988201D01*
X91073024Y-136994104D01*
X91063252Y-136999493D01*
X91053102Y-137004370D01*
X91042575Y-137008733D01*
X91031670Y-137012582D01*
X91020387Y-137015919D01*
X91008727Y-137018742D01*
X90996688Y-137021052D01*
X90984272Y-137022848D01*
X90971478Y-137024131D01*
X90958306Y-137024901D01*
X90944756Y-137025158D01*
X90931823Y-137024998D01*
X90919034Y-137024517D01*
X90906391Y-137023715D01*
X90893892Y-137022593D01*
X90881539Y-137021151D01*
X90869331Y-137019388D01*
X90857267Y-137017304D01*
X90845349Y-137014900D01*
X90833232Y-137012110D01*
X90820696Y-137008870D01*
X90811018Y-137006144D01*
X90801104Y-137003166D01*
X90790954Y-136999933D01*
X90780568Y-136996448D01*
X90769945Y-136992709D01*
X90759087Y-136988717D01*
X90747992Y-136984472D01*
X90736661Y-136979973D01*
X90736661Y-136915737D01*
X90944756Y-136915737D01*
G37*
G36*
X89535475Y-137244000D02*
G01*
X89796570Y-137244000D01*
X89796570Y-137125053D01*
X89803871Y-137133988D01*
X89811179Y-137142597D01*
X89818495Y-137150879D01*
X89825818Y-137158835D01*
X89833150Y-137166465D01*
X89840488Y-137173768D01*
X89847835Y-137180745D01*
X89855189Y-137187396D01*
X89866234Y-137196761D01*
X89877296Y-137205391D01*
X89888376Y-137213287D01*
X89899473Y-137220449D01*
X89910587Y-137226877D01*
X89914295Y-137228856D01*
X89925664Y-137234356D01*
X89937514Y-137239315D01*
X89949844Y-137243733D01*
X89962655Y-137247610D01*
X89975948Y-137250946D01*
X89989721Y-137253741D01*
X90003974Y-137255995D01*
X90013744Y-137257197D01*
X90023728Y-137258158D01*
X90033925Y-137258880D01*
X90044336Y-137259361D01*
X90054960Y-137259601D01*
X90060353Y-137259631D01*
X90074569Y-137259360D01*
X90088399Y-137258547D01*
X90101840Y-137257192D01*
X90114895Y-137255296D01*
X90127562Y-137252857D01*
X90139842Y-137249877D01*
X90151735Y-137246354D01*
X90163240Y-137242290D01*
X90174358Y-137237684D01*
X90185088Y-137232535D01*
X90195431Y-137226845D01*
X90205387Y-137220613D01*
X90214955Y-137213839D01*
X90224137Y-137206523D01*
X90232930Y-137198666D01*
X90241337Y-137190266D01*
X90249263Y-137181273D01*
X90256678Y-137171696D01*
X90263582Y-137161535D01*
X90269974Y-137150790D01*
X90275855Y-137139462D01*
X90281224Y-137127549D01*
X90286083Y-137115053D01*
X90290429Y-137101972D01*
X90294265Y-137088308D01*
X90297589Y-137074060D01*
X90300401Y-137059228D01*
X90302703Y-137043812D01*
X90304492Y-137027812D01*
X90305771Y-137011228D01*
X90306538Y-136994061D01*
X90306794Y-136976309D01*
X90306794Y-136509317D01*
X90025914Y-136509317D01*
X90025914Y-136913539D01*
X90025691Y-136926147D01*
X90025021Y-136938051D01*
X90023905Y-136949251D01*
X90022342Y-136959747D01*
X90020333Y-136969538D01*
X90016959Y-136981499D01*
X90012792Y-136992207D01*
X90007831Y-137001664D01*
X90002076Y-137009869D01*
X90000513Y-137011725D01*
X89992074Y-137020098D01*
X89982634Y-137027052D01*
X89972191Y-137032587D01*
X89960747Y-137036702D01*
X89950871Y-137038973D01*
X89940353Y-137040335D01*
X89929194Y-137040789D01*
X89916906Y-137040186D01*
X89905197Y-137038378D01*
X89894069Y-137035363D01*
X89883521Y-137031142D01*
X89873553Y-137025715D01*
X89864165Y-137019082D01*
X89855357Y-137011244D01*
X89847129Y-137002199D01*
X89839630Y-136991529D01*
X89834661Y-136982264D01*
X89830256Y-136971917D01*
X89826413Y-136960488D01*
X89823132Y-136947977D01*
X89820413Y-136934384D01*
X89818914Y-136924722D01*
X89817664Y-136914578D01*
X89816664Y-136903953D01*
X89815914Y-136892848D01*
X89815414Y-136881262D01*
X89815164Y-136869195D01*
X89815133Y-136862981D01*
X89815133Y-136509317D01*
X89535475Y-136509317D01*
X89535475Y-137244000D01*
G37*
G36*
X89016172Y-136493736D02*
G01*
X89030607Y-136494002D01*
X89044852Y-136494495D01*
X89058908Y-136495215D01*
X89072776Y-136496163D01*
X89086454Y-136497339D01*
X89099944Y-136498742D01*
X89113245Y-136500373D01*
X89126357Y-136502231D01*
X89139279Y-136504317D01*
X89152013Y-136506630D01*
X89160326Y-136508291D01*
X89172370Y-136510944D01*
X89183902Y-136513790D01*
X89194924Y-136516829D01*
X89205435Y-136520061D01*
X89215435Y-136523486D01*
X89224924Y-136527105D01*
X89236781Y-136532230D01*
X89247730Y-136537699D01*
X89257771Y-136543511D01*
X89264389Y-136547650D01*
X89273948Y-136554037D01*
X89283065Y-136560639D01*
X89291740Y-136567455D01*
X89299972Y-136574486D01*
X89307762Y-136581732D01*
X89315110Y-136589192D01*
X89322016Y-136596867D01*
X89328480Y-136604757D01*
X89334501Y-136612861D01*
X89340080Y-136621180D01*
X89345277Y-136629853D01*
X89350241Y-136639109D01*
X89354974Y-136648950D01*
X89359475Y-136659374D01*
X89363744Y-136670382D01*
X89367781Y-136681974D01*
X89371586Y-136694150D01*
X89375160Y-136706909D01*
X89378501Y-136720253D01*
X89381611Y-136734181D01*
X89383556Y-136743790D01*
X89116354Y-136775053D01*
X89115306Y-136771880D01*
X89110919Y-136759824D01*
X89106220Y-136748791D01*
X89101207Y-136738781D01*
X89095881Y-136729793D01*
X89088784Y-136719997D01*
X89081198Y-136711800D01*
X89073123Y-136705200D01*
X89068685Y-136702301D01*
X89059007Y-136697065D01*
X89048260Y-136692577D01*
X89036445Y-136688837D01*
X89026882Y-136686523D01*
X89016718Y-136684630D01*
X89005953Y-136683157D01*
X88994587Y-136682105D01*
X88982621Y-136681474D01*
X88970053Y-136681264D01*
X88957127Y-136681592D01*
X88945216Y-136682577D01*
X88934321Y-136684218D01*
X88924440Y-136686515D01*
X88913517Y-136690310D01*
X88904180Y-136695130D01*
X88895070Y-136702269D01*
X88887849Y-136711153D01*
X88882972Y-136720236D01*
X88879133Y-136730845D01*
X88876809Y-136740432D01*
X88875149Y-136750995D01*
X88874153Y-136762536D01*
X88873821Y-136775053D01*
X88877082Y-136776282D01*
X88886800Y-136779881D01*
X88896419Y-136783346D01*
X88905940Y-136786679D01*
X88915361Y-136789878D01*
X88924684Y-136792944D01*
X88936961Y-136796825D01*
X88949063Y-136800470D01*
X88960989Y-136803878D01*
X88972739Y-136807049D01*
X88982459Y-136809500D01*
X88994123Y-136812273D01*
X89007732Y-136815367D01*
X89017885Y-136817609D01*
X89028903Y-136819995D01*
X89040785Y-136822523D01*
X89053531Y-136825194D01*
X89067142Y-136828009D01*
X89081617Y-136830966D01*
X89096957Y-136834067D01*
X89113161Y-136837311D01*
X89130229Y-136840698D01*
X89148162Y-136844228D01*
X89166959Y-136847901D01*
X89176682Y-136849792D01*
X89192784Y-136853039D01*
X89208239Y-136856493D01*
X89223047Y-136860153D01*
X89237208Y-136864019D01*
X89250723Y-136868091D01*
X89263590Y-136872369D01*
X89275811Y-136876853D01*
X89287385Y-136881543D01*
X89298312Y-136886439D01*
X89308592Y-136891542D01*
X89318225Y-136896850D01*
X89327212Y-136902365D01*
X89335551Y-136908085D01*
X89346848Y-136917053D01*
X89356689Y-136926484D01*
X89365419Y-136936396D01*
X89373290Y-136946806D01*
X89380302Y-136957713D01*
X89386456Y-136969119D01*
X89391751Y-136981023D01*
X89396188Y-136993425D01*
X89399765Y-137006325D01*
X89402484Y-137019724D01*
X89404345Y-137033620D01*
X89405347Y-137048014D01*
X89405538Y-137057886D01*
X89405273Y-137068465D01*
X89404480Y-137078830D01*
X89403159Y-137088982D01*
X89401309Y-137098919D01*
X89398931Y-137108643D01*
X89396024Y-137118153D01*
X89392588Y-137127450D01*
X89388624Y-137136533D01*
X89384131Y-137145402D01*
X89379110Y-137154057D01*
X89373560Y-137162499D01*
X89367481Y-137170727D01*
X89360874Y-137178741D01*
X89353739Y-137186541D01*
X89346075Y-137194128D01*
X89337882Y-137201501D01*
X89329179Y-137208540D01*
X89319984Y-137215125D01*
X89310296Y-137221256D01*
X89300116Y-137226933D01*
X89289444Y-137232156D01*
X89278279Y-137236924D01*
X89266623Y-137241238D01*
X89254473Y-137245099D01*
X89241832Y-137248505D01*
X89228698Y-137251457D01*
X89215072Y-137253954D01*
X89200954Y-137255998D01*
X89186343Y-137257587D01*
X89171240Y-137258723D01*
X89155645Y-137259404D01*
X89139557Y-137259631D01*
X89127377Y-137259513D01*
X89115385Y-137259158D01*
X89103579Y-137258566D01*
X89091960Y-137257738D01*
X89080529Y-137256673D01*
X89069284Y-137255372D01*
X89058226Y-137253834D01*
X89047355Y-137252060D01*
X89036672Y-137250048D01*
X89026175Y-137247801D01*
X89015865Y-137245316D01*
X89005743Y-137242595D01*
X88995807Y-137239637D01*
X88986058Y-137236443D01*
X88976496Y-137233012D01*
X88967122Y-137229345D01*
X88960341Y-137226358D01*
X88950159Y-137221437D01*
X88939965Y-137215988D01*
X88929757Y-137210011D01*
X88919537Y-137203506D01*
X88909304Y-137196473D01*
X88899058Y-137188911D01*
X88888799Y-137180822D01*
X88878527Y-137172205D01*
X88868243Y-137163059D01*
X88857945Y-137153385D01*
X88857031Y-137159236D01*
X88855217Y-137170050D01*
X88853419Y-137179678D01*
X88851049Y-137190673D01*
X88848420Y-137200524D01*
X88846201Y-137206592D01*
X88842042Y-137216179D01*
X88837275Y-137225969D01*
X88832352Y-137235403D01*
X88827659Y-137244000D01*
X88565342Y-137244000D01*
X88566701Y-137241161D01*
X88571836Y-137230126D01*
X88576490Y-137219603D01*
X88580663Y-137209591D01*
X88584355Y-137200090D01*
X88588294Y-137188933D01*
X88591482Y-137178576D01*
X88593919Y-137169017D01*
X88594688Y-137165266D01*
X88596393Y-137155119D01*
X88597788Y-137143875D01*
X88598681Y-137134090D01*
X88599376Y-137123603D01*
X88599872Y-137112414D01*
X88600170Y-137100522D01*
X88600269Y-137087928D01*
X88600269Y-136915737D01*
X88873821Y-136915737D01*
X88873821Y-136956037D01*
X88873837Y-136958981D01*
X88874232Y-136970409D01*
X88875154Y-136981280D01*
X88876602Y-136991593D01*
X88878577Y-137001350D01*
X88881786Y-137012762D01*
X88885819Y-137023303D01*
X88890674Y-137032974D01*
X88896513Y-137041918D01*
X88903496Y-137050433D01*
X88911625Y-137058519D01*
X88920899Y-137066175D01*
X88929142Y-137071991D01*
X88938118Y-137077533D01*
X88947826Y-137082799D01*
X88957943Y-137087608D01*
X88968267Y-137091775D01*
X88978796Y-137095301D01*
X88989531Y-137098187D01*
X89000472Y-137100431D01*
X89011620Y-137102033D01*
X89022973Y-137102995D01*
X89034533Y-137103316D01*
X89040035Y-137103242D01*
X89050530Y-137102654D01*
X89062693Y-137101093D01*
X89073795Y-137098614D01*
X89083835Y-137095216D01*
X89092814Y-137090900D01*
X89102188Y-137084509D01*
X89104968Y-137082086D01*
X89112232Y-137074312D01*
X89117882Y-137065782D01*
X89121918Y-137056497D01*
X89124340Y-137046457D01*
X89125147Y-137035660D01*
X89124025Y-137024496D01*
X89120659Y-137013868D01*
X89115988Y-137005187D01*
X89109668Y-136996901D01*
X89101699Y-136989010D01*
X89093145Y-136982810D01*
X89084095Y-136977824D01*
X89073083Y-136972815D01*
X89063536Y-136969043D01*
X89052887Y-136965259D01*
X89041134Y-136961461D01*
X89028278Y-136957651D01*
X89014318Y-136953828D01*
X89004398Y-136951272D01*
X88993988Y-136948710D01*
X88986192Y-136946892D01*
X88974568Y-136944105D01*
X88963031Y-136941245D01*
X88951579Y-136938312D01*
X88940213Y-136935306D01*
X88928933Y-136932227D01*
X88917739Y-136929075D01*
X88906630Y-136925850D01*
X88895608Y-136922552D01*
X88884672Y-136919181D01*
X88873821Y-136915737D01*
X88600269Y-136915737D01*
X88600269Y-136763818D01*
X88600350Y-136757326D01*
X88600776Y-136747512D01*
X88601566Y-136737608D01*
X88602722Y-136727614D01*
X88604243Y-136717529D01*
X88606128Y-136707355D01*
X88608378Y-136697090D01*
X88610994Y-136686735D01*
X88613974Y-136676290D01*
X88617319Y-136665755D01*
X88621030Y-136655130D01*
X88622327Y-136651583D01*
X88626395Y-136641250D01*
X88630730Y-136631376D01*
X88635331Y-136621962D01*
X88640198Y-136613006D01*
X88645332Y-136604511D01*
X88652590Y-136593898D01*
X88660322Y-136584101D01*
X88668527Y-136575121D01*
X88677205Y-136566958D01*
X88683656Y-136561461D01*
X88693707Y-136553666D01*
X88704209Y-136546411D01*
X88715162Y-136539698D01*
X88726566Y-136533526D01*
X88738421Y-136527894D01*
X88750726Y-136522804D01*
X88763482Y-136518254D01*
X88776689Y-136514246D01*
X88790347Y-136510778D01*
X88804456Y-136507852D01*
X88814175Y-136506136D01*
X88824282Y-136504531D01*
X88834775Y-136503037D01*
X88845657Y-136501654D01*
X88856925Y-136500381D01*
X88868581Y-136499219D01*
X88880624Y-136498168D01*
X88893055Y-136497227D01*
X88905873Y-136496397D01*
X88919078Y-136495678D01*
X88932671Y-136495069D01*
X88946651Y-136494571D01*
X88961018Y-136494183D01*
X88975773Y-136493907D01*
X88990915Y-136493741D01*
X89006445Y-136493685D01*
X89016172Y-136493736D01*
G37*
G36*
X88435405Y-136509317D02*
G01*
X88173577Y-136509317D01*
X88173577Y-136630461D01*
X88168836Y-136620883D01*
X88164078Y-136611685D01*
X88159303Y-136602870D01*
X88152108Y-136590362D01*
X88144874Y-136578713D01*
X88137602Y-136567922D01*
X88130291Y-136557990D01*
X88122942Y-136548917D01*
X88115554Y-136540702D01*
X88108127Y-136533346D01*
X88100662Y-136526849D01*
X88095663Y-136522995D01*
X88085352Y-136516125D01*
X88074445Y-136510172D01*
X88062942Y-136505134D01*
X88050845Y-136501013D01*
X88041381Y-136498523D01*
X88031582Y-136496548D01*
X88021448Y-136495088D01*
X88010980Y-136494143D01*
X88000176Y-136493714D01*
X87996501Y-136493685D01*
X87984811Y-136494018D01*
X87972916Y-136495016D01*
X87960814Y-136496680D01*
X87948507Y-136499009D01*
X87935993Y-136502004D01*
X87923273Y-136505664D01*
X87910348Y-136509989D01*
X87897216Y-136514980D01*
X87883878Y-136520637D01*
X87874871Y-136524778D01*
X87865773Y-136529214D01*
X87861190Y-136531543D01*
X87947652Y-136733288D01*
X87956722Y-136729578D01*
X87968255Y-136725198D01*
X87979147Y-136721468D01*
X87989397Y-136718386D01*
X87999007Y-136715953D01*
X88010117Y-136713825D01*
X88020225Y-136712710D01*
X88025810Y-136712527D01*
X88035897Y-136712928D01*
X88048672Y-136714713D01*
X88060676Y-136717924D01*
X88071909Y-136722563D01*
X88082372Y-136728629D01*
X88092063Y-136736122D01*
X88100984Y-136745043D01*
X88107168Y-136752670D01*
X88111050Y-136758200D01*
X88116285Y-136766637D01*
X88121183Y-136775950D01*
X88125742Y-136786139D01*
X88129964Y-136797203D01*
X88133848Y-136809143D01*
X88137394Y-136821959D01*
X88140603Y-136835651D01*
X88143474Y-136850219D01*
X88146007Y-136865663D01*
X88148202Y-136881982D01*
X88150060Y-136899177D01*
X88151579Y-136917248D01*
X88152762Y-136936195D01*
X88153226Y-136945997D01*
X88153606Y-136956018D01*
X88153901Y-136966258D01*
X88154113Y-136976717D01*
X88154239Y-136987394D01*
X88154281Y-136998291D01*
X88154281Y-137244000D01*
X88435405Y-137244000D01*
X88435405Y-136509317D01*
G37*
G36*
X87296989Y-136572576D02*
G01*
X87302195Y-136567708D01*
X87310180Y-136560700D01*
X87318376Y-136554044D01*
X87326781Y-136547740D01*
X87335397Y-136541788D01*
X87344224Y-136536188D01*
X87353260Y-136530940D01*
X87362507Y-136526044D01*
X87371965Y-136521501D01*
X87381633Y-136517309D01*
X87391511Y-136513469D01*
X87398185Y-136511073D01*
X87408378Y-136507770D01*
X87418790Y-136504814D01*
X87429421Y-136502206D01*
X87440271Y-136499945D01*
X87451340Y-136498032D01*
X87462628Y-136496468D01*
X87474135Y-136495250D01*
X87485860Y-136494381D01*
X87497805Y-136493859D01*
X87509969Y-136493685D01*
X87526516Y-136494063D01*
X87542697Y-136495197D01*
X87558512Y-136497086D01*
X87573960Y-136499730D01*
X87589042Y-136503131D01*
X87603758Y-136507287D01*
X87618107Y-136512198D01*
X87632090Y-136517866D01*
X87645707Y-136524288D01*
X87658957Y-136531467D01*
X87671841Y-136539401D01*
X87684358Y-136548091D01*
X87696509Y-136557536D01*
X87708294Y-136567737D01*
X87719712Y-136578693D01*
X87730764Y-136590406D01*
X87736099Y-136596519D01*
X87746260Y-136609248D01*
X87755743Y-136622647D01*
X87764549Y-136636716D01*
X87772678Y-136651455D01*
X87780129Y-136666863D01*
X87786903Y-136682941D01*
X87793000Y-136699689D01*
X87798419Y-136717106D01*
X87803161Y-136735194D01*
X87807225Y-136753951D01*
X87809003Y-136763580D01*
X87810612Y-136773378D01*
X87812051Y-136783342D01*
X87813322Y-136793474D01*
X87814422Y-136803774D01*
X87815354Y-136814241D01*
X87816116Y-136824875D01*
X87816708Y-136835677D01*
X87817132Y-136846646D01*
X87817386Y-136857783D01*
X87817471Y-136869087D01*
X87817394Y-136879221D01*
X87817163Y-136889259D01*
X87816779Y-136899201D01*
X87816242Y-136909047D01*
X87814706Y-136928452D01*
X87812555Y-136947473D01*
X87809790Y-136966111D01*
X87806411Y-136984366D01*
X87802417Y-137002236D01*
X87797809Y-137019724D01*
X87792586Y-137036827D01*
X87786749Y-137053547D01*
X87780298Y-137069884D01*
X87773232Y-137085837D01*
X87765552Y-137101407D01*
X87757257Y-137116593D01*
X87748348Y-137131395D01*
X87738824Y-137145814D01*
X87728719Y-137159596D01*
X87718064Y-137172490D01*
X87706859Y-137184494D01*
X87695105Y-137195609D01*
X87682801Y-137205835D01*
X87669948Y-137215171D01*
X87656545Y-137223619D01*
X87642593Y-137231177D01*
X87628091Y-137237846D01*
X87613039Y-137243626D01*
X87597438Y-137248516D01*
X87581288Y-137252517D01*
X87564588Y-137255630D01*
X87547338Y-137257853D01*
X87529539Y-137259186D01*
X87511190Y-137259631D01*
X87501963Y-137259518D01*
X87488327Y-137258921D01*
X87474935Y-137257814D01*
X87461788Y-137256197D01*
X87448886Y-137254068D01*
X87436229Y-137251428D01*
X87423816Y-137248278D01*
X87411648Y-137244616D01*
X87399725Y-137240444D01*
X87388046Y-137235760D01*
X87376612Y-137230566D01*
X87373764Y-137229152D01*
X87365106Y-137224430D01*
X87356281Y-137218986D01*
X87347289Y-137212820D01*
X87338129Y-137205934D01*
X87328802Y-137198326D01*
X87319307Y-137189997D01*
X87309645Y-137180947D01*
X87299815Y-137171175D01*
X87289818Y-137160682D01*
X87283061Y-137153286D01*
X87276228Y-137145570D01*
X87276228Y-137244000D01*
X87014644Y-137244000D01*
X87014644Y-136872018D01*
X87294791Y-136872018D01*
X87294826Y-136878600D01*
X87295106Y-136891417D01*
X87295667Y-136903770D01*
X87296509Y-136915660D01*
X87297631Y-136927086D01*
X87299033Y-136938048D01*
X87300716Y-136948547D01*
X87302680Y-136958582D01*
X87304924Y-136968153D01*
X87308816Y-136981641D01*
X87313339Y-136994085D01*
X87318493Y-137005486D01*
X87324278Y-137015844D01*
X87330695Y-137025158D01*
X87337537Y-137033538D01*
X87344694Y-137041095D01*
X87352163Y-137047827D01*
X87362610Y-137055520D01*
X87373615Y-137061749D01*
X87385176Y-137066511D01*
X87397295Y-137069809D01*
X87409971Y-137071640D01*
X87419843Y-137072053D01*
X87426040Y-137071871D01*
X87438061Y-137070421D01*
X87449586Y-137067521D01*
X87460616Y-137063170D01*
X87471148Y-137057369D01*
X87481185Y-137050118D01*
X87490726Y-137041417D01*
X87497556Y-137033940D01*
X87504107Y-137025646D01*
X87510174Y-137016429D01*
X87515645Y-137006272D01*
X87520518Y-136995174D01*
X87524795Y-136983137D01*
X87528475Y-136970159D01*
X87531559Y-136956240D01*
X87533283Y-136946439D01*
X87534741Y-136936220D01*
X87535935Y-136925583D01*
X87536863Y-136914528D01*
X87537526Y-136903056D01*
X87537924Y-136891165D01*
X87538057Y-136878856D01*
X87537928Y-136865754D01*
X87537542Y-136853131D01*
X87536898Y-136840986D01*
X87535996Y-136829321D01*
X87534837Y-136818134D01*
X87533420Y-136807427D01*
X87531746Y-136797198D01*
X87528751Y-136782753D01*
X87525177Y-136769386D01*
X87521023Y-136757096D01*
X87516290Y-136745884D01*
X87510977Y-136735750D01*
X87505084Y-136726693D01*
X87503008Y-136723898D01*
X87496593Y-136716046D01*
X87487605Y-136706818D01*
X87478122Y-136699010D01*
X87468142Y-136692621D01*
X87457666Y-136687652D01*
X87446695Y-136684103D01*
X87435227Y-136681974D01*
X87423263Y-136681264D01*
X87412991Y-136681680D01*
X87403058Y-136682930D01*
X87393465Y-136685012D01*
X87381201Y-136689084D01*
X87369540Y-136694637D01*
X87361191Y-136699773D01*
X87353180Y-136705742D01*
X87345508Y-136712544D01*
X87338176Y-136720179D01*
X87331183Y-136728647D01*
X87326776Y-136734731D01*
X87320699Y-136744577D01*
X87315261Y-136755285D01*
X87310464Y-136766856D01*
X87306306Y-136779290D01*
X87302787Y-136792587D01*
X87299908Y-136806748D01*
X87298345Y-136816667D01*
X87297065Y-136826970D01*
X87296070Y-136837657D01*
X87295359Y-136848727D01*
X87294933Y-136860180D01*
X87294791Y-136872018D01*
X87014644Y-136872018D01*
X87014644Y-136243581D01*
X87296989Y-136243581D01*
X87296989Y-136572576D01*
G37*
G36*
X86839278Y-136243581D02*
G01*
X86559620Y-136243581D01*
X86559620Y-136431159D01*
X86839278Y-136431159D01*
X86839278Y-136243581D01*
G37*
G36*
X86839278Y-136509317D02*
G01*
X86559620Y-136509317D01*
X86559620Y-137244000D01*
X86839278Y-137244000D01*
X86839278Y-136509317D01*
G37*
G36*
X86028594Y-136493736D02*
G01*
X86043028Y-136494002D01*
X86057273Y-136494495D01*
X86071330Y-136495215D01*
X86085197Y-136496163D01*
X86098876Y-136497339D01*
X86112365Y-136498742D01*
X86125666Y-136500373D01*
X86138778Y-136502231D01*
X86151701Y-136504317D01*
X86164435Y-136506630D01*
X86172748Y-136508291D01*
X86184791Y-136510944D01*
X86196324Y-136513790D01*
X86207346Y-136516829D01*
X86217856Y-136520061D01*
X86227856Y-136523486D01*
X86237345Y-136527105D01*
X86249202Y-136532230D01*
X86260151Y-136537699D01*
X86270192Y-136543511D01*
X86276811Y-136547650D01*
X86286370Y-136554037D01*
X86295487Y-136560639D01*
X86304161Y-136567455D01*
X86312394Y-136574486D01*
X86320184Y-136581732D01*
X86327532Y-136589192D01*
X86334438Y-136596867D01*
X86340901Y-136604757D01*
X86346923Y-136612861D01*
X86352502Y-136621180D01*
X86357698Y-136629853D01*
X86362663Y-136639109D01*
X86367396Y-136648950D01*
X86371896Y-136659374D01*
X86376165Y-136670382D01*
X86380203Y-136681974D01*
X86384008Y-136694150D01*
X86387581Y-136706909D01*
X86390923Y-136720253D01*
X86394033Y-136734181D01*
X86395977Y-136743790D01*
X86128775Y-136775053D01*
X86127728Y-136771880D01*
X86123341Y-136759824D01*
X86118641Y-136748791D01*
X86113628Y-136738781D01*
X86108303Y-136729793D01*
X86101206Y-136719997D01*
X86093620Y-136711800D01*
X86085545Y-136705200D01*
X86081106Y-136702301D01*
X86071428Y-136697065D01*
X86060681Y-136692577D01*
X86048866Y-136688837D01*
X86039303Y-136686523D01*
X86029140Y-136684630D01*
X86018375Y-136683157D01*
X86007009Y-136682105D01*
X85995042Y-136681474D01*
X85982474Y-136681264D01*
X85969548Y-136681592D01*
X85957638Y-136682577D01*
X85946742Y-136684218D01*
X85936862Y-136686515D01*
X85925939Y-136690310D01*
X85916602Y-136695130D01*
X85907491Y-136702269D01*
X85900270Y-136711153D01*
X85895394Y-136720236D01*
X85891555Y-136730845D01*
X85889231Y-136740432D01*
X85887570Y-136750995D01*
X85886574Y-136762536D01*
X85886242Y-136775053D01*
X85889504Y-136776282D01*
X85899222Y-136779881D01*
X85908841Y-136783346D01*
X85918361Y-136786679D01*
X85927783Y-136789878D01*
X85937106Y-136792944D01*
X85949383Y-136796825D01*
X85961484Y-136800470D01*
X85973410Y-136803878D01*
X85985161Y-136807049D01*
X85994880Y-136809500D01*
X86006544Y-136812273D01*
X86020153Y-136815367D01*
X86030307Y-136817609D01*
X86041324Y-136819995D01*
X86053206Y-136822523D01*
X86065953Y-136825194D01*
X86079564Y-136828009D01*
X86094039Y-136830966D01*
X86109378Y-136834067D01*
X86125582Y-136837311D01*
X86142651Y-136840698D01*
X86160584Y-136844228D01*
X86179381Y-136847901D01*
X86189103Y-136849792D01*
X86205205Y-136853039D01*
X86220660Y-136856493D01*
X86235469Y-136860153D01*
X86249630Y-136864019D01*
X86263144Y-136868091D01*
X86276012Y-136872369D01*
X86288233Y-136876853D01*
X86299807Y-136881543D01*
X86310734Y-136886439D01*
X86321014Y-136891542D01*
X86330647Y-136896850D01*
X86339633Y-136902365D01*
X86347973Y-136908085D01*
X86359269Y-136917053D01*
X86369110Y-136926484D01*
X86377840Y-136936396D01*
X86385711Y-136946806D01*
X86392724Y-136957713D01*
X86398878Y-136969119D01*
X86404173Y-136981023D01*
X86408609Y-136993425D01*
X86412187Y-137006325D01*
X86414906Y-137019724D01*
X86416766Y-137033620D01*
X86417768Y-137048014D01*
X86417959Y-137057886D01*
X86417695Y-137068465D01*
X86416902Y-137078830D01*
X86415581Y-137088982D01*
X86413731Y-137098919D01*
X86411352Y-137108643D01*
X86408445Y-137118153D01*
X86405009Y-137127450D01*
X86401045Y-137136533D01*
X86396552Y-137145402D01*
X86391531Y-137154057D01*
X86385981Y-137162499D01*
X86379903Y-137170727D01*
X86373296Y-137178741D01*
X86366160Y-137186541D01*
X86358496Y-137194128D01*
X86350304Y-137201501D01*
X86341601Y-137208540D01*
X86332405Y-137215125D01*
X86322718Y-137221256D01*
X86312538Y-137226933D01*
X86301865Y-137232156D01*
X86290701Y-137236924D01*
X86279044Y-137241238D01*
X86266895Y-137245099D01*
X86254253Y-137248505D01*
X86241120Y-137251457D01*
X86227493Y-137253954D01*
X86213375Y-137255998D01*
X86198764Y-137257587D01*
X86183661Y-137258723D01*
X86168066Y-137259404D01*
X86151979Y-137259631D01*
X86139799Y-137259513D01*
X86127806Y-137259158D01*
X86116000Y-137258566D01*
X86104382Y-137257738D01*
X86092950Y-137256673D01*
X86081705Y-137255372D01*
X86070648Y-137253834D01*
X86059777Y-137252060D01*
X86049093Y-137250048D01*
X86038596Y-137247801D01*
X86028287Y-137245316D01*
X86018164Y-137242595D01*
X86008228Y-137239637D01*
X85998480Y-137236443D01*
X85988918Y-137233012D01*
X85979543Y-137229345D01*
X85972763Y-137226358D01*
X85962581Y-137221437D01*
X85952386Y-137215988D01*
X85942179Y-137210011D01*
X85931959Y-137203506D01*
X85921726Y-137196473D01*
X85911480Y-137188911D01*
X85901221Y-137180822D01*
X85890949Y-137172205D01*
X85880664Y-137163059D01*
X85870367Y-137153385D01*
X85869453Y-137159236D01*
X85867638Y-137170050D01*
X85865841Y-137179678D01*
X85863471Y-137190673D01*
X85860841Y-137200524D01*
X85858623Y-137206592D01*
X85854463Y-137216179D01*
X85849696Y-137225969D01*
X85844773Y-137235403D01*
X85840080Y-137244000D01*
X85577764Y-137244000D01*
X85579122Y-137241161D01*
X85584257Y-137230126D01*
X85588911Y-137219603D01*
X85593084Y-137209591D01*
X85596777Y-137200090D01*
X85600716Y-137188933D01*
X85603904Y-137178576D01*
X85606340Y-137169017D01*
X85607109Y-137165266D01*
X85608814Y-137155119D01*
X85610210Y-137143875D01*
X85611103Y-137134090D01*
X85611797Y-137123603D01*
X85612293Y-137112414D01*
X85612591Y-137100522D01*
X85612690Y-137087928D01*
X85612690Y-136915737D01*
X85886242Y-136915737D01*
X85886242Y-136956037D01*
X85886259Y-136958981D01*
X85886654Y-136970409D01*
X85887575Y-136981280D01*
X85889024Y-136991593D01*
X85890999Y-137001350D01*
X85894208Y-137012762D01*
X85898240Y-137023303D01*
X85903095Y-137032974D01*
X85908934Y-137041918D01*
X85915918Y-137050433D01*
X85924047Y-137058519D01*
X85933320Y-137066175D01*
X85941563Y-137071991D01*
X85950539Y-137077533D01*
X85960248Y-137082799D01*
X85970365Y-137087608D01*
X85980688Y-137091775D01*
X85991217Y-137095301D01*
X86001952Y-137098187D01*
X86012894Y-137100431D01*
X86024041Y-137102033D01*
X86035395Y-137102995D01*
X86046954Y-137103316D01*
X86052456Y-137103242D01*
X86062951Y-137102654D01*
X86075114Y-137101093D01*
X86086216Y-137098614D01*
X86096257Y-137095216D01*
X86105236Y-137090900D01*
X86114609Y-137084509D01*
X86117390Y-137082086D01*
X86124654Y-137074312D01*
X86130304Y-137065782D01*
X86134340Y-137056497D01*
X86136761Y-137046457D01*
X86137568Y-137035660D01*
X86136446Y-137024496D01*
X86133080Y-137013868D01*
X86128409Y-137005187D01*
X86122089Y-136996901D01*
X86114121Y-136989010D01*
X86105566Y-136982810D01*
X86096516Y-136977824D01*
X86085504Y-136972815D01*
X86075958Y-136969043D01*
X86065308Y-136965259D01*
X86053555Y-136961461D01*
X86040699Y-136957651D01*
X86026739Y-136953828D01*
X86016820Y-136951272D01*
X86006410Y-136948710D01*
X85998613Y-136946892D01*
X85986990Y-136944105D01*
X85975452Y-136941245D01*
X85964000Y-136938312D01*
X85952634Y-136935306D01*
X85941354Y-136932227D01*
X85930160Y-136929075D01*
X85919052Y-136925850D01*
X85908030Y-136922552D01*
X85897093Y-136919181D01*
X85886242Y-136915737D01*
X85612690Y-136915737D01*
X85612690Y-136763818D01*
X85612771Y-136757326D01*
X85613197Y-136747512D01*
X85613988Y-136737608D01*
X85615144Y-136727614D01*
X85616664Y-136717529D01*
X85618550Y-136707355D01*
X85620800Y-136697090D01*
X85623415Y-136686735D01*
X85626396Y-136676290D01*
X85629741Y-136665755D01*
X85633451Y-136655130D01*
X85634748Y-136651583D01*
X85638817Y-136641250D01*
X85643152Y-136631376D01*
X85647753Y-136621962D01*
X85652620Y-136613006D01*
X85657753Y-136604511D01*
X85665012Y-136593898D01*
X85672744Y-136584101D01*
X85680949Y-136575121D01*
X85689627Y-136566958D01*
X85696077Y-136561461D01*
X85706129Y-136553666D01*
X85716631Y-136546411D01*
X85727584Y-136539698D01*
X85738988Y-136533526D01*
X85750842Y-136527894D01*
X85763148Y-136522804D01*
X85775904Y-136518254D01*
X85789111Y-136514246D01*
X85802769Y-136510778D01*
X85816877Y-136507852D01*
X85826597Y-136506136D01*
X85836703Y-136504531D01*
X85847197Y-136503037D01*
X85858078Y-136501654D01*
X85869347Y-136500381D01*
X85881003Y-136499219D01*
X85893046Y-136498168D01*
X85905476Y-136497227D01*
X85918294Y-136496397D01*
X85931500Y-136495678D01*
X85945092Y-136495069D01*
X85959073Y-136494571D01*
X85973440Y-136494183D01*
X85988195Y-136493907D01*
X86003337Y-136493741D01*
X86018866Y-136493685D01*
X86028594Y-136493736D01*
G37*
G36*
X85450513Y-136509317D02*
G01*
X85190150Y-136509317D01*
X85190150Y-136628508D01*
X85182849Y-136619602D01*
X85175538Y-136611021D01*
X85168217Y-136602765D01*
X85160887Y-136594833D01*
X85153547Y-136587225D01*
X85146198Y-136579941D01*
X85138839Y-136572982D01*
X85131471Y-136566348D01*
X85120401Y-136557004D01*
X85109309Y-136548390D01*
X85098195Y-136540506D01*
X85087061Y-136533352D01*
X85075904Y-136526928D01*
X85072181Y-136524949D01*
X85060731Y-136519362D01*
X85048822Y-136514324D01*
X85036454Y-136509836D01*
X85023626Y-136505898D01*
X85010339Y-136502509D01*
X84996593Y-136499669D01*
X84982387Y-136497380D01*
X84972661Y-136496158D01*
X84962731Y-136495181D01*
X84952597Y-136494449D01*
X84942258Y-136493960D01*
X84931716Y-136493716D01*
X84926368Y-136493685D01*
X84912064Y-136493957D01*
X84898154Y-136494773D01*
X84884640Y-136496133D01*
X84871520Y-136498036D01*
X84858796Y-136500483D01*
X84846466Y-136503474D01*
X84834532Y-136507009D01*
X84822992Y-136511088D01*
X84811848Y-136515710D01*
X84801098Y-136520877D01*
X84790744Y-136526587D01*
X84780784Y-136532841D01*
X84771219Y-136539638D01*
X84762050Y-136546980D01*
X84753275Y-136554865D01*
X84744896Y-136563295D01*
X84736940Y-136572261D01*
X84729497Y-136581819D01*
X84722567Y-136591968D01*
X84716151Y-136602709D01*
X84710248Y-136614042D01*
X84704859Y-136625966D01*
X84699983Y-136638481D01*
X84695620Y-136651588D01*
X84691770Y-136665287D01*
X84688433Y-136679577D01*
X84685610Y-136694459D01*
X84683301Y-136709932D01*
X84681504Y-136725997D01*
X84680221Y-136742653D01*
X84679451Y-136759901D01*
X84679194Y-136777740D01*
X84679194Y-137244000D01*
X84960073Y-137244000D01*
X84960073Y-136839289D01*
X84960297Y-136826642D01*
X84960966Y-136814711D01*
X84962083Y-136803498D01*
X84963646Y-136793001D01*
X84965655Y-136783222D01*
X84969028Y-136771298D01*
X84973196Y-136760648D01*
X84978157Y-136751274D01*
X84983912Y-136743174D01*
X84985475Y-136741348D01*
X84993914Y-136733045D01*
X85003354Y-136726149D01*
X85013796Y-136720661D01*
X85025241Y-136716580D01*
X85035117Y-136714328D01*
X85045635Y-136712977D01*
X85056794Y-136712527D01*
X85069197Y-136713134D01*
X85081004Y-136714954D01*
X85092216Y-136717988D01*
X85102833Y-136722236D01*
X85112855Y-136727697D01*
X85122281Y-136734372D01*
X85131112Y-136742260D01*
X85139348Y-136751362D01*
X85146732Y-136762032D01*
X85151625Y-136771297D01*
X85155963Y-136781644D01*
X85159747Y-136793073D01*
X85162978Y-136805584D01*
X85165655Y-136819176D01*
X85167132Y-136828839D01*
X85168363Y-136838983D01*
X85169347Y-136849607D01*
X85170086Y-136860713D01*
X85170578Y-136872299D01*
X85170824Y-136884366D01*
X85170855Y-136890580D01*
X85170855Y-137244000D01*
X85450513Y-137244000D01*
X85450513Y-136509317D01*
G37*
G36*
X84494791Y-137244000D02*
G01*
X84032439Y-137244000D01*
X84021983Y-137243893D01*
X84011377Y-137243572D01*
X84000620Y-137243038D01*
X83989712Y-137242290D01*
X83978653Y-137241328D01*
X83967444Y-137240153D01*
X83956084Y-137238764D01*
X83944573Y-137237161D01*
X83932911Y-137235344D01*
X83921099Y-137233314D01*
X83909136Y-137231070D01*
X83897022Y-137228612D01*
X83884757Y-137225941D01*
X83872342Y-137223056D01*
X83859776Y-137219957D01*
X83847059Y-137216644D01*
X83833085Y-137212585D01*
X83819284Y-137207826D01*
X83810178Y-137204264D01*
X83801149Y-137200392D01*
X83792196Y-137196208D01*
X83783319Y-137191713D01*
X83774519Y-137186908D01*
X83765795Y-137181791D01*
X83757147Y-137176363D01*
X83748576Y-137170625D01*
X83740080Y-137164575D01*
X83731662Y-137158214D01*
X83723319Y-137151542D01*
X83715053Y-137144559D01*
X83706863Y-137137265D01*
X83698823Y-137129675D01*
X83691007Y-137121863D01*
X83683413Y-137113830D01*
X83676043Y-137105575D01*
X83668896Y-137097099D01*
X83661972Y-137088402D01*
X83655272Y-137079483D01*
X83648795Y-137070343D01*
X83642541Y-137060981D01*
X83636510Y-137051399D01*
X83630703Y-137041595D01*
X83625118Y-137031569D01*
X83619757Y-137021323D01*
X83614620Y-137010854D01*
X83609705Y-137000165D01*
X83605014Y-136989254D01*
X83600548Y-136977921D01*
X83596370Y-136966024D01*
X83592480Y-136953565D01*
X83588879Y-136940543D01*
X83585565Y-136926958D01*
X83582540Y-136912810D01*
X83579803Y-136898099D01*
X83577354Y-136882825D01*
X83575193Y-136866989D01*
X83573320Y-136850589D01*
X83571735Y-136833627D01*
X83570439Y-136816101D01*
X83569430Y-136798013D01*
X83568710Y-136779362D01*
X83568278Y-136760148D01*
X83568170Y-136750330D01*
X83568157Y-136746721D01*
X83880764Y-136746721D01*
X83880856Y-136761063D01*
X83881131Y-136774901D01*
X83881589Y-136788235D01*
X83882230Y-136801065D01*
X83883054Y-136813392D01*
X83884062Y-136825215D01*
X83885252Y-136836534D01*
X83886626Y-136847349D01*
X83888183Y-136857661D01*
X83889923Y-136867469D01*
X83892877Y-136881236D01*
X83896243Y-136893870D01*
X83900021Y-136905370D01*
X83904212Y-136915737D01*
X83907183Y-136922119D01*
X83911904Y-136931237D01*
X83916943Y-136939810D01*
X83924156Y-136950393D01*
X83931933Y-136960006D01*
X83940276Y-136968650D01*
X83949183Y-136976325D01*
X83958655Y-136983030D01*
X83968692Y-136988766D01*
X83971326Y-136990043D01*
X83982962Y-136994747D01*
X83992841Y-136997849D01*
X84003708Y-137000586D01*
X84015562Y-137002958D01*
X84028403Y-137004965D01*
X84042232Y-137006607D01*
X84052000Y-137007499D01*
X84062206Y-137008229D01*
X84072852Y-137008797D01*
X84083936Y-137009202D01*
X84095460Y-137009445D01*
X84107422Y-137009526D01*
X84183625Y-137009526D01*
X84183625Y-136478054D01*
X84105956Y-136478054D01*
X84098467Y-136478110D01*
X84083893Y-136478556D01*
X84069856Y-136479449D01*
X84056358Y-136480789D01*
X84043398Y-136482575D01*
X84030976Y-136484807D01*
X84019092Y-136487486D01*
X84007746Y-136490612D01*
X83996939Y-136494184D01*
X83986669Y-136498203D01*
X83976937Y-136502668D01*
X83967744Y-136507579D01*
X83959089Y-136512937D01*
X83950971Y-136518742D01*
X83943392Y-136524993D01*
X83933032Y-136535207D01*
X83926703Y-136542702D01*
X83920782Y-136550960D01*
X83915269Y-136559982D01*
X83910165Y-136569767D01*
X83905469Y-136580315D01*
X83901182Y-136591627D01*
X83897302Y-136603702D01*
X83893831Y-136616540D01*
X83890769Y-136630141D01*
X83888115Y-136644505D01*
X83885869Y-136659633D01*
X83884031Y-136675524D01*
X83882602Y-136692179D01*
X83881581Y-136709596D01*
X83880969Y-136727777D01*
X83880764Y-136746721D01*
X83568157Y-136746721D01*
X83568133Y-136740371D01*
X83568230Y-136727621D01*
X83568519Y-136714958D01*
X83569001Y-136702380D01*
X83569675Y-136689889D01*
X83570543Y-136677483D01*
X83571602Y-136665163D01*
X83572855Y-136652929D01*
X83574301Y-136640781D01*
X83575939Y-136628718D01*
X83577770Y-136616742D01*
X83579793Y-136604851D01*
X83582010Y-136593047D01*
X83584419Y-136581328D01*
X83587020Y-136569695D01*
X83589815Y-136558147D01*
X83592802Y-136546686D01*
X83596004Y-136535326D01*
X83599442Y-136524143D01*
X83603117Y-136513138D01*
X83607029Y-136502310D01*
X83611177Y-136491660D01*
X83615562Y-136481187D01*
X83620184Y-136470892D01*
X83625042Y-136460774D01*
X83630137Y-136450833D01*
X83635468Y-136441070D01*
X83641036Y-136431485D01*
X83646841Y-136422077D01*
X83652882Y-136412846D01*
X83659160Y-136403793D01*
X83665674Y-136394917D01*
X83672425Y-136386219D01*
X83679409Y-136377734D01*
X83686622Y-136369499D01*
X83694064Y-136361515D01*
X83701734Y-136353780D01*
X83709634Y-136346295D01*
X83717763Y-136339061D01*
X83726120Y-136332076D01*
X83734707Y-136325341D01*
X83743523Y-136318856D01*
X83752567Y-136312621D01*
X83761841Y-136306636D01*
X83771344Y-136300902D01*
X83781075Y-136295417D01*
X83791036Y-136290182D01*
X83801225Y-136285197D01*
X83811644Y-136280461D01*
X83822381Y-136275995D01*
X83833526Y-136271818D01*
X83845080Y-136267928D01*
X83857042Y-136264326D01*
X83869413Y-136261013D01*
X83882192Y-136257987D01*
X83895379Y-136255250D01*
X83908974Y-136252801D01*
X83922978Y-136250640D01*
X83937391Y-136248767D01*
X83952211Y-136247182D01*
X83967440Y-136245886D01*
X83983077Y-136244877D01*
X83999123Y-136244157D01*
X84015577Y-136243725D01*
X84032439Y-136243581D01*
X84494791Y-136243581D01*
X84494791Y-137244000D01*
G37*
G36*
X83064027Y-136493789D02*
G01*
X83075842Y-136494100D01*
X83087495Y-136494619D01*
X83098985Y-136495346D01*
X83110312Y-136496279D01*
X83121477Y-136497421D01*
X83132479Y-136498769D01*
X83143319Y-136500326D01*
X83153996Y-136502090D01*
X83164510Y-136504061D01*
X83174861Y-136506240D01*
X83185050Y-136508626D01*
X83195076Y-136511220D01*
X83204940Y-136514022D01*
X83214640Y-136517030D01*
X83224178Y-136520247D01*
X83233554Y-136523671D01*
X83242767Y-136527302D01*
X83260704Y-136535188D01*
X83277991Y-136543903D01*
X83294627Y-136553449D01*
X83310613Y-136563824D01*
X83325948Y-136575030D01*
X83340632Y-136587065D01*
X83354665Y-136599931D01*
X83361397Y-136606636D01*
X83374220Y-136620430D01*
X83386188Y-136634737D01*
X83397301Y-136649557D01*
X83407559Y-136664891D01*
X83416962Y-136680739D01*
X83425511Y-136697099D01*
X83433205Y-136713973D01*
X83440043Y-136731360D01*
X83446027Y-136749260D01*
X83451156Y-136767674D01*
X83455431Y-136786601D01*
X83457247Y-136796257D01*
X83458850Y-136806041D01*
X83460239Y-136815953D01*
X83461415Y-136825994D01*
X83462376Y-136836164D01*
X83463124Y-136846461D01*
X83463659Y-136856887D01*
X83463979Y-136867441D01*
X83464086Y-136878124D01*
X83463873Y-136893084D01*
X83463235Y-136907799D01*
X83462171Y-136922271D01*
X83460682Y-136936498D01*
X83458767Y-136950481D01*
X83456427Y-136964219D01*
X83453661Y-136977714D01*
X83450469Y-136990964D01*
X83446853Y-137003970D01*
X83442810Y-137016732D01*
X83438342Y-137029249D01*
X83433449Y-137041522D01*
X83428130Y-137053551D01*
X83422385Y-137065336D01*
X83416215Y-137076876D01*
X83409620Y-137088173D01*
X83402670Y-137099158D01*
X83395500Y-137109765D01*
X83388107Y-137119995D01*
X83380494Y-137129846D01*
X83372659Y-137139320D01*
X83364603Y-137148417D01*
X83356325Y-137157135D01*
X83347826Y-137165475D01*
X83339106Y-137173438D01*
X83330165Y-137181023D01*
X83321002Y-137188230D01*
X83311617Y-137195059D01*
X83302012Y-137201511D01*
X83292185Y-137207584D01*
X83282137Y-137213280D01*
X83271867Y-137218598D01*
X83261216Y-137223567D01*
X83250084Y-137228215D01*
X83238471Y-137232543D01*
X83226377Y-137236550D01*
X83213802Y-137240237D01*
X83200746Y-137243603D01*
X83187210Y-137246648D01*
X83173193Y-137249373D01*
X83158695Y-137251777D01*
X83143716Y-137253861D01*
X83128256Y-137255624D01*
X83112315Y-137257066D01*
X83095894Y-137258188D01*
X83078991Y-137258990D01*
X83061608Y-137259471D01*
X83043744Y-137259631D01*
X83033394Y-137259581D01*
X83023195Y-137259433D01*
X83013148Y-137259185D01*
X83003253Y-137258837D01*
X82983918Y-137257845D01*
X82965189Y-137256456D01*
X82947068Y-137254670D01*
X82929553Y-137252487D01*
X82912645Y-137249907D01*
X82896344Y-137246930D01*
X82880649Y-137243557D01*
X82865561Y-137239786D01*
X82851080Y-137235619D01*
X82837206Y-137231055D01*
X82823939Y-137226093D01*
X82811278Y-137220735D01*
X82799225Y-137214980D01*
X82787778Y-137208829D01*
X82776706Y-137202190D01*
X82765838Y-137195036D01*
X82755174Y-137187368D01*
X82744715Y-137179184D01*
X82734459Y-137170484D01*
X82724408Y-137161270D01*
X82714561Y-137151540D01*
X82704918Y-137141295D01*
X82695480Y-137130535D01*
X82686245Y-137119260D01*
X82677215Y-137107470D01*
X82668389Y-137095164D01*
X82659767Y-137082343D01*
X82651349Y-137069007D01*
X82643135Y-137055156D01*
X82635126Y-137040789D01*
X82910632Y-137009526D01*
X82918715Y-137018761D01*
X82926632Y-137027077D01*
X82934381Y-137034474D01*
X82941964Y-137040954D01*
X82950842Y-137047517D01*
X82959480Y-137052757D01*
X82968769Y-137057280D01*
X82978195Y-137061199D01*
X82987759Y-137064515D01*
X82997460Y-137067229D01*
X83007298Y-137069339D01*
X83017274Y-137070847D01*
X83027387Y-137071751D01*
X83037638Y-137072053D01*
X83045693Y-137071876D01*
X83057415Y-137070949D01*
X83068703Y-137069228D01*
X83079557Y-137066713D01*
X83089978Y-137063404D01*
X83099965Y-137059300D01*
X83109518Y-137054402D01*
X83118638Y-137048710D01*
X83127324Y-137042223D01*
X83135576Y-137034943D01*
X83143395Y-137026868D01*
X83145176Y-137024881D01*
X83151883Y-137016293D01*
X83157926Y-137006674D01*
X83163305Y-136996025D01*
X83168020Y-136984345D01*
X83171121Y-136974909D01*
X83173848Y-136964893D01*
X83176201Y-136954298D01*
X83178181Y-136943123D01*
X83179787Y-136931369D01*
X82619250Y-136931369D01*
X82619250Y-136900594D01*
X82619435Y-136883305D01*
X82619990Y-136866427D01*
X82620916Y-136849959D01*
X82622211Y-136833900D01*
X82623877Y-136818253D01*
X82625913Y-136803015D01*
X82627914Y-136790685D01*
X82903549Y-136790685D01*
X83179055Y-136790685D01*
X83178609Y-136787761D01*
X83176464Y-136776520D01*
X83173739Y-136766005D01*
X83170435Y-136756214D01*
X83166550Y-136747148D01*
X83160878Y-136736836D01*
X83154299Y-136727657D01*
X83146815Y-136719610D01*
X83141733Y-136714967D01*
X83133718Y-136708563D01*
X83125230Y-136702834D01*
X83116269Y-136697778D01*
X83106837Y-136693397D01*
X83096932Y-136689690D01*
X83086555Y-136686656D01*
X83075706Y-136684297D01*
X83064385Y-136682612D01*
X83052591Y-136681601D01*
X83040325Y-136681264D01*
X83033178Y-136681363D01*
X83022790Y-136681884D01*
X83012802Y-136682852D01*
X83000105Y-136684836D01*
X82988118Y-136687614D01*
X82976841Y-136691186D01*
X82966273Y-136695552D01*
X82956416Y-136700712D01*
X82947268Y-136706665D01*
X82940866Y-136711720D01*
X82933071Y-136719368D01*
X82926124Y-136728054D01*
X82920023Y-136737778D01*
X82914770Y-136748540D01*
X82910364Y-136760340D01*
X82907616Y-136769871D01*
X82905344Y-136779986D01*
X82903549Y-136790685D01*
X82627914Y-136790685D01*
X82628319Y-136788188D01*
X82631096Y-136773771D01*
X82634242Y-136759764D01*
X82637759Y-136746168D01*
X82641646Y-136732981D01*
X82645903Y-136720205D01*
X82650530Y-136707840D01*
X82655528Y-136695884D01*
X82660895Y-136684339D01*
X82666633Y-136673204D01*
X82672726Y-136662436D01*
X82679158Y-136651993D01*
X82685930Y-136641874D01*
X82693042Y-136632080D01*
X82700493Y-136622609D01*
X82708284Y-136613464D01*
X82716415Y-136604642D01*
X82724885Y-136596145D01*
X82733695Y-136587973D01*
X82742845Y-136580125D01*
X82752334Y-136572601D01*
X82762163Y-136565401D01*
X82772331Y-136558526D01*
X82782839Y-136551976D01*
X82793687Y-136545749D01*
X82804875Y-136539847D01*
X82816459Y-136534257D01*
X82828559Y-136529028D01*
X82841173Y-136524160D01*
X82854303Y-136519652D01*
X82867948Y-136515504D01*
X82882109Y-136511717D01*
X82896784Y-136508291D01*
X82911975Y-136505226D01*
X82927681Y-136502521D01*
X82943902Y-136500177D01*
X82960639Y-136498193D01*
X82977890Y-136496571D01*
X82995657Y-136495308D01*
X83013939Y-136494407D01*
X83032736Y-136493866D01*
X83052048Y-136493685D01*
X83064027Y-136493789D01*
G37*
G36*
X82615342Y-136509317D02*
G01*
X82324205Y-136509317D01*
X82182544Y-136974844D01*
X82036242Y-136509317D01*
X81753898Y-136509317D01*
X82063842Y-137244000D01*
X82311748Y-137244000D01*
X82615342Y-136509317D01*
G37*
M02*
