M48
; DRILL file {KiCad 7.0.6} date Wed Aug 14 17:38:22 2024
; FORMAT={-:-/ absolute / inch / decimal}
; #@! TF.CreationDate,2024-08-14T17:38:22+03:00
; #@! TF.GenerationSoftware,Kicad,Pcbnew,7.0.6
; #@! TF.FileFunction,Plated,1,2,PTH
FMAT,2
INCH
; #@! TA.AperFunction,Plated,PTH,ViaDrill
T1C0.0039
; #@! TA.AperFunction,Plated,PTH,ViaDrill
T2C0.0157
; #@! TA.AperFunction,Plated,PTH,ComponentDrill
T3C0.0295
; #@! TA.AperFunction,Plated,PTH,ComponentDrill
T4C0.0315
; #@! TA.AperFunction,Plated,PTH,ComponentDrill
T5C0.0354
; #@! TA.AperFunction,Plated,PTH,ComponentDrill
T6C0.0394
; #@! TA.AperFunction,Plated,PTH,ComponentDrill
T7C0.0433
; #@! TA.AperFunction,Plated,PTH,ComponentDrill
T8C0.0512
; #@! TA.AperFunction,Plated,PTH,ComponentDrill
T9C0.0598
%
G90
G05
T1
X2.38Y-5.65
X2.85Y-5.38
X2.96Y-5.46
X3.08Y-5.09
X3.0864Y-5.3751
X3.59Y-5.02
X3.6259Y-5.4529
X3.64Y-5.12
X3.69Y-5.0
X3.88Y-4.1
X3.89Y-5.68
X4.01Y-4.57
X4.02Y-5.43
X4.06Y-5.05
X4.07Y-5.11
X4.28Y-4.18
X4.63Y-6.31
X4.75Y-5.41
X4.84Y-5.42
X4.89Y-4.48
X5.1Y-5.23
X5.56Y-3.97
X5.73Y-4.95
X5.74Y-4.7
X5.83Y-4.97
X5.8629Y-5.6322
T2
X2.51Y-4.75
X2.68Y-4.75
X2.97Y-5.72
X3.22Y-5.72
X3.47Y-4.74
X3.66Y-4.74
X3.9Y-5.23
X3.9Y-5.41
X4.39Y-4.75
X4.61Y-4.76
X5.27Y-4.76
X5.48Y-4.78
T3
X4.19Y-5.42
X4.24Y-5.42
X4.29Y-5.42
X4.72Y-5.77
X4.72Y-5.96
X4.77Y-5.77
X4.77Y-5.96
X4.82Y-5.77
X4.82Y-5.96
T4
X2.24Y-3.94
X2.24Y-4.34
X2.24Y-4.44
X2.24Y-4.84
X2.25Y-6.19
X2.2716Y-6.33
X2.37Y-6.33
X2.38Y-3.94
X2.38Y-4.34
X2.38Y-4.44
X2.38Y-4.84
X2.41Y-5.23
X2.41Y-5.53
X2.4243Y-6.06
X2.4459Y-5.94
X2.5Y-3.96
X2.5Y-4.54
X2.5043Y-5.76
X2.51Y-5.23
X2.51Y-5.53
X2.5443Y-5.94
X2.6Y-4.54
X2.61Y-4.7714
X2.61Y-4.921
X2.61Y-5.23
X2.61Y-5.53
X2.65Y-6.19
X2.6643Y-5.94
X2.6965Y-5.76
X2.7Y-4.54
X2.71Y-5.23
X2.71Y-5.53
X2.7628Y-5.94
X2.78Y-4.54
X2.81Y-5.23
X2.81Y-5.53
X2.8243Y-6.06
X2.88Y-4.54
X2.9Y-3.96
X2.91Y-5.23
X2.91Y-5.53
X2.98Y-4.54
X3.0Y-3.96
X3.0Y-4.36
X3.01Y-5.23
X3.01Y-5.53
X3.11Y-5.23
X3.11Y-5.53
X3.194Y-4.44
X3.194Y-4.84
X3.2Y-3.94
X3.2Y-4.34
X3.21Y-5.23
X3.21Y-5.53
X3.31Y-5.23
X3.31Y-5.53
X3.32Y-3.94
X3.32Y-4.34
X3.32Y-4.44
X3.32Y-4.84
X3.3604Y-5.11
X3.3659Y-5.78
X3.41Y-5.23
X3.41Y-5.53
X3.43Y-3.95
X3.44Y-4.52
X3.4588Y-5.11
X3.4643Y-5.78
X3.51Y-5.23
X3.51Y-5.53
X3.54Y-4.52
X3.56Y-4.75
X3.56Y-4.8996
X3.5843Y-5.78
X3.61Y-5.23
X3.61Y-5.53
X3.64Y-4.52
X3.6828Y-5.78
X3.71Y-5.23
X3.71Y-5.53
X3.74Y-4.52
X3.83Y-3.95
X3.84Y-4.52
X3.8814Y-5.33
X3.93Y-3.94
X3.93Y-4.34
X3.94Y-4.52
X4.031Y-5.33
X4.08Y-3.95
X4.08Y-4.35
X4.08Y-4.45
X4.08Y-4.85
X4.13Y-5.59
X4.13Y-5.99
X4.22Y-3.95
X4.22Y-4.35
X4.22Y-4.45
X4.22Y-4.85
X4.26Y-5.59
X4.26Y-5.99
X4.33Y-3.955
X4.34Y-4.55
X4.4Y-5.548
X4.4Y-5.948
X4.44Y-4.55
X4.49Y-4.7814
X4.49Y-4.931
X4.53Y-5.548
X4.53Y-5.948
X4.54Y-4.55
X4.64Y-4.55
X4.68Y-5.44
X4.68Y-5.56
X4.73Y-3.955
X4.74Y-4.55
X4.83Y-3.95
X4.83Y-4.35
X4.84Y-4.55
X4.96Y-5.7
X4.96Y-6.1
X4.98Y-3.95
X4.98Y-4.35
X4.98Y-4.45
X4.98Y-4.85
X5.08Y-5.44
X5.08Y-5.56
X5.09Y-5.7
X5.09Y-6.1
X5.11Y-3.95
X5.11Y-4.35
X5.11Y-4.45
X5.11Y-4.85
X5.225Y-4.0
X5.24Y-4.57
X5.34Y-4.57
X5.37Y-4.8014
X5.37Y-4.951
X5.44Y-4.57
X5.52Y-4.57
X5.62Y-4.57
X5.625Y-4.0
X5.72Y-3.99
X5.72Y-4.39
X5.72Y-4.57
X5.74Y-6.2816
X5.74Y-6.38
X5.77Y-5.1808
X5.77Y-5.2792
T5
X2.9643Y-6.1
X2.9643Y-6.4
X3.1043Y-6.1
X3.1043Y-6.4
X3.2443Y-6.1
X3.2443Y-6.4
X3.3843Y-5.64
X3.6843Y-5.64
X3.84Y-5.55
X3.84Y-5.85
X3.98Y-5.55
X3.98Y-5.85
X4.2698Y-6.39
X4.3698Y-6.39
X5.32Y-6.2573
X5.32Y-6.39
X5.35Y-5.16
X5.35Y-5.3
X5.62Y-6.2573
X5.62Y-6.39
X5.65Y-5.16
X5.65Y-5.3
T6
X2.25Y-4.97
X2.25Y-5.07
X2.25Y-5.17
X2.25Y-5.27
X2.25Y-5.92
X2.25Y-6.02
X2.26Y-5.46
X2.26Y-5.56
X2.26Y-5.66
X2.26Y-5.76
X2.27Y-6.46
X2.37Y-6.46
X2.47Y-6.46
X2.57Y-6.46
X2.67Y-6.46
X2.77Y-6.46
X3.0843Y-5.7231
X3.0843Y-5.92
X4.55Y-6.32
X4.55Y-6.42
X4.7Y-6.23
X4.7Y-6.33
X4.7Y-6.43
T7
X2.56Y-4.16
X2.56Y-4.36
X2.66Y-4.16
X2.66Y-4.36
X2.76Y-4.16
X2.76Y-4.36
X3.4243Y-5.9
X3.5Y-4.14
X3.5Y-4.34
X3.5243Y-5.9
X3.6Y-4.14
X3.6Y-4.34
X3.6243Y-5.9
X3.7Y-4.14
X3.7Y-4.34
X4.3928Y-4.15
X4.3928Y-4.35
X4.4928Y-4.15
X4.4928Y-4.35
X4.5928Y-4.15
X4.5928Y-4.35
X5.3Y-4.1922
X5.3Y-4.39
X5.4Y-4.1922
X5.4Y-4.39
X5.5Y-4.1922
X5.5Y-4.39
T8
X3.43Y-6.28
X3.6269Y-6.28
X3.8731Y-6.28
X4.07Y-6.28
T9
X5.6Y-5.48
X5.6Y-5.68
X5.6Y-5.88
X5.6Y-6.08
T0
M30
