%TF.GenerationSoftware,KiCad,Pcbnew,7.0.6*%
%TF.CreationDate,2024-08-14T17:38:19+03:00*%
%TF.ProjectId,atmegaStepperDriver,61746d65-6761-4537-9465-707065724472,V0.8.4*%
%TF.SameCoordinates,Original*%
%TF.FileFunction,Soldermask,Top*%
%TF.FilePolarity,Negative*%
%FSLAX46Y46*%
G04 Gerber Fmt 4.6, Leading zero omitted, Abs format (unit mm)*
G04 Created by KiCad (PCBNEW 7.0.6) date 2024-08-14 17:38:19*
%MOMM*%
%LPD*%
G01*
G04 APERTURE LIST*
G04 Aperture macros list*
%AMFreePoly0*
4,1,19,0.500000,-0.750000,0.000000,-0.750000,0.000000,-0.744911,-0.071157,-0.744911,-0.207708,-0.704816,-0.327430,-0.627875,-0.420627,-0.520320,-0.479746,-0.390866,-0.500000,-0.250000,-0.500000,0.250000,-0.479746,0.390866,-0.420627,0.520320,-0.327430,0.627875,-0.207708,0.704816,-0.071157,0.744911,0.000000,0.744911,0.000000,0.750000,0.500000,0.750000,0.500000,-0.750000,0.500000,-0.750000,
$1*%
%AMFreePoly1*
4,1,19,0.000000,0.744911,0.071157,0.744911,0.207708,0.704816,0.327430,0.627875,0.420627,0.520320,0.479746,0.390866,0.500000,0.250000,0.500000,-0.250000,0.479746,-0.390866,0.420627,-0.520320,0.327430,-0.627875,0.207708,-0.704816,0.071157,-0.744911,0.000000,-0.744911,0.000000,-0.750000,-0.500000,-0.750000,-0.500000,0.750000,0.000000,0.750000,0.000000,0.744911,0.000000,0.744911,
$1*%
G04 Aperture macros list end*
%ADD10R,1.050000X1.500000*%
%ADD11O,1.050000X1.500000*%
%ADD12R,1.600000X1.600000*%
%ADD13C,1.600000*%
%ADD14O,1.600000X1.600000*%
%ADD15C,1.500000*%
%ADD16R,1.905000X2.000000*%
%ADD17O,1.905000X2.000000*%
%ADD18R,1.700000X1.700000*%
%ADD19O,1.700000X1.700000*%
%ADD20R,1.500000X1.500000*%
%ADD21R,1.800000X1.800000*%
%ADD22O,1.800000X1.800000*%
%ADD23FreePoly0,90.000000*%
%ADD24FreePoly1,90.000000*%
%ADD25FreePoly0,270.000000*%
%ADD26FreePoly1,270.000000*%
%ADD27FreePoly0,180.000000*%
%ADD28FreePoly1,180.000000*%
%ADD29R,2.600000X2.600000*%
%ADD30C,2.600000*%
%ADD31R,3.000000X3.000000*%
%ADD32C,3.000000*%
%ADD33C,1.800000*%
%ADD34R,2.000000X2.000000*%
%ADD35C,2.000000*%
G04 APERTURE END LIST*
D10*
%TO.C,Q15*%
X119888000Y-146558000D03*
D11*
X121158000Y-146558000D03*
X122428000Y-146558000D03*
%TD*%
D12*
%TO.C,C1*%
X102386651Y-135382000D03*
D13*
X98586651Y-135382000D03*
%TD*%
D12*
%TO.C,D19*%
X142875000Y-101600000D03*
D14*
X132715000Y-101600000D03*
%TD*%
D12*
%TO.C,D18*%
X120142000Y-100457000D03*
D14*
X109982000Y-100457000D03*
%TD*%
D12*
%TO.C,D17*%
X97282000Y-100330000D03*
D14*
X87122000Y-100330000D03*
%TD*%
%TO.C,D16*%
X63500000Y-100584000D03*
D12*
X73660000Y-100584000D03*
%TD*%
D14*
%TO.C,D15*%
X145288000Y-111506000D03*
D12*
X145288000Y-101346000D03*
%TD*%
D14*
%TO.C,D10*%
X122682000Y-110490000D03*
D12*
X122682000Y-100330000D03*
%TD*%
D14*
%TO.C,D9*%
X99822000Y-110236000D03*
D12*
X99822000Y-100076000D03*
%TD*%
D14*
%TO.C,D8*%
X76200000Y-110744000D03*
D12*
X76200000Y-100584000D03*
%TD*%
D15*
%TO.C,Y1*%
X68490000Y-146304000D03*
X63610000Y-146304000D03*
%TD*%
D16*
%TO.C,U2*%
X92058000Y-149860000D03*
D17*
X89518000Y-149860000D03*
X86978000Y-149860000D03*
%TD*%
D14*
%TO.C,U1*%
X61214000Y-132842000D03*
X63754000Y-132842000D03*
X66294000Y-132842000D03*
X68834000Y-132842000D03*
X71374000Y-132842000D03*
X73914000Y-132842000D03*
X76454000Y-132842000D03*
X78994000Y-132842000D03*
X81534000Y-132842000D03*
X84074000Y-132842000D03*
X86614000Y-132842000D03*
X89154000Y-132842000D03*
X91694000Y-132842000D03*
X94234000Y-132842000D03*
X94234000Y-140462000D03*
X91694000Y-140462000D03*
X89154000Y-140462000D03*
X86614000Y-140462000D03*
X84074000Y-140462000D03*
X81534000Y-140462000D03*
X78994000Y-140462000D03*
X76454000Y-140462000D03*
X73914000Y-140462000D03*
X71374000Y-140462000D03*
X68834000Y-140462000D03*
X66294000Y-140462000D03*
X63754000Y-140462000D03*
D12*
X61214000Y-140462000D03*
%TD*%
D18*
%TO.C,TermoSocket1*%
X119380000Y-163322000D03*
D19*
X119380000Y-160782000D03*
X119380000Y-158242000D03*
%TD*%
D13*
%TO.C,R25*%
X129286000Y-144780000D03*
D14*
X129286000Y-154940000D03*
%TD*%
%TO.C,R24*%
X56896000Y-110236000D03*
D13*
X56896000Y-100076000D03*
%TD*%
D14*
%TO.C,R23*%
X56896000Y-122936000D03*
D13*
X56896000Y-112776000D03*
%TD*%
D14*
%TO.C,R22*%
X60452000Y-122936000D03*
D13*
X60452000Y-112776000D03*
%TD*%
D14*
%TO.C,R21*%
X60452000Y-110236000D03*
D13*
X60452000Y-100076000D03*
%TD*%
%TO.C,R20*%
X108204000Y-152146000D03*
D14*
X108204000Y-141986000D03*
%TD*%
D13*
%TO.C,R19*%
X104902000Y-141986000D03*
D14*
X104902000Y-152146000D03*
%TD*%
D13*
%TO.C,R18*%
X125984000Y-154940000D03*
D14*
X125984000Y-144780000D03*
%TD*%
D13*
%TO.C,R17*%
X129032000Y-138176000D03*
D14*
X118872000Y-138176000D03*
%TD*%
D13*
%TO.C,R16*%
X118872000Y-141224000D03*
D14*
X129032000Y-141224000D03*
%TD*%
D13*
%TO.C,R14*%
X126492000Y-100330000D03*
D14*
X126492000Y-110490000D03*
%TD*%
D13*
%TO.C,R13*%
X126492000Y-113030000D03*
D14*
X126492000Y-123190000D03*
%TD*%
D13*
%TO.C,R12*%
X129794000Y-113030000D03*
D14*
X129794000Y-123190000D03*
%TD*%
%TO.C,R11*%
X129794000Y-110490000D03*
D13*
X129794000Y-100330000D03*
%TD*%
%TO.C,R10*%
X103632000Y-100330000D03*
D14*
X103632000Y-110490000D03*
%TD*%
D13*
%TO.C,R9*%
X103632000Y-113030000D03*
D14*
X103632000Y-123190000D03*
%TD*%
D13*
%TO.C,R8*%
X107188000Y-113030000D03*
D14*
X107188000Y-123190000D03*
%TD*%
D13*
%TO.C,R7*%
X107188000Y-100330000D03*
D14*
X107188000Y-110490000D03*
%TD*%
D13*
%TO.C,R6*%
X81280000Y-100076000D03*
D14*
X81280000Y-110236000D03*
%TD*%
D13*
%TO.C,R5*%
X81127600Y-112776000D03*
D14*
X81127600Y-122936000D03*
%TD*%
D13*
%TO.C,R4*%
X84328000Y-112776000D03*
D14*
X84328000Y-122936000D03*
%TD*%
%TO.C,R3*%
X84328000Y-110236000D03*
D13*
X84328000Y-100076000D03*
%TD*%
%TO.C,R2*%
X57150000Y-157226000D03*
D14*
X67310000Y-157226000D03*
%TD*%
D13*
%TO.C,R1*%
X61578000Y-153924000D03*
D14*
X71738000Y-153924000D03*
%TD*%
D17*
%TO.C,Q21*%
X70104000Y-110744000D03*
X67564000Y-110744000D03*
D16*
X65024000Y-110744000D03*
%TD*%
D15*
%TO.C,Q20*%
X68580000Y-115316000D03*
X66040000Y-115316000D03*
D20*
X63500000Y-115316000D03*
%TD*%
%TO.C,Q19*%
X70612000Y-115316000D03*
D15*
X73152000Y-115316000D03*
X75692000Y-115316000D03*
%TD*%
D17*
%TO.C,Q18*%
X70104000Y-105664000D03*
X67564000Y-105664000D03*
D16*
X65024000Y-105664000D03*
%TD*%
D11*
%TO.C,Q17*%
X108966000Y-137668000D03*
X107696000Y-137668000D03*
D10*
X106426000Y-137668000D03*
%TD*%
D11*
%TO.C,Q13*%
X122428000Y-151384000D03*
X121158000Y-151384000D03*
D10*
X119888000Y-151384000D03*
%TD*%
D16*
%TO.C,Q12*%
X134620000Y-111506000D03*
D17*
X137160000Y-111506000D03*
X139700000Y-111506000D03*
%TD*%
D20*
%TO.C,Q11*%
X133096000Y-116078000D03*
D15*
X135636000Y-116078000D03*
X138176000Y-116078000D03*
%TD*%
D20*
%TO.C,Q10*%
X140208000Y-116078000D03*
D15*
X142748000Y-116078000D03*
X145288000Y-116078000D03*
%TD*%
D16*
%TO.C,Q9*%
X134620000Y-106482000D03*
D17*
X137160000Y-106482000D03*
X139700000Y-106482000D03*
%TD*%
D16*
%TO.C,Q8*%
X111576000Y-110490000D03*
D17*
X114116000Y-110490000D03*
X116656000Y-110490000D03*
%TD*%
D20*
%TO.C,Q7*%
X110236000Y-115570000D03*
D15*
X112776000Y-115570000D03*
X115316000Y-115570000D03*
%TD*%
D20*
%TO.C,Q6*%
X117856000Y-115570000D03*
D15*
X120396000Y-115570000D03*
X122936000Y-115570000D03*
%TD*%
D17*
%TO.C,Q5*%
X116656000Y-105410000D03*
X114116000Y-105410000D03*
D16*
X111576000Y-105410000D03*
%TD*%
%TO.C,Q4*%
X88900000Y-110236000D03*
D17*
X91440000Y-110236000D03*
X93980000Y-110236000D03*
%TD*%
D20*
%TO.C,Q3*%
X87376000Y-114808000D03*
D15*
X89916000Y-114808000D03*
X92456000Y-114808000D03*
%TD*%
%TO.C,Q2*%
X100076000Y-114808000D03*
X97536000Y-114808000D03*
D20*
X94996000Y-114808000D03*
%TD*%
D16*
%TO.C,Q1*%
X88900000Y-105156000D03*
D17*
X91440000Y-105156000D03*
X93980000Y-105156000D03*
%TD*%
D21*
%TO.C,m_D1*%
X75294000Y-154940000D03*
D22*
X75294000Y-162560000D03*
%TD*%
D23*
%TO.C,AP_JP1*%
X145796000Y-124236000D03*
D24*
X145796000Y-122936000D03*
%TD*%
D25*
%TO.C,MP_JP1*%
X148336000Y-122906000D03*
D26*
X148336000Y-124206000D03*
%TD*%
D27*
%TO.C,JP9*%
X72644000Y-130048000D03*
D28*
X71344000Y-130048000D03*
%TD*%
D27*
%TO.C,JP8*%
X76200000Y-130048000D03*
D28*
X74900000Y-130048000D03*
%TD*%
D25*
%TO.C,M_JP1*%
X71882000Y-157480000D03*
D26*
X71882000Y-158780000D03*
%TD*%
D25*
%TO.C,JP6*%
X97282000Y-150988000D03*
D26*
X97282000Y-152288000D03*
%TD*%
D25*
%TO.C,JP5*%
X101346000Y-151130000D03*
D26*
X101346000Y-152430000D03*
%TD*%
%TO.C,JP4*%
X143002000Y-124460000D03*
D25*
X143002000Y-123160000D03*
%TD*%
%TO.C,JP3*%
X120142000Y-122428000D03*
D26*
X120142000Y-123728000D03*
%TD*%
D25*
%TO.C,JP2*%
X96774000Y-121666000D03*
D26*
X96774000Y-122966000D03*
%TD*%
D25*
%TO.C,JP1*%
X72390000Y-122286000D03*
D26*
X72390000Y-123586000D03*
%TD*%
D18*
%TO.C,J9*%
X57404000Y-146304000D03*
D19*
X57404000Y-143764000D03*
X57404000Y-141224000D03*
X57404000Y-138684000D03*
%TD*%
D18*
%TO.C,J8*%
X70358000Y-164084000D03*
D19*
X67818000Y-164084000D03*
X65278000Y-164084000D03*
X62738000Y-164084000D03*
X60198000Y-164084000D03*
X57658000Y-164084000D03*
%TD*%
D18*
%TO.C,J6*%
X57150000Y-133858000D03*
D19*
X57150000Y-131318000D03*
X57150000Y-128778000D03*
X57150000Y-126238000D03*
%TD*%
D18*
%TO.C,J5*%
X57150000Y-152908000D03*
D19*
X57150000Y-150368000D03*
%TD*%
D18*
%TO.C,FanSocket1*%
X115570000Y-163068000D03*
D19*
X115570000Y-160528000D03*
%TD*%
D29*
%TO.C,J3*%
X98378000Y-159512000D03*
D30*
X103378000Y-159512000D03*
%TD*%
D31*
%TO.C,J2*%
X142240000Y-154432000D03*
D32*
X142240000Y-149352000D03*
X142240000Y-144272000D03*
X142240000Y-139192000D03*
%TD*%
D30*
%TO.C,J1*%
X92122000Y-159512000D03*
D29*
X87122000Y-159512000D03*
%TD*%
D14*
%TO.C,GND_R1*%
X111760000Y-140919000D03*
D13*
X111760000Y-151079000D03*
%TD*%
D21*
%TO.C,D14*%
X135890000Y-131064000D03*
D22*
X143510000Y-131064000D03*
%TD*%
D21*
%TO.C,D13*%
X135890000Y-134620000D03*
D22*
X143510000Y-134620000D03*
%TD*%
%TO.C,D12*%
X142748000Y-158936000D03*
D21*
X135128000Y-158936000D03*
%TD*%
D22*
%TO.C,D11*%
X142748000Y-162306000D03*
D21*
X135128000Y-162306000D03*
%TD*%
%TO.C,D7*%
X108453000Y-162306000D03*
D33*
X110993000Y-162306000D03*
%TD*%
D21*
%TO.C,D5*%
X82406000Y-154940000D03*
D22*
X82406000Y-162560000D03*
%TD*%
D21*
%TO.C,D4*%
X78850000Y-162560000D03*
D22*
X78850000Y-154940000D03*
%TD*%
D21*
%TO.C,D3*%
X101092000Y-140970000D03*
D22*
X101092000Y-148590000D03*
%TD*%
D21*
%TO.C,D2*%
X97536000Y-148590000D03*
D22*
X97536000Y-140970000D03*
%TD*%
D21*
%TO.C,D1*%
X93582000Y-143256000D03*
D22*
X85962000Y-143256000D03*
%TD*%
D13*
%TO.C,C14*%
X60198000Y-160782000D03*
X57698000Y-160782000D03*
%TD*%
%TO.C,C7*%
X146558000Y-131592000D03*
X146558000Y-134092000D03*
%TD*%
%TO.C,C6*%
X145796000Y-162052000D03*
X145796000Y-159552000D03*
%TD*%
D34*
%TO.C,C5*%
X78342000Y-150368000D03*
D35*
X78342000Y-145368000D03*
%TD*%
D13*
%TO.C,C4*%
X85354000Y-129794000D03*
X87854000Y-129794000D03*
%TD*%
%TO.C,C3*%
X87994000Y-146812000D03*
X85494000Y-146812000D03*
%TD*%
D12*
%TO.C,C2-4*%
X136398000Y-125754651D03*
D13*
X136398000Y-121954651D03*
%TD*%
D12*
%TO.C,C2-3*%
X114046000Y-125246651D03*
D13*
X114046000Y-121446651D03*
%TD*%
%TO.C,C2-2*%
X90424000Y-120650000D03*
D12*
X90424000Y-124450000D03*
%TD*%
%TO.C,C2-1*%
X66294000Y-124992651D03*
D13*
X66294000Y-121192651D03*
%TD*%
%TO.C,C2*%
X91042000Y-146812000D03*
X93542000Y-146812000D03*
%TD*%
%TO.C,C1-2*%
X70174000Y-150876000D03*
X67674000Y-150876000D03*
%TD*%
%TO.C,C1-1*%
X62126000Y-150876000D03*
X64626000Y-150876000D03*
%TD*%
D14*
%TO.C,5V_R1*%
X115062000Y-151079000D03*
D13*
X115062000Y-140919000D03*
%TD*%
M02*
