M48
; DRILL file {KiCad 7.0.6} date Wed Aug  9 12:25:14 2023
; FORMAT={-:-/ absolute / inch / decimal}
; #@! TF.CreationDate,2023-08-09T12:25:14+03:00
; #@! TF.GenerationSoftware,Kicad,Pcbnew,7.0.6
; #@! TF.FileFunction,Plated,1,2,PTH
FMAT,2
INCH
; #@! TA.AperFunction,Plated,PTH,ViaDrill
T1C0.0039
; #@! TA.AperFunction,Plated,PTH,ViaDrill
T2C0.0157
; #@! TA.AperFunction,Plated,PTH,ComponentDrill
T3C0.0295
; #@! TA.AperFunction,Plated,PTH,ComponentDrill
T4C0.0315
; #@! TA.AperFunction,Plated,PTH,ComponentDrill
T5C0.0354
; #@! TA.AperFunction,Plated,PTH,ComponentDrill
T6C0.0394
; #@! TA.AperFunction,Plated,PTH,ComponentDrill
T7C0.0433
; #@! TA.AperFunction,Plated,PTH,ComponentDrill
T8C0.0512
; #@! TA.AperFunction,Plated,PTH,ComponentDrill
T9C0.0598
%
G90
G05
T1
X2.825Y-4.35
X2.825Y-4.55
X3.1Y-4.675
X3.2Y-4.225
X3.2Y-4.625
X3.325Y-4.2
X3.425Y-4.325
X3.575Y-4.075
X4.3Y-3.0
X4.3Y-3.125
X4.375Y-2.8
X4.55Y-4.975
T2
X2.95Y-3.75
X3.425Y-3.75
X3.85Y-3.75
X4.55Y-3.775
T3
X2.9372Y-3.0142
X2.9372Y-3.275
X2.9872Y-3.0142
X2.9872Y-3.275
X3.0372Y-3.0142
X3.0372Y-3.275
X3.4372Y-3.025
X3.4372Y-3.275
X3.4872Y-3.025
X3.4872Y-3.275
X3.5372Y-3.025
X3.5372Y-3.275
X3.9372Y-3.0
X3.9372Y-3.275
X3.9872Y-3.0
X3.9872Y-3.275
X4.0372Y-3.0
X4.0372Y-3.275
X4.4372Y-3.0
X4.4372Y-3.275
X4.4872Y-3.0
X4.4872Y-3.275
X4.5372Y-3.0
X4.5372Y-3.275
T4
X2.625Y-3.475
X2.625Y-3.65
X2.65Y-4.55
X2.675Y-4.125
X2.675Y-4.425
X2.6872Y-2.9272
X2.6872Y-3.3272
X2.75Y-3.825
X2.75Y-3.9746
X2.775Y-4.125
X2.775Y-4.425
X2.8122Y-2.925
X2.8122Y-3.325
X2.875Y-4.125
X2.875Y-4.425
X2.975Y-4.125
X2.975Y-4.425
X3.025Y-3.475
X3.025Y-3.65
X3.05Y-4.55
X3.075Y-4.125
X3.075Y-4.425
X3.125Y-3.475
X3.125Y-3.65
X3.175Y-4.125
X3.175Y-4.425
X3.1872Y-2.925
X3.1872Y-3.325
X3.2Y-3.8214
X3.2Y-3.971
X3.2125Y-5.1758
X3.2128Y-2.2
X3.2128Y-2.2984
X3.275Y-4.125
X3.275Y-4.425
X3.3109Y-5.1758
X3.3122Y-2.925
X3.3122Y-3.325
X3.3378Y-2.2
X3.3378Y-2.2984
X3.375Y-4.125
X3.375Y-4.425
X3.475Y-4.125
X3.475Y-4.425
X3.5Y-4.7266
X3.5Y-4.825
X3.5016Y-4.95
X3.5016Y-5.0484
X3.525Y-3.475
X3.525Y-3.65
X3.575Y-4.125
X3.575Y-4.425
X3.6Y-4.55
X3.625Y-3.45
X3.625Y-3.65
X3.65Y-3.8214
X3.65Y-3.971
X3.675Y-4.125
X3.675Y-4.425
X3.6872Y-2.9
X3.6872Y-3.3
X3.6984Y-4.55
X3.775Y-4.125
X3.775Y-4.425
X3.8122Y-2.9
X3.8122Y-3.3
X3.875Y-4.125
X3.875Y-4.425
X3.975Y-4.125
X3.975Y-4.425
X4.025Y-3.45
X4.025Y-3.65
X4.1Y-3.8214
X4.1Y-3.971
X4.125Y-3.45
X4.125Y-3.65
X4.125Y-4.125
X4.1516Y-4.475
X4.1872Y-2.9
X4.1872Y-3.3
X4.2Y-4.3
X4.25Y-4.475
X4.3122Y-2.9
X4.3122Y-3.3
X4.3766Y-4.475
X4.3921Y-4.3
X4.475Y-4.475
X4.525Y-3.45
X4.525Y-3.65
X4.525Y-4.125
T5
X2.8Y-1.875
X2.8Y-2.175
X2.8Y-2.3
X3.1Y-2.3
X3.175Y-4.55
X3.45Y-2.3
X3.475Y-4.55
X3.75Y-1.875
X3.75Y-2.175
X3.75Y-2.3
X4.075Y-4.6
X4.075Y-4.9
X4.075Y-5.0
X4.075Y-5.3
X4.225Y-5.2
X4.35Y-2.025
X4.35Y-2.325
X4.5Y-2.025
X4.5Y-2.325
X4.525Y-5.2
T6
X2.65Y-5.325
X2.675Y-5.175
X2.75Y-5.325
X2.775Y-5.175
X2.85Y-5.325
X2.875Y-5.175
X2.95Y-5.325
X2.975Y-5.175
X3.075Y-5.175
X3.1Y-5.325
X3.2Y-5.325
X3.3Y-5.325
X3.4Y-5.325
X3.5498Y-5.325
X3.6498Y-5.325
X3.8Y-4.7531
X3.8Y-4.95
T7
X2.7929Y-2.5
X2.7929Y-2.6
X2.7929Y-2.7
X3.0122Y-2.5
X3.0122Y-2.6
X3.0122Y-2.7
X3.2872Y-2.5
X3.2872Y-2.6
X3.2872Y-2.7
X3.3634Y-4.775
X3.3634Y-4.875
X3.3634Y-4.975
X3.5122Y-2.5
X3.5122Y-2.6
X3.5122Y-2.7
X3.8Y-2.5
X3.8Y-2.6
X3.8Y-2.7
X4.0122Y-2.5
X4.0122Y-2.6
X4.0122Y-2.7
X4.2622Y-2.5
X4.2622Y-2.6
X4.2622Y-2.7
X4.4744Y-2.5
X4.4744Y-2.6
X4.4744Y-2.7
T8
X3.9531Y-2.062
X4.15Y-2.062
X4.363Y-4.8016
X4.363Y-4.9984
T9
X2.975Y-1.975
X3.175Y-1.975
X3.375Y-1.975
X3.575Y-1.975
T0
M30
