M48
; DRILL file {KiCad 7.0.6} date Wed Aug 30 11:20:01 2023
; FORMAT={-:-/ absolute / inch / decimal}
; #@! TF.CreationDate,2023-08-30T11:20:01+03:00
; #@! TF.GenerationSoftware,Kicad,Pcbnew,7.0.6
; #@! TF.FileFunction,Plated,1,2,PTH
FMAT,2
INCH
; #@! TA.AperFunction,Plated,PTH,ViaDrill
T1C0.0039
; #@! TA.AperFunction,Plated,PTH,ViaDrill
T2C0.0157
; #@! TA.AperFunction,Plated,PTH,ComponentDrill
T3C0.0295
; #@! TA.AperFunction,Plated,PTH,ComponentDrill
T4C0.0315
; #@! TA.AperFunction,Plated,PTH,ComponentDrill
T5C0.0354
; #@! TA.AperFunction,Plated,PTH,ComponentDrill
T6C0.0394
; #@! TA.AperFunction,Plated,PTH,ComponentDrill
T7C0.0433
; #@! TA.AperFunction,Plated,PTH,ComponentDrill
T8C0.0512
; #@! TA.AperFunction,Plated,PTH,ComponentDrill
T9C0.0598
%
G90
G05
T1
X3.2Y-4.325
X3.3974Y-4.3026
X3.45Y-2.65
X3.45Y-4.8
X3.4974Y-4.8026
X3.525Y-4.55
X3.525Y-5.075
X3.7Y-2.725
X3.7Y-3.5
X3.875Y-3.9553
X4.075Y-5.025
X4.125Y-2.675
X4.1926Y-3.4824
X4.425Y-3.525
X4.6662Y-3.4838
X4.675Y-3.175
X4.7Y-3.675
X4.7Y-4.0
X4.7301Y-3.8
X4.775Y-3.15
X4.8Y-4.05
X4.825Y-4.775
T2
X2.925Y-3.3
X2.925Y-4.1
X3.15Y-3.125
X3.2Y-3.725
X3.275Y-4.1
X3.35Y-4.55
X3.45Y-3.325
X3.475Y-3.675
X3.65Y-4.1
X3.65Y-4.625
X3.675Y-3.125
X3.775Y-3.425
X3.95Y-3.3
X4.0Y-4.1
X4.175Y-3.125
X4.425Y-3.325
X4.475Y-4.15
X4.6Y-3.125
T3
X3.175Y-3.3142
X3.175Y-3.5392
X3.225Y-3.3142
X3.225Y-3.5392
X3.275Y-3.3142
X3.275Y-3.5392
X3.7Y-3.3392
X3.7Y-3.55
X3.75Y-3.3392
X3.75Y-3.55
X3.8Y-3.3392
X3.8Y-3.55
X4.2Y-3.3
X4.2Y-3.55
X4.25Y-3.3
X4.25Y-3.55
X4.3Y-3.3
X4.3Y-3.55
X4.675Y-3.2892
X4.675Y-3.5392
X4.725Y-3.2892
X4.725Y-3.5392
X4.7694Y-2.7312
X4.7694Y-2.7812
X4.7694Y-2.8312
X4.775Y-3.2892
X4.775Y-3.5392
T4
X2.9Y-3.725
X2.9Y-3.85
X2.925Y-3.2
X2.925Y-3.6
X2.925Y-5.175
X2.95Y-4.425
X2.95Y-4.725
X2.9504Y-4.2
X2.9766Y-5.05
X3.05Y-3.2
X3.05Y-3.6
X3.05Y-4.425
X3.05Y-4.725
X3.075Y-5.05
X3.1Y-4.2
X3.15Y-4.425
X3.15Y-4.725
X3.2008Y-5.325
X3.2016Y-5.05
X3.25Y-4.425
X3.25Y-4.725
X3.2964Y-4.2
X3.2992Y-5.325
X3.3Y-3.725
X3.3Y-3.85
X3.3Y-5.05
X3.325Y-5.175
X3.35Y-4.425
X3.35Y-4.725
X3.375Y-2.475
X3.375Y-2.5734
X3.4Y-3.725
X3.4Y-3.85
X3.446Y-4.2
X3.45Y-3.2
X3.45Y-3.6
X3.45Y-4.425
X3.45Y-4.725
X3.5Y-2.4766
X3.5Y-2.575
X3.55Y-4.425
X3.55Y-4.725
X3.575Y-3.2
X3.575Y-3.6
X3.6464Y-4.2
X3.65Y-4.425
X3.65Y-4.725
X3.75Y-4.425
X3.75Y-4.725
X3.779Y-4.85
X3.796Y-4.2
X3.8Y-3.725
X3.8Y-3.85
X3.85Y-4.425
X3.85Y-4.725
X3.8774Y-4.85
X3.9Y-3.725
X3.9Y-3.85
X3.95Y-3.2
X3.95Y-3.6
X3.95Y-4.425
X3.95Y-4.725
X3.9964Y-4.2
X4.05Y-4.425
X4.05Y-4.725
X4.075Y-3.2
X4.075Y-3.6
X4.146Y-4.2
X4.15Y-4.425
X4.15Y-4.725
X4.25Y-4.425
X4.25Y-4.725
X4.3Y-3.725
X4.3Y-3.85
X4.375Y-4.175
X4.375Y-4.325
X4.4Y-3.725
X4.4Y-3.85
X4.4Y-3.975
X4.4016Y-4.7
X4.425Y-3.2
X4.425Y-3.6
X4.4829Y-4.525
X4.5Y-4.7
X4.55Y-3.2
X4.55Y-3.6
X4.65Y-4.7
X4.675Y-4.525
X4.7484Y-4.7
X4.775Y-4.175
X4.775Y-4.325
X4.8Y-3.725
X4.8Y-3.85
X4.8Y-3.975
T5
X2.95Y-2.45
X2.95Y-2.6
X3.25Y-2.45
X3.25Y-2.6
X3.35Y-4.875
X3.625Y-2.45
X3.625Y-2.6
X3.65Y-4.875
X3.925Y-2.45
X3.925Y-2.6
X4.05Y-2.55
X4.15Y-4.9
X4.15Y-5.05
X4.35Y-2.55
X4.45Y-2.55
X4.45Y-4.9
X4.45Y-5.05
X4.5864Y-5.111
X4.5864Y-5.411
X4.675Y-4.8644
X4.675Y-4.9644
X4.75Y-2.55
T6
X2.95Y-5.325
X3.05Y-5.325
X3.2Y-5.575
X3.3Y-5.575
X3.4Y-5.575
X3.5Y-5.425
X3.5Y-5.575
X3.6Y-5.425
X3.675Y-5.575
X3.7Y-5.425
X3.775Y-5.575
X3.8Y-5.425
X3.85Y-5.0318
X3.85Y-5.2286
X3.875Y-5.575
X3.9Y-5.425
X3.975Y-5.575
X4.0Y-5.425
X4.75Y-2.975
X4.75Y-3.075
T7
X2.975Y-4.9122
X3.025Y-2.8
X3.025Y-2.9
X3.025Y-3.0
X3.075Y-4.9122
X3.175Y-4.9122
X3.25Y-2.8
X3.25Y-2.9
X3.25Y-3.0
X3.475Y-2.8
X3.475Y-2.9
X3.475Y-3.0
X3.7Y-2.8
X3.7Y-2.9
X3.7Y-3.0
X3.925Y-2.8
X3.925Y-2.9
X3.925Y-3.0
X4.15Y-2.8
X4.15Y-2.9
X4.15Y-3.0
X4.375Y-2.8
X4.375Y-2.9
X4.375Y-3.0
X4.6Y-2.8
X4.6Y-2.9
X4.6Y-3.0
T8
X4.1281Y-2.25
X4.2016Y-5.387
X4.325Y-2.25
X4.3984Y-5.387
T9
X3.275Y-2.225
X3.475Y-2.225
X3.675Y-2.225
X3.875Y-2.225
T0
M30
