%TF.GenerationSoftware,KiCad,Pcbnew,7.0.6*%
%TF.CreationDate,2023-08-30T11:13:53+03:00*%
%TF.ProjectId,atmegaStepperDriver,61746d65-6761-4537-9465-707065724472,V0.8.2*%
%TF.SameCoordinates,Original*%
%TF.FileFunction,Soldermask,Bot*%
%TF.FilePolarity,Negative*%
%FSLAX46Y46*%
G04 Gerber Fmt 4.6, Leading zero omitted, Abs format (unit mm)*
G04 Created by KiCad (PCBNEW 7.0.6) date 2023-08-30 11:13:53*
%MOMM*%
%LPD*%
G01*
G04 APERTURE LIST*
%ADD10C,1.600000*%
%ADD11O,1.600000X1.600000*%
%ADD12R,1.500000X1.050000*%
%ADD13O,1.500000X1.050000*%
%ADD14C,1.500000*%
%ADD15R,1.800000X1.800000*%
%ADD16O,1.800000X1.800000*%
%ADD17C,3.200000*%
%ADD18R,2.600000X2.600000*%
%ADD19C,2.600000*%
%ADD20R,2.000000X1.905000*%
%ADD21O,2.000000X1.905000*%
%ADD22R,1.700000X1.700000*%
%ADD23O,1.700000X1.700000*%
%ADD24R,1.050000X1.500000*%
%ADD25O,1.050000X1.500000*%
%ADD26R,1.600000X1.600000*%
%ADD27R,2.000000X2.000000*%
%ADD28C,2.000000*%
%ADD29R,1.905000X2.000000*%
%ADD30O,1.905000X2.000000*%
%ADD31C,1.800000*%
%ADD32R,3.000000X3.000000*%
%ADD33C,3.000000*%
G04 APERTURE END LIST*
D10*
%TO.C,R20*%
X111760000Y-100965000D03*
D11*
X121920000Y-100965000D03*
%TD*%
D12*
%TO.C,Q17*%
X121142751Y-71913332D03*
D13*
X121142751Y-70643332D03*
X121142751Y-69373332D03*
%TD*%
D14*
%TO.C,Y1*%
X118745000Y-114935000D03*
X113865000Y-114935000D03*
%TD*%
D15*
%TO.C,D13*%
X99695000Y-62230000D03*
D16*
X92075000Y-62230000D03*
%TD*%
D10*
%TO.C,C3*%
X83820000Y-128270000D03*
X81320000Y-128270000D03*
%TD*%
%TO.C,R15*%
X112395000Y-81280000D03*
D11*
X112395000Y-91440000D03*
%TD*%
D17*
%TO.C,REF\u002A\u002A*%
X120015000Y-55245000D03*
%TD*%
D18*
%TO.C,J1*%
X106720000Y-136830000D03*
D19*
X111720000Y-136830000D03*
%TD*%
D17*
%TO.C,REF\u002A\u002A*%
X120015000Y-140970000D03*
%TD*%
D10*
%TO.C,C6*%
X85725000Y-65365000D03*
X85725000Y-62865000D03*
%TD*%
D20*
%TO.C,Q16*%
X116840000Y-76200000D03*
D21*
X116840000Y-73660000D03*
X116840000Y-71120000D03*
%TD*%
D22*
%TO.C,J8*%
X101600000Y-137795000D03*
D23*
X99060000Y-137795000D03*
X96520000Y-137795000D03*
X93980000Y-137795000D03*
X91440000Y-137795000D03*
X88900000Y-137795000D03*
%TD*%
D10*
%TO.C,C1-2*%
X118110000Y-119380000D03*
X120610000Y-119380000D03*
%TD*%
D20*
%TO.C,Q12*%
X93980000Y-76200000D03*
D21*
X93980000Y-73660000D03*
X93980000Y-71120000D03*
%TD*%
D24*
%TO.C,Q14*%
X118745000Y-83545000D03*
D25*
X120015000Y-83545000D03*
X121285000Y-83545000D03*
%TD*%
D10*
%TO.C,C14*%
X81300000Y-135255000D03*
X83800000Y-135255000D03*
%TD*%
D15*
%TO.C,D12*%
X74930000Y-66040000D03*
D16*
X82550000Y-66040000D03*
%TD*%
D10*
%TO.C,R12*%
X83820000Y-97790000D03*
D11*
X73660000Y-97790000D03*
%TD*%
D26*
%TO.C,C2-3*%
X96417651Y-106680000D03*
D10*
X92617651Y-106680000D03*
%TD*%
%TO.C,R19*%
X111125000Y-106045000D03*
D11*
X121285000Y-106045000D03*
%TD*%
D10*
%TO.C,R6*%
X100330000Y-81280000D03*
D11*
X100330000Y-91440000D03*
%TD*%
D15*
%TO.C,D4*%
X105410000Y-128270000D03*
D16*
X113030000Y-128270000D03*
%TD*%
D15*
%TO.C,D11*%
X74930000Y-62230000D03*
D16*
X82550000Y-62230000D03*
%TD*%
D15*
%TO.C,D14*%
X99695000Y-66040000D03*
D16*
X92075000Y-66040000D03*
%TD*%
D27*
%TO.C,C5*%
X97790000Y-127807323D03*
D28*
X97790000Y-132807323D03*
%TD*%
D24*
%TO.C,Q10*%
X80645000Y-84180000D03*
D25*
X81915000Y-84180000D03*
X83185000Y-84180000D03*
%TD*%
D26*
%TO.C,U1*%
X74930000Y-120015000D03*
D11*
X77470000Y-120015000D03*
X80010000Y-120015000D03*
X82550000Y-120015000D03*
X85090000Y-120015000D03*
X87630000Y-120015000D03*
X90170000Y-120015000D03*
X92710000Y-120015000D03*
X95250000Y-120015000D03*
X97790000Y-120015000D03*
X100330000Y-120015000D03*
X102870000Y-120015000D03*
X105410000Y-120015000D03*
X107950000Y-120015000D03*
X107950000Y-112395000D03*
X105410000Y-112395000D03*
X102870000Y-112395000D03*
X100330000Y-112395000D03*
X97790000Y-112395000D03*
X95250000Y-112395000D03*
X92710000Y-112395000D03*
X90170000Y-112395000D03*
X87630000Y-112395000D03*
X85090000Y-112395000D03*
X82550000Y-112395000D03*
X80010000Y-112395000D03*
X77470000Y-112395000D03*
X74930000Y-112395000D03*
%TD*%
D24*
%TO.C,Q7*%
X106680000Y-90170000D03*
D25*
X107950000Y-90170000D03*
X109220000Y-90170000D03*
%TD*%
D24*
%TO.C,Q5*%
X106680000Y-83820000D03*
D25*
X107950000Y-83820000D03*
X109220000Y-83820000D03*
%TD*%
D20*
%TO.C,Q2*%
X82550000Y-76200000D03*
D21*
X82550000Y-73660000D03*
X82550000Y-71120000D03*
%TD*%
D15*
%TO.C,D3*%
X113030000Y-64770000D03*
D16*
X120650000Y-64770000D03*
%TD*%
D10*
%TO.C,R8*%
X90805000Y-91440000D03*
D11*
X90805000Y-81280000D03*
%TD*%
D10*
%TO.C,C2*%
X78105000Y-128270000D03*
X75605000Y-128270000D03*
%TD*%
%TO.C,R3*%
X73660000Y-94615000D03*
D11*
X83820000Y-94615000D03*
%TD*%
D10*
%TO.C,R10*%
X99060000Y-94615000D03*
D11*
X109220000Y-94615000D03*
%TD*%
D10*
%TO.C,R4*%
X74295000Y-81280000D03*
D11*
X74295000Y-91440000D03*
%TD*%
D24*
%TO.C,Q11*%
X93980000Y-90170000D03*
D25*
X95250000Y-90170000D03*
X96520000Y-90170000D03*
%TD*%
D17*
%TO.C,REF\u002A\u002A*%
X75565000Y-140970000D03*
%TD*%
D20*
%TO.C,Q1*%
X76835000Y-76200000D03*
D21*
X76835000Y-73660000D03*
X76835000Y-71120000D03*
%TD*%
D10*
%TO.C,R9*%
X109220000Y-97790000D03*
D11*
X99060000Y-97790000D03*
%TD*%
D29*
%TO.C,U2*%
X75565000Y-124770000D03*
D30*
X78105000Y-124770000D03*
X80645000Y-124770000D03*
%TD*%
D26*
%TO.C,C2-1*%
X78740000Y-106680000D03*
D10*
X74940000Y-106680000D03*
%TD*%
D22*
%TO.C,J4*%
X120650000Y-78105000D03*
D23*
X120650000Y-75565000D03*
%TD*%
D10*
%TO.C,R2*%
X74295000Y-131445000D03*
D11*
X84455000Y-131445000D03*
%TD*%
D20*
%TO.C,Q8*%
X105410000Y-76200000D03*
D21*
X105410000Y-73660000D03*
X105410000Y-71120000D03*
%TD*%
D10*
%TO.C,R11*%
X77470000Y-91440000D03*
D11*
X77470000Y-81280000D03*
%TD*%
D22*
%TO.C,J9*%
X93345000Y-141605000D03*
D23*
X95885000Y-141605000D03*
X98425000Y-141605000D03*
X100965000Y-141605000D03*
%TD*%
D24*
%TO.C,Q9*%
X80645000Y-89895000D03*
D25*
X81915000Y-89895000D03*
X83185000Y-89895000D03*
%TD*%
D20*
%TO.C,Q3*%
X88265000Y-76200000D03*
D21*
X88265000Y-73660000D03*
X88265000Y-71120000D03*
%TD*%
D10*
%TO.C,R5*%
X87630000Y-81280000D03*
D11*
X87630000Y-91440000D03*
%TD*%
D22*
%TO.C,J5*%
X74930000Y-135255000D03*
D23*
X77470000Y-135255000D03*
%TD*%
D18*
%TO.C,J3*%
X109855000Y-57150000D03*
D19*
X104855000Y-57150000D03*
%TD*%
D10*
%TO.C,C7*%
X88900000Y-65405000D03*
X88900000Y-62905000D03*
%TD*%
%TO.C,C4*%
X98486391Y-123190000D03*
X95986391Y-123190000D03*
%TD*%
%TO.C,R13*%
X96520000Y-97790000D03*
D11*
X86360000Y-97790000D03*
%TD*%
D15*
%TO.C,D7*%
X118745000Y-126095063D03*
D31*
X118745000Y-123555063D03*
%TD*%
D10*
%TO.C,R18*%
X111760000Y-94615000D03*
D11*
X121920000Y-94615000D03*
%TD*%
D10*
%TO.C,R14*%
X86360000Y-94615000D03*
D11*
X96520000Y-94615000D03*
%TD*%
D32*
%TO.C,J2*%
X83185000Y-56515000D03*
D33*
X88265000Y-56515000D03*
X93345000Y-56515000D03*
X98425000Y-56515000D03*
%TD*%
D15*
%TO.C,D2*%
X110490000Y-64770000D03*
D16*
X102870000Y-64770000D03*
%TD*%
D26*
%TO.C,C2-4*%
X105307651Y-106680000D03*
D10*
X101507651Y-106680000D03*
%TD*%
D15*
%TO.C,D6*%
X113030000Y-124460000D03*
D16*
X105410000Y-124460000D03*
%TD*%
D10*
%TO.C,R1*%
X111125000Y-109855000D03*
D11*
X121285000Y-109855000D03*
%TD*%
D17*
%TO.C,REF\u002A\u002A*%
X75565000Y-55245000D03*
%TD*%
D10*
%TO.C,R17*%
X121920000Y-97790000D03*
D11*
X111760000Y-97790000D03*
%TD*%
D15*
%TO.C,D5*%
X116495513Y-129818211D03*
D16*
X116495513Y-137438211D03*
%TD*%
D20*
%TO.C,Q13*%
X111125000Y-76200000D03*
D21*
X111125000Y-73660000D03*
X111125000Y-71120000D03*
%TD*%
D22*
%TO.C,J6*%
X81280000Y-141605000D03*
D23*
X83820000Y-141605000D03*
X86360000Y-141605000D03*
X88900000Y-141605000D03*
%TD*%
D26*
%TO.C,C2-2*%
X87527651Y-106680000D03*
D10*
X83727651Y-106680000D03*
%TD*%
%TO.C,R16*%
X115570000Y-91440000D03*
D11*
X115570000Y-81280000D03*
%TD*%
D15*
%TO.C,D1*%
X92710000Y-123825000D03*
D16*
X85090000Y-123825000D03*
%TD*%
D24*
%TO.C,Q15*%
X118745000Y-89895000D03*
D25*
X120015000Y-89895000D03*
X121285000Y-89895000D03*
%TD*%
D10*
%TO.C,C1-1*%
X114300000Y-119380000D03*
X111800000Y-119380000D03*
%TD*%
D24*
%TO.C,Q6*%
X93980000Y-84815000D03*
D25*
X95250000Y-84815000D03*
X96520000Y-84815000D03*
%TD*%
D20*
%TO.C,Q4*%
X99695000Y-76200000D03*
D21*
X99695000Y-73660000D03*
X99695000Y-71120000D03*
%TD*%
D10*
%TO.C,R7*%
X103505000Y-91440000D03*
D11*
X103505000Y-81280000D03*
%TD*%
M02*
