%TF.GenerationSoftware,KiCad,Pcbnew,7.0.6*%
%TF.CreationDate,2023-08-09T12:25:16+03:00*%
%TF.ProjectId,atmegaStepperDriver,61746d65-6761-4537-9465-707065724472,v0.7.1*%
%TF.SameCoordinates,Original*%
%TF.FileFunction,Drillmap*%
%TF.FilePolarity,Positive*%
%FSLAX45Y45*%
G04 Gerber Fmt 4.5, Leading zero omitted, Abs format (unit mm)*
G04 Created by KiCad (PCBNEW 7.0.6) date 2023-08-09 12:25:16*
%MOMM*%
%LPD*%
G01*
G04 APERTURE LIST*
%ADD10C,0.100000*%
%ADD11C,0.200000*%
%ADD12C,0.010000*%
%ADD13C,0.040000*%
%ADD14C,0.075000*%
%ADD15C,0.080000*%
%ADD16C,0.090000*%
%ADD17C,0.110000*%
%ADD18C,0.130000*%
%ADD19C,0.152000*%
G04 APERTURE END LIST*
D10*
X6540500Y-4540250D02*
X11684000Y-4540250D01*
X11684000Y-13747750D01*
X6540500Y-13747750D01*
X6540500Y-4540250D01*
D11*
D12*
X7170500Y-11044000D02*
X7180500Y-11054000D01*
X7180500Y-11044000D02*
X7170500Y-11054000D01*
X7170500Y-11552000D02*
X7180500Y-11562000D01*
X7180500Y-11552000D02*
X7170500Y-11562000D01*
X7869000Y-11869500D02*
X7879000Y-11879500D01*
X7879000Y-11869500D02*
X7869000Y-11879500D01*
X8123000Y-10726500D02*
X8133000Y-10736500D01*
X8133000Y-10726500D02*
X8123000Y-10736500D01*
X8123000Y-11742500D02*
X8133000Y-11752500D01*
X8133000Y-11742500D02*
X8123000Y-11752500D01*
X8440500Y-10663000D02*
X8450500Y-10673000D01*
X8450500Y-10663000D02*
X8440500Y-10673000D01*
X8694500Y-10980500D02*
X8704500Y-10990500D01*
X8704500Y-10980500D02*
X8694500Y-10990500D01*
X9075500Y-10345500D02*
X9085500Y-10355500D01*
X9085500Y-10345500D02*
X9075500Y-10355500D01*
X10917000Y-7615000D02*
X10927000Y-7625000D01*
X10927000Y-7615000D02*
X10917000Y-7625000D01*
X10917000Y-7932500D02*
X10927000Y-7942500D01*
X10927000Y-7932500D02*
X10917000Y-7942500D01*
X11107500Y-7107000D02*
X11117500Y-7117000D01*
X11117500Y-7107000D02*
X11107500Y-7117000D01*
X11552000Y-12631500D02*
X11562000Y-12641500D01*
X11562000Y-12631500D02*
X11552000Y-12641500D01*
D13*
X7513000Y-9525000D02*
G75*
G03*
X7513000Y-9525000I-20000J0D01*
G01*
X8719500Y-9525000D02*
G75*
G03*
X8719500Y-9525000I-20000J0D01*
G01*
X9799000Y-9525000D02*
G75*
G03*
X9799000Y-9525000I-20000J0D01*
G01*
X11577000Y-9588500D02*
G75*
G03*
X11577000Y-9588500I-20000J0D01*
G01*
D14*
X7460500Y-7618500D02*
X7460500Y-7693500D01*
X7423000Y-7656000D02*
X7498000Y-7656000D01*
X7460500Y-8281000D02*
X7460500Y-8356000D01*
X7423000Y-8318500D02*
X7498000Y-8318500D01*
X7587500Y-7618500D02*
X7587500Y-7693500D01*
X7550000Y-7656000D02*
X7625000Y-7656000D01*
X7587500Y-8281000D02*
X7587500Y-8356000D01*
X7550000Y-8318500D02*
X7625000Y-8318500D01*
X7714500Y-7618500D02*
X7714500Y-7693500D01*
X7677000Y-7656000D02*
X7752000Y-7656000D01*
X7714500Y-8281000D02*
X7714500Y-8356000D01*
X7677000Y-8318500D02*
X7752000Y-8318500D01*
X8730500Y-7646000D02*
X8730500Y-7721000D01*
X8693000Y-7683500D02*
X8768000Y-7683500D01*
X8730500Y-8281000D02*
X8730500Y-8356000D01*
X8693000Y-8318500D02*
X8768000Y-8318500D01*
X8857500Y-7646000D02*
X8857500Y-7721000D01*
X8820000Y-7683500D02*
X8895000Y-7683500D01*
X8857500Y-8281000D02*
X8857500Y-8356000D01*
X8820000Y-8318500D02*
X8895000Y-8318500D01*
X8984500Y-7646000D02*
X8984500Y-7721000D01*
X8947000Y-7683500D02*
X9022000Y-7683500D01*
X8984500Y-8281000D02*
X8984500Y-8356000D01*
X8947000Y-8318500D02*
X9022000Y-8318500D01*
X10000500Y-7582500D02*
X10000500Y-7657500D01*
X9963000Y-7620000D02*
X10038000Y-7620000D01*
X10000500Y-8281000D02*
X10000500Y-8356000D01*
X9963000Y-8318500D02*
X10038000Y-8318500D01*
X10127500Y-7582500D02*
X10127500Y-7657500D01*
X10090000Y-7620000D02*
X10165000Y-7620000D01*
X10127500Y-8281000D02*
X10127500Y-8356000D01*
X10090000Y-8318500D02*
X10165000Y-8318500D01*
X10254500Y-7582500D02*
X10254500Y-7657500D01*
X10217000Y-7620000D02*
X10292000Y-7620000D01*
X10254500Y-8281000D02*
X10254500Y-8356000D01*
X10217000Y-8318500D02*
X10292000Y-8318500D01*
X11270500Y-7582500D02*
X11270500Y-7657500D01*
X11233000Y-7620000D02*
X11308000Y-7620000D01*
X11270500Y-8281000D02*
X11270500Y-8356000D01*
X11233000Y-8318500D02*
X11308000Y-8318500D01*
X11397500Y-7582500D02*
X11397500Y-7657500D01*
X11360000Y-7620000D02*
X11435000Y-7620000D01*
X11397500Y-8281000D02*
X11397500Y-8356000D01*
X11360000Y-8318500D02*
X11435000Y-8318500D01*
X11524500Y-7582500D02*
X11524500Y-7657500D01*
X11487000Y-7620000D02*
X11562000Y-7620000D01*
X11524500Y-8281000D02*
X11524500Y-8356000D01*
X11487000Y-8318500D02*
X11562000Y-8318500D01*
D15*
X6695784Y-8854785D02*
X6695784Y-8798216D01*
X6639215Y-8798216D01*
X6639215Y-8854785D01*
X6695784Y-8854785D01*
X6695784Y-9299285D02*
X6695784Y-9242716D01*
X6639215Y-9242716D01*
X6639215Y-9299285D01*
X6695784Y-9299285D01*
X6759284Y-11585284D02*
X6759284Y-11528715D01*
X6702715Y-11528715D01*
X6702715Y-11585284D01*
X6759284Y-11585284D01*
X6822784Y-10505785D02*
X6822784Y-10449216D01*
X6766215Y-10449216D01*
X6766215Y-10505785D01*
X6822784Y-10505785D01*
X6822784Y-11267784D02*
X6822784Y-11211215D01*
X6766215Y-11211215D01*
X6766215Y-11267784D01*
X6822784Y-11267784D01*
X6853651Y-7463290D02*
X6853651Y-7406721D01*
X6797082Y-7406721D01*
X6797082Y-7463290D01*
X6853651Y-7463290D01*
X6853651Y-8479290D02*
X6853651Y-8422721D01*
X6797082Y-8422721D01*
X6797082Y-8479290D01*
X6853651Y-8479290D01*
X7013284Y-9743785D02*
X7013284Y-9687216D01*
X6956715Y-9687216D01*
X6956715Y-9743785D01*
X7013284Y-9743785D01*
X7013284Y-10123785D02*
X7013284Y-10067216D01*
X6956715Y-10067216D01*
X6956715Y-10123785D01*
X7013284Y-10123785D01*
X7076784Y-10505785D02*
X7076784Y-10449216D01*
X7020215Y-10449216D01*
X7020215Y-10505785D01*
X7076784Y-10505785D01*
X7076784Y-11267784D02*
X7076784Y-11211215D01*
X7020215Y-11211215D01*
X7020215Y-11267784D01*
X7076784Y-11267784D01*
X7171284Y-7457784D02*
X7171284Y-7401215D01*
X7114715Y-7401215D01*
X7114715Y-7457784D01*
X7171284Y-7457784D01*
X7171284Y-8473785D02*
X7171284Y-8417216D01*
X7114715Y-8417216D01*
X7114715Y-8473785D01*
X7171284Y-8473785D01*
X7330784Y-10505785D02*
X7330784Y-10449216D01*
X7274215Y-10449216D01*
X7274215Y-10505785D01*
X7330784Y-10505785D01*
X7330784Y-11267784D02*
X7330784Y-11211215D01*
X7274215Y-11211215D01*
X7274215Y-11267784D01*
X7330784Y-11267784D01*
X7584784Y-10505785D02*
X7584784Y-10449216D01*
X7528215Y-10449216D01*
X7528215Y-10505785D01*
X7584784Y-10505785D01*
X7584784Y-11267784D02*
X7584784Y-11211215D01*
X7528215Y-11211215D01*
X7528215Y-11267784D01*
X7584784Y-11267784D01*
X7711784Y-8854785D02*
X7711784Y-8798216D01*
X7655215Y-8798216D01*
X7655215Y-8854785D01*
X7711784Y-8854785D01*
X7711784Y-9299285D02*
X7711784Y-9242716D01*
X7655215Y-9242716D01*
X7655215Y-9299285D01*
X7711784Y-9299285D01*
X7775284Y-11585284D02*
X7775284Y-11528715D01*
X7718715Y-11528715D01*
X7718715Y-11585284D01*
X7775284Y-11585284D01*
X7838784Y-10505785D02*
X7838784Y-10449216D01*
X7782215Y-10449216D01*
X7782215Y-10505785D01*
X7838784Y-10505785D01*
X7838784Y-11267784D02*
X7838784Y-11211215D01*
X7782215Y-11211215D01*
X7782215Y-11267784D01*
X7838784Y-11267784D01*
X7965784Y-8854785D02*
X7965784Y-8798216D01*
X7909215Y-8798216D01*
X7909215Y-8854785D01*
X7965784Y-8854785D01*
X7965784Y-9299285D02*
X7965784Y-9242716D01*
X7909215Y-9242716D01*
X7909215Y-9299285D01*
X7965784Y-9299285D01*
X8092784Y-10505785D02*
X8092784Y-10449216D01*
X8036215Y-10449216D01*
X8036215Y-10505785D01*
X8092784Y-10505785D01*
X8092784Y-11267784D02*
X8092784Y-11211215D01*
X8036215Y-11211215D01*
X8036215Y-11267784D01*
X8092784Y-11267784D01*
X8123784Y-7457784D02*
X8123784Y-7401215D01*
X8067215Y-7401215D01*
X8067215Y-7457784D01*
X8123784Y-7457784D01*
X8123784Y-8473785D02*
X8123784Y-8417216D01*
X8067215Y-8417216D01*
X8067215Y-8473785D01*
X8123784Y-8473785D01*
X8156284Y-9734550D02*
X8156284Y-9677981D01*
X8099715Y-9677981D01*
X8099715Y-9734550D01*
X8156284Y-9734550D01*
X8156284Y-10114550D02*
X8156284Y-10057981D01*
X8099715Y-10057981D01*
X8099715Y-10114550D01*
X8156284Y-10114550D01*
X8188089Y-13174840D02*
X8188089Y-13118271D01*
X8131520Y-13118271D01*
X8131520Y-13174840D01*
X8188089Y-13174840D01*
X8188784Y-5616284D02*
X8188784Y-5559716D01*
X8132215Y-5559716D01*
X8132215Y-5616284D01*
X8188784Y-5616284D01*
X8188784Y-5866284D02*
X8188784Y-5809715D01*
X8132215Y-5809715D01*
X8132215Y-5866284D01*
X8188784Y-5866284D01*
X8346784Y-10505785D02*
X8346784Y-10449216D01*
X8290215Y-10449216D01*
X8290215Y-10505785D01*
X8346784Y-10505785D01*
X8346784Y-11267784D02*
X8346784Y-11211215D01*
X8290215Y-11211215D01*
X8290215Y-11267784D01*
X8346784Y-11267784D01*
X8438089Y-13174840D02*
X8438089Y-13118271D01*
X8381520Y-13118271D01*
X8381520Y-13174840D01*
X8438089Y-13174840D01*
X8441285Y-7457784D02*
X8441285Y-7401215D01*
X8384715Y-7401215D01*
X8384715Y-7457784D01*
X8441285Y-7457784D01*
X8441285Y-8473785D02*
X8441285Y-8417216D01*
X8384715Y-8417216D01*
X8384715Y-8473785D01*
X8441285Y-8473785D01*
X8506285Y-5616284D02*
X8506285Y-5559716D01*
X8449716Y-5559716D01*
X8449716Y-5616284D01*
X8506285Y-5616284D01*
X8506285Y-5866284D02*
X8506285Y-5809715D01*
X8449716Y-5809715D01*
X8449716Y-5866284D01*
X8506285Y-5866284D01*
X8600785Y-10505785D02*
X8600785Y-10449216D01*
X8544216Y-10449216D01*
X8544216Y-10505785D01*
X8600785Y-10505785D01*
X8600785Y-11267784D02*
X8600785Y-11211215D01*
X8544216Y-11211215D01*
X8544216Y-11267784D01*
X8600785Y-11267784D01*
X8854785Y-10505785D02*
X8854785Y-10449216D01*
X8798216Y-10449216D01*
X8798216Y-10505785D01*
X8854785Y-10505785D01*
X8854785Y-11267784D02*
X8854785Y-11211215D01*
X8798216Y-11211215D01*
X8798216Y-11267784D01*
X8854785Y-11267784D01*
X8918285Y-12033784D02*
X8918285Y-11977215D01*
X8861716Y-11977215D01*
X8861716Y-12033784D01*
X8918285Y-12033784D01*
X8918285Y-12283784D02*
X8918285Y-12227215D01*
X8861716Y-12227215D01*
X8861716Y-12283784D01*
X8918285Y-12283784D01*
X8922285Y-12601284D02*
X8922285Y-12544715D01*
X8865716Y-12544715D01*
X8865716Y-12601284D01*
X8922285Y-12601284D01*
X8922285Y-12851284D02*
X8922285Y-12794715D01*
X8865716Y-12794715D01*
X8865716Y-12851284D01*
X8922285Y-12851284D01*
X8981785Y-8854785D02*
X8981785Y-8798216D01*
X8925216Y-8798216D01*
X8925216Y-8854785D01*
X8981785Y-8854785D01*
X8981785Y-9299285D02*
X8981785Y-9242716D01*
X8925216Y-9242716D01*
X8925216Y-9299285D01*
X8981785Y-9299285D01*
X9108785Y-10505785D02*
X9108785Y-10449216D01*
X9052216Y-10449216D01*
X9052216Y-10505785D01*
X9108785Y-10505785D01*
X9108785Y-11267784D02*
X9108785Y-11211215D01*
X9052216Y-11211215D01*
X9052216Y-11267784D01*
X9108785Y-11267784D01*
X9172285Y-11585284D02*
X9172285Y-11528715D01*
X9115716Y-11528715D01*
X9115716Y-11585284D01*
X9172285Y-11585284D01*
X9235785Y-8791285D02*
X9235785Y-8734716D01*
X9179216Y-8734716D01*
X9179216Y-8791285D01*
X9235785Y-8791285D01*
X9235785Y-9299285D02*
X9235785Y-9242716D01*
X9179216Y-9242716D01*
X9179216Y-9299285D01*
X9235785Y-9299285D01*
X9299285Y-9734550D02*
X9299285Y-9677981D01*
X9242716Y-9677981D01*
X9242716Y-9734550D01*
X9299285Y-9734550D01*
X9299285Y-10114550D02*
X9299285Y-10057981D01*
X9242716Y-10057981D01*
X9242716Y-10114550D01*
X9299285Y-10114550D01*
X9362785Y-10505785D02*
X9362785Y-10449216D01*
X9306216Y-10449216D01*
X9306216Y-10505785D01*
X9362785Y-10505785D01*
X9362785Y-11267784D02*
X9362785Y-11211215D01*
X9306216Y-11211215D01*
X9306216Y-11267784D01*
X9362785Y-11267784D01*
X9393785Y-7394284D02*
X9393785Y-7337715D01*
X9337216Y-7337715D01*
X9337216Y-7394284D01*
X9393785Y-7394284D01*
X9393785Y-8410285D02*
X9393785Y-8353715D01*
X9337216Y-8353715D01*
X9337216Y-8410285D01*
X9393785Y-8410285D01*
X9422285Y-11585284D02*
X9422285Y-11528715D01*
X9365716Y-11528715D01*
X9365716Y-11585284D01*
X9422285Y-11585284D01*
X9616785Y-10505785D02*
X9616785Y-10449216D01*
X9560216Y-10449216D01*
X9560216Y-10505785D01*
X9616785Y-10505785D01*
X9616785Y-11267784D02*
X9616785Y-11211215D01*
X9560216Y-11211215D01*
X9560216Y-11267784D01*
X9616785Y-11267784D01*
X9711285Y-7394284D02*
X9711285Y-7337715D01*
X9654716Y-7337715D01*
X9654716Y-7394284D01*
X9711285Y-7394284D01*
X9711285Y-8410285D02*
X9711285Y-8353715D01*
X9654716Y-8353715D01*
X9654716Y-8410285D01*
X9711285Y-8410285D01*
X9870785Y-10505785D02*
X9870785Y-10449216D01*
X9814216Y-10449216D01*
X9814216Y-10505785D01*
X9870785Y-10505785D01*
X9870785Y-11267784D02*
X9870785Y-11211215D01*
X9814216Y-11211215D01*
X9814216Y-11267784D01*
X9870785Y-11267784D01*
X10124785Y-10505785D02*
X10124785Y-10449216D01*
X10068216Y-10449216D01*
X10068216Y-10505785D01*
X10124785Y-10505785D01*
X10124785Y-11267784D02*
X10124785Y-11211215D01*
X10068216Y-11211215D01*
X10068216Y-11267784D01*
X10124785Y-11267784D01*
X10251785Y-8791285D02*
X10251785Y-8734716D01*
X10195216Y-8734716D01*
X10195216Y-8791285D01*
X10251785Y-8791285D01*
X10251785Y-9299285D02*
X10251785Y-9242716D01*
X10195216Y-9242716D01*
X10195216Y-9299285D01*
X10251785Y-9299285D01*
X10442285Y-9734550D02*
X10442285Y-9677981D01*
X10385716Y-9677981D01*
X10385716Y-9734550D01*
X10442285Y-9734550D01*
X10442285Y-10114550D02*
X10442285Y-10057981D01*
X10385716Y-10057981D01*
X10385716Y-10114550D01*
X10442285Y-10114550D01*
X10505785Y-8791285D02*
X10505785Y-8734716D01*
X10449216Y-8734716D01*
X10449216Y-8791285D01*
X10505785Y-8791285D01*
X10505785Y-9299285D02*
X10505785Y-9242716D01*
X10449216Y-9242716D01*
X10449216Y-9299285D01*
X10505785Y-9299285D01*
X10505785Y-10505785D02*
X10505785Y-10449216D01*
X10449216Y-10449216D01*
X10449216Y-10505785D01*
X10505785Y-10505785D01*
X10573285Y-11394784D02*
X10573285Y-11338215D01*
X10516716Y-11338215D01*
X10516716Y-11394784D01*
X10573285Y-11394784D01*
X10663785Y-7394284D02*
X10663785Y-7337715D01*
X10607216Y-7337715D01*
X10607216Y-7394284D01*
X10663785Y-7394284D01*
X10663785Y-8410285D02*
X10663785Y-8353715D01*
X10607216Y-8353715D01*
X10607216Y-8410285D01*
X10663785Y-8410285D01*
X10696285Y-10950285D02*
X10696285Y-10893716D01*
X10639716Y-10893716D01*
X10639716Y-10950285D01*
X10696285Y-10950285D01*
X10823285Y-11394784D02*
X10823285Y-11338215D01*
X10766716Y-11338215D01*
X10766716Y-11394784D01*
X10823285Y-11394784D01*
X10981285Y-7394284D02*
X10981285Y-7337715D01*
X10924716Y-7337715D01*
X10924716Y-7394284D01*
X10981285Y-7394284D01*
X10981285Y-8410285D02*
X10981285Y-8353715D01*
X10924716Y-8353715D01*
X10924716Y-8410285D01*
X10981285Y-8410285D01*
X11144785Y-11394784D02*
X11144785Y-11338215D01*
X11088216Y-11338215D01*
X11088216Y-11394784D01*
X11144785Y-11394784D01*
X11184285Y-10950285D02*
X11184285Y-10893716D01*
X11127716Y-10893716D01*
X11127716Y-10950285D01*
X11184285Y-10950285D01*
X11394784Y-11394784D02*
X11394784Y-11338215D01*
X11338215Y-11338215D01*
X11338215Y-11394784D01*
X11394784Y-11394784D01*
X11521784Y-8791285D02*
X11521784Y-8734716D01*
X11465215Y-8734716D01*
X11465215Y-8791285D01*
X11521784Y-8791285D01*
X11521784Y-9299285D02*
X11521784Y-9242716D01*
X11465215Y-9242716D01*
X11465215Y-9299285D01*
X11521784Y-9299285D01*
X11521784Y-10505785D02*
X11521784Y-10449216D01*
X11465215Y-10449216D01*
X11465215Y-10505785D01*
X11521784Y-10505785D01*
D16*
X7112000Y-4807500D02*
X7157000Y-4762500D01*
X7112000Y-4717500D01*
X7067000Y-4762500D01*
X7112000Y-4807500D01*
X7112000Y-5569500D02*
X7157000Y-5524500D01*
X7112000Y-5479500D01*
X7067000Y-5524500D01*
X7112000Y-5569500D01*
X7112000Y-5887000D02*
X7157000Y-5842000D01*
X7112000Y-5797000D01*
X7067000Y-5842000D01*
X7112000Y-5887000D01*
X7874000Y-5887000D02*
X7919000Y-5842000D01*
X7874000Y-5797000D01*
X7829000Y-5842000D01*
X7874000Y-5887000D01*
X8064500Y-11602000D02*
X8109500Y-11557000D01*
X8064500Y-11512000D01*
X8019500Y-11557000D01*
X8064500Y-11602000D01*
X8763000Y-5887000D02*
X8808000Y-5842000D01*
X8763000Y-5797000D01*
X8718000Y-5842000D01*
X8763000Y-5887000D01*
X8826500Y-11602000D02*
X8871500Y-11557000D01*
X8826500Y-11512000D01*
X8781500Y-11557000D01*
X8826500Y-11602000D01*
X9525000Y-4807500D02*
X9570000Y-4762500D01*
X9525000Y-4717500D01*
X9480000Y-4762500D01*
X9525000Y-4807500D01*
X9525000Y-5569500D02*
X9570000Y-5524500D01*
X9525000Y-5479500D01*
X9480000Y-5524500D01*
X9525000Y-5569500D01*
X9525000Y-5887000D02*
X9570000Y-5842000D01*
X9525000Y-5797000D01*
X9480000Y-5842000D01*
X9525000Y-5887000D01*
X10350500Y-11729000D02*
X10395500Y-11684000D01*
X10350500Y-11639000D01*
X10305500Y-11684000D01*
X10350500Y-11729000D01*
X10350500Y-12491000D02*
X10395500Y-12446000D01*
X10350500Y-12401000D01*
X10305500Y-12446000D01*
X10350500Y-12491000D01*
X10350500Y-12745000D02*
X10395500Y-12700000D01*
X10350500Y-12655000D01*
X10305500Y-12700000D01*
X10350500Y-12745000D01*
X10350500Y-13507000D02*
X10395500Y-13462000D01*
X10350500Y-13417000D01*
X10305500Y-13462000D01*
X10350500Y-13507000D01*
X10731500Y-13253000D02*
X10776500Y-13208000D01*
X10731500Y-13163000D01*
X10686500Y-13208000D01*
X10731500Y-13253000D01*
X11049000Y-5188500D02*
X11094000Y-5143500D01*
X11049000Y-5098500D01*
X11004000Y-5143500D01*
X11049000Y-5188500D01*
X11049000Y-5950500D02*
X11094000Y-5905500D01*
X11049000Y-5860500D01*
X11004000Y-5905500D01*
X11049000Y-5950500D01*
X11430000Y-5188500D02*
X11475000Y-5143500D01*
X11430000Y-5098500D01*
X11385000Y-5143500D01*
X11430000Y-5188500D01*
X11430000Y-5950500D02*
X11475000Y-5905500D01*
X11430000Y-5860500D01*
X11385000Y-5905500D01*
X11430000Y-5950500D01*
X11493500Y-13253000D02*
X11538500Y-13208000D01*
X11493500Y-13163000D01*
X11448500Y-13208000D01*
X11493500Y-13253000D01*
D10*
X6681000Y-13475500D02*
X6781000Y-13575500D01*
X6781000Y-13475500D02*
X6681000Y-13575500D01*
X6781000Y-13525500D02*
G75*
G03*
X6781000Y-13525500I-50000J0D01*
G01*
X6744500Y-13094500D02*
X6844500Y-13194500D01*
X6844500Y-13094500D02*
X6744500Y-13194500D01*
X6844500Y-13144500D02*
G75*
G03*
X6844500Y-13144500I-50000J0D01*
G01*
X6935000Y-13475500D02*
X7035000Y-13575500D01*
X7035000Y-13475500D02*
X6935000Y-13575500D01*
X7035000Y-13525500D02*
G75*
G03*
X7035000Y-13525500I-50000J0D01*
G01*
X6998500Y-13094500D02*
X7098500Y-13194500D01*
X7098500Y-13094500D02*
X6998500Y-13194500D01*
X7098500Y-13144500D02*
G75*
G03*
X7098500Y-13144500I-50000J0D01*
G01*
X7189000Y-13475500D02*
X7289000Y-13575500D01*
X7289000Y-13475500D02*
X7189000Y-13575500D01*
X7289000Y-13525500D02*
G75*
G03*
X7289000Y-13525500I-50000J0D01*
G01*
X7252500Y-13094500D02*
X7352500Y-13194500D01*
X7352500Y-13094500D02*
X7252500Y-13194500D01*
X7352500Y-13144500D02*
G75*
G03*
X7352500Y-13144500I-50000J0D01*
G01*
X7443000Y-13475500D02*
X7543000Y-13575500D01*
X7543000Y-13475500D02*
X7443000Y-13575500D01*
X7543000Y-13525500D02*
G75*
G03*
X7543000Y-13525500I-50000J0D01*
G01*
X7506500Y-13094500D02*
X7606500Y-13194500D01*
X7606500Y-13094500D02*
X7506500Y-13194500D01*
X7606500Y-13144500D02*
G75*
G03*
X7606500Y-13144500I-50000J0D01*
G01*
X7760500Y-13094500D02*
X7860500Y-13194500D01*
X7860500Y-13094500D02*
X7760500Y-13194500D01*
X7860500Y-13144500D02*
G75*
G03*
X7860500Y-13144500I-50000J0D01*
G01*
X7824000Y-13475500D02*
X7924000Y-13575500D01*
X7924000Y-13475500D02*
X7824000Y-13575500D01*
X7924000Y-13525500D02*
G75*
G03*
X7924000Y-13525500I-50000J0D01*
G01*
X8078000Y-13475500D02*
X8178000Y-13575500D01*
X8178000Y-13475500D02*
X8078000Y-13575500D01*
X8178000Y-13525500D02*
G75*
G03*
X8178000Y-13525500I-50000J0D01*
G01*
X8332000Y-13475500D02*
X8432000Y-13575500D01*
X8432000Y-13475500D02*
X8332000Y-13575500D01*
X8432000Y-13525500D02*
G75*
G03*
X8432000Y-13525500I-50000J0D01*
G01*
X8586000Y-13475500D02*
X8686000Y-13575500D01*
X8686000Y-13475500D02*
X8586000Y-13575500D01*
X8686000Y-13525500D02*
G75*
G03*
X8686000Y-13525500I-50000J0D01*
G01*
X8966500Y-13475500D02*
X9066500Y-13575500D01*
X9066500Y-13475500D02*
X8966500Y-13575500D01*
X9066500Y-13525500D02*
G75*
G03*
X9066500Y-13525500I-50000J0D01*
G01*
X9220500Y-13475500D02*
X9320500Y-13575500D01*
X9320500Y-13475500D02*
X9220500Y-13575500D01*
X9320500Y-13525500D02*
G75*
G03*
X9320500Y-13525500I-50000J0D01*
G01*
X9602000Y-12023000D02*
X9702000Y-12123000D01*
X9702000Y-12023000D02*
X9602000Y-12123000D01*
X9702000Y-12073000D02*
G75*
G03*
X9702000Y-12073000I-50000J0D01*
G01*
X9602000Y-12523000D02*
X9702000Y-12623000D01*
X9702000Y-12523000D02*
X9602000Y-12623000D01*
X9702000Y-12573000D02*
G75*
G03*
X9702000Y-12573000I-50000J0D01*
G01*
D17*
X7039000Y-6295000D02*
X7149000Y-6405000D01*
X7149000Y-6295000D02*
X7039000Y-6405000D01*
X7094000Y-6295000D02*
X7094000Y-6405000D01*
X7039000Y-6350000D02*
X7149000Y-6350000D01*
X7039000Y-6549000D02*
X7149000Y-6659000D01*
X7149000Y-6549000D02*
X7039000Y-6659000D01*
X7094000Y-6549000D02*
X7094000Y-6659000D01*
X7039000Y-6604000D02*
X7149000Y-6604000D01*
X7039000Y-6803000D02*
X7149000Y-6913000D01*
X7149000Y-6803000D02*
X7039000Y-6913000D01*
X7094000Y-6803000D02*
X7094000Y-6913000D01*
X7039000Y-6858000D02*
X7149000Y-6858000D01*
X7596000Y-6295000D02*
X7706000Y-6405000D01*
X7706000Y-6295000D02*
X7596000Y-6405000D01*
X7651000Y-6295000D02*
X7651000Y-6405000D01*
X7596000Y-6350000D02*
X7706000Y-6350000D01*
X7596000Y-6549000D02*
X7706000Y-6659000D01*
X7706000Y-6549000D02*
X7596000Y-6659000D01*
X7651000Y-6549000D02*
X7651000Y-6659000D01*
X7596000Y-6604000D02*
X7706000Y-6604000D01*
X7596000Y-6803000D02*
X7706000Y-6913000D01*
X7706000Y-6803000D02*
X7596000Y-6913000D01*
X7651000Y-6803000D02*
X7651000Y-6913000D01*
X7596000Y-6858000D02*
X7706000Y-6858000D01*
X8294500Y-6295000D02*
X8404500Y-6405000D01*
X8404500Y-6295000D02*
X8294500Y-6405000D01*
X8349500Y-6295000D02*
X8349500Y-6405000D01*
X8294500Y-6350000D02*
X8404500Y-6350000D01*
X8294500Y-6549000D02*
X8404500Y-6659000D01*
X8404500Y-6549000D02*
X8294500Y-6659000D01*
X8349500Y-6549000D02*
X8349500Y-6659000D01*
X8294500Y-6604000D02*
X8404500Y-6604000D01*
X8294500Y-6803000D02*
X8404500Y-6913000D01*
X8404500Y-6803000D02*
X8294500Y-6913000D01*
X8349500Y-6803000D02*
X8349500Y-6913000D01*
X8294500Y-6858000D02*
X8404500Y-6858000D01*
X8488000Y-12073500D02*
X8598000Y-12183500D01*
X8598000Y-12073500D02*
X8488000Y-12183500D01*
X8543000Y-12073500D02*
X8543000Y-12183500D01*
X8488000Y-12128500D02*
X8598000Y-12128500D01*
X8488000Y-12327500D02*
X8598000Y-12437500D01*
X8598000Y-12327500D02*
X8488000Y-12437500D01*
X8543000Y-12327500D02*
X8543000Y-12437500D01*
X8488000Y-12382500D02*
X8598000Y-12382500D01*
X8488000Y-12581500D02*
X8598000Y-12691500D01*
X8598000Y-12581500D02*
X8488000Y-12691500D01*
X8543000Y-12581500D02*
X8543000Y-12691500D01*
X8488000Y-12636500D02*
X8598000Y-12636500D01*
X8866000Y-6295000D02*
X8976000Y-6405000D01*
X8976000Y-6295000D02*
X8866000Y-6405000D01*
X8921000Y-6295000D02*
X8921000Y-6405000D01*
X8866000Y-6350000D02*
X8976000Y-6350000D01*
X8866000Y-6549000D02*
X8976000Y-6659000D01*
X8976000Y-6549000D02*
X8866000Y-6659000D01*
X8921000Y-6549000D02*
X8921000Y-6659000D01*
X8866000Y-6604000D02*
X8976000Y-6604000D01*
X8866000Y-6803000D02*
X8976000Y-6913000D01*
X8976000Y-6803000D02*
X8866000Y-6913000D01*
X8921000Y-6803000D02*
X8921000Y-6913000D01*
X8866000Y-6858000D02*
X8976000Y-6858000D01*
X9597000Y-6295000D02*
X9707000Y-6405000D01*
X9707000Y-6295000D02*
X9597000Y-6405000D01*
X9652000Y-6295000D02*
X9652000Y-6405000D01*
X9597000Y-6350000D02*
X9707000Y-6350000D01*
X9597000Y-6549000D02*
X9707000Y-6659000D01*
X9707000Y-6549000D02*
X9597000Y-6659000D01*
X9652000Y-6549000D02*
X9652000Y-6659000D01*
X9597000Y-6604000D02*
X9707000Y-6604000D01*
X9597000Y-6803000D02*
X9707000Y-6913000D01*
X9707000Y-6803000D02*
X9597000Y-6913000D01*
X9652000Y-6803000D02*
X9652000Y-6913000D01*
X9597000Y-6858000D02*
X9707000Y-6858000D01*
X10136000Y-6295000D02*
X10246000Y-6405000D01*
X10246000Y-6295000D02*
X10136000Y-6405000D01*
X10191000Y-6295000D02*
X10191000Y-6405000D01*
X10136000Y-6350000D02*
X10246000Y-6350000D01*
X10136000Y-6549000D02*
X10246000Y-6659000D01*
X10246000Y-6549000D02*
X10136000Y-6659000D01*
X10191000Y-6549000D02*
X10191000Y-6659000D01*
X10136000Y-6604000D02*
X10246000Y-6604000D01*
X10136000Y-6803000D02*
X10246000Y-6913000D01*
X10246000Y-6803000D02*
X10136000Y-6913000D01*
X10191000Y-6803000D02*
X10191000Y-6913000D01*
X10136000Y-6858000D02*
X10246000Y-6858000D01*
X10771000Y-6295000D02*
X10881000Y-6405000D01*
X10881000Y-6295000D02*
X10771000Y-6405000D01*
X10826000Y-6295000D02*
X10826000Y-6405000D01*
X10771000Y-6350000D02*
X10881000Y-6350000D01*
X10771000Y-6549000D02*
X10881000Y-6659000D01*
X10881000Y-6549000D02*
X10771000Y-6659000D01*
X10826000Y-6549000D02*
X10826000Y-6659000D01*
X10771000Y-6604000D02*
X10881000Y-6604000D01*
X10771000Y-6803000D02*
X10881000Y-6913000D01*
X10881000Y-6803000D02*
X10771000Y-6913000D01*
X10826000Y-6803000D02*
X10826000Y-6913000D01*
X10771000Y-6858000D02*
X10881000Y-6858000D01*
X11310000Y-6295000D02*
X11420000Y-6405000D01*
X11420000Y-6295000D02*
X11310000Y-6405000D01*
X11365000Y-6295000D02*
X11365000Y-6405000D01*
X11310000Y-6350000D02*
X11420000Y-6350000D01*
X11310000Y-6549000D02*
X11420000Y-6659000D01*
X11420000Y-6549000D02*
X11310000Y-6659000D01*
X11365000Y-6549000D02*
X11365000Y-6659000D01*
X11310000Y-6604000D02*
X11420000Y-6604000D01*
X11310000Y-6803000D02*
X11420000Y-6913000D01*
X11420000Y-6803000D02*
X11310000Y-6913000D01*
X11365000Y-6803000D02*
X11365000Y-6913000D01*
X11310000Y-6858000D02*
X11420000Y-6858000D01*
D18*
X9976000Y-5172500D02*
X10106000Y-5302500D01*
X10106000Y-5172500D02*
X9976000Y-5302500D01*
X10086962Y-5283462D02*
X10086962Y-5191538D01*
X9995038Y-5191538D01*
X9995038Y-5283462D01*
X10086962Y-5283462D01*
X10476000Y-5172500D02*
X10606000Y-5302500D01*
X10606000Y-5172500D02*
X10476000Y-5302500D01*
X10586962Y-5283462D02*
X10586962Y-5191538D01*
X10495038Y-5191538D01*
X10495038Y-5283462D01*
X10586962Y-5283462D01*
X11017000Y-12131000D02*
X11147000Y-12261000D01*
X11147000Y-12131000D02*
X11017000Y-12261000D01*
X11127962Y-12241962D02*
X11127962Y-12150038D01*
X11036038Y-12150038D01*
X11036038Y-12241962D01*
X11127962Y-12241962D01*
X11017000Y-12631000D02*
X11147000Y-12761000D01*
X11147000Y-12631000D02*
X11017000Y-12761000D01*
X11127962Y-12741962D02*
X11127962Y-12650038D01*
X11036038Y-12650038D01*
X11036038Y-12741962D01*
X11127962Y-12741962D01*
D19*
X7480500Y-4940500D02*
X7632500Y-5092500D01*
X7632500Y-4940500D02*
X7480500Y-5092500D01*
X7556500Y-5092500D02*
X7632500Y-5016500D01*
X7556500Y-4940500D01*
X7480500Y-5016500D01*
X7556500Y-5092500D01*
X7988500Y-4940500D02*
X8140500Y-5092500D01*
X8140500Y-4940500D02*
X7988500Y-5092500D01*
X8064500Y-5092500D02*
X8140500Y-5016500D01*
X8064500Y-4940500D01*
X7988500Y-5016500D01*
X8064500Y-5092500D01*
X8496500Y-4940500D02*
X8648500Y-5092500D01*
X8648500Y-4940500D02*
X8496500Y-5092500D01*
X8572500Y-5092500D02*
X8648500Y-5016500D01*
X8572500Y-4940500D01*
X8496500Y-5016500D01*
X8572500Y-5092500D01*
X9004500Y-4940500D02*
X9156500Y-5092500D01*
X9156500Y-4940500D02*
X9004500Y-5092500D01*
X9080500Y-5092500D02*
X9156500Y-5016500D01*
X9080500Y-4940500D01*
X9004500Y-5016500D01*
X9080500Y-5092500D01*
D11*
X6796277Y-14064234D02*
X6796277Y-13864234D01*
X6796277Y-13864234D02*
X6843896Y-13864234D01*
X6843896Y-13864234D02*
X6872467Y-13873758D01*
X6872467Y-13873758D02*
X6891515Y-13892805D01*
X6891515Y-13892805D02*
X6901039Y-13911853D01*
X6901039Y-13911853D02*
X6910562Y-13949948D01*
X6910562Y-13949948D02*
X6910562Y-13978519D01*
X6910562Y-13978519D02*
X6901039Y-14016615D01*
X6901039Y-14016615D02*
X6891515Y-14035662D01*
X6891515Y-14035662D02*
X6872467Y-14054710D01*
X6872467Y-14054710D02*
X6843896Y-14064234D01*
X6843896Y-14064234D02*
X6796277Y-14064234D01*
X6996277Y-14064234D02*
X6996277Y-13930900D01*
X6996277Y-13968996D02*
X7005801Y-13949948D01*
X7005801Y-13949948D02*
X7015324Y-13940424D01*
X7015324Y-13940424D02*
X7034372Y-13930900D01*
X7034372Y-13930900D02*
X7053420Y-13930900D01*
X7120086Y-14064234D02*
X7120086Y-13930900D01*
X7120086Y-13864234D02*
X7110562Y-13873758D01*
X7110562Y-13873758D02*
X7120086Y-13883281D01*
X7120086Y-13883281D02*
X7129610Y-13873758D01*
X7129610Y-13873758D02*
X7120086Y-13864234D01*
X7120086Y-13864234D02*
X7120086Y-13883281D01*
X7243896Y-14064234D02*
X7224848Y-14054710D01*
X7224848Y-14054710D02*
X7215324Y-14035662D01*
X7215324Y-14035662D02*
X7215324Y-13864234D01*
X7348658Y-14064234D02*
X7329610Y-14054710D01*
X7329610Y-14054710D02*
X7320086Y-14035662D01*
X7320086Y-14035662D02*
X7320086Y-13864234D01*
X7577229Y-14064234D02*
X7577229Y-13864234D01*
X7577229Y-13864234D02*
X7643896Y-14007091D01*
X7643896Y-14007091D02*
X7710562Y-13864234D01*
X7710562Y-13864234D02*
X7710562Y-14064234D01*
X7891515Y-14064234D02*
X7891515Y-13959472D01*
X7891515Y-13959472D02*
X7881991Y-13940424D01*
X7881991Y-13940424D02*
X7862943Y-13930900D01*
X7862943Y-13930900D02*
X7824848Y-13930900D01*
X7824848Y-13930900D02*
X7805801Y-13940424D01*
X7891515Y-14054710D02*
X7872467Y-14064234D01*
X7872467Y-14064234D02*
X7824848Y-14064234D01*
X7824848Y-14064234D02*
X7805801Y-14054710D01*
X7805801Y-14054710D02*
X7796277Y-14035662D01*
X7796277Y-14035662D02*
X7796277Y-14016615D01*
X7796277Y-14016615D02*
X7805801Y-13997567D01*
X7805801Y-13997567D02*
X7824848Y-13988043D01*
X7824848Y-13988043D02*
X7872467Y-13988043D01*
X7872467Y-13988043D02*
X7891515Y-13978519D01*
X7986753Y-13930900D02*
X7986753Y-14130900D01*
X7986753Y-13940424D02*
X8005801Y-13930900D01*
X8005801Y-13930900D02*
X8043896Y-13930900D01*
X8043896Y-13930900D02*
X8062943Y-13940424D01*
X8062943Y-13940424D02*
X8072467Y-13949948D01*
X8072467Y-13949948D02*
X8081991Y-13968996D01*
X8081991Y-13968996D02*
X8081991Y-14026138D01*
X8081991Y-14026138D02*
X8072467Y-14045186D01*
X8072467Y-14045186D02*
X8062943Y-14054710D01*
X8062943Y-14054710D02*
X8043896Y-14064234D01*
X8043896Y-14064234D02*
X8005801Y-14064234D01*
X8005801Y-14064234D02*
X7986753Y-14054710D01*
X8167705Y-14045186D02*
X8177229Y-14054710D01*
X8177229Y-14054710D02*
X8167705Y-14064234D01*
X8167705Y-14064234D02*
X8158182Y-14054710D01*
X8158182Y-14054710D02*
X8167705Y-14045186D01*
X8167705Y-14045186D02*
X8167705Y-14064234D01*
X8167705Y-13940424D02*
X8177229Y-13949948D01*
X8177229Y-13949948D02*
X8167705Y-13959472D01*
X8167705Y-13959472D02*
X8158182Y-13949948D01*
X8158182Y-13949948D02*
X8167705Y-13940424D01*
X8167705Y-13940424D02*
X8167705Y-13959472D01*
D12*
X6525500Y-14387750D02*
X6535500Y-14397750D01*
X6535500Y-14387750D02*
X6525500Y-14397750D01*
D11*
X6834372Y-14284234D02*
X6853420Y-14284234D01*
X6853420Y-14284234D02*
X6872467Y-14293758D01*
X6872467Y-14293758D02*
X6881991Y-14303281D01*
X6881991Y-14303281D02*
X6891515Y-14322329D01*
X6891515Y-14322329D02*
X6901039Y-14360424D01*
X6901039Y-14360424D02*
X6901039Y-14408043D01*
X6901039Y-14408043D02*
X6891515Y-14446138D01*
X6891515Y-14446138D02*
X6881991Y-14465186D01*
X6881991Y-14465186D02*
X6872467Y-14474710D01*
X6872467Y-14474710D02*
X6853420Y-14484234D01*
X6853420Y-14484234D02*
X6834372Y-14484234D01*
X6834372Y-14484234D02*
X6815324Y-14474710D01*
X6815324Y-14474710D02*
X6805801Y-14465186D01*
X6805801Y-14465186D02*
X6796277Y-14446138D01*
X6796277Y-14446138D02*
X6786753Y-14408043D01*
X6786753Y-14408043D02*
X6786753Y-14360424D01*
X6786753Y-14360424D02*
X6796277Y-14322329D01*
X6796277Y-14322329D02*
X6805801Y-14303281D01*
X6805801Y-14303281D02*
X6815324Y-14293758D01*
X6815324Y-14293758D02*
X6834372Y-14284234D01*
X6986753Y-14465186D02*
X6996277Y-14474710D01*
X6996277Y-14474710D02*
X6986753Y-14484234D01*
X6986753Y-14484234D02*
X6977229Y-14474710D01*
X6977229Y-14474710D02*
X6986753Y-14465186D01*
X6986753Y-14465186D02*
X6986753Y-14484234D01*
X7186753Y-14484234D02*
X7072467Y-14484234D01*
X7129610Y-14484234D02*
X7129610Y-14284234D01*
X7129610Y-14284234D02*
X7110562Y-14312805D01*
X7110562Y-14312805D02*
X7091515Y-14331853D01*
X7091515Y-14331853D02*
X7072467Y-14341377D01*
X7310562Y-14284234D02*
X7329610Y-14284234D01*
X7329610Y-14284234D02*
X7348658Y-14293758D01*
X7348658Y-14293758D02*
X7358182Y-14303281D01*
X7358182Y-14303281D02*
X7367705Y-14322329D01*
X7367705Y-14322329D02*
X7377229Y-14360424D01*
X7377229Y-14360424D02*
X7377229Y-14408043D01*
X7377229Y-14408043D02*
X7367705Y-14446138D01*
X7367705Y-14446138D02*
X7358182Y-14465186D01*
X7358182Y-14465186D02*
X7348658Y-14474710D01*
X7348658Y-14474710D02*
X7329610Y-14484234D01*
X7329610Y-14484234D02*
X7310562Y-14484234D01*
X7310562Y-14484234D02*
X7291515Y-14474710D01*
X7291515Y-14474710D02*
X7281991Y-14465186D01*
X7281991Y-14465186D02*
X7272467Y-14446138D01*
X7272467Y-14446138D02*
X7262943Y-14408043D01*
X7262943Y-14408043D02*
X7262943Y-14360424D01*
X7262943Y-14360424D02*
X7272467Y-14322329D01*
X7272467Y-14322329D02*
X7281991Y-14303281D01*
X7281991Y-14303281D02*
X7291515Y-14293758D01*
X7291515Y-14293758D02*
X7310562Y-14284234D01*
X7501039Y-14284234D02*
X7520086Y-14284234D01*
X7520086Y-14284234D02*
X7539134Y-14293758D01*
X7539134Y-14293758D02*
X7548658Y-14303281D01*
X7548658Y-14303281D02*
X7558182Y-14322329D01*
X7558182Y-14322329D02*
X7567705Y-14360424D01*
X7567705Y-14360424D02*
X7567705Y-14408043D01*
X7567705Y-14408043D02*
X7558182Y-14446138D01*
X7558182Y-14446138D02*
X7548658Y-14465186D01*
X7548658Y-14465186D02*
X7539134Y-14474710D01*
X7539134Y-14474710D02*
X7520086Y-14484234D01*
X7520086Y-14484234D02*
X7501039Y-14484234D01*
X7501039Y-14484234D02*
X7481991Y-14474710D01*
X7481991Y-14474710D02*
X7472467Y-14465186D01*
X7472467Y-14465186D02*
X7462943Y-14446138D01*
X7462943Y-14446138D02*
X7453420Y-14408043D01*
X7453420Y-14408043D02*
X7453420Y-14360424D01*
X7453420Y-14360424D02*
X7462943Y-14322329D01*
X7462943Y-14322329D02*
X7472467Y-14303281D01*
X7472467Y-14303281D02*
X7481991Y-14293758D01*
X7481991Y-14293758D02*
X7501039Y-14284234D01*
X7653420Y-14484234D02*
X7653420Y-14350900D01*
X7653420Y-14369948D02*
X7662943Y-14360424D01*
X7662943Y-14360424D02*
X7681991Y-14350900D01*
X7681991Y-14350900D02*
X7710563Y-14350900D01*
X7710563Y-14350900D02*
X7729610Y-14360424D01*
X7729610Y-14360424D02*
X7739134Y-14379472D01*
X7739134Y-14379472D02*
X7739134Y-14484234D01*
X7739134Y-14379472D02*
X7748658Y-14360424D01*
X7748658Y-14360424D02*
X7767705Y-14350900D01*
X7767705Y-14350900D02*
X7796277Y-14350900D01*
X7796277Y-14350900D02*
X7815324Y-14360424D01*
X7815324Y-14360424D02*
X7824848Y-14379472D01*
X7824848Y-14379472D02*
X7824848Y-14484234D01*
X7920086Y-14484234D02*
X7920086Y-14350900D01*
X7920086Y-14369948D02*
X7929610Y-14360424D01*
X7929610Y-14360424D02*
X7948658Y-14350900D01*
X7948658Y-14350900D02*
X7977229Y-14350900D01*
X7977229Y-14350900D02*
X7996277Y-14360424D01*
X7996277Y-14360424D02*
X8005801Y-14379472D01*
X8005801Y-14379472D02*
X8005801Y-14484234D01*
X8005801Y-14379472D02*
X8015324Y-14360424D01*
X8015324Y-14360424D02*
X8034372Y-14350900D01*
X8034372Y-14350900D02*
X8062943Y-14350900D01*
X8062943Y-14350900D02*
X8081991Y-14360424D01*
X8081991Y-14360424D02*
X8091515Y-14379472D01*
X8091515Y-14379472D02*
X8091515Y-14484234D01*
X8481991Y-14274710D02*
X8310563Y-14531853D01*
X8739134Y-14284234D02*
X8758182Y-14284234D01*
X8758182Y-14284234D02*
X8777229Y-14293758D01*
X8777229Y-14293758D02*
X8786753Y-14303281D01*
X8786753Y-14303281D02*
X8796277Y-14322329D01*
X8796277Y-14322329D02*
X8805801Y-14360424D01*
X8805801Y-14360424D02*
X8805801Y-14408043D01*
X8805801Y-14408043D02*
X8796277Y-14446138D01*
X8796277Y-14446138D02*
X8786753Y-14465186D01*
X8786753Y-14465186D02*
X8777229Y-14474710D01*
X8777229Y-14474710D02*
X8758182Y-14484234D01*
X8758182Y-14484234D02*
X8739134Y-14484234D01*
X8739134Y-14484234D02*
X8720087Y-14474710D01*
X8720087Y-14474710D02*
X8710563Y-14465186D01*
X8710563Y-14465186D02*
X8701039Y-14446138D01*
X8701039Y-14446138D02*
X8691515Y-14408043D01*
X8691515Y-14408043D02*
X8691515Y-14360424D01*
X8691515Y-14360424D02*
X8701039Y-14322329D01*
X8701039Y-14322329D02*
X8710563Y-14303281D01*
X8710563Y-14303281D02*
X8720087Y-14293758D01*
X8720087Y-14293758D02*
X8739134Y-14284234D01*
X8891515Y-14465186D02*
X8901039Y-14474710D01*
X8901039Y-14474710D02*
X8891515Y-14484234D01*
X8891515Y-14484234D02*
X8881991Y-14474710D01*
X8881991Y-14474710D02*
X8891515Y-14465186D01*
X8891515Y-14465186D02*
X8891515Y-14484234D01*
X9024848Y-14284234D02*
X9043896Y-14284234D01*
X9043896Y-14284234D02*
X9062944Y-14293758D01*
X9062944Y-14293758D02*
X9072468Y-14303281D01*
X9072468Y-14303281D02*
X9081991Y-14322329D01*
X9081991Y-14322329D02*
X9091515Y-14360424D01*
X9091515Y-14360424D02*
X9091515Y-14408043D01*
X9091515Y-14408043D02*
X9081991Y-14446138D01*
X9081991Y-14446138D02*
X9072468Y-14465186D01*
X9072468Y-14465186D02*
X9062944Y-14474710D01*
X9062944Y-14474710D02*
X9043896Y-14484234D01*
X9043896Y-14484234D02*
X9024848Y-14484234D01*
X9024848Y-14484234D02*
X9005801Y-14474710D01*
X9005801Y-14474710D02*
X8996277Y-14465186D01*
X8996277Y-14465186D02*
X8986753Y-14446138D01*
X8986753Y-14446138D02*
X8977229Y-14408043D01*
X8977229Y-14408043D02*
X8977229Y-14360424D01*
X8977229Y-14360424D02*
X8986753Y-14322329D01*
X8986753Y-14322329D02*
X8996277Y-14303281D01*
X8996277Y-14303281D02*
X9005801Y-14293758D01*
X9005801Y-14293758D02*
X9024848Y-14284234D01*
X9215325Y-14284234D02*
X9234372Y-14284234D01*
X9234372Y-14284234D02*
X9253420Y-14293758D01*
X9253420Y-14293758D02*
X9262944Y-14303281D01*
X9262944Y-14303281D02*
X9272468Y-14322329D01*
X9272468Y-14322329D02*
X9281991Y-14360424D01*
X9281991Y-14360424D02*
X9281991Y-14408043D01*
X9281991Y-14408043D02*
X9272468Y-14446138D01*
X9272468Y-14446138D02*
X9262944Y-14465186D01*
X9262944Y-14465186D02*
X9253420Y-14474710D01*
X9253420Y-14474710D02*
X9234372Y-14484234D01*
X9234372Y-14484234D02*
X9215325Y-14484234D01*
X9215325Y-14484234D02*
X9196277Y-14474710D01*
X9196277Y-14474710D02*
X9186753Y-14465186D01*
X9186753Y-14465186D02*
X9177229Y-14446138D01*
X9177229Y-14446138D02*
X9167706Y-14408043D01*
X9167706Y-14408043D02*
X9167706Y-14360424D01*
X9167706Y-14360424D02*
X9177229Y-14322329D01*
X9177229Y-14322329D02*
X9186753Y-14303281D01*
X9186753Y-14303281D02*
X9196277Y-14293758D01*
X9196277Y-14293758D02*
X9215325Y-14284234D01*
X9348658Y-14284234D02*
X9472468Y-14284234D01*
X9472468Y-14284234D02*
X9405801Y-14360424D01*
X9405801Y-14360424D02*
X9434372Y-14360424D01*
X9434372Y-14360424D02*
X9453420Y-14369948D01*
X9453420Y-14369948D02*
X9462944Y-14379472D01*
X9462944Y-14379472D02*
X9472468Y-14398519D01*
X9472468Y-14398519D02*
X9472468Y-14446138D01*
X9472468Y-14446138D02*
X9462944Y-14465186D01*
X9462944Y-14465186D02*
X9453420Y-14474710D01*
X9453420Y-14474710D02*
X9434372Y-14484234D01*
X9434372Y-14484234D02*
X9377229Y-14484234D01*
X9377229Y-14484234D02*
X9358182Y-14474710D01*
X9358182Y-14474710D02*
X9348658Y-14465186D01*
X9567706Y-14484234D02*
X9605801Y-14484234D01*
X9605801Y-14484234D02*
X9624849Y-14474710D01*
X9624849Y-14474710D02*
X9634372Y-14465186D01*
X9634372Y-14465186D02*
X9653420Y-14436615D01*
X9653420Y-14436615D02*
X9662944Y-14398519D01*
X9662944Y-14398519D02*
X9662944Y-14322329D01*
X9662944Y-14322329D02*
X9653420Y-14303281D01*
X9653420Y-14303281D02*
X9643896Y-14293758D01*
X9643896Y-14293758D02*
X9624849Y-14284234D01*
X9624849Y-14284234D02*
X9586753Y-14284234D01*
X9586753Y-14284234D02*
X9567706Y-14293758D01*
X9567706Y-14293758D02*
X9558182Y-14303281D01*
X9558182Y-14303281D02*
X9548658Y-14322329D01*
X9548658Y-14322329D02*
X9548658Y-14369948D01*
X9548658Y-14369948D02*
X9558182Y-14388996D01*
X9558182Y-14388996D02*
X9567706Y-14398519D01*
X9567706Y-14398519D02*
X9586753Y-14408043D01*
X9586753Y-14408043D02*
X9624849Y-14408043D01*
X9624849Y-14408043D02*
X9643896Y-14398519D01*
X9643896Y-14398519D02*
X9653420Y-14388996D01*
X9653420Y-14388996D02*
X9662944Y-14369948D01*
X9739134Y-14284234D02*
X9739134Y-14322329D01*
X9815325Y-14284234D02*
X9815325Y-14322329D01*
X10110563Y-14560424D02*
X10101039Y-14550900D01*
X10101039Y-14550900D02*
X10081991Y-14522329D01*
X10081991Y-14522329D02*
X10072468Y-14503281D01*
X10072468Y-14503281D02*
X10062944Y-14474710D01*
X10062944Y-14474710D02*
X10053420Y-14427091D01*
X10053420Y-14427091D02*
X10053420Y-14388996D01*
X10053420Y-14388996D02*
X10062944Y-14341377D01*
X10062944Y-14341377D02*
X10072468Y-14312805D01*
X10072468Y-14312805D02*
X10081991Y-14293758D01*
X10081991Y-14293758D02*
X10101039Y-14265186D01*
X10101039Y-14265186D02*
X10110563Y-14255662D01*
X10291515Y-14484234D02*
X10177230Y-14484234D01*
X10234372Y-14484234D02*
X10234372Y-14284234D01*
X10234372Y-14284234D02*
X10215325Y-14312805D01*
X10215325Y-14312805D02*
X10196277Y-14331853D01*
X10196277Y-14331853D02*
X10177230Y-14341377D01*
X10367706Y-14303281D02*
X10377230Y-14293758D01*
X10377230Y-14293758D02*
X10396277Y-14284234D01*
X10396277Y-14284234D02*
X10443896Y-14284234D01*
X10443896Y-14284234D02*
X10462944Y-14293758D01*
X10462944Y-14293758D02*
X10472468Y-14303281D01*
X10472468Y-14303281D02*
X10481991Y-14322329D01*
X10481991Y-14322329D02*
X10481991Y-14341377D01*
X10481991Y-14341377D02*
X10472468Y-14369948D01*
X10472468Y-14369948D02*
X10358182Y-14484234D01*
X10358182Y-14484234D02*
X10481991Y-14484234D01*
X10720087Y-14484234D02*
X10720087Y-14284234D01*
X10805801Y-14484234D02*
X10805801Y-14379472D01*
X10805801Y-14379472D02*
X10796277Y-14360424D01*
X10796277Y-14360424D02*
X10777230Y-14350900D01*
X10777230Y-14350900D02*
X10748658Y-14350900D01*
X10748658Y-14350900D02*
X10729611Y-14360424D01*
X10729611Y-14360424D02*
X10720087Y-14369948D01*
X10929611Y-14484234D02*
X10910563Y-14474710D01*
X10910563Y-14474710D02*
X10901039Y-14465186D01*
X10901039Y-14465186D02*
X10891515Y-14446138D01*
X10891515Y-14446138D02*
X10891515Y-14388996D01*
X10891515Y-14388996D02*
X10901039Y-14369948D01*
X10901039Y-14369948D02*
X10910563Y-14360424D01*
X10910563Y-14360424D02*
X10929611Y-14350900D01*
X10929611Y-14350900D02*
X10958182Y-14350900D01*
X10958182Y-14350900D02*
X10977230Y-14360424D01*
X10977230Y-14360424D02*
X10986753Y-14369948D01*
X10986753Y-14369948D02*
X10996277Y-14388996D01*
X10996277Y-14388996D02*
X10996277Y-14446138D01*
X10996277Y-14446138D02*
X10986753Y-14465186D01*
X10986753Y-14465186D02*
X10977230Y-14474710D01*
X10977230Y-14474710D02*
X10958182Y-14484234D01*
X10958182Y-14484234D02*
X10929611Y-14484234D01*
X11110563Y-14484234D02*
X11091515Y-14474710D01*
X11091515Y-14474710D02*
X11081992Y-14455662D01*
X11081992Y-14455662D02*
X11081992Y-14284234D01*
X11262944Y-14474710D02*
X11243896Y-14484234D01*
X11243896Y-14484234D02*
X11205801Y-14484234D01*
X11205801Y-14484234D02*
X11186753Y-14474710D01*
X11186753Y-14474710D02*
X11177230Y-14455662D01*
X11177230Y-14455662D02*
X11177230Y-14379472D01*
X11177230Y-14379472D02*
X11186753Y-14360424D01*
X11186753Y-14360424D02*
X11205801Y-14350900D01*
X11205801Y-14350900D02*
X11243896Y-14350900D01*
X11243896Y-14350900D02*
X11262944Y-14360424D01*
X11262944Y-14360424D02*
X11272468Y-14379472D01*
X11272468Y-14379472D02*
X11272468Y-14398519D01*
X11272468Y-14398519D02*
X11177230Y-14417567D01*
X11348658Y-14474710D02*
X11367706Y-14484234D01*
X11367706Y-14484234D02*
X11405801Y-14484234D01*
X11405801Y-14484234D02*
X11424849Y-14474710D01*
X11424849Y-14474710D02*
X11434372Y-14455662D01*
X11434372Y-14455662D02*
X11434372Y-14446138D01*
X11434372Y-14446138D02*
X11424849Y-14427091D01*
X11424849Y-14427091D02*
X11405801Y-14417567D01*
X11405801Y-14417567D02*
X11377230Y-14417567D01*
X11377230Y-14417567D02*
X11358182Y-14408043D01*
X11358182Y-14408043D02*
X11348658Y-14388996D01*
X11348658Y-14388996D02*
X11348658Y-14379472D01*
X11348658Y-14379472D02*
X11358182Y-14360424D01*
X11358182Y-14360424D02*
X11377230Y-14350900D01*
X11377230Y-14350900D02*
X11405801Y-14350900D01*
X11405801Y-14350900D02*
X11424849Y-14360424D01*
X11501039Y-14560424D02*
X11510563Y-14550900D01*
X11510563Y-14550900D02*
X11529611Y-14522329D01*
X11529611Y-14522329D02*
X11539134Y-14503281D01*
X11539134Y-14503281D02*
X11548658Y-14474710D01*
X11548658Y-14474710D02*
X11558182Y-14427091D01*
X11558182Y-14427091D02*
X11558182Y-14388996D01*
X11558182Y-14388996D02*
X11548658Y-14341377D01*
X11548658Y-14341377D02*
X11539134Y-14312805D01*
X11539134Y-14312805D02*
X11529611Y-14293758D01*
X11529611Y-14293758D02*
X11510563Y-14265186D01*
X11510563Y-14265186D02*
X11501039Y-14255662D01*
D13*
X6535500Y-14656750D02*
G75*
G03*
X6535500Y-14656750I-20000J0D01*
G01*
D11*
X6834372Y-14548234D02*
X6853420Y-14548234D01*
X6853420Y-14548234D02*
X6872467Y-14557758D01*
X6872467Y-14557758D02*
X6881991Y-14567281D01*
X6881991Y-14567281D02*
X6891515Y-14586329D01*
X6891515Y-14586329D02*
X6901039Y-14624424D01*
X6901039Y-14624424D02*
X6901039Y-14672043D01*
X6901039Y-14672043D02*
X6891515Y-14710138D01*
X6891515Y-14710138D02*
X6881991Y-14729186D01*
X6881991Y-14729186D02*
X6872467Y-14738710D01*
X6872467Y-14738710D02*
X6853420Y-14748234D01*
X6853420Y-14748234D02*
X6834372Y-14748234D01*
X6834372Y-14748234D02*
X6815324Y-14738710D01*
X6815324Y-14738710D02*
X6805801Y-14729186D01*
X6805801Y-14729186D02*
X6796277Y-14710138D01*
X6796277Y-14710138D02*
X6786753Y-14672043D01*
X6786753Y-14672043D02*
X6786753Y-14624424D01*
X6786753Y-14624424D02*
X6796277Y-14586329D01*
X6796277Y-14586329D02*
X6805801Y-14567281D01*
X6805801Y-14567281D02*
X6815324Y-14557758D01*
X6815324Y-14557758D02*
X6834372Y-14548234D01*
X6986753Y-14729186D02*
X6996277Y-14738710D01*
X6996277Y-14738710D02*
X6986753Y-14748234D01*
X6986753Y-14748234D02*
X6977229Y-14738710D01*
X6977229Y-14738710D02*
X6986753Y-14729186D01*
X6986753Y-14729186D02*
X6986753Y-14748234D01*
X7167705Y-14614900D02*
X7167705Y-14748234D01*
X7120086Y-14538710D02*
X7072467Y-14681567D01*
X7072467Y-14681567D02*
X7196277Y-14681567D01*
X7310562Y-14548234D02*
X7329610Y-14548234D01*
X7329610Y-14548234D02*
X7348658Y-14557758D01*
X7348658Y-14557758D02*
X7358182Y-14567281D01*
X7358182Y-14567281D02*
X7367705Y-14586329D01*
X7367705Y-14586329D02*
X7377229Y-14624424D01*
X7377229Y-14624424D02*
X7377229Y-14672043D01*
X7377229Y-14672043D02*
X7367705Y-14710138D01*
X7367705Y-14710138D02*
X7358182Y-14729186D01*
X7358182Y-14729186D02*
X7348658Y-14738710D01*
X7348658Y-14738710D02*
X7329610Y-14748234D01*
X7329610Y-14748234D02*
X7310562Y-14748234D01*
X7310562Y-14748234D02*
X7291515Y-14738710D01*
X7291515Y-14738710D02*
X7281991Y-14729186D01*
X7281991Y-14729186D02*
X7272467Y-14710138D01*
X7272467Y-14710138D02*
X7262943Y-14672043D01*
X7262943Y-14672043D02*
X7262943Y-14624424D01*
X7262943Y-14624424D02*
X7272467Y-14586329D01*
X7272467Y-14586329D02*
X7281991Y-14567281D01*
X7281991Y-14567281D02*
X7291515Y-14557758D01*
X7291515Y-14557758D02*
X7310562Y-14548234D01*
X7501039Y-14548234D02*
X7520086Y-14548234D01*
X7520086Y-14548234D02*
X7539134Y-14557758D01*
X7539134Y-14557758D02*
X7548658Y-14567281D01*
X7548658Y-14567281D02*
X7558182Y-14586329D01*
X7558182Y-14586329D02*
X7567705Y-14624424D01*
X7567705Y-14624424D02*
X7567705Y-14672043D01*
X7567705Y-14672043D02*
X7558182Y-14710138D01*
X7558182Y-14710138D02*
X7548658Y-14729186D01*
X7548658Y-14729186D02*
X7539134Y-14738710D01*
X7539134Y-14738710D02*
X7520086Y-14748234D01*
X7520086Y-14748234D02*
X7501039Y-14748234D01*
X7501039Y-14748234D02*
X7481991Y-14738710D01*
X7481991Y-14738710D02*
X7472467Y-14729186D01*
X7472467Y-14729186D02*
X7462943Y-14710138D01*
X7462943Y-14710138D02*
X7453420Y-14672043D01*
X7453420Y-14672043D02*
X7453420Y-14624424D01*
X7453420Y-14624424D02*
X7462943Y-14586329D01*
X7462943Y-14586329D02*
X7472467Y-14567281D01*
X7472467Y-14567281D02*
X7481991Y-14557758D01*
X7481991Y-14557758D02*
X7501039Y-14548234D01*
X7653420Y-14748234D02*
X7653420Y-14614900D01*
X7653420Y-14633948D02*
X7662943Y-14624424D01*
X7662943Y-14624424D02*
X7681991Y-14614900D01*
X7681991Y-14614900D02*
X7710563Y-14614900D01*
X7710563Y-14614900D02*
X7729610Y-14624424D01*
X7729610Y-14624424D02*
X7739134Y-14643472D01*
X7739134Y-14643472D02*
X7739134Y-14748234D01*
X7739134Y-14643472D02*
X7748658Y-14624424D01*
X7748658Y-14624424D02*
X7767705Y-14614900D01*
X7767705Y-14614900D02*
X7796277Y-14614900D01*
X7796277Y-14614900D02*
X7815324Y-14624424D01*
X7815324Y-14624424D02*
X7824848Y-14643472D01*
X7824848Y-14643472D02*
X7824848Y-14748234D01*
X7920086Y-14748234D02*
X7920086Y-14614900D01*
X7920086Y-14633948D02*
X7929610Y-14624424D01*
X7929610Y-14624424D02*
X7948658Y-14614900D01*
X7948658Y-14614900D02*
X7977229Y-14614900D01*
X7977229Y-14614900D02*
X7996277Y-14624424D01*
X7996277Y-14624424D02*
X8005801Y-14643472D01*
X8005801Y-14643472D02*
X8005801Y-14748234D01*
X8005801Y-14643472D02*
X8015324Y-14624424D01*
X8015324Y-14624424D02*
X8034372Y-14614900D01*
X8034372Y-14614900D02*
X8062943Y-14614900D01*
X8062943Y-14614900D02*
X8081991Y-14624424D01*
X8081991Y-14624424D02*
X8091515Y-14643472D01*
X8091515Y-14643472D02*
X8091515Y-14748234D01*
X8481991Y-14538710D02*
X8310563Y-14795853D01*
X8739134Y-14548234D02*
X8758182Y-14548234D01*
X8758182Y-14548234D02*
X8777229Y-14557758D01*
X8777229Y-14557758D02*
X8786753Y-14567281D01*
X8786753Y-14567281D02*
X8796277Y-14586329D01*
X8796277Y-14586329D02*
X8805801Y-14624424D01*
X8805801Y-14624424D02*
X8805801Y-14672043D01*
X8805801Y-14672043D02*
X8796277Y-14710138D01*
X8796277Y-14710138D02*
X8786753Y-14729186D01*
X8786753Y-14729186D02*
X8777229Y-14738710D01*
X8777229Y-14738710D02*
X8758182Y-14748234D01*
X8758182Y-14748234D02*
X8739134Y-14748234D01*
X8739134Y-14748234D02*
X8720087Y-14738710D01*
X8720087Y-14738710D02*
X8710563Y-14729186D01*
X8710563Y-14729186D02*
X8701039Y-14710138D01*
X8701039Y-14710138D02*
X8691515Y-14672043D01*
X8691515Y-14672043D02*
X8691515Y-14624424D01*
X8691515Y-14624424D02*
X8701039Y-14586329D01*
X8701039Y-14586329D02*
X8710563Y-14567281D01*
X8710563Y-14567281D02*
X8720087Y-14557758D01*
X8720087Y-14557758D02*
X8739134Y-14548234D01*
X8891515Y-14729186D02*
X8901039Y-14738710D01*
X8901039Y-14738710D02*
X8891515Y-14748234D01*
X8891515Y-14748234D02*
X8881991Y-14738710D01*
X8881991Y-14738710D02*
X8891515Y-14729186D01*
X8891515Y-14729186D02*
X8891515Y-14748234D01*
X9024848Y-14548234D02*
X9043896Y-14548234D01*
X9043896Y-14548234D02*
X9062944Y-14557758D01*
X9062944Y-14557758D02*
X9072468Y-14567281D01*
X9072468Y-14567281D02*
X9081991Y-14586329D01*
X9081991Y-14586329D02*
X9091515Y-14624424D01*
X9091515Y-14624424D02*
X9091515Y-14672043D01*
X9091515Y-14672043D02*
X9081991Y-14710138D01*
X9081991Y-14710138D02*
X9072468Y-14729186D01*
X9072468Y-14729186D02*
X9062944Y-14738710D01*
X9062944Y-14738710D02*
X9043896Y-14748234D01*
X9043896Y-14748234D02*
X9024848Y-14748234D01*
X9024848Y-14748234D02*
X9005801Y-14738710D01*
X9005801Y-14738710D02*
X8996277Y-14729186D01*
X8996277Y-14729186D02*
X8986753Y-14710138D01*
X8986753Y-14710138D02*
X8977229Y-14672043D01*
X8977229Y-14672043D02*
X8977229Y-14624424D01*
X8977229Y-14624424D02*
X8986753Y-14586329D01*
X8986753Y-14586329D02*
X8996277Y-14567281D01*
X8996277Y-14567281D02*
X9005801Y-14557758D01*
X9005801Y-14557758D02*
X9024848Y-14548234D01*
X9281991Y-14748234D02*
X9167706Y-14748234D01*
X9224848Y-14748234D02*
X9224848Y-14548234D01*
X9224848Y-14548234D02*
X9205801Y-14576805D01*
X9205801Y-14576805D02*
X9186753Y-14595853D01*
X9186753Y-14595853D02*
X9167706Y-14605377D01*
X9462944Y-14548234D02*
X9367706Y-14548234D01*
X9367706Y-14548234D02*
X9358182Y-14643472D01*
X9358182Y-14643472D02*
X9367706Y-14633948D01*
X9367706Y-14633948D02*
X9386753Y-14624424D01*
X9386753Y-14624424D02*
X9434372Y-14624424D01*
X9434372Y-14624424D02*
X9453420Y-14633948D01*
X9453420Y-14633948D02*
X9462944Y-14643472D01*
X9462944Y-14643472D02*
X9472468Y-14662519D01*
X9472468Y-14662519D02*
X9472468Y-14710138D01*
X9472468Y-14710138D02*
X9462944Y-14729186D01*
X9462944Y-14729186D02*
X9453420Y-14738710D01*
X9453420Y-14738710D02*
X9434372Y-14748234D01*
X9434372Y-14748234D02*
X9386753Y-14748234D01*
X9386753Y-14748234D02*
X9367706Y-14738710D01*
X9367706Y-14738710D02*
X9358182Y-14729186D01*
X9539134Y-14548234D02*
X9672468Y-14548234D01*
X9672468Y-14548234D02*
X9586753Y-14748234D01*
X9739134Y-14548234D02*
X9739134Y-14586329D01*
X9815325Y-14548234D02*
X9815325Y-14586329D01*
X10110563Y-14824424D02*
X10101039Y-14814900D01*
X10101039Y-14814900D02*
X10081991Y-14786329D01*
X10081991Y-14786329D02*
X10072468Y-14767281D01*
X10072468Y-14767281D02*
X10062944Y-14738710D01*
X10062944Y-14738710D02*
X10053420Y-14691091D01*
X10053420Y-14691091D02*
X10053420Y-14652996D01*
X10053420Y-14652996D02*
X10062944Y-14605377D01*
X10062944Y-14605377D02*
X10072468Y-14576805D01*
X10072468Y-14576805D02*
X10081991Y-14557758D01*
X10081991Y-14557758D02*
X10101039Y-14529186D01*
X10101039Y-14529186D02*
X10110563Y-14519662D01*
X10272468Y-14614900D02*
X10272468Y-14748234D01*
X10224849Y-14538710D02*
X10177230Y-14681567D01*
X10177230Y-14681567D02*
X10301039Y-14681567D01*
X10529611Y-14748234D02*
X10529611Y-14548234D01*
X10615325Y-14748234D02*
X10615325Y-14643472D01*
X10615325Y-14643472D02*
X10605801Y-14624424D01*
X10605801Y-14624424D02*
X10586753Y-14614900D01*
X10586753Y-14614900D02*
X10558182Y-14614900D01*
X10558182Y-14614900D02*
X10539134Y-14624424D01*
X10539134Y-14624424D02*
X10529611Y-14633948D01*
X10739134Y-14748234D02*
X10720087Y-14738710D01*
X10720087Y-14738710D02*
X10710563Y-14729186D01*
X10710563Y-14729186D02*
X10701039Y-14710138D01*
X10701039Y-14710138D02*
X10701039Y-14652996D01*
X10701039Y-14652996D02*
X10710563Y-14633948D01*
X10710563Y-14633948D02*
X10720087Y-14624424D01*
X10720087Y-14624424D02*
X10739134Y-14614900D01*
X10739134Y-14614900D02*
X10767706Y-14614900D01*
X10767706Y-14614900D02*
X10786753Y-14624424D01*
X10786753Y-14624424D02*
X10796277Y-14633948D01*
X10796277Y-14633948D02*
X10805801Y-14652996D01*
X10805801Y-14652996D02*
X10805801Y-14710138D01*
X10805801Y-14710138D02*
X10796277Y-14729186D01*
X10796277Y-14729186D02*
X10786753Y-14738710D01*
X10786753Y-14738710D02*
X10767706Y-14748234D01*
X10767706Y-14748234D02*
X10739134Y-14748234D01*
X10920087Y-14748234D02*
X10901039Y-14738710D01*
X10901039Y-14738710D02*
X10891515Y-14719662D01*
X10891515Y-14719662D02*
X10891515Y-14548234D01*
X11072468Y-14738710D02*
X11053420Y-14748234D01*
X11053420Y-14748234D02*
X11015325Y-14748234D01*
X11015325Y-14748234D02*
X10996277Y-14738710D01*
X10996277Y-14738710D02*
X10986753Y-14719662D01*
X10986753Y-14719662D02*
X10986753Y-14643472D01*
X10986753Y-14643472D02*
X10996277Y-14624424D01*
X10996277Y-14624424D02*
X11015325Y-14614900D01*
X11015325Y-14614900D02*
X11053420Y-14614900D01*
X11053420Y-14614900D02*
X11072468Y-14624424D01*
X11072468Y-14624424D02*
X11081992Y-14643472D01*
X11081992Y-14643472D02*
X11081992Y-14662519D01*
X11081992Y-14662519D02*
X10986753Y-14681567D01*
X11158182Y-14738710D02*
X11177230Y-14748234D01*
X11177230Y-14748234D02*
X11215325Y-14748234D01*
X11215325Y-14748234D02*
X11234372Y-14738710D01*
X11234372Y-14738710D02*
X11243896Y-14719662D01*
X11243896Y-14719662D02*
X11243896Y-14710138D01*
X11243896Y-14710138D02*
X11234372Y-14691091D01*
X11234372Y-14691091D02*
X11215325Y-14681567D01*
X11215325Y-14681567D02*
X11186753Y-14681567D01*
X11186753Y-14681567D02*
X11167706Y-14672043D01*
X11167706Y-14672043D02*
X11158182Y-14652996D01*
X11158182Y-14652996D02*
X11158182Y-14643472D01*
X11158182Y-14643472D02*
X11167706Y-14624424D01*
X11167706Y-14624424D02*
X11186753Y-14614900D01*
X11186753Y-14614900D02*
X11215325Y-14614900D01*
X11215325Y-14614900D02*
X11234372Y-14624424D01*
X11310563Y-14824424D02*
X11320087Y-14814900D01*
X11320087Y-14814900D02*
X11339134Y-14786329D01*
X11339134Y-14786329D02*
X11348658Y-14767281D01*
X11348658Y-14767281D02*
X11358182Y-14738710D01*
X11358182Y-14738710D02*
X11367706Y-14691091D01*
X11367706Y-14691091D02*
X11367706Y-14652996D01*
X11367706Y-14652996D02*
X11358182Y-14605377D01*
X11358182Y-14605377D02*
X11348658Y-14576805D01*
X11348658Y-14576805D02*
X11339134Y-14557758D01*
X11339134Y-14557758D02*
X11320087Y-14529186D01*
X11320087Y-14529186D02*
X11310563Y-14519662D01*
D14*
X6498000Y-14883250D02*
X6498000Y-14958250D01*
X6460500Y-14920750D02*
X6535500Y-14920750D01*
D11*
X6834372Y-14812234D02*
X6853420Y-14812234D01*
X6853420Y-14812234D02*
X6872467Y-14821758D01*
X6872467Y-14821758D02*
X6881991Y-14831281D01*
X6881991Y-14831281D02*
X6891515Y-14850329D01*
X6891515Y-14850329D02*
X6901039Y-14888424D01*
X6901039Y-14888424D02*
X6901039Y-14936043D01*
X6901039Y-14936043D02*
X6891515Y-14974138D01*
X6891515Y-14974138D02*
X6881991Y-14993186D01*
X6881991Y-14993186D02*
X6872467Y-15002710D01*
X6872467Y-15002710D02*
X6853420Y-15012234D01*
X6853420Y-15012234D02*
X6834372Y-15012234D01*
X6834372Y-15012234D02*
X6815324Y-15002710D01*
X6815324Y-15002710D02*
X6805801Y-14993186D01*
X6805801Y-14993186D02*
X6796277Y-14974138D01*
X6796277Y-14974138D02*
X6786753Y-14936043D01*
X6786753Y-14936043D02*
X6786753Y-14888424D01*
X6786753Y-14888424D02*
X6796277Y-14850329D01*
X6796277Y-14850329D02*
X6805801Y-14831281D01*
X6805801Y-14831281D02*
X6815324Y-14821758D01*
X6815324Y-14821758D02*
X6834372Y-14812234D01*
X6986753Y-14993186D02*
X6996277Y-15002710D01*
X6996277Y-15002710D02*
X6986753Y-15012234D01*
X6986753Y-15012234D02*
X6977229Y-15002710D01*
X6977229Y-15002710D02*
X6986753Y-14993186D01*
X6986753Y-14993186D02*
X6986753Y-15012234D01*
X7062943Y-14812234D02*
X7196277Y-14812234D01*
X7196277Y-14812234D02*
X7110562Y-15012234D01*
X7367705Y-14812234D02*
X7272467Y-14812234D01*
X7272467Y-14812234D02*
X7262943Y-14907472D01*
X7262943Y-14907472D02*
X7272467Y-14897948D01*
X7272467Y-14897948D02*
X7291515Y-14888424D01*
X7291515Y-14888424D02*
X7339134Y-14888424D01*
X7339134Y-14888424D02*
X7358182Y-14897948D01*
X7358182Y-14897948D02*
X7367705Y-14907472D01*
X7367705Y-14907472D02*
X7377229Y-14926519D01*
X7377229Y-14926519D02*
X7377229Y-14974138D01*
X7377229Y-14974138D02*
X7367705Y-14993186D01*
X7367705Y-14993186D02*
X7358182Y-15002710D01*
X7358182Y-15002710D02*
X7339134Y-15012234D01*
X7339134Y-15012234D02*
X7291515Y-15012234D01*
X7291515Y-15012234D02*
X7272467Y-15002710D01*
X7272467Y-15002710D02*
X7262943Y-14993186D01*
X7501039Y-14812234D02*
X7520086Y-14812234D01*
X7520086Y-14812234D02*
X7539134Y-14821758D01*
X7539134Y-14821758D02*
X7548658Y-14831281D01*
X7548658Y-14831281D02*
X7558182Y-14850329D01*
X7558182Y-14850329D02*
X7567705Y-14888424D01*
X7567705Y-14888424D02*
X7567705Y-14936043D01*
X7567705Y-14936043D02*
X7558182Y-14974138D01*
X7558182Y-14974138D02*
X7548658Y-14993186D01*
X7548658Y-14993186D02*
X7539134Y-15002710D01*
X7539134Y-15002710D02*
X7520086Y-15012234D01*
X7520086Y-15012234D02*
X7501039Y-15012234D01*
X7501039Y-15012234D02*
X7481991Y-15002710D01*
X7481991Y-15002710D02*
X7472467Y-14993186D01*
X7472467Y-14993186D02*
X7462943Y-14974138D01*
X7462943Y-14974138D02*
X7453420Y-14936043D01*
X7453420Y-14936043D02*
X7453420Y-14888424D01*
X7453420Y-14888424D02*
X7462943Y-14850329D01*
X7462943Y-14850329D02*
X7472467Y-14831281D01*
X7472467Y-14831281D02*
X7481991Y-14821758D01*
X7481991Y-14821758D02*
X7501039Y-14812234D01*
X7653420Y-15012234D02*
X7653420Y-14878900D01*
X7653420Y-14897948D02*
X7662943Y-14888424D01*
X7662943Y-14888424D02*
X7681991Y-14878900D01*
X7681991Y-14878900D02*
X7710563Y-14878900D01*
X7710563Y-14878900D02*
X7729610Y-14888424D01*
X7729610Y-14888424D02*
X7739134Y-14907472D01*
X7739134Y-14907472D02*
X7739134Y-15012234D01*
X7739134Y-14907472D02*
X7748658Y-14888424D01*
X7748658Y-14888424D02*
X7767705Y-14878900D01*
X7767705Y-14878900D02*
X7796277Y-14878900D01*
X7796277Y-14878900D02*
X7815324Y-14888424D01*
X7815324Y-14888424D02*
X7824848Y-14907472D01*
X7824848Y-14907472D02*
X7824848Y-15012234D01*
X7920086Y-15012234D02*
X7920086Y-14878900D01*
X7920086Y-14897948D02*
X7929610Y-14888424D01*
X7929610Y-14888424D02*
X7948658Y-14878900D01*
X7948658Y-14878900D02*
X7977229Y-14878900D01*
X7977229Y-14878900D02*
X7996277Y-14888424D01*
X7996277Y-14888424D02*
X8005801Y-14907472D01*
X8005801Y-14907472D02*
X8005801Y-15012234D01*
X8005801Y-14907472D02*
X8015324Y-14888424D01*
X8015324Y-14888424D02*
X8034372Y-14878900D01*
X8034372Y-14878900D02*
X8062943Y-14878900D01*
X8062943Y-14878900D02*
X8081991Y-14888424D01*
X8081991Y-14888424D02*
X8091515Y-14907472D01*
X8091515Y-14907472D02*
X8091515Y-15012234D01*
X8481991Y-14802710D02*
X8310563Y-15059853D01*
X8739134Y-14812234D02*
X8758182Y-14812234D01*
X8758182Y-14812234D02*
X8777229Y-14821758D01*
X8777229Y-14821758D02*
X8786753Y-14831281D01*
X8786753Y-14831281D02*
X8796277Y-14850329D01*
X8796277Y-14850329D02*
X8805801Y-14888424D01*
X8805801Y-14888424D02*
X8805801Y-14936043D01*
X8805801Y-14936043D02*
X8796277Y-14974138D01*
X8796277Y-14974138D02*
X8786753Y-14993186D01*
X8786753Y-14993186D02*
X8777229Y-15002710D01*
X8777229Y-15002710D02*
X8758182Y-15012234D01*
X8758182Y-15012234D02*
X8739134Y-15012234D01*
X8739134Y-15012234D02*
X8720087Y-15002710D01*
X8720087Y-15002710D02*
X8710563Y-14993186D01*
X8710563Y-14993186D02*
X8701039Y-14974138D01*
X8701039Y-14974138D02*
X8691515Y-14936043D01*
X8691515Y-14936043D02*
X8691515Y-14888424D01*
X8691515Y-14888424D02*
X8701039Y-14850329D01*
X8701039Y-14850329D02*
X8710563Y-14831281D01*
X8710563Y-14831281D02*
X8720087Y-14821758D01*
X8720087Y-14821758D02*
X8739134Y-14812234D01*
X8891515Y-14993186D02*
X8901039Y-15002710D01*
X8901039Y-15002710D02*
X8891515Y-15012234D01*
X8891515Y-15012234D02*
X8881991Y-15002710D01*
X8881991Y-15002710D02*
X8891515Y-14993186D01*
X8891515Y-14993186D02*
X8891515Y-15012234D01*
X9024848Y-14812234D02*
X9043896Y-14812234D01*
X9043896Y-14812234D02*
X9062944Y-14821758D01*
X9062944Y-14821758D02*
X9072468Y-14831281D01*
X9072468Y-14831281D02*
X9081991Y-14850329D01*
X9081991Y-14850329D02*
X9091515Y-14888424D01*
X9091515Y-14888424D02*
X9091515Y-14936043D01*
X9091515Y-14936043D02*
X9081991Y-14974138D01*
X9081991Y-14974138D02*
X9072468Y-14993186D01*
X9072468Y-14993186D02*
X9062944Y-15002710D01*
X9062944Y-15002710D02*
X9043896Y-15012234D01*
X9043896Y-15012234D02*
X9024848Y-15012234D01*
X9024848Y-15012234D02*
X9005801Y-15002710D01*
X9005801Y-15002710D02*
X8996277Y-14993186D01*
X8996277Y-14993186D02*
X8986753Y-14974138D01*
X8986753Y-14974138D02*
X8977229Y-14936043D01*
X8977229Y-14936043D02*
X8977229Y-14888424D01*
X8977229Y-14888424D02*
X8986753Y-14850329D01*
X8986753Y-14850329D02*
X8996277Y-14831281D01*
X8996277Y-14831281D02*
X9005801Y-14821758D01*
X9005801Y-14821758D02*
X9024848Y-14812234D01*
X9167706Y-14831281D02*
X9177229Y-14821758D01*
X9177229Y-14821758D02*
X9196277Y-14812234D01*
X9196277Y-14812234D02*
X9243896Y-14812234D01*
X9243896Y-14812234D02*
X9262944Y-14821758D01*
X9262944Y-14821758D02*
X9272468Y-14831281D01*
X9272468Y-14831281D02*
X9281991Y-14850329D01*
X9281991Y-14850329D02*
X9281991Y-14869377D01*
X9281991Y-14869377D02*
X9272468Y-14897948D01*
X9272468Y-14897948D02*
X9158182Y-15012234D01*
X9158182Y-15012234D02*
X9281991Y-15012234D01*
X9377229Y-15012234D02*
X9415325Y-15012234D01*
X9415325Y-15012234D02*
X9434372Y-15002710D01*
X9434372Y-15002710D02*
X9443896Y-14993186D01*
X9443896Y-14993186D02*
X9462944Y-14964615D01*
X9462944Y-14964615D02*
X9472468Y-14926519D01*
X9472468Y-14926519D02*
X9472468Y-14850329D01*
X9472468Y-14850329D02*
X9462944Y-14831281D01*
X9462944Y-14831281D02*
X9453420Y-14821758D01*
X9453420Y-14821758D02*
X9434372Y-14812234D01*
X9434372Y-14812234D02*
X9396277Y-14812234D01*
X9396277Y-14812234D02*
X9377229Y-14821758D01*
X9377229Y-14821758D02*
X9367706Y-14831281D01*
X9367706Y-14831281D02*
X9358182Y-14850329D01*
X9358182Y-14850329D02*
X9358182Y-14897948D01*
X9358182Y-14897948D02*
X9367706Y-14916996D01*
X9367706Y-14916996D02*
X9377229Y-14926519D01*
X9377229Y-14926519D02*
X9396277Y-14936043D01*
X9396277Y-14936043D02*
X9434372Y-14936043D01*
X9434372Y-14936043D02*
X9453420Y-14926519D01*
X9453420Y-14926519D02*
X9462944Y-14916996D01*
X9462944Y-14916996D02*
X9472468Y-14897948D01*
X9653420Y-14812234D02*
X9558182Y-14812234D01*
X9558182Y-14812234D02*
X9548658Y-14907472D01*
X9548658Y-14907472D02*
X9558182Y-14897948D01*
X9558182Y-14897948D02*
X9577229Y-14888424D01*
X9577229Y-14888424D02*
X9624849Y-14888424D01*
X9624849Y-14888424D02*
X9643896Y-14897948D01*
X9643896Y-14897948D02*
X9653420Y-14907472D01*
X9653420Y-14907472D02*
X9662944Y-14926519D01*
X9662944Y-14926519D02*
X9662944Y-14974138D01*
X9662944Y-14974138D02*
X9653420Y-14993186D01*
X9653420Y-14993186D02*
X9643896Y-15002710D01*
X9643896Y-15002710D02*
X9624849Y-15012234D01*
X9624849Y-15012234D02*
X9577229Y-15012234D01*
X9577229Y-15012234D02*
X9558182Y-15002710D01*
X9558182Y-15002710D02*
X9548658Y-14993186D01*
X9739134Y-14812234D02*
X9739134Y-14850329D01*
X9815325Y-14812234D02*
X9815325Y-14850329D01*
X10110563Y-15088424D02*
X10101039Y-15078900D01*
X10101039Y-15078900D02*
X10081991Y-15050329D01*
X10081991Y-15050329D02*
X10072468Y-15031281D01*
X10072468Y-15031281D02*
X10062944Y-15002710D01*
X10062944Y-15002710D02*
X10053420Y-14955091D01*
X10053420Y-14955091D02*
X10053420Y-14916996D01*
X10053420Y-14916996D02*
X10062944Y-14869377D01*
X10062944Y-14869377D02*
X10072468Y-14840805D01*
X10072468Y-14840805D02*
X10081991Y-14821758D01*
X10081991Y-14821758D02*
X10101039Y-14793186D01*
X10101039Y-14793186D02*
X10110563Y-14783662D01*
X10177230Y-14831281D02*
X10186753Y-14821758D01*
X10186753Y-14821758D02*
X10205801Y-14812234D01*
X10205801Y-14812234D02*
X10253420Y-14812234D01*
X10253420Y-14812234D02*
X10272468Y-14821758D01*
X10272468Y-14821758D02*
X10281991Y-14831281D01*
X10281991Y-14831281D02*
X10291515Y-14850329D01*
X10291515Y-14850329D02*
X10291515Y-14869377D01*
X10291515Y-14869377D02*
X10281991Y-14897948D01*
X10281991Y-14897948D02*
X10167706Y-15012234D01*
X10167706Y-15012234D02*
X10291515Y-15012234D01*
X10462944Y-14878900D02*
X10462944Y-15012234D01*
X10415325Y-14802710D02*
X10367706Y-14945567D01*
X10367706Y-14945567D02*
X10491515Y-14945567D01*
X10720087Y-15012234D02*
X10720087Y-14812234D01*
X10805801Y-15012234D02*
X10805801Y-14907472D01*
X10805801Y-14907472D02*
X10796277Y-14888424D01*
X10796277Y-14888424D02*
X10777230Y-14878900D01*
X10777230Y-14878900D02*
X10748658Y-14878900D01*
X10748658Y-14878900D02*
X10729611Y-14888424D01*
X10729611Y-14888424D02*
X10720087Y-14897948D01*
X10929611Y-15012234D02*
X10910563Y-15002710D01*
X10910563Y-15002710D02*
X10901039Y-14993186D01*
X10901039Y-14993186D02*
X10891515Y-14974138D01*
X10891515Y-14974138D02*
X10891515Y-14916996D01*
X10891515Y-14916996D02*
X10901039Y-14897948D01*
X10901039Y-14897948D02*
X10910563Y-14888424D01*
X10910563Y-14888424D02*
X10929611Y-14878900D01*
X10929611Y-14878900D02*
X10958182Y-14878900D01*
X10958182Y-14878900D02*
X10977230Y-14888424D01*
X10977230Y-14888424D02*
X10986753Y-14897948D01*
X10986753Y-14897948D02*
X10996277Y-14916996D01*
X10996277Y-14916996D02*
X10996277Y-14974138D01*
X10996277Y-14974138D02*
X10986753Y-14993186D01*
X10986753Y-14993186D02*
X10977230Y-15002710D01*
X10977230Y-15002710D02*
X10958182Y-15012234D01*
X10958182Y-15012234D02*
X10929611Y-15012234D01*
X11110563Y-15012234D02*
X11091515Y-15002710D01*
X11091515Y-15002710D02*
X11081992Y-14983662D01*
X11081992Y-14983662D02*
X11081992Y-14812234D01*
X11262944Y-15002710D02*
X11243896Y-15012234D01*
X11243896Y-15012234D02*
X11205801Y-15012234D01*
X11205801Y-15012234D02*
X11186753Y-15002710D01*
X11186753Y-15002710D02*
X11177230Y-14983662D01*
X11177230Y-14983662D02*
X11177230Y-14907472D01*
X11177230Y-14907472D02*
X11186753Y-14888424D01*
X11186753Y-14888424D02*
X11205801Y-14878900D01*
X11205801Y-14878900D02*
X11243896Y-14878900D01*
X11243896Y-14878900D02*
X11262944Y-14888424D01*
X11262944Y-14888424D02*
X11272468Y-14907472D01*
X11272468Y-14907472D02*
X11272468Y-14926519D01*
X11272468Y-14926519D02*
X11177230Y-14945567D01*
X11348658Y-15002710D02*
X11367706Y-15012234D01*
X11367706Y-15012234D02*
X11405801Y-15012234D01*
X11405801Y-15012234D02*
X11424849Y-15002710D01*
X11424849Y-15002710D02*
X11434372Y-14983662D01*
X11434372Y-14983662D02*
X11434372Y-14974138D01*
X11434372Y-14974138D02*
X11424849Y-14955091D01*
X11424849Y-14955091D02*
X11405801Y-14945567D01*
X11405801Y-14945567D02*
X11377230Y-14945567D01*
X11377230Y-14945567D02*
X11358182Y-14936043D01*
X11358182Y-14936043D02*
X11348658Y-14916996D01*
X11348658Y-14916996D02*
X11348658Y-14907472D01*
X11348658Y-14907472D02*
X11358182Y-14888424D01*
X11358182Y-14888424D02*
X11377230Y-14878900D01*
X11377230Y-14878900D02*
X11405801Y-14878900D01*
X11405801Y-14878900D02*
X11424849Y-14888424D01*
X11501039Y-15088424D02*
X11510563Y-15078900D01*
X11510563Y-15078900D02*
X11529611Y-15050329D01*
X11529611Y-15050329D02*
X11539134Y-15031281D01*
X11539134Y-15031281D02*
X11548658Y-15002710D01*
X11548658Y-15002710D02*
X11558182Y-14955091D01*
X11558182Y-14955091D02*
X11558182Y-14916996D01*
X11558182Y-14916996D02*
X11548658Y-14869377D01*
X11548658Y-14869377D02*
X11539134Y-14840805D01*
X11539134Y-14840805D02*
X11529611Y-14821758D01*
X11529611Y-14821758D02*
X11510563Y-14793186D01*
X11510563Y-14793186D02*
X11501039Y-14783662D01*
D15*
X6523784Y-15213034D02*
X6523784Y-15156465D01*
X6467215Y-15156465D01*
X6467215Y-15213034D01*
X6523784Y-15213034D01*
D11*
X6834372Y-15076234D02*
X6853420Y-15076234D01*
X6853420Y-15076234D02*
X6872467Y-15085758D01*
X6872467Y-15085758D02*
X6881991Y-15095281D01*
X6881991Y-15095281D02*
X6891515Y-15114329D01*
X6891515Y-15114329D02*
X6901039Y-15152424D01*
X6901039Y-15152424D02*
X6901039Y-15200043D01*
X6901039Y-15200043D02*
X6891515Y-15238138D01*
X6891515Y-15238138D02*
X6881991Y-15257186D01*
X6881991Y-15257186D02*
X6872467Y-15266710D01*
X6872467Y-15266710D02*
X6853420Y-15276234D01*
X6853420Y-15276234D02*
X6834372Y-15276234D01*
X6834372Y-15276234D02*
X6815324Y-15266710D01*
X6815324Y-15266710D02*
X6805801Y-15257186D01*
X6805801Y-15257186D02*
X6796277Y-15238138D01*
X6796277Y-15238138D02*
X6786753Y-15200043D01*
X6786753Y-15200043D02*
X6786753Y-15152424D01*
X6786753Y-15152424D02*
X6796277Y-15114329D01*
X6796277Y-15114329D02*
X6805801Y-15095281D01*
X6805801Y-15095281D02*
X6815324Y-15085758D01*
X6815324Y-15085758D02*
X6834372Y-15076234D01*
X6986753Y-15257186D02*
X6996277Y-15266710D01*
X6996277Y-15266710D02*
X6986753Y-15276234D01*
X6986753Y-15276234D02*
X6977229Y-15266710D01*
X6977229Y-15266710D02*
X6986753Y-15257186D01*
X6986753Y-15257186D02*
X6986753Y-15276234D01*
X7110562Y-15161948D02*
X7091515Y-15152424D01*
X7091515Y-15152424D02*
X7081991Y-15142900D01*
X7081991Y-15142900D02*
X7072467Y-15123853D01*
X7072467Y-15123853D02*
X7072467Y-15114329D01*
X7072467Y-15114329D02*
X7081991Y-15095281D01*
X7081991Y-15095281D02*
X7091515Y-15085758D01*
X7091515Y-15085758D02*
X7110562Y-15076234D01*
X7110562Y-15076234D02*
X7148658Y-15076234D01*
X7148658Y-15076234D02*
X7167705Y-15085758D01*
X7167705Y-15085758D02*
X7177229Y-15095281D01*
X7177229Y-15095281D02*
X7186753Y-15114329D01*
X7186753Y-15114329D02*
X7186753Y-15123853D01*
X7186753Y-15123853D02*
X7177229Y-15142900D01*
X7177229Y-15142900D02*
X7167705Y-15152424D01*
X7167705Y-15152424D02*
X7148658Y-15161948D01*
X7148658Y-15161948D02*
X7110562Y-15161948D01*
X7110562Y-15161948D02*
X7091515Y-15171472D01*
X7091515Y-15171472D02*
X7081991Y-15180996D01*
X7081991Y-15180996D02*
X7072467Y-15200043D01*
X7072467Y-15200043D02*
X7072467Y-15238138D01*
X7072467Y-15238138D02*
X7081991Y-15257186D01*
X7081991Y-15257186D02*
X7091515Y-15266710D01*
X7091515Y-15266710D02*
X7110562Y-15276234D01*
X7110562Y-15276234D02*
X7148658Y-15276234D01*
X7148658Y-15276234D02*
X7167705Y-15266710D01*
X7167705Y-15266710D02*
X7177229Y-15257186D01*
X7177229Y-15257186D02*
X7186753Y-15238138D01*
X7186753Y-15238138D02*
X7186753Y-15200043D01*
X7186753Y-15200043D02*
X7177229Y-15180996D01*
X7177229Y-15180996D02*
X7167705Y-15171472D01*
X7167705Y-15171472D02*
X7148658Y-15161948D01*
X7310562Y-15076234D02*
X7329610Y-15076234D01*
X7329610Y-15076234D02*
X7348658Y-15085758D01*
X7348658Y-15085758D02*
X7358182Y-15095281D01*
X7358182Y-15095281D02*
X7367705Y-15114329D01*
X7367705Y-15114329D02*
X7377229Y-15152424D01*
X7377229Y-15152424D02*
X7377229Y-15200043D01*
X7377229Y-15200043D02*
X7367705Y-15238138D01*
X7367705Y-15238138D02*
X7358182Y-15257186D01*
X7358182Y-15257186D02*
X7348658Y-15266710D01*
X7348658Y-15266710D02*
X7329610Y-15276234D01*
X7329610Y-15276234D02*
X7310562Y-15276234D01*
X7310562Y-15276234D02*
X7291515Y-15266710D01*
X7291515Y-15266710D02*
X7281991Y-15257186D01*
X7281991Y-15257186D02*
X7272467Y-15238138D01*
X7272467Y-15238138D02*
X7262943Y-15200043D01*
X7262943Y-15200043D02*
X7262943Y-15152424D01*
X7262943Y-15152424D02*
X7272467Y-15114329D01*
X7272467Y-15114329D02*
X7281991Y-15095281D01*
X7281991Y-15095281D02*
X7291515Y-15085758D01*
X7291515Y-15085758D02*
X7310562Y-15076234D01*
X7501039Y-15076234D02*
X7520086Y-15076234D01*
X7520086Y-15076234D02*
X7539134Y-15085758D01*
X7539134Y-15085758D02*
X7548658Y-15095281D01*
X7548658Y-15095281D02*
X7558182Y-15114329D01*
X7558182Y-15114329D02*
X7567705Y-15152424D01*
X7567705Y-15152424D02*
X7567705Y-15200043D01*
X7567705Y-15200043D02*
X7558182Y-15238138D01*
X7558182Y-15238138D02*
X7548658Y-15257186D01*
X7548658Y-15257186D02*
X7539134Y-15266710D01*
X7539134Y-15266710D02*
X7520086Y-15276234D01*
X7520086Y-15276234D02*
X7501039Y-15276234D01*
X7501039Y-15276234D02*
X7481991Y-15266710D01*
X7481991Y-15266710D02*
X7472467Y-15257186D01*
X7472467Y-15257186D02*
X7462943Y-15238138D01*
X7462943Y-15238138D02*
X7453420Y-15200043D01*
X7453420Y-15200043D02*
X7453420Y-15152424D01*
X7453420Y-15152424D02*
X7462943Y-15114329D01*
X7462943Y-15114329D02*
X7472467Y-15095281D01*
X7472467Y-15095281D02*
X7481991Y-15085758D01*
X7481991Y-15085758D02*
X7501039Y-15076234D01*
X7653420Y-15276234D02*
X7653420Y-15142900D01*
X7653420Y-15161948D02*
X7662943Y-15152424D01*
X7662943Y-15152424D02*
X7681991Y-15142900D01*
X7681991Y-15142900D02*
X7710563Y-15142900D01*
X7710563Y-15142900D02*
X7729610Y-15152424D01*
X7729610Y-15152424D02*
X7739134Y-15171472D01*
X7739134Y-15171472D02*
X7739134Y-15276234D01*
X7739134Y-15171472D02*
X7748658Y-15152424D01*
X7748658Y-15152424D02*
X7767705Y-15142900D01*
X7767705Y-15142900D02*
X7796277Y-15142900D01*
X7796277Y-15142900D02*
X7815324Y-15152424D01*
X7815324Y-15152424D02*
X7824848Y-15171472D01*
X7824848Y-15171472D02*
X7824848Y-15276234D01*
X7920086Y-15276234D02*
X7920086Y-15142900D01*
X7920086Y-15161948D02*
X7929610Y-15152424D01*
X7929610Y-15152424D02*
X7948658Y-15142900D01*
X7948658Y-15142900D02*
X7977229Y-15142900D01*
X7977229Y-15142900D02*
X7996277Y-15152424D01*
X7996277Y-15152424D02*
X8005801Y-15171472D01*
X8005801Y-15171472D02*
X8005801Y-15276234D01*
X8005801Y-15171472D02*
X8015324Y-15152424D01*
X8015324Y-15152424D02*
X8034372Y-15142900D01*
X8034372Y-15142900D02*
X8062943Y-15142900D01*
X8062943Y-15142900D02*
X8081991Y-15152424D01*
X8081991Y-15152424D02*
X8091515Y-15171472D01*
X8091515Y-15171472D02*
X8091515Y-15276234D01*
X8481991Y-15066710D02*
X8310563Y-15323853D01*
X8739134Y-15076234D02*
X8758182Y-15076234D01*
X8758182Y-15076234D02*
X8777229Y-15085758D01*
X8777229Y-15085758D02*
X8786753Y-15095281D01*
X8786753Y-15095281D02*
X8796277Y-15114329D01*
X8796277Y-15114329D02*
X8805801Y-15152424D01*
X8805801Y-15152424D02*
X8805801Y-15200043D01*
X8805801Y-15200043D02*
X8796277Y-15238138D01*
X8796277Y-15238138D02*
X8786753Y-15257186D01*
X8786753Y-15257186D02*
X8777229Y-15266710D01*
X8777229Y-15266710D02*
X8758182Y-15276234D01*
X8758182Y-15276234D02*
X8739134Y-15276234D01*
X8739134Y-15276234D02*
X8720087Y-15266710D01*
X8720087Y-15266710D02*
X8710563Y-15257186D01*
X8710563Y-15257186D02*
X8701039Y-15238138D01*
X8701039Y-15238138D02*
X8691515Y-15200043D01*
X8691515Y-15200043D02*
X8691515Y-15152424D01*
X8691515Y-15152424D02*
X8701039Y-15114329D01*
X8701039Y-15114329D02*
X8710563Y-15095281D01*
X8710563Y-15095281D02*
X8720087Y-15085758D01*
X8720087Y-15085758D02*
X8739134Y-15076234D01*
X8891515Y-15257186D02*
X8901039Y-15266710D01*
X8901039Y-15266710D02*
X8891515Y-15276234D01*
X8891515Y-15276234D02*
X8881991Y-15266710D01*
X8881991Y-15266710D02*
X8891515Y-15257186D01*
X8891515Y-15257186D02*
X8891515Y-15276234D01*
X9024848Y-15076234D02*
X9043896Y-15076234D01*
X9043896Y-15076234D02*
X9062944Y-15085758D01*
X9062944Y-15085758D02*
X9072468Y-15095281D01*
X9072468Y-15095281D02*
X9081991Y-15114329D01*
X9081991Y-15114329D02*
X9091515Y-15152424D01*
X9091515Y-15152424D02*
X9091515Y-15200043D01*
X9091515Y-15200043D02*
X9081991Y-15238138D01*
X9081991Y-15238138D02*
X9072468Y-15257186D01*
X9072468Y-15257186D02*
X9062944Y-15266710D01*
X9062944Y-15266710D02*
X9043896Y-15276234D01*
X9043896Y-15276234D02*
X9024848Y-15276234D01*
X9024848Y-15276234D02*
X9005801Y-15266710D01*
X9005801Y-15266710D02*
X8996277Y-15257186D01*
X8996277Y-15257186D02*
X8986753Y-15238138D01*
X8986753Y-15238138D02*
X8977229Y-15200043D01*
X8977229Y-15200043D02*
X8977229Y-15152424D01*
X8977229Y-15152424D02*
X8986753Y-15114329D01*
X8986753Y-15114329D02*
X8996277Y-15095281D01*
X8996277Y-15095281D02*
X9005801Y-15085758D01*
X9005801Y-15085758D02*
X9024848Y-15076234D01*
X9158182Y-15076234D02*
X9281991Y-15076234D01*
X9281991Y-15076234D02*
X9215325Y-15152424D01*
X9215325Y-15152424D02*
X9243896Y-15152424D01*
X9243896Y-15152424D02*
X9262944Y-15161948D01*
X9262944Y-15161948D02*
X9272468Y-15171472D01*
X9272468Y-15171472D02*
X9281991Y-15190519D01*
X9281991Y-15190519D02*
X9281991Y-15238138D01*
X9281991Y-15238138D02*
X9272468Y-15257186D01*
X9272468Y-15257186D02*
X9262944Y-15266710D01*
X9262944Y-15266710D02*
X9243896Y-15276234D01*
X9243896Y-15276234D02*
X9186753Y-15276234D01*
X9186753Y-15276234D02*
X9167706Y-15266710D01*
X9167706Y-15266710D02*
X9158182Y-15257186D01*
X9472468Y-15276234D02*
X9358182Y-15276234D01*
X9415325Y-15276234D02*
X9415325Y-15076234D01*
X9415325Y-15076234D02*
X9396277Y-15104805D01*
X9396277Y-15104805D02*
X9377229Y-15123853D01*
X9377229Y-15123853D02*
X9358182Y-15133377D01*
X9653420Y-15076234D02*
X9558182Y-15076234D01*
X9558182Y-15076234D02*
X9548658Y-15171472D01*
X9548658Y-15171472D02*
X9558182Y-15161948D01*
X9558182Y-15161948D02*
X9577229Y-15152424D01*
X9577229Y-15152424D02*
X9624849Y-15152424D01*
X9624849Y-15152424D02*
X9643896Y-15161948D01*
X9643896Y-15161948D02*
X9653420Y-15171472D01*
X9653420Y-15171472D02*
X9662944Y-15190519D01*
X9662944Y-15190519D02*
X9662944Y-15238138D01*
X9662944Y-15238138D02*
X9653420Y-15257186D01*
X9653420Y-15257186D02*
X9643896Y-15266710D01*
X9643896Y-15266710D02*
X9624849Y-15276234D01*
X9624849Y-15276234D02*
X9577229Y-15276234D01*
X9577229Y-15276234D02*
X9558182Y-15266710D01*
X9558182Y-15266710D02*
X9548658Y-15257186D01*
X9739134Y-15076234D02*
X9739134Y-15114329D01*
X9815325Y-15076234D02*
X9815325Y-15114329D01*
X10110563Y-15352424D02*
X10101039Y-15342900D01*
X10101039Y-15342900D02*
X10081991Y-15314329D01*
X10081991Y-15314329D02*
X10072468Y-15295281D01*
X10072468Y-15295281D02*
X10062944Y-15266710D01*
X10062944Y-15266710D02*
X10053420Y-15219091D01*
X10053420Y-15219091D02*
X10053420Y-15180996D01*
X10053420Y-15180996D02*
X10062944Y-15133377D01*
X10062944Y-15133377D02*
X10072468Y-15104805D01*
X10072468Y-15104805D02*
X10081991Y-15085758D01*
X10081991Y-15085758D02*
X10101039Y-15057186D01*
X10101039Y-15057186D02*
X10110563Y-15047662D01*
X10196277Y-15276234D02*
X10234372Y-15276234D01*
X10234372Y-15276234D02*
X10253420Y-15266710D01*
X10253420Y-15266710D02*
X10262944Y-15257186D01*
X10262944Y-15257186D02*
X10281991Y-15228615D01*
X10281991Y-15228615D02*
X10291515Y-15190519D01*
X10291515Y-15190519D02*
X10291515Y-15114329D01*
X10291515Y-15114329D02*
X10281991Y-15095281D01*
X10281991Y-15095281D02*
X10272468Y-15085758D01*
X10272468Y-15085758D02*
X10253420Y-15076234D01*
X10253420Y-15076234D02*
X10215325Y-15076234D01*
X10215325Y-15076234D02*
X10196277Y-15085758D01*
X10196277Y-15085758D02*
X10186753Y-15095281D01*
X10186753Y-15095281D02*
X10177230Y-15114329D01*
X10177230Y-15114329D02*
X10177230Y-15161948D01*
X10177230Y-15161948D02*
X10186753Y-15180996D01*
X10186753Y-15180996D02*
X10196277Y-15190519D01*
X10196277Y-15190519D02*
X10215325Y-15200043D01*
X10215325Y-15200043D02*
X10253420Y-15200043D01*
X10253420Y-15200043D02*
X10272468Y-15190519D01*
X10272468Y-15190519D02*
X10281991Y-15180996D01*
X10281991Y-15180996D02*
X10291515Y-15161948D01*
X10415325Y-15076234D02*
X10434372Y-15076234D01*
X10434372Y-15076234D02*
X10453420Y-15085758D01*
X10453420Y-15085758D02*
X10462944Y-15095281D01*
X10462944Y-15095281D02*
X10472468Y-15114329D01*
X10472468Y-15114329D02*
X10481991Y-15152424D01*
X10481991Y-15152424D02*
X10481991Y-15200043D01*
X10481991Y-15200043D02*
X10472468Y-15238138D01*
X10472468Y-15238138D02*
X10462944Y-15257186D01*
X10462944Y-15257186D02*
X10453420Y-15266710D01*
X10453420Y-15266710D02*
X10434372Y-15276234D01*
X10434372Y-15276234D02*
X10415325Y-15276234D01*
X10415325Y-15276234D02*
X10396277Y-15266710D01*
X10396277Y-15266710D02*
X10386753Y-15257186D01*
X10386753Y-15257186D02*
X10377230Y-15238138D01*
X10377230Y-15238138D02*
X10367706Y-15200043D01*
X10367706Y-15200043D02*
X10367706Y-15152424D01*
X10367706Y-15152424D02*
X10377230Y-15114329D01*
X10377230Y-15114329D02*
X10386753Y-15095281D01*
X10386753Y-15095281D02*
X10396277Y-15085758D01*
X10396277Y-15085758D02*
X10415325Y-15076234D01*
X10720087Y-15276234D02*
X10720087Y-15076234D01*
X10805801Y-15276234D02*
X10805801Y-15171472D01*
X10805801Y-15171472D02*
X10796277Y-15152424D01*
X10796277Y-15152424D02*
X10777230Y-15142900D01*
X10777230Y-15142900D02*
X10748658Y-15142900D01*
X10748658Y-15142900D02*
X10729611Y-15152424D01*
X10729611Y-15152424D02*
X10720087Y-15161948D01*
X10929611Y-15276234D02*
X10910563Y-15266710D01*
X10910563Y-15266710D02*
X10901039Y-15257186D01*
X10901039Y-15257186D02*
X10891515Y-15238138D01*
X10891515Y-15238138D02*
X10891515Y-15180996D01*
X10891515Y-15180996D02*
X10901039Y-15161948D01*
X10901039Y-15161948D02*
X10910563Y-15152424D01*
X10910563Y-15152424D02*
X10929611Y-15142900D01*
X10929611Y-15142900D02*
X10958182Y-15142900D01*
X10958182Y-15142900D02*
X10977230Y-15152424D01*
X10977230Y-15152424D02*
X10986753Y-15161948D01*
X10986753Y-15161948D02*
X10996277Y-15180996D01*
X10996277Y-15180996D02*
X10996277Y-15238138D01*
X10996277Y-15238138D02*
X10986753Y-15257186D01*
X10986753Y-15257186D02*
X10977230Y-15266710D01*
X10977230Y-15266710D02*
X10958182Y-15276234D01*
X10958182Y-15276234D02*
X10929611Y-15276234D01*
X11110563Y-15276234D02*
X11091515Y-15266710D01*
X11091515Y-15266710D02*
X11081992Y-15247662D01*
X11081992Y-15247662D02*
X11081992Y-15076234D01*
X11262944Y-15266710D02*
X11243896Y-15276234D01*
X11243896Y-15276234D02*
X11205801Y-15276234D01*
X11205801Y-15276234D02*
X11186753Y-15266710D01*
X11186753Y-15266710D02*
X11177230Y-15247662D01*
X11177230Y-15247662D02*
X11177230Y-15171472D01*
X11177230Y-15171472D02*
X11186753Y-15152424D01*
X11186753Y-15152424D02*
X11205801Y-15142900D01*
X11205801Y-15142900D02*
X11243896Y-15142900D01*
X11243896Y-15142900D02*
X11262944Y-15152424D01*
X11262944Y-15152424D02*
X11272468Y-15171472D01*
X11272468Y-15171472D02*
X11272468Y-15190519D01*
X11272468Y-15190519D02*
X11177230Y-15209567D01*
X11348658Y-15266710D02*
X11367706Y-15276234D01*
X11367706Y-15276234D02*
X11405801Y-15276234D01*
X11405801Y-15276234D02*
X11424849Y-15266710D01*
X11424849Y-15266710D02*
X11434372Y-15247662D01*
X11434372Y-15247662D02*
X11434372Y-15238138D01*
X11434372Y-15238138D02*
X11424849Y-15219091D01*
X11424849Y-15219091D02*
X11405801Y-15209567D01*
X11405801Y-15209567D02*
X11377230Y-15209567D01*
X11377230Y-15209567D02*
X11358182Y-15200043D01*
X11358182Y-15200043D02*
X11348658Y-15180996D01*
X11348658Y-15180996D02*
X11348658Y-15171472D01*
X11348658Y-15171472D02*
X11358182Y-15152424D01*
X11358182Y-15152424D02*
X11377230Y-15142900D01*
X11377230Y-15142900D02*
X11405801Y-15142900D01*
X11405801Y-15142900D02*
X11424849Y-15152424D01*
X11501039Y-15352424D02*
X11510563Y-15342900D01*
X11510563Y-15342900D02*
X11529611Y-15314329D01*
X11529611Y-15314329D02*
X11539134Y-15295281D01*
X11539134Y-15295281D02*
X11548658Y-15266710D01*
X11548658Y-15266710D02*
X11558182Y-15219091D01*
X11558182Y-15219091D02*
X11558182Y-15180996D01*
X11558182Y-15180996D02*
X11548658Y-15133377D01*
X11548658Y-15133377D02*
X11539134Y-15104805D01*
X11539134Y-15104805D02*
X11529611Y-15085758D01*
X11529611Y-15085758D02*
X11510563Y-15057186D01*
X11510563Y-15057186D02*
X11501039Y-15047662D01*
D16*
X6490500Y-15493750D02*
X6535500Y-15448750D01*
X6490500Y-15403750D01*
X6445500Y-15448750D01*
X6490500Y-15493750D01*
D11*
X6834372Y-15340234D02*
X6853420Y-15340234D01*
X6853420Y-15340234D02*
X6872467Y-15349758D01*
X6872467Y-15349758D02*
X6881991Y-15359281D01*
X6881991Y-15359281D02*
X6891515Y-15378329D01*
X6891515Y-15378329D02*
X6901039Y-15416424D01*
X6901039Y-15416424D02*
X6901039Y-15464043D01*
X6901039Y-15464043D02*
X6891515Y-15502138D01*
X6891515Y-15502138D02*
X6881991Y-15521186D01*
X6881991Y-15521186D02*
X6872467Y-15530710D01*
X6872467Y-15530710D02*
X6853420Y-15540234D01*
X6853420Y-15540234D02*
X6834372Y-15540234D01*
X6834372Y-15540234D02*
X6815324Y-15530710D01*
X6815324Y-15530710D02*
X6805801Y-15521186D01*
X6805801Y-15521186D02*
X6796277Y-15502138D01*
X6796277Y-15502138D02*
X6786753Y-15464043D01*
X6786753Y-15464043D02*
X6786753Y-15416424D01*
X6786753Y-15416424D02*
X6796277Y-15378329D01*
X6796277Y-15378329D02*
X6805801Y-15359281D01*
X6805801Y-15359281D02*
X6815324Y-15349758D01*
X6815324Y-15349758D02*
X6834372Y-15340234D01*
X6986753Y-15521186D02*
X6996277Y-15530710D01*
X6996277Y-15530710D02*
X6986753Y-15540234D01*
X6986753Y-15540234D02*
X6977229Y-15530710D01*
X6977229Y-15530710D02*
X6986753Y-15521186D01*
X6986753Y-15521186D02*
X6986753Y-15540234D01*
X7091515Y-15540234D02*
X7129610Y-15540234D01*
X7129610Y-15540234D02*
X7148658Y-15530710D01*
X7148658Y-15530710D02*
X7158182Y-15521186D01*
X7158182Y-15521186D02*
X7177229Y-15492615D01*
X7177229Y-15492615D02*
X7186753Y-15454519D01*
X7186753Y-15454519D02*
X7186753Y-15378329D01*
X7186753Y-15378329D02*
X7177229Y-15359281D01*
X7177229Y-15359281D02*
X7167705Y-15349758D01*
X7167705Y-15349758D02*
X7148658Y-15340234D01*
X7148658Y-15340234D02*
X7110562Y-15340234D01*
X7110562Y-15340234D02*
X7091515Y-15349758D01*
X7091515Y-15349758D02*
X7081991Y-15359281D01*
X7081991Y-15359281D02*
X7072467Y-15378329D01*
X7072467Y-15378329D02*
X7072467Y-15425948D01*
X7072467Y-15425948D02*
X7081991Y-15444996D01*
X7081991Y-15444996D02*
X7091515Y-15454519D01*
X7091515Y-15454519D02*
X7110562Y-15464043D01*
X7110562Y-15464043D02*
X7148658Y-15464043D01*
X7148658Y-15464043D02*
X7167705Y-15454519D01*
X7167705Y-15454519D02*
X7177229Y-15444996D01*
X7177229Y-15444996D02*
X7186753Y-15425948D01*
X7310562Y-15340234D02*
X7329610Y-15340234D01*
X7329610Y-15340234D02*
X7348658Y-15349758D01*
X7348658Y-15349758D02*
X7358182Y-15359281D01*
X7358182Y-15359281D02*
X7367705Y-15378329D01*
X7367705Y-15378329D02*
X7377229Y-15416424D01*
X7377229Y-15416424D02*
X7377229Y-15464043D01*
X7377229Y-15464043D02*
X7367705Y-15502138D01*
X7367705Y-15502138D02*
X7358182Y-15521186D01*
X7358182Y-15521186D02*
X7348658Y-15530710D01*
X7348658Y-15530710D02*
X7329610Y-15540234D01*
X7329610Y-15540234D02*
X7310562Y-15540234D01*
X7310562Y-15540234D02*
X7291515Y-15530710D01*
X7291515Y-15530710D02*
X7281991Y-15521186D01*
X7281991Y-15521186D02*
X7272467Y-15502138D01*
X7272467Y-15502138D02*
X7262943Y-15464043D01*
X7262943Y-15464043D02*
X7262943Y-15416424D01*
X7262943Y-15416424D02*
X7272467Y-15378329D01*
X7272467Y-15378329D02*
X7281991Y-15359281D01*
X7281991Y-15359281D02*
X7291515Y-15349758D01*
X7291515Y-15349758D02*
X7310562Y-15340234D01*
X7501039Y-15340234D02*
X7520086Y-15340234D01*
X7520086Y-15340234D02*
X7539134Y-15349758D01*
X7539134Y-15349758D02*
X7548658Y-15359281D01*
X7548658Y-15359281D02*
X7558182Y-15378329D01*
X7558182Y-15378329D02*
X7567705Y-15416424D01*
X7567705Y-15416424D02*
X7567705Y-15464043D01*
X7567705Y-15464043D02*
X7558182Y-15502138D01*
X7558182Y-15502138D02*
X7548658Y-15521186D01*
X7548658Y-15521186D02*
X7539134Y-15530710D01*
X7539134Y-15530710D02*
X7520086Y-15540234D01*
X7520086Y-15540234D02*
X7501039Y-15540234D01*
X7501039Y-15540234D02*
X7481991Y-15530710D01*
X7481991Y-15530710D02*
X7472467Y-15521186D01*
X7472467Y-15521186D02*
X7462943Y-15502138D01*
X7462943Y-15502138D02*
X7453420Y-15464043D01*
X7453420Y-15464043D02*
X7453420Y-15416424D01*
X7453420Y-15416424D02*
X7462943Y-15378329D01*
X7462943Y-15378329D02*
X7472467Y-15359281D01*
X7472467Y-15359281D02*
X7481991Y-15349758D01*
X7481991Y-15349758D02*
X7501039Y-15340234D01*
X7653420Y-15540234D02*
X7653420Y-15406900D01*
X7653420Y-15425948D02*
X7662943Y-15416424D01*
X7662943Y-15416424D02*
X7681991Y-15406900D01*
X7681991Y-15406900D02*
X7710563Y-15406900D01*
X7710563Y-15406900D02*
X7729610Y-15416424D01*
X7729610Y-15416424D02*
X7739134Y-15435472D01*
X7739134Y-15435472D02*
X7739134Y-15540234D01*
X7739134Y-15435472D02*
X7748658Y-15416424D01*
X7748658Y-15416424D02*
X7767705Y-15406900D01*
X7767705Y-15406900D02*
X7796277Y-15406900D01*
X7796277Y-15406900D02*
X7815324Y-15416424D01*
X7815324Y-15416424D02*
X7824848Y-15435472D01*
X7824848Y-15435472D02*
X7824848Y-15540234D01*
X7920086Y-15540234D02*
X7920086Y-15406900D01*
X7920086Y-15425948D02*
X7929610Y-15416424D01*
X7929610Y-15416424D02*
X7948658Y-15406900D01*
X7948658Y-15406900D02*
X7977229Y-15406900D01*
X7977229Y-15406900D02*
X7996277Y-15416424D01*
X7996277Y-15416424D02*
X8005801Y-15435472D01*
X8005801Y-15435472D02*
X8005801Y-15540234D01*
X8005801Y-15435472D02*
X8015324Y-15416424D01*
X8015324Y-15416424D02*
X8034372Y-15406900D01*
X8034372Y-15406900D02*
X8062943Y-15406900D01*
X8062943Y-15406900D02*
X8081991Y-15416424D01*
X8081991Y-15416424D02*
X8091515Y-15435472D01*
X8091515Y-15435472D02*
X8091515Y-15540234D01*
X8481991Y-15330710D02*
X8310563Y-15587853D01*
X8739134Y-15340234D02*
X8758182Y-15340234D01*
X8758182Y-15340234D02*
X8777229Y-15349758D01*
X8777229Y-15349758D02*
X8786753Y-15359281D01*
X8786753Y-15359281D02*
X8796277Y-15378329D01*
X8796277Y-15378329D02*
X8805801Y-15416424D01*
X8805801Y-15416424D02*
X8805801Y-15464043D01*
X8805801Y-15464043D02*
X8796277Y-15502138D01*
X8796277Y-15502138D02*
X8786753Y-15521186D01*
X8786753Y-15521186D02*
X8777229Y-15530710D01*
X8777229Y-15530710D02*
X8758182Y-15540234D01*
X8758182Y-15540234D02*
X8739134Y-15540234D01*
X8739134Y-15540234D02*
X8720087Y-15530710D01*
X8720087Y-15530710D02*
X8710563Y-15521186D01*
X8710563Y-15521186D02*
X8701039Y-15502138D01*
X8701039Y-15502138D02*
X8691515Y-15464043D01*
X8691515Y-15464043D02*
X8691515Y-15416424D01*
X8691515Y-15416424D02*
X8701039Y-15378329D01*
X8701039Y-15378329D02*
X8710563Y-15359281D01*
X8710563Y-15359281D02*
X8720087Y-15349758D01*
X8720087Y-15349758D02*
X8739134Y-15340234D01*
X8891515Y-15521186D02*
X8901039Y-15530710D01*
X8901039Y-15530710D02*
X8891515Y-15540234D01*
X8891515Y-15540234D02*
X8881991Y-15530710D01*
X8881991Y-15530710D02*
X8891515Y-15521186D01*
X8891515Y-15521186D02*
X8891515Y-15540234D01*
X9024848Y-15340234D02*
X9043896Y-15340234D01*
X9043896Y-15340234D02*
X9062944Y-15349758D01*
X9062944Y-15349758D02*
X9072468Y-15359281D01*
X9072468Y-15359281D02*
X9081991Y-15378329D01*
X9081991Y-15378329D02*
X9091515Y-15416424D01*
X9091515Y-15416424D02*
X9091515Y-15464043D01*
X9091515Y-15464043D02*
X9081991Y-15502138D01*
X9081991Y-15502138D02*
X9072468Y-15521186D01*
X9072468Y-15521186D02*
X9062944Y-15530710D01*
X9062944Y-15530710D02*
X9043896Y-15540234D01*
X9043896Y-15540234D02*
X9024848Y-15540234D01*
X9024848Y-15540234D02*
X9005801Y-15530710D01*
X9005801Y-15530710D02*
X8996277Y-15521186D01*
X8996277Y-15521186D02*
X8986753Y-15502138D01*
X8986753Y-15502138D02*
X8977229Y-15464043D01*
X8977229Y-15464043D02*
X8977229Y-15416424D01*
X8977229Y-15416424D02*
X8986753Y-15378329D01*
X8986753Y-15378329D02*
X8996277Y-15359281D01*
X8996277Y-15359281D02*
X9005801Y-15349758D01*
X9005801Y-15349758D02*
X9024848Y-15340234D01*
X9158182Y-15340234D02*
X9281991Y-15340234D01*
X9281991Y-15340234D02*
X9215325Y-15416424D01*
X9215325Y-15416424D02*
X9243896Y-15416424D01*
X9243896Y-15416424D02*
X9262944Y-15425948D01*
X9262944Y-15425948D02*
X9272468Y-15435472D01*
X9272468Y-15435472D02*
X9281991Y-15454519D01*
X9281991Y-15454519D02*
X9281991Y-15502138D01*
X9281991Y-15502138D02*
X9272468Y-15521186D01*
X9272468Y-15521186D02*
X9262944Y-15530710D01*
X9262944Y-15530710D02*
X9243896Y-15540234D01*
X9243896Y-15540234D02*
X9186753Y-15540234D01*
X9186753Y-15540234D02*
X9167706Y-15530710D01*
X9167706Y-15530710D02*
X9158182Y-15521186D01*
X9462944Y-15340234D02*
X9367706Y-15340234D01*
X9367706Y-15340234D02*
X9358182Y-15435472D01*
X9358182Y-15435472D02*
X9367706Y-15425948D01*
X9367706Y-15425948D02*
X9386753Y-15416424D01*
X9386753Y-15416424D02*
X9434372Y-15416424D01*
X9434372Y-15416424D02*
X9453420Y-15425948D01*
X9453420Y-15425948D02*
X9462944Y-15435472D01*
X9462944Y-15435472D02*
X9472468Y-15454519D01*
X9472468Y-15454519D02*
X9472468Y-15502138D01*
X9472468Y-15502138D02*
X9462944Y-15521186D01*
X9462944Y-15521186D02*
X9453420Y-15530710D01*
X9453420Y-15530710D02*
X9434372Y-15540234D01*
X9434372Y-15540234D02*
X9386753Y-15540234D01*
X9386753Y-15540234D02*
X9367706Y-15530710D01*
X9367706Y-15530710D02*
X9358182Y-15521186D01*
X9643896Y-15406900D02*
X9643896Y-15540234D01*
X9596277Y-15330710D02*
X9548658Y-15473567D01*
X9548658Y-15473567D02*
X9672468Y-15473567D01*
X9739134Y-15340234D02*
X9739134Y-15378329D01*
X9815325Y-15340234D02*
X9815325Y-15378329D01*
X10110563Y-15616424D02*
X10101039Y-15606900D01*
X10101039Y-15606900D02*
X10081991Y-15578329D01*
X10081991Y-15578329D02*
X10072468Y-15559281D01*
X10072468Y-15559281D02*
X10062944Y-15530710D01*
X10062944Y-15530710D02*
X10053420Y-15483091D01*
X10053420Y-15483091D02*
X10053420Y-15444996D01*
X10053420Y-15444996D02*
X10062944Y-15397377D01*
X10062944Y-15397377D02*
X10072468Y-15368805D01*
X10072468Y-15368805D02*
X10081991Y-15349758D01*
X10081991Y-15349758D02*
X10101039Y-15321186D01*
X10101039Y-15321186D02*
X10110563Y-15311662D01*
X10177230Y-15359281D02*
X10186753Y-15349758D01*
X10186753Y-15349758D02*
X10205801Y-15340234D01*
X10205801Y-15340234D02*
X10253420Y-15340234D01*
X10253420Y-15340234D02*
X10272468Y-15349758D01*
X10272468Y-15349758D02*
X10281991Y-15359281D01*
X10281991Y-15359281D02*
X10291515Y-15378329D01*
X10291515Y-15378329D02*
X10291515Y-15397377D01*
X10291515Y-15397377D02*
X10281991Y-15425948D01*
X10281991Y-15425948D02*
X10167706Y-15540234D01*
X10167706Y-15540234D02*
X10291515Y-15540234D01*
X10415325Y-15340234D02*
X10434372Y-15340234D01*
X10434372Y-15340234D02*
X10453420Y-15349758D01*
X10453420Y-15349758D02*
X10462944Y-15359281D01*
X10462944Y-15359281D02*
X10472468Y-15378329D01*
X10472468Y-15378329D02*
X10481991Y-15416424D01*
X10481991Y-15416424D02*
X10481991Y-15464043D01*
X10481991Y-15464043D02*
X10472468Y-15502138D01*
X10472468Y-15502138D02*
X10462944Y-15521186D01*
X10462944Y-15521186D02*
X10453420Y-15530710D01*
X10453420Y-15530710D02*
X10434372Y-15540234D01*
X10434372Y-15540234D02*
X10415325Y-15540234D01*
X10415325Y-15540234D02*
X10396277Y-15530710D01*
X10396277Y-15530710D02*
X10386753Y-15521186D01*
X10386753Y-15521186D02*
X10377230Y-15502138D01*
X10377230Y-15502138D02*
X10367706Y-15464043D01*
X10367706Y-15464043D02*
X10367706Y-15416424D01*
X10367706Y-15416424D02*
X10377230Y-15378329D01*
X10377230Y-15378329D02*
X10386753Y-15359281D01*
X10386753Y-15359281D02*
X10396277Y-15349758D01*
X10396277Y-15349758D02*
X10415325Y-15340234D01*
X10720087Y-15540234D02*
X10720087Y-15340234D01*
X10805801Y-15540234D02*
X10805801Y-15435472D01*
X10805801Y-15435472D02*
X10796277Y-15416424D01*
X10796277Y-15416424D02*
X10777230Y-15406900D01*
X10777230Y-15406900D02*
X10748658Y-15406900D01*
X10748658Y-15406900D02*
X10729611Y-15416424D01*
X10729611Y-15416424D02*
X10720087Y-15425948D01*
X10929611Y-15540234D02*
X10910563Y-15530710D01*
X10910563Y-15530710D02*
X10901039Y-15521186D01*
X10901039Y-15521186D02*
X10891515Y-15502138D01*
X10891515Y-15502138D02*
X10891515Y-15444996D01*
X10891515Y-15444996D02*
X10901039Y-15425948D01*
X10901039Y-15425948D02*
X10910563Y-15416424D01*
X10910563Y-15416424D02*
X10929611Y-15406900D01*
X10929611Y-15406900D02*
X10958182Y-15406900D01*
X10958182Y-15406900D02*
X10977230Y-15416424D01*
X10977230Y-15416424D02*
X10986753Y-15425948D01*
X10986753Y-15425948D02*
X10996277Y-15444996D01*
X10996277Y-15444996D02*
X10996277Y-15502138D01*
X10996277Y-15502138D02*
X10986753Y-15521186D01*
X10986753Y-15521186D02*
X10977230Y-15530710D01*
X10977230Y-15530710D02*
X10958182Y-15540234D01*
X10958182Y-15540234D02*
X10929611Y-15540234D01*
X11110563Y-15540234D02*
X11091515Y-15530710D01*
X11091515Y-15530710D02*
X11081992Y-15511662D01*
X11081992Y-15511662D02*
X11081992Y-15340234D01*
X11262944Y-15530710D02*
X11243896Y-15540234D01*
X11243896Y-15540234D02*
X11205801Y-15540234D01*
X11205801Y-15540234D02*
X11186753Y-15530710D01*
X11186753Y-15530710D02*
X11177230Y-15511662D01*
X11177230Y-15511662D02*
X11177230Y-15435472D01*
X11177230Y-15435472D02*
X11186753Y-15416424D01*
X11186753Y-15416424D02*
X11205801Y-15406900D01*
X11205801Y-15406900D02*
X11243896Y-15406900D01*
X11243896Y-15406900D02*
X11262944Y-15416424D01*
X11262944Y-15416424D02*
X11272468Y-15435472D01*
X11272468Y-15435472D02*
X11272468Y-15454519D01*
X11272468Y-15454519D02*
X11177230Y-15473567D01*
X11348658Y-15530710D02*
X11367706Y-15540234D01*
X11367706Y-15540234D02*
X11405801Y-15540234D01*
X11405801Y-15540234D02*
X11424849Y-15530710D01*
X11424849Y-15530710D02*
X11434372Y-15511662D01*
X11434372Y-15511662D02*
X11434372Y-15502138D01*
X11434372Y-15502138D02*
X11424849Y-15483091D01*
X11424849Y-15483091D02*
X11405801Y-15473567D01*
X11405801Y-15473567D02*
X11377230Y-15473567D01*
X11377230Y-15473567D02*
X11358182Y-15464043D01*
X11358182Y-15464043D02*
X11348658Y-15444996D01*
X11348658Y-15444996D02*
X11348658Y-15435472D01*
X11348658Y-15435472D02*
X11358182Y-15416424D01*
X11358182Y-15416424D02*
X11377230Y-15406900D01*
X11377230Y-15406900D02*
X11405801Y-15406900D01*
X11405801Y-15406900D02*
X11424849Y-15416424D01*
X11501039Y-15616424D02*
X11510563Y-15606900D01*
X11510563Y-15606900D02*
X11529611Y-15578329D01*
X11529611Y-15578329D02*
X11539134Y-15559281D01*
X11539134Y-15559281D02*
X11548658Y-15530710D01*
X11548658Y-15530710D02*
X11558182Y-15483091D01*
X11558182Y-15483091D02*
X11558182Y-15444996D01*
X11558182Y-15444996D02*
X11548658Y-15397377D01*
X11548658Y-15397377D02*
X11539134Y-15368805D01*
X11539134Y-15368805D02*
X11529611Y-15349758D01*
X11529611Y-15349758D02*
X11510563Y-15321186D01*
X11510563Y-15321186D02*
X11501039Y-15311662D01*
D10*
X6435500Y-15662750D02*
X6535500Y-15762750D01*
X6535500Y-15662750D02*
X6435500Y-15762750D01*
X6535500Y-15712750D02*
G75*
G03*
X6535500Y-15712750I-50000J0D01*
G01*
D11*
X6901039Y-15804234D02*
X6786753Y-15804234D01*
X6843896Y-15804234D02*
X6843896Y-15604234D01*
X6843896Y-15604234D02*
X6824848Y-15632805D01*
X6824848Y-15632805D02*
X6805801Y-15651853D01*
X6805801Y-15651853D02*
X6786753Y-15661377D01*
X6986753Y-15785186D02*
X6996277Y-15794710D01*
X6996277Y-15794710D02*
X6986753Y-15804234D01*
X6986753Y-15804234D02*
X6977229Y-15794710D01*
X6977229Y-15794710D02*
X6986753Y-15785186D01*
X6986753Y-15785186D02*
X6986753Y-15804234D01*
X7120086Y-15604234D02*
X7139134Y-15604234D01*
X7139134Y-15604234D02*
X7158182Y-15613758D01*
X7158182Y-15613758D02*
X7167705Y-15623281D01*
X7167705Y-15623281D02*
X7177229Y-15642329D01*
X7177229Y-15642329D02*
X7186753Y-15680424D01*
X7186753Y-15680424D02*
X7186753Y-15728043D01*
X7186753Y-15728043D02*
X7177229Y-15766138D01*
X7177229Y-15766138D02*
X7167705Y-15785186D01*
X7167705Y-15785186D02*
X7158182Y-15794710D01*
X7158182Y-15794710D02*
X7139134Y-15804234D01*
X7139134Y-15804234D02*
X7120086Y-15804234D01*
X7120086Y-15804234D02*
X7101039Y-15794710D01*
X7101039Y-15794710D02*
X7091515Y-15785186D01*
X7091515Y-15785186D02*
X7081991Y-15766138D01*
X7081991Y-15766138D02*
X7072467Y-15728043D01*
X7072467Y-15728043D02*
X7072467Y-15680424D01*
X7072467Y-15680424D02*
X7081991Y-15642329D01*
X7081991Y-15642329D02*
X7091515Y-15623281D01*
X7091515Y-15623281D02*
X7101039Y-15613758D01*
X7101039Y-15613758D02*
X7120086Y-15604234D01*
X7310562Y-15604234D02*
X7329610Y-15604234D01*
X7329610Y-15604234D02*
X7348658Y-15613758D01*
X7348658Y-15613758D02*
X7358182Y-15623281D01*
X7358182Y-15623281D02*
X7367705Y-15642329D01*
X7367705Y-15642329D02*
X7377229Y-15680424D01*
X7377229Y-15680424D02*
X7377229Y-15728043D01*
X7377229Y-15728043D02*
X7367705Y-15766138D01*
X7367705Y-15766138D02*
X7358182Y-15785186D01*
X7358182Y-15785186D02*
X7348658Y-15794710D01*
X7348658Y-15794710D02*
X7329610Y-15804234D01*
X7329610Y-15804234D02*
X7310562Y-15804234D01*
X7310562Y-15804234D02*
X7291515Y-15794710D01*
X7291515Y-15794710D02*
X7281991Y-15785186D01*
X7281991Y-15785186D02*
X7272467Y-15766138D01*
X7272467Y-15766138D02*
X7262943Y-15728043D01*
X7262943Y-15728043D02*
X7262943Y-15680424D01*
X7262943Y-15680424D02*
X7272467Y-15642329D01*
X7272467Y-15642329D02*
X7281991Y-15623281D01*
X7281991Y-15623281D02*
X7291515Y-15613758D01*
X7291515Y-15613758D02*
X7310562Y-15604234D01*
X7501039Y-15604234D02*
X7520086Y-15604234D01*
X7520086Y-15604234D02*
X7539134Y-15613758D01*
X7539134Y-15613758D02*
X7548658Y-15623281D01*
X7548658Y-15623281D02*
X7558182Y-15642329D01*
X7558182Y-15642329D02*
X7567705Y-15680424D01*
X7567705Y-15680424D02*
X7567705Y-15728043D01*
X7567705Y-15728043D02*
X7558182Y-15766138D01*
X7558182Y-15766138D02*
X7548658Y-15785186D01*
X7548658Y-15785186D02*
X7539134Y-15794710D01*
X7539134Y-15794710D02*
X7520086Y-15804234D01*
X7520086Y-15804234D02*
X7501039Y-15804234D01*
X7501039Y-15804234D02*
X7481991Y-15794710D01*
X7481991Y-15794710D02*
X7472467Y-15785186D01*
X7472467Y-15785186D02*
X7462943Y-15766138D01*
X7462943Y-15766138D02*
X7453420Y-15728043D01*
X7453420Y-15728043D02*
X7453420Y-15680424D01*
X7453420Y-15680424D02*
X7462943Y-15642329D01*
X7462943Y-15642329D02*
X7472467Y-15623281D01*
X7472467Y-15623281D02*
X7481991Y-15613758D01*
X7481991Y-15613758D02*
X7501039Y-15604234D01*
X7653420Y-15804234D02*
X7653420Y-15670900D01*
X7653420Y-15689948D02*
X7662943Y-15680424D01*
X7662943Y-15680424D02*
X7681991Y-15670900D01*
X7681991Y-15670900D02*
X7710563Y-15670900D01*
X7710563Y-15670900D02*
X7729610Y-15680424D01*
X7729610Y-15680424D02*
X7739134Y-15699472D01*
X7739134Y-15699472D02*
X7739134Y-15804234D01*
X7739134Y-15699472D02*
X7748658Y-15680424D01*
X7748658Y-15680424D02*
X7767705Y-15670900D01*
X7767705Y-15670900D02*
X7796277Y-15670900D01*
X7796277Y-15670900D02*
X7815324Y-15680424D01*
X7815324Y-15680424D02*
X7824848Y-15699472D01*
X7824848Y-15699472D02*
X7824848Y-15804234D01*
X7920086Y-15804234D02*
X7920086Y-15670900D01*
X7920086Y-15689948D02*
X7929610Y-15680424D01*
X7929610Y-15680424D02*
X7948658Y-15670900D01*
X7948658Y-15670900D02*
X7977229Y-15670900D01*
X7977229Y-15670900D02*
X7996277Y-15680424D01*
X7996277Y-15680424D02*
X8005801Y-15699472D01*
X8005801Y-15699472D02*
X8005801Y-15804234D01*
X8005801Y-15699472D02*
X8015324Y-15680424D01*
X8015324Y-15680424D02*
X8034372Y-15670900D01*
X8034372Y-15670900D02*
X8062943Y-15670900D01*
X8062943Y-15670900D02*
X8081991Y-15680424D01*
X8081991Y-15680424D02*
X8091515Y-15699472D01*
X8091515Y-15699472D02*
X8091515Y-15804234D01*
X8481991Y-15594710D02*
X8310563Y-15851853D01*
X8739134Y-15604234D02*
X8758182Y-15604234D01*
X8758182Y-15604234D02*
X8777229Y-15613758D01*
X8777229Y-15613758D02*
X8786753Y-15623281D01*
X8786753Y-15623281D02*
X8796277Y-15642329D01*
X8796277Y-15642329D02*
X8805801Y-15680424D01*
X8805801Y-15680424D02*
X8805801Y-15728043D01*
X8805801Y-15728043D02*
X8796277Y-15766138D01*
X8796277Y-15766138D02*
X8786753Y-15785186D01*
X8786753Y-15785186D02*
X8777229Y-15794710D01*
X8777229Y-15794710D02*
X8758182Y-15804234D01*
X8758182Y-15804234D02*
X8739134Y-15804234D01*
X8739134Y-15804234D02*
X8720087Y-15794710D01*
X8720087Y-15794710D02*
X8710563Y-15785186D01*
X8710563Y-15785186D02*
X8701039Y-15766138D01*
X8701039Y-15766138D02*
X8691515Y-15728043D01*
X8691515Y-15728043D02*
X8691515Y-15680424D01*
X8691515Y-15680424D02*
X8701039Y-15642329D01*
X8701039Y-15642329D02*
X8710563Y-15623281D01*
X8710563Y-15623281D02*
X8720087Y-15613758D01*
X8720087Y-15613758D02*
X8739134Y-15604234D01*
X8891515Y-15785186D02*
X8901039Y-15794710D01*
X8901039Y-15794710D02*
X8891515Y-15804234D01*
X8891515Y-15804234D02*
X8881991Y-15794710D01*
X8881991Y-15794710D02*
X8891515Y-15785186D01*
X8891515Y-15785186D02*
X8891515Y-15804234D01*
X9024848Y-15604234D02*
X9043896Y-15604234D01*
X9043896Y-15604234D02*
X9062944Y-15613758D01*
X9062944Y-15613758D02*
X9072468Y-15623281D01*
X9072468Y-15623281D02*
X9081991Y-15642329D01*
X9081991Y-15642329D02*
X9091515Y-15680424D01*
X9091515Y-15680424D02*
X9091515Y-15728043D01*
X9091515Y-15728043D02*
X9081991Y-15766138D01*
X9081991Y-15766138D02*
X9072468Y-15785186D01*
X9072468Y-15785186D02*
X9062944Y-15794710D01*
X9062944Y-15794710D02*
X9043896Y-15804234D01*
X9043896Y-15804234D02*
X9024848Y-15804234D01*
X9024848Y-15804234D02*
X9005801Y-15794710D01*
X9005801Y-15794710D02*
X8996277Y-15785186D01*
X8996277Y-15785186D02*
X8986753Y-15766138D01*
X8986753Y-15766138D02*
X8977229Y-15728043D01*
X8977229Y-15728043D02*
X8977229Y-15680424D01*
X8977229Y-15680424D02*
X8986753Y-15642329D01*
X8986753Y-15642329D02*
X8996277Y-15623281D01*
X8996277Y-15623281D02*
X9005801Y-15613758D01*
X9005801Y-15613758D02*
X9024848Y-15604234D01*
X9158182Y-15604234D02*
X9281991Y-15604234D01*
X9281991Y-15604234D02*
X9215325Y-15680424D01*
X9215325Y-15680424D02*
X9243896Y-15680424D01*
X9243896Y-15680424D02*
X9262944Y-15689948D01*
X9262944Y-15689948D02*
X9272468Y-15699472D01*
X9272468Y-15699472D02*
X9281991Y-15718519D01*
X9281991Y-15718519D02*
X9281991Y-15766138D01*
X9281991Y-15766138D02*
X9272468Y-15785186D01*
X9272468Y-15785186D02*
X9262944Y-15794710D01*
X9262944Y-15794710D02*
X9243896Y-15804234D01*
X9243896Y-15804234D02*
X9186753Y-15804234D01*
X9186753Y-15804234D02*
X9167706Y-15794710D01*
X9167706Y-15794710D02*
X9158182Y-15785186D01*
X9377229Y-15804234D02*
X9415325Y-15804234D01*
X9415325Y-15804234D02*
X9434372Y-15794710D01*
X9434372Y-15794710D02*
X9443896Y-15785186D01*
X9443896Y-15785186D02*
X9462944Y-15756615D01*
X9462944Y-15756615D02*
X9472468Y-15718519D01*
X9472468Y-15718519D02*
X9472468Y-15642329D01*
X9472468Y-15642329D02*
X9462944Y-15623281D01*
X9462944Y-15623281D02*
X9453420Y-15613758D01*
X9453420Y-15613758D02*
X9434372Y-15604234D01*
X9434372Y-15604234D02*
X9396277Y-15604234D01*
X9396277Y-15604234D02*
X9377229Y-15613758D01*
X9377229Y-15613758D02*
X9367706Y-15623281D01*
X9367706Y-15623281D02*
X9358182Y-15642329D01*
X9358182Y-15642329D02*
X9358182Y-15689948D01*
X9358182Y-15689948D02*
X9367706Y-15708996D01*
X9367706Y-15708996D02*
X9377229Y-15718519D01*
X9377229Y-15718519D02*
X9396277Y-15728043D01*
X9396277Y-15728043D02*
X9434372Y-15728043D01*
X9434372Y-15728043D02*
X9453420Y-15718519D01*
X9453420Y-15718519D02*
X9462944Y-15708996D01*
X9462944Y-15708996D02*
X9472468Y-15689948D01*
X9643896Y-15670900D02*
X9643896Y-15804234D01*
X9596277Y-15594710D02*
X9548658Y-15737567D01*
X9548658Y-15737567D02*
X9672468Y-15737567D01*
X9739134Y-15604234D02*
X9739134Y-15642329D01*
X9815325Y-15604234D02*
X9815325Y-15642329D01*
X10110563Y-15880424D02*
X10101039Y-15870900D01*
X10101039Y-15870900D02*
X10081991Y-15842329D01*
X10081991Y-15842329D02*
X10072468Y-15823281D01*
X10072468Y-15823281D02*
X10062944Y-15794710D01*
X10062944Y-15794710D02*
X10053420Y-15747091D01*
X10053420Y-15747091D02*
X10053420Y-15708996D01*
X10053420Y-15708996D02*
X10062944Y-15661377D01*
X10062944Y-15661377D02*
X10072468Y-15632805D01*
X10072468Y-15632805D02*
X10081991Y-15613758D01*
X10081991Y-15613758D02*
X10101039Y-15585186D01*
X10101039Y-15585186D02*
X10110563Y-15575662D01*
X10291515Y-15804234D02*
X10177230Y-15804234D01*
X10234372Y-15804234D02*
X10234372Y-15604234D01*
X10234372Y-15604234D02*
X10215325Y-15632805D01*
X10215325Y-15632805D02*
X10196277Y-15651853D01*
X10196277Y-15651853D02*
X10177230Y-15661377D01*
X10358182Y-15604234D02*
X10491515Y-15604234D01*
X10491515Y-15604234D02*
X10405801Y-15804234D01*
X10720087Y-15804234D02*
X10720087Y-15604234D01*
X10805801Y-15804234D02*
X10805801Y-15699472D01*
X10805801Y-15699472D02*
X10796277Y-15680424D01*
X10796277Y-15680424D02*
X10777230Y-15670900D01*
X10777230Y-15670900D02*
X10748658Y-15670900D01*
X10748658Y-15670900D02*
X10729611Y-15680424D01*
X10729611Y-15680424D02*
X10720087Y-15689948D01*
X10929611Y-15804234D02*
X10910563Y-15794710D01*
X10910563Y-15794710D02*
X10901039Y-15785186D01*
X10901039Y-15785186D02*
X10891515Y-15766138D01*
X10891515Y-15766138D02*
X10891515Y-15708996D01*
X10891515Y-15708996D02*
X10901039Y-15689948D01*
X10901039Y-15689948D02*
X10910563Y-15680424D01*
X10910563Y-15680424D02*
X10929611Y-15670900D01*
X10929611Y-15670900D02*
X10958182Y-15670900D01*
X10958182Y-15670900D02*
X10977230Y-15680424D01*
X10977230Y-15680424D02*
X10986753Y-15689948D01*
X10986753Y-15689948D02*
X10996277Y-15708996D01*
X10996277Y-15708996D02*
X10996277Y-15766138D01*
X10996277Y-15766138D02*
X10986753Y-15785186D01*
X10986753Y-15785186D02*
X10977230Y-15794710D01*
X10977230Y-15794710D02*
X10958182Y-15804234D01*
X10958182Y-15804234D02*
X10929611Y-15804234D01*
X11110563Y-15804234D02*
X11091515Y-15794710D01*
X11091515Y-15794710D02*
X11081992Y-15775662D01*
X11081992Y-15775662D02*
X11081992Y-15604234D01*
X11262944Y-15794710D02*
X11243896Y-15804234D01*
X11243896Y-15804234D02*
X11205801Y-15804234D01*
X11205801Y-15804234D02*
X11186753Y-15794710D01*
X11186753Y-15794710D02*
X11177230Y-15775662D01*
X11177230Y-15775662D02*
X11177230Y-15699472D01*
X11177230Y-15699472D02*
X11186753Y-15680424D01*
X11186753Y-15680424D02*
X11205801Y-15670900D01*
X11205801Y-15670900D02*
X11243896Y-15670900D01*
X11243896Y-15670900D02*
X11262944Y-15680424D01*
X11262944Y-15680424D02*
X11272468Y-15699472D01*
X11272468Y-15699472D02*
X11272468Y-15718519D01*
X11272468Y-15718519D02*
X11177230Y-15737567D01*
X11348658Y-15794710D02*
X11367706Y-15804234D01*
X11367706Y-15804234D02*
X11405801Y-15804234D01*
X11405801Y-15804234D02*
X11424849Y-15794710D01*
X11424849Y-15794710D02*
X11434372Y-15775662D01*
X11434372Y-15775662D02*
X11434372Y-15766138D01*
X11434372Y-15766138D02*
X11424849Y-15747091D01*
X11424849Y-15747091D02*
X11405801Y-15737567D01*
X11405801Y-15737567D02*
X11377230Y-15737567D01*
X11377230Y-15737567D02*
X11358182Y-15728043D01*
X11358182Y-15728043D02*
X11348658Y-15708996D01*
X11348658Y-15708996D02*
X11348658Y-15699472D01*
X11348658Y-15699472D02*
X11358182Y-15680424D01*
X11358182Y-15680424D02*
X11377230Y-15670900D01*
X11377230Y-15670900D02*
X11405801Y-15670900D01*
X11405801Y-15670900D02*
X11424849Y-15680424D01*
X11501039Y-15880424D02*
X11510563Y-15870900D01*
X11510563Y-15870900D02*
X11529611Y-15842329D01*
X11529611Y-15842329D02*
X11539134Y-15823281D01*
X11539134Y-15823281D02*
X11548658Y-15794710D01*
X11548658Y-15794710D02*
X11558182Y-15747091D01*
X11558182Y-15747091D02*
X11558182Y-15708996D01*
X11558182Y-15708996D02*
X11548658Y-15661377D01*
X11548658Y-15661377D02*
X11539134Y-15632805D01*
X11539134Y-15632805D02*
X11529611Y-15613758D01*
X11529611Y-15613758D02*
X11510563Y-15585186D01*
X11510563Y-15585186D02*
X11501039Y-15575662D01*
D17*
X6425500Y-15921750D02*
X6535500Y-16031750D01*
X6535500Y-15921750D02*
X6425500Y-16031750D01*
X6480500Y-15921750D02*
X6480500Y-16031750D01*
X6425500Y-15976750D02*
X6535500Y-15976750D01*
D11*
X6901039Y-16068234D02*
X6786753Y-16068234D01*
X6843896Y-16068234D02*
X6843896Y-15868234D01*
X6843896Y-15868234D02*
X6824848Y-15896805D01*
X6824848Y-15896805D02*
X6805801Y-15915853D01*
X6805801Y-15915853D02*
X6786753Y-15925377D01*
X6986753Y-16049186D02*
X6996277Y-16058710D01*
X6996277Y-16058710D02*
X6986753Y-16068234D01*
X6986753Y-16068234D02*
X6977229Y-16058710D01*
X6977229Y-16058710D02*
X6986753Y-16049186D01*
X6986753Y-16049186D02*
X6986753Y-16068234D01*
X7186753Y-16068234D02*
X7072467Y-16068234D01*
X7129610Y-16068234D02*
X7129610Y-15868234D01*
X7129610Y-15868234D02*
X7110562Y-15896805D01*
X7110562Y-15896805D02*
X7091515Y-15915853D01*
X7091515Y-15915853D02*
X7072467Y-15925377D01*
X7310562Y-15868234D02*
X7329610Y-15868234D01*
X7329610Y-15868234D02*
X7348658Y-15877758D01*
X7348658Y-15877758D02*
X7358182Y-15887281D01*
X7358182Y-15887281D02*
X7367705Y-15906329D01*
X7367705Y-15906329D02*
X7377229Y-15944424D01*
X7377229Y-15944424D02*
X7377229Y-15992043D01*
X7377229Y-15992043D02*
X7367705Y-16030138D01*
X7367705Y-16030138D02*
X7358182Y-16049186D01*
X7358182Y-16049186D02*
X7348658Y-16058710D01*
X7348658Y-16058710D02*
X7329610Y-16068234D01*
X7329610Y-16068234D02*
X7310562Y-16068234D01*
X7310562Y-16068234D02*
X7291515Y-16058710D01*
X7291515Y-16058710D02*
X7281991Y-16049186D01*
X7281991Y-16049186D02*
X7272467Y-16030138D01*
X7272467Y-16030138D02*
X7262943Y-15992043D01*
X7262943Y-15992043D02*
X7262943Y-15944424D01*
X7262943Y-15944424D02*
X7272467Y-15906329D01*
X7272467Y-15906329D02*
X7281991Y-15887281D01*
X7281991Y-15887281D02*
X7291515Y-15877758D01*
X7291515Y-15877758D02*
X7310562Y-15868234D01*
X7501039Y-15868234D02*
X7520086Y-15868234D01*
X7520086Y-15868234D02*
X7539134Y-15877758D01*
X7539134Y-15877758D02*
X7548658Y-15887281D01*
X7548658Y-15887281D02*
X7558182Y-15906329D01*
X7558182Y-15906329D02*
X7567705Y-15944424D01*
X7567705Y-15944424D02*
X7567705Y-15992043D01*
X7567705Y-15992043D02*
X7558182Y-16030138D01*
X7558182Y-16030138D02*
X7548658Y-16049186D01*
X7548658Y-16049186D02*
X7539134Y-16058710D01*
X7539134Y-16058710D02*
X7520086Y-16068234D01*
X7520086Y-16068234D02*
X7501039Y-16068234D01*
X7501039Y-16068234D02*
X7481991Y-16058710D01*
X7481991Y-16058710D02*
X7472467Y-16049186D01*
X7472467Y-16049186D02*
X7462943Y-16030138D01*
X7462943Y-16030138D02*
X7453420Y-15992043D01*
X7453420Y-15992043D02*
X7453420Y-15944424D01*
X7453420Y-15944424D02*
X7462943Y-15906329D01*
X7462943Y-15906329D02*
X7472467Y-15887281D01*
X7472467Y-15887281D02*
X7481991Y-15877758D01*
X7481991Y-15877758D02*
X7501039Y-15868234D01*
X7653420Y-16068234D02*
X7653420Y-15934900D01*
X7653420Y-15953948D02*
X7662943Y-15944424D01*
X7662943Y-15944424D02*
X7681991Y-15934900D01*
X7681991Y-15934900D02*
X7710563Y-15934900D01*
X7710563Y-15934900D02*
X7729610Y-15944424D01*
X7729610Y-15944424D02*
X7739134Y-15963472D01*
X7739134Y-15963472D02*
X7739134Y-16068234D01*
X7739134Y-15963472D02*
X7748658Y-15944424D01*
X7748658Y-15944424D02*
X7767705Y-15934900D01*
X7767705Y-15934900D02*
X7796277Y-15934900D01*
X7796277Y-15934900D02*
X7815324Y-15944424D01*
X7815324Y-15944424D02*
X7824848Y-15963472D01*
X7824848Y-15963472D02*
X7824848Y-16068234D01*
X7920086Y-16068234D02*
X7920086Y-15934900D01*
X7920086Y-15953948D02*
X7929610Y-15944424D01*
X7929610Y-15944424D02*
X7948658Y-15934900D01*
X7948658Y-15934900D02*
X7977229Y-15934900D01*
X7977229Y-15934900D02*
X7996277Y-15944424D01*
X7996277Y-15944424D02*
X8005801Y-15963472D01*
X8005801Y-15963472D02*
X8005801Y-16068234D01*
X8005801Y-15963472D02*
X8015324Y-15944424D01*
X8015324Y-15944424D02*
X8034372Y-15934900D01*
X8034372Y-15934900D02*
X8062943Y-15934900D01*
X8062943Y-15934900D02*
X8081991Y-15944424D01*
X8081991Y-15944424D02*
X8091515Y-15963472D01*
X8091515Y-15963472D02*
X8091515Y-16068234D01*
X8481991Y-15858710D02*
X8310563Y-16115853D01*
X8739134Y-15868234D02*
X8758182Y-15868234D01*
X8758182Y-15868234D02*
X8777229Y-15877758D01*
X8777229Y-15877758D02*
X8786753Y-15887281D01*
X8786753Y-15887281D02*
X8796277Y-15906329D01*
X8796277Y-15906329D02*
X8805801Y-15944424D01*
X8805801Y-15944424D02*
X8805801Y-15992043D01*
X8805801Y-15992043D02*
X8796277Y-16030138D01*
X8796277Y-16030138D02*
X8786753Y-16049186D01*
X8786753Y-16049186D02*
X8777229Y-16058710D01*
X8777229Y-16058710D02*
X8758182Y-16068234D01*
X8758182Y-16068234D02*
X8739134Y-16068234D01*
X8739134Y-16068234D02*
X8720087Y-16058710D01*
X8720087Y-16058710D02*
X8710563Y-16049186D01*
X8710563Y-16049186D02*
X8701039Y-16030138D01*
X8701039Y-16030138D02*
X8691515Y-15992043D01*
X8691515Y-15992043D02*
X8691515Y-15944424D01*
X8691515Y-15944424D02*
X8701039Y-15906329D01*
X8701039Y-15906329D02*
X8710563Y-15887281D01*
X8710563Y-15887281D02*
X8720087Y-15877758D01*
X8720087Y-15877758D02*
X8739134Y-15868234D01*
X8891515Y-16049186D02*
X8901039Y-16058710D01*
X8901039Y-16058710D02*
X8891515Y-16068234D01*
X8891515Y-16068234D02*
X8881991Y-16058710D01*
X8881991Y-16058710D02*
X8891515Y-16049186D01*
X8891515Y-16049186D02*
X8891515Y-16068234D01*
X9024848Y-15868234D02*
X9043896Y-15868234D01*
X9043896Y-15868234D02*
X9062944Y-15877758D01*
X9062944Y-15877758D02*
X9072468Y-15887281D01*
X9072468Y-15887281D02*
X9081991Y-15906329D01*
X9081991Y-15906329D02*
X9091515Y-15944424D01*
X9091515Y-15944424D02*
X9091515Y-15992043D01*
X9091515Y-15992043D02*
X9081991Y-16030138D01*
X9081991Y-16030138D02*
X9072468Y-16049186D01*
X9072468Y-16049186D02*
X9062944Y-16058710D01*
X9062944Y-16058710D02*
X9043896Y-16068234D01*
X9043896Y-16068234D02*
X9024848Y-16068234D01*
X9024848Y-16068234D02*
X9005801Y-16058710D01*
X9005801Y-16058710D02*
X8996277Y-16049186D01*
X8996277Y-16049186D02*
X8986753Y-16030138D01*
X8986753Y-16030138D02*
X8977229Y-15992043D01*
X8977229Y-15992043D02*
X8977229Y-15944424D01*
X8977229Y-15944424D02*
X8986753Y-15906329D01*
X8986753Y-15906329D02*
X8996277Y-15887281D01*
X8996277Y-15887281D02*
X9005801Y-15877758D01*
X9005801Y-15877758D02*
X9024848Y-15868234D01*
X9262944Y-15934900D02*
X9262944Y-16068234D01*
X9215325Y-15858710D02*
X9167706Y-16001567D01*
X9167706Y-16001567D02*
X9291515Y-16001567D01*
X9348658Y-15868234D02*
X9472468Y-15868234D01*
X9472468Y-15868234D02*
X9405801Y-15944424D01*
X9405801Y-15944424D02*
X9434372Y-15944424D01*
X9434372Y-15944424D02*
X9453420Y-15953948D01*
X9453420Y-15953948D02*
X9462944Y-15963472D01*
X9462944Y-15963472D02*
X9472468Y-15982519D01*
X9472468Y-15982519D02*
X9472468Y-16030138D01*
X9472468Y-16030138D02*
X9462944Y-16049186D01*
X9462944Y-16049186D02*
X9453420Y-16058710D01*
X9453420Y-16058710D02*
X9434372Y-16068234D01*
X9434372Y-16068234D02*
X9377229Y-16068234D01*
X9377229Y-16068234D02*
X9358182Y-16058710D01*
X9358182Y-16058710D02*
X9348658Y-16049186D01*
X9539134Y-15868234D02*
X9662944Y-15868234D01*
X9662944Y-15868234D02*
X9596277Y-15944424D01*
X9596277Y-15944424D02*
X9624849Y-15944424D01*
X9624849Y-15944424D02*
X9643896Y-15953948D01*
X9643896Y-15953948D02*
X9653420Y-15963472D01*
X9653420Y-15963472D02*
X9662944Y-15982519D01*
X9662944Y-15982519D02*
X9662944Y-16030138D01*
X9662944Y-16030138D02*
X9653420Y-16049186D01*
X9653420Y-16049186D02*
X9643896Y-16058710D01*
X9643896Y-16058710D02*
X9624849Y-16068234D01*
X9624849Y-16068234D02*
X9567706Y-16068234D01*
X9567706Y-16068234D02*
X9548658Y-16058710D01*
X9548658Y-16058710D02*
X9539134Y-16049186D01*
X9739134Y-15868234D02*
X9739134Y-15906329D01*
X9815325Y-15868234D02*
X9815325Y-15906329D01*
X10110563Y-16144424D02*
X10101039Y-16134900D01*
X10101039Y-16134900D02*
X10081991Y-16106329D01*
X10081991Y-16106329D02*
X10072468Y-16087281D01*
X10072468Y-16087281D02*
X10062944Y-16058710D01*
X10062944Y-16058710D02*
X10053420Y-16011091D01*
X10053420Y-16011091D02*
X10053420Y-15972996D01*
X10053420Y-15972996D02*
X10062944Y-15925377D01*
X10062944Y-15925377D02*
X10072468Y-15896805D01*
X10072468Y-15896805D02*
X10081991Y-15877758D01*
X10081991Y-15877758D02*
X10101039Y-15849186D01*
X10101039Y-15849186D02*
X10110563Y-15839662D01*
X10177230Y-15887281D02*
X10186753Y-15877758D01*
X10186753Y-15877758D02*
X10205801Y-15868234D01*
X10205801Y-15868234D02*
X10253420Y-15868234D01*
X10253420Y-15868234D02*
X10272468Y-15877758D01*
X10272468Y-15877758D02*
X10281991Y-15887281D01*
X10281991Y-15887281D02*
X10291515Y-15906329D01*
X10291515Y-15906329D02*
X10291515Y-15925377D01*
X10291515Y-15925377D02*
X10281991Y-15953948D01*
X10281991Y-15953948D02*
X10167706Y-16068234D01*
X10167706Y-16068234D02*
X10291515Y-16068234D01*
X10358182Y-15868234D02*
X10491515Y-15868234D01*
X10491515Y-15868234D02*
X10405801Y-16068234D01*
X10720087Y-16068234D02*
X10720087Y-15868234D01*
X10805801Y-16068234D02*
X10805801Y-15963472D01*
X10805801Y-15963472D02*
X10796277Y-15944424D01*
X10796277Y-15944424D02*
X10777230Y-15934900D01*
X10777230Y-15934900D02*
X10748658Y-15934900D01*
X10748658Y-15934900D02*
X10729611Y-15944424D01*
X10729611Y-15944424D02*
X10720087Y-15953948D01*
X10929611Y-16068234D02*
X10910563Y-16058710D01*
X10910563Y-16058710D02*
X10901039Y-16049186D01*
X10901039Y-16049186D02*
X10891515Y-16030138D01*
X10891515Y-16030138D02*
X10891515Y-15972996D01*
X10891515Y-15972996D02*
X10901039Y-15953948D01*
X10901039Y-15953948D02*
X10910563Y-15944424D01*
X10910563Y-15944424D02*
X10929611Y-15934900D01*
X10929611Y-15934900D02*
X10958182Y-15934900D01*
X10958182Y-15934900D02*
X10977230Y-15944424D01*
X10977230Y-15944424D02*
X10986753Y-15953948D01*
X10986753Y-15953948D02*
X10996277Y-15972996D01*
X10996277Y-15972996D02*
X10996277Y-16030138D01*
X10996277Y-16030138D02*
X10986753Y-16049186D01*
X10986753Y-16049186D02*
X10977230Y-16058710D01*
X10977230Y-16058710D02*
X10958182Y-16068234D01*
X10958182Y-16068234D02*
X10929611Y-16068234D01*
X11110563Y-16068234D02*
X11091515Y-16058710D01*
X11091515Y-16058710D02*
X11081992Y-16039662D01*
X11081992Y-16039662D02*
X11081992Y-15868234D01*
X11262944Y-16058710D02*
X11243896Y-16068234D01*
X11243896Y-16068234D02*
X11205801Y-16068234D01*
X11205801Y-16068234D02*
X11186753Y-16058710D01*
X11186753Y-16058710D02*
X11177230Y-16039662D01*
X11177230Y-16039662D02*
X11177230Y-15963472D01*
X11177230Y-15963472D02*
X11186753Y-15944424D01*
X11186753Y-15944424D02*
X11205801Y-15934900D01*
X11205801Y-15934900D02*
X11243896Y-15934900D01*
X11243896Y-15934900D02*
X11262944Y-15944424D01*
X11262944Y-15944424D02*
X11272468Y-15963472D01*
X11272468Y-15963472D02*
X11272468Y-15982519D01*
X11272468Y-15982519D02*
X11177230Y-16001567D01*
X11348658Y-16058710D02*
X11367706Y-16068234D01*
X11367706Y-16068234D02*
X11405801Y-16068234D01*
X11405801Y-16068234D02*
X11424849Y-16058710D01*
X11424849Y-16058710D02*
X11434372Y-16039662D01*
X11434372Y-16039662D02*
X11434372Y-16030138D01*
X11434372Y-16030138D02*
X11424849Y-16011091D01*
X11424849Y-16011091D02*
X11405801Y-16001567D01*
X11405801Y-16001567D02*
X11377230Y-16001567D01*
X11377230Y-16001567D02*
X11358182Y-15992043D01*
X11358182Y-15992043D02*
X11348658Y-15972996D01*
X11348658Y-15972996D02*
X11348658Y-15963472D01*
X11348658Y-15963472D02*
X11358182Y-15944424D01*
X11358182Y-15944424D02*
X11377230Y-15934900D01*
X11377230Y-15934900D02*
X11405801Y-15934900D01*
X11405801Y-15934900D02*
X11424849Y-15944424D01*
X11501039Y-16144424D02*
X11510563Y-16134900D01*
X11510563Y-16134900D02*
X11529611Y-16106329D01*
X11529611Y-16106329D02*
X11539134Y-16087281D01*
X11539134Y-16087281D02*
X11548658Y-16058710D01*
X11548658Y-16058710D02*
X11558182Y-16011091D01*
X11558182Y-16011091D02*
X11558182Y-15972996D01*
X11558182Y-15972996D02*
X11548658Y-15925377D01*
X11548658Y-15925377D02*
X11539134Y-15896805D01*
X11539134Y-15896805D02*
X11529611Y-15877758D01*
X11529611Y-15877758D02*
X11510563Y-15849186D01*
X11510563Y-15849186D02*
X11501039Y-15839662D01*
D18*
X6405500Y-16175750D02*
X6535500Y-16305750D01*
X6535500Y-16175750D02*
X6405500Y-16305750D01*
X6516462Y-16286712D02*
X6516462Y-16194788D01*
X6424538Y-16194788D01*
X6424538Y-16286712D01*
X6516462Y-16286712D01*
D11*
X6901039Y-16332234D02*
X6786753Y-16332234D01*
X6843896Y-16332234D02*
X6843896Y-16132234D01*
X6843896Y-16132234D02*
X6824848Y-16160805D01*
X6824848Y-16160805D02*
X6805801Y-16179853D01*
X6805801Y-16179853D02*
X6786753Y-16189377D01*
X6986753Y-16313186D02*
X6996277Y-16322710D01*
X6996277Y-16322710D02*
X6986753Y-16332234D01*
X6986753Y-16332234D02*
X6977229Y-16322710D01*
X6977229Y-16322710D02*
X6986753Y-16313186D01*
X6986753Y-16313186D02*
X6986753Y-16332234D01*
X7062943Y-16132234D02*
X7186753Y-16132234D01*
X7186753Y-16132234D02*
X7120086Y-16208424D01*
X7120086Y-16208424D02*
X7148658Y-16208424D01*
X7148658Y-16208424D02*
X7167705Y-16217948D01*
X7167705Y-16217948D02*
X7177229Y-16227472D01*
X7177229Y-16227472D02*
X7186753Y-16246519D01*
X7186753Y-16246519D02*
X7186753Y-16294138D01*
X7186753Y-16294138D02*
X7177229Y-16313186D01*
X7177229Y-16313186D02*
X7167705Y-16322710D01*
X7167705Y-16322710D02*
X7148658Y-16332234D01*
X7148658Y-16332234D02*
X7091515Y-16332234D01*
X7091515Y-16332234D02*
X7072467Y-16322710D01*
X7072467Y-16322710D02*
X7062943Y-16313186D01*
X7310562Y-16132234D02*
X7329610Y-16132234D01*
X7329610Y-16132234D02*
X7348658Y-16141758D01*
X7348658Y-16141758D02*
X7358182Y-16151281D01*
X7358182Y-16151281D02*
X7367705Y-16170329D01*
X7367705Y-16170329D02*
X7377229Y-16208424D01*
X7377229Y-16208424D02*
X7377229Y-16256043D01*
X7377229Y-16256043D02*
X7367705Y-16294138D01*
X7367705Y-16294138D02*
X7358182Y-16313186D01*
X7358182Y-16313186D02*
X7348658Y-16322710D01*
X7348658Y-16322710D02*
X7329610Y-16332234D01*
X7329610Y-16332234D02*
X7310562Y-16332234D01*
X7310562Y-16332234D02*
X7291515Y-16322710D01*
X7291515Y-16322710D02*
X7281991Y-16313186D01*
X7281991Y-16313186D02*
X7272467Y-16294138D01*
X7272467Y-16294138D02*
X7262943Y-16256043D01*
X7262943Y-16256043D02*
X7262943Y-16208424D01*
X7262943Y-16208424D02*
X7272467Y-16170329D01*
X7272467Y-16170329D02*
X7281991Y-16151281D01*
X7281991Y-16151281D02*
X7291515Y-16141758D01*
X7291515Y-16141758D02*
X7310562Y-16132234D01*
X7501039Y-16132234D02*
X7520086Y-16132234D01*
X7520086Y-16132234D02*
X7539134Y-16141758D01*
X7539134Y-16141758D02*
X7548658Y-16151281D01*
X7548658Y-16151281D02*
X7558182Y-16170329D01*
X7558182Y-16170329D02*
X7567705Y-16208424D01*
X7567705Y-16208424D02*
X7567705Y-16256043D01*
X7567705Y-16256043D02*
X7558182Y-16294138D01*
X7558182Y-16294138D02*
X7548658Y-16313186D01*
X7548658Y-16313186D02*
X7539134Y-16322710D01*
X7539134Y-16322710D02*
X7520086Y-16332234D01*
X7520086Y-16332234D02*
X7501039Y-16332234D01*
X7501039Y-16332234D02*
X7481991Y-16322710D01*
X7481991Y-16322710D02*
X7472467Y-16313186D01*
X7472467Y-16313186D02*
X7462943Y-16294138D01*
X7462943Y-16294138D02*
X7453420Y-16256043D01*
X7453420Y-16256043D02*
X7453420Y-16208424D01*
X7453420Y-16208424D02*
X7462943Y-16170329D01*
X7462943Y-16170329D02*
X7472467Y-16151281D01*
X7472467Y-16151281D02*
X7481991Y-16141758D01*
X7481991Y-16141758D02*
X7501039Y-16132234D01*
X7653420Y-16332234D02*
X7653420Y-16198900D01*
X7653420Y-16217948D02*
X7662943Y-16208424D01*
X7662943Y-16208424D02*
X7681991Y-16198900D01*
X7681991Y-16198900D02*
X7710563Y-16198900D01*
X7710563Y-16198900D02*
X7729610Y-16208424D01*
X7729610Y-16208424D02*
X7739134Y-16227472D01*
X7739134Y-16227472D02*
X7739134Y-16332234D01*
X7739134Y-16227472D02*
X7748658Y-16208424D01*
X7748658Y-16208424D02*
X7767705Y-16198900D01*
X7767705Y-16198900D02*
X7796277Y-16198900D01*
X7796277Y-16198900D02*
X7815324Y-16208424D01*
X7815324Y-16208424D02*
X7824848Y-16227472D01*
X7824848Y-16227472D02*
X7824848Y-16332234D01*
X7920086Y-16332234D02*
X7920086Y-16198900D01*
X7920086Y-16217948D02*
X7929610Y-16208424D01*
X7929610Y-16208424D02*
X7948658Y-16198900D01*
X7948658Y-16198900D02*
X7977229Y-16198900D01*
X7977229Y-16198900D02*
X7996277Y-16208424D01*
X7996277Y-16208424D02*
X8005801Y-16227472D01*
X8005801Y-16227472D02*
X8005801Y-16332234D01*
X8005801Y-16227472D02*
X8015324Y-16208424D01*
X8015324Y-16208424D02*
X8034372Y-16198900D01*
X8034372Y-16198900D02*
X8062943Y-16198900D01*
X8062943Y-16198900D02*
X8081991Y-16208424D01*
X8081991Y-16208424D02*
X8091515Y-16227472D01*
X8091515Y-16227472D02*
X8091515Y-16332234D01*
X8481991Y-16122710D02*
X8310563Y-16379853D01*
X8739134Y-16132234D02*
X8758182Y-16132234D01*
X8758182Y-16132234D02*
X8777229Y-16141758D01*
X8777229Y-16141758D02*
X8786753Y-16151281D01*
X8786753Y-16151281D02*
X8796277Y-16170329D01*
X8796277Y-16170329D02*
X8805801Y-16208424D01*
X8805801Y-16208424D02*
X8805801Y-16256043D01*
X8805801Y-16256043D02*
X8796277Y-16294138D01*
X8796277Y-16294138D02*
X8786753Y-16313186D01*
X8786753Y-16313186D02*
X8777229Y-16322710D01*
X8777229Y-16322710D02*
X8758182Y-16332234D01*
X8758182Y-16332234D02*
X8739134Y-16332234D01*
X8739134Y-16332234D02*
X8720087Y-16322710D01*
X8720087Y-16322710D02*
X8710563Y-16313186D01*
X8710563Y-16313186D02*
X8701039Y-16294138D01*
X8701039Y-16294138D02*
X8691515Y-16256043D01*
X8691515Y-16256043D02*
X8691515Y-16208424D01*
X8691515Y-16208424D02*
X8701039Y-16170329D01*
X8701039Y-16170329D02*
X8710563Y-16151281D01*
X8710563Y-16151281D02*
X8720087Y-16141758D01*
X8720087Y-16141758D02*
X8739134Y-16132234D01*
X8891515Y-16313186D02*
X8901039Y-16322710D01*
X8901039Y-16322710D02*
X8891515Y-16332234D01*
X8891515Y-16332234D02*
X8881991Y-16322710D01*
X8881991Y-16322710D02*
X8891515Y-16313186D01*
X8891515Y-16313186D02*
X8891515Y-16332234D01*
X9024848Y-16132234D02*
X9043896Y-16132234D01*
X9043896Y-16132234D02*
X9062944Y-16141758D01*
X9062944Y-16141758D02*
X9072468Y-16151281D01*
X9072468Y-16151281D02*
X9081991Y-16170329D01*
X9081991Y-16170329D02*
X9091515Y-16208424D01*
X9091515Y-16208424D02*
X9091515Y-16256043D01*
X9091515Y-16256043D02*
X9081991Y-16294138D01*
X9081991Y-16294138D02*
X9072468Y-16313186D01*
X9072468Y-16313186D02*
X9062944Y-16322710D01*
X9062944Y-16322710D02*
X9043896Y-16332234D01*
X9043896Y-16332234D02*
X9024848Y-16332234D01*
X9024848Y-16332234D02*
X9005801Y-16322710D01*
X9005801Y-16322710D02*
X8996277Y-16313186D01*
X8996277Y-16313186D02*
X8986753Y-16294138D01*
X8986753Y-16294138D02*
X8977229Y-16256043D01*
X8977229Y-16256043D02*
X8977229Y-16208424D01*
X8977229Y-16208424D02*
X8986753Y-16170329D01*
X8986753Y-16170329D02*
X8996277Y-16151281D01*
X8996277Y-16151281D02*
X9005801Y-16141758D01*
X9005801Y-16141758D02*
X9024848Y-16132234D01*
X9272468Y-16132234D02*
X9177229Y-16132234D01*
X9177229Y-16132234D02*
X9167706Y-16227472D01*
X9167706Y-16227472D02*
X9177229Y-16217948D01*
X9177229Y-16217948D02*
X9196277Y-16208424D01*
X9196277Y-16208424D02*
X9243896Y-16208424D01*
X9243896Y-16208424D02*
X9262944Y-16217948D01*
X9262944Y-16217948D02*
X9272468Y-16227472D01*
X9272468Y-16227472D02*
X9281991Y-16246519D01*
X9281991Y-16246519D02*
X9281991Y-16294138D01*
X9281991Y-16294138D02*
X9272468Y-16313186D01*
X9272468Y-16313186D02*
X9262944Y-16322710D01*
X9262944Y-16322710D02*
X9243896Y-16332234D01*
X9243896Y-16332234D02*
X9196277Y-16332234D01*
X9196277Y-16332234D02*
X9177229Y-16322710D01*
X9177229Y-16322710D02*
X9167706Y-16313186D01*
X9472468Y-16332234D02*
X9358182Y-16332234D01*
X9415325Y-16332234D02*
X9415325Y-16132234D01*
X9415325Y-16132234D02*
X9396277Y-16160805D01*
X9396277Y-16160805D02*
X9377229Y-16179853D01*
X9377229Y-16179853D02*
X9358182Y-16189377D01*
X9548658Y-16151281D02*
X9558182Y-16141758D01*
X9558182Y-16141758D02*
X9577229Y-16132234D01*
X9577229Y-16132234D02*
X9624849Y-16132234D01*
X9624849Y-16132234D02*
X9643896Y-16141758D01*
X9643896Y-16141758D02*
X9653420Y-16151281D01*
X9653420Y-16151281D02*
X9662944Y-16170329D01*
X9662944Y-16170329D02*
X9662944Y-16189377D01*
X9662944Y-16189377D02*
X9653420Y-16217948D01*
X9653420Y-16217948D02*
X9539134Y-16332234D01*
X9539134Y-16332234D02*
X9662944Y-16332234D01*
X9739134Y-16132234D02*
X9739134Y-16170329D01*
X9815325Y-16132234D02*
X9815325Y-16170329D01*
X10110563Y-16408424D02*
X10101039Y-16398900D01*
X10101039Y-16398900D02*
X10081991Y-16370329D01*
X10081991Y-16370329D02*
X10072468Y-16351281D01*
X10072468Y-16351281D02*
X10062944Y-16322710D01*
X10062944Y-16322710D02*
X10053420Y-16275091D01*
X10053420Y-16275091D02*
X10053420Y-16236996D01*
X10053420Y-16236996D02*
X10062944Y-16189377D01*
X10062944Y-16189377D02*
X10072468Y-16160805D01*
X10072468Y-16160805D02*
X10081991Y-16141758D01*
X10081991Y-16141758D02*
X10101039Y-16113186D01*
X10101039Y-16113186D02*
X10110563Y-16103662D01*
X10272468Y-16198900D02*
X10272468Y-16332234D01*
X10224849Y-16122710D02*
X10177230Y-16265567D01*
X10177230Y-16265567D02*
X10301039Y-16265567D01*
X10529611Y-16332234D02*
X10529611Y-16132234D01*
X10615325Y-16332234D02*
X10615325Y-16227472D01*
X10615325Y-16227472D02*
X10605801Y-16208424D01*
X10605801Y-16208424D02*
X10586753Y-16198900D01*
X10586753Y-16198900D02*
X10558182Y-16198900D01*
X10558182Y-16198900D02*
X10539134Y-16208424D01*
X10539134Y-16208424D02*
X10529611Y-16217948D01*
X10739134Y-16332234D02*
X10720087Y-16322710D01*
X10720087Y-16322710D02*
X10710563Y-16313186D01*
X10710563Y-16313186D02*
X10701039Y-16294138D01*
X10701039Y-16294138D02*
X10701039Y-16236996D01*
X10701039Y-16236996D02*
X10710563Y-16217948D01*
X10710563Y-16217948D02*
X10720087Y-16208424D01*
X10720087Y-16208424D02*
X10739134Y-16198900D01*
X10739134Y-16198900D02*
X10767706Y-16198900D01*
X10767706Y-16198900D02*
X10786753Y-16208424D01*
X10786753Y-16208424D02*
X10796277Y-16217948D01*
X10796277Y-16217948D02*
X10805801Y-16236996D01*
X10805801Y-16236996D02*
X10805801Y-16294138D01*
X10805801Y-16294138D02*
X10796277Y-16313186D01*
X10796277Y-16313186D02*
X10786753Y-16322710D01*
X10786753Y-16322710D02*
X10767706Y-16332234D01*
X10767706Y-16332234D02*
X10739134Y-16332234D01*
X10920087Y-16332234D02*
X10901039Y-16322710D01*
X10901039Y-16322710D02*
X10891515Y-16303662D01*
X10891515Y-16303662D02*
X10891515Y-16132234D01*
X11072468Y-16322710D02*
X11053420Y-16332234D01*
X11053420Y-16332234D02*
X11015325Y-16332234D01*
X11015325Y-16332234D02*
X10996277Y-16322710D01*
X10996277Y-16322710D02*
X10986753Y-16303662D01*
X10986753Y-16303662D02*
X10986753Y-16227472D01*
X10986753Y-16227472D02*
X10996277Y-16208424D01*
X10996277Y-16208424D02*
X11015325Y-16198900D01*
X11015325Y-16198900D02*
X11053420Y-16198900D01*
X11053420Y-16198900D02*
X11072468Y-16208424D01*
X11072468Y-16208424D02*
X11081992Y-16227472D01*
X11081992Y-16227472D02*
X11081992Y-16246519D01*
X11081992Y-16246519D02*
X10986753Y-16265567D01*
X11158182Y-16322710D02*
X11177230Y-16332234D01*
X11177230Y-16332234D02*
X11215325Y-16332234D01*
X11215325Y-16332234D02*
X11234372Y-16322710D01*
X11234372Y-16322710D02*
X11243896Y-16303662D01*
X11243896Y-16303662D02*
X11243896Y-16294138D01*
X11243896Y-16294138D02*
X11234372Y-16275091D01*
X11234372Y-16275091D02*
X11215325Y-16265567D01*
X11215325Y-16265567D02*
X11186753Y-16265567D01*
X11186753Y-16265567D02*
X11167706Y-16256043D01*
X11167706Y-16256043D02*
X11158182Y-16236996D01*
X11158182Y-16236996D02*
X11158182Y-16227472D01*
X11158182Y-16227472D02*
X11167706Y-16208424D01*
X11167706Y-16208424D02*
X11186753Y-16198900D01*
X11186753Y-16198900D02*
X11215325Y-16198900D01*
X11215325Y-16198900D02*
X11234372Y-16208424D01*
X11310563Y-16408424D02*
X11320087Y-16398900D01*
X11320087Y-16398900D02*
X11339134Y-16370329D01*
X11339134Y-16370329D02*
X11348658Y-16351281D01*
X11348658Y-16351281D02*
X11358182Y-16322710D01*
X11358182Y-16322710D02*
X11367706Y-16275091D01*
X11367706Y-16275091D02*
X11367706Y-16236996D01*
X11367706Y-16236996D02*
X11358182Y-16189377D01*
X11358182Y-16189377D02*
X11348658Y-16160805D01*
X11348658Y-16160805D02*
X11339134Y-16141758D01*
X11339134Y-16141758D02*
X11320087Y-16113186D01*
X11320087Y-16113186D02*
X11310563Y-16103662D01*
D19*
X6383500Y-16428750D02*
X6535500Y-16580750D01*
X6535500Y-16428750D02*
X6383500Y-16580750D01*
X6459500Y-16580750D02*
X6535500Y-16504750D01*
X6459500Y-16428750D01*
X6383500Y-16504750D01*
X6459500Y-16580750D01*
D11*
X6901039Y-16596234D02*
X6786753Y-16596234D01*
X6843896Y-16596234D02*
X6843896Y-16396234D01*
X6843896Y-16396234D02*
X6824848Y-16424805D01*
X6824848Y-16424805D02*
X6805801Y-16443853D01*
X6805801Y-16443853D02*
X6786753Y-16453377D01*
X6986753Y-16577186D02*
X6996277Y-16586710D01*
X6996277Y-16586710D02*
X6986753Y-16596234D01*
X6986753Y-16596234D02*
X6977229Y-16586710D01*
X6977229Y-16586710D02*
X6986753Y-16577186D01*
X6986753Y-16577186D02*
X6986753Y-16596234D01*
X7177229Y-16396234D02*
X7081991Y-16396234D01*
X7081991Y-16396234D02*
X7072467Y-16491472D01*
X7072467Y-16491472D02*
X7081991Y-16481948D01*
X7081991Y-16481948D02*
X7101039Y-16472424D01*
X7101039Y-16472424D02*
X7148658Y-16472424D01*
X7148658Y-16472424D02*
X7167705Y-16481948D01*
X7167705Y-16481948D02*
X7177229Y-16491472D01*
X7177229Y-16491472D02*
X7186753Y-16510519D01*
X7186753Y-16510519D02*
X7186753Y-16558138D01*
X7186753Y-16558138D02*
X7177229Y-16577186D01*
X7177229Y-16577186D02*
X7167705Y-16586710D01*
X7167705Y-16586710D02*
X7148658Y-16596234D01*
X7148658Y-16596234D02*
X7101039Y-16596234D01*
X7101039Y-16596234D02*
X7081991Y-16586710D01*
X7081991Y-16586710D02*
X7072467Y-16577186D01*
X7262943Y-16415281D02*
X7272467Y-16405758D01*
X7272467Y-16405758D02*
X7291515Y-16396234D01*
X7291515Y-16396234D02*
X7339134Y-16396234D01*
X7339134Y-16396234D02*
X7358182Y-16405758D01*
X7358182Y-16405758D02*
X7367705Y-16415281D01*
X7367705Y-16415281D02*
X7377229Y-16434329D01*
X7377229Y-16434329D02*
X7377229Y-16453377D01*
X7377229Y-16453377D02*
X7367705Y-16481948D01*
X7367705Y-16481948D02*
X7253420Y-16596234D01*
X7253420Y-16596234D02*
X7377229Y-16596234D01*
X7501039Y-16396234D02*
X7520086Y-16396234D01*
X7520086Y-16396234D02*
X7539134Y-16405758D01*
X7539134Y-16405758D02*
X7548658Y-16415281D01*
X7548658Y-16415281D02*
X7558182Y-16434329D01*
X7558182Y-16434329D02*
X7567705Y-16472424D01*
X7567705Y-16472424D02*
X7567705Y-16520043D01*
X7567705Y-16520043D02*
X7558182Y-16558138D01*
X7558182Y-16558138D02*
X7548658Y-16577186D01*
X7548658Y-16577186D02*
X7539134Y-16586710D01*
X7539134Y-16586710D02*
X7520086Y-16596234D01*
X7520086Y-16596234D02*
X7501039Y-16596234D01*
X7501039Y-16596234D02*
X7481991Y-16586710D01*
X7481991Y-16586710D02*
X7472467Y-16577186D01*
X7472467Y-16577186D02*
X7462943Y-16558138D01*
X7462943Y-16558138D02*
X7453420Y-16520043D01*
X7453420Y-16520043D02*
X7453420Y-16472424D01*
X7453420Y-16472424D02*
X7462943Y-16434329D01*
X7462943Y-16434329D02*
X7472467Y-16415281D01*
X7472467Y-16415281D02*
X7481991Y-16405758D01*
X7481991Y-16405758D02*
X7501039Y-16396234D01*
X7653420Y-16596234D02*
X7653420Y-16462900D01*
X7653420Y-16481948D02*
X7662943Y-16472424D01*
X7662943Y-16472424D02*
X7681991Y-16462900D01*
X7681991Y-16462900D02*
X7710563Y-16462900D01*
X7710563Y-16462900D02*
X7729610Y-16472424D01*
X7729610Y-16472424D02*
X7739134Y-16491472D01*
X7739134Y-16491472D02*
X7739134Y-16596234D01*
X7739134Y-16491472D02*
X7748658Y-16472424D01*
X7748658Y-16472424D02*
X7767705Y-16462900D01*
X7767705Y-16462900D02*
X7796277Y-16462900D01*
X7796277Y-16462900D02*
X7815324Y-16472424D01*
X7815324Y-16472424D02*
X7824848Y-16491472D01*
X7824848Y-16491472D02*
X7824848Y-16596234D01*
X7920086Y-16596234D02*
X7920086Y-16462900D01*
X7920086Y-16481948D02*
X7929610Y-16472424D01*
X7929610Y-16472424D02*
X7948658Y-16462900D01*
X7948658Y-16462900D02*
X7977229Y-16462900D01*
X7977229Y-16462900D02*
X7996277Y-16472424D01*
X7996277Y-16472424D02*
X8005801Y-16491472D01*
X8005801Y-16491472D02*
X8005801Y-16596234D01*
X8005801Y-16491472D02*
X8015324Y-16472424D01*
X8015324Y-16472424D02*
X8034372Y-16462900D01*
X8034372Y-16462900D02*
X8062943Y-16462900D01*
X8062943Y-16462900D02*
X8081991Y-16472424D01*
X8081991Y-16472424D02*
X8091515Y-16491472D01*
X8091515Y-16491472D02*
X8091515Y-16596234D01*
X8481991Y-16386710D02*
X8310563Y-16643853D01*
X8739134Y-16396234D02*
X8758182Y-16396234D01*
X8758182Y-16396234D02*
X8777229Y-16405758D01*
X8777229Y-16405758D02*
X8786753Y-16415281D01*
X8786753Y-16415281D02*
X8796277Y-16434329D01*
X8796277Y-16434329D02*
X8805801Y-16472424D01*
X8805801Y-16472424D02*
X8805801Y-16520043D01*
X8805801Y-16520043D02*
X8796277Y-16558138D01*
X8796277Y-16558138D02*
X8786753Y-16577186D01*
X8786753Y-16577186D02*
X8777229Y-16586710D01*
X8777229Y-16586710D02*
X8758182Y-16596234D01*
X8758182Y-16596234D02*
X8739134Y-16596234D01*
X8739134Y-16596234D02*
X8720087Y-16586710D01*
X8720087Y-16586710D02*
X8710563Y-16577186D01*
X8710563Y-16577186D02*
X8701039Y-16558138D01*
X8701039Y-16558138D02*
X8691515Y-16520043D01*
X8691515Y-16520043D02*
X8691515Y-16472424D01*
X8691515Y-16472424D02*
X8701039Y-16434329D01*
X8701039Y-16434329D02*
X8710563Y-16415281D01*
X8710563Y-16415281D02*
X8720087Y-16405758D01*
X8720087Y-16405758D02*
X8739134Y-16396234D01*
X8891515Y-16577186D02*
X8901039Y-16586710D01*
X8901039Y-16586710D02*
X8891515Y-16596234D01*
X8891515Y-16596234D02*
X8881991Y-16586710D01*
X8881991Y-16586710D02*
X8891515Y-16577186D01*
X8891515Y-16577186D02*
X8891515Y-16596234D01*
X9024848Y-16396234D02*
X9043896Y-16396234D01*
X9043896Y-16396234D02*
X9062944Y-16405758D01*
X9062944Y-16405758D02*
X9072468Y-16415281D01*
X9072468Y-16415281D02*
X9081991Y-16434329D01*
X9081991Y-16434329D02*
X9091515Y-16472424D01*
X9091515Y-16472424D02*
X9091515Y-16520043D01*
X9091515Y-16520043D02*
X9081991Y-16558138D01*
X9081991Y-16558138D02*
X9072468Y-16577186D01*
X9072468Y-16577186D02*
X9062944Y-16586710D01*
X9062944Y-16586710D02*
X9043896Y-16596234D01*
X9043896Y-16596234D02*
X9024848Y-16596234D01*
X9024848Y-16596234D02*
X9005801Y-16586710D01*
X9005801Y-16586710D02*
X8996277Y-16577186D01*
X8996277Y-16577186D02*
X8986753Y-16558138D01*
X8986753Y-16558138D02*
X8977229Y-16520043D01*
X8977229Y-16520043D02*
X8977229Y-16472424D01*
X8977229Y-16472424D02*
X8986753Y-16434329D01*
X8986753Y-16434329D02*
X8996277Y-16415281D01*
X8996277Y-16415281D02*
X9005801Y-16405758D01*
X9005801Y-16405758D02*
X9024848Y-16396234D01*
X9272468Y-16396234D02*
X9177229Y-16396234D01*
X9177229Y-16396234D02*
X9167706Y-16491472D01*
X9167706Y-16491472D02*
X9177229Y-16481948D01*
X9177229Y-16481948D02*
X9196277Y-16472424D01*
X9196277Y-16472424D02*
X9243896Y-16472424D01*
X9243896Y-16472424D02*
X9262944Y-16481948D01*
X9262944Y-16481948D02*
X9272468Y-16491472D01*
X9272468Y-16491472D02*
X9281991Y-16510519D01*
X9281991Y-16510519D02*
X9281991Y-16558138D01*
X9281991Y-16558138D02*
X9272468Y-16577186D01*
X9272468Y-16577186D02*
X9262944Y-16586710D01*
X9262944Y-16586710D02*
X9243896Y-16596234D01*
X9243896Y-16596234D02*
X9196277Y-16596234D01*
X9196277Y-16596234D02*
X9177229Y-16586710D01*
X9177229Y-16586710D02*
X9167706Y-16577186D01*
X9377229Y-16596234D02*
X9415325Y-16596234D01*
X9415325Y-16596234D02*
X9434372Y-16586710D01*
X9434372Y-16586710D02*
X9443896Y-16577186D01*
X9443896Y-16577186D02*
X9462944Y-16548615D01*
X9462944Y-16548615D02*
X9472468Y-16510519D01*
X9472468Y-16510519D02*
X9472468Y-16434329D01*
X9472468Y-16434329D02*
X9462944Y-16415281D01*
X9462944Y-16415281D02*
X9453420Y-16405758D01*
X9453420Y-16405758D02*
X9434372Y-16396234D01*
X9434372Y-16396234D02*
X9396277Y-16396234D01*
X9396277Y-16396234D02*
X9377229Y-16405758D01*
X9377229Y-16405758D02*
X9367706Y-16415281D01*
X9367706Y-16415281D02*
X9358182Y-16434329D01*
X9358182Y-16434329D02*
X9358182Y-16481948D01*
X9358182Y-16481948D02*
X9367706Y-16500996D01*
X9367706Y-16500996D02*
X9377229Y-16510519D01*
X9377229Y-16510519D02*
X9396277Y-16520043D01*
X9396277Y-16520043D02*
X9434372Y-16520043D01*
X9434372Y-16520043D02*
X9453420Y-16510519D01*
X9453420Y-16510519D02*
X9462944Y-16500996D01*
X9462944Y-16500996D02*
X9472468Y-16481948D01*
X9586753Y-16481948D02*
X9567706Y-16472424D01*
X9567706Y-16472424D02*
X9558182Y-16462900D01*
X9558182Y-16462900D02*
X9548658Y-16443853D01*
X9548658Y-16443853D02*
X9548658Y-16434329D01*
X9548658Y-16434329D02*
X9558182Y-16415281D01*
X9558182Y-16415281D02*
X9567706Y-16405758D01*
X9567706Y-16405758D02*
X9586753Y-16396234D01*
X9586753Y-16396234D02*
X9624849Y-16396234D01*
X9624849Y-16396234D02*
X9643896Y-16405758D01*
X9643896Y-16405758D02*
X9653420Y-16415281D01*
X9653420Y-16415281D02*
X9662944Y-16434329D01*
X9662944Y-16434329D02*
X9662944Y-16443853D01*
X9662944Y-16443853D02*
X9653420Y-16462900D01*
X9653420Y-16462900D02*
X9643896Y-16472424D01*
X9643896Y-16472424D02*
X9624849Y-16481948D01*
X9624849Y-16481948D02*
X9586753Y-16481948D01*
X9586753Y-16481948D02*
X9567706Y-16491472D01*
X9567706Y-16491472D02*
X9558182Y-16500996D01*
X9558182Y-16500996D02*
X9548658Y-16520043D01*
X9548658Y-16520043D02*
X9548658Y-16558138D01*
X9548658Y-16558138D02*
X9558182Y-16577186D01*
X9558182Y-16577186D02*
X9567706Y-16586710D01*
X9567706Y-16586710D02*
X9586753Y-16596234D01*
X9586753Y-16596234D02*
X9624849Y-16596234D01*
X9624849Y-16596234D02*
X9643896Y-16586710D01*
X9643896Y-16586710D02*
X9653420Y-16577186D01*
X9653420Y-16577186D02*
X9662944Y-16558138D01*
X9662944Y-16558138D02*
X9662944Y-16520043D01*
X9662944Y-16520043D02*
X9653420Y-16500996D01*
X9653420Y-16500996D02*
X9643896Y-16491472D01*
X9643896Y-16491472D02*
X9624849Y-16481948D01*
X9739134Y-16396234D02*
X9739134Y-16434329D01*
X9815325Y-16396234D02*
X9815325Y-16434329D01*
X10110563Y-16672424D02*
X10101039Y-16662900D01*
X10101039Y-16662900D02*
X10081991Y-16634329D01*
X10081991Y-16634329D02*
X10072468Y-16615281D01*
X10072468Y-16615281D02*
X10062944Y-16586710D01*
X10062944Y-16586710D02*
X10053420Y-16539091D01*
X10053420Y-16539091D02*
X10053420Y-16500996D01*
X10053420Y-16500996D02*
X10062944Y-16453377D01*
X10062944Y-16453377D02*
X10072468Y-16424805D01*
X10072468Y-16424805D02*
X10081991Y-16405758D01*
X10081991Y-16405758D02*
X10101039Y-16377186D01*
X10101039Y-16377186D02*
X10110563Y-16367662D01*
X10272468Y-16462900D02*
X10272468Y-16596234D01*
X10224849Y-16386710D02*
X10177230Y-16529567D01*
X10177230Y-16529567D02*
X10301039Y-16529567D01*
X10529611Y-16596234D02*
X10529611Y-16396234D01*
X10615325Y-16596234D02*
X10615325Y-16491472D01*
X10615325Y-16491472D02*
X10605801Y-16472424D01*
X10605801Y-16472424D02*
X10586753Y-16462900D01*
X10586753Y-16462900D02*
X10558182Y-16462900D01*
X10558182Y-16462900D02*
X10539134Y-16472424D01*
X10539134Y-16472424D02*
X10529611Y-16481948D01*
X10739134Y-16596234D02*
X10720087Y-16586710D01*
X10720087Y-16586710D02*
X10710563Y-16577186D01*
X10710563Y-16577186D02*
X10701039Y-16558138D01*
X10701039Y-16558138D02*
X10701039Y-16500996D01*
X10701039Y-16500996D02*
X10710563Y-16481948D01*
X10710563Y-16481948D02*
X10720087Y-16472424D01*
X10720087Y-16472424D02*
X10739134Y-16462900D01*
X10739134Y-16462900D02*
X10767706Y-16462900D01*
X10767706Y-16462900D02*
X10786753Y-16472424D01*
X10786753Y-16472424D02*
X10796277Y-16481948D01*
X10796277Y-16481948D02*
X10805801Y-16500996D01*
X10805801Y-16500996D02*
X10805801Y-16558138D01*
X10805801Y-16558138D02*
X10796277Y-16577186D01*
X10796277Y-16577186D02*
X10786753Y-16586710D01*
X10786753Y-16586710D02*
X10767706Y-16596234D01*
X10767706Y-16596234D02*
X10739134Y-16596234D01*
X10920087Y-16596234D02*
X10901039Y-16586710D01*
X10901039Y-16586710D02*
X10891515Y-16567662D01*
X10891515Y-16567662D02*
X10891515Y-16396234D01*
X11072468Y-16586710D02*
X11053420Y-16596234D01*
X11053420Y-16596234D02*
X11015325Y-16596234D01*
X11015325Y-16596234D02*
X10996277Y-16586710D01*
X10996277Y-16586710D02*
X10986753Y-16567662D01*
X10986753Y-16567662D02*
X10986753Y-16491472D01*
X10986753Y-16491472D02*
X10996277Y-16472424D01*
X10996277Y-16472424D02*
X11015325Y-16462900D01*
X11015325Y-16462900D02*
X11053420Y-16462900D01*
X11053420Y-16462900D02*
X11072468Y-16472424D01*
X11072468Y-16472424D02*
X11081992Y-16491472D01*
X11081992Y-16491472D02*
X11081992Y-16510519D01*
X11081992Y-16510519D02*
X10986753Y-16529567D01*
X11158182Y-16586710D02*
X11177230Y-16596234D01*
X11177230Y-16596234D02*
X11215325Y-16596234D01*
X11215325Y-16596234D02*
X11234372Y-16586710D01*
X11234372Y-16586710D02*
X11243896Y-16567662D01*
X11243896Y-16567662D02*
X11243896Y-16558138D01*
X11243896Y-16558138D02*
X11234372Y-16539091D01*
X11234372Y-16539091D02*
X11215325Y-16529567D01*
X11215325Y-16529567D02*
X11186753Y-16529567D01*
X11186753Y-16529567D02*
X11167706Y-16520043D01*
X11167706Y-16520043D02*
X11158182Y-16500996D01*
X11158182Y-16500996D02*
X11158182Y-16491472D01*
X11158182Y-16491472D02*
X11167706Y-16472424D01*
X11167706Y-16472424D02*
X11186753Y-16462900D01*
X11186753Y-16462900D02*
X11215325Y-16462900D01*
X11215325Y-16462900D02*
X11234372Y-16472424D01*
X11310563Y-16672424D02*
X11320087Y-16662900D01*
X11320087Y-16662900D02*
X11339134Y-16634329D01*
X11339134Y-16634329D02*
X11348658Y-16615281D01*
X11348658Y-16615281D02*
X11358182Y-16586710D01*
X11358182Y-16586710D02*
X11367706Y-16539091D01*
X11367706Y-16539091D02*
X11367706Y-16500996D01*
X11367706Y-16500996D02*
X11358182Y-16453377D01*
X11358182Y-16453377D02*
X11348658Y-16424805D01*
X11348658Y-16424805D02*
X11339134Y-16405758D01*
X11339134Y-16405758D02*
X11320087Y-16377186D01*
X11320087Y-16377186D02*
X11310563Y-16367662D01*
M02*
