%TF.GenerationSoftware,KiCad,Pcbnew,7.0.6*%
%TF.CreationDate,2023-08-30T11:13:53+03:00*%
%TF.ProjectId,atmegaStepperDriver,61746d65-6761-4537-9465-707065724472,V0.8.2*%
%TF.SameCoordinates,Original*%
%TF.FileFunction,Legend,Bot*%
%TF.FilePolarity,Positive*%
%FSLAX46Y46*%
G04 Gerber Fmt 4.6, Leading zero omitted, Abs format (unit mm)*
G04 Created by KiCad (PCBNEW 7.0.6) date 2023-08-30 11:13:53*
%MOMM*%
%LPD*%
G01*
G04 APERTURE LIST*
%ADD10C,0.300000*%
G04 APERTURE END LIST*
D10*
X107336390Y-116936599D02*
X107336390Y-116150885D01*
X107336390Y-116150885D02*
X107407818Y-116008028D01*
X107407818Y-116008028D02*
X107550675Y-115936599D01*
X107550675Y-115936599D02*
X107836390Y-115936599D01*
X107836390Y-115936599D02*
X107979247Y-116008028D01*
X107336390Y-116865171D02*
X107479247Y-116936599D01*
X107479247Y-116936599D02*
X107836390Y-116936599D01*
X107836390Y-116936599D02*
X107979247Y-116865171D01*
X107979247Y-116865171D02*
X108050675Y-116722313D01*
X108050675Y-116722313D02*
X108050675Y-116579456D01*
X108050675Y-116579456D02*
X107979247Y-116436599D01*
X107979247Y-116436599D02*
X107836390Y-116365171D01*
X107836390Y-116365171D02*
X107479247Y-116365171D01*
X107479247Y-116365171D02*
X107336390Y-116293742D01*
X106836389Y-115936599D02*
X106264961Y-115936599D01*
X106622104Y-115436599D02*
X106622104Y-116722313D01*
X106622104Y-116722313D02*
X106550675Y-116865171D01*
X106550675Y-116865171D02*
X106407818Y-116936599D01*
X106407818Y-116936599D02*
X106264961Y-116936599D01*
X105764961Y-116936599D02*
X105764961Y-115436599D01*
X105764961Y-115436599D02*
X105264961Y-116508028D01*
X105264961Y-116508028D02*
X104764961Y-115436599D01*
X104764961Y-115436599D02*
X104764961Y-116936599D01*
X103479246Y-116865171D02*
X103622103Y-116936599D01*
X103622103Y-116936599D02*
X103907818Y-116936599D01*
X103907818Y-116936599D02*
X104050675Y-116865171D01*
X104050675Y-116865171D02*
X104122103Y-116722313D01*
X104122103Y-116722313D02*
X104122103Y-116150885D01*
X104122103Y-116150885D02*
X104050675Y-116008028D01*
X104050675Y-116008028D02*
X103907818Y-115936599D01*
X103907818Y-115936599D02*
X103622103Y-115936599D01*
X103622103Y-115936599D02*
X103479246Y-116008028D01*
X103479246Y-116008028D02*
X103407818Y-116150885D01*
X103407818Y-116150885D02*
X103407818Y-116293742D01*
X103407818Y-116293742D02*
X104122103Y-116436599D01*
X102122104Y-115936599D02*
X102122104Y-117150885D01*
X102122104Y-117150885D02*
X102193532Y-117293742D01*
X102193532Y-117293742D02*
X102264961Y-117365171D01*
X102264961Y-117365171D02*
X102407818Y-117436599D01*
X102407818Y-117436599D02*
X102622104Y-117436599D01*
X102622104Y-117436599D02*
X102764961Y-117365171D01*
X102122104Y-116865171D02*
X102264961Y-116936599D01*
X102264961Y-116936599D02*
X102550675Y-116936599D01*
X102550675Y-116936599D02*
X102693532Y-116865171D01*
X102693532Y-116865171D02*
X102764961Y-116793742D01*
X102764961Y-116793742D02*
X102836389Y-116650885D01*
X102836389Y-116650885D02*
X102836389Y-116222313D01*
X102836389Y-116222313D02*
X102764961Y-116079456D01*
X102764961Y-116079456D02*
X102693532Y-116008028D01*
X102693532Y-116008028D02*
X102550675Y-115936599D01*
X102550675Y-115936599D02*
X102264961Y-115936599D01*
X102264961Y-115936599D02*
X102122104Y-116008028D01*
X100764961Y-116936599D02*
X100764961Y-116150885D01*
X100764961Y-116150885D02*
X100836389Y-116008028D01*
X100836389Y-116008028D02*
X100979246Y-115936599D01*
X100979246Y-115936599D02*
X101264961Y-115936599D01*
X101264961Y-115936599D02*
X101407818Y-116008028D01*
X100764961Y-116865171D02*
X100907818Y-116936599D01*
X100907818Y-116936599D02*
X101264961Y-116936599D01*
X101264961Y-116936599D02*
X101407818Y-116865171D01*
X101407818Y-116865171D02*
X101479246Y-116722313D01*
X101479246Y-116722313D02*
X101479246Y-116579456D01*
X101479246Y-116579456D02*
X101407818Y-116436599D01*
X101407818Y-116436599D02*
X101264961Y-116365171D01*
X101264961Y-116365171D02*
X100907818Y-116365171D01*
X100907818Y-116365171D02*
X100764961Y-116293742D01*
X98979246Y-116865171D02*
X98764961Y-116936599D01*
X98764961Y-116936599D02*
X98407818Y-116936599D01*
X98407818Y-116936599D02*
X98264961Y-116865171D01*
X98264961Y-116865171D02*
X98193532Y-116793742D01*
X98193532Y-116793742D02*
X98122103Y-116650885D01*
X98122103Y-116650885D02*
X98122103Y-116508028D01*
X98122103Y-116508028D02*
X98193532Y-116365171D01*
X98193532Y-116365171D02*
X98264961Y-116293742D01*
X98264961Y-116293742D02*
X98407818Y-116222313D01*
X98407818Y-116222313D02*
X98693532Y-116150885D01*
X98693532Y-116150885D02*
X98836389Y-116079456D01*
X98836389Y-116079456D02*
X98907818Y-116008028D01*
X98907818Y-116008028D02*
X98979246Y-115865171D01*
X98979246Y-115865171D02*
X98979246Y-115722313D01*
X98979246Y-115722313D02*
X98907818Y-115579456D01*
X98907818Y-115579456D02*
X98836389Y-115508028D01*
X98836389Y-115508028D02*
X98693532Y-115436599D01*
X98693532Y-115436599D02*
X98336389Y-115436599D01*
X98336389Y-115436599D02*
X98122103Y-115508028D01*
X97693532Y-115936599D02*
X97122104Y-115936599D01*
X97479247Y-115436599D02*
X97479247Y-116722313D01*
X97479247Y-116722313D02*
X97407818Y-116865171D01*
X97407818Y-116865171D02*
X97264961Y-116936599D01*
X97264961Y-116936599D02*
X97122104Y-116936599D01*
X96050675Y-116865171D02*
X96193532Y-116936599D01*
X96193532Y-116936599D02*
X96479247Y-116936599D01*
X96479247Y-116936599D02*
X96622104Y-116865171D01*
X96622104Y-116865171D02*
X96693532Y-116722313D01*
X96693532Y-116722313D02*
X96693532Y-116150885D01*
X96693532Y-116150885D02*
X96622104Y-116008028D01*
X96622104Y-116008028D02*
X96479247Y-115936599D01*
X96479247Y-115936599D02*
X96193532Y-115936599D01*
X96193532Y-115936599D02*
X96050675Y-116008028D01*
X96050675Y-116008028D02*
X95979247Y-116150885D01*
X95979247Y-116150885D02*
X95979247Y-116293742D01*
X95979247Y-116293742D02*
X96693532Y-116436599D01*
X95336390Y-115936599D02*
X95336390Y-117436599D01*
X95336390Y-116008028D02*
X95193533Y-115936599D01*
X95193533Y-115936599D02*
X94907818Y-115936599D01*
X94907818Y-115936599D02*
X94764961Y-116008028D01*
X94764961Y-116008028D02*
X94693533Y-116079456D01*
X94693533Y-116079456D02*
X94622104Y-116222313D01*
X94622104Y-116222313D02*
X94622104Y-116650885D01*
X94622104Y-116650885D02*
X94693533Y-116793742D01*
X94693533Y-116793742D02*
X94764961Y-116865171D01*
X94764961Y-116865171D02*
X94907818Y-116936599D01*
X94907818Y-116936599D02*
X95193533Y-116936599D01*
X95193533Y-116936599D02*
X95336390Y-116865171D01*
X93979247Y-115936599D02*
X93979247Y-117436599D01*
X93979247Y-116008028D02*
X93836390Y-115936599D01*
X93836390Y-115936599D02*
X93550675Y-115936599D01*
X93550675Y-115936599D02*
X93407818Y-116008028D01*
X93407818Y-116008028D02*
X93336390Y-116079456D01*
X93336390Y-116079456D02*
X93264961Y-116222313D01*
X93264961Y-116222313D02*
X93264961Y-116650885D01*
X93264961Y-116650885D02*
X93336390Y-116793742D01*
X93336390Y-116793742D02*
X93407818Y-116865171D01*
X93407818Y-116865171D02*
X93550675Y-116936599D01*
X93550675Y-116936599D02*
X93836390Y-116936599D01*
X93836390Y-116936599D02*
X93979247Y-116865171D01*
X92050675Y-116865171D02*
X92193532Y-116936599D01*
X92193532Y-116936599D02*
X92479247Y-116936599D01*
X92479247Y-116936599D02*
X92622104Y-116865171D01*
X92622104Y-116865171D02*
X92693532Y-116722313D01*
X92693532Y-116722313D02*
X92693532Y-116150885D01*
X92693532Y-116150885D02*
X92622104Y-116008028D01*
X92622104Y-116008028D02*
X92479247Y-115936599D01*
X92479247Y-115936599D02*
X92193532Y-115936599D01*
X92193532Y-115936599D02*
X92050675Y-116008028D01*
X92050675Y-116008028D02*
X91979247Y-116150885D01*
X91979247Y-116150885D02*
X91979247Y-116293742D01*
X91979247Y-116293742D02*
X92693532Y-116436599D01*
X91336390Y-116936599D02*
X91336390Y-115936599D01*
X91336390Y-116222313D02*
X91264961Y-116079456D01*
X91264961Y-116079456D02*
X91193533Y-116008028D01*
X91193533Y-116008028D02*
X91050675Y-115936599D01*
X91050675Y-115936599D02*
X90907818Y-115936599D01*
X89264962Y-116936599D02*
X89264962Y-115436599D01*
X89264962Y-115436599D02*
X88907819Y-115436599D01*
X88907819Y-115436599D02*
X88693533Y-115508028D01*
X88693533Y-115508028D02*
X88550676Y-115650885D01*
X88550676Y-115650885D02*
X88479247Y-115793742D01*
X88479247Y-115793742D02*
X88407819Y-116079456D01*
X88407819Y-116079456D02*
X88407819Y-116293742D01*
X88407819Y-116293742D02*
X88479247Y-116579456D01*
X88479247Y-116579456D02*
X88550676Y-116722313D01*
X88550676Y-116722313D02*
X88693533Y-116865171D01*
X88693533Y-116865171D02*
X88907819Y-116936599D01*
X88907819Y-116936599D02*
X89264962Y-116936599D01*
X87764962Y-116936599D02*
X87764962Y-115936599D01*
X87764962Y-116222313D02*
X87693533Y-116079456D01*
X87693533Y-116079456D02*
X87622105Y-116008028D01*
X87622105Y-116008028D02*
X87479247Y-115936599D01*
X87479247Y-115936599D02*
X87336390Y-115936599D01*
X86836391Y-116936599D02*
X86836391Y-115936599D01*
X86836391Y-115436599D02*
X86907819Y-115508028D01*
X86907819Y-115508028D02*
X86836391Y-115579456D01*
X86836391Y-115579456D02*
X86764962Y-115508028D01*
X86764962Y-115508028D02*
X86836391Y-115436599D01*
X86836391Y-115436599D02*
X86836391Y-115579456D01*
X86264962Y-115936599D02*
X85907819Y-116936599D01*
X85907819Y-116936599D02*
X85550676Y-115936599D01*
X84407819Y-116865171D02*
X84550676Y-116936599D01*
X84550676Y-116936599D02*
X84836391Y-116936599D01*
X84836391Y-116936599D02*
X84979248Y-116865171D01*
X84979248Y-116865171D02*
X85050676Y-116722313D01*
X85050676Y-116722313D02*
X85050676Y-116150885D01*
X85050676Y-116150885D02*
X84979248Y-116008028D01*
X84979248Y-116008028D02*
X84836391Y-115936599D01*
X84836391Y-115936599D02*
X84550676Y-115936599D01*
X84550676Y-115936599D02*
X84407819Y-116008028D01*
X84407819Y-116008028D02*
X84336391Y-116150885D01*
X84336391Y-116150885D02*
X84336391Y-116293742D01*
X84336391Y-116293742D02*
X85050676Y-116436599D01*
X83693534Y-116936599D02*
X83693534Y-115936599D01*
X83693534Y-116222313D02*
X83622105Y-116079456D01*
X83622105Y-116079456D02*
X83550677Y-116008028D01*
X83550677Y-116008028D02*
X83407819Y-115936599D01*
X83407819Y-115936599D02*
X83264962Y-115936599D01*
X81836391Y-115436599D02*
X81336391Y-116936599D01*
X81336391Y-116936599D02*
X80836391Y-115436599D01*
X80050677Y-115436599D02*
X79907820Y-115436599D01*
X79907820Y-115436599D02*
X79764963Y-115508028D01*
X79764963Y-115508028D02*
X79693535Y-115579456D01*
X79693535Y-115579456D02*
X79622106Y-115722313D01*
X79622106Y-115722313D02*
X79550677Y-116008028D01*
X79550677Y-116008028D02*
X79550677Y-116365171D01*
X79550677Y-116365171D02*
X79622106Y-116650885D01*
X79622106Y-116650885D02*
X79693535Y-116793742D01*
X79693535Y-116793742D02*
X79764963Y-116865171D01*
X79764963Y-116865171D02*
X79907820Y-116936599D01*
X79907820Y-116936599D02*
X80050677Y-116936599D01*
X80050677Y-116936599D02*
X80193535Y-116865171D01*
X80193535Y-116865171D02*
X80264963Y-116793742D01*
X80264963Y-116793742D02*
X80336392Y-116650885D01*
X80336392Y-116650885D02*
X80407820Y-116365171D01*
X80407820Y-116365171D02*
X80407820Y-116008028D01*
X80407820Y-116008028D02*
X80336392Y-115722313D01*
X80336392Y-115722313D02*
X80264963Y-115579456D01*
X80264963Y-115579456D02*
X80193535Y-115508028D01*
X80193535Y-115508028D02*
X80050677Y-115436599D01*
X78907821Y-116793742D02*
X78836392Y-116865171D01*
X78836392Y-116865171D02*
X78907821Y-116936599D01*
X78907821Y-116936599D02*
X78979249Y-116865171D01*
X78979249Y-116865171D02*
X78907821Y-116793742D01*
X78907821Y-116793742D02*
X78907821Y-116936599D01*
X77979249Y-116079456D02*
X78122106Y-116008028D01*
X78122106Y-116008028D02*
X78193535Y-115936599D01*
X78193535Y-115936599D02*
X78264963Y-115793742D01*
X78264963Y-115793742D02*
X78264963Y-115722313D01*
X78264963Y-115722313D02*
X78193535Y-115579456D01*
X78193535Y-115579456D02*
X78122106Y-115508028D01*
X78122106Y-115508028D02*
X77979249Y-115436599D01*
X77979249Y-115436599D02*
X77693535Y-115436599D01*
X77693535Y-115436599D02*
X77550678Y-115508028D01*
X77550678Y-115508028D02*
X77479249Y-115579456D01*
X77479249Y-115579456D02*
X77407820Y-115722313D01*
X77407820Y-115722313D02*
X77407820Y-115793742D01*
X77407820Y-115793742D02*
X77479249Y-115936599D01*
X77479249Y-115936599D02*
X77550678Y-116008028D01*
X77550678Y-116008028D02*
X77693535Y-116079456D01*
X77693535Y-116079456D02*
X77979249Y-116079456D01*
X77979249Y-116079456D02*
X78122106Y-116150885D01*
X78122106Y-116150885D02*
X78193535Y-116222313D01*
X78193535Y-116222313D02*
X78264963Y-116365171D01*
X78264963Y-116365171D02*
X78264963Y-116650885D01*
X78264963Y-116650885D02*
X78193535Y-116793742D01*
X78193535Y-116793742D02*
X78122106Y-116865171D01*
X78122106Y-116865171D02*
X77979249Y-116936599D01*
X77979249Y-116936599D02*
X77693535Y-116936599D01*
X77693535Y-116936599D02*
X77550678Y-116865171D01*
X77550678Y-116865171D02*
X77479249Y-116793742D01*
X77479249Y-116793742D02*
X77407820Y-116650885D01*
X77407820Y-116650885D02*
X77407820Y-116365171D01*
X77407820Y-116365171D02*
X77479249Y-116222313D01*
X77479249Y-116222313D02*
X77550678Y-116150885D01*
X77550678Y-116150885D02*
X77693535Y-116079456D01*
X76764964Y-116793742D02*
X76693535Y-116865171D01*
X76693535Y-116865171D02*
X76764964Y-116936599D01*
X76764964Y-116936599D02*
X76836392Y-116865171D01*
X76836392Y-116865171D02*
X76764964Y-116793742D01*
X76764964Y-116793742D02*
X76764964Y-116936599D01*
X75764963Y-115436599D02*
X75622106Y-115436599D01*
X75622106Y-115436599D02*
X75479249Y-115508028D01*
X75479249Y-115508028D02*
X75407821Y-115579456D01*
X75407821Y-115579456D02*
X75336392Y-115722313D01*
X75336392Y-115722313D02*
X75264963Y-116008028D01*
X75264963Y-116008028D02*
X75264963Y-116365171D01*
X75264963Y-116365171D02*
X75336392Y-116650885D01*
X75336392Y-116650885D02*
X75407821Y-116793742D01*
X75407821Y-116793742D02*
X75479249Y-116865171D01*
X75479249Y-116865171D02*
X75622106Y-116936599D01*
X75622106Y-116936599D02*
X75764963Y-116936599D01*
X75764963Y-116936599D02*
X75907821Y-116865171D01*
X75907821Y-116865171D02*
X75979249Y-116793742D01*
X75979249Y-116793742D02*
X76050678Y-116650885D01*
X76050678Y-116650885D02*
X76122106Y-116365171D01*
X76122106Y-116365171D02*
X76122106Y-116008028D01*
X76122106Y-116008028D02*
X76050678Y-115722313D01*
X76050678Y-115722313D02*
X75979249Y-115579456D01*
X75979249Y-115579456D02*
X75907821Y-115508028D01*
X75907821Y-115508028D02*
X75764963Y-115436599D01*
M02*
