%TF.GenerationSoftware,KiCad,Pcbnew,7.0.6*%
%TF.CreationDate,2023-08-09T12:25:19+03:00*%
%TF.ProjectId,atmegaStepperDriver,61746d65-6761-4537-9465-707065724472,v0.7.1*%
%TF.SameCoordinates,Original*%
%TF.FileFunction,Legend,Top*%
%TF.FilePolarity,Positive*%
%FSLAX46Y46*%
G04 Gerber Fmt 4.6, Leading zero omitted, Abs format (unit mm)*
G04 Created by KiCad (PCBNEW 7.0.6) date 2023-08-09 12:25:19*
%MOMM*%
%LPD*%
G01*
G04 APERTURE LIST*
%ADD10C,0.150000*%
%ADD11C,0.120000*%
G04 APERTURE END LIST*
D10*
X98126779Y-58924819D02*
X98126779Y-57924819D01*
X98126779Y-57924819D02*
X98460112Y-58639104D01*
X98460112Y-58639104D02*
X98793445Y-57924819D01*
X98793445Y-57924819D02*
X98793445Y-58924819D01*
X99412493Y-58924819D02*
X99317255Y-58877200D01*
X99317255Y-58877200D02*
X99269636Y-58829580D01*
X99269636Y-58829580D02*
X99222017Y-58734342D01*
X99222017Y-58734342D02*
X99222017Y-58448628D01*
X99222017Y-58448628D02*
X99269636Y-58353390D01*
X99269636Y-58353390D02*
X99317255Y-58305771D01*
X99317255Y-58305771D02*
X99412493Y-58258152D01*
X99412493Y-58258152D02*
X99555350Y-58258152D01*
X99555350Y-58258152D02*
X99650588Y-58305771D01*
X99650588Y-58305771D02*
X99698207Y-58353390D01*
X99698207Y-58353390D02*
X99745826Y-58448628D01*
X99745826Y-58448628D02*
X99745826Y-58734342D01*
X99745826Y-58734342D02*
X99698207Y-58829580D01*
X99698207Y-58829580D02*
X99650588Y-58877200D01*
X99650588Y-58877200D02*
X99555350Y-58924819D01*
X99555350Y-58924819D02*
X99412493Y-58924819D01*
X100031541Y-58258152D02*
X100412493Y-58258152D01*
X100174398Y-57924819D02*
X100174398Y-58781961D01*
X100174398Y-58781961D02*
X100222017Y-58877200D01*
X100222017Y-58877200D02*
X100317255Y-58924819D01*
X100317255Y-58924819D02*
X100412493Y-58924819D01*
X100888684Y-58924819D02*
X100793446Y-58877200D01*
X100793446Y-58877200D02*
X100745827Y-58829580D01*
X100745827Y-58829580D02*
X100698208Y-58734342D01*
X100698208Y-58734342D02*
X100698208Y-58448628D01*
X100698208Y-58448628D02*
X100745827Y-58353390D01*
X100745827Y-58353390D02*
X100793446Y-58305771D01*
X100793446Y-58305771D02*
X100888684Y-58258152D01*
X100888684Y-58258152D02*
X101031541Y-58258152D01*
X101031541Y-58258152D02*
X101126779Y-58305771D01*
X101126779Y-58305771D02*
X101174398Y-58353390D01*
X101174398Y-58353390D02*
X101222017Y-58448628D01*
X101222017Y-58448628D02*
X101222017Y-58734342D01*
X101222017Y-58734342D02*
X101174398Y-58829580D01*
X101174398Y-58829580D02*
X101126779Y-58877200D01*
X101126779Y-58877200D02*
X101031541Y-58924819D01*
X101031541Y-58924819D02*
X100888684Y-58924819D01*
X101650589Y-58924819D02*
X101650589Y-58258152D01*
X101650589Y-58448628D02*
X101698208Y-58353390D01*
X101698208Y-58353390D02*
X101745827Y-58305771D01*
X101745827Y-58305771D02*
X101841065Y-58258152D01*
X101841065Y-58258152D02*
X101936303Y-58258152D01*
X103031542Y-58258152D02*
X103031542Y-59258152D01*
X103031542Y-58305771D02*
X103126780Y-58258152D01*
X103126780Y-58258152D02*
X103317256Y-58258152D01*
X103317256Y-58258152D02*
X103412494Y-58305771D01*
X103412494Y-58305771D02*
X103460113Y-58353390D01*
X103460113Y-58353390D02*
X103507732Y-58448628D01*
X103507732Y-58448628D02*
X103507732Y-58734342D01*
X103507732Y-58734342D02*
X103460113Y-58829580D01*
X103460113Y-58829580D02*
X103412494Y-58877200D01*
X103412494Y-58877200D02*
X103317256Y-58924819D01*
X103317256Y-58924819D02*
X103126780Y-58924819D01*
X103126780Y-58924819D02*
X103031542Y-58877200D01*
X104079161Y-58924819D02*
X103983923Y-58877200D01*
X103983923Y-58877200D02*
X103936304Y-58829580D01*
X103936304Y-58829580D02*
X103888685Y-58734342D01*
X103888685Y-58734342D02*
X103888685Y-58448628D01*
X103888685Y-58448628D02*
X103936304Y-58353390D01*
X103936304Y-58353390D02*
X103983923Y-58305771D01*
X103983923Y-58305771D02*
X104079161Y-58258152D01*
X104079161Y-58258152D02*
X104222018Y-58258152D01*
X104222018Y-58258152D02*
X104317256Y-58305771D01*
X104317256Y-58305771D02*
X104364875Y-58353390D01*
X104364875Y-58353390D02*
X104412494Y-58448628D01*
X104412494Y-58448628D02*
X104412494Y-58734342D01*
X104412494Y-58734342D02*
X104364875Y-58829580D01*
X104364875Y-58829580D02*
X104317256Y-58877200D01*
X104317256Y-58877200D02*
X104222018Y-58924819D01*
X104222018Y-58924819D02*
X104079161Y-58924819D01*
X104745828Y-58258152D02*
X104936304Y-58924819D01*
X104936304Y-58924819D02*
X105126780Y-58448628D01*
X105126780Y-58448628D02*
X105317256Y-58924819D01*
X105317256Y-58924819D02*
X105507732Y-58258152D01*
X106269637Y-58877200D02*
X106174399Y-58924819D01*
X106174399Y-58924819D02*
X105983923Y-58924819D01*
X105983923Y-58924819D02*
X105888685Y-58877200D01*
X105888685Y-58877200D02*
X105841066Y-58781961D01*
X105841066Y-58781961D02*
X105841066Y-58401009D01*
X105841066Y-58401009D02*
X105888685Y-58305771D01*
X105888685Y-58305771D02*
X105983923Y-58258152D01*
X105983923Y-58258152D02*
X106174399Y-58258152D01*
X106174399Y-58258152D02*
X106269637Y-58305771D01*
X106269637Y-58305771D02*
X106317256Y-58401009D01*
X106317256Y-58401009D02*
X106317256Y-58496247D01*
X106317256Y-58496247D02*
X105841066Y-58591485D01*
X106745828Y-58924819D02*
X106745828Y-58258152D01*
X106745828Y-58448628D02*
X106793447Y-58353390D01*
X106793447Y-58353390D02*
X106841066Y-58305771D01*
X106841066Y-58305771D02*
X106936304Y-58258152D01*
X106936304Y-58258152D02*
X107031542Y-58258152D01*
X106270588Y-117662438D02*
X106175350Y-117614819D01*
X106175350Y-117614819D02*
X106032493Y-117614819D01*
X106032493Y-117614819D02*
X105889636Y-117662438D01*
X105889636Y-117662438D02*
X105794398Y-117757676D01*
X105794398Y-117757676D02*
X105746779Y-117852914D01*
X105746779Y-117852914D02*
X105699160Y-118043390D01*
X105699160Y-118043390D02*
X105699160Y-118186247D01*
X105699160Y-118186247D02*
X105746779Y-118376723D01*
X105746779Y-118376723D02*
X105794398Y-118471961D01*
X105794398Y-118471961D02*
X105889636Y-118567200D01*
X105889636Y-118567200D02*
X106032493Y-118614819D01*
X106032493Y-118614819D02*
X106127731Y-118614819D01*
X106127731Y-118614819D02*
X106270588Y-118567200D01*
X106270588Y-118567200D02*
X106318207Y-118519580D01*
X106318207Y-118519580D02*
X106318207Y-118186247D01*
X106318207Y-118186247D02*
X106127731Y-118186247D01*
X107127731Y-118567200D02*
X107032493Y-118614819D01*
X107032493Y-118614819D02*
X106842017Y-118614819D01*
X106842017Y-118614819D02*
X106746779Y-118567200D01*
X106746779Y-118567200D02*
X106699160Y-118471961D01*
X106699160Y-118471961D02*
X106699160Y-118091009D01*
X106699160Y-118091009D02*
X106746779Y-117995771D01*
X106746779Y-117995771D02*
X106842017Y-117948152D01*
X106842017Y-117948152D02*
X107032493Y-117948152D01*
X107032493Y-117948152D02*
X107127731Y-117995771D01*
X107127731Y-117995771D02*
X107175350Y-118091009D01*
X107175350Y-118091009D02*
X107175350Y-118186247D01*
X107175350Y-118186247D02*
X106699160Y-118281485D01*
X107603922Y-117948152D02*
X107603922Y-118614819D01*
X107603922Y-118043390D02*
X107651541Y-117995771D01*
X107651541Y-117995771D02*
X107746779Y-117948152D01*
X107746779Y-117948152D02*
X107889636Y-117948152D01*
X107889636Y-117948152D02*
X107984874Y-117995771D01*
X107984874Y-117995771D02*
X108032493Y-118091009D01*
X108032493Y-118091009D02*
X108032493Y-118614819D01*
X108889636Y-118567200D02*
X108794398Y-118614819D01*
X108794398Y-118614819D02*
X108603922Y-118614819D01*
X108603922Y-118614819D02*
X108508684Y-118567200D01*
X108508684Y-118567200D02*
X108461065Y-118471961D01*
X108461065Y-118471961D02*
X108461065Y-118091009D01*
X108461065Y-118091009D02*
X108508684Y-117995771D01*
X108508684Y-117995771D02*
X108603922Y-117948152D01*
X108603922Y-117948152D02*
X108794398Y-117948152D01*
X108794398Y-117948152D02*
X108889636Y-117995771D01*
X108889636Y-117995771D02*
X108937255Y-118091009D01*
X108937255Y-118091009D02*
X108937255Y-118186247D01*
X108937255Y-118186247D02*
X108461065Y-118281485D01*
X109365827Y-118614819D02*
X109365827Y-117948152D01*
X109365827Y-118138628D02*
X109413446Y-118043390D01*
X109413446Y-118043390D02*
X109461065Y-117995771D01*
X109461065Y-117995771D02*
X109556303Y-117948152D01*
X109556303Y-117948152D02*
X109651541Y-117948152D01*
X110413446Y-118614819D02*
X110413446Y-118091009D01*
X110413446Y-118091009D02*
X110365827Y-117995771D01*
X110365827Y-117995771D02*
X110270589Y-117948152D01*
X110270589Y-117948152D02*
X110080113Y-117948152D01*
X110080113Y-117948152D02*
X109984875Y-117995771D01*
X110413446Y-118567200D02*
X110318208Y-118614819D01*
X110318208Y-118614819D02*
X110080113Y-118614819D01*
X110080113Y-118614819D02*
X109984875Y-118567200D01*
X109984875Y-118567200D02*
X109937256Y-118471961D01*
X109937256Y-118471961D02*
X109937256Y-118376723D01*
X109937256Y-118376723D02*
X109984875Y-118281485D01*
X109984875Y-118281485D02*
X110080113Y-118233866D01*
X110080113Y-118233866D02*
X110318208Y-118233866D01*
X110318208Y-118233866D02*
X110413446Y-118186247D01*
X111032494Y-118614819D02*
X110937256Y-118567200D01*
X110937256Y-118567200D02*
X110889637Y-118471961D01*
X110889637Y-118471961D02*
X110889637Y-117614819D01*
X112175352Y-117948152D02*
X112175352Y-118948152D01*
X112175352Y-117995771D02*
X112270590Y-117948152D01*
X112270590Y-117948152D02*
X112461066Y-117948152D01*
X112461066Y-117948152D02*
X112556304Y-117995771D01*
X112556304Y-117995771D02*
X112603923Y-118043390D01*
X112603923Y-118043390D02*
X112651542Y-118138628D01*
X112651542Y-118138628D02*
X112651542Y-118424342D01*
X112651542Y-118424342D02*
X112603923Y-118519580D01*
X112603923Y-118519580D02*
X112556304Y-118567200D01*
X112556304Y-118567200D02*
X112461066Y-118614819D01*
X112461066Y-118614819D02*
X112270590Y-118614819D01*
X112270590Y-118614819D02*
X112175352Y-118567200D01*
X113222971Y-118614819D02*
X113127733Y-118567200D01*
X113127733Y-118567200D02*
X113080114Y-118519580D01*
X113080114Y-118519580D02*
X113032495Y-118424342D01*
X113032495Y-118424342D02*
X113032495Y-118138628D01*
X113032495Y-118138628D02*
X113080114Y-118043390D01*
X113080114Y-118043390D02*
X113127733Y-117995771D01*
X113127733Y-117995771D02*
X113222971Y-117948152D01*
X113222971Y-117948152D02*
X113365828Y-117948152D01*
X113365828Y-117948152D02*
X113461066Y-117995771D01*
X113461066Y-117995771D02*
X113508685Y-118043390D01*
X113508685Y-118043390D02*
X113556304Y-118138628D01*
X113556304Y-118138628D02*
X113556304Y-118424342D01*
X113556304Y-118424342D02*
X113508685Y-118519580D01*
X113508685Y-118519580D02*
X113461066Y-118567200D01*
X113461066Y-118567200D02*
X113365828Y-118614819D01*
X113365828Y-118614819D02*
X113222971Y-118614819D01*
X113889638Y-117948152D02*
X114080114Y-118614819D01*
X114080114Y-118614819D02*
X114270590Y-118138628D01*
X114270590Y-118138628D02*
X114461066Y-118614819D01*
X114461066Y-118614819D02*
X114651542Y-117948152D01*
X115413447Y-118567200D02*
X115318209Y-118614819D01*
X115318209Y-118614819D02*
X115127733Y-118614819D01*
X115127733Y-118614819D02*
X115032495Y-118567200D01*
X115032495Y-118567200D02*
X114984876Y-118471961D01*
X114984876Y-118471961D02*
X114984876Y-118091009D01*
X114984876Y-118091009D02*
X115032495Y-117995771D01*
X115032495Y-117995771D02*
X115127733Y-117948152D01*
X115127733Y-117948152D02*
X115318209Y-117948152D01*
X115318209Y-117948152D02*
X115413447Y-117995771D01*
X115413447Y-117995771D02*
X115461066Y-118091009D01*
X115461066Y-118091009D02*
X115461066Y-118186247D01*
X115461066Y-118186247D02*
X114984876Y-118281485D01*
X115889638Y-118614819D02*
X115889638Y-117948152D01*
X115889638Y-118138628D02*
X115937257Y-118043390D01*
X115937257Y-118043390D02*
X115984876Y-117995771D01*
X115984876Y-117995771D02*
X116080114Y-117948152D01*
X116080114Y-117948152D02*
X116175352Y-117948152D01*
X96745580Y-136775222D02*
X96745580Y-135775222D01*
X96745580Y-135775222D02*
X97078913Y-136489507D01*
X97078913Y-136489507D02*
X97412246Y-135775222D01*
X97412246Y-135775222D02*
X97412246Y-136775222D01*
X98031294Y-136775222D02*
X97936056Y-136727603D01*
X97936056Y-136727603D02*
X97888437Y-136679983D01*
X97888437Y-136679983D02*
X97840818Y-136584745D01*
X97840818Y-136584745D02*
X97840818Y-136299031D01*
X97840818Y-136299031D02*
X97888437Y-136203793D01*
X97888437Y-136203793D02*
X97936056Y-136156174D01*
X97936056Y-136156174D02*
X98031294Y-136108555D01*
X98031294Y-136108555D02*
X98174151Y-136108555D01*
X98174151Y-136108555D02*
X98269389Y-136156174D01*
X98269389Y-136156174D02*
X98317008Y-136203793D01*
X98317008Y-136203793D02*
X98364627Y-136299031D01*
X98364627Y-136299031D02*
X98364627Y-136584745D01*
X98364627Y-136584745D02*
X98317008Y-136679983D01*
X98317008Y-136679983D02*
X98269389Y-136727603D01*
X98269389Y-136727603D02*
X98174151Y-136775222D01*
X98174151Y-136775222D02*
X98031294Y-136775222D01*
X98650342Y-136108555D02*
X99031294Y-136108555D01*
X98793199Y-135775222D02*
X98793199Y-136632364D01*
X98793199Y-136632364D02*
X98840818Y-136727603D01*
X98840818Y-136727603D02*
X98936056Y-136775222D01*
X98936056Y-136775222D02*
X99031294Y-136775222D01*
X99507485Y-136775222D02*
X99412247Y-136727603D01*
X99412247Y-136727603D02*
X99364628Y-136679983D01*
X99364628Y-136679983D02*
X99317009Y-136584745D01*
X99317009Y-136584745D02*
X99317009Y-136299031D01*
X99317009Y-136299031D02*
X99364628Y-136203793D01*
X99364628Y-136203793D02*
X99412247Y-136156174D01*
X99412247Y-136156174D02*
X99507485Y-136108555D01*
X99507485Y-136108555D02*
X99650342Y-136108555D01*
X99650342Y-136108555D02*
X99745580Y-136156174D01*
X99745580Y-136156174D02*
X99793199Y-136203793D01*
X99793199Y-136203793D02*
X99840818Y-136299031D01*
X99840818Y-136299031D02*
X99840818Y-136584745D01*
X99840818Y-136584745D02*
X99793199Y-136679983D01*
X99793199Y-136679983D02*
X99745580Y-136727603D01*
X99745580Y-136727603D02*
X99650342Y-136775222D01*
X99650342Y-136775222D02*
X99507485Y-136775222D01*
X100269390Y-136775222D02*
X100269390Y-136108555D01*
X100269390Y-136299031D02*
X100317009Y-136203793D01*
X100317009Y-136203793D02*
X100364628Y-136156174D01*
X100364628Y-136156174D02*
X100459866Y-136108555D01*
X100459866Y-136108555D02*
X100555104Y-136108555D01*
X101507486Y-136108555D02*
X101888438Y-136108555D01*
X101650343Y-136775222D02*
X101650343Y-135918079D01*
X101650343Y-135918079D02*
X101697962Y-135822841D01*
X101697962Y-135822841D02*
X101793200Y-135775222D01*
X101793200Y-135775222D02*
X101888438Y-135775222D01*
X102221772Y-136775222D02*
X102221772Y-136108555D01*
X102221772Y-136299031D02*
X102269391Y-136203793D01*
X102269391Y-136203793D02*
X102317010Y-136156174D01*
X102317010Y-136156174D02*
X102412248Y-136108555D01*
X102412248Y-136108555D02*
X102507486Y-136108555D01*
X102983677Y-136775222D02*
X102888439Y-136727603D01*
X102888439Y-136727603D02*
X102840820Y-136679983D01*
X102840820Y-136679983D02*
X102793201Y-136584745D01*
X102793201Y-136584745D02*
X102793201Y-136299031D01*
X102793201Y-136299031D02*
X102840820Y-136203793D01*
X102840820Y-136203793D02*
X102888439Y-136156174D01*
X102888439Y-136156174D02*
X102983677Y-136108555D01*
X102983677Y-136108555D02*
X103126534Y-136108555D01*
X103126534Y-136108555D02*
X103221772Y-136156174D01*
X103221772Y-136156174D02*
X103269391Y-136203793D01*
X103269391Y-136203793D02*
X103317010Y-136299031D01*
X103317010Y-136299031D02*
X103317010Y-136584745D01*
X103317010Y-136584745D02*
X103269391Y-136679983D01*
X103269391Y-136679983D02*
X103221772Y-136727603D01*
X103221772Y-136727603D02*
X103126534Y-136775222D01*
X103126534Y-136775222D02*
X102983677Y-136775222D01*
X103745582Y-136775222D02*
X103745582Y-136108555D01*
X103745582Y-136203793D02*
X103793201Y-136156174D01*
X103793201Y-136156174D02*
X103888439Y-136108555D01*
X103888439Y-136108555D02*
X104031296Y-136108555D01*
X104031296Y-136108555D02*
X104126534Y-136156174D01*
X104126534Y-136156174D02*
X104174153Y-136251412D01*
X104174153Y-136251412D02*
X104174153Y-136775222D01*
X104174153Y-136251412D02*
X104221772Y-136156174D01*
X104221772Y-136156174D02*
X104317010Y-136108555D01*
X104317010Y-136108555D02*
X104459867Y-136108555D01*
X104459867Y-136108555D02*
X104555106Y-136156174D01*
X104555106Y-136156174D02*
X104602725Y-136251412D01*
X104602725Y-136251412D02*
X104602725Y-136775222D01*
X106269391Y-136108555D02*
X106269391Y-136918079D01*
X106269391Y-136918079D02*
X106221772Y-137013317D01*
X106221772Y-137013317D02*
X106174153Y-137060936D01*
X106174153Y-137060936D02*
X106078915Y-137108555D01*
X106078915Y-137108555D02*
X105936058Y-137108555D01*
X105936058Y-137108555D02*
X105840820Y-137060936D01*
X106269391Y-136727603D02*
X106174153Y-136775222D01*
X106174153Y-136775222D02*
X105983677Y-136775222D01*
X105983677Y-136775222D02*
X105888439Y-136727603D01*
X105888439Y-136727603D02*
X105840820Y-136679983D01*
X105840820Y-136679983D02*
X105793201Y-136584745D01*
X105793201Y-136584745D02*
X105793201Y-136299031D01*
X105793201Y-136299031D02*
X105840820Y-136203793D01*
X105840820Y-136203793D02*
X105888439Y-136156174D01*
X105888439Y-136156174D02*
X105983677Y-136108555D01*
X105983677Y-136108555D02*
X106174153Y-136108555D01*
X106174153Y-136108555D02*
X106269391Y-136156174D01*
X107126534Y-136727603D02*
X107031296Y-136775222D01*
X107031296Y-136775222D02*
X106840820Y-136775222D01*
X106840820Y-136775222D02*
X106745582Y-136727603D01*
X106745582Y-136727603D02*
X106697963Y-136632364D01*
X106697963Y-136632364D02*
X106697963Y-136251412D01*
X106697963Y-136251412D02*
X106745582Y-136156174D01*
X106745582Y-136156174D02*
X106840820Y-136108555D01*
X106840820Y-136108555D02*
X107031296Y-136108555D01*
X107031296Y-136108555D02*
X107126534Y-136156174D01*
X107126534Y-136156174D02*
X107174153Y-136251412D01*
X107174153Y-136251412D02*
X107174153Y-136346650D01*
X107174153Y-136346650D02*
X106697963Y-136441888D01*
X107602725Y-136108555D02*
X107602725Y-136775222D01*
X107602725Y-136203793D02*
X107650344Y-136156174D01*
X107650344Y-136156174D02*
X107745582Y-136108555D01*
X107745582Y-136108555D02*
X107888439Y-136108555D01*
X107888439Y-136108555D02*
X107983677Y-136156174D01*
X107983677Y-136156174D02*
X108031296Y-136251412D01*
X108031296Y-136251412D02*
X108031296Y-136775222D01*
X108888439Y-136727603D02*
X108793201Y-136775222D01*
X108793201Y-136775222D02*
X108602725Y-136775222D01*
X108602725Y-136775222D02*
X108507487Y-136727603D01*
X108507487Y-136727603D02*
X108459868Y-136632364D01*
X108459868Y-136632364D02*
X108459868Y-136251412D01*
X108459868Y-136251412D02*
X108507487Y-136156174D01*
X108507487Y-136156174D02*
X108602725Y-136108555D01*
X108602725Y-136108555D02*
X108793201Y-136108555D01*
X108793201Y-136108555D02*
X108888439Y-136156174D01*
X108888439Y-136156174D02*
X108936058Y-136251412D01*
X108936058Y-136251412D02*
X108936058Y-136346650D01*
X108936058Y-136346650D02*
X108459868Y-136441888D01*
X109364630Y-136775222D02*
X109364630Y-136108555D01*
X109364630Y-136299031D02*
X109412249Y-136203793D01*
X109412249Y-136203793D02*
X109459868Y-136156174D01*
X109459868Y-136156174D02*
X109555106Y-136108555D01*
X109555106Y-136108555D02*
X109650344Y-136108555D01*
X110412249Y-136775222D02*
X110412249Y-136251412D01*
X110412249Y-136251412D02*
X110364630Y-136156174D01*
X110364630Y-136156174D02*
X110269392Y-136108555D01*
X110269392Y-136108555D02*
X110078916Y-136108555D01*
X110078916Y-136108555D02*
X109983678Y-136156174D01*
X110412249Y-136727603D02*
X110317011Y-136775222D01*
X110317011Y-136775222D02*
X110078916Y-136775222D01*
X110078916Y-136775222D02*
X109983678Y-136727603D01*
X109983678Y-136727603D02*
X109936059Y-136632364D01*
X109936059Y-136632364D02*
X109936059Y-136537126D01*
X109936059Y-136537126D02*
X109983678Y-136441888D01*
X109983678Y-136441888D02*
X110078916Y-136394269D01*
X110078916Y-136394269D02*
X110317011Y-136394269D01*
X110317011Y-136394269D02*
X110412249Y-136346650D01*
X111031297Y-136775222D02*
X110936059Y-136727603D01*
X110936059Y-136727603D02*
X110888440Y-136632364D01*
X110888440Y-136632364D02*
X110888440Y-135775222D01*
X73715714Y-56404819D02*
X73715714Y-55404819D01*
X73715714Y-55404819D02*
X73953809Y-55404819D01*
X73953809Y-55404819D02*
X74096666Y-55452438D01*
X74096666Y-55452438D02*
X74191904Y-55547676D01*
X74191904Y-55547676D02*
X74239523Y-55642914D01*
X74239523Y-55642914D02*
X74287142Y-55833390D01*
X74287142Y-55833390D02*
X74287142Y-55976247D01*
X74287142Y-55976247D02*
X74239523Y-56166723D01*
X74239523Y-56166723D02*
X74191904Y-56261961D01*
X74191904Y-56261961D02*
X74096666Y-56357200D01*
X74096666Y-56357200D02*
X73953809Y-56404819D01*
X73953809Y-56404819D02*
X73715714Y-56404819D01*
X75239523Y-56404819D02*
X74668095Y-56404819D01*
X74953809Y-56404819D02*
X74953809Y-55404819D01*
X74953809Y-55404819D02*
X74858571Y-55547676D01*
X74858571Y-55547676D02*
X74763333Y-55642914D01*
X74763333Y-55642914D02*
X74668095Y-55690533D01*
X76191904Y-56404819D02*
X75620476Y-56404819D01*
X75906190Y-56404819D02*
X75906190Y-55404819D01*
X75906190Y-55404819D02*
X75810952Y-55547676D01*
X75810952Y-55547676D02*
X75715714Y-55642914D01*
X75715714Y-55642914D02*
X75620476Y-55690533D01*
X68953095Y-58874819D02*
X68953095Y-57874819D01*
X69524523Y-58874819D02*
X69095952Y-58303390D01*
X69524523Y-57874819D02*
X68953095Y-58446247D01*
X86220662Y-132528245D02*
X86220662Y-133242530D01*
X86220662Y-133242530D02*
X86173043Y-133385387D01*
X86173043Y-133385387D02*
X86077805Y-133480626D01*
X86077805Y-133480626D02*
X85934948Y-133528245D01*
X85934948Y-133528245D02*
X85839710Y-133528245D01*
X86744472Y-133528245D02*
X86934948Y-133528245D01*
X86934948Y-133528245D02*
X87030186Y-133480626D01*
X87030186Y-133480626D02*
X87077805Y-133433006D01*
X87077805Y-133433006D02*
X87173043Y-133290149D01*
X87173043Y-133290149D02*
X87220662Y-133099673D01*
X87220662Y-133099673D02*
X87220662Y-132718721D01*
X87220662Y-132718721D02*
X87173043Y-132623483D01*
X87173043Y-132623483D02*
X87125424Y-132575864D01*
X87125424Y-132575864D02*
X87030186Y-132528245D01*
X87030186Y-132528245D02*
X86839710Y-132528245D01*
X86839710Y-132528245D02*
X86744472Y-132575864D01*
X86744472Y-132575864D02*
X86696853Y-132623483D01*
X86696853Y-132623483D02*
X86649234Y-132718721D01*
X86649234Y-132718721D02*
X86649234Y-132956816D01*
X86649234Y-132956816D02*
X86696853Y-133052054D01*
X86696853Y-133052054D02*
X86744472Y-133099673D01*
X86744472Y-133099673D02*
X86839710Y-133147292D01*
X86839710Y-133147292D02*
X87030186Y-133147292D01*
X87030186Y-133147292D02*
X87125424Y-133099673D01*
X87125424Y-133099673D02*
X87173043Y-133052054D01*
X87173043Y-133052054D02*
X87220662Y-132956816D01*
X85629761Y-72940057D02*
X85534523Y-72892438D01*
X85534523Y-72892438D02*
X85439285Y-72797200D01*
X85439285Y-72797200D02*
X85296428Y-72654342D01*
X85296428Y-72654342D02*
X85201190Y-72606723D01*
X85201190Y-72606723D02*
X85105952Y-72606723D01*
X85153571Y-72844819D02*
X85058333Y-72797200D01*
X85058333Y-72797200D02*
X84963095Y-72701961D01*
X84963095Y-72701961D02*
X84915476Y-72511485D01*
X84915476Y-72511485D02*
X84915476Y-72178152D01*
X84915476Y-72178152D02*
X84963095Y-71987676D01*
X84963095Y-71987676D02*
X85058333Y-71892438D01*
X85058333Y-71892438D02*
X85153571Y-71844819D01*
X85153571Y-71844819D02*
X85344047Y-71844819D01*
X85344047Y-71844819D02*
X85439285Y-71892438D01*
X85439285Y-71892438D02*
X85534523Y-71987676D01*
X85534523Y-71987676D02*
X85582142Y-72178152D01*
X85582142Y-72178152D02*
X85582142Y-72511485D01*
X85582142Y-72511485D02*
X85534523Y-72701961D01*
X85534523Y-72701961D02*
X85439285Y-72797200D01*
X85439285Y-72797200D02*
X85344047Y-72844819D01*
X85344047Y-72844819D02*
X85153571Y-72844819D01*
X86439285Y-71844819D02*
X86248809Y-71844819D01*
X86248809Y-71844819D02*
X86153571Y-71892438D01*
X86153571Y-71892438D02*
X86105952Y-71940057D01*
X86105952Y-71940057D02*
X86010714Y-72082914D01*
X86010714Y-72082914D02*
X85963095Y-72273390D01*
X85963095Y-72273390D02*
X85963095Y-72654342D01*
X85963095Y-72654342D02*
X86010714Y-72749580D01*
X86010714Y-72749580D02*
X86058333Y-72797200D01*
X86058333Y-72797200D02*
X86153571Y-72844819D01*
X86153571Y-72844819D02*
X86344047Y-72844819D01*
X86344047Y-72844819D02*
X86439285Y-72797200D01*
X86439285Y-72797200D02*
X86486904Y-72749580D01*
X86486904Y-72749580D02*
X86534523Y-72654342D01*
X86534523Y-72654342D02*
X86534523Y-72416247D01*
X86534523Y-72416247D02*
X86486904Y-72321009D01*
X86486904Y-72321009D02*
X86439285Y-72273390D01*
X86439285Y-72273390D02*
X86344047Y-72225771D01*
X86344047Y-72225771D02*
X86153571Y-72225771D01*
X86153571Y-72225771D02*
X86058333Y-72273390D01*
X86058333Y-72273390D02*
X86010714Y-72321009D01*
X86010714Y-72321009D02*
X85963095Y-72416247D01*
X104690057Y-66135238D02*
X104642438Y-66230476D01*
X104642438Y-66230476D02*
X104547200Y-66325714D01*
X104547200Y-66325714D02*
X104404342Y-66468571D01*
X104404342Y-66468571D02*
X104356723Y-66563809D01*
X104356723Y-66563809D02*
X104356723Y-66659047D01*
X104594819Y-66611428D02*
X104547200Y-66706666D01*
X104547200Y-66706666D02*
X104451961Y-66801904D01*
X104451961Y-66801904D02*
X104261485Y-66849523D01*
X104261485Y-66849523D02*
X103928152Y-66849523D01*
X103928152Y-66849523D02*
X103737676Y-66801904D01*
X103737676Y-66801904D02*
X103642438Y-66706666D01*
X103642438Y-66706666D02*
X103594819Y-66611428D01*
X103594819Y-66611428D02*
X103594819Y-66420952D01*
X103594819Y-66420952D02*
X103642438Y-66325714D01*
X103642438Y-66325714D02*
X103737676Y-66230476D01*
X103737676Y-66230476D02*
X103928152Y-66182857D01*
X103928152Y-66182857D02*
X104261485Y-66182857D01*
X104261485Y-66182857D02*
X104451961Y-66230476D01*
X104451961Y-66230476D02*
X104547200Y-66325714D01*
X104547200Y-66325714D02*
X104594819Y-66420952D01*
X104594819Y-66420952D02*
X104594819Y-66611428D01*
X103594819Y-65278095D02*
X103594819Y-65754285D01*
X103594819Y-65754285D02*
X104071009Y-65801904D01*
X104071009Y-65801904D02*
X104023390Y-65754285D01*
X104023390Y-65754285D02*
X103975771Y-65659047D01*
X103975771Y-65659047D02*
X103975771Y-65420952D01*
X103975771Y-65420952D02*
X104023390Y-65325714D01*
X104023390Y-65325714D02*
X104071009Y-65278095D01*
X104071009Y-65278095D02*
X104166247Y-65230476D01*
X104166247Y-65230476D02*
X104404342Y-65230476D01*
X104404342Y-65230476D02*
X104499580Y-65278095D01*
X104499580Y-65278095D02*
X104547200Y-65325714D01*
X104547200Y-65325714D02*
X104594819Y-65420952D01*
X104594819Y-65420952D02*
X104594819Y-65659047D01*
X104594819Y-65659047D02*
X104547200Y-65754285D01*
X104547200Y-65754285D02*
X104499580Y-65801904D01*
X79775057Y-66135238D02*
X79727438Y-66230476D01*
X79727438Y-66230476D02*
X79632200Y-66325714D01*
X79632200Y-66325714D02*
X79489342Y-66468571D01*
X79489342Y-66468571D02*
X79441723Y-66563809D01*
X79441723Y-66563809D02*
X79441723Y-66659047D01*
X79679819Y-66611428D02*
X79632200Y-66706666D01*
X79632200Y-66706666D02*
X79536961Y-66801904D01*
X79536961Y-66801904D02*
X79346485Y-66849523D01*
X79346485Y-66849523D02*
X79013152Y-66849523D01*
X79013152Y-66849523D02*
X78822676Y-66801904D01*
X78822676Y-66801904D02*
X78727438Y-66706666D01*
X78727438Y-66706666D02*
X78679819Y-66611428D01*
X78679819Y-66611428D02*
X78679819Y-66420952D01*
X78679819Y-66420952D02*
X78727438Y-66325714D01*
X78727438Y-66325714D02*
X78822676Y-66230476D01*
X78822676Y-66230476D02*
X79013152Y-66182857D01*
X79013152Y-66182857D02*
X79346485Y-66182857D01*
X79346485Y-66182857D02*
X79536961Y-66230476D01*
X79536961Y-66230476D02*
X79632200Y-66325714D01*
X79632200Y-66325714D02*
X79679819Y-66420952D01*
X79679819Y-66420952D02*
X79679819Y-66611428D01*
X78679819Y-65849523D02*
X78679819Y-65230476D01*
X78679819Y-65230476D02*
X79060771Y-65563809D01*
X79060771Y-65563809D02*
X79060771Y-65420952D01*
X79060771Y-65420952D02*
X79108390Y-65325714D01*
X79108390Y-65325714D02*
X79156009Y-65278095D01*
X79156009Y-65278095D02*
X79251247Y-65230476D01*
X79251247Y-65230476D02*
X79489342Y-65230476D01*
X79489342Y-65230476D02*
X79584580Y-65278095D01*
X79584580Y-65278095D02*
X79632200Y-65325714D01*
X79632200Y-65325714D02*
X79679819Y-65420952D01*
X79679819Y-65420952D02*
X79679819Y-65706666D01*
X79679819Y-65706666D02*
X79632200Y-65801904D01*
X79632200Y-65801904D02*
X79584580Y-65849523D01*
X68778204Y-79623881D02*
X68302013Y-79957214D01*
X68778204Y-80195309D02*
X67778204Y-80195309D01*
X67778204Y-80195309D02*
X67778204Y-79814357D01*
X67778204Y-79814357D02*
X67825823Y-79719119D01*
X67825823Y-79719119D02*
X67873442Y-79671500D01*
X67873442Y-79671500D02*
X67968680Y-79623881D01*
X67968680Y-79623881D02*
X68111537Y-79623881D01*
X68111537Y-79623881D02*
X68206775Y-79671500D01*
X68206775Y-79671500D02*
X68254394Y-79719119D01*
X68254394Y-79719119D02*
X68302013Y-79814357D01*
X68302013Y-79814357D02*
X68302013Y-80195309D01*
X68111537Y-78766738D02*
X68778204Y-78766738D01*
X67730585Y-79004833D02*
X68444870Y-79242928D01*
X68444870Y-79242928D02*
X68444870Y-78623881D01*
X87354580Y-56046666D02*
X87402200Y-56094285D01*
X87402200Y-56094285D02*
X87449819Y-56237142D01*
X87449819Y-56237142D02*
X87449819Y-56332380D01*
X87449819Y-56332380D02*
X87402200Y-56475237D01*
X87402200Y-56475237D02*
X87306961Y-56570475D01*
X87306961Y-56570475D02*
X87211723Y-56618094D01*
X87211723Y-56618094D02*
X87021247Y-56665713D01*
X87021247Y-56665713D02*
X86878390Y-56665713D01*
X86878390Y-56665713D02*
X86687914Y-56618094D01*
X86687914Y-56618094D02*
X86592676Y-56570475D01*
X86592676Y-56570475D02*
X86497438Y-56475237D01*
X86497438Y-56475237D02*
X86449819Y-56332380D01*
X86449819Y-56332380D02*
X86449819Y-56237142D01*
X86449819Y-56237142D02*
X86497438Y-56094285D01*
X86497438Y-56094285D02*
X86545057Y-56046666D01*
X86449819Y-55713332D02*
X86449819Y-55046666D01*
X86449819Y-55046666D02*
X87449819Y-55475237D01*
X75779761Y-73550057D02*
X75684523Y-73502438D01*
X75684523Y-73502438D02*
X75589285Y-73407200D01*
X75589285Y-73407200D02*
X75446428Y-73264342D01*
X75446428Y-73264342D02*
X75351190Y-73216723D01*
X75351190Y-73216723D02*
X75255952Y-73216723D01*
X75303571Y-73454819D02*
X75208333Y-73407200D01*
X75208333Y-73407200D02*
X75113095Y-73311961D01*
X75113095Y-73311961D02*
X75065476Y-73121485D01*
X75065476Y-73121485D02*
X75065476Y-72788152D01*
X75065476Y-72788152D02*
X75113095Y-72597676D01*
X75113095Y-72597676D02*
X75208333Y-72502438D01*
X75208333Y-72502438D02*
X75303571Y-72454819D01*
X75303571Y-72454819D02*
X75494047Y-72454819D01*
X75494047Y-72454819D02*
X75589285Y-72502438D01*
X75589285Y-72502438D02*
X75684523Y-72597676D01*
X75684523Y-72597676D02*
X75732142Y-72788152D01*
X75732142Y-72788152D02*
X75732142Y-73121485D01*
X75732142Y-73121485D02*
X75684523Y-73311961D01*
X75684523Y-73311961D02*
X75589285Y-73407200D01*
X75589285Y-73407200D02*
X75494047Y-73454819D01*
X75494047Y-73454819D02*
X75303571Y-73454819D01*
X76208333Y-73454819D02*
X76398809Y-73454819D01*
X76398809Y-73454819D02*
X76494047Y-73407200D01*
X76494047Y-73407200D02*
X76541666Y-73359580D01*
X76541666Y-73359580D02*
X76636904Y-73216723D01*
X76636904Y-73216723D02*
X76684523Y-73026247D01*
X76684523Y-73026247D02*
X76684523Y-72645295D01*
X76684523Y-72645295D02*
X76636904Y-72550057D01*
X76636904Y-72550057D02*
X76589285Y-72502438D01*
X76589285Y-72502438D02*
X76494047Y-72454819D01*
X76494047Y-72454819D02*
X76303571Y-72454819D01*
X76303571Y-72454819D02*
X76208333Y-72502438D01*
X76208333Y-72502438D02*
X76160714Y-72550057D01*
X76160714Y-72550057D02*
X76113095Y-72645295D01*
X76113095Y-72645295D02*
X76113095Y-72883390D01*
X76113095Y-72883390D02*
X76160714Y-72978628D01*
X76160714Y-72978628D02*
X76208333Y-73026247D01*
X76208333Y-73026247D02*
X76303571Y-73073866D01*
X76303571Y-73073866D02*
X76494047Y-73073866D01*
X76494047Y-73073866D02*
X76589285Y-73026247D01*
X76589285Y-73026247D02*
X76636904Y-72978628D01*
X76636904Y-72978628D02*
X76684523Y-72883390D01*
X79734580Y-56046666D02*
X79782200Y-56094285D01*
X79782200Y-56094285D02*
X79829819Y-56237142D01*
X79829819Y-56237142D02*
X79829819Y-56332380D01*
X79829819Y-56332380D02*
X79782200Y-56475237D01*
X79782200Y-56475237D02*
X79686961Y-56570475D01*
X79686961Y-56570475D02*
X79591723Y-56618094D01*
X79591723Y-56618094D02*
X79401247Y-56665713D01*
X79401247Y-56665713D02*
X79258390Y-56665713D01*
X79258390Y-56665713D02*
X79067914Y-56618094D01*
X79067914Y-56618094D02*
X78972676Y-56570475D01*
X78972676Y-56570475D02*
X78877438Y-56475237D01*
X78877438Y-56475237D02*
X78829819Y-56332380D01*
X78829819Y-56332380D02*
X78829819Y-56237142D01*
X78829819Y-56237142D02*
X78877438Y-56094285D01*
X78877438Y-56094285D02*
X78925057Y-56046666D01*
X78829819Y-55189523D02*
X78829819Y-55379999D01*
X78829819Y-55379999D02*
X78877438Y-55475237D01*
X78877438Y-55475237D02*
X78925057Y-55522856D01*
X78925057Y-55522856D02*
X79067914Y-55618094D01*
X79067914Y-55618094D02*
X79258390Y-55665713D01*
X79258390Y-55665713D02*
X79639342Y-55665713D01*
X79639342Y-55665713D02*
X79734580Y-55618094D01*
X79734580Y-55618094D02*
X79782200Y-55570475D01*
X79782200Y-55570475D02*
X79829819Y-55475237D01*
X79829819Y-55475237D02*
X79829819Y-55284761D01*
X79829819Y-55284761D02*
X79782200Y-55189523D01*
X79782200Y-55189523D02*
X79734580Y-55141904D01*
X79734580Y-55141904D02*
X79639342Y-55094285D01*
X79639342Y-55094285D02*
X79401247Y-55094285D01*
X79401247Y-55094285D02*
X79306009Y-55141904D01*
X79306009Y-55141904D02*
X79258390Y-55189523D01*
X79258390Y-55189523D02*
X79210771Y-55284761D01*
X79210771Y-55284761D02*
X79210771Y-55475237D01*
X79210771Y-55475237D02*
X79258390Y-55570475D01*
X79258390Y-55570475D02*
X79306009Y-55618094D01*
X79306009Y-55618094D02*
X79401247Y-55665713D01*
X106928919Y-78866281D02*
X106452728Y-79199614D01*
X106928919Y-79437709D02*
X105928919Y-79437709D01*
X105928919Y-79437709D02*
X105928919Y-79056757D01*
X105928919Y-79056757D02*
X105976538Y-78961519D01*
X105976538Y-78961519D02*
X106024157Y-78913900D01*
X106024157Y-78913900D02*
X106119395Y-78866281D01*
X106119395Y-78866281D02*
X106262252Y-78866281D01*
X106262252Y-78866281D02*
X106357490Y-78913900D01*
X106357490Y-78913900D02*
X106405109Y-78961519D01*
X106405109Y-78961519D02*
X106452728Y-79056757D01*
X106452728Y-79056757D02*
X106452728Y-79437709D01*
X105928919Y-78532947D02*
X105928919Y-77866281D01*
X105928919Y-77866281D02*
X106928919Y-78294852D01*
X88003571Y-80175057D02*
X87908333Y-80127438D01*
X87908333Y-80127438D02*
X87813095Y-80032200D01*
X87813095Y-80032200D02*
X87670238Y-79889342D01*
X87670238Y-79889342D02*
X87575000Y-79841723D01*
X87575000Y-79841723D02*
X87479762Y-79841723D01*
X87527381Y-80079819D02*
X87432143Y-80032200D01*
X87432143Y-80032200D02*
X87336905Y-79936961D01*
X87336905Y-79936961D02*
X87289286Y-79746485D01*
X87289286Y-79746485D02*
X87289286Y-79413152D01*
X87289286Y-79413152D02*
X87336905Y-79222676D01*
X87336905Y-79222676D02*
X87432143Y-79127438D01*
X87432143Y-79127438D02*
X87527381Y-79079819D01*
X87527381Y-79079819D02*
X87717857Y-79079819D01*
X87717857Y-79079819D02*
X87813095Y-79127438D01*
X87813095Y-79127438D02*
X87908333Y-79222676D01*
X87908333Y-79222676D02*
X87955952Y-79413152D01*
X87955952Y-79413152D02*
X87955952Y-79746485D01*
X87955952Y-79746485D02*
X87908333Y-79936961D01*
X87908333Y-79936961D02*
X87813095Y-80032200D01*
X87813095Y-80032200D02*
X87717857Y-80079819D01*
X87717857Y-80079819D02*
X87527381Y-80079819D01*
X88908333Y-80079819D02*
X88336905Y-80079819D01*
X88622619Y-80079819D02*
X88622619Y-79079819D01*
X88622619Y-79079819D02*
X88527381Y-79222676D01*
X88527381Y-79222676D02*
X88432143Y-79317914D01*
X88432143Y-79317914D02*
X88336905Y-79365533D01*
X89289286Y-79175057D02*
X89336905Y-79127438D01*
X89336905Y-79127438D02*
X89432143Y-79079819D01*
X89432143Y-79079819D02*
X89670238Y-79079819D01*
X89670238Y-79079819D02*
X89765476Y-79127438D01*
X89765476Y-79127438D02*
X89813095Y-79175057D01*
X89813095Y-79175057D02*
X89860714Y-79270295D01*
X89860714Y-79270295D02*
X89860714Y-79365533D01*
X89860714Y-79365533D02*
X89813095Y-79508390D01*
X89813095Y-79508390D02*
X89241667Y-80079819D01*
X89241667Y-80079819D02*
X89860714Y-80079819D01*
X100703571Y-80175057D02*
X100608333Y-80127438D01*
X100608333Y-80127438D02*
X100513095Y-80032200D01*
X100513095Y-80032200D02*
X100370238Y-79889342D01*
X100370238Y-79889342D02*
X100275000Y-79841723D01*
X100275000Y-79841723D02*
X100179762Y-79841723D01*
X100227381Y-80079819D02*
X100132143Y-80032200D01*
X100132143Y-80032200D02*
X100036905Y-79936961D01*
X100036905Y-79936961D02*
X99989286Y-79746485D01*
X99989286Y-79746485D02*
X99989286Y-79413152D01*
X99989286Y-79413152D02*
X100036905Y-79222676D01*
X100036905Y-79222676D02*
X100132143Y-79127438D01*
X100132143Y-79127438D02*
X100227381Y-79079819D01*
X100227381Y-79079819D02*
X100417857Y-79079819D01*
X100417857Y-79079819D02*
X100513095Y-79127438D01*
X100513095Y-79127438D02*
X100608333Y-79222676D01*
X100608333Y-79222676D02*
X100655952Y-79413152D01*
X100655952Y-79413152D02*
X100655952Y-79746485D01*
X100655952Y-79746485D02*
X100608333Y-79936961D01*
X100608333Y-79936961D02*
X100513095Y-80032200D01*
X100513095Y-80032200D02*
X100417857Y-80079819D01*
X100417857Y-80079819D02*
X100227381Y-80079819D01*
X101608333Y-80079819D02*
X101036905Y-80079819D01*
X101322619Y-80079819D02*
X101322619Y-79079819D01*
X101322619Y-79079819D02*
X101227381Y-79222676D01*
X101227381Y-79222676D02*
X101132143Y-79317914D01*
X101132143Y-79317914D02*
X101036905Y-79365533D01*
X102465476Y-79413152D02*
X102465476Y-80079819D01*
X102227381Y-79032200D02*
X101989286Y-79746485D01*
X101989286Y-79746485D02*
X102608333Y-79746485D01*
X81441177Y-79500558D02*
X80964986Y-79833891D01*
X81441177Y-80071986D02*
X80441177Y-80071986D01*
X80441177Y-80071986D02*
X80441177Y-79691034D01*
X80441177Y-79691034D02*
X80488796Y-79595796D01*
X80488796Y-79595796D02*
X80536415Y-79548177D01*
X80536415Y-79548177D02*
X80631653Y-79500558D01*
X80631653Y-79500558D02*
X80774510Y-79500558D01*
X80774510Y-79500558D02*
X80869748Y-79548177D01*
X80869748Y-79548177D02*
X80917367Y-79595796D01*
X80917367Y-79595796D02*
X80964986Y-79691034D01*
X80964986Y-79691034D02*
X80964986Y-80071986D01*
X80441177Y-78595796D02*
X80441177Y-79071986D01*
X80441177Y-79071986D02*
X80917367Y-79119605D01*
X80917367Y-79119605D02*
X80869748Y-79071986D01*
X80869748Y-79071986D02*
X80822129Y-78976748D01*
X80822129Y-78976748D02*
X80822129Y-78738653D01*
X80822129Y-78738653D02*
X80869748Y-78643415D01*
X80869748Y-78643415D02*
X80917367Y-78595796D01*
X80917367Y-78595796D02*
X81012605Y-78548177D01*
X81012605Y-78548177D02*
X81250700Y-78548177D01*
X81250700Y-78548177D02*
X81345938Y-78595796D01*
X81345938Y-78595796D02*
X81393558Y-78643415D01*
X81393558Y-78643415D02*
X81441177Y-78738653D01*
X81441177Y-78738653D02*
X81441177Y-78976748D01*
X81441177Y-78976748D02*
X81393558Y-79071986D01*
X81393558Y-79071986D02*
X81345938Y-79119605D01*
X111954819Y-49108333D02*
X112669104Y-49108333D01*
X112669104Y-49108333D02*
X112811961Y-49155952D01*
X112811961Y-49155952D02*
X112907200Y-49251190D01*
X112907200Y-49251190D02*
X112954819Y-49394047D01*
X112954819Y-49394047D02*
X112954819Y-49489285D01*
X112954819Y-48632142D02*
X111954819Y-48632142D01*
X111954819Y-48632142D02*
X111954819Y-48251190D01*
X111954819Y-48251190D02*
X112002438Y-48155952D01*
X112002438Y-48155952D02*
X112050057Y-48108333D01*
X112050057Y-48108333D02*
X112145295Y-48060714D01*
X112145295Y-48060714D02*
X112288152Y-48060714D01*
X112288152Y-48060714D02*
X112383390Y-48108333D01*
X112383390Y-48108333D02*
X112431009Y-48155952D01*
X112431009Y-48155952D02*
X112478628Y-48251190D01*
X112478628Y-48251190D02*
X112478628Y-48632142D01*
X111954819Y-47727380D02*
X111954819Y-47108333D01*
X111954819Y-47108333D02*
X112335771Y-47441666D01*
X112335771Y-47441666D02*
X112335771Y-47298809D01*
X112335771Y-47298809D02*
X112383390Y-47203571D01*
X112383390Y-47203571D02*
X112431009Y-47155952D01*
X112431009Y-47155952D02*
X112526247Y-47108333D01*
X112526247Y-47108333D02*
X112764342Y-47108333D01*
X112764342Y-47108333D02*
X112859580Y-47155952D01*
X112859580Y-47155952D02*
X112907200Y-47203571D01*
X112907200Y-47203571D02*
X112954819Y-47298809D01*
X112954819Y-47298809D02*
X112954819Y-47584523D01*
X112954819Y-47584523D02*
X112907200Y-47679761D01*
X112907200Y-47679761D02*
X112859580Y-47727380D01*
X113403571Y-73190057D02*
X113308333Y-73142438D01*
X113308333Y-73142438D02*
X113213095Y-73047200D01*
X113213095Y-73047200D02*
X113070238Y-72904342D01*
X113070238Y-72904342D02*
X112975000Y-72856723D01*
X112975000Y-72856723D02*
X112879762Y-72856723D01*
X112927381Y-73094819D02*
X112832143Y-73047200D01*
X112832143Y-73047200D02*
X112736905Y-72951961D01*
X112736905Y-72951961D02*
X112689286Y-72761485D01*
X112689286Y-72761485D02*
X112689286Y-72428152D01*
X112689286Y-72428152D02*
X112736905Y-72237676D01*
X112736905Y-72237676D02*
X112832143Y-72142438D01*
X112832143Y-72142438D02*
X112927381Y-72094819D01*
X112927381Y-72094819D02*
X113117857Y-72094819D01*
X113117857Y-72094819D02*
X113213095Y-72142438D01*
X113213095Y-72142438D02*
X113308333Y-72237676D01*
X113308333Y-72237676D02*
X113355952Y-72428152D01*
X113355952Y-72428152D02*
X113355952Y-72761485D01*
X113355952Y-72761485D02*
X113308333Y-72951961D01*
X113308333Y-72951961D02*
X113213095Y-73047200D01*
X113213095Y-73047200D02*
X113117857Y-73094819D01*
X113117857Y-73094819D02*
X112927381Y-73094819D01*
X114308333Y-73094819D02*
X113736905Y-73094819D01*
X114022619Y-73094819D02*
X114022619Y-72094819D01*
X114022619Y-72094819D02*
X113927381Y-72237676D01*
X113927381Y-72237676D02*
X113832143Y-72332914D01*
X113832143Y-72332914D02*
X113736905Y-72380533D01*
X115213095Y-72094819D02*
X114736905Y-72094819D01*
X114736905Y-72094819D02*
X114689286Y-72571009D01*
X114689286Y-72571009D02*
X114736905Y-72523390D01*
X114736905Y-72523390D02*
X114832143Y-72475771D01*
X114832143Y-72475771D02*
X115070238Y-72475771D01*
X115070238Y-72475771D02*
X115165476Y-72523390D01*
X115165476Y-72523390D02*
X115213095Y-72571009D01*
X115213095Y-72571009D02*
X115260714Y-72666247D01*
X115260714Y-72666247D02*
X115260714Y-72904342D01*
X115260714Y-72904342D02*
X115213095Y-72999580D01*
X115213095Y-72999580D02*
X115165476Y-73047200D01*
X115165476Y-73047200D02*
X115070238Y-73094819D01*
X115070238Y-73094819D02*
X114832143Y-73094819D01*
X114832143Y-73094819D02*
X114736905Y-73047200D01*
X114736905Y-73047200D02*
X114689286Y-72999580D01*
X69104819Y-52649285D02*
X68104819Y-52649285D01*
X68104819Y-52649285D02*
X68104819Y-52411190D01*
X68104819Y-52411190D02*
X68152438Y-52268333D01*
X68152438Y-52268333D02*
X68247676Y-52173095D01*
X68247676Y-52173095D02*
X68342914Y-52125476D01*
X68342914Y-52125476D02*
X68533390Y-52077857D01*
X68533390Y-52077857D02*
X68676247Y-52077857D01*
X68676247Y-52077857D02*
X68866723Y-52125476D01*
X68866723Y-52125476D02*
X68961961Y-52173095D01*
X68961961Y-52173095D02*
X69057200Y-52268333D01*
X69057200Y-52268333D02*
X69104819Y-52411190D01*
X69104819Y-52411190D02*
X69104819Y-52649285D01*
X69104819Y-51125476D02*
X69104819Y-51696904D01*
X69104819Y-51411190D02*
X68104819Y-51411190D01*
X68104819Y-51411190D02*
X68247676Y-51506428D01*
X68247676Y-51506428D02*
X68342914Y-51601666D01*
X68342914Y-51601666D02*
X68390533Y-51696904D01*
X68200057Y-50744523D02*
X68152438Y-50696904D01*
X68152438Y-50696904D02*
X68104819Y-50601666D01*
X68104819Y-50601666D02*
X68104819Y-50363571D01*
X68104819Y-50363571D02*
X68152438Y-50268333D01*
X68152438Y-50268333D02*
X68200057Y-50220714D01*
X68200057Y-50220714D02*
X68295295Y-50173095D01*
X68295295Y-50173095D02*
X68390533Y-50173095D01*
X68390533Y-50173095D02*
X68533390Y-50220714D01*
X68533390Y-50220714D02*
X69104819Y-50792142D01*
X69104819Y-50792142D02*
X69104819Y-50173095D01*
X68958095Y-55699819D02*
X68958095Y-54699819D01*
X69529523Y-55699819D02*
X69100952Y-55128390D01*
X69529523Y-54699819D02*
X68958095Y-55271247D01*
X67220057Y-66135238D02*
X67172438Y-66230476D01*
X67172438Y-66230476D02*
X67077200Y-66325714D01*
X67077200Y-66325714D02*
X66934342Y-66468571D01*
X66934342Y-66468571D02*
X66886723Y-66563809D01*
X66886723Y-66563809D02*
X66886723Y-66659047D01*
X67124819Y-66611428D02*
X67077200Y-66706666D01*
X67077200Y-66706666D02*
X66981961Y-66801904D01*
X66981961Y-66801904D02*
X66791485Y-66849523D01*
X66791485Y-66849523D02*
X66458152Y-66849523D01*
X66458152Y-66849523D02*
X66267676Y-66801904D01*
X66267676Y-66801904D02*
X66172438Y-66706666D01*
X66172438Y-66706666D02*
X66124819Y-66611428D01*
X66124819Y-66611428D02*
X66124819Y-66420952D01*
X66124819Y-66420952D02*
X66172438Y-66325714D01*
X66172438Y-66325714D02*
X66267676Y-66230476D01*
X66267676Y-66230476D02*
X66458152Y-66182857D01*
X66458152Y-66182857D02*
X66791485Y-66182857D01*
X66791485Y-66182857D02*
X66981961Y-66230476D01*
X66981961Y-66230476D02*
X67077200Y-66325714D01*
X67077200Y-66325714D02*
X67124819Y-66420952D01*
X67124819Y-66420952D02*
X67124819Y-66611428D01*
X67124819Y-65230476D02*
X67124819Y-65801904D01*
X67124819Y-65516190D02*
X66124819Y-65516190D01*
X66124819Y-65516190D02*
X66267676Y-65611428D01*
X66267676Y-65611428D02*
X66362914Y-65706666D01*
X66362914Y-65706666D02*
X66410533Y-65801904D01*
X97336731Y-79410743D02*
X96860540Y-79744076D01*
X97336731Y-79982171D02*
X96336731Y-79982171D01*
X96336731Y-79982171D02*
X96336731Y-79601219D01*
X96336731Y-79601219D02*
X96384350Y-79505981D01*
X96384350Y-79505981D02*
X96431969Y-79458362D01*
X96431969Y-79458362D02*
X96527207Y-79410743D01*
X96527207Y-79410743D02*
X96670064Y-79410743D01*
X96670064Y-79410743D02*
X96765302Y-79458362D01*
X96765302Y-79458362D02*
X96812921Y-79505981D01*
X96812921Y-79505981D02*
X96860540Y-79601219D01*
X96860540Y-79601219D02*
X96860540Y-79982171D01*
X97336731Y-78458362D02*
X97336731Y-79029790D01*
X97336731Y-78744076D02*
X96336731Y-78744076D01*
X96336731Y-78744076D02*
X96479588Y-78839314D01*
X96479588Y-78839314D02*
X96574826Y-78934552D01*
X96574826Y-78934552D02*
X96622445Y-79029790D01*
X96336731Y-77553600D02*
X96336731Y-78029790D01*
X96336731Y-78029790D02*
X96812921Y-78077409D01*
X96812921Y-78077409D02*
X96765302Y-78029790D01*
X96765302Y-78029790D02*
X96717683Y-77934552D01*
X96717683Y-77934552D02*
X96717683Y-77696457D01*
X96717683Y-77696457D02*
X96765302Y-77601219D01*
X96765302Y-77601219D02*
X96812921Y-77553600D01*
X96812921Y-77553600D02*
X96908159Y-77505981D01*
X96908159Y-77505981D02*
X97146254Y-77505981D01*
X97146254Y-77505981D02*
X97241492Y-77553600D01*
X97241492Y-77553600D02*
X97289112Y-77601219D01*
X97289112Y-77601219D02*
X97336731Y-77696457D01*
X97336731Y-77696457D02*
X97336731Y-77934552D01*
X97336731Y-77934552D02*
X97289112Y-78029790D01*
X97289112Y-78029790D02*
X97241492Y-78077409D01*
X73564761Y-72940057D02*
X73469523Y-72892438D01*
X73469523Y-72892438D02*
X73374285Y-72797200D01*
X73374285Y-72797200D02*
X73231428Y-72654342D01*
X73231428Y-72654342D02*
X73136190Y-72606723D01*
X73136190Y-72606723D02*
X73040952Y-72606723D01*
X73088571Y-72844819D02*
X72993333Y-72797200D01*
X72993333Y-72797200D02*
X72898095Y-72701961D01*
X72898095Y-72701961D02*
X72850476Y-72511485D01*
X72850476Y-72511485D02*
X72850476Y-72178152D01*
X72850476Y-72178152D02*
X72898095Y-71987676D01*
X72898095Y-71987676D02*
X72993333Y-71892438D01*
X72993333Y-71892438D02*
X73088571Y-71844819D01*
X73088571Y-71844819D02*
X73279047Y-71844819D01*
X73279047Y-71844819D02*
X73374285Y-71892438D01*
X73374285Y-71892438D02*
X73469523Y-71987676D01*
X73469523Y-71987676D02*
X73517142Y-72178152D01*
X73517142Y-72178152D02*
X73517142Y-72511485D01*
X73517142Y-72511485D02*
X73469523Y-72701961D01*
X73469523Y-72701961D02*
X73374285Y-72797200D01*
X73374285Y-72797200D02*
X73279047Y-72844819D01*
X73279047Y-72844819D02*
X73088571Y-72844819D01*
X73898095Y-71940057D02*
X73945714Y-71892438D01*
X73945714Y-71892438D02*
X74040952Y-71844819D01*
X74040952Y-71844819D02*
X74279047Y-71844819D01*
X74279047Y-71844819D02*
X74374285Y-71892438D01*
X74374285Y-71892438D02*
X74421904Y-71940057D01*
X74421904Y-71940057D02*
X74469523Y-72035295D01*
X74469523Y-72035295D02*
X74469523Y-72130533D01*
X74469523Y-72130533D02*
X74421904Y-72273390D01*
X74421904Y-72273390D02*
X73850476Y-72844819D01*
X73850476Y-72844819D02*
X74469523Y-72844819D01*
X71934329Y-79993817D02*
X71458138Y-80327150D01*
X71934329Y-80565245D02*
X70934329Y-80565245D01*
X70934329Y-80565245D02*
X70934329Y-80184293D01*
X70934329Y-80184293D02*
X70981948Y-80089055D01*
X70981948Y-80089055D02*
X71029567Y-80041436D01*
X71029567Y-80041436D02*
X71124805Y-79993817D01*
X71124805Y-79993817D02*
X71267662Y-79993817D01*
X71267662Y-79993817D02*
X71362900Y-80041436D01*
X71362900Y-80041436D02*
X71410519Y-80089055D01*
X71410519Y-80089055D02*
X71458138Y-80184293D01*
X71458138Y-80184293D02*
X71458138Y-80565245D01*
X71934329Y-79041436D02*
X71934329Y-79612864D01*
X71934329Y-79327150D02*
X70934329Y-79327150D01*
X70934329Y-79327150D02*
X71077186Y-79422388D01*
X71077186Y-79422388D02*
X71172424Y-79517626D01*
X71172424Y-79517626D02*
X71220043Y-79612864D01*
X71934329Y-78089055D02*
X71934329Y-78660483D01*
X71934329Y-78374769D02*
X70934329Y-78374769D01*
X70934329Y-78374769D02*
X71077186Y-78470007D01*
X71077186Y-78470007D02*
X71172424Y-78565245D01*
X71172424Y-78565245D02*
X71220043Y-78660483D01*
X109984082Y-79342472D02*
X109507891Y-79675805D01*
X109984082Y-79913900D02*
X108984082Y-79913900D01*
X108984082Y-79913900D02*
X108984082Y-79532948D01*
X108984082Y-79532948D02*
X109031701Y-79437710D01*
X109031701Y-79437710D02*
X109079320Y-79390091D01*
X109079320Y-79390091D02*
X109174558Y-79342472D01*
X109174558Y-79342472D02*
X109317415Y-79342472D01*
X109317415Y-79342472D02*
X109412653Y-79390091D01*
X109412653Y-79390091D02*
X109460272Y-79437710D01*
X109460272Y-79437710D02*
X109507891Y-79532948D01*
X109507891Y-79532948D02*
X109507891Y-79913900D01*
X109984082Y-78390091D02*
X109984082Y-78961519D01*
X109984082Y-78675805D02*
X108984082Y-78675805D01*
X108984082Y-78675805D02*
X109126939Y-78771043D01*
X109126939Y-78771043D02*
X109222177Y-78866281D01*
X109222177Y-78866281D02*
X109269796Y-78961519D01*
X108984082Y-78056757D02*
X108984082Y-77390091D01*
X108984082Y-77390091D02*
X109984082Y-77818662D01*
X74731666Y-97879819D02*
X74731666Y-98594104D01*
X74731666Y-98594104D02*
X74684047Y-98736961D01*
X74684047Y-98736961D02*
X74588809Y-98832200D01*
X74588809Y-98832200D02*
X74445952Y-98879819D01*
X74445952Y-98879819D02*
X74350714Y-98879819D01*
X75207857Y-98879819D02*
X75207857Y-97879819D01*
X75207857Y-97879819D02*
X75588809Y-97879819D01*
X75588809Y-97879819D02*
X75684047Y-97927438D01*
X75684047Y-97927438D02*
X75731666Y-97975057D01*
X75731666Y-97975057D02*
X75779285Y-98070295D01*
X75779285Y-98070295D02*
X75779285Y-98213152D01*
X75779285Y-98213152D02*
X75731666Y-98308390D01*
X75731666Y-98308390D02*
X75684047Y-98356009D01*
X75684047Y-98356009D02*
X75588809Y-98403628D01*
X75588809Y-98403628D02*
X75207857Y-98403628D01*
X76684047Y-97879819D02*
X76207857Y-97879819D01*
X76207857Y-97879819D02*
X76160238Y-98356009D01*
X76160238Y-98356009D02*
X76207857Y-98308390D01*
X76207857Y-98308390D02*
X76303095Y-98260771D01*
X76303095Y-98260771D02*
X76541190Y-98260771D01*
X76541190Y-98260771D02*
X76636428Y-98308390D01*
X76636428Y-98308390D02*
X76684047Y-98356009D01*
X76684047Y-98356009D02*
X76731666Y-98451247D01*
X76731666Y-98451247D02*
X76731666Y-98689342D01*
X76731666Y-98689342D02*
X76684047Y-98784580D01*
X76684047Y-98784580D02*
X76636428Y-98832200D01*
X76636428Y-98832200D02*
X76541190Y-98879819D01*
X76541190Y-98879819D02*
X76303095Y-98879819D01*
X76303095Y-98879819D02*
X76207857Y-98832200D01*
X76207857Y-98832200D02*
X76160238Y-98784580D01*
X109751905Y-132534819D02*
X109751905Y-131534819D01*
X109751905Y-131534819D02*
X109990000Y-131534819D01*
X109990000Y-131534819D02*
X110132857Y-131582438D01*
X110132857Y-131582438D02*
X110228095Y-131677676D01*
X110228095Y-131677676D02*
X110275714Y-131772914D01*
X110275714Y-131772914D02*
X110323333Y-131963390D01*
X110323333Y-131963390D02*
X110323333Y-132106247D01*
X110323333Y-132106247D02*
X110275714Y-132296723D01*
X110275714Y-132296723D02*
X110228095Y-132391961D01*
X110228095Y-132391961D02*
X110132857Y-132487200D01*
X110132857Y-132487200D02*
X109990000Y-132534819D01*
X109990000Y-132534819D02*
X109751905Y-132534819D01*
X111180476Y-131534819D02*
X110990000Y-131534819D01*
X110990000Y-131534819D02*
X110894762Y-131582438D01*
X110894762Y-131582438D02*
X110847143Y-131630057D01*
X110847143Y-131630057D02*
X110751905Y-131772914D01*
X110751905Y-131772914D02*
X110704286Y-131963390D01*
X110704286Y-131963390D02*
X110704286Y-132344342D01*
X110704286Y-132344342D02*
X110751905Y-132439580D01*
X110751905Y-132439580D02*
X110799524Y-132487200D01*
X110799524Y-132487200D02*
X110894762Y-132534819D01*
X110894762Y-132534819D02*
X111085238Y-132534819D01*
X111085238Y-132534819D02*
X111180476Y-132487200D01*
X111180476Y-132487200D02*
X111228095Y-132439580D01*
X111228095Y-132439580D02*
X111275714Y-132344342D01*
X111275714Y-132344342D02*
X111275714Y-132106247D01*
X111275714Y-132106247D02*
X111228095Y-132011009D01*
X111228095Y-132011009D02*
X111180476Y-131963390D01*
X111180476Y-131963390D02*
X111085238Y-131915771D01*
X111085238Y-131915771D02*
X110894762Y-131915771D01*
X110894762Y-131915771D02*
X110799524Y-131963390D01*
X110799524Y-131963390D02*
X110751905Y-132011009D01*
X110751905Y-132011009D02*
X110704286Y-132106247D01*
X114673095Y-134434819D02*
X114673095Y-133434819D01*
X115244523Y-134434819D02*
X114815952Y-133863390D01*
X115244523Y-133434819D02*
X114673095Y-134006247D01*
X94093821Y-78917484D02*
X93617630Y-79250817D01*
X94093821Y-79488912D02*
X93093821Y-79488912D01*
X93093821Y-79488912D02*
X93093821Y-79107960D01*
X93093821Y-79107960D02*
X93141440Y-79012722D01*
X93141440Y-79012722D02*
X93189059Y-78965103D01*
X93189059Y-78965103D02*
X93284297Y-78917484D01*
X93284297Y-78917484D02*
X93427154Y-78917484D01*
X93427154Y-78917484D02*
X93522392Y-78965103D01*
X93522392Y-78965103D02*
X93570011Y-79012722D01*
X93570011Y-79012722D02*
X93617630Y-79107960D01*
X93617630Y-79107960D02*
X93617630Y-79488912D01*
X93093821Y-78060341D02*
X93093821Y-78250817D01*
X93093821Y-78250817D02*
X93141440Y-78346055D01*
X93141440Y-78346055D02*
X93189059Y-78393674D01*
X93189059Y-78393674D02*
X93331916Y-78488912D01*
X93331916Y-78488912D02*
X93522392Y-78536531D01*
X93522392Y-78536531D02*
X93903344Y-78536531D01*
X93903344Y-78536531D02*
X93998582Y-78488912D01*
X93998582Y-78488912D02*
X94046202Y-78441293D01*
X94046202Y-78441293D02*
X94093821Y-78346055D01*
X94093821Y-78346055D02*
X94093821Y-78155579D01*
X94093821Y-78155579D02*
X94046202Y-78060341D01*
X94046202Y-78060341D02*
X93998582Y-78012722D01*
X93998582Y-78012722D02*
X93903344Y-77965103D01*
X93903344Y-77965103D02*
X93665249Y-77965103D01*
X93665249Y-77965103D02*
X93570011Y-78012722D01*
X93570011Y-78012722D02*
X93522392Y-78060341D01*
X93522392Y-78060341D02*
X93474773Y-78155579D01*
X93474773Y-78155579D02*
X93474773Y-78346055D01*
X93474773Y-78346055D02*
X93522392Y-78441293D01*
X93522392Y-78441293D02*
X93570011Y-78488912D01*
X93570011Y-78488912D02*
X93665249Y-78536531D01*
X96512142Y-93164819D02*
X96178809Y-92688628D01*
X95940714Y-93164819D02*
X95940714Y-92164819D01*
X95940714Y-92164819D02*
X96321666Y-92164819D01*
X96321666Y-92164819D02*
X96416904Y-92212438D01*
X96416904Y-92212438D02*
X96464523Y-92260057D01*
X96464523Y-92260057D02*
X96512142Y-92355295D01*
X96512142Y-92355295D02*
X96512142Y-92498152D01*
X96512142Y-92498152D02*
X96464523Y-92593390D01*
X96464523Y-92593390D02*
X96416904Y-92641009D01*
X96416904Y-92641009D02*
X96321666Y-92688628D01*
X96321666Y-92688628D02*
X95940714Y-92688628D01*
X97464523Y-93164819D02*
X96893095Y-93164819D01*
X97178809Y-93164819D02*
X97178809Y-92164819D01*
X97178809Y-92164819D02*
X97083571Y-92307676D01*
X97083571Y-92307676D02*
X96988333Y-92402914D01*
X96988333Y-92402914D02*
X96893095Y-92450533D01*
X98321666Y-92164819D02*
X98131190Y-92164819D01*
X98131190Y-92164819D02*
X98035952Y-92212438D01*
X98035952Y-92212438D02*
X97988333Y-92260057D01*
X97988333Y-92260057D02*
X97893095Y-92402914D01*
X97893095Y-92402914D02*
X97845476Y-92593390D01*
X97845476Y-92593390D02*
X97845476Y-92974342D01*
X97845476Y-92974342D02*
X97893095Y-93069580D01*
X97893095Y-93069580D02*
X97940714Y-93117200D01*
X97940714Y-93117200D02*
X98035952Y-93164819D01*
X98035952Y-93164819D02*
X98226428Y-93164819D01*
X98226428Y-93164819D02*
X98321666Y-93117200D01*
X98321666Y-93117200D02*
X98369285Y-93069580D01*
X98369285Y-93069580D02*
X98416904Y-92974342D01*
X98416904Y-92974342D02*
X98416904Y-92736247D01*
X98416904Y-92736247D02*
X98369285Y-92641009D01*
X98369285Y-92641009D02*
X98321666Y-92593390D01*
X98321666Y-92593390D02*
X98226428Y-92545771D01*
X98226428Y-92545771D02*
X98035952Y-92545771D01*
X98035952Y-92545771D02*
X97940714Y-92593390D01*
X97940714Y-92593390D02*
X97893095Y-92641009D01*
X97893095Y-92641009D02*
X97845476Y-92736247D01*
X108231376Y-50016067D02*
X108945661Y-50016067D01*
X108945661Y-50016067D02*
X109088518Y-50063686D01*
X109088518Y-50063686D02*
X109183757Y-50158924D01*
X109183757Y-50158924D02*
X109231376Y-50301781D01*
X109231376Y-50301781D02*
X109231376Y-50397019D01*
X109231376Y-49539876D02*
X108231376Y-49539876D01*
X108231376Y-49539876D02*
X108231376Y-49158924D01*
X108231376Y-49158924D02*
X108278995Y-49063686D01*
X108278995Y-49063686D02*
X108326614Y-49016067D01*
X108326614Y-49016067D02*
X108421852Y-48968448D01*
X108421852Y-48968448D02*
X108564709Y-48968448D01*
X108564709Y-48968448D02*
X108659947Y-49016067D01*
X108659947Y-49016067D02*
X108707566Y-49063686D01*
X108707566Y-49063686D02*
X108755185Y-49158924D01*
X108755185Y-49158924D02*
X108755185Y-49539876D01*
X108564709Y-48111305D02*
X109231376Y-48111305D01*
X108183757Y-48349400D02*
X108898042Y-48587495D01*
X108898042Y-48587495D02*
X108898042Y-47968448D01*
X71112142Y-93164819D02*
X70778809Y-92688628D01*
X70540714Y-93164819D02*
X70540714Y-92164819D01*
X70540714Y-92164819D02*
X70921666Y-92164819D01*
X70921666Y-92164819D02*
X71016904Y-92212438D01*
X71016904Y-92212438D02*
X71064523Y-92260057D01*
X71064523Y-92260057D02*
X71112142Y-92355295D01*
X71112142Y-92355295D02*
X71112142Y-92498152D01*
X71112142Y-92498152D02*
X71064523Y-92593390D01*
X71064523Y-92593390D02*
X71016904Y-92641009D01*
X71016904Y-92641009D02*
X70921666Y-92688628D01*
X70921666Y-92688628D02*
X70540714Y-92688628D01*
X72064523Y-93164819D02*
X71493095Y-93164819D01*
X71778809Y-93164819D02*
X71778809Y-92164819D01*
X71778809Y-92164819D02*
X71683571Y-92307676D01*
X71683571Y-92307676D02*
X71588333Y-92402914D01*
X71588333Y-92402914D02*
X71493095Y-92450533D01*
X72445476Y-92260057D02*
X72493095Y-92212438D01*
X72493095Y-92212438D02*
X72588333Y-92164819D01*
X72588333Y-92164819D02*
X72826428Y-92164819D01*
X72826428Y-92164819D02*
X72921666Y-92212438D01*
X72921666Y-92212438D02*
X72969285Y-92260057D01*
X72969285Y-92260057D02*
X73016904Y-92355295D01*
X73016904Y-92355295D02*
X73016904Y-92450533D01*
X73016904Y-92450533D02*
X72969285Y-92593390D01*
X72969285Y-92593390D02*
X72397857Y-93164819D01*
X72397857Y-93164819D02*
X73016904Y-93164819D01*
X113754819Y-124793333D02*
X114469104Y-124793333D01*
X114469104Y-124793333D02*
X114611961Y-124840952D01*
X114611961Y-124840952D02*
X114707200Y-124936190D01*
X114707200Y-124936190D02*
X114754819Y-125079047D01*
X114754819Y-125079047D02*
X114754819Y-125174285D01*
X114754819Y-123793333D02*
X114754819Y-124364761D01*
X114754819Y-124079047D02*
X113754819Y-124079047D01*
X113754819Y-124079047D02*
X113897676Y-124174285D01*
X113897676Y-124174285D02*
X113992914Y-124269523D01*
X113992914Y-124269523D02*
X114040533Y-124364761D01*
X100703571Y-73190057D02*
X100608333Y-73142438D01*
X100608333Y-73142438D02*
X100513095Y-73047200D01*
X100513095Y-73047200D02*
X100370238Y-72904342D01*
X100370238Y-72904342D02*
X100275000Y-72856723D01*
X100275000Y-72856723D02*
X100179762Y-72856723D01*
X100227381Y-73094819D02*
X100132143Y-73047200D01*
X100132143Y-73047200D02*
X100036905Y-72951961D01*
X100036905Y-72951961D02*
X99989286Y-72761485D01*
X99989286Y-72761485D02*
X99989286Y-72428152D01*
X99989286Y-72428152D02*
X100036905Y-72237676D01*
X100036905Y-72237676D02*
X100132143Y-72142438D01*
X100132143Y-72142438D02*
X100227381Y-72094819D01*
X100227381Y-72094819D02*
X100417857Y-72094819D01*
X100417857Y-72094819D02*
X100513095Y-72142438D01*
X100513095Y-72142438D02*
X100608333Y-72237676D01*
X100608333Y-72237676D02*
X100655952Y-72428152D01*
X100655952Y-72428152D02*
X100655952Y-72761485D01*
X100655952Y-72761485D02*
X100608333Y-72951961D01*
X100608333Y-72951961D02*
X100513095Y-73047200D01*
X100513095Y-73047200D02*
X100417857Y-73094819D01*
X100417857Y-73094819D02*
X100227381Y-73094819D01*
X101608333Y-73094819D02*
X101036905Y-73094819D01*
X101322619Y-73094819D02*
X101322619Y-72094819D01*
X101322619Y-72094819D02*
X101227381Y-72237676D01*
X101227381Y-72237676D02*
X101132143Y-72332914D01*
X101132143Y-72332914D02*
X101036905Y-72380533D01*
X101941667Y-72094819D02*
X102560714Y-72094819D01*
X102560714Y-72094819D02*
X102227381Y-72475771D01*
X102227381Y-72475771D02*
X102370238Y-72475771D01*
X102370238Y-72475771D02*
X102465476Y-72523390D01*
X102465476Y-72523390D02*
X102513095Y-72571009D01*
X102513095Y-72571009D02*
X102560714Y-72666247D01*
X102560714Y-72666247D02*
X102560714Y-72904342D01*
X102560714Y-72904342D02*
X102513095Y-72999580D01*
X102513095Y-72999580D02*
X102465476Y-73047200D01*
X102465476Y-73047200D02*
X102370238Y-73094819D01*
X102370238Y-73094819D02*
X102084524Y-73094819D01*
X102084524Y-73094819D02*
X101989286Y-73047200D01*
X101989286Y-73047200D02*
X101941667Y-72999580D01*
X111109819Y-101783333D02*
X111824104Y-101783333D01*
X111824104Y-101783333D02*
X111966961Y-101830952D01*
X111966961Y-101830952D02*
X112062200Y-101926190D01*
X112062200Y-101926190D02*
X112109819Y-102069047D01*
X112109819Y-102069047D02*
X112109819Y-102164285D01*
X112109819Y-101307142D02*
X111109819Y-101307142D01*
X111109819Y-101307142D02*
X111109819Y-100926190D01*
X111109819Y-100926190D02*
X111157438Y-100830952D01*
X111157438Y-100830952D02*
X111205057Y-100783333D01*
X111205057Y-100783333D02*
X111300295Y-100735714D01*
X111300295Y-100735714D02*
X111443152Y-100735714D01*
X111443152Y-100735714D02*
X111538390Y-100783333D01*
X111538390Y-100783333D02*
X111586009Y-100830952D01*
X111586009Y-100830952D02*
X111633628Y-100926190D01*
X111633628Y-100926190D02*
X111633628Y-101307142D01*
X111538390Y-100164285D02*
X111490771Y-100259523D01*
X111490771Y-100259523D02*
X111443152Y-100307142D01*
X111443152Y-100307142D02*
X111347914Y-100354761D01*
X111347914Y-100354761D02*
X111300295Y-100354761D01*
X111300295Y-100354761D02*
X111205057Y-100307142D01*
X111205057Y-100307142D02*
X111157438Y-100259523D01*
X111157438Y-100259523D02*
X111109819Y-100164285D01*
X111109819Y-100164285D02*
X111109819Y-99973809D01*
X111109819Y-99973809D02*
X111157438Y-99878571D01*
X111157438Y-99878571D02*
X111205057Y-99830952D01*
X111205057Y-99830952D02*
X111300295Y-99783333D01*
X111300295Y-99783333D02*
X111347914Y-99783333D01*
X111347914Y-99783333D02*
X111443152Y-99830952D01*
X111443152Y-99830952D02*
X111490771Y-99878571D01*
X111490771Y-99878571D02*
X111538390Y-99973809D01*
X111538390Y-99973809D02*
X111538390Y-100164285D01*
X111538390Y-100164285D02*
X111586009Y-100259523D01*
X111586009Y-100259523D02*
X111633628Y-100307142D01*
X111633628Y-100307142D02*
X111728866Y-100354761D01*
X111728866Y-100354761D02*
X111919342Y-100354761D01*
X111919342Y-100354761D02*
X112014580Y-100307142D01*
X112014580Y-100307142D02*
X112062200Y-100259523D01*
X112062200Y-100259523D02*
X112109819Y-100164285D01*
X112109819Y-100164285D02*
X112109819Y-99973809D01*
X112109819Y-99973809D02*
X112062200Y-99878571D01*
X112062200Y-99878571D02*
X112014580Y-99830952D01*
X112014580Y-99830952D02*
X111919342Y-99783333D01*
X111919342Y-99783333D02*
X111728866Y-99783333D01*
X111728866Y-99783333D02*
X111633628Y-99830952D01*
X111633628Y-99830952D02*
X111586009Y-99878571D01*
X111586009Y-99878571D02*
X111538390Y-99973809D01*
X75019819Y-124586904D02*
X75829342Y-124586904D01*
X75829342Y-124586904D02*
X75924580Y-124539285D01*
X75924580Y-124539285D02*
X75972200Y-124491666D01*
X75972200Y-124491666D02*
X76019819Y-124396428D01*
X76019819Y-124396428D02*
X76019819Y-124205952D01*
X76019819Y-124205952D02*
X75972200Y-124110714D01*
X75972200Y-124110714D02*
X75924580Y-124063095D01*
X75924580Y-124063095D02*
X75829342Y-124015476D01*
X75829342Y-124015476D02*
X75019819Y-124015476D01*
X75115057Y-123586904D02*
X75067438Y-123539285D01*
X75067438Y-123539285D02*
X75019819Y-123444047D01*
X75019819Y-123444047D02*
X75019819Y-123205952D01*
X75019819Y-123205952D02*
X75067438Y-123110714D01*
X75067438Y-123110714D02*
X75115057Y-123063095D01*
X75115057Y-123063095D02*
X75210295Y-123015476D01*
X75210295Y-123015476D02*
X75305533Y-123015476D01*
X75305533Y-123015476D02*
X75448390Y-123063095D01*
X75448390Y-123063095D02*
X76019819Y-123634523D01*
X76019819Y-123634523D02*
X76019819Y-123015476D01*
X78573333Y-100689580D02*
X78525714Y-100737200D01*
X78525714Y-100737200D02*
X78382857Y-100784819D01*
X78382857Y-100784819D02*
X78287619Y-100784819D01*
X78287619Y-100784819D02*
X78144762Y-100737200D01*
X78144762Y-100737200D02*
X78049524Y-100641961D01*
X78049524Y-100641961D02*
X78001905Y-100546723D01*
X78001905Y-100546723D02*
X77954286Y-100356247D01*
X77954286Y-100356247D02*
X77954286Y-100213390D01*
X77954286Y-100213390D02*
X78001905Y-100022914D01*
X78001905Y-100022914D02*
X78049524Y-99927676D01*
X78049524Y-99927676D02*
X78144762Y-99832438D01*
X78144762Y-99832438D02*
X78287619Y-99784819D01*
X78287619Y-99784819D02*
X78382857Y-99784819D01*
X78382857Y-99784819D02*
X78525714Y-99832438D01*
X78525714Y-99832438D02*
X78573333Y-99880057D01*
X79049524Y-100784819D02*
X79240000Y-100784819D01*
X79240000Y-100784819D02*
X79335238Y-100737200D01*
X79335238Y-100737200D02*
X79382857Y-100689580D01*
X79382857Y-100689580D02*
X79478095Y-100546723D01*
X79478095Y-100546723D02*
X79525714Y-100356247D01*
X79525714Y-100356247D02*
X79525714Y-99975295D01*
X79525714Y-99975295D02*
X79478095Y-99880057D01*
X79478095Y-99880057D02*
X79430476Y-99832438D01*
X79430476Y-99832438D02*
X79335238Y-99784819D01*
X79335238Y-99784819D02*
X79144762Y-99784819D01*
X79144762Y-99784819D02*
X79049524Y-99832438D01*
X79049524Y-99832438D02*
X79001905Y-99880057D01*
X79001905Y-99880057D02*
X78954286Y-99975295D01*
X78954286Y-99975295D02*
X78954286Y-100213390D01*
X78954286Y-100213390D02*
X79001905Y-100308628D01*
X79001905Y-100308628D02*
X79049524Y-100356247D01*
X79049524Y-100356247D02*
X79144762Y-100403866D01*
X79144762Y-100403866D02*
X79335238Y-100403866D01*
X79335238Y-100403866D02*
X79430476Y-100356247D01*
X79430476Y-100356247D02*
X79478095Y-100308628D01*
X79478095Y-100308628D02*
X79525714Y-100213390D01*
X96988333Y-88084819D02*
X96655000Y-87608628D01*
X96416905Y-88084819D02*
X96416905Y-87084819D01*
X96416905Y-87084819D02*
X96797857Y-87084819D01*
X96797857Y-87084819D02*
X96893095Y-87132438D01*
X96893095Y-87132438D02*
X96940714Y-87180057D01*
X96940714Y-87180057D02*
X96988333Y-87275295D01*
X96988333Y-87275295D02*
X96988333Y-87418152D01*
X96988333Y-87418152D02*
X96940714Y-87513390D01*
X96940714Y-87513390D02*
X96893095Y-87561009D01*
X96893095Y-87561009D02*
X96797857Y-87608628D01*
X96797857Y-87608628D02*
X96416905Y-87608628D01*
X97464524Y-88084819D02*
X97655000Y-88084819D01*
X97655000Y-88084819D02*
X97750238Y-88037200D01*
X97750238Y-88037200D02*
X97797857Y-87989580D01*
X97797857Y-87989580D02*
X97893095Y-87846723D01*
X97893095Y-87846723D02*
X97940714Y-87656247D01*
X97940714Y-87656247D02*
X97940714Y-87275295D01*
X97940714Y-87275295D02*
X97893095Y-87180057D01*
X97893095Y-87180057D02*
X97845476Y-87132438D01*
X97845476Y-87132438D02*
X97750238Y-87084819D01*
X97750238Y-87084819D02*
X97559762Y-87084819D01*
X97559762Y-87084819D02*
X97464524Y-87132438D01*
X97464524Y-87132438D02*
X97416905Y-87180057D01*
X97416905Y-87180057D02*
X97369286Y-87275295D01*
X97369286Y-87275295D02*
X97369286Y-87513390D01*
X97369286Y-87513390D02*
X97416905Y-87608628D01*
X97416905Y-87608628D02*
X97464524Y-87656247D01*
X97464524Y-87656247D02*
X97559762Y-87703866D01*
X97559762Y-87703866D02*
X97750238Y-87703866D01*
X97750238Y-87703866D02*
X97845476Y-87656247D01*
X97845476Y-87656247D02*
X97893095Y-87608628D01*
X97893095Y-87608628D02*
X97940714Y-87513390D01*
X77801359Y-132715377D02*
X77801359Y-133429662D01*
X77801359Y-133429662D02*
X77753740Y-133572519D01*
X77753740Y-133572519D02*
X77658502Y-133667758D01*
X77658502Y-133667758D02*
X77515645Y-133715377D01*
X77515645Y-133715377D02*
X77420407Y-133715377D01*
X78706121Y-133048710D02*
X78706121Y-133715377D01*
X78468026Y-132667758D02*
X78229931Y-133382043D01*
X78229931Y-133382043D02*
X78848978Y-133382043D01*
X67143333Y-100689580D02*
X67095714Y-100737200D01*
X67095714Y-100737200D02*
X66952857Y-100784819D01*
X66952857Y-100784819D02*
X66857619Y-100784819D01*
X66857619Y-100784819D02*
X66714762Y-100737200D01*
X66714762Y-100737200D02*
X66619524Y-100641961D01*
X66619524Y-100641961D02*
X66571905Y-100546723D01*
X66571905Y-100546723D02*
X66524286Y-100356247D01*
X66524286Y-100356247D02*
X66524286Y-100213390D01*
X66524286Y-100213390D02*
X66571905Y-100022914D01*
X66571905Y-100022914D02*
X66619524Y-99927676D01*
X66619524Y-99927676D02*
X66714762Y-99832438D01*
X66714762Y-99832438D02*
X66857619Y-99784819D01*
X66857619Y-99784819D02*
X66952857Y-99784819D01*
X66952857Y-99784819D02*
X67095714Y-99832438D01*
X67095714Y-99832438D02*
X67143333Y-99880057D01*
X67714762Y-100213390D02*
X67619524Y-100165771D01*
X67619524Y-100165771D02*
X67571905Y-100118152D01*
X67571905Y-100118152D02*
X67524286Y-100022914D01*
X67524286Y-100022914D02*
X67524286Y-99975295D01*
X67524286Y-99975295D02*
X67571905Y-99880057D01*
X67571905Y-99880057D02*
X67619524Y-99832438D01*
X67619524Y-99832438D02*
X67714762Y-99784819D01*
X67714762Y-99784819D02*
X67905238Y-99784819D01*
X67905238Y-99784819D02*
X68000476Y-99832438D01*
X68000476Y-99832438D02*
X68048095Y-99880057D01*
X68048095Y-99880057D02*
X68095714Y-99975295D01*
X68095714Y-99975295D02*
X68095714Y-100022914D01*
X68095714Y-100022914D02*
X68048095Y-100118152D01*
X68048095Y-100118152D02*
X68000476Y-100165771D01*
X68000476Y-100165771D02*
X67905238Y-100213390D01*
X67905238Y-100213390D02*
X67714762Y-100213390D01*
X67714762Y-100213390D02*
X67619524Y-100261009D01*
X67619524Y-100261009D02*
X67571905Y-100308628D01*
X67571905Y-100308628D02*
X67524286Y-100403866D01*
X67524286Y-100403866D02*
X67524286Y-100594342D01*
X67524286Y-100594342D02*
X67571905Y-100689580D01*
X67571905Y-100689580D02*
X67619524Y-100737200D01*
X67619524Y-100737200D02*
X67714762Y-100784819D01*
X67714762Y-100784819D02*
X67905238Y-100784819D01*
X67905238Y-100784819D02*
X68000476Y-100737200D01*
X68000476Y-100737200D02*
X68048095Y-100689580D01*
X68048095Y-100689580D02*
X68095714Y-100594342D01*
X68095714Y-100594342D02*
X68095714Y-100403866D01*
X68095714Y-100403866D02*
X68048095Y-100308628D01*
X68048095Y-100308628D02*
X68000476Y-100261009D01*
X68000476Y-100261009D02*
X67905238Y-100213390D01*
X83671336Y-129619658D02*
X83623717Y-129667278D01*
X83623717Y-129667278D02*
X83480860Y-129714897D01*
X83480860Y-129714897D02*
X83385622Y-129714897D01*
X83385622Y-129714897D02*
X83242765Y-129667278D01*
X83242765Y-129667278D02*
X83147527Y-129572039D01*
X83147527Y-129572039D02*
X83099908Y-129476801D01*
X83099908Y-129476801D02*
X83052289Y-129286325D01*
X83052289Y-129286325D02*
X83052289Y-129143468D01*
X83052289Y-129143468D02*
X83099908Y-128952992D01*
X83099908Y-128952992D02*
X83147527Y-128857754D01*
X83147527Y-128857754D02*
X83242765Y-128762516D01*
X83242765Y-128762516D02*
X83385622Y-128714897D01*
X83385622Y-128714897D02*
X83480860Y-128714897D01*
X83480860Y-128714897D02*
X83623717Y-128762516D01*
X83623717Y-128762516D02*
X83671336Y-128810135D01*
X84623717Y-129714897D02*
X84052289Y-129714897D01*
X84338003Y-129714897D02*
X84338003Y-128714897D01*
X84338003Y-128714897D02*
X84242765Y-128857754D01*
X84242765Y-128857754D02*
X84147527Y-128952992D01*
X84147527Y-128952992D02*
X84052289Y-129000611D01*
X85480860Y-129048230D02*
X85480860Y-129714897D01*
X85242765Y-128667278D02*
X85004670Y-129381563D01*
X85004670Y-129381563D02*
X85623717Y-129381563D01*
X101212046Y-100452665D02*
X101164427Y-100500285D01*
X101164427Y-100500285D02*
X101021570Y-100547904D01*
X101021570Y-100547904D02*
X100926332Y-100547904D01*
X100926332Y-100547904D02*
X100783475Y-100500285D01*
X100783475Y-100500285D02*
X100688237Y-100405046D01*
X100688237Y-100405046D02*
X100640618Y-100309808D01*
X100640618Y-100309808D02*
X100592999Y-100119332D01*
X100592999Y-100119332D02*
X100592999Y-99976475D01*
X100592999Y-99976475D02*
X100640618Y-99785999D01*
X100640618Y-99785999D02*
X100688237Y-99690761D01*
X100688237Y-99690761D02*
X100783475Y-99595523D01*
X100783475Y-99595523D02*
X100926332Y-99547904D01*
X100926332Y-99547904D02*
X101021570Y-99547904D01*
X101021570Y-99547904D02*
X101164427Y-99595523D01*
X101164427Y-99595523D02*
X101212046Y-99643142D01*
X102164427Y-100547904D02*
X101592999Y-100547904D01*
X101878713Y-100547904D02*
X101878713Y-99547904D01*
X101878713Y-99547904D02*
X101783475Y-99690761D01*
X101783475Y-99690761D02*
X101688237Y-99785999D01*
X101688237Y-99785999D02*
X101592999Y-99833618D01*
X103116808Y-100547904D02*
X102545380Y-100547904D01*
X102831094Y-100547904D02*
X102831094Y-99547904D01*
X102831094Y-99547904D02*
X102735856Y-99690761D01*
X102735856Y-99690761D02*
X102640618Y-99785999D01*
X102640618Y-99785999D02*
X102545380Y-99833618D01*
X86161666Y-97879819D02*
X86161666Y-98594104D01*
X86161666Y-98594104D02*
X86114047Y-98736961D01*
X86114047Y-98736961D02*
X86018809Y-98832200D01*
X86018809Y-98832200D02*
X85875952Y-98879819D01*
X85875952Y-98879819D02*
X85780714Y-98879819D01*
X86637857Y-98879819D02*
X86637857Y-97879819D01*
X86637857Y-97879819D02*
X87018809Y-97879819D01*
X87018809Y-97879819D02*
X87114047Y-97927438D01*
X87114047Y-97927438D02*
X87161666Y-97975057D01*
X87161666Y-97975057D02*
X87209285Y-98070295D01*
X87209285Y-98070295D02*
X87209285Y-98213152D01*
X87209285Y-98213152D02*
X87161666Y-98308390D01*
X87161666Y-98308390D02*
X87114047Y-98356009D01*
X87114047Y-98356009D02*
X87018809Y-98403628D01*
X87018809Y-98403628D02*
X86637857Y-98403628D01*
X88066428Y-97879819D02*
X87875952Y-97879819D01*
X87875952Y-97879819D02*
X87780714Y-97927438D01*
X87780714Y-97927438D02*
X87733095Y-97975057D01*
X87733095Y-97975057D02*
X87637857Y-98117914D01*
X87637857Y-98117914D02*
X87590238Y-98308390D01*
X87590238Y-98308390D02*
X87590238Y-98689342D01*
X87590238Y-98689342D02*
X87637857Y-98784580D01*
X87637857Y-98784580D02*
X87685476Y-98832200D01*
X87685476Y-98832200D02*
X87780714Y-98879819D01*
X87780714Y-98879819D02*
X87971190Y-98879819D01*
X87971190Y-98879819D02*
X88066428Y-98832200D01*
X88066428Y-98832200D02*
X88114047Y-98784580D01*
X88114047Y-98784580D02*
X88161666Y-98689342D01*
X88161666Y-98689342D02*
X88161666Y-98451247D01*
X88161666Y-98451247D02*
X88114047Y-98356009D01*
X88114047Y-98356009D02*
X88066428Y-98308390D01*
X88066428Y-98308390D02*
X87971190Y-98260771D01*
X87971190Y-98260771D02*
X87780714Y-98260771D01*
X87780714Y-98260771D02*
X87685476Y-98308390D01*
X87685476Y-98308390D02*
X87637857Y-98356009D01*
X87637857Y-98356009D02*
X87590238Y-98451247D01*
X102576666Y-45569819D02*
X102576666Y-46284104D01*
X102576666Y-46284104D02*
X102529047Y-46426961D01*
X102529047Y-46426961D02*
X102433809Y-46522200D01*
X102433809Y-46522200D02*
X102290952Y-46569819D01*
X102290952Y-46569819D02*
X102195714Y-46569819D01*
X102957619Y-45569819D02*
X103576666Y-45569819D01*
X103576666Y-45569819D02*
X103243333Y-45950771D01*
X103243333Y-45950771D02*
X103386190Y-45950771D01*
X103386190Y-45950771D02*
X103481428Y-45998390D01*
X103481428Y-45998390D02*
X103529047Y-46046009D01*
X103529047Y-46046009D02*
X103576666Y-46141247D01*
X103576666Y-46141247D02*
X103576666Y-46379342D01*
X103576666Y-46379342D02*
X103529047Y-46474580D01*
X103529047Y-46474580D02*
X103481428Y-46522200D01*
X103481428Y-46522200D02*
X103386190Y-46569819D01*
X103386190Y-46569819D02*
X103100476Y-46569819D01*
X103100476Y-46569819D02*
X103005238Y-46522200D01*
X103005238Y-46522200D02*
X102957619Y-46474580D01*
X75596432Y-136261752D02*
X75596432Y-136976037D01*
X75596432Y-136976037D02*
X75548813Y-137118894D01*
X75548813Y-137118894D02*
X75453575Y-137214133D01*
X75453575Y-137214133D02*
X75310718Y-137261752D01*
X75310718Y-137261752D02*
X75215480Y-137261752D01*
X76501194Y-136261752D02*
X76310718Y-136261752D01*
X76310718Y-136261752D02*
X76215480Y-136309371D01*
X76215480Y-136309371D02*
X76167861Y-136356990D01*
X76167861Y-136356990D02*
X76072623Y-136499847D01*
X76072623Y-136499847D02*
X76025004Y-136690323D01*
X76025004Y-136690323D02*
X76025004Y-137071275D01*
X76025004Y-137071275D02*
X76072623Y-137166513D01*
X76072623Y-137166513D02*
X76120242Y-137214133D01*
X76120242Y-137214133D02*
X76215480Y-137261752D01*
X76215480Y-137261752D02*
X76405956Y-137261752D01*
X76405956Y-137261752D02*
X76501194Y-137214133D01*
X76501194Y-137214133D02*
X76548813Y-137166513D01*
X76548813Y-137166513D02*
X76596432Y-137071275D01*
X76596432Y-137071275D02*
X76596432Y-136833180D01*
X76596432Y-136833180D02*
X76548813Y-136737942D01*
X76548813Y-136737942D02*
X76501194Y-136690323D01*
X76501194Y-136690323D02*
X76405956Y-136642704D01*
X76405956Y-136642704D02*
X76215480Y-136642704D01*
X76215480Y-136642704D02*
X76120242Y-136690323D01*
X76120242Y-136690323D02*
X76072623Y-136737942D01*
X76072623Y-136737942D02*
X76025004Y-136833180D01*
X113403571Y-80175057D02*
X113308333Y-80127438D01*
X113308333Y-80127438D02*
X113213095Y-80032200D01*
X113213095Y-80032200D02*
X113070238Y-79889342D01*
X113070238Y-79889342D02*
X112975000Y-79841723D01*
X112975000Y-79841723D02*
X112879762Y-79841723D01*
X112927381Y-80079819D02*
X112832143Y-80032200D01*
X112832143Y-80032200D02*
X112736905Y-79936961D01*
X112736905Y-79936961D02*
X112689286Y-79746485D01*
X112689286Y-79746485D02*
X112689286Y-79413152D01*
X112689286Y-79413152D02*
X112736905Y-79222676D01*
X112736905Y-79222676D02*
X112832143Y-79127438D01*
X112832143Y-79127438D02*
X112927381Y-79079819D01*
X112927381Y-79079819D02*
X113117857Y-79079819D01*
X113117857Y-79079819D02*
X113213095Y-79127438D01*
X113213095Y-79127438D02*
X113308333Y-79222676D01*
X113308333Y-79222676D02*
X113355952Y-79413152D01*
X113355952Y-79413152D02*
X113355952Y-79746485D01*
X113355952Y-79746485D02*
X113308333Y-79936961D01*
X113308333Y-79936961D02*
X113213095Y-80032200D01*
X113213095Y-80032200D02*
X113117857Y-80079819D01*
X113117857Y-80079819D02*
X112927381Y-80079819D01*
X114308333Y-80079819D02*
X113736905Y-80079819D01*
X114022619Y-80079819D02*
X114022619Y-79079819D01*
X114022619Y-79079819D02*
X113927381Y-79222676D01*
X113927381Y-79222676D02*
X113832143Y-79317914D01*
X113832143Y-79317914D02*
X113736905Y-79365533D01*
X115165476Y-79079819D02*
X114975000Y-79079819D01*
X114975000Y-79079819D02*
X114879762Y-79127438D01*
X114879762Y-79127438D02*
X114832143Y-79175057D01*
X114832143Y-79175057D02*
X114736905Y-79317914D01*
X114736905Y-79317914D02*
X114689286Y-79508390D01*
X114689286Y-79508390D02*
X114689286Y-79889342D01*
X114689286Y-79889342D02*
X114736905Y-79984580D01*
X114736905Y-79984580D02*
X114784524Y-80032200D01*
X114784524Y-80032200D02*
X114879762Y-80079819D01*
X114879762Y-80079819D02*
X115070238Y-80079819D01*
X115070238Y-80079819D02*
X115165476Y-80032200D01*
X115165476Y-80032200D02*
X115213095Y-79984580D01*
X115213095Y-79984580D02*
X115260714Y-79889342D01*
X115260714Y-79889342D02*
X115260714Y-79651247D01*
X115260714Y-79651247D02*
X115213095Y-79556009D01*
X115213095Y-79556009D02*
X115165476Y-79508390D01*
X115165476Y-79508390D02*
X115070238Y-79460771D01*
X115070238Y-79460771D02*
X114879762Y-79460771D01*
X114879762Y-79460771D02*
X114784524Y-79508390D01*
X114784524Y-79508390D02*
X114736905Y-79556009D01*
X114736905Y-79556009D02*
X114689286Y-79651247D01*
X91908333Y-118469580D02*
X91860714Y-118517200D01*
X91860714Y-118517200D02*
X91717857Y-118564819D01*
X91717857Y-118564819D02*
X91622619Y-118564819D01*
X91622619Y-118564819D02*
X91479762Y-118517200D01*
X91479762Y-118517200D02*
X91384524Y-118421961D01*
X91384524Y-118421961D02*
X91336905Y-118326723D01*
X91336905Y-118326723D02*
X91289286Y-118136247D01*
X91289286Y-118136247D02*
X91289286Y-117993390D01*
X91289286Y-117993390D02*
X91336905Y-117802914D01*
X91336905Y-117802914D02*
X91384524Y-117707676D01*
X91384524Y-117707676D02*
X91479762Y-117612438D01*
X91479762Y-117612438D02*
X91622619Y-117564819D01*
X91622619Y-117564819D02*
X91717857Y-117564819D01*
X91717857Y-117564819D02*
X91860714Y-117612438D01*
X91860714Y-117612438D02*
X91908333Y-117660057D01*
X92765476Y-117898152D02*
X92765476Y-118564819D01*
X92527381Y-117517200D02*
X92289286Y-118231485D01*
X92289286Y-118231485D02*
X92908333Y-118231485D01*
X88713127Y-130830219D02*
X88665508Y-130877839D01*
X88665508Y-130877839D02*
X88522651Y-130925458D01*
X88522651Y-130925458D02*
X88427413Y-130925458D01*
X88427413Y-130925458D02*
X88284556Y-130877839D01*
X88284556Y-130877839D02*
X88189318Y-130782600D01*
X88189318Y-130782600D02*
X88141699Y-130687362D01*
X88141699Y-130687362D02*
X88094080Y-130496886D01*
X88094080Y-130496886D02*
X88094080Y-130354029D01*
X88094080Y-130354029D02*
X88141699Y-130163553D01*
X88141699Y-130163553D02*
X88189318Y-130068315D01*
X88189318Y-130068315D02*
X88284556Y-129973077D01*
X88284556Y-129973077D02*
X88427413Y-129925458D01*
X88427413Y-129925458D02*
X88522651Y-129925458D01*
X88522651Y-129925458D02*
X88665508Y-129973077D01*
X88665508Y-129973077D02*
X88713127Y-130020696D01*
X89094080Y-130020696D02*
X89141699Y-129973077D01*
X89141699Y-129973077D02*
X89236937Y-129925458D01*
X89236937Y-129925458D02*
X89475032Y-129925458D01*
X89475032Y-129925458D02*
X89570270Y-129973077D01*
X89570270Y-129973077D02*
X89617889Y-130020696D01*
X89617889Y-130020696D02*
X89665508Y-130115934D01*
X89665508Y-130115934D02*
X89665508Y-130211172D01*
X89665508Y-130211172D02*
X89617889Y-130354029D01*
X89617889Y-130354029D02*
X89046461Y-130925458D01*
X89046461Y-130925458D02*
X89665508Y-130925458D01*
X71588333Y-88719819D02*
X71255000Y-88243628D01*
X71016905Y-88719819D02*
X71016905Y-87719819D01*
X71016905Y-87719819D02*
X71397857Y-87719819D01*
X71397857Y-87719819D02*
X71493095Y-87767438D01*
X71493095Y-87767438D02*
X71540714Y-87815057D01*
X71540714Y-87815057D02*
X71588333Y-87910295D01*
X71588333Y-87910295D02*
X71588333Y-88053152D01*
X71588333Y-88053152D02*
X71540714Y-88148390D01*
X71540714Y-88148390D02*
X71493095Y-88196009D01*
X71493095Y-88196009D02*
X71397857Y-88243628D01*
X71397857Y-88243628D02*
X71016905Y-88243628D01*
X71921667Y-87719819D02*
X72540714Y-87719819D01*
X72540714Y-87719819D02*
X72207381Y-88100771D01*
X72207381Y-88100771D02*
X72350238Y-88100771D01*
X72350238Y-88100771D02*
X72445476Y-88148390D01*
X72445476Y-88148390D02*
X72493095Y-88196009D01*
X72493095Y-88196009D02*
X72540714Y-88291247D01*
X72540714Y-88291247D02*
X72540714Y-88529342D01*
X72540714Y-88529342D02*
X72493095Y-88624580D01*
X72493095Y-88624580D02*
X72445476Y-88672200D01*
X72445476Y-88672200D02*
X72350238Y-88719819D01*
X72350238Y-88719819D02*
X72064524Y-88719819D01*
X72064524Y-88719819D02*
X71969286Y-88672200D01*
X71969286Y-88672200D02*
X71921667Y-88624580D01*
X103959819Y-130913094D02*
X102959819Y-130913094D01*
X102959819Y-130913094D02*
X102959819Y-130674999D01*
X102959819Y-130674999D02*
X103007438Y-130532142D01*
X103007438Y-130532142D02*
X103102676Y-130436904D01*
X103102676Y-130436904D02*
X103197914Y-130389285D01*
X103197914Y-130389285D02*
X103388390Y-130341666D01*
X103388390Y-130341666D02*
X103531247Y-130341666D01*
X103531247Y-130341666D02*
X103721723Y-130389285D01*
X103721723Y-130389285D02*
X103816961Y-130436904D01*
X103816961Y-130436904D02*
X103912200Y-130532142D01*
X103912200Y-130532142D02*
X103959819Y-130674999D01*
X103959819Y-130674999D02*
X103959819Y-130913094D01*
X102959819Y-129436904D02*
X102959819Y-129913094D01*
X102959819Y-129913094D02*
X103436009Y-129960713D01*
X103436009Y-129960713D02*
X103388390Y-129913094D01*
X103388390Y-129913094D02*
X103340771Y-129817856D01*
X103340771Y-129817856D02*
X103340771Y-129579761D01*
X103340771Y-129579761D02*
X103388390Y-129484523D01*
X103388390Y-129484523D02*
X103436009Y-129436904D01*
X103436009Y-129436904D02*
X103531247Y-129389285D01*
X103531247Y-129389285D02*
X103769342Y-129389285D01*
X103769342Y-129389285D02*
X103864580Y-129436904D01*
X103864580Y-129436904D02*
X103912200Y-129484523D01*
X103912200Y-129484523D02*
X103959819Y-129579761D01*
X103959819Y-129579761D02*
X103959819Y-129817856D01*
X103959819Y-129817856D02*
X103912200Y-129913094D01*
X103912200Y-129913094D02*
X103864580Y-129960713D01*
X102059819Y-134881904D02*
X101059819Y-134881904D01*
X102059819Y-134310476D02*
X101488390Y-134739047D01*
X101059819Y-134310476D02*
X101631247Y-134881904D01*
X84351905Y-116024819D02*
X84351905Y-115024819D01*
X84351905Y-115024819D02*
X84590000Y-115024819D01*
X84590000Y-115024819D02*
X84732857Y-115072438D01*
X84732857Y-115072438D02*
X84828095Y-115167676D01*
X84828095Y-115167676D02*
X84875714Y-115262914D01*
X84875714Y-115262914D02*
X84923333Y-115453390D01*
X84923333Y-115453390D02*
X84923333Y-115596247D01*
X84923333Y-115596247D02*
X84875714Y-115786723D01*
X84875714Y-115786723D02*
X84828095Y-115881961D01*
X84828095Y-115881961D02*
X84732857Y-115977200D01*
X84732857Y-115977200D02*
X84590000Y-116024819D01*
X84590000Y-116024819D02*
X84351905Y-116024819D01*
X85875714Y-116024819D02*
X85304286Y-116024819D01*
X85590000Y-116024819D02*
X85590000Y-115024819D01*
X85590000Y-115024819D02*
X85494762Y-115167676D01*
X85494762Y-115167676D02*
X85399524Y-115262914D01*
X85399524Y-115262914D02*
X85304286Y-115310533D01*
X79748095Y-117929819D02*
X79748095Y-116929819D01*
X80319523Y-117929819D02*
X79890952Y-117358390D01*
X80319523Y-116929819D02*
X79748095Y-117501247D01*
X83812142Y-93164819D02*
X83478809Y-92688628D01*
X83240714Y-93164819D02*
X83240714Y-92164819D01*
X83240714Y-92164819D02*
X83621666Y-92164819D01*
X83621666Y-92164819D02*
X83716904Y-92212438D01*
X83716904Y-92212438D02*
X83764523Y-92260057D01*
X83764523Y-92260057D02*
X83812142Y-92355295D01*
X83812142Y-92355295D02*
X83812142Y-92498152D01*
X83812142Y-92498152D02*
X83764523Y-92593390D01*
X83764523Y-92593390D02*
X83716904Y-92641009D01*
X83716904Y-92641009D02*
X83621666Y-92688628D01*
X83621666Y-92688628D02*
X83240714Y-92688628D01*
X84764523Y-93164819D02*
X84193095Y-93164819D01*
X84478809Y-93164819D02*
X84478809Y-92164819D01*
X84478809Y-92164819D02*
X84383571Y-92307676D01*
X84383571Y-92307676D02*
X84288333Y-92402914D01*
X84288333Y-92402914D02*
X84193095Y-92450533D01*
X85621666Y-92498152D02*
X85621666Y-93164819D01*
X85383571Y-92117200D02*
X85145476Y-92831485D01*
X85145476Y-92831485D02*
X85764523Y-92831485D01*
X89590714Y-58874819D02*
X89590714Y-57874819D01*
X89590714Y-57874819D02*
X89828809Y-57874819D01*
X89828809Y-57874819D02*
X89971666Y-57922438D01*
X89971666Y-57922438D02*
X90066904Y-58017676D01*
X90066904Y-58017676D02*
X90114523Y-58112914D01*
X90114523Y-58112914D02*
X90162142Y-58303390D01*
X90162142Y-58303390D02*
X90162142Y-58446247D01*
X90162142Y-58446247D02*
X90114523Y-58636723D01*
X90114523Y-58636723D02*
X90066904Y-58731961D01*
X90066904Y-58731961D02*
X89971666Y-58827200D01*
X89971666Y-58827200D02*
X89828809Y-58874819D01*
X89828809Y-58874819D02*
X89590714Y-58874819D01*
X91114523Y-58874819D02*
X90543095Y-58874819D01*
X90828809Y-58874819D02*
X90828809Y-57874819D01*
X90828809Y-57874819D02*
X90733571Y-58017676D01*
X90733571Y-58017676D02*
X90638333Y-58112914D01*
X90638333Y-58112914D02*
X90543095Y-58160533D01*
X91447857Y-57874819D02*
X92066904Y-57874819D01*
X92066904Y-57874819D02*
X91733571Y-58255771D01*
X91733571Y-58255771D02*
X91876428Y-58255771D01*
X91876428Y-58255771D02*
X91971666Y-58303390D01*
X91971666Y-58303390D02*
X92019285Y-58351009D01*
X92019285Y-58351009D02*
X92066904Y-58446247D01*
X92066904Y-58446247D02*
X92066904Y-58684342D01*
X92066904Y-58684342D02*
X92019285Y-58779580D01*
X92019285Y-58779580D02*
X91971666Y-58827200D01*
X91971666Y-58827200D02*
X91876428Y-58874819D01*
X91876428Y-58874819D02*
X91590714Y-58874819D01*
X91590714Y-58874819D02*
X91495476Y-58827200D01*
X91495476Y-58827200D02*
X91447857Y-58779580D01*
X96258095Y-58874819D02*
X96258095Y-57874819D01*
X96829523Y-58874819D02*
X96400952Y-58303390D01*
X96829523Y-57874819D02*
X96258095Y-58446247D01*
X109212142Y-88084819D02*
X108878809Y-87608628D01*
X108640714Y-88084819D02*
X108640714Y-87084819D01*
X108640714Y-87084819D02*
X109021666Y-87084819D01*
X109021666Y-87084819D02*
X109116904Y-87132438D01*
X109116904Y-87132438D02*
X109164523Y-87180057D01*
X109164523Y-87180057D02*
X109212142Y-87275295D01*
X109212142Y-87275295D02*
X109212142Y-87418152D01*
X109212142Y-87418152D02*
X109164523Y-87513390D01*
X109164523Y-87513390D02*
X109116904Y-87561009D01*
X109116904Y-87561009D02*
X109021666Y-87608628D01*
X109021666Y-87608628D02*
X108640714Y-87608628D01*
X110164523Y-88084819D02*
X109593095Y-88084819D01*
X109878809Y-88084819D02*
X109878809Y-87084819D01*
X109878809Y-87084819D02*
X109783571Y-87227676D01*
X109783571Y-87227676D02*
X109688333Y-87322914D01*
X109688333Y-87322914D02*
X109593095Y-87370533D01*
X110783571Y-87084819D02*
X110878809Y-87084819D01*
X110878809Y-87084819D02*
X110974047Y-87132438D01*
X110974047Y-87132438D02*
X111021666Y-87180057D01*
X111021666Y-87180057D02*
X111069285Y-87275295D01*
X111069285Y-87275295D02*
X111116904Y-87465771D01*
X111116904Y-87465771D02*
X111116904Y-87703866D01*
X111116904Y-87703866D02*
X111069285Y-87894342D01*
X111069285Y-87894342D02*
X111021666Y-87989580D01*
X111021666Y-87989580D02*
X110974047Y-88037200D01*
X110974047Y-88037200D02*
X110878809Y-88084819D01*
X110878809Y-88084819D02*
X110783571Y-88084819D01*
X110783571Y-88084819D02*
X110688333Y-88037200D01*
X110688333Y-88037200D02*
X110640714Y-87989580D01*
X110640714Y-87989580D02*
X110593095Y-87894342D01*
X110593095Y-87894342D02*
X110545476Y-87703866D01*
X110545476Y-87703866D02*
X110545476Y-87465771D01*
X110545476Y-87465771D02*
X110593095Y-87275295D01*
X110593095Y-87275295D02*
X110640714Y-87180057D01*
X110640714Y-87180057D02*
X110688333Y-87132438D01*
X110688333Y-87132438D02*
X110783571Y-87084819D01*
X109688333Y-105229819D02*
X109355000Y-104753628D01*
X109116905Y-105229819D02*
X109116905Y-104229819D01*
X109116905Y-104229819D02*
X109497857Y-104229819D01*
X109497857Y-104229819D02*
X109593095Y-104277438D01*
X109593095Y-104277438D02*
X109640714Y-104325057D01*
X109640714Y-104325057D02*
X109688333Y-104420295D01*
X109688333Y-104420295D02*
X109688333Y-104563152D01*
X109688333Y-104563152D02*
X109640714Y-104658390D01*
X109640714Y-104658390D02*
X109593095Y-104706009D01*
X109593095Y-104706009D02*
X109497857Y-104753628D01*
X109497857Y-104753628D02*
X109116905Y-104753628D01*
X110640714Y-105229819D02*
X110069286Y-105229819D01*
X110355000Y-105229819D02*
X110355000Y-104229819D01*
X110355000Y-104229819D02*
X110259762Y-104372676D01*
X110259762Y-104372676D02*
X110164524Y-104467914D01*
X110164524Y-104467914D02*
X110069286Y-104515533D01*
X108655818Y-134445651D02*
X108655818Y-135159936D01*
X108655818Y-135159936D02*
X108608199Y-135302793D01*
X108608199Y-135302793D02*
X108512961Y-135398032D01*
X108512961Y-135398032D02*
X108370104Y-135445651D01*
X108370104Y-135445651D02*
X108274866Y-135445651D01*
X109132009Y-135445651D02*
X109132009Y-134445651D01*
X109132009Y-134445651D02*
X109512961Y-134445651D01*
X109512961Y-134445651D02*
X109608199Y-134493270D01*
X109608199Y-134493270D02*
X109655818Y-134540889D01*
X109655818Y-134540889D02*
X109703437Y-134636127D01*
X109703437Y-134636127D02*
X109703437Y-134778984D01*
X109703437Y-134778984D02*
X109655818Y-134874222D01*
X109655818Y-134874222D02*
X109608199Y-134921841D01*
X109608199Y-134921841D02*
X109512961Y-134969460D01*
X109512961Y-134969460D02*
X109132009Y-134969460D01*
X110084390Y-134540889D02*
X110132009Y-134493270D01*
X110132009Y-134493270D02*
X110227247Y-134445651D01*
X110227247Y-134445651D02*
X110465342Y-134445651D01*
X110465342Y-134445651D02*
X110560580Y-134493270D01*
X110560580Y-134493270D02*
X110608199Y-134540889D01*
X110608199Y-134540889D02*
X110655818Y-134636127D01*
X110655818Y-134636127D02*
X110655818Y-134731365D01*
X110655818Y-134731365D02*
X110608199Y-134874222D01*
X110608199Y-134874222D02*
X110036771Y-135445651D01*
X110036771Y-135445651D02*
X110655818Y-135445651D01*
X89836666Y-132804819D02*
X89836666Y-133519104D01*
X89836666Y-133519104D02*
X89789047Y-133661961D01*
X89789047Y-133661961D02*
X89693809Y-133757200D01*
X89693809Y-133757200D02*
X89550952Y-133804819D01*
X89550952Y-133804819D02*
X89455714Y-133804819D01*
X90789047Y-132804819D02*
X90312857Y-132804819D01*
X90312857Y-132804819D02*
X90265238Y-133281009D01*
X90265238Y-133281009D02*
X90312857Y-133233390D01*
X90312857Y-133233390D02*
X90408095Y-133185771D01*
X90408095Y-133185771D02*
X90646190Y-133185771D01*
X90646190Y-133185771D02*
X90741428Y-133233390D01*
X90741428Y-133233390D02*
X90789047Y-133281009D01*
X90789047Y-133281009D02*
X90836666Y-133376247D01*
X90836666Y-133376247D02*
X90836666Y-133614342D01*
X90836666Y-133614342D02*
X90789047Y-133709580D01*
X90789047Y-133709580D02*
X90741428Y-133757200D01*
X90741428Y-133757200D02*
X90646190Y-133804819D01*
X90646190Y-133804819D02*
X90408095Y-133804819D01*
X90408095Y-133804819D02*
X90312857Y-133757200D01*
X90312857Y-133757200D02*
X90265238Y-133709580D01*
X75303571Y-80175057D02*
X75208333Y-80127438D01*
X75208333Y-80127438D02*
X75113095Y-80032200D01*
X75113095Y-80032200D02*
X74970238Y-79889342D01*
X74970238Y-79889342D02*
X74875000Y-79841723D01*
X74875000Y-79841723D02*
X74779762Y-79841723D01*
X74827381Y-80079819D02*
X74732143Y-80032200D01*
X74732143Y-80032200D02*
X74636905Y-79936961D01*
X74636905Y-79936961D02*
X74589286Y-79746485D01*
X74589286Y-79746485D02*
X74589286Y-79413152D01*
X74589286Y-79413152D02*
X74636905Y-79222676D01*
X74636905Y-79222676D02*
X74732143Y-79127438D01*
X74732143Y-79127438D02*
X74827381Y-79079819D01*
X74827381Y-79079819D02*
X75017857Y-79079819D01*
X75017857Y-79079819D02*
X75113095Y-79127438D01*
X75113095Y-79127438D02*
X75208333Y-79222676D01*
X75208333Y-79222676D02*
X75255952Y-79413152D01*
X75255952Y-79413152D02*
X75255952Y-79746485D01*
X75255952Y-79746485D02*
X75208333Y-79936961D01*
X75208333Y-79936961D02*
X75113095Y-80032200D01*
X75113095Y-80032200D02*
X75017857Y-80079819D01*
X75017857Y-80079819D02*
X74827381Y-80079819D01*
X76208333Y-80079819D02*
X75636905Y-80079819D01*
X75922619Y-80079819D02*
X75922619Y-79079819D01*
X75922619Y-79079819D02*
X75827381Y-79222676D01*
X75827381Y-79222676D02*
X75732143Y-79317914D01*
X75732143Y-79317914D02*
X75636905Y-79365533D01*
X76827381Y-79079819D02*
X76922619Y-79079819D01*
X76922619Y-79079819D02*
X77017857Y-79127438D01*
X77017857Y-79127438D02*
X77065476Y-79175057D01*
X77065476Y-79175057D02*
X77113095Y-79270295D01*
X77113095Y-79270295D02*
X77160714Y-79460771D01*
X77160714Y-79460771D02*
X77160714Y-79698866D01*
X77160714Y-79698866D02*
X77113095Y-79889342D01*
X77113095Y-79889342D02*
X77065476Y-79984580D01*
X77065476Y-79984580D02*
X77017857Y-80032200D01*
X77017857Y-80032200D02*
X76922619Y-80079819D01*
X76922619Y-80079819D02*
X76827381Y-80079819D01*
X76827381Y-80079819D02*
X76732143Y-80032200D01*
X76732143Y-80032200D02*
X76684524Y-79984580D01*
X76684524Y-79984580D02*
X76636905Y-79889342D01*
X76636905Y-79889342D02*
X76589286Y-79698866D01*
X76589286Y-79698866D02*
X76589286Y-79460771D01*
X76589286Y-79460771D02*
X76636905Y-79270295D01*
X76636905Y-79270295D02*
X76684524Y-79175057D01*
X76684524Y-79175057D02*
X76732143Y-79127438D01*
X76732143Y-79127438D02*
X76827381Y-79079819D01*
X97591666Y-97879819D02*
X97591666Y-98594104D01*
X97591666Y-98594104D02*
X97544047Y-98736961D01*
X97544047Y-98736961D02*
X97448809Y-98832200D01*
X97448809Y-98832200D02*
X97305952Y-98879819D01*
X97305952Y-98879819D02*
X97210714Y-98879819D01*
X98067857Y-98879819D02*
X98067857Y-97879819D01*
X98067857Y-97879819D02*
X98448809Y-97879819D01*
X98448809Y-97879819D02*
X98544047Y-97927438D01*
X98544047Y-97927438D02*
X98591666Y-97975057D01*
X98591666Y-97975057D02*
X98639285Y-98070295D01*
X98639285Y-98070295D02*
X98639285Y-98213152D01*
X98639285Y-98213152D02*
X98591666Y-98308390D01*
X98591666Y-98308390D02*
X98544047Y-98356009D01*
X98544047Y-98356009D02*
X98448809Y-98403628D01*
X98448809Y-98403628D02*
X98067857Y-98403628D01*
X98972619Y-97879819D02*
X99639285Y-97879819D01*
X99639285Y-97879819D02*
X99210714Y-98879819D01*
X89177861Y-118285637D02*
X89130242Y-118333257D01*
X89130242Y-118333257D02*
X88987385Y-118380876D01*
X88987385Y-118380876D02*
X88892147Y-118380876D01*
X88892147Y-118380876D02*
X88749290Y-118333257D01*
X88749290Y-118333257D02*
X88654052Y-118238018D01*
X88654052Y-118238018D02*
X88606433Y-118142780D01*
X88606433Y-118142780D02*
X88558814Y-117952304D01*
X88558814Y-117952304D02*
X88558814Y-117809447D01*
X88558814Y-117809447D02*
X88606433Y-117618971D01*
X88606433Y-117618971D02*
X88654052Y-117523733D01*
X88654052Y-117523733D02*
X88749290Y-117428495D01*
X88749290Y-117428495D02*
X88892147Y-117380876D01*
X88892147Y-117380876D02*
X88987385Y-117380876D01*
X88987385Y-117380876D02*
X89130242Y-117428495D01*
X89130242Y-117428495D02*
X89177861Y-117476114D01*
X89511195Y-117380876D02*
X90130242Y-117380876D01*
X90130242Y-117380876D02*
X89796909Y-117761828D01*
X89796909Y-117761828D02*
X89939766Y-117761828D01*
X89939766Y-117761828D02*
X90035004Y-117809447D01*
X90035004Y-117809447D02*
X90082623Y-117857066D01*
X90082623Y-117857066D02*
X90130242Y-117952304D01*
X90130242Y-117952304D02*
X90130242Y-118190399D01*
X90130242Y-118190399D02*
X90082623Y-118285637D01*
X90082623Y-118285637D02*
X90035004Y-118333257D01*
X90035004Y-118333257D02*
X89939766Y-118380876D01*
X89939766Y-118380876D02*
X89654052Y-118380876D01*
X89654052Y-118380876D02*
X89558814Y-118333257D01*
X89558814Y-118333257D02*
X89511195Y-118285637D01*
X110944819Y-56253094D02*
X109944819Y-56253094D01*
X109944819Y-56253094D02*
X109944819Y-56014999D01*
X109944819Y-56014999D02*
X109992438Y-55872142D01*
X109992438Y-55872142D02*
X110087676Y-55776904D01*
X110087676Y-55776904D02*
X110182914Y-55729285D01*
X110182914Y-55729285D02*
X110373390Y-55681666D01*
X110373390Y-55681666D02*
X110516247Y-55681666D01*
X110516247Y-55681666D02*
X110706723Y-55729285D01*
X110706723Y-55729285D02*
X110801961Y-55776904D01*
X110801961Y-55776904D02*
X110897200Y-55872142D01*
X110897200Y-55872142D02*
X110944819Y-56014999D01*
X110944819Y-56014999D02*
X110944819Y-56253094D01*
X110040057Y-55300713D02*
X109992438Y-55253094D01*
X109992438Y-55253094D02*
X109944819Y-55157856D01*
X109944819Y-55157856D02*
X109944819Y-54919761D01*
X109944819Y-54919761D02*
X109992438Y-54824523D01*
X109992438Y-54824523D02*
X110040057Y-54776904D01*
X110040057Y-54776904D02*
X110135295Y-54729285D01*
X110135295Y-54729285D02*
X110230533Y-54729285D01*
X110230533Y-54729285D02*
X110373390Y-54776904D01*
X110373390Y-54776904D02*
X110944819Y-55348332D01*
X110944819Y-55348332D02*
X110944819Y-54729285D01*
X112844819Y-51696904D02*
X111844819Y-51696904D01*
X112844819Y-51125476D02*
X112273390Y-51554047D01*
X111844819Y-51125476D02*
X112416247Y-51696904D01*
X111153095Y-116524580D02*
X111105476Y-116572200D01*
X111105476Y-116572200D02*
X110962619Y-116619819D01*
X110962619Y-116619819D02*
X110867381Y-116619819D01*
X110867381Y-116619819D02*
X110724524Y-116572200D01*
X110724524Y-116572200D02*
X110629286Y-116476961D01*
X110629286Y-116476961D02*
X110581667Y-116381723D01*
X110581667Y-116381723D02*
X110534048Y-116191247D01*
X110534048Y-116191247D02*
X110534048Y-116048390D01*
X110534048Y-116048390D02*
X110581667Y-115857914D01*
X110581667Y-115857914D02*
X110629286Y-115762676D01*
X110629286Y-115762676D02*
X110724524Y-115667438D01*
X110724524Y-115667438D02*
X110867381Y-115619819D01*
X110867381Y-115619819D02*
X110962619Y-115619819D01*
X110962619Y-115619819D02*
X111105476Y-115667438D01*
X111105476Y-115667438D02*
X111153095Y-115715057D01*
X112105476Y-116619819D02*
X111534048Y-116619819D01*
X111819762Y-116619819D02*
X111819762Y-115619819D01*
X111819762Y-115619819D02*
X111724524Y-115762676D01*
X111724524Y-115762676D02*
X111629286Y-115857914D01*
X111629286Y-115857914D02*
X111534048Y-115905533D01*
X112534048Y-116238866D02*
X113295953Y-116238866D01*
X114295952Y-116619819D02*
X113724524Y-116619819D01*
X114010238Y-116619819D02*
X114010238Y-115619819D01*
X114010238Y-115619819D02*
X113915000Y-115762676D01*
X113915000Y-115762676D02*
X113819762Y-115857914D01*
X113819762Y-115857914D02*
X113724524Y-115905533D01*
X98964761Y-72940057D02*
X98869523Y-72892438D01*
X98869523Y-72892438D02*
X98774285Y-72797200D01*
X98774285Y-72797200D02*
X98631428Y-72654342D01*
X98631428Y-72654342D02*
X98536190Y-72606723D01*
X98536190Y-72606723D02*
X98440952Y-72606723D01*
X98488571Y-72844819D02*
X98393333Y-72797200D01*
X98393333Y-72797200D02*
X98298095Y-72701961D01*
X98298095Y-72701961D02*
X98250476Y-72511485D01*
X98250476Y-72511485D02*
X98250476Y-72178152D01*
X98250476Y-72178152D02*
X98298095Y-71987676D01*
X98298095Y-71987676D02*
X98393333Y-71892438D01*
X98393333Y-71892438D02*
X98488571Y-71844819D01*
X98488571Y-71844819D02*
X98679047Y-71844819D01*
X98679047Y-71844819D02*
X98774285Y-71892438D01*
X98774285Y-71892438D02*
X98869523Y-71987676D01*
X98869523Y-71987676D02*
X98917142Y-72178152D01*
X98917142Y-72178152D02*
X98917142Y-72511485D01*
X98917142Y-72511485D02*
X98869523Y-72701961D01*
X98869523Y-72701961D02*
X98774285Y-72797200D01*
X98774285Y-72797200D02*
X98679047Y-72844819D01*
X98679047Y-72844819D02*
X98488571Y-72844819D01*
X99250476Y-71844819D02*
X99917142Y-71844819D01*
X99917142Y-71844819D02*
X99488571Y-72844819D01*
X103959819Y-120753094D02*
X102959819Y-120753094D01*
X102959819Y-120753094D02*
X102959819Y-120514999D01*
X102959819Y-120514999D02*
X103007438Y-120372142D01*
X103007438Y-120372142D02*
X103102676Y-120276904D01*
X103102676Y-120276904D02*
X103197914Y-120229285D01*
X103197914Y-120229285D02*
X103388390Y-120181666D01*
X103388390Y-120181666D02*
X103531247Y-120181666D01*
X103531247Y-120181666D02*
X103721723Y-120229285D01*
X103721723Y-120229285D02*
X103816961Y-120276904D01*
X103816961Y-120276904D02*
X103912200Y-120372142D01*
X103912200Y-120372142D02*
X103959819Y-120514999D01*
X103959819Y-120514999D02*
X103959819Y-120753094D01*
X103293152Y-119324523D02*
X103959819Y-119324523D01*
X102912200Y-119562618D02*
X103626485Y-119800713D01*
X103626485Y-119800713D02*
X103626485Y-119181666D01*
X105148095Y-124914819D02*
X105148095Y-123914819D01*
X105719523Y-124914819D02*
X105290952Y-124343390D01*
X105719523Y-123914819D02*
X105148095Y-124486247D01*
X65494819Y-109346904D02*
X66304342Y-109346904D01*
X66304342Y-109346904D02*
X66399580Y-109299285D01*
X66399580Y-109299285D02*
X66447200Y-109251666D01*
X66447200Y-109251666D02*
X66494819Y-109156428D01*
X66494819Y-109156428D02*
X66494819Y-108965952D01*
X66494819Y-108965952D02*
X66447200Y-108870714D01*
X66447200Y-108870714D02*
X66399580Y-108823095D01*
X66399580Y-108823095D02*
X66304342Y-108775476D01*
X66304342Y-108775476D02*
X65494819Y-108775476D01*
X66494819Y-107775476D02*
X66494819Y-108346904D01*
X66494819Y-108061190D02*
X65494819Y-108061190D01*
X65494819Y-108061190D02*
X65637676Y-108156428D01*
X65637676Y-108156428D02*
X65732914Y-108251666D01*
X65732914Y-108251666D02*
X65780533Y-108346904D01*
X72223333Y-116024819D02*
X71890000Y-115548628D01*
X71651905Y-116024819D02*
X71651905Y-115024819D01*
X71651905Y-115024819D02*
X72032857Y-115024819D01*
X72032857Y-115024819D02*
X72128095Y-115072438D01*
X72128095Y-115072438D02*
X72175714Y-115120057D01*
X72175714Y-115120057D02*
X72223333Y-115215295D01*
X72223333Y-115215295D02*
X72223333Y-115358152D01*
X72223333Y-115358152D02*
X72175714Y-115453390D01*
X72175714Y-115453390D02*
X72128095Y-115501009D01*
X72128095Y-115501009D02*
X72032857Y-115548628D01*
X72032857Y-115548628D02*
X71651905Y-115548628D01*
X72604286Y-115120057D02*
X72651905Y-115072438D01*
X72651905Y-115072438D02*
X72747143Y-115024819D01*
X72747143Y-115024819D02*
X72985238Y-115024819D01*
X72985238Y-115024819D02*
X73080476Y-115072438D01*
X73080476Y-115072438D02*
X73128095Y-115120057D01*
X73128095Y-115120057D02*
X73175714Y-115215295D01*
X73175714Y-115215295D02*
X73175714Y-115310533D01*
X73175714Y-115310533D02*
X73128095Y-115453390D01*
X73128095Y-115453390D02*
X72556667Y-116024819D01*
X72556667Y-116024819D02*
X73175714Y-116024819D01*
X89584835Y-100350372D02*
X89537216Y-100397992D01*
X89537216Y-100397992D02*
X89394359Y-100445611D01*
X89394359Y-100445611D02*
X89299121Y-100445611D01*
X89299121Y-100445611D02*
X89156264Y-100397992D01*
X89156264Y-100397992D02*
X89061026Y-100302753D01*
X89061026Y-100302753D02*
X89013407Y-100207515D01*
X89013407Y-100207515D02*
X88965788Y-100017039D01*
X88965788Y-100017039D02*
X88965788Y-99874182D01*
X88965788Y-99874182D02*
X89013407Y-99683706D01*
X89013407Y-99683706D02*
X89061026Y-99588468D01*
X89061026Y-99588468D02*
X89156264Y-99493230D01*
X89156264Y-99493230D02*
X89299121Y-99445611D01*
X89299121Y-99445611D02*
X89394359Y-99445611D01*
X89394359Y-99445611D02*
X89537216Y-99493230D01*
X89537216Y-99493230D02*
X89584835Y-99540849D01*
X90537216Y-100445611D02*
X89965788Y-100445611D01*
X90251502Y-100445611D02*
X90251502Y-99445611D01*
X90251502Y-99445611D02*
X90156264Y-99588468D01*
X90156264Y-99588468D02*
X90061026Y-99683706D01*
X90061026Y-99683706D02*
X89965788Y-99731325D01*
X91156264Y-99445611D02*
X91251502Y-99445611D01*
X91251502Y-99445611D02*
X91346740Y-99493230D01*
X91346740Y-99493230D02*
X91394359Y-99540849D01*
X91394359Y-99540849D02*
X91441978Y-99636087D01*
X91441978Y-99636087D02*
X91489597Y-99826563D01*
X91489597Y-99826563D02*
X91489597Y-100064658D01*
X91489597Y-100064658D02*
X91441978Y-100255134D01*
X91441978Y-100255134D02*
X91394359Y-100350372D01*
X91394359Y-100350372D02*
X91346740Y-100397992D01*
X91346740Y-100397992D02*
X91251502Y-100445611D01*
X91251502Y-100445611D02*
X91156264Y-100445611D01*
X91156264Y-100445611D02*
X91061026Y-100397992D01*
X91061026Y-100397992D02*
X91013407Y-100350372D01*
X91013407Y-100350372D02*
X90965788Y-100255134D01*
X90965788Y-100255134D02*
X90918169Y-100064658D01*
X90918169Y-100064658D02*
X90918169Y-99826563D01*
X90918169Y-99826563D02*
X90965788Y-99636087D01*
X90965788Y-99636087D02*
X91013407Y-99540849D01*
X91013407Y-99540849D02*
X91061026Y-99493230D01*
X91061026Y-99493230D02*
X91156264Y-99445611D01*
X95704819Y-52014285D02*
X94704819Y-52014285D01*
X94704819Y-52014285D02*
X94704819Y-51776190D01*
X94704819Y-51776190D02*
X94752438Y-51633333D01*
X94752438Y-51633333D02*
X94847676Y-51538095D01*
X94847676Y-51538095D02*
X94942914Y-51490476D01*
X94942914Y-51490476D02*
X95133390Y-51442857D01*
X95133390Y-51442857D02*
X95276247Y-51442857D01*
X95276247Y-51442857D02*
X95466723Y-51490476D01*
X95466723Y-51490476D02*
X95561961Y-51538095D01*
X95561961Y-51538095D02*
X95657200Y-51633333D01*
X95657200Y-51633333D02*
X95704819Y-51776190D01*
X95704819Y-51776190D02*
X95704819Y-52014285D01*
X95704819Y-50490476D02*
X95704819Y-51061904D01*
X95704819Y-50776190D02*
X94704819Y-50776190D01*
X94704819Y-50776190D02*
X94847676Y-50871428D01*
X94847676Y-50871428D02*
X94942914Y-50966666D01*
X94942914Y-50966666D02*
X94990533Y-51061904D01*
X95038152Y-49633333D02*
X95704819Y-49633333D01*
X94657200Y-49871428D02*
X95371485Y-50109523D01*
X95371485Y-50109523D02*
X95371485Y-49490476D01*
X93804819Y-55506904D02*
X92804819Y-55506904D01*
X93804819Y-54935476D02*
X93233390Y-55364047D01*
X92804819Y-54935476D02*
X93376247Y-55506904D01*
X92800057Y-66135238D02*
X92752438Y-66230476D01*
X92752438Y-66230476D02*
X92657200Y-66325714D01*
X92657200Y-66325714D02*
X92514342Y-66468571D01*
X92514342Y-66468571D02*
X92466723Y-66563809D01*
X92466723Y-66563809D02*
X92466723Y-66659047D01*
X92704819Y-66611428D02*
X92657200Y-66706666D01*
X92657200Y-66706666D02*
X92561961Y-66801904D01*
X92561961Y-66801904D02*
X92371485Y-66849523D01*
X92371485Y-66849523D02*
X92038152Y-66849523D01*
X92038152Y-66849523D02*
X91847676Y-66801904D01*
X91847676Y-66801904D02*
X91752438Y-66706666D01*
X91752438Y-66706666D02*
X91704819Y-66611428D01*
X91704819Y-66611428D02*
X91704819Y-66420952D01*
X91704819Y-66420952D02*
X91752438Y-66325714D01*
X91752438Y-66325714D02*
X91847676Y-66230476D01*
X91847676Y-66230476D02*
X92038152Y-66182857D01*
X92038152Y-66182857D02*
X92371485Y-66182857D01*
X92371485Y-66182857D02*
X92561961Y-66230476D01*
X92561961Y-66230476D02*
X92657200Y-66325714D01*
X92657200Y-66325714D02*
X92704819Y-66420952D01*
X92704819Y-66420952D02*
X92704819Y-66611428D01*
X92038152Y-65325714D02*
X92704819Y-65325714D01*
X91657200Y-65563809D02*
X92371485Y-65801904D01*
X92371485Y-65801904D02*
X92371485Y-65182857D01*
X111029761Y-72940057D02*
X110934523Y-72892438D01*
X110934523Y-72892438D02*
X110839285Y-72797200D01*
X110839285Y-72797200D02*
X110696428Y-72654342D01*
X110696428Y-72654342D02*
X110601190Y-72606723D01*
X110601190Y-72606723D02*
X110505952Y-72606723D01*
X110553571Y-72844819D02*
X110458333Y-72797200D01*
X110458333Y-72797200D02*
X110363095Y-72701961D01*
X110363095Y-72701961D02*
X110315476Y-72511485D01*
X110315476Y-72511485D02*
X110315476Y-72178152D01*
X110315476Y-72178152D02*
X110363095Y-71987676D01*
X110363095Y-71987676D02*
X110458333Y-71892438D01*
X110458333Y-71892438D02*
X110553571Y-71844819D01*
X110553571Y-71844819D02*
X110744047Y-71844819D01*
X110744047Y-71844819D02*
X110839285Y-71892438D01*
X110839285Y-71892438D02*
X110934523Y-71987676D01*
X110934523Y-71987676D02*
X110982142Y-72178152D01*
X110982142Y-72178152D02*
X110982142Y-72511485D01*
X110982142Y-72511485D02*
X110934523Y-72701961D01*
X110934523Y-72701961D02*
X110839285Y-72797200D01*
X110839285Y-72797200D02*
X110744047Y-72844819D01*
X110744047Y-72844819D02*
X110553571Y-72844819D01*
X111553571Y-72273390D02*
X111458333Y-72225771D01*
X111458333Y-72225771D02*
X111410714Y-72178152D01*
X111410714Y-72178152D02*
X111363095Y-72082914D01*
X111363095Y-72082914D02*
X111363095Y-72035295D01*
X111363095Y-72035295D02*
X111410714Y-71940057D01*
X111410714Y-71940057D02*
X111458333Y-71892438D01*
X111458333Y-71892438D02*
X111553571Y-71844819D01*
X111553571Y-71844819D02*
X111744047Y-71844819D01*
X111744047Y-71844819D02*
X111839285Y-71892438D01*
X111839285Y-71892438D02*
X111886904Y-71940057D01*
X111886904Y-71940057D02*
X111934523Y-72035295D01*
X111934523Y-72035295D02*
X111934523Y-72082914D01*
X111934523Y-72082914D02*
X111886904Y-72178152D01*
X111886904Y-72178152D02*
X111839285Y-72225771D01*
X111839285Y-72225771D02*
X111744047Y-72273390D01*
X111744047Y-72273390D02*
X111553571Y-72273390D01*
X111553571Y-72273390D02*
X111458333Y-72321009D01*
X111458333Y-72321009D02*
X111410714Y-72368628D01*
X111410714Y-72368628D02*
X111363095Y-72463866D01*
X111363095Y-72463866D02*
X111363095Y-72654342D01*
X111363095Y-72654342D02*
X111410714Y-72749580D01*
X111410714Y-72749580D02*
X111458333Y-72797200D01*
X111458333Y-72797200D02*
X111553571Y-72844819D01*
X111553571Y-72844819D02*
X111744047Y-72844819D01*
X111744047Y-72844819D02*
X111839285Y-72797200D01*
X111839285Y-72797200D02*
X111886904Y-72749580D01*
X111886904Y-72749580D02*
X111934523Y-72654342D01*
X111934523Y-72654342D02*
X111934523Y-72463866D01*
X111934523Y-72463866D02*
X111886904Y-72368628D01*
X111886904Y-72368628D02*
X111839285Y-72321009D01*
X111839285Y-72321009D02*
X111744047Y-72273390D01*
X87693571Y-73825057D02*
X87598333Y-73777438D01*
X87598333Y-73777438D02*
X87503095Y-73682200D01*
X87503095Y-73682200D02*
X87360238Y-73539342D01*
X87360238Y-73539342D02*
X87265000Y-73491723D01*
X87265000Y-73491723D02*
X87169762Y-73491723D01*
X87217381Y-73729819D02*
X87122143Y-73682200D01*
X87122143Y-73682200D02*
X87026905Y-73586961D01*
X87026905Y-73586961D02*
X86979286Y-73396485D01*
X86979286Y-73396485D02*
X86979286Y-73063152D01*
X86979286Y-73063152D02*
X87026905Y-72872676D01*
X87026905Y-72872676D02*
X87122143Y-72777438D01*
X87122143Y-72777438D02*
X87217381Y-72729819D01*
X87217381Y-72729819D02*
X87407857Y-72729819D01*
X87407857Y-72729819D02*
X87503095Y-72777438D01*
X87503095Y-72777438D02*
X87598333Y-72872676D01*
X87598333Y-72872676D02*
X87645952Y-73063152D01*
X87645952Y-73063152D02*
X87645952Y-73396485D01*
X87645952Y-73396485D02*
X87598333Y-73586961D01*
X87598333Y-73586961D02*
X87503095Y-73682200D01*
X87503095Y-73682200D02*
X87407857Y-73729819D01*
X87407857Y-73729819D02*
X87217381Y-73729819D01*
X88598333Y-73729819D02*
X88026905Y-73729819D01*
X88312619Y-73729819D02*
X88312619Y-72729819D01*
X88312619Y-72729819D02*
X88217381Y-72872676D01*
X88217381Y-72872676D02*
X88122143Y-72967914D01*
X88122143Y-72967914D02*
X88026905Y-73015533D01*
X89550714Y-73729819D02*
X88979286Y-73729819D01*
X89265000Y-73729819D02*
X89265000Y-72729819D01*
X89265000Y-72729819D02*
X89169762Y-72872676D01*
X89169762Y-72872676D02*
X89074524Y-72967914D01*
X89074524Y-72967914D02*
X88979286Y-73015533D01*
X93813333Y-125454580D02*
X93765714Y-125502200D01*
X93765714Y-125502200D02*
X93622857Y-125549819D01*
X93622857Y-125549819D02*
X93527619Y-125549819D01*
X93527619Y-125549819D02*
X93384762Y-125502200D01*
X93384762Y-125502200D02*
X93289524Y-125406961D01*
X93289524Y-125406961D02*
X93241905Y-125311723D01*
X93241905Y-125311723D02*
X93194286Y-125121247D01*
X93194286Y-125121247D02*
X93194286Y-124978390D01*
X93194286Y-124978390D02*
X93241905Y-124787914D01*
X93241905Y-124787914D02*
X93289524Y-124692676D01*
X93289524Y-124692676D02*
X93384762Y-124597438D01*
X93384762Y-124597438D02*
X93527619Y-124549819D01*
X93527619Y-124549819D02*
X93622857Y-124549819D01*
X93622857Y-124549819D02*
X93765714Y-124597438D01*
X93765714Y-124597438D02*
X93813333Y-124645057D01*
X94718095Y-124549819D02*
X94241905Y-124549819D01*
X94241905Y-124549819D02*
X94194286Y-125026009D01*
X94194286Y-125026009D02*
X94241905Y-124978390D01*
X94241905Y-124978390D02*
X94337143Y-124930771D01*
X94337143Y-124930771D02*
X94575238Y-124930771D01*
X94575238Y-124930771D02*
X94670476Y-124978390D01*
X94670476Y-124978390D02*
X94718095Y-125026009D01*
X94718095Y-125026009D02*
X94765714Y-125121247D01*
X94765714Y-125121247D02*
X94765714Y-125359342D01*
X94765714Y-125359342D02*
X94718095Y-125454580D01*
X94718095Y-125454580D02*
X94670476Y-125502200D01*
X94670476Y-125502200D02*
X94575238Y-125549819D01*
X94575238Y-125549819D02*
X94337143Y-125549819D01*
X94337143Y-125549819D02*
X94241905Y-125502200D01*
X94241905Y-125502200D02*
X94194286Y-125454580D01*
X84288333Y-88719819D02*
X83955000Y-88243628D01*
X83716905Y-88719819D02*
X83716905Y-87719819D01*
X83716905Y-87719819D02*
X84097857Y-87719819D01*
X84097857Y-87719819D02*
X84193095Y-87767438D01*
X84193095Y-87767438D02*
X84240714Y-87815057D01*
X84240714Y-87815057D02*
X84288333Y-87910295D01*
X84288333Y-87910295D02*
X84288333Y-88053152D01*
X84288333Y-88053152D02*
X84240714Y-88148390D01*
X84240714Y-88148390D02*
X84193095Y-88196009D01*
X84193095Y-88196009D02*
X84097857Y-88243628D01*
X84097857Y-88243628D02*
X83716905Y-88243628D01*
X84859762Y-88148390D02*
X84764524Y-88100771D01*
X84764524Y-88100771D02*
X84716905Y-88053152D01*
X84716905Y-88053152D02*
X84669286Y-87957914D01*
X84669286Y-87957914D02*
X84669286Y-87910295D01*
X84669286Y-87910295D02*
X84716905Y-87815057D01*
X84716905Y-87815057D02*
X84764524Y-87767438D01*
X84764524Y-87767438D02*
X84859762Y-87719819D01*
X84859762Y-87719819D02*
X85050238Y-87719819D01*
X85050238Y-87719819D02*
X85145476Y-87767438D01*
X85145476Y-87767438D02*
X85193095Y-87815057D01*
X85193095Y-87815057D02*
X85240714Y-87910295D01*
X85240714Y-87910295D02*
X85240714Y-87957914D01*
X85240714Y-87957914D02*
X85193095Y-88053152D01*
X85193095Y-88053152D02*
X85145476Y-88100771D01*
X85145476Y-88100771D02*
X85050238Y-88148390D01*
X85050238Y-88148390D02*
X84859762Y-88148390D01*
X84859762Y-88148390D02*
X84764524Y-88196009D01*
X84764524Y-88196009D02*
X84716905Y-88243628D01*
X84716905Y-88243628D02*
X84669286Y-88338866D01*
X84669286Y-88338866D02*
X84669286Y-88529342D01*
X84669286Y-88529342D02*
X84716905Y-88624580D01*
X84716905Y-88624580D02*
X84764524Y-88672200D01*
X84764524Y-88672200D02*
X84859762Y-88719819D01*
X84859762Y-88719819D02*
X85050238Y-88719819D01*
X85050238Y-88719819D02*
X85145476Y-88672200D01*
X85145476Y-88672200D02*
X85193095Y-88624580D01*
X85193095Y-88624580D02*
X85240714Y-88529342D01*
X85240714Y-88529342D02*
X85240714Y-88338866D01*
X85240714Y-88338866D02*
X85193095Y-88243628D01*
X85193095Y-88243628D02*
X85145476Y-88196009D01*
X85145476Y-88196009D02*
X85050238Y-88148390D01*
X84667020Y-79993817D02*
X84190829Y-80327150D01*
X84667020Y-80565245D02*
X83667020Y-80565245D01*
X83667020Y-80565245D02*
X83667020Y-80184293D01*
X83667020Y-80184293D02*
X83714639Y-80089055D01*
X83714639Y-80089055D02*
X83762258Y-80041436D01*
X83762258Y-80041436D02*
X83857496Y-79993817D01*
X83857496Y-79993817D02*
X84000353Y-79993817D01*
X84000353Y-79993817D02*
X84095591Y-80041436D01*
X84095591Y-80041436D02*
X84143210Y-80089055D01*
X84143210Y-80089055D02*
X84190829Y-80184293D01*
X84190829Y-80184293D02*
X84190829Y-80565245D01*
X84667020Y-79041436D02*
X84667020Y-79612864D01*
X84667020Y-79327150D02*
X83667020Y-79327150D01*
X83667020Y-79327150D02*
X83809877Y-79422388D01*
X83809877Y-79422388D02*
X83905115Y-79517626D01*
X83905115Y-79517626D02*
X83952734Y-79612864D01*
X83667020Y-78708102D02*
X83667020Y-78089055D01*
X83667020Y-78089055D02*
X84047972Y-78422388D01*
X84047972Y-78422388D02*
X84047972Y-78279531D01*
X84047972Y-78279531D02*
X84095591Y-78184293D01*
X84095591Y-78184293D02*
X84143210Y-78136674D01*
X84143210Y-78136674D02*
X84238448Y-78089055D01*
X84238448Y-78089055D02*
X84476543Y-78089055D01*
X84476543Y-78089055D02*
X84571781Y-78136674D01*
X84571781Y-78136674D02*
X84619401Y-78184293D01*
X84619401Y-78184293D02*
X84667020Y-78279531D01*
X84667020Y-78279531D02*
X84667020Y-78565245D01*
X84667020Y-78565245D02*
X84619401Y-78660483D01*
X84619401Y-78660483D02*
X84571781Y-78708102D01*
X114754819Y-55348094D02*
X113754819Y-55348094D01*
X113754819Y-55348094D02*
X113754819Y-55109999D01*
X113754819Y-55109999D02*
X113802438Y-54967142D01*
X113802438Y-54967142D02*
X113897676Y-54871904D01*
X113897676Y-54871904D02*
X113992914Y-54824285D01*
X113992914Y-54824285D02*
X114183390Y-54776666D01*
X114183390Y-54776666D02*
X114326247Y-54776666D01*
X114326247Y-54776666D02*
X114516723Y-54824285D01*
X114516723Y-54824285D02*
X114611961Y-54871904D01*
X114611961Y-54871904D02*
X114707200Y-54967142D01*
X114707200Y-54967142D02*
X114754819Y-55109999D01*
X114754819Y-55109999D02*
X114754819Y-55348094D01*
X113754819Y-54443332D02*
X113754819Y-53824285D01*
X113754819Y-53824285D02*
X114135771Y-54157618D01*
X114135771Y-54157618D02*
X114135771Y-54014761D01*
X114135771Y-54014761D02*
X114183390Y-53919523D01*
X114183390Y-53919523D02*
X114231009Y-53871904D01*
X114231009Y-53871904D02*
X114326247Y-53824285D01*
X114326247Y-53824285D02*
X114564342Y-53824285D01*
X114564342Y-53824285D02*
X114659580Y-53871904D01*
X114659580Y-53871904D02*
X114707200Y-53919523D01*
X114707200Y-53919523D02*
X114754819Y-54014761D01*
X114754819Y-54014761D02*
X114754819Y-54300475D01*
X114754819Y-54300475D02*
X114707200Y-54395713D01*
X114707200Y-54395713D02*
X114659580Y-54443332D01*
X112854819Y-59316904D02*
X111854819Y-59316904D01*
X112854819Y-58745476D02*
X112283390Y-59174047D01*
X111854819Y-58745476D02*
X112426247Y-59316904D01*
X108643809Y-109198628D02*
X108643809Y-109674819D01*
X108310476Y-108674819D02*
X108643809Y-109198628D01*
X108643809Y-109198628D02*
X108977142Y-108674819D01*
X109834285Y-109674819D02*
X109262857Y-109674819D01*
X109548571Y-109674819D02*
X109548571Y-108674819D01*
X109548571Y-108674819D02*
X109453333Y-108817676D01*
X109453333Y-108817676D02*
X109358095Y-108912914D01*
X109358095Y-108912914D02*
X109262857Y-108960533D01*
X82831666Y-47714819D02*
X82831666Y-48429104D01*
X82831666Y-48429104D02*
X82784047Y-48571961D01*
X82784047Y-48571961D02*
X82688809Y-48667200D01*
X82688809Y-48667200D02*
X82545952Y-48714819D01*
X82545952Y-48714819D02*
X82450714Y-48714819D01*
X83260238Y-47810057D02*
X83307857Y-47762438D01*
X83307857Y-47762438D02*
X83403095Y-47714819D01*
X83403095Y-47714819D02*
X83641190Y-47714819D01*
X83641190Y-47714819D02*
X83736428Y-47762438D01*
X83736428Y-47762438D02*
X83784047Y-47810057D01*
X83784047Y-47810057D02*
X83831666Y-47905295D01*
X83831666Y-47905295D02*
X83831666Y-48000533D01*
X83831666Y-48000533D02*
X83784047Y-48143390D01*
X83784047Y-48143390D02*
X83212619Y-48714819D01*
X83212619Y-48714819D02*
X83831666Y-48714819D01*
X105418095Y-116564580D02*
X105370476Y-116612200D01*
X105370476Y-116612200D02*
X105227619Y-116659819D01*
X105227619Y-116659819D02*
X105132381Y-116659819D01*
X105132381Y-116659819D02*
X104989524Y-116612200D01*
X104989524Y-116612200D02*
X104894286Y-116516961D01*
X104894286Y-116516961D02*
X104846667Y-116421723D01*
X104846667Y-116421723D02*
X104799048Y-116231247D01*
X104799048Y-116231247D02*
X104799048Y-116088390D01*
X104799048Y-116088390D02*
X104846667Y-115897914D01*
X104846667Y-115897914D02*
X104894286Y-115802676D01*
X104894286Y-115802676D02*
X104989524Y-115707438D01*
X104989524Y-115707438D02*
X105132381Y-115659819D01*
X105132381Y-115659819D02*
X105227619Y-115659819D01*
X105227619Y-115659819D02*
X105370476Y-115707438D01*
X105370476Y-115707438D02*
X105418095Y-115755057D01*
X106370476Y-116659819D02*
X105799048Y-116659819D01*
X106084762Y-116659819D02*
X106084762Y-115659819D01*
X106084762Y-115659819D02*
X105989524Y-115802676D01*
X105989524Y-115802676D02*
X105894286Y-115897914D01*
X105894286Y-115897914D02*
X105799048Y-115945533D01*
X106799048Y-116278866D02*
X107560953Y-116278866D01*
X107989524Y-115755057D02*
X108037143Y-115707438D01*
X108037143Y-115707438D02*
X108132381Y-115659819D01*
X108132381Y-115659819D02*
X108370476Y-115659819D01*
X108370476Y-115659819D02*
X108465714Y-115707438D01*
X108465714Y-115707438D02*
X108513333Y-115755057D01*
X108513333Y-115755057D02*
X108560952Y-115850295D01*
X108560952Y-115850295D02*
X108560952Y-115945533D01*
X108560952Y-115945533D02*
X108513333Y-116088390D01*
X108513333Y-116088390D02*
X107941905Y-116659819D01*
X107941905Y-116659819D02*
X108560952Y-116659819D01*
X109212142Y-93164819D02*
X108878809Y-92688628D01*
X108640714Y-93164819D02*
X108640714Y-92164819D01*
X108640714Y-92164819D02*
X109021666Y-92164819D01*
X109021666Y-92164819D02*
X109116904Y-92212438D01*
X109116904Y-92212438D02*
X109164523Y-92260057D01*
X109164523Y-92260057D02*
X109212142Y-92355295D01*
X109212142Y-92355295D02*
X109212142Y-92498152D01*
X109212142Y-92498152D02*
X109164523Y-92593390D01*
X109164523Y-92593390D02*
X109116904Y-92641009D01*
X109116904Y-92641009D02*
X109021666Y-92688628D01*
X109021666Y-92688628D02*
X108640714Y-92688628D01*
X110164523Y-93164819D02*
X109593095Y-93164819D01*
X109878809Y-93164819D02*
X109878809Y-92164819D01*
X109878809Y-92164819D02*
X109783571Y-92307676D01*
X109783571Y-92307676D02*
X109688333Y-92402914D01*
X109688333Y-92402914D02*
X109593095Y-92450533D01*
X110735952Y-92593390D02*
X110640714Y-92545771D01*
X110640714Y-92545771D02*
X110593095Y-92498152D01*
X110593095Y-92498152D02*
X110545476Y-92402914D01*
X110545476Y-92402914D02*
X110545476Y-92355295D01*
X110545476Y-92355295D02*
X110593095Y-92260057D01*
X110593095Y-92260057D02*
X110640714Y-92212438D01*
X110640714Y-92212438D02*
X110735952Y-92164819D01*
X110735952Y-92164819D02*
X110926428Y-92164819D01*
X110926428Y-92164819D02*
X111021666Y-92212438D01*
X111021666Y-92212438D02*
X111069285Y-92260057D01*
X111069285Y-92260057D02*
X111116904Y-92355295D01*
X111116904Y-92355295D02*
X111116904Y-92402914D01*
X111116904Y-92402914D02*
X111069285Y-92498152D01*
X111069285Y-92498152D02*
X111021666Y-92545771D01*
X111021666Y-92545771D02*
X110926428Y-92593390D01*
X110926428Y-92593390D02*
X110735952Y-92593390D01*
X110735952Y-92593390D02*
X110640714Y-92641009D01*
X110640714Y-92641009D02*
X110593095Y-92688628D01*
X110593095Y-92688628D02*
X110545476Y-92783866D01*
X110545476Y-92783866D02*
X110545476Y-92974342D01*
X110545476Y-92974342D02*
X110593095Y-93069580D01*
X110593095Y-93069580D02*
X110640714Y-93117200D01*
X110640714Y-93117200D02*
X110735952Y-93164819D01*
X110735952Y-93164819D02*
X110926428Y-93164819D01*
X110926428Y-93164819D02*
X111021666Y-93117200D01*
X111021666Y-93117200D02*
X111069285Y-93069580D01*
X111069285Y-93069580D02*
X111116904Y-92974342D01*
X111116904Y-92974342D02*
X111116904Y-92783866D01*
X111116904Y-92783866D02*
X111069285Y-92688628D01*
X111069285Y-92688628D02*
X111021666Y-92641009D01*
X111021666Y-92641009D02*
X110926428Y-92593390D01*
D11*
%TO.C,D11*%
X72210000Y-56950000D02*
X77650000Y-56950000D01*
X72210000Y-57280000D02*
X72210000Y-56950000D01*
X72210000Y-59560000D02*
X72210000Y-59890000D01*
X72210000Y-59890000D02*
X77650000Y-59890000D01*
X72990000Y-56950000D02*
X72990000Y-59890000D01*
X73110000Y-56950000D02*
X73110000Y-59890000D01*
X73230000Y-56950000D02*
X73230000Y-59890000D01*
X77650000Y-56950000D02*
X77650000Y-57280000D01*
X77650000Y-59890000D02*
X77650000Y-59560000D01*
%TO.C,J9*%
X77410000Y-136585000D02*
X77410000Y-135255000D01*
X78740000Y-136585000D02*
X77410000Y-136585000D01*
X80010000Y-136585000D02*
X87690000Y-136585000D01*
X80010000Y-136585000D02*
X80010000Y-133925000D01*
X87690000Y-136585000D02*
X87690000Y-133925000D01*
X80010000Y-133925000D02*
X87690000Y-133925000D01*
%TO.C,Q6*%
X85940000Y-71160000D02*
X90581000Y-71160000D01*
X85940000Y-71160000D02*
X85940000Y-60920000D01*
X87450000Y-71160000D02*
X87450000Y-60920000D01*
X90581000Y-71160000D02*
X90581000Y-60920000D01*
X85940000Y-67890000D02*
X87450000Y-67890000D01*
X85940000Y-64189000D02*
X87450000Y-64189000D01*
X85940000Y-60920000D02*
X90581000Y-60920000D01*
%TO.C,Q5*%
X104990000Y-71160000D02*
X109631000Y-71160000D01*
X104990000Y-71160000D02*
X104990000Y-60920000D01*
X106500000Y-71160000D02*
X106500000Y-60920000D01*
X109631000Y-71160000D02*
X109631000Y-60920000D01*
X104990000Y-67890000D02*
X106500000Y-67890000D01*
X104990000Y-64189000D02*
X106500000Y-64189000D01*
X104990000Y-60920000D02*
X109631000Y-60920000D01*
%TO.C,Q3*%
X80225000Y-71160000D02*
X84866000Y-71160000D01*
X80225000Y-71160000D02*
X80225000Y-60920000D01*
X81735000Y-71160000D02*
X81735000Y-60920000D01*
X84866000Y-71160000D02*
X84866000Y-60920000D01*
X80225000Y-67890000D02*
X81735000Y-67890000D01*
X80225000Y-64189000D02*
X81735000Y-64189000D01*
X80225000Y-60920000D02*
X84866000Y-60920000D01*
%TO.C,R4*%
X68253668Y-75390051D02*
X68253668Y-76160051D01*
X69623668Y-76160051D02*
X66883668Y-76160051D01*
X66883668Y-76160051D02*
X66883668Y-82700051D01*
X69623668Y-82700051D02*
X69623668Y-76160051D01*
X66883668Y-82700051D02*
X69623668Y-82700051D01*
X68253668Y-83470051D02*
X68253668Y-82700051D01*
%TO.C,C7*%
X86150000Y-54510000D02*
X83410000Y-54510000D01*
X86150000Y-54510000D02*
X86150000Y-59750000D01*
X83410000Y-54510000D02*
X83410000Y-59750000D01*
X86150000Y-59750000D02*
X83410000Y-59750000D01*
%TO.C,Q9*%
X74075000Y-78410000D02*
X77675000Y-78410000D01*
X75875000Y-73960000D02*
G75*
G03*
X74036522Y-78398478I0J-2600000D01*
G01*
X77713478Y-78398478D02*
G75*
G03*
X75875000Y-73960000I-1838478J1838478D01*
G01*
%TO.C,C6*%
X82975000Y-54510000D02*
X80235000Y-54510000D01*
X82975000Y-54510000D02*
X82975000Y-59750000D01*
X80235000Y-54510000D02*
X80235000Y-59750000D01*
X82975000Y-59750000D02*
X80235000Y-59750000D01*
%TO.C,R7*%
X106355000Y-82780000D02*
X106355000Y-82010000D01*
X104985000Y-82010000D02*
X107725000Y-82010000D01*
X107725000Y-82010000D02*
X107725000Y-75470000D01*
X104985000Y-75470000D02*
X104985000Y-82010000D01*
X107725000Y-75470000D02*
X104985000Y-75470000D01*
X106355000Y-74700000D02*
X106355000Y-75470000D01*
%TO.C,Q12*%
X86775000Y-85035000D02*
X90375000Y-85035000D01*
X88575000Y-80585000D02*
G75*
G03*
X86736522Y-85023478I0J-2600000D01*
G01*
X90413478Y-85023478D02*
G75*
G03*
X88575000Y-80585000I-1838478J1838478D01*
G01*
%TO.C,Q14*%
X99475000Y-85035000D02*
X103075000Y-85035000D01*
X101275000Y-80585000D02*
G75*
G03*
X99436522Y-85023478I0J-2600000D01*
G01*
X103113478Y-85023478D02*
G75*
G03*
X101275000Y-80585000I-1838478J1838478D01*
G01*
%TO.C,R5*%
X80955000Y-83415000D02*
X80955000Y-82645000D01*
X79585000Y-82645000D02*
X82325000Y-82645000D01*
X82325000Y-82645000D02*
X82325000Y-76105000D01*
X79585000Y-76105000D02*
X79585000Y-82645000D01*
X82325000Y-76105000D02*
X79585000Y-76105000D01*
X80955000Y-75335000D02*
X80955000Y-76105000D01*
%TO.C,JP3*%
X114600000Y-49675000D02*
X114000000Y-49675000D01*
X113300000Y-48975000D02*
X113300000Y-47575000D01*
X115300000Y-47575000D02*
X115300000Y-48975000D01*
X114000000Y-46875000D02*
X114600000Y-46875000D01*
X113300000Y-48975000D02*
G75*
G03*
X114000000Y-49675000I699999J-1D01*
G01*
X114600000Y-49675000D02*
G75*
G03*
X115300000Y-48975000I1J699999D01*
G01*
X114000000Y-46875000D02*
G75*
G03*
X113300000Y-47575000I0J-700000D01*
G01*
X115300000Y-47575000D02*
G75*
G03*
X114600000Y-46875000I-700000J0D01*
G01*
%TO.C,Q15*%
X112175000Y-78050000D02*
X115775000Y-78050000D01*
X113975000Y-73600000D02*
G75*
G03*
X112136522Y-78038478I0J-2600000D01*
G01*
X115813478Y-78038478D02*
G75*
G03*
X113975000Y-73600000I-1838478J1838478D01*
G01*
%TO.C,D12*%
X69650000Y-54155000D02*
X69650000Y-48715000D01*
X69980000Y-54155000D02*
X69650000Y-54155000D01*
X72260000Y-54155000D02*
X72590000Y-54155000D01*
X72590000Y-54155000D02*
X72590000Y-48715000D01*
X69650000Y-53375000D02*
X72590000Y-53375000D01*
X69650000Y-53255000D02*
X72590000Y-53255000D01*
X69650000Y-53135000D02*
X72590000Y-53135000D01*
X69650000Y-48715000D02*
X69980000Y-48715000D01*
X72590000Y-48715000D02*
X72260000Y-48715000D01*
%TO.C,Q1*%
X67670000Y-71160000D02*
X72311000Y-71160000D01*
X67670000Y-71160000D02*
X67670000Y-60920000D01*
X69180000Y-71160000D02*
X69180000Y-60920000D01*
X72311000Y-71160000D02*
X72311000Y-60920000D01*
X67670000Y-67890000D02*
X69180000Y-67890000D01*
X67670000Y-64189000D02*
X69180000Y-64189000D01*
X67670000Y-60920000D02*
X72311000Y-60920000D01*
%TO.C,R15*%
X96830000Y-82780000D02*
X96830000Y-82010000D01*
X95460000Y-82010000D02*
X98200000Y-82010000D01*
X98200000Y-82010000D02*
X98200000Y-75470000D01*
X95460000Y-75470000D02*
X95460000Y-82010000D01*
X98200000Y-75470000D02*
X95460000Y-75470000D01*
X96830000Y-74700000D02*
X96830000Y-75470000D01*
%TO.C,Q2*%
X73240000Y-71160000D02*
X77881000Y-71160000D01*
X73240000Y-71160000D02*
X73240000Y-60920000D01*
X74750000Y-71160000D02*
X74750000Y-60920000D01*
X77881000Y-71160000D02*
X77881000Y-60920000D01*
X73240000Y-67890000D02*
X74750000Y-67890000D01*
X73240000Y-64189000D02*
X74750000Y-64189000D01*
X73240000Y-60920000D02*
X77881000Y-60920000D01*
%TO.C,R11*%
X71430000Y-83415000D02*
X71430000Y-82645000D01*
X70060000Y-82645000D02*
X72800000Y-82645000D01*
X72800000Y-82645000D02*
X72800000Y-76105000D01*
X70060000Y-76105000D02*
X70060000Y-82645000D01*
X72800000Y-76105000D02*
X70060000Y-76105000D01*
X71430000Y-75335000D02*
X71430000Y-76105000D01*
%TO.C,R17*%
X109530000Y-82780000D02*
X109530000Y-82010000D01*
X108160000Y-82010000D02*
X110900000Y-82010000D01*
X110900000Y-82010000D02*
X110900000Y-75470000D01*
X108160000Y-75470000D02*
X108160000Y-82010000D01*
X110900000Y-75470000D02*
X108160000Y-75470000D01*
X109530000Y-74700000D02*
X109530000Y-75470000D01*
%TO.C,JP5*%
X75265000Y-99580000D02*
X75865000Y-99580000D01*
X76565000Y-100280000D02*
X76565000Y-101680000D01*
X74565000Y-101680000D02*
X74565000Y-100280000D01*
X75865000Y-102380000D02*
X75265000Y-102380000D01*
X76565000Y-100280000D02*
G75*
G03*
X75865000Y-99580000I-699999J1D01*
G01*
X75265000Y-99580000D02*
G75*
G03*
X74565000Y-100280000I-1J-699999D01*
G01*
X75865000Y-102380000D02*
G75*
G03*
X76565000Y-101680000I0J700000D01*
G01*
X74565000Y-101680000D02*
G75*
G03*
X75265000Y-102380000I700000J0D01*
G01*
%TO.C,D6*%
X113845000Y-133550000D02*
X108405000Y-133550000D01*
X113845000Y-133220000D02*
X113845000Y-133550000D01*
X113845000Y-130940000D02*
X113845000Y-130610000D01*
X113845000Y-130610000D02*
X108405000Y-130610000D01*
X113065000Y-133550000D02*
X113065000Y-130610000D01*
X112945000Y-133550000D02*
X112945000Y-130610000D01*
X112825000Y-133550000D02*
X112825000Y-130610000D01*
X108405000Y-133550000D02*
X108405000Y-133220000D01*
X108405000Y-130610000D02*
X108405000Y-130940000D01*
%TO.C,R6*%
X93655000Y-74700000D02*
X93655000Y-75470000D01*
X95025000Y-75470000D02*
X92285000Y-75470000D01*
X92285000Y-75470000D02*
X92285000Y-82010000D01*
X95025000Y-82010000D02*
X95025000Y-75470000D01*
X92285000Y-82010000D02*
X95025000Y-82010000D01*
X93655000Y-82780000D02*
X93655000Y-82010000D01*
%TO.C,R16*%
X93115000Y-92710000D02*
X93885000Y-92710000D01*
X93885000Y-91340000D02*
X93885000Y-94080000D01*
X93885000Y-94080000D02*
X100425000Y-94080000D01*
X100425000Y-91340000D02*
X93885000Y-91340000D01*
X100425000Y-94080000D02*
X100425000Y-91340000D01*
X101195000Y-92710000D02*
X100425000Y-92710000D01*
%TO.C,JP4*%
X110790000Y-49675000D02*
X110190000Y-49675000D01*
X109490000Y-48975000D02*
X109490000Y-47575000D01*
X111490000Y-47575000D02*
X111490000Y-48975000D01*
X110190000Y-46875000D02*
X110790000Y-46875000D01*
X109490000Y-48975000D02*
G75*
G03*
X110190000Y-49675000I699999J-1D01*
G01*
X110790000Y-49675000D02*
G75*
G03*
X111490000Y-48975000I1J699999D01*
G01*
X110190000Y-46875000D02*
G75*
G03*
X109490000Y-47575000I0J-700000D01*
G01*
X111490000Y-47575000D02*
G75*
G03*
X110790000Y-46875000I-700000J0D01*
G01*
%TO.C,R12*%
X67715000Y-92710000D02*
X68485000Y-92710000D01*
X68485000Y-91340000D02*
X68485000Y-94080000D01*
X68485000Y-94080000D02*
X75025000Y-94080000D01*
X75025000Y-91340000D02*
X68485000Y-91340000D01*
X75025000Y-94080000D02*
X75025000Y-91340000D01*
X75795000Y-92710000D02*
X75025000Y-92710000D01*
%TO.C,J1*%
X106660000Y-119160000D02*
X105920000Y-119160000D01*
X105920000Y-119160000D02*
X105920000Y-119660000D01*
X116081000Y-119400000D02*
X106160000Y-119400000D01*
X116081000Y-119400000D02*
X116081000Y-129520000D01*
X113121000Y-119400000D02*
X113121000Y-129520000D01*
X108220000Y-119400000D02*
X108220000Y-129520000D01*
X106720000Y-119400000D02*
X106720000Y-129520000D01*
X106160000Y-119400000D02*
X106160000Y-129520000D01*
X109797000Y-125733000D02*
X109751000Y-125686000D01*
X109581000Y-125926000D02*
X109546000Y-125891000D01*
X112095000Y-128030000D02*
X112059000Y-127995000D01*
X111889000Y-128235000D02*
X111843000Y-128188000D01*
X116081000Y-129520000D02*
X106160000Y-129520000D01*
X111503999Y-120425001D02*
G75*
G03*
X110136958Y-120424574I-684000J-1534992D01*
G01*
X112354999Y-122643999D02*
G75*
G03*
X112355426Y-121276958I-1534992J684000D01*
G01*
X109285001Y-121276000D02*
G75*
G03*
X109139748Y-121988805I1535000J-683999D01*
G01*
X109140001Y-121960000D02*
G75*
G03*
X109285245Y-122643318I1679999J0D01*
G01*
X110136000Y-123495000D02*
G75*
G03*
X111503042Y-123495426I684000J1535000D01*
G01*
X112500000Y-126960000D02*
G75*
G03*
X112500000Y-126960000I-1680000J0D01*
G01*
%TO.C,Q13*%
X99475000Y-78050000D02*
X103075000Y-78050000D01*
X101275000Y-73600000D02*
G75*
G03*
X99436522Y-78038478I0J-2600000D01*
G01*
X103113478Y-78038478D02*
G75*
G03*
X101275000Y-73600000I-1838478J1838478D01*
G01*
%TO.C,JP8*%
X109555000Y-99550000D02*
X110155000Y-99550000D01*
X110855000Y-100250000D02*
X110855000Y-101650000D01*
X108855000Y-101650000D02*
X108855000Y-100250000D01*
X110155000Y-102350000D02*
X109555000Y-102350000D01*
X110855000Y-100250000D02*
G75*
G03*
X110155000Y-99550000I-699999J1D01*
G01*
X109555000Y-99550000D02*
G75*
G03*
X108855000Y-100250000I-1J-699999D01*
G01*
X110155000Y-102350000D02*
G75*
G03*
X110855000Y-101650000I0J700000D01*
G01*
X108855000Y-101650000D02*
G75*
G03*
X109555000Y-102350000I700000J0D01*
G01*
%TO.C,U2*%
X65850000Y-128945000D02*
X81740000Y-128945000D01*
X65850000Y-128945000D02*
X65850000Y-118705000D01*
X81740000Y-128945000D02*
X81740000Y-118705000D01*
X81740000Y-126365000D02*
X84280000Y-126365000D01*
X81740000Y-123825000D02*
X84280000Y-123825000D01*
X81740000Y-121285000D02*
X84280000Y-121285000D01*
X65850000Y-118705000D02*
X81740000Y-118705000D01*
%TO.C,C9*%
X78965000Y-103372349D02*
X78965000Y-102572349D01*
X78565000Y-102972349D02*
X79365000Y-102972349D01*
X77200000Y-98962651D02*
X85360000Y-98962651D01*
X77200000Y-98922651D02*
X85360000Y-98922651D01*
X77200000Y-98882651D02*
X85360000Y-98882651D01*
X77201000Y-98842651D02*
X85359000Y-98842651D01*
X77203000Y-98802651D02*
X85357000Y-98802651D01*
X77204000Y-98762651D02*
X85356000Y-98762651D01*
X77206000Y-98722651D02*
X85354000Y-98722651D01*
X77209000Y-98682651D02*
X85351000Y-98682651D01*
X77212000Y-98642651D02*
X85348000Y-98642651D01*
X77215000Y-98602651D02*
X85345000Y-98602651D01*
X77219000Y-98562651D02*
X85341000Y-98562651D01*
X77223000Y-98522651D02*
X85337000Y-98522651D01*
X77228000Y-98482651D02*
X85332000Y-98482651D01*
X77232000Y-98442651D02*
X85328000Y-98442651D01*
X77238000Y-98402651D02*
X85322000Y-98402651D01*
X77243000Y-98362651D02*
X85317000Y-98362651D01*
X77250000Y-98322651D02*
X85310000Y-98322651D01*
X77256000Y-98282651D02*
X85304000Y-98282651D01*
X77263000Y-98241651D02*
X85297000Y-98241651D01*
X77270000Y-98201651D02*
X85290000Y-98201651D01*
X77278000Y-98161651D02*
X85282000Y-98161651D01*
X77286000Y-98121651D02*
X85274000Y-98121651D01*
X77295000Y-98081651D02*
X80240000Y-98081651D01*
X82320000Y-98081651D02*
X85265000Y-98081651D01*
X77304000Y-98041651D02*
X80240000Y-98041651D01*
X82320000Y-98041651D02*
X85256000Y-98041651D01*
X77313000Y-98001651D02*
X80240000Y-98001651D01*
X82320000Y-98001651D02*
X85247000Y-98001651D01*
X77323000Y-97961651D02*
X80240000Y-97961651D01*
X82320000Y-97961651D02*
X85237000Y-97961651D01*
X77333000Y-97921651D02*
X80240000Y-97921651D01*
X82320000Y-97921651D02*
X85227000Y-97921651D01*
X77344000Y-97881651D02*
X80240000Y-97881651D01*
X82320000Y-97881651D02*
X85216000Y-97881651D01*
X77355000Y-97841651D02*
X80240000Y-97841651D01*
X82320000Y-97841651D02*
X85205000Y-97841651D01*
X77366000Y-97801651D02*
X80240000Y-97801651D01*
X82320000Y-97801651D02*
X85194000Y-97801651D01*
X77378000Y-97761651D02*
X80240000Y-97761651D01*
X82320000Y-97761651D02*
X85182000Y-97761651D01*
X77391000Y-97721651D02*
X80240000Y-97721651D01*
X82320000Y-97721651D02*
X85169000Y-97721651D01*
X77403000Y-97681651D02*
X80240000Y-97681651D01*
X82320000Y-97681651D02*
X85157000Y-97681651D01*
X77417000Y-97641651D02*
X80240000Y-97641651D01*
X82320000Y-97641651D02*
X85143000Y-97641651D01*
X77430000Y-97601651D02*
X80240000Y-97601651D01*
X82320000Y-97601651D02*
X85130000Y-97601651D01*
X77445000Y-97561651D02*
X80240000Y-97561651D01*
X82320000Y-97561651D02*
X85115000Y-97561651D01*
X77459000Y-97521651D02*
X80240000Y-97521651D01*
X82320000Y-97521651D02*
X85101000Y-97521651D01*
X77475000Y-97481651D02*
X80240000Y-97481651D01*
X82320000Y-97481651D02*
X85085000Y-97481651D01*
X77490000Y-97441651D02*
X80240000Y-97441651D01*
X82320000Y-97441651D02*
X85070000Y-97441651D01*
X77506000Y-97401651D02*
X80240000Y-97401651D01*
X82320000Y-97401651D02*
X85054000Y-97401651D01*
X77523000Y-97361651D02*
X80240000Y-97361651D01*
X82320000Y-97361651D02*
X85037000Y-97361651D01*
X77540000Y-97321651D02*
X80240000Y-97321651D01*
X82320000Y-97321651D02*
X85020000Y-97321651D01*
X77558000Y-97281651D02*
X80240000Y-97281651D01*
X82320000Y-97281651D02*
X85002000Y-97281651D01*
X77576000Y-97241651D02*
X80240000Y-97241651D01*
X82320000Y-97241651D02*
X84984000Y-97241651D01*
X77594000Y-97201651D02*
X80240000Y-97201651D01*
X82320000Y-97201651D02*
X84966000Y-97201651D01*
X77614000Y-97161651D02*
X80240000Y-97161651D01*
X82320000Y-97161651D02*
X84946000Y-97161651D01*
X77633000Y-97121651D02*
X80240000Y-97121651D01*
X82320000Y-97121651D02*
X84927000Y-97121651D01*
X77653000Y-97081651D02*
X80240000Y-97081651D01*
X82320000Y-97081651D02*
X84907000Y-97081651D01*
X77674000Y-97041651D02*
X80240000Y-97041651D01*
X82320000Y-97041651D02*
X84886000Y-97041651D01*
X77696000Y-97001651D02*
X80240000Y-97001651D01*
X82320000Y-97001651D02*
X84864000Y-97001651D01*
X77718000Y-96961651D02*
X80240000Y-96961651D01*
X82320000Y-96961651D02*
X84842000Y-96961651D01*
X77740000Y-96921651D02*
X80240000Y-96921651D01*
X82320000Y-96921651D02*
X84820000Y-96921651D01*
X77763000Y-96881651D02*
X80240000Y-96881651D01*
X82320000Y-96881651D02*
X84797000Y-96881651D01*
X77787000Y-96841651D02*
X80240000Y-96841651D01*
X82320000Y-96841651D02*
X84773000Y-96841651D01*
X77811000Y-96801651D02*
X80240000Y-96801651D01*
X82320000Y-96801651D02*
X84749000Y-96801651D01*
X77836000Y-96761651D02*
X80240000Y-96761651D01*
X82320000Y-96761651D02*
X84724000Y-96761651D01*
X77862000Y-96721651D02*
X80240000Y-96721651D01*
X82320000Y-96721651D02*
X84698000Y-96721651D01*
X77888000Y-96681651D02*
X80240000Y-96681651D01*
X82320000Y-96681651D02*
X84672000Y-96681651D01*
X77915000Y-96641651D02*
X80240000Y-96641651D01*
X82320000Y-96641651D02*
X84645000Y-96641651D01*
X77942000Y-96601651D02*
X80240000Y-96601651D01*
X82320000Y-96601651D02*
X84618000Y-96601651D01*
X77971000Y-96561651D02*
X80240000Y-96561651D01*
X82320000Y-96561651D02*
X84589000Y-96561651D01*
X78000000Y-96521651D02*
X80240000Y-96521651D01*
X82320000Y-96521651D02*
X84560000Y-96521651D01*
X78030000Y-96481651D02*
X80240000Y-96481651D01*
X82320000Y-96481651D02*
X84530000Y-96481651D01*
X78060000Y-96441651D02*
X80240000Y-96441651D01*
X82320000Y-96441651D02*
X84500000Y-96441651D01*
X78091000Y-96401651D02*
X80240000Y-96401651D01*
X82320000Y-96401651D02*
X84469000Y-96401651D01*
X78124000Y-96361651D02*
X80240000Y-96361651D01*
X82320000Y-96361651D02*
X84436000Y-96361651D01*
X78156000Y-96321651D02*
X80240000Y-96321651D01*
X82320000Y-96321651D02*
X84404000Y-96321651D01*
X78190000Y-96281651D02*
X80240000Y-96281651D01*
X82320000Y-96281651D02*
X84370000Y-96281651D01*
X78225000Y-96241651D02*
X80240000Y-96241651D01*
X82320000Y-96241651D02*
X84335000Y-96241651D01*
X78261000Y-96201651D02*
X80240000Y-96201651D01*
X82320000Y-96201651D02*
X84299000Y-96201651D01*
X78297000Y-96161651D02*
X80240000Y-96161651D01*
X82320000Y-96161651D02*
X84263000Y-96161651D01*
X78335000Y-96121651D02*
X80240000Y-96121651D01*
X82320000Y-96121651D02*
X84225000Y-96121651D01*
X78373000Y-96081651D02*
X80240000Y-96081651D01*
X82320000Y-96081651D02*
X84187000Y-96081651D01*
X78413000Y-96041651D02*
X80240000Y-96041651D01*
X82320000Y-96041651D02*
X84147000Y-96041651D01*
X78454000Y-96001651D02*
X84106000Y-96001651D01*
X78496000Y-95961651D02*
X84064000Y-95961651D01*
X78539000Y-95921651D02*
X84021000Y-95921651D01*
X78583000Y-95881651D02*
X83977000Y-95881651D01*
X78629000Y-95841651D02*
X83931000Y-95841651D01*
X78676000Y-95801651D02*
X83884000Y-95801651D01*
X78724000Y-95761651D02*
X83836000Y-95761651D01*
X78775000Y-95721651D02*
X83785000Y-95721651D01*
X78826000Y-95681651D02*
X83734000Y-95681651D01*
X78880000Y-95641651D02*
X83680000Y-95641651D01*
X78935000Y-95601651D02*
X83625000Y-95601651D01*
X78993000Y-95561651D02*
X83567000Y-95561651D01*
X79052000Y-95521651D02*
X83508000Y-95521651D01*
X79114000Y-95481651D02*
X83446000Y-95481651D01*
X79178000Y-95441651D02*
X83382000Y-95441651D01*
X79246000Y-95401651D02*
X83314000Y-95401651D01*
X79316000Y-95361651D02*
X83244000Y-95361651D01*
X79390000Y-95321651D02*
X83170000Y-95321651D01*
X79467000Y-95281651D02*
X83093000Y-95281651D01*
X79549000Y-95241651D02*
X83011000Y-95241651D01*
X79635000Y-95201651D02*
X82925000Y-95201651D01*
X79728000Y-95161651D02*
X82832000Y-95161651D01*
X79827000Y-95121651D02*
X82733000Y-95121651D01*
X79934000Y-95081651D02*
X82626000Y-95081651D01*
X80051000Y-95041651D02*
X82509000Y-95041651D01*
X80182000Y-95001651D02*
X82378000Y-95001651D01*
X80332000Y-94961651D02*
X82228000Y-94961651D01*
X80512000Y-94921651D02*
X82048000Y-94921651D01*
X80747000Y-94881651D02*
X81813000Y-94881651D01*
X85400000Y-98962651D02*
G75*
G03*
X85400000Y-98962651I-4120000J0D01*
G01*
%TO.C,R9*%
X93115000Y-87630000D02*
X93885000Y-87630000D01*
X93885000Y-86260000D02*
X93885000Y-89000000D01*
X93885000Y-89000000D02*
X100425000Y-89000000D01*
X100425000Y-86260000D02*
X93885000Y-86260000D01*
X100425000Y-89000000D02*
X100425000Y-86260000D01*
X101195000Y-87630000D02*
X100425000Y-87630000D01*
%TO.C,J4*%
X79435000Y-130115000D02*
X79435000Y-131445000D01*
X78105000Y-130115000D02*
X79435000Y-130115000D01*
X76835000Y-130115000D02*
X66615000Y-130115000D01*
X76835000Y-130115000D02*
X76835000Y-132775000D01*
X66615000Y-130115000D02*
X66615000Y-132775000D01*
X76835000Y-132775000D02*
X66615000Y-132775000D01*
%TO.C,C8*%
X67535000Y-103464698D02*
X67535000Y-102664698D01*
X67135000Y-103064698D02*
X67935000Y-103064698D01*
X65770000Y-99055000D02*
X73930000Y-99055000D01*
X65770000Y-99015000D02*
X73930000Y-99015000D01*
X65770000Y-98975000D02*
X73930000Y-98975000D01*
X65771000Y-98935000D02*
X73929000Y-98935000D01*
X65773000Y-98895000D02*
X73927000Y-98895000D01*
X65774000Y-98855000D02*
X73926000Y-98855000D01*
X65776000Y-98815000D02*
X73924000Y-98815000D01*
X65779000Y-98775000D02*
X73921000Y-98775000D01*
X65782000Y-98735000D02*
X73918000Y-98735000D01*
X65785000Y-98695000D02*
X73915000Y-98695000D01*
X65789000Y-98655000D02*
X73911000Y-98655000D01*
X65793000Y-98615000D02*
X73907000Y-98615000D01*
X65798000Y-98575000D02*
X73902000Y-98575000D01*
X65802000Y-98535000D02*
X73898000Y-98535000D01*
X65808000Y-98495000D02*
X73892000Y-98495000D01*
X65813000Y-98455000D02*
X73887000Y-98455000D01*
X65820000Y-98415000D02*
X73880000Y-98415000D01*
X65826000Y-98375000D02*
X73874000Y-98375000D01*
X65833000Y-98334000D02*
X73867000Y-98334000D01*
X65840000Y-98294000D02*
X73860000Y-98294000D01*
X65848000Y-98254000D02*
X73852000Y-98254000D01*
X65856000Y-98214000D02*
X73844000Y-98214000D01*
X65865000Y-98174000D02*
X68810000Y-98174000D01*
X70890000Y-98174000D02*
X73835000Y-98174000D01*
X65874000Y-98134000D02*
X68810000Y-98134000D01*
X70890000Y-98134000D02*
X73826000Y-98134000D01*
X65883000Y-98094000D02*
X68810000Y-98094000D01*
X70890000Y-98094000D02*
X73817000Y-98094000D01*
X65893000Y-98054000D02*
X68810000Y-98054000D01*
X70890000Y-98054000D02*
X73807000Y-98054000D01*
X65903000Y-98014000D02*
X68810000Y-98014000D01*
X70890000Y-98014000D02*
X73797000Y-98014000D01*
X65914000Y-97974000D02*
X68810000Y-97974000D01*
X70890000Y-97974000D02*
X73786000Y-97974000D01*
X65925000Y-97934000D02*
X68810000Y-97934000D01*
X70890000Y-97934000D02*
X73775000Y-97934000D01*
X65936000Y-97894000D02*
X68810000Y-97894000D01*
X70890000Y-97894000D02*
X73764000Y-97894000D01*
X65948000Y-97854000D02*
X68810000Y-97854000D01*
X70890000Y-97854000D02*
X73752000Y-97854000D01*
X65961000Y-97814000D02*
X68810000Y-97814000D01*
X70890000Y-97814000D02*
X73739000Y-97814000D01*
X65973000Y-97774000D02*
X68810000Y-97774000D01*
X70890000Y-97774000D02*
X73727000Y-97774000D01*
X65987000Y-97734000D02*
X68810000Y-97734000D01*
X70890000Y-97734000D02*
X73713000Y-97734000D01*
X66000000Y-97694000D02*
X68810000Y-97694000D01*
X70890000Y-97694000D02*
X73700000Y-97694000D01*
X66015000Y-97654000D02*
X68810000Y-97654000D01*
X70890000Y-97654000D02*
X73685000Y-97654000D01*
X66029000Y-97614000D02*
X68810000Y-97614000D01*
X70890000Y-97614000D02*
X73671000Y-97614000D01*
X66045000Y-97574000D02*
X68810000Y-97574000D01*
X70890000Y-97574000D02*
X73655000Y-97574000D01*
X66060000Y-97534000D02*
X68810000Y-97534000D01*
X70890000Y-97534000D02*
X73640000Y-97534000D01*
X66076000Y-97494000D02*
X68810000Y-97494000D01*
X70890000Y-97494000D02*
X73624000Y-97494000D01*
X66093000Y-97454000D02*
X68810000Y-97454000D01*
X70890000Y-97454000D02*
X73607000Y-97454000D01*
X66110000Y-97414000D02*
X68810000Y-97414000D01*
X70890000Y-97414000D02*
X73590000Y-97414000D01*
X66128000Y-97374000D02*
X68810000Y-97374000D01*
X70890000Y-97374000D02*
X73572000Y-97374000D01*
X66146000Y-97334000D02*
X68810000Y-97334000D01*
X70890000Y-97334000D02*
X73554000Y-97334000D01*
X66164000Y-97294000D02*
X68810000Y-97294000D01*
X70890000Y-97294000D02*
X73536000Y-97294000D01*
X66184000Y-97254000D02*
X68810000Y-97254000D01*
X70890000Y-97254000D02*
X73516000Y-97254000D01*
X66203000Y-97214000D02*
X68810000Y-97214000D01*
X70890000Y-97214000D02*
X73497000Y-97214000D01*
X66223000Y-97174000D02*
X68810000Y-97174000D01*
X70890000Y-97174000D02*
X73477000Y-97174000D01*
X66244000Y-97134000D02*
X68810000Y-97134000D01*
X70890000Y-97134000D02*
X73456000Y-97134000D01*
X66266000Y-97094000D02*
X68810000Y-97094000D01*
X70890000Y-97094000D02*
X73434000Y-97094000D01*
X66288000Y-97054000D02*
X68810000Y-97054000D01*
X70890000Y-97054000D02*
X73412000Y-97054000D01*
X66310000Y-97014000D02*
X68810000Y-97014000D01*
X70890000Y-97014000D02*
X73390000Y-97014000D01*
X66333000Y-96974000D02*
X68810000Y-96974000D01*
X70890000Y-96974000D02*
X73367000Y-96974000D01*
X66357000Y-96934000D02*
X68810000Y-96934000D01*
X70890000Y-96934000D02*
X73343000Y-96934000D01*
X66381000Y-96894000D02*
X68810000Y-96894000D01*
X70890000Y-96894000D02*
X73319000Y-96894000D01*
X66406000Y-96854000D02*
X68810000Y-96854000D01*
X70890000Y-96854000D02*
X73294000Y-96854000D01*
X66432000Y-96814000D02*
X68810000Y-96814000D01*
X70890000Y-96814000D02*
X73268000Y-96814000D01*
X66458000Y-96774000D02*
X68810000Y-96774000D01*
X70890000Y-96774000D02*
X73242000Y-96774000D01*
X66485000Y-96734000D02*
X68810000Y-96734000D01*
X70890000Y-96734000D02*
X73215000Y-96734000D01*
X66512000Y-96694000D02*
X68810000Y-96694000D01*
X70890000Y-96694000D02*
X73188000Y-96694000D01*
X66541000Y-96654000D02*
X68810000Y-96654000D01*
X70890000Y-96654000D02*
X73159000Y-96654000D01*
X66570000Y-96614000D02*
X68810000Y-96614000D01*
X70890000Y-96614000D02*
X73130000Y-96614000D01*
X66600000Y-96574000D02*
X68810000Y-96574000D01*
X70890000Y-96574000D02*
X73100000Y-96574000D01*
X66630000Y-96534000D02*
X68810000Y-96534000D01*
X70890000Y-96534000D02*
X73070000Y-96534000D01*
X66661000Y-96494000D02*
X68810000Y-96494000D01*
X70890000Y-96494000D02*
X73039000Y-96494000D01*
X66694000Y-96454000D02*
X68810000Y-96454000D01*
X70890000Y-96454000D02*
X73006000Y-96454000D01*
X66726000Y-96414000D02*
X68810000Y-96414000D01*
X70890000Y-96414000D02*
X72974000Y-96414000D01*
X66760000Y-96374000D02*
X68810000Y-96374000D01*
X70890000Y-96374000D02*
X72940000Y-96374000D01*
X66795000Y-96334000D02*
X68810000Y-96334000D01*
X70890000Y-96334000D02*
X72905000Y-96334000D01*
X66831000Y-96294000D02*
X68810000Y-96294000D01*
X70890000Y-96294000D02*
X72869000Y-96294000D01*
X66867000Y-96254000D02*
X68810000Y-96254000D01*
X70890000Y-96254000D02*
X72833000Y-96254000D01*
X66905000Y-96214000D02*
X68810000Y-96214000D01*
X70890000Y-96214000D02*
X72795000Y-96214000D01*
X66943000Y-96174000D02*
X68810000Y-96174000D01*
X70890000Y-96174000D02*
X72757000Y-96174000D01*
X66983000Y-96134000D02*
X68810000Y-96134000D01*
X70890000Y-96134000D02*
X72717000Y-96134000D01*
X67024000Y-96094000D02*
X72676000Y-96094000D01*
X67066000Y-96054000D02*
X72634000Y-96054000D01*
X67109000Y-96014000D02*
X72591000Y-96014000D01*
X67153000Y-95974000D02*
X72547000Y-95974000D01*
X67199000Y-95934000D02*
X72501000Y-95934000D01*
X67246000Y-95894000D02*
X72454000Y-95894000D01*
X67294000Y-95854000D02*
X72406000Y-95854000D01*
X67345000Y-95814000D02*
X72355000Y-95814000D01*
X67396000Y-95774000D02*
X72304000Y-95774000D01*
X67450000Y-95734000D02*
X72250000Y-95734000D01*
X67505000Y-95694000D02*
X72195000Y-95694000D01*
X67563000Y-95654000D02*
X72137000Y-95654000D01*
X67622000Y-95614000D02*
X72078000Y-95614000D01*
X67684000Y-95574000D02*
X72016000Y-95574000D01*
X67748000Y-95534000D02*
X71952000Y-95534000D01*
X67816000Y-95494000D02*
X71884000Y-95494000D01*
X67886000Y-95454000D02*
X71814000Y-95454000D01*
X67960000Y-95414000D02*
X71740000Y-95414000D01*
X68037000Y-95374000D02*
X71663000Y-95374000D01*
X68119000Y-95334000D02*
X71581000Y-95334000D01*
X68205000Y-95294000D02*
X71495000Y-95294000D01*
X68298000Y-95254000D02*
X71402000Y-95254000D01*
X68397000Y-95214000D02*
X71303000Y-95214000D01*
X68504000Y-95174000D02*
X71196000Y-95174000D01*
X68621000Y-95134000D02*
X71079000Y-95134000D01*
X68752000Y-95094000D02*
X70948000Y-95094000D01*
X68902000Y-95054000D02*
X70798000Y-95054000D01*
X69082000Y-95014000D02*
X70618000Y-95014000D01*
X69317000Y-94974000D02*
X70383000Y-94974000D01*
X73970000Y-99055000D02*
G75*
G03*
X73970000Y-99055000I-4120000J0D01*
G01*
%TO.C,C14*%
X80228041Y-130095553D02*
X80228041Y-132835553D01*
X80228041Y-130095553D02*
X85468041Y-130095553D01*
X80228041Y-132835553D02*
X85468041Y-132835553D01*
X85468041Y-130095553D02*
X85468041Y-132835553D01*
%TO.C,C11*%
X101825000Y-103372349D02*
X101825000Y-102572349D01*
X101425000Y-102972349D02*
X102225000Y-102972349D01*
X100060000Y-98962651D02*
X108220000Y-98962651D01*
X100060000Y-98922651D02*
X108220000Y-98922651D01*
X100060000Y-98882651D02*
X108220000Y-98882651D01*
X100061000Y-98842651D02*
X108219000Y-98842651D01*
X100063000Y-98802651D02*
X108217000Y-98802651D01*
X100064000Y-98762651D02*
X108216000Y-98762651D01*
X100066000Y-98722651D02*
X108214000Y-98722651D01*
X100069000Y-98682651D02*
X108211000Y-98682651D01*
X100072000Y-98642651D02*
X108208000Y-98642651D01*
X100075000Y-98602651D02*
X108205000Y-98602651D01*
X100079000Y-98562651D02*
X108201000Y-98562651D01*
X100083000Y-98522651D02*
X108197000Y-98522651D01*
X100088000Y-98482651D02*
X108192000Y-98482651D01*
X100092000Y-98442651D02*
X108188000Y-98442651D01*
X100098000Y-98402651D02*
X108182000Y-98402651D01*
X100103000Y-98362651D02*
X108177000Y-98362651D01*
X100110000Y-98322651D02*
X108170000Y-98322651D01*
X100116000Y-98282651D02*
X108164000Y-98282651D01*
X100123000Y-98241651D02*
X108157000Y-98241651D01*
X100130000Y-98201651D02*
X108150000Y-98201651D01*
X100138000Y-98161651D02*
X108142000Y-98161651D01*
X100146000Y-98121651D02*
X108134000Y-98121651D01*
X100155000Y-98081651D02*
X103100000Y-98081651D01*
X105180000Y-98081651D02*
X108125000Y-98081651D01*
X100164000Y-98041651D02*
X103100000Y-98041651D01*
X105180000Y-98041651D02*
X108116000Y-98041651D01*
X100173000Y-98001651D02*
X103100000Y-98001651D01*
X105180000Y-98001651D02*
X108107000Y-98001651D01*
X100183000Y-97961651D02*
X103100000Y-97961651D01*
X105180000Y-97961651D02*
X108097000Y-97961651D01*
X100193000Y-97921651D02*
X103100000Y-97921651D01*
X105180000Y-97921651D02*
X108087000Y-97921651D01*
X100204000Y-97881651D02*
X103100000Y-97881651D01*
X105180000Y-97881651D02*
X108076000Y-97881651D01*
X100215000Y-97841651D02*
X103100000Y-97841651D01*
X105180000Y-97841651D02*
X108065000Y-97841651D01*
X100226000Y-97801651D02*
X103100000Y-97801651D01*
X105180000Y-97801651D02*
X108054000Y-97801651D01*
X100238000Y-97761651D02*
X103100000Y-97761651D01*
X105180000Y-97761651D02*
X108042000Y-97761651D01*
X100251000Y-97721651D02*
X103100000Y-97721651D01*
X105180000Y-97721651D02*
X108029000Y-97721651D01*
X100263000Y-97681651D02*
X103100000Y-97681651D01*
X105180000Y-97681651D02*
X108017000Y-97681651D01*
X100277000Y-97641651D02*
X103100000Y-97641651D01*
X105180000Y-97641651D02*
X108003000Y-97641651D01*
X100290000Y-97601651D02*
X103100000Y-97601651D01*
X105180000Y-97601651D02*
X107990000Y-97601651D01*
X100305000Y-97561651D02*
X103100000Y-97561651D01*
X105180000Y-97561651D02*
X107975000Y-97561651D01*
X100319000Y-97521651D02*
X103100000Y-97521651D01*
X105180000Y-97521651D02*
X107961000Y-97521651D01*
X100335000Y-97481651D02*
X103100000Y-97481651D01*
X105180000Y-97481651D02*
X107945000Y-97481651D01*
X100350000Y-97441651D02*
X103100000Y-97441651D01*
X105180000Y-97441651D02*
X107930000Y-97441651D01*
X100366000Y-97401651D02*
X103100000Y-97401651D01*
X105180000Y-97401651D02*
X107914000Y-97401651D01*
X100383000Y-97361651D02*
X103100000Y-97361651D01*
X105180000Y-97361651D02*
X107897000Y-97361651D01*
X100400000Y-97321651D02*
X103100000Y-97321651D01*
X105180000Y-97321651D02*
X107880000Y-97321651D01*
X100418000Y-97281651D02*
X103100000Y-97281651D01*
X105180000Y-97281651D02*
X107862000Y-97281651D01*
X100436000Y-97241651D02*
X103100000Y-97241651D01*
X105180000Y-97241651D02*
X107844000Y-97241651D01*
X100454000Y-97201651D02*
X103100000Y-97201651D01*
X105180000Y-97201651D02*
X107826000Y-97201651D01*
X100474000Y-97161651D02*
X103100000Y-97161651D01*
X105180000Y-97161651D02*
X107806000Y-97161651D01*
X100493000Y-97121651D02*
X103100000Y-97121651D01*
X105180000Y-97121651D02*
X107787000Y-97121651D01*
X100513000Y-97081651D02*
X103100000Y-97081651D01*
X105180000Y-97081651D02*
X107767000Y-97081651D01*
X100534000Y-97041651D02*
X103100000Y-97041651D01*
X105180000Y-97041651D02*
X107746000Y-97041651D01*
X100556000Y-97001651D02*
X103100000Y-97001651D01*
X105180000Y-97001651D02*
X107724000Y-97001651D01*
X100578000Y-96961651D02*
X103100000Y-96961651D01*
X105180000Y-96961651D02*
X107702000Y-96961651D01*
X100600000Y-96921651D02*
X103100000Y-96921651D01*
X105180000Y-96921651D02*
X107680000Y-96921651D01*
X100623000Y-96881651D02*
X103100000Y-96881651D01*
X105180000Y-96881651D02*
X107657000Y-96881651D01*
X100647000Y-96841651D02*
X103100000Y-96841651D01*
X105180000Y-96841651D02*
X107633000Y-96841651D01*
X100671000Y-96801651D02*
X103100000Y-96801651D01*
X105180000Y-96801651D02*
X107609000Y-96801651D01*
X100696000Y-96761651D02*
X103100000Y-96761651D01*
X105180000Y-96761651D02*
X107584000Y-96761651D01*
X100722000Y-96721651D02*
X103100000Y-96721651D01*
X105180000Y-96721651D02*
X107558000Y-96721651D01*
X100748000Y-96681651D02*
X103100000Y-96681651D01*
X105180000Y-96681651D02*
X107532000Y-96681651D01*
X100775000Y-96641651D02*
X103100000Y-96641651D01*
X105180000Y-96641651D02*
X107505000Y-96641651D01*
X100802000Y-96601651D02*
X103100000Y-96601651D01*
X105180000Y-96601651D02*
X107478000Y-96601651D01*
X100831000Y-96561651D02*
X103100000Y-96561651D01*
X105180000Y-96561651D02*
X107449000Y-96561651D01*
X100860000Y-96521651D02*
X103100000Y-96521651D01*
X105180000Y-96521651D02*
X107420000Y-96521651D01*
X100890000Y-96481651D02*
X103100000Y-96481651D01*
X105180000Y-96481651D02*
X107390000Y-96481651D01*
X100920000Y-96441651D02*
X103100000Y-96441651D01*
X105180000Y-96441651D02*
X107360000Y-96441651D01*
X100951000Y-96401651D02*
X103100000Y-96401651D01*
X105180000Y-96401651D02*
X107329000Y-96401651D01*
X100984000Y-96361651D02*
X103100000Y-96361651D01*
X105180000Y-96361651D02*
X107296000Y-96361651D01*
X101016000Y-96321651D02*
X103100000Y-96321651D01*
X105180000Y-96321651D02*
X107264000Y-96321651D01*
X101050000Y-96281651D02*
X103100000Y-96281651D01*
X105180000Y-96281651D02*
X107230000Y-96281651D01*
X101085000Y-96241651D02*
X103100000Y-96241651D01*
X105180000Y-96241651D02*
X107195000Y-96241651D01*
X101121000Y-96201651D02*
X103100000Y-96201651D01*
X105180000Y-96201651D02*
X107159000Y-96201651D01*
X101157000Y-96161651D02*
X103100000Y-96161651D01*
X105180000Y-96161651D02*
X107123000Y-96161651D01*
X101195000Y-96121651D02*
X103100000Y-96121651D01*
X105180000Y-96121651D02*
X107085000Y-96121651D01*
X101233000Y-96081651D02*
X103100000Y-96081651D01*
X105180000Y-96081651D02*
X107047000Y-96081651D01*
X101273000Y-96041651D02*
X103100000Y-96041651D01*
X105180000Y-96041651D02*
X107007000Y-96041651D01*
X101314000Y-96001651D02*
X106966000Y-96001651D01*
X101356000Y-95961651D02*
X106924000Y-95961651D01*
X101399000Y-95921651D02*
X106881000Y-95921651D01*
X101443000Y-95881651D02*
X106837000Y-95881651D01*
X101489000Y-95841651D02*
X106791000Y-95841651D01*
X101536000Y-95801651D02*
X106744000Y-95801651D01*
X101584000Y-95761651D02*
X106696000Y-95761651D01*
X101635000Y-95721651D02*
X106645000Y-95721651D01*
X101686000Y-95681651D02*
X106594000Y-95681651D01*
X101740000Y-95641651D02*
X106540000Y-95641651D01*
X101795000Y-95601651D02*
X106485000Y-95601651D01*
X101853000Y-95561651D02*
X106427000Y-95561651D01*
X101912000Y-95521651D02*
X106368000Y-95521651D01*
X101974000Y-95481651D02*
X106306000Y-95481651D01*
X102038000Y-95441651D02*
X106242000Y-95441651D01*
X102106000Y-95401651D02*
X106174000Y-95401651D01*
X102176000Y-95361651D02*
X106104000Y-95361651D01*
X102250000Y-95321651D02*
X106030000Y-95321651D01*
X102327000Y-95281651D02*
X105953000Y-95281651D01*
X102409000Y-95241651D02*
X105871000Y-95241651D01*
X102495000Y-95201651D02*
X105785000Y-95201651D01*
X102588000Y-95161651D02*
X105692000Y-95161651D01*
X102687000Y-95121651D02*
X105593000Y-95121651D01*
X102794000Y-95081651D02*
X105486000Y-95081651D01*
X102911000Y-95041651D02*
X105369000Y-95041651D01*
X103042000Y-95001651D02*
X105238000Y-95001651D01*
X103192000Y-94961651D02*
X105088000Y-94961651D01*
X103372000Y-94921651D02*
X104908000Y-94921651D01*
X103607000Y-94881651D02*
X104673000Y-94881651D01*
X108260000Y-98962651D02*
G75*
G03*
X108260000Y-98962651I-4120000J0D01*
G01*
%TO.C,JP6*%
X86695000Y-99580000D02*
X87295000Y-99580000D01*
X87995000Y-100280000D02*
X87995000Y-101680000D01*
X85995000Y-101680000D02*
X85995000Y-100280000D01*
X87295000Y-102380000D02*
X86695000Y-102380000D01*
X87995000Y-100280000D02*
G75*
G03*
X87295000Y-99580000I-699999J1D01*
G01*
X86695000Y-99580000D02*
G75*
G03*
X85995000Y-100280000I-1J-699999D01*
G01*
X87295000Y-102380000D02*
G75*
G03*
X87995000Y-101680000I0J700000D01*
G01*
X85995000Y-101680000D02*
G75*
G03*
X86695000Y-102380000I700000J0D01*
G01*
%TO.C,J3*%
X97610000Y-56535000D02*
X97610000Y-57275000D01*
X97610000Y-57275000D02*
X98110000Y-57275000D01*
X97850000Y-47114000D02*
X97850000Y-57035000D01*
X97850000Y-47114000D02*
X107970000Y-47114000D01*
X97850000Y-50074000D02*
X107970000Y-50074000D01*
X97850000Y-54975000D02*
X107970000Y-54975000D01*
X97850000Y-56475000D02*
X107970000Y-56475000D01*
X97850000Y-57035000D02*
X107970000Y-57035000D01*
X104183000Y-53398000D02*
X104136000Y-53444000D01*
X104376000Y-53614000D02*
X104341000Y-53649000D01*
X106480000Y-51100000D02*
X106445000Y-51136000D01*
X106685000Y-51306000D02*
X106638000Y-51352000D01*
X107970000Y-47114000D02*
X107970000Y-57035000D01*
X98875001Y-51691001D02*
G75*
G03*
X98874574Y-53058042I1534992J-684000D01*
G01*
X101093999Y-50840001D02*
G75*
G03*
X99726958Y-50839574I-684000J-1534992D01*
G01*
X99726000Y-53909999D02*
G75*
G03*
X100438805Y-54055252I683999J1535000D01*
G01*
X100410000Y-54054999D02*
G75*
G03*
X101093318Y-53909755I0J1679999D01*
G01*
X101945000Y-53059000D02*
G75*
G03*
X101945426Y-51691958I-1535000J684000D01*
G01*
X107090000Y-52375000D02*
G75*
G03*
X107090000Y-52375000I-1680000J0D01*
G01*
%TO.C,J6*%
X76260000Y-133925000D02*
X76260000Y-135255000D01*
X74930000Y-133925000D02*
X76260000Y-133925000D01*
X73660000Y-133925000D02*
X65980000Y-133925000D01*
X73660000Y-133925000D02*
X73660000Y-136585000D01*
X65980000Y-133925000D02*
X65980000Y-136585000D01*
X73660000Y-136585000D02*
X65980000Y-136585000D01*
%TO.C,Q16*%
X112175000Y-85035000D02*
X115775000Y-85035000D01*
X113975000Y-80585000D02*
G75*
G03*
X112136522Y-85023478I0J-2600000D01*
G01*
X115813478Y-85023478D02*
G75*
G03*
X113975000Y-80585000I-1838478J1838478D01*
G01*
%TO.C,C4*%
X95310000Y-116940000D02*
X95310000Y-114200000D01*
X95310000Y-116940000D02*
X90070000Y-116940000D01*
X95310000Y-114200000D02*
X90070000Y-114200000D01*
X90070000Y-116940000D02*
X90070000Y-114200000D01*
%TO.C,C2*%
X87570000Y-129600000D02*
X90310000Y-129600000D01*
X87570000Y-129600000D02*
X87570000Y-124360000D01*
X90310000Y-129600000D02*
X90310000Y-124360000D01*
X87570000Y-124360000D02*
X90310000Y-124360000D01*
%TO.C,R3*%
X67715000Y-88265000D02*
X68485000Y-88265000D01*
X68485000Y-86895000D02*
X68485000Y-89635000D01*
X68485000Y-89635000D02*
X75025000Y-89635000D01*
X75025000Y-86895000D02*
X68485000Y-86895000D01*
X75025000Y-89635000D02*
X75025000Y-86895000D01*
X75795000Y-88265000D02*
X75025000Y-88265000D01*
%TO.C,D5*%
X102035000Y-133530000D02*
X102035000Y-128090000D01*
X102365000Y-133530000D02*
X102035000Y-133530000D01*
X104645000Y-133530000D02*
X104975000Y-133530000D01*
X104975000Y-133530000D02*
X104975000Y-128090000D01*
X102035000Y-132750000D02*
X104975000Y-132750000D01*
X102035000Y-132630000D02*
X104975000Y-132630000D01*
X102035000Y-132510000D02*
X104975000Y-132510000D01*
X102035000Y-128090000D02*
X102365000Y-128090000D01*
X104975000Y-128090000D02*
X104645000Y-128090000D01*
%TO.C,D1*%
X81735000Y-114100000D02*
X87175000Y-114100000D01*
X81735000Y-114430000D02*
X81735000Y-114100000D01*
X81735000Y-116710000D02*
X81735000Y-117040000D01*
X81735000Y-117040000D02*
X87175000Y-117040000D01*
X82515000Y-114100000D02*
X82515000Y-117040000D01*
X82635000Y-114100000D02*
X82635000Y-117040000D01*
X82755000Y-114100000D02*
X82755000Y-117040000D01*
X87175000Y-114100000D02*
X87175000Y-114430000D01*
X87175000Y-117040000D02*
X87175000Y-116710000D01*
%TO.C,R14*%
X80415000Y-92710000D02*
X81185000Y-92710000D01*
X81185000Y-91340000D02*
X81185000Y-94080000D01*
X81185000Y-94080000D02*
X87725000Y-94080000D01*
X87725000Y-91340000D02*
X81185000Y-91340000D01*
X87725000Y-94080000D02*
X87725000Y-91340000D01*
X88495000Y-92710000D02*
X87725000Y-92710000D01*
%TO.C,D13*%
X94160000Y-59890000D02*
X88720000Y-59890000D01*
X94160000Y-59560000D02*
X94160000Y-59890000D01*
X94160000Y-57280000D02*
X94160000Y-56950000D01*
X94160000Y-56950000D02*
X88720000Y-56950000D01*
X93380000Y-59890000D02*
X93380000Y-56950000D01*
X93260000Y-59890000D02*
X93260000Y-56950000D01*
X93140000Y-59890000D02*
X93140000Y-56950000D01*
X88720000Y-59890000D02*
X88720000Y-59560000D01*
X88720000Y-56950000D02*
X88720000Y-57280000D01*
%TO.C,R10*%
X105815000Y-87630000D02*
X106585000Y-87630000D01*
X106585000Y-86260000D02*
X106585000Y-89000000D01*
X106585000Y-89000000D02*
X113125000Y-89000000D01*
X113125000Y-86260000D02*
X106585000Y-86260000D01*
X113125000Y-89000000D02*
X113125000Y-86260000D01*
X113895000Y-87630000D02*
X113125000Y-87630000D01*
%TO.C,R1*%
X113895000Y-104775000D02*
X113125000Y-104775000D01*
X113125000Y-106145000D02*
X113125000Y-103405000D01*
X113125000Y-103405000D02*
X106585000Y-103405000D01*
X106585000Y-106145000D02*
X113125000Y-106145000D01*
X106585000Y-103405000D02*
X106585000Y-106145000D01*
X105815000Y-104775000D02*
X106585000Y-104775000D01*
%TO.C,JP2*%
X111630000Y-136190000D02*
X111630000Y-135590000D01*
X112330000Y-134890000D02*
X113730000Y-134890000D01*
X113730000Y-136890000D02*
X112330000Y-136890000D01*
X114430000Y-135590000D02*
X114430000Y-136190000D01*
X112330000Y-134890000D02*
G75*
G03*
X111630000Y-135590000I-1J-699999D01*
G01*
X111630000Y-136190000D02*
G75*
G03*
X112330000Y-136890000I699999J-1D01*
G01*
X114430000Y-135590000D02*
G75*
G03*
X113730000Y-134890000I-700000J0D01*
G01*
X113730000Y-136890000D02*
G75*
G03*
X114430000Y-136190000I0J700000D01*
G01*
%TO.C,J5*%
X88835000Y-136585000D02*
X88835000Y-135255000D01*
X90165000Y-136585000D02*
X88835000Y-136585000D01*
X91435000Y-136585000D02*
X94035000Y-136585000D01*
X91435000Y-136585000D02*
X91435000Y-133925000D01*
X94035000Y-136585000D02*
X94035000Y-133925000D01*
X91435000Y-133925000D02*
X94035000Y-133925000D01*
%TO.C,Q10*%
X74075000Y-85035000D02*
X77675000Y-85035000D01*
X75875000Y-80585000D02*
G75*
G03*
X74036522Y-85023478I0J-2600000D01*
G01*
X77713478Y-85023478D02*
G75*
G03*
X75875000Y-80585000I-1838478J1838478D01*
G01*
%TO.C,JP7*%
X98125000Y-99565000D02*
X98725000Y-99565000D01*
X99425000Y-100265000D02*
X99425000Y-101665000D01*
X97425000Y-101665000D02*
X97425000Y-100265000D01*
X98725000Y-102365000D02*
X98125000Y-102365000D01*
X99425000Y-100265000D02*
G75*
G03*
X98725000Y-99565000I-699999J1D01*
G01*
X98125000Y-99565000D02*
G75*
G03*
X97425000Y-100265000I-1J-699999D01*
G01*
X98725000Y-102365000D02*
G75*
G03*
X99425000Y-101665000I0J700000D01*
G01*
X97425000Y-101665000D02*
G75*
G03*
X98125000Y-102365000I700000J0D01*
G01*
%TO.C,C3*%
X87530000Y-123925000D02*
X90270000Y-123925000D01*
X87530000Y-123925000D02*
X87530000Y-118685000D01*
X90270000Y-123925000D02*
X90270000Y-118685000D01*
X87530000Y-118685000D02*
X90270000Y-118685000D01*
%TO.C,D2*%
X111960000Y-52525000D02*
X111960000Y-57965000D01*
X111630000Y-52525000D02*
X111960000Y-52525000D01*
X109350000Y-52525000D02*
X109020000Y-52525000D01*
X109020000Y-52525000D02*
X109020000Y-57965000D01*
X111960000Y-53305000D02*
X109020000Y-53305000D01*
X111960000Y-53425000D02*
X109020000Y-53425000D01*
X111960000Y-53545000D02*
X109020000Y-53545000D01*
X111960000Y-57965000D02*
X111630000Y-57965000D01*
X109020000Y-57965000D02*
X109350000Y-57965000D01*
%TO.C,C1-1*%
X115035000Y-115035000D02*
X115035000Y-112295000D01*
X115035000Y-115035000D02*
X109795000Y-115035000D01*
X115035000Y-112295000D02*
X109795000Y-112295000D01*
X109795000Y-115035000D02*
X109795000Y-112295000D01*
%TO.C,Q7*%
X98640000Y-71160000D02*
X103281000Y-71160000D01*
X98640000Y-71160000D02*
X98640000Y-60920000D01*
X100150000Y-71160000D02*
X100150000Y-60920000D01*
X103281000Y-71160000D02*
X103281000Y-60920000D01*
X98640000Y-67890000D02*
X100150000Y-67890000D01*
X98640000Y-64189000D02*
X100150000Y-64189000D01*
X98640000Y-60920000D02*
X103281000Y-60920000D01*
%TO.C,D4*%
X102035000Y-123370000D02*
X102035000Y-117930000D01*
X102365000Y-123370000D02*
X102035000Y-123370000D01*
X104645000Y-123370000D02*
X104975000Y-123370000D01*
X104975000Y-123370000D02*
X104975000Y-117930000D01*
X102035000Y-122590000D02*
X104975000Y-122590000D01*
X102035000Y-122470000D02*
X104975000Y-122470000D01*
X102035000Y-122350000D02*
X104975000Y-122350000D01*
X102035000Y-117930000D02*
X102365000Y-117930000D01*
X104975000Y-117930000D02*
X104645000Y-117930000D01*
%TO.C,U1*%
X66615000Y-111235000D02*
X102295000Y-111235000D01*
X102295000Y-111235000D02*
X102295000Y-105935000D01*
X66615000Y-109585000D02*
X66615000Y-111235000D01*
X66615000Y-105935000D02*
X66615000Y-107585000D01*
X102295000Y-105935000D02*
X66615000Y-105935000D01*
X66615000Y-109585000D02*
G75*
G03*
X66615000Y-107585000I0J1000000D01*
G01*
%TO.C,R2*%
X68350000Y-115570000D02*
X69120000Y-115570000D01*
X69120000Y-114200000D02*
X69120000Y-116940000D01*
X69120000Y-116940000D02*
X75660000Y-116940000D01*
X75660000Y-114200000D02*
X69120000Y-114200000D01*
X75660000Y-116940000D02*
X75660000Y-114200000D01*
X76430000Y-115570000D02*
X75660000Y-115570000D01*
%TO.C,C10*%
X90395000Y-103372349D02*
X90395000Y-102572349D01*
X89995000Y-102972349D02*
X90795000Y-102972349D01*
X88630000Y-98962651D02*
X96790000Y-98962651D01*
X88630000Y-98922651D02*
X96790000Y-98922651D01*
X88630000Y-98882651D02*
X96790000Y-98882651D01*
X88631000Y-98842651D02*
X96789000Y-98842651D01*
X88633000Y-98802651D02*
X96787000Y-98802651D01*
X88634000Y-98762651D02*
X96786000Y-98762651D01*
X88636000Y-98722651D02*
X96784000Y-98722651D01*
X88639000Y-98682651D02*
X96781000Y-98682651D01*
X88642000Y-98642651D02*
X96778000Y-98642651D01*
X88645000Y-98602651D02*
X96775000Y-98602651D01*
X88649000Y-98562651D02*
X96771000Y-98562651D01*
X88653000Y-98522651D02*
X96767000Y-98522651D01*
X88658000Y-98482651D02*
X96762000Y-98482651D01*
X88662000Y-98442651D02*
X96758000Y-98442651D01*
X88668000Y-98402651D02*
X96752000Y-98402651D01*
X88673000Y-98362651D02*
X96747000Y-98362651D01*
X88680000Y-98322651D02*
X96740000Y-98322651D01*
X88686000Y-98282651D02*
X96734000Y-98282651D01*
X88693000Y-98241651D02*
X96727000Y-98241651D01*
X88700000Y-98201651D02*
X96720000Y-98201651D01*
X88708000Y-98161651D02*
X96712000Y-98161651D01*
X88716000Y-98121651D02*
X96704000Y-98121651D01*
X88725000Y-98081651D02*
X91670000Y-98081651D01*
X93750000Y-98081651D02*
X96695000Y-98081651D01*
X88734000Y-98041651D02*
X91670000Y-98041651D01*
X93750000Y-98041651D02*
X96686000Y-98041651D01*
X88743000Y-98001651D02*
X91670000Y-98001651D01*
X93750000Y-98001651D02*
X96677000Y-98001651D01*
X88753000Y-97961651D02*
X91670000Y-97961651D01*
X93750000Y-97961651D02*
X96667000Y-97961651D01*
X88763000Y-97921651D02*
X91670000Y-97921651D01*
X93750000Y-97921651D02*
X96657000Y-97921651D01*
X88774000Y-97881651D02*
X91670000Y-97881651D01*
X93750000Y-97881651D02*
X96646000Y-97881651D01*
X88785000Y-97841651D02*
X91670000Y-97841651D01*
X93750000Y-97841651D02*
X96635000Y-97841651D01*
X88796000Y-97801651D02*
X91670000Y-97801651D01*
X93750000Y-97801651D02*
X96624000Y-97801651D01*
X88808000Y-97761651D02*
X91670000Y-97761651D01*
X93750000Y-97761651D02*
X96612000Y-97761651D01*
X88821000Y-97721651D02*
X91670000Y-97721651D01*
X93750000Y-97721651D02*
X96599000Y-97721651D01*
X88833000Y-97681651D02*
X91670000Y-97681651D01*
X93750000Y-97681651D02*
X96587000Y-97681651D01*
X88847000Y-97641651D02*
X91670000Y-97641651D01*
X93750000Y-97641651D02*
X96573000Y-97641651D01*
X88860000Y-97601651D02*
X91670000Y-97601651D01*
X93750000Y-97601651D02*
X96560000Y-97601651D01*
X88875000Y-97561651D02*
X91670000Y-97561651D01*
X93750000Y-97561651D02*
X96545000Y-97561651D01*
X88889000Y-97521651D02*
X91670000Y-97521651D01*
X93750000Y-97521651D02*
X96531000Y-97521651D01*
X88905000Y-97481651D02*
X91670000Y-97481651D01*
X93750000Y-97481651D02*
X96515000Y-97481651D01*
X88920000Y-97441651D02*
X91670000Y-97441651D01*
X93750000Y-97441651D02*
X96500000Y-97441651D01*
X88936000Y-97401651D02*
X91670000Y-97401651D01*
X93750000Y-97401651D02*
X96484000Y-97401651D01*
X88953000Y-97361651D02*
X91670000Y-97361651D01*
X93750000Y-97361651D02*
X96467000Y-97361651D01*
X88970000Y-97321651D02*
X91670000Y-97321651D01*
X93750000Y-97321651D02*
X96450000Y-97321651D01*
X88988000Y-97281651D02*
X91670000Y-97281651D01*
X93750000Y-97281651D02*
X96432000Y-97281651D01*
X89006000Y-97241651D02*
X91670000Y-97241651D01*
X93750000Y-97241651D02*
X96414000Y-97241651D01*
X89024000Y-97201651D02*
X91670000Y-97201651D01*
X93750000Y-97201651D02*
X96396000Y-97201651D01*
X89044000Y-97161651D02*
X91670000Y-97161651D01*
X93750000Y-97161651D02*
X96376000Y-97161651D01*
X89063000Y-97121651D02*
X91670000Y-97121651D01*
X93750000Y-97121651D02*
X96357000Y-97121651D01*
X89083000Y-97081651D02*
X91670000Y-97081651D01*
X93750000Y-97081651D02*
X96337000Y-97081651D01*
X89104000Y-97041651D02*
X91670000Y-97041651D01*
X93750000Y-97041651D02*
X96316000Y-97041651D01*
X89126000Y-97001651D02*
X91670000Y-97001651D01*
X93750000Y-97001651D02*
X96294000Y-97001651D01*
X89148000Y-96961651D02*
X91670000Y-96961651D01*
X93750000Y-96961651D02*
X96272000Y-96961651D01*
X89170000Y-96921651D02*
X91670000Y-96921651D01*
X93750000Y-96921651D02*
X96250000Y-96921651D01*
X89193000Y-96881651D02*
X91670000Y-96881651D01*
X93750000Y-96881651D02*
X96227000Y-96881651D01*
X89217000Y-96841651D02*
X91670000Y-96841651D01*
X93750000Y-96841651D02*
X96203000Y-96841651D01*
X89241000Y-96801651D02*
X91670000Y-96801651D01*
X93750000Y-96801651D02*
X96179000Y-96801651D01*
X89266000Y-96761651D02*
X91670000Y-96761651D01*
X93750000Y-96761651D02*
X96154000Y-96761651D01*
X89292000Y-96721651D02*
X91670000Y-96721651D01*
X93750000Y-96721651D02*
X96128000Y-96721651D01*
X89318000Y-96681651D02*
X91670000Y-96681651D01*
X93750000Y-96681651D02*
X96102000Y-96681651D01*
X89345000Y-96641651D02*
X91670000Y-96641651D01*
X93750000Y-96641651D02*
X96075000Y-96641651D01*
X89372000Y-96601651D02*
X91670000Y-96601651D01*
X93750000Y-96601651D02*
X96048000Y-96601651D01*
X89401000Y-96561651D02*
X91670000Y-96561651D01*
X93750000Y-96561651D02*
X96019000Y-96561651D01*
X89430000Y-96521651D02*
X91670000Y-96521651D01*
X93750000Y-96521651D02*
X95990000Y-96521651D01*
X89460000Y-96481651D02*
X91670000Y-96481651D01*
X93750000Y-96481651D02*
X95960000Y-96481651D01*
X89490000Y-96441651D02*
X91670000Y-96441651D01*
X93750000Y-96441651D02*
X95930000Y-96441651D01*
X89521000Y-96401651D02*
X91670000Y-96401651D01*
X93750000Y-96401651D02*
X95899000Y-96401651D01*
X89554000Y-96361651D02*
X91670000Y-96361651D01*
X93750000Y-96361651D02*
X95866000Y-96361651D01*
X89586000Y-96321651D02*
X91670000Y-96321651D01*
X93750000Y-96321651D02*
X95834000Y-96321651D01*
X89620000Y-96281651D02*
X91670000Y-96281651D01*
X93750000Y-96281651D02*
X95800000Y-96281651D01*
X89655000Y-96241651D02*
X91670000Y-96241651D01*
X93750000Y-96241651D02*
X95765000Y-96241651D01*
X89691000Y-96201651D02*
X91670000Y-96201651D01*
X93750000Y-96201651D02*
X95729000Y-96201651D01*
X89727000Y-96161651D02*
X91670000Y-96161651D01*
X93750000Y-96161651D02*
X95693000Y-96161651D01*
X89765000Y-96121651D02*
X91670000Y-96121651D01*
X93750000Y-96121651D02*
X95655000Y-96121651D01*
X89803000Y-96081651D02*
X91670000Y-96081651D01*
X93750000Y-96081651D02*
X95617000Y-96081651D01*
X89843000Y-96041651D02*
X91670000Y-96041651D01*
X93750000Y-96041651D02*
X95577000Y-96041651D01*
X89884000Y-96001651D02*
X95536000Y-96001651D01*
X89926000Y-95961651D02*
X95494000Y-95961651D01*
X89969000Y-95921651D02*
X95451000Y-95921651D01*
X90013000Y-95881651D02*
X95407000Y-95881651D01*
X90059000Y-95841651D02*
X95361000Y-95841651D01*
X90106000Y-95801651D02*
X95314000Y-95801651D01*
X90154000Y-95761651D02*
X95266000Y-95761651D01*
X90205000Y-95721651D02*
X95215000Y-95721651D01*
X90256000Y-95681651D02*
X95164000Y-95681651D01*
X90310000Y-95641651D02*
X95110000Y-95641651D01*
X90365000Y-95601651D02*
X95055000Y-95601651D01*
X90423000Y-95561651D02*
X94997000Y-95561651D01*
X90482000Y-95521651D02*
X94938000Y-95521651D01*
X90544000Y-95481651D02*
X94876000Y-95481651D01*
X90608000Y-95441651D02*
X94812000Y-95441651D01*
X90676000Y-95401651D02*
X94744000Y-95401651D01*
X90746000Y-95361651D02*
X94674000Y-95361651D01*
X90820000Y-95321651D02*
X94600000Y-95321651D01*
X90897000Y-95281651D02*
X94523000Y-95281651D01*
X90979000Y-95241651D02*
X94441000Y-95241651D01*
X91065000Y-95201651D02*
X94355000Y-95201651D01*
X91158000Y-95161651D02*
X94262000Y-95161651D01*
X91257000Y-95121651D02*
X94163000Y-95121651D01*
X91364000Y-95081651D02*
X94056000Y-95081651D01*
X91481000Y-95041651D02*
X93939000Y-95041651D01*
X91612000Y-95001651D02*
X93808000Y-95001651D01*
X91762000Y-94961651D02*
X93658000Y-94961651D01*
X91942000Y-94921651D02*
X93478000Y-94921651D01*
X92177000Y-94881651D02*
X93243000Y-94881651D01*
X96830000Y-98962651D02*
G75*
G03*
X96830000Y-98962651I-4120000J0D01*
G01*
%TO.C,D14*%
X93780000Y-54155000D02*
X93780000Y-48715000D01*
X94110000Y-54155000D02*
X93780000Y-54155000D01*
X96390000Y-54155000D02*
X96720000Y-54155000D01*
X96720000Y-54155000D02*
X96720000Y-48715000D01*
X93780000Y-53375000D02*
X96720000Y-53375000D01*
X93780000Y-53255000D02*
X96720000Y-53255000D01*
X93780000Y-53135000D02*
X96720000Y-53135000D01*
X93780000Y-48715000D02*
X94110000Y-48715000D01*
X96720000Y-48715000D02*
X96390000Y-48715000D01*
%TO.C,Q4*%
X93250000Y-71160000D02*
X97891000Y-71160000D01*
X93250000Y-71160000D02*
X93250000Y-60920000D01*
X94760000Y-71160000D02*
X94760000Y-60920000D01*
X97891000Y-71160000D02*
X97891000Y-60920000D01*
X93250000Y-67890000D02*
X94760000Y-67890000D01*
X93250000Y-64189000D02*
X94760000Y-64189000D01*
X93250000Y-60920000D02*
X97891000Y-60920000D01*
%TO.C,Q8*%
X110380000Y-71160000D02*
X115021000Y-71160000D01*
X110380000Y-71160000D02*
X110380000Y-60920000D01*
X111890000Y-71160000D02*
X111890000Y-60920000D01*
X115021000Y-71160000D02*
X115021000Y-60920000D01*
X110380000Y-67890000D02*
X111890000Y-67890000D01*
X110380000Y-64189000D02*
X111890000Y-64189000D01*
X110380000Y-60920000D02*
X115021000Y-60920000D01*
%TO.C,Q11*%
X86775000Y-78685000D02*
X90375000Y-78685000D01*
X88575000Y-74235000D02*
G75*
G03*
X86736522Y-78673478I0J-2600000D01*
G01*
X90413478Y-78673478D02*
G75*
G03*
X88575000Y-74235000I-1838478J1838478D01*
G01*
%TO.C,C5*%
X93645000Y-128709646D02*
X93645000Y-127709646D01*
X93145000Y-128209646D02*
X94145000Y-128209646D01*
X91440000Y-123230000D02*
X101600000Y-123230000D01*
X91440000Y-123190000D02*
X101600000Y-123190000D01*
X91440000Y-123150000D02*
X101600000Y-123150000D01*
X91441000Y-123110000D02*
X101599000Y-123110000D01*
X91442000Y-123070000D02*
X101598000Y-123070000D01*
X91443000Y-123030000D02*
X101597000Y-123030000D01*
X91445000Y-122990000D02*
X101595000Y-122990000D01*
X91447000Y-122950000D02*
X101593000Y-122950000D01*
X91450000Y-122910000D02*
X101590000Y-122910000D01*
X91452000Y-122870000D02*
X101588000Y-122870000D01*
X91455000Y-122830000D02*
X101585000Y-122830000D01*
X91458000Y-122790000D02*
X101582000Y-122790000D01*
X91462000Y-122750000D02*
X101578000Y-122750000D01*
X91466000Y-122710000D02*
X101574000Y-122710000D01*
X91470000Y-122670000D02*
X101570000Y-122670000D01*
X91475000Y-122630000D02*
X101565000Y-122630000D01*
X91480000Y-122590000D02*
X101560000Y-122590000D01*
X91485000Y-122550000D02*
X101555000Y-122550000D01*
X91490000Y-122509000D02*
X101550000Y-122509000D01*
X91496000Y-122469000D02*
X101544000Y-122469000D01*
X91502000Y-122429000D02*
X101538000Y-122429000D01*
X91509000Y-122389000D02*
X101531000Y-122389000D01*
X91516000Y-122349000D02*
X101524000Y-122349000D01*
X91523000Y-122309000D02*
X101517000Y-122309000D01*
X91530000Y-122269000D02*
X101510000Y-122269000D01*
X91538000Y-122229000D02*
X101502000Y-122229000D01*
X91546000Y-122189000D02*
X101494000Y-122189000D01*
X91555000Y-122149000D02*
X101485000Y-122149000D01*
X91564000Y-122109000D02*
X101476000Y-122109000D01*
X91573000Y-122069000D02*
X101467000Y-122069000D01*
X91582000Y-122029000D02*
X101458000Y-122029000D01*
X91592000Y-121989000D02*
X101448000Y-121989000D01*
X91602000Y-121949000D02*
X95279000Y-121949000D01*
X97761000Y-121949000D02*
X101438000Y-121949000D01*
X91613000Y-121909000D02*
X95279000Y-121909000D01*
X97761000Y-121909000D02*
X101427000Y-121909000D01*
X91623000Y-121869000D02*
X95279000Y-121869000D01*
X97761000Y-121869000D02*
X101417000Y-121869000D01*
X91635000Y-121829000D02*
X95279000Y-121829000D01*
X97761000Y-121829000D02*
X101405000Y-121829000D01*
X91646000Y-121789000D02*
X95279000Y-121789000D01*
X97761000Y-121789000D02*
X101394000Y-121789000D01*
X91658000Y-121749000D02*
X95279000Y-121749000D01*
X97761000Y-121749000D02*
X101382000Y-121749000D01*
X91670000Y-121709000D02*
X95279000Y-121709000D01*
X97761000Y-121709000D02*
X101370000Y-121709000D01*
X91683000Y-121669000D02*
X95279000Y-121669000D01*
X97761000Y-121669000D02*
X101357000Y-121669000D01*
X91696000Y-121629000D02*
X95279000Y-121629000D01*
X97761000Y-121629000D02*
X101344000Y-121629000D01*
X91709000Y-121589000D02*
X95279000Y-121589000D01*
X97761000Y-121589000D02*
X101331000Y-121589000D01*
X91723000Y-121549000D02*
X95279000Y-121549000D01*
X97761000Y-121549000D02*
X101317000Y-121549000D01*
X91737000Y-121509000D02*
X95279000Y-121509000D01*
X97761000Y-121509000D02*
X101303000Y-121509000D01*
X91752000Y-121469000D02*
X95279000Y-121469000D01*
X97761000Y-121469000D02*
X101288000Y-121469000D01*
X91766000Y-121429000D02*
X95279000Y-121429000D01*
X97761000Y-121429000D02*
X101274000Y-121429000D01*
X91782000Y-121389000D02*
X95279000Y-121389000D01*
X97761000Y-121389000D02*
X101258000Y-121389000D01*
X91797000Y-121349000D02*
X95279000Y-121349000D01*
X97761000Y-121349000D02*
X101243000Y-121349000D01*
X91813000Y-121309000D02*
X95279000Y-121309000D01*
X97761000Y-121309000D02*
X101227000Y-121309000D01*
X91830000Y-121269000D02*
X95279000Y-121269000D01*
X97761000Y-121269000D02*
X101210000Y-121269000D01*
X91846000Y-121229000D02*
X95279000Y-121229000D01*
X97761000Y-121229000D02*
X101194000Y-121229000D01*
X91863000Y-121189000D02*
X95279000Y-121189000D01*
X97761000Y-121189000D02*
X101177000Y-121189000D01*
X91881000Y-121149000D02*
X95279000Y-121149000D01*
X97761000Y-121149000D02*
X101159000Y-121149000D01*
X91899000Y-121109000D02*
X95279000Y-121109000D01*
X97761000Y-121109000D02*
X101141000Y-121109000D01*
X91917000Y-121069000D02*
X95279000Y-121069000D01*
X97761000Y-121069000D02*
X101123000Y-121069000D01*
X91936000Y-121029000D02*
X95279000Y-121029000D01*
X97761000Y-121029000D02*
X101104000Y-121029000D01*
X91956000Y-120989000D02*
X95279000Y-120989000D01*
X97761000Y-120989000D02*
X101084000Y-120989000D01*
X91975000Y-120949000D02*
X95279000Y-120949000D01*
X97761000Y-120949000D02*
X101065000Y-120949000D01*
X91995000Y-120909000D02*
X95279000Y-120909000D01*
X97761000Y-120909000D02*
X101045000Y-120909000D01*
X92016000Y-120869000D02*
X95279000Y-120869000D01*
X97761000Y-120869000D02*
X101024000Y-120869000D01*
X92037000Y-120829000D02*
X95279000Y-120829000D01*
X97761000Y-120829000D02*
X101003000Y-120829000D01*
X92058000Y-120789000D02*
X95279000Y-120789000D01*
X97761000Y-120789000D02*
X100982000Y-120789000D01*
X92080000Y-120749000D02*
X95279000Y-120749000D01*
X97761000Y-120749000D02*
X100960000Y-120749000D01*
X92103000Y-120709000D02*
X95279000Y-120709000D01*
X97761000Y-120709000D02*
X100937000Y-120709000D01*
X92125000Y-120669000D02*
X95279000Y-120669000D01*
X97761000Y-120669000D02*
X100915000Y-120669000D01*
X92149000Y-120629000D02*
X95279000Y-120629000D01*
X97761000Y-120629000D02*
X100891000Y-120629000D01*
X92173000Y-120589000D02*
X95279000Y-120589000D01*
X97761000Y-120589000D02*
X100867000Y-120589000D01*
X92197000Y-120549000D02*
X95279000Y-120549000D01*
X97761000Y-120549000D02*
X100843000Y-120549000D01*
X92222000Y-120509000D02*
X95279000Y-120509000D01*
X97761000Y-120509000D02*
X100818000Y-120509000D01*
X92247000Y-120469000D02*
X95279000Y-120469000D01*
X97761000Y-120469000D02*
X100793000Y-120469000D01*
X92273000Y-120429000D02*
X95279000Y-120429000D01*
X97761000Y-120429000D02*
X100767000Y-120429000D01*
X92299000Y-120389000D02*
X95279000Y-120389000D01*
X97761000Y-120389000D02*
X100741000Y-120389000D01*
X92326000Y-120349000D02*
X95279000Y-120349000D01*
X97761000Y-120349000D02*
X100714000Y-120349000D01*
X92354000Y-120309000D02*
X95279000Y-120309000D01*
X97761000Y-120309000D02*
X100686000Y-120309000D01*
X92382000Y-120269000D02*
X95279000Y-120269000D01*
X97761000Y-120269000D02*
X100658000Y-120269000D01*
X92410000Y-120229000D02*
X95279000Y-120229000D01*
X97761000Y-120229000D02*
X100630000Y-120229000D01*
X92440000Y-120189000D02*
X95279000Y-120189000D01*
X97761000Y-120189000D02*
X100600000Y-120189000D01*
X92470000Y-120149000D02*
X95279000Y-120149000D01*
X97761000Y-120149000D02*
X100570000Y-120149000D01*
X92500000Y-120109000D02*
X95279000Y-120109000D01*
X97761000Y-120109000D02*
X100540000Y-120109000D01*
X92531000Y-120069000D02*
X95279000Y-120069000D01*
X97761000Y-120069000D02*
X100509000Y-120069000D01*
X92563000Y-120029000D02*
X95279000Y-120029000D01*
X97761000Y-120029000D02*
X100477000Y-120029000D01*
X92595000Y-119989000D02*
X95279000Y-119989000D01*
X97761000Y-119989000D02*
X100445000Y-119989000D01*
X92628000Y-119949000D02*
X95279000Y-119949000D01*
X97761000Y-119949000D02*
X100412000Y-119949000D01*
X92662000Y-119909000D02*
X95279000Y-119909000D01*
X97761000Y-119909000D02*
X100378000Y-119909000D01*
X92696000Y-119869000D02*
X95279000Y-119869000D01*
X97761000Y-119869000D02*
X100344000Y-119869000D01*
X92731000Y-119829000D02*
X95279000Y-119829000D01*
X97761000Y-119829000D02*
X100309000Y-119829000D01*
X92767000Y-119789000D02*
X95279000Y-119789000D01*
X97761000Y-119789000D02*
X100273000Y-119789000D01*
X92804000Y-119749000D02*
X95279000Y-119749000D01*
X97761000Y-119749000D02*
X100236000Y-119749000D01*
X92841000Y-119709000D02*
X95279000Y-119709000D01*
X97761000Y-119709000D02*
X100199000Y-119709000D01*
X92880000Y-119669000D02*
X95279000Y-119669000D01*
X97761000Y-119669000D02*
X100160000Y-119669000D01*
X92919000Y-119629000D02*
X95279000Y-119629000D01*
X97761000Y-119629000D02*
X100121000Y-119629000D01*
X92959000Y-119589000D02*
X95279000Y-119589000D01*
X97761000Y-119589000D02*
X100081000Y-119589000D01*
X93000000Y-119549000D02*
X95279000Y-119549000D01*
X97761000Y-119549000D02*
X100040000Y-119549000D01*
X93042000Y-119509000D02*
X95279000Y-119509000D01*
X97761000Y-119509000D02*
X99998000Y-119509000D01*
X93084000Y-119469000D02*
X99956000Y-119469000D01*
X93128000Y-119429000D02*
X99912000Y-119429000D01*
X93173000Y-119389000D02*
X99867000Y-119389000D01*
X93219000Y-119349000D02*
X99821000Y-119349000D01*
X93266000Y-119309000D02*
X99774000Y-119309000D01*
X93314000Y-119269000D02*
X99726000Y-119269000D01*
X93364000Y-119229000D02*
X99676000Y-119229000D01*
X93414000Y-119189000D02*
X99626000Y-119189000D01*
X93466000Y-119149000D02*
X99574000Y-119149000D01*
X93520000Y-119109000D02*
X99520000Y-119109000D01*
X93575000Y-119069000D02*
X99465000Y-119069000D01*
X93631000Y-119029000D02*
X99409000Y-119029000D01*
X93690000Y-118989000D02*
X99350000Y-118989000D01*
X93750000Y-118949000D02*
X99290000Y-118949000D01*
X93811000Y-118909000D02*
X99229000Y-118909000D01*
X93875000Y-118869000D02*
X99165000Y-118869000D01*
X93941000Y-118829000D02*
X99099000Y-118829000D01*
X94010000Y-118789000D02*
X99030000Y-118789000D01*
X94081000Y-118749000D02*
X98959000Y-118749000D01*
X94155000Y-118709000D02*
X98885000Y-118709000D01*
X94231000Y-118669000D02*
X98809000Y-118669000D01*
X94311000Y-118629000D02*
X98729000Y-118629000D01*
X94395000Y-118589000D02*
X98645000Y-118589000D01*
X94483000Y-118549000D02*
X98557000Y-118549000D01*
X94576000Y-118509000D02*
X98464000Y-118509000D01*
X94674000Y-118469000D02*
X98366000Y-118469000D01*
X94778000Y-118429000D02*
X98262000Y-118429000D01*
X94890000Y-118389000D02*
X98150000Y-118389000D01*
X95010000Y-118349000D02*
X98030000Y-118349000D01*
X95142000Y-118309000D02*
X97898000Y-118309000D01*
X95290000Y-118269000D02*
X97750000Y-118269000D01*
X95458000Y-118229000D02*
X97582000Y-118229000D01*
X95658000Y-118189000D02*
X97382000Y-118189000D01*
X95921000Y-118149000D02*
X97119000Y-118149000D01*
X101640000Y-123230000D02*
G75*
G03*
X101640000Y-123230000I-5120000J0D01*
G01*
%TO.C,R8*%
X80415000Y-88265000D02*
X81185000Y-88265000D01*
X81185000Y-86895000D02*
X81185000Y-89635000D01*
X81185000Y-89635000D02*
X87725000Y-89635000D01*
X87725000Y-86895000D02*
X81185000Y-86895000D01*
X87725000Y-89635000D02*
X87725000Y-86895000D01*
X88495000Y-88265000D02*
X87725000Y-88265000D01*
%TO.C,R13*%
X84130000Y-83415000D02*
X84130000Y-82645000D01*
X82760000Y-82645000D02*
X85500000Y-82645000D01*
X85500000Y-82645000D02*
X85500000Y-76105000D01*
X82760000Y-76105000D02*
X82760000Y-82645000D01*
X85500000Y-76105000D02*
X82760000Y-76105000D01*
X84130000Y-75335000D02*
X84130000Y-76105000D01*
%TO.C,D3*%
X112830000Y-57965000D02*
X112830000Y-52525000D01*
X113160000Y-57965000D02*
X112830000Y-57965000D01*
X115440000Y-57965000D02*
X115770000Y-57965000D01*
X115770000Y-57965000D02*
X115770000Y-52525000D01*
X112830000Y-57185000D02*
X115770000Y-57185000D01*
X112830000Y-57065000D02*
X115770000Y-57065000D01*
X112830000Y-56945000D02*
X115770000Y-56945000D01*
X112830000Y-52525000D02*
X113160000Y-52525000D01*
X115770000Y-52525000D02*
X115440000Y-52525000D01*
%TO.C,Y1*%
X105995000Y-106695000D02*
X112245000Y-106695000D01*
X105995000Y-111745000D02*
X112245000Y-111745000D01*
X105995000Y-106695000D02*
G75*
G03*
X105995000Y-111745000I0J-2525000D01*
G01*
X112245000Y-111745000D02*
G75*
G03*
X112245000Y-106695000I0J2525000D01*
G01*
%TO.C,J2*%
X73025000Y-46355000D02*
X73025000Y-53975000D01*
X73025000Y-46355000D02*
X93345000Y-46355000D01*
X73025000Y-53975000D02*
X93345000Y-53975000D01*
X93345000Y-52705000D02*
X73025000Y-52705000D01*
X93345000Y-53975000D02*
X93345000Y-46355000D01*
%TO.C,C1-2*%
X104080000Y-112295000D02*
X104080000Y-115035000D01*
X104080000Y-112295000D02*
X109320000Y-112295000D01*
X104080000Y-115035000D02*
X109320000Y-115035000D01*
X109320000Y-112295000D02*
X109320000Y-115035000D01*
%TO.C,R18*%
X105815000Y-92710000D02*
X106585000Y-92710000D01*
X106585000Y-91340000D02*
X106585000Y-94080000D01*
X106585000Y-94080000D02*
X113125000Y-94080000D01*
X113125000Y-91340000D02*
X106585000Y-91340000D01*
X113125000Y-94080000D02*
X113125000Y-91340000D01*
X113895000Y-92710000D02*
X113125000Y-92710000D01*
%TD*%
M02*
