%TF.GenerationSoftware,KiCad,Pcbnew,7.0.6*%
%TF.CreationDate,2023-08-30T11:14:02+03:00*%
%TF.ProjectId,atmegaStepperDriver,61746d65-6761-4537-9465-707065724472,V0.8.2*%
%TF.SameCoordinates,Original*%
%TF.FileFunction,Drillmap*%
%TF.FilePolarity,Positive*%
%FSLAX45Y45*%
G04 Gerber Fmt 4.5, Leading zero omitted, Abs format (unit mm)*
G04 Created by KiCad (PCBNEW 7.0.6) date 2023-08-30 11:14:02*
%MOMM*%
%LPD*%
G01*
G04 APERTURE LIST*
%ADD10C,0.100000*%
%ADD11C,0.200000*%
%ADD12C,0.320000*%
G04 APERTURE END LIST*
D10*
X7239000Y-14224000D02*
G75*
G03*
X7429500Y-14414500I190500J0D01*
G01*
X7429500Y-5207000D02*
G75*
G03*
X7239000Y-5397500I0J-190500D01*
G01*
X12319000Y-14224000D02*
X12319000Y-5397500D01*
X12128500Y-14414500D02*
G75*
G03*
X12319000Y-14224000I0J190500D01*
G01*
X7429500Y-5207000D02*
X12128500Y-5207000D01*
X12319000Y-5397500D02*
G75*
G03*
X12128500Y-5207000I-190500J0D01*
G01*
X12128500Y-14414500D02*
X7429500Y-14414500D01*
X7239000Y-14224000D02*
X7239000Y-5397500D01*
D11*
D12*
X7396500Y-5364500D02*
X7716500Y-5684500D01*
X7716500Y-5364500D02*
X7396500Y-5684500D01*
X7396500Y-13937000D02*
X7716500Y-14257000D01*
X7716500Y-13937000D02*
X7396500Y-14257000D01*
X11841500Y-5364500D02*
X12161500Y-5684500D01*
X12161500Y-5364500D02*
X11841500Y-5684500D01*
X11841500Y-13937000D02*
X12161500Y-14257000D01*
X12161500Y-13937000D02*
X11841500Y-14257000D01*
D11*
X7494777Y-14730984D02*
X7494777Y-14530984D01*
X7494777Y-14530984D02*
X7542396Y-14530984D01*
X7542396Y-14530984D02*
X7570967Y-14540508D01*
X7570967Y-14540508D02*
X7590015Y-14559555D01*
X7590015Y-14559555D02*
X7599539Y-14578603D01*
X7599539Y-14578603D02*
X7609062Y-14616698D01*
X7609062Y-14616698D02*
X7609062Y-14645269D01*
X7609062Y-14645269D02*
X7599539Y-14683365D01*
X7599539Y-14683365D02*
X7590015Y-14702412D01*
X7590015Y-14702412D02*
X7570967Y-14721460D01*
X7570967Y-14721460D02*
X7542396Y-14730984D01*
X7542396Y-14730984D02*
X7494777Y-14730984D01*
X7694777Y-14730984D02*
X7694777Y-14597650D01*
X7694777Y-14635746D02*
X7704301Y-14616698D01*
X7704301Y-14616698D02*
X7713824Y-14607174D01*
X7713824Y-14607174D02*
X7732872Y-14597650D01*
X7732872Y-14597650D02*
X7751920Y-14597650D01*
X7818586Y-14730984D02*
X7818586Y-14597650D01*
X7818586Y-14530984D02*
X7809062Y-14540508D01*
X7809062Y-14540508D02*
X7818586Y-14550031D01*
X7818586Y-14550031D02*
X7828110Y-14540508D01*
X7828110Y-14540508D02*
X7818586Y-14530984D01*
X7818586Y-14530984D02*
X7818586Y-14550031D01*
X7942396Y-14730984D02*
X7923348Y-14721460D01*
X7923348Y-14721460D02*
X7913824Y-14702412D01*
X7913824Y-14702412D02*
X7913824Y-14530984D01*
X8047158Y-14730984D02*
X8028110Y-14721460D01*
X8028110Y-14721460D02*
X8018586Y-14702412D01*
X8018586Y-14702412D02*
X8018586Y-14530984D01*
X8275729Y-14730984D02*
X8275729Y-14530984D01*
X8275729Y-14530984D02*
X8342396Y-14673841D01*
X8342396Y-14673841D02*
X8409063Y-14530984D01*
X8409063Y-14530984D02*
X8409063Y-14730984D01*
X8590015Y-14730984D02*
X8590015Y-14626222D01*
X8590015Y-14626222D02*
X8580491Y-14607174D01*
X8580491Y-14607174D02*
X8561444Y-14597650D01*
X8561444Y-14597650D02*
X8523348Y-14597650D01*
X8523348Y-14597650D02*
X8504301Y-14607174D01*
X8590015Y-14721460D02*
X8570967Y-14730984D01*
X8570967Y-14730984D02*
X8523348Y-14730984D01*
X8523348Y-14730984D02*
X8504301Y-14721460D01*
X8504301Y-14721460D02*
X8494777Y-14702412D01*
X8494777Y-14702412D02*
X8494777Y-14683365D01*
X8494777Y-14683365D02*
X8504301Y-14664317D01*
X8504301Y-14664317D02*
X8523348Y-14654793D01*
X8523348Y-14654793D02*
X8570967Y-14654793D01*
X8570967Y-14654793D02*
X8590015Y-14645269D01*
X8685253Y-14597650D02*
X8685253Y-14797650D01*
X8685253Y-14607174D02*
X8704301Y-14597650D01*
X8704301Y-14597650D02*
X8742396Y-14597650D01*
X8742396Y-14597650D02*
X8761444Y-14607174D01*
X8761444Y-14607174D02*
X8770967Y-14616698D01*
X8770967Y-14616698D02*
X8780491Y-14635746D01*
X8780491Y-14635746D02*
X8780491Y-14692888D01*
X8780491Y-14692888D02*
X8770967Y-14711936D01*
X8770967Y-14711936D02*
X8761444Y-14721460D01*
X8761444Y-14721460D02*
X8742396Y-14730984D01*
X8742396Y-14730984D02*
X8704301Y-14730984D01*
X8704301Y-14730984D02*
X8685253Y-14721460D01*
X8866205Y-14711936D02*
X8875729Y-14721460D01*
X8875729Y-14721460D02*
X8866205Y-14730984D01*
X8866205Y-14730984D02*
X8856682Y-14721460D01*
X8856682Y-14721460D02*
X8866205Y-14711936D01*
X8866205Y-14711936D02*
X8866205Y-14730984D01*
X8866205Y-14607174D02*
X8875729Y-14616698D01*
X8875729Y-14616698D02*
X8866205Y-14626222D01*
X8866205Y-14626222D02*
X8856682Y-14616698D01*
X8856682Y-14616698D02*
X8866205Y-14607174D01*
X8866205Y-14607174D02*
X8866205Y-14626222D01*
X7034000Y-14959500D02*
X7234000Y-15159500D01*
X7234000Y-14959500D02*
X7034000Y-15159500D01*
X7475729Y-14950984D02*
X7599539Y-14950984D01*
X7599539Y-14950984D02*
X7532872Y-15027174D01*
X7532872Y-15027174D02*
X7561443Y-15027174D01*
X7561443Y-15027174D02*
X7580491Y-15036698D01*
X7580491Y-15036698D02*
X7590015Y-15046222D01*
X7590015Y-15046222D02*
X7599539Y-15065269D01*
X7599539Y-15065269D02*
X7599539Y-15112888D01*
X7599539Y-15112888D02*
X7590015Y-15131936D01*
X7590015Y-15131936D02*
X7580491Y-15141460D01*
X7580491Y-15141460D02*
X7561443Y-15150984D01*
X7561443Y-15150984D02*
X7504301Y-15150984D01*
X7504301Y-15150984D02*
X7485253Y-15141460D01*
X7485253Y-15141460D02*
X7475729Y-15131936D01*
X7685253Y-15131936D02*
X7694777Y-15141460D01*
X7694777Y-15141460D02*
X7685253Y-15150984D01*
X7685253Y-15150984D02*
X7675729Y-15141460D01*
X7675729Y-15141460D02*
X7685253Y-15131936D01*
X7685253Y-15131936D02*
X7685253Y-15150984D01*
X7770967Y-14970031D02*
X7780491Y-14960508D01*
X7780491Y-14960508D02*
X7799539Y-14950984D01*
X7799539Y-14950984D02*
X7847158Y-14950984D01*
X7847158Y-14950984D02*
X7866205Y-14960508D01*
X7866205Y-14960508D02*
X7875729Y-14970031D01*
X7875729Y-14970031D02*
X7885253Y-14989079D01*
X7885253Y-14989079D02*
X7885253Y-15008127D01*
X7885253Y-15008127D02*
X7875729Y-15036698D01*
X7875729Y-15036698D02*
X7761443Y-15150984D01*
X7761443Y-15150984D02*
X7885253Y-15150984D01*
X8009062Y-14950984D02*
X8028110Y-14950984D01*
X8028110Y-14950984D02*
X8047158Y-14960508D01*
X8047158Y-14960508D02*
X8056682Y-14970031D01*
X8056682Y-14970031D02*
X8066205Y-14989079D01*
X8066205Y-14989079D02*
X8075729Y-15027174D01*
X8075729Y-15027174D02*
X8075729Y-15074793D01*
X8075729Y-15074793D02*
X8066205Y-15112888D01*
X8066205Y-15112888D02*
X8056682Y-15131936D01*
X8056682Y-15131936D02*
X8047158Y-15141460D01*
X8047158Y-15141460D02*
X8028110Y-15150984D01*
X8028110Y-15150984D02*
X8009062Y-15150984D01*
X8009062Y-15150984D02*
X7990015Y-15141460D01*
X7990015Y-15141460D02*
X7980491Y-15131936D01*
X7980491Y-15131936D02*
X7970967Y-15112888D01*
X7970967Y-15112888D02*
X7961443Y-15074793D01*
X7961443Y-15074793D02*
X7961443Y-15027174D01*
X7961443Y-15027174D02*
X7970967Y-14989079D01*
X7970967Y-14989079D02*
X7980491Y-14970031D01*
X7980491Y-14970031D02*
X7990015Y-14960508D01*
X7990015Y-14960508D02*
X8009062Y-14950984D01*
X8199539Y-14950984D02*
X8218586Y-14950984D01*
X8218586Y-14950984D02*
X8237634Y-14960508D01*
X8237634Y-14960508D02*
X8247158Y-14970031D01*
X8247158Y-14970031D02*
X8256682Y-14989079D01*
X8256682Y-14989079D02*
X8266205Y-15027174D01*
X8266205Y-15027174D02*
X8266205Y-15074793D01*
X8266205Y-15074793D02*
X8256682Y-15112888D01*
X8256682Y-15112888D02*
X8247158Y-15131936D01*
X8247158Y-15131936D02*
X8237634Y-15141460D01*
X8237634Y-15141460D02*
X8218586Y-15150984D01*
X8218586Y-15150984D02*
X8199539Y-15150984D01*
X8199539Y-15150984D02*
X8180491Y-15141460D01*
X8180491Y-15141460D02*
X8170967Y-15131936D01*
X8170967Y-15131936D02*
X8161443Y-15112888D01*
X8161443Y-15112888D02*
X8151920Y-15074793D01*
X8151920Y-15074793D02*
X8151920Y-15027174D01*
X8151920Y-15027174D02*
X8161443Y-14989079D01*
X8161443Y-14989079D02*
X8170967Y-14970031D01*
X8170967Y-14970031D02*
X8180491Y-14960508D01*
X8180491Y-14960508D02*
X8199539Y-14950984D01*
X8351920Y-15150984D02*
X8351920Y-15017650D01*
X8351920Y-15036698D02*
X8361443Y-15027174D01*
X8361443Y-15027174D02*
X8380491Y-15017650D01*
X8380491Y-15017650D02*
X8409063Y-15017650D01*
X8409063Y-15017650D02*
X8428110Y-15027174D01*
X8428110Y-15027174D02*
X8437634Y-15046222D01*
X8437634Y-15046222D02*
X8437634Y-15150984D01*
X8437634Y-15046222D02*
X8447158Y-15027174D01*
X8447158Y-15027174D02*
X8466205Y-15017650D01*
X8466205Y-15017650D02*
X8494777Y-15017650D01*
X8494777Y-15017650D02*
X8513825Y-15027174D01*
X8513825Y-15027174D02*
X8523348Y-15046222D01*
X8523348Y-15046222D02*
X8523348Y-15150984D01*
X8618586Y-15150984D02*
X8618586Y-15017650D01*
X8618586Y-15036698D02*
X8628110Y-15027174D01*
X8628110Y-15027174D02*
X8647158Y-15017650D01*
X8647158Y-15017650D02*
X8675729Y-15017650D01*
X8675729Y-15017650D02*
X8694777Y-15027174D01*
X8694777Y-15027174D02*
X8704301Y-15046222D01*
X8704301Y-15046222D02*
X8704301Y-15150984D01*
X8704301Y-15046222D02*
X8713825Y-15027174D01*
X8713825Y-15027174D02*
X8732872Y-15017650D01*
X8732872Y-15017650D02*
X8761444Y-15017650D01*
X8761444Y-15017650D02*
X8780491Y-15027174D01*
X8780491Y-15027174D02*
X8790015Y-15046222D01*
X8790015Y-15046222D02*
X8790015Y-15150984D01*
X9180491Y-14941460D02*
X9009063Y-15198603D01*
X9437634Y-14950984D02*
X9456682Y-14950984D01*
X9456682Y-14950984D02*
X9475729Y-14960508D01*
X9475729Y-14960508D02*
X9485253Y-14970031D01*
X9485253Y-14970031D02*
X9494777Y-14989079D01*
X9494777Y-14989079D02*
X9504301Y-15027174D01*
X9504301Y-15027174D02*
X9504301Y-15074793D01*
X9504301Y-15074793D02*
X9494777Y-15112888D01*
X9494777Y-15112888D02*
X9485253Y-15131936D01*
X9485253Y-15131936D02*
X9475729Y-15141460D01*
X9475729Y-15141460D02*
X9456682Y-15150984D01*
X9456682Y-15150984D02*
X9437634Y-15150984D01*
X9437634Y-15150984D02*
X9418587Y-15141460D01*
X9418587Y-15141460D02*
X9409063Y-15131936D01*
X9409063Y-15131936D02*
X9399539Y-15112888D01*
X9399539Y-15112888D02*
X9390015Y-15074793D01*
X9390015Y-15074793D02*
X9390015Y-15027174D01*
X9390015Y-15027174D02*
X9399539Y-14989079D01*
X9399539Y-14989079D02*
X9409063Y-14970031D01*
X9409063Y-14970031D02*
X9418587Y-14960508D01*
X9418587Y-14960508D02*
X9437634Y-14950984D01*
X9590015Y-15131936D02*
X9599539Y-15141460D01*
X9599539Y-15141460D02*
X9590015Y-15150984D01*
X9590015Y-15150984D02*
X9580491Y-15141460D01*
X9580491Y-15141460D02*
X9590015Y-15131936D01*
X9590015Y-15131936D02*
X9590015Y-15150984D01*
X9790015Y-15150984D02*
X9675729Y-15150984D01*
X9732872Y-15150984D02*
X9732872Y-14950984D01*
X9732872Y-14950984D02*
X9713825Y-14979555D01*
X9713825Y-14979555D02*
X9694777Y-14998603D01*
X9694777Y-14998603D02*
X9675729Y-15008127D01*
X9866206Y-14970031D02*
X9875729Y-14960508D01*
X9875729Y-14960508D02*
X9894777Y-14950984D01*
X9894777Y-14950984D02*
X9942396Y-14950984D01*
X9942396Y-14950984D02*
X9961444Y-14960508D01*
X9961444Y-14960508D02*
X9970968Y-14970031D01*
X9970968Y-14970031D02*
X9980491Y-14989079D01*
X9980491Y-14989079D02*
X9980491Y-15008127D01*
X9980491Y-15008127D02*
X9970968Y-15036698D01*
X9970968Y-15036698D02*
X9856682Y-15150984D01*
X9856682Y-15150984D02*
X9980491Y-15150984D01*
X10151920Y-14950984D02*
X10113825Y-14950984D01*
X10113825Y-14950984D02*
X10094777Y-14960508D01*
X10094777Y-14960508D02*
X10085253Y-14970031D01*
X10085253Y-14970031D02*
X10066206Y-14998603D01*
X10066206Y-14998603D02*
X10056682Y-15036698D01*
X10056682Y-15036698D02*
X10056682Y-15112888D01*
X10056682Y-15112888D02*
X10066206Y-15131936D01*
X10066206Y-15131936D02*
X10075729Y-15141460D01*
X10075729Y-15141460D02*
X10094777Y-15150984D01*
X10094777Y-15150984D02*
X10132872Y-15150984D01*
X10132872Y-15150984D02*
X10151920Y-15141460D01*
X10151920Y-15141460D02*
X10161444Y-15131936D01*
X10161444Y-15131936D02*
X10170968Y-15112888D01*
X10170968Y-15112888D02*
X10170968Y-15065269D01*
X10170968Y-15065269D02*
X10161444Y-15046222D01*
X10161444Y-15046222D02*
X10151920Y-15036698D01*
X10151920Y-15036698D02*
X10132872Y-15027174D01*
X10132872Y-15027174D02*
X10094777Y-15027174D01*
X10094777Y-15027174D02*
X10075729Y-15036698D01*
X10075729Y-15036698D02*
X10066206Y-15046222D01*
X10066206Y-15046222D02*
X10056682Y-15065269D01*
X10294777Y-14950984D02*
X10313825Y-14950984D01*
X10313825Y-14950984D02*
X10332872Y-14960508D01*
X10332872Y-14960508D02*
X10342396Y-14970031D01*
X10342396Y-14970031D02*
X10351920Y-14989079D01*
X10351920Y-14989079D02*
X10361444Y-15027174D01*
X10361444Y-15027174D02*
X10361444Y-15074793D01*
X10361444Y-15074793D02*
X10351920Y-15112888D01*
X10351920Y-15112888D02*
X10342396Y-15131936D01*
X10342396Y-15131936D02*
X10332872Y-15141460D01*
X10332872Y-15141460D02*
X10313825Y-15150984D01*
X10313825Y-15150984D02*
X10294777Y-15150984D01*
X10294777Y-15150984D02*
X10275729Y-15141460D01*
X10275729Y-15141460D02*
X10266206Y-15131936D01*
X10266206Y-15131936D02*
X10256682Y-15112888D01*
X10256682Y-15112888D02*
X10247158Y-15074793D01*
X10247158Y-15074793D02*
X10247158Y-15027174D01*
X10247158Y-15027174D02*
X10256682Y-14989079D01*
X10256682Y-14989079D02*
X10266206Y-14970031D01*
X10266206Y-14970031D02*
X10275729Y-14960508D01*
X10275729Y-14960508D02*
X10294777Y-14950984D01*
X10437634Y-14950984D02*
X10437634Y-14989079D01*
X10513825Y-14950984D02*
X10513825Y-14989079D01*
X10809063Y-15227174D02*
X10799539Y-15217650D01*
X10799539Y-15217650D02*
X10780491Y-15189079D01*
X10780491Y-15189079D02*
X10770968Y-15170031D01*
X10770968Y-15170031D02*
X10761444Y-15141460D01*
X10761444Y-15141460D02*
X10751920Y-15093841D01*
X10751920Y-15093841D02*
X10751920Y-15055746D01*
X10751920Y-15055746D02*
X10761444Y-15008127D01*
X10761444Y-15008127D02*
X10770968Y-14979555D01*
X10770968Y-14979555D02*
X10780491Y-14960508D01*
X10780491Y-14960508D02*
X10799539Y-14931936D01*
X10799539Y-14931936D02*
X10809063Y-14922412D01*
X10970968Y-15017650D02*
X10970968Y-15150984D01*
X10923349Y-14941460D02*
X10875730Y-15084317D01*
X10875730Y-15084317D02*
X10999539Y-15084317D01*
X11228110Y-15150984D02*
X11228110Y-14950984D01*
X11313825Y-15150984D02*
X11313825Y-15046222D01*
X11313825Y-15046222D02*
X11304301Y-15027174D01*
X11304301Y-15027174D02*
X11285253Y-15017650D01*
X11285253Y-15017650D02*
X11256682Y-15017650D01*
X11256682Y-15017650D02*
X11237634Y-15027174D01*
X11237634Y-15027174D02*
X11228110Y-15036698D01*
X11437634Y-15150984D02*
X11418587Y-15141460D01*
X11418587Y-15141460D02*
X11409063Y-15131936D01*
X11409063Y-15131936D02*
X11399539Y-15112888D01*
X11399539Y-15112888D02*
X11399539Y-15055746D01*
X11399539Y-15055746D02*
X11409063Y-15036698D01*
X11409063Y-15036698D02*
X11418587Y-15027174D01*
X11418587Y-15027174D02*
X11437634Y-15017650D01*
X11437634Y-15017650D02*
X11466206Y-15017650D01*
X11466206Y-15017650D02*
X11485253Y-15027174D01*
X11485253Y-15027174D02*
X11494777Y-15036698D01*
X11494777Y-15036698D02*
X11504301Y-15055746D01*
X11504301Y-15055746D02*
X11504301Y-15112888D01*
X11504301Y-15112888D02*
X11494777Y-15131936D01*
X11494777Y-15131936D02*
X11485253Y-15141460D01*
X11485253Y-15141460D02*
X11466206Y-15150984D01*
X11466206Y-15150984D02*
X11437634Y-15150984D01*
X11618587Y-15150984D02*
X11599539Y-15141460D01*
X11599539Y-15141460D02*
X11590015Y-15122412D01*
X11590015Y-15122412D02*
X11590015Y-14950984D01*
X11770968Y-15141460D02*
X11751920Y-15150984D01*
X11751920Y-15150984D02*
X11713825Y-15150984D01*
X11713825Y-15150984D02*
X11694777Y-15141460D01*
X11694777Y-15141460D02*
X11685253Y-15122412D01*
X11685253Y-15122412D02*
X11685253Y-15046222D01*
X11685253Y-15046222D02*
X11694777Y-15027174D01*
X11694777Y-15027174D02*
X11713825Y-15017650D01*
X11713825Y-15017650D02*
X11751920Y-15017650D01*
X11751920Y-15017650D02*
X11770968Y-15027174D01*
X11770968Y-15027174D02*
X11780491Y-15046222D01*
X11780491Y-15046222D02*
X11780491Y-15065269D01*
X11780491Y-15065269D02*
X11685253Y-15084317D01*
X11856682Y-15141460D02*
X11875730Y-15150984D01*
X11875730Y-15150984D02*
X11913825Y-15150984D01*
X11913825Y-15150984D02*
X11932872Y-15141460D01*
X11932872Y-15141460D02*
X11942396Y-15122412D01*
X11942396Y-15122412D02*
X11942396Y-15112888D01*
X11942396Y-15112888D02*
X11932872Y-15093841D01*
X11932872Y-15093841D02*
X11913825Y-15084317D01*
X11913825Y-15084317D02*
X11885253Y-15084317D01*
X11885253Y-15084317D02*
X11866206Y-15074793D01*
X11866206Y-15074793D02*
X11856682Y-15055746D01*
X11856682Y-15055746D02*
X11856682Y-15046222D01*
X11856682Y-15046222D02*
X11866206Y-15027174D01*
X11866206Y-15027174D02*
X11885253Y-15017650D01*
X11885253Y-15017650D02*
X11913825Y-15017650D01*
X11913825Y-15017650D02*
X11932872Y-15027174D01*
X12009063Y-15227174D02*
X12018587Y-15217650D01*
X12018587Y-15217650D02*
X12037634Y-15189079D01*
X12037634Y-15189079D02*
X12047158Y-15170031D01*
X12047158Y-15170031D02*
X12056682Y-15141460D01*
X12056682Y-15141460D02*
X12066206Y-15093841D01*
X12066206Y-15093841D02*
X12066206Y-15055746D01*
X12066206Y-15055746D02*
X12056682Y-15008127D01*
X12056682Y-15008127D02*
X12047158Y-14979555D01*
X12047158Y-14979555D02*
X12037634Y-14960508D01*
X12037634Y-14960508D02*
X12018587Y-14931936D01*
X12018587Y-14931936D02*
X12009063Y-14922412D01*
X12370968Y-15227174D02*
X12361444Y-15217650D01*
X12361444Y-15217650D02*
X12342396Y-15189079D01*
X12342396Y-15189079D02*
X12332872Y-15170031D01*
X12332872Y-15170031D02*
X12323349Y-15141460D01*
X12323349Y-15141460D02*
X12313825Y-15093841D01*
X12313825Y-15093841D02*
X12313825Y-15055746D01*
X12313825Y-15055746D02*
X12323349Y-15008127D01*
X12323349Y-15008127D02*
X12332872Y-14979555D01*
X12332872Y-14979555D02*
X12342396Y-14960508D01*
X12342396Y-14960508D02*
X12361444Y-14931936D01*
X12361444Y-14931936D02*
X12370968Y-14922412D01*
X12447158Y-15017650D02*
X12447158Y-15150984D01*
X12447158Y-15036698D02*
X12456682Y-15027174D01*
X12456682Y-15027174D02*
X12475730Y-15017650D01*
X12475730Y-15017650D02*
X12504301Y-15017650D01*
X12504301Y-15017650D02*
X12523349Y-15027174D01*
X12523349Y-15027174D02*
X12532872Y-15046222D01*
X12532872Y-15046222D02*
X12532872Y-15150984D01*
X12656682Y-15150984D02*
X12637634Y-15141460D01*
X12637634Y-15141460D02*
X12628111Y-15131936D01*
X12628111Y-15131936D02*
X12618587Y-15112888D01*
X12618587Y-15112888D02*
X12618587Y-15055746D01*
X12618587Y-15055746D02*
X12628111Y-15036698D01*
X12628111Y-15036698D02*
X12637634Y-15027174D01*
X12637634Y-15027174D02*
X12656682Y-15017650D01*
X12656682Y-15017650D02*
X12685253Y-15017650D01*
X12685253Y-15017650D02*
X12704301Y-15027174D01*
X12704301Y-15027174D02*
X12713825Y-15036698D01*
X12713825Y-15036698D02*
X12723349Y-15055746D01*
X12723349Y-15055746D02*
X12723349Y-15112888D01*
X12723349Y-15112888D02*
X12713825Y-15131936D01*
X12713825Y-15131936D02*
X12704301Y-15141460D01*
X12704301Y-15141460D02*
X12685253Y-15150984D01*
X12685253Y-15150984D02*
X12656682Y-15150984D01*
X12780492Y-15017650D02*
X12856682Y-15017650D01*
X12809063Y-14950984D02*
X12809063Y-15122412D01*
X12809063Y-15122412D02*
X12818587Y-15141460D01*
X12818587Y-15141460D02*
X12837634Y-15150984D01*
X12837634Y-15150984D02*
X12856682Y-15150984D01*
X13075730Y-15017650D02*
X13075730Y-15217650D01*
X13075730Y-15027174D02*
X13094777Y-15017650D01*
X13094777Y-15017650D02*
X13132873Y-15017650D01*
X13132873Y-15017650D02*
X13151920Y-15027174D01*
X13151920Y-15027174D02*
X13161444Y-15036698D01*
X13161444Y-15036698D02*
X13170968Y-15055746D01*
X13170968Y-15055746D02*
X13170968Y-15112888D01*
X13170968Y-15112888D02*
X13161444Y-15131936D01*
X13161444Y-15131936D02*
X13151920Y-15141460D01*
X13151920Y-15141460D02*
X13132873Y-15150984D01*
X13132873Y-15150984D02*
X13094777Y-15150984D01*
X13094777Y-15150984D02*
X13075730Y-15141460D01*
X13285253Y-15150984D02*
X13266206Y-15141460D01*
X13266206Y-15141460D02*
X13256682Y-15122412D01*
X13256682Y-15122412D02*
X13256682Y-14950984D01*
X13447158Y-15150984D02*
X13447158Y-15046222D01*
X13447158Y-15046222D02*
X13437634Y-15027174D01*
X13437634Y-15027174D02*
X13418587Y-15017650D01*
X13418587Y-15017650D02*
X13380492Y-15017650D01*
X13380492Y-15017650D02*
X13361444Y-15027174D01*
X13447158Y-15141460D02*
X13428111Y-15150984D01*
X13428111Y-15150984D02*
X13380492Y-15150984D01*
X13380492Y-15150984D02*
X13361444Y-15141460D01*
X13361444Y-15141460D02*
X13351920Y-15122412D01*
X13351920Y-15122412D02*
X13351920Y-15103365D01*
X13351920Y-15103365D02*
X13361444Y-15084317D01*
X13361444Y-15084317D02*
X13380492Y-15074793D01*
X13380492Y-15074793D02*
X13428111Y-15074793D01*
X13428111Y-15074793D02*
X13447158Y-15065269D01*
X13513825Y-15017650D02*
X13590015Y-15017650D01*
X13542396Y-14950984D02*
X13542396Y-15122412D01*
X13542396Y-15122412D02*
X13551920Y-15141460D01*
X13551920Y-15141460D02*
X13570968Y-15150984D01*
X13570968Y-15150984D02*
X13590015Y-15150984D01*
X13732873Y-15141460D02*
X13713825Y-15150984D01*
X13713825Y-15150984D02*
X13675730Y-15150984D01*
X13675730Y-15150984D02*
X13656682Y-15141460D01*
X13656682Y-15141460D02*
X13647158Y-15122412D01*
X13647158Y-15122412D02*
X13647158Y-15046222D01*
X13647158Y-15046222D02*
X13656682Y-15027174D01*
X13656682Y-15027174D02*
X13675730Y-15017650D01*
X13675730Y-15017650D02*
X13713825Y-15017650D01*
X13713825Y-15017650D02*
X13732873Y-15027174D01*
X13732873Y-15027174D02*
X13742396Y-15046222D01*
X13742396Y-15046222D02*
X13742396Y-15065269D01*
X13742396Y-15065269D02*
X13647158Y-15084317D01*
X13913825Y-15150984D02*
X13913825Y-14950984D01*
X13913825Y-15141460D02*
X13894777Y-15150984D01*
X13894777Y-15150984D02*
X13856682Y-15150984D01*
X13856682Y-15150984D02*
X13837634Y-15141460D01*
X13837634Y-15141460D02*
X13828111Y-15131936D01*
X13828111Y-15131936D02*
X13818587Y-15112888D01*
X13818587Y-15112888D02*
X13818587Y-15055746D01*
X13818587Y-15055746D02*
X13828111Y-15036698D01*
X13828111Y-15036698D02*
X13837634Y-15027174D01*
X13837634Y-15027174D02*
X13856682Y-15017650D01*
X13856682Y-15017650D02*
X13894777Y-15017650D01*
X13894777Y-15017650D02*
X13913825Y-15027174D01*
X13990015Y-15227174D02*
X13999539Y-15217650D01*
X13999539Y-15217650D02*
X14018587Y-15189079D01*
X14018587Y-15189079D02*
X14028111Y-15170031D01*
X14028111Y-15170031D02*
X14037634Y-15141460D01*
X14037634Y-15141460D02*
X14047158Y-15093841D01*
X14047158Y-15093841D02*
X14047158Y-15055746D01*
X14047158Y-15055746D02*
X14037634Y-15008127D01*
X14037634Y-15008127D02*
X14028111Y-14979555D01*
X14028111Y-14979555D02*
X14018587Y-14960508D01*
X14018587Y-14960508D02*
X13999539Y-14931936D01*
X13999539Y-14931936D02*
X13990015Y-14922412D01*
M02*
