%TF.GenerationSoftware,KiCad,Pcbnew,7.0.6*%
%TF.CreationDate,2023-08-30T11:20:02+03:00*%
%TF.ProjectId,atmegaStepperDriver,61746d65-6761-4537-9465-707065724472,V0.8.2*%
%TF.SameCoordinates,Original*%
%TF.FileFunction,Drillmap*%
%TF.FilePolarity,Positive*%
%FSLAX45Y45*%
G04 Gerber Fmt 4.5, Leading zero omitted, Abs format (unit mm)*
G04 Created by KiCad (PCBNEW 7.0.6) date 2023-08-30 11:20:02*
%MOMM*%
%LPD*%
G01*
G04 APERTURE LIST*
%ADD10C,0.100000*%
%ADD11C,0.200000*%
%ADD12C,0.010000*%
%ADD13C,0.040000*%
%ADD14C,0.075000*%
%ADD15C,0.080000*%
%ADD16C,0.090000*%
%ADD17C,0.110000*%
%ADD18C,0.130000*%
%ADD19C,0.152000*%
G04 APERTURE END LIST*
D10*
X7239000Y-14224000D02*
G75*
G03*
X7429500Y-14414500I190500J0D01*
G01*
X7429500Y-5207000D02*
G75*
G03*
X7239000Y-5397500I0J-190500D01*
G01*
X12319000Y-14224000D02*
X12319000Y-5397500D01*
X12128500Y-14414500D02*
G75*
G03*
X12319000Y-14224000I0J190500D01*
G01*
X7429500Y-5207000D02*
X12128500Y-5207000D01*
X12319000Y-5397500D02*
G75*
G03*
X12128500Y-5207000I-190500J0D01*
G01*
X12128500Y-14414500D02*
X7429500Y-14414500D01*
X7239000Y-14224000D02*
X7239000Y-5397500D01*
D11*
D12*
X8123000Y-10980500D02*
X8133000Y-10990500D01*
X8133000Y-10980500D02*
X8123000Y-10990500D01*
X8624500Y-10923500D02*
X8634500Y-10933500D01*
X8634500Y-10923500D02*
X8624500Y-10933500D01*
X8758000Y-6726000D02*
X8768000Y-6736000D01*
X8768000Y-6726000D02*
X8758000Y-6736000D01*
X8758000Y-12187000D02*
X8768000Y-12197000D01*
X8768000Y-12187000D02*
X8758000Y-12197000D01*
X8878500Y-12193500D02*
X8888500Y-12203500D01*
X8888500Y-12193500D02*
X8878500Y-12203500D01*
X8948500Y-11552000D02*
X8958500Y-11562000D01*
X8958500Y-11552000D02*
X8948500Y-11562000D01*
X8948500Y-12885500D02*
X8958500Y-12895500D01*
X8958500Y-12885500D02*
X8948500Y-12895500D01*
X9393000Y-6916500D02*
X9403000Y-6926500D01*
X9403000Y-6916500D02*
X9393000Y-6926500D01*
X9393000Y-8885000D02*
X9403000Y-8895000D01*
X9403000Y-8885000D02*
X9393000Y-8895000D01*
X9837500Y-10041500D02*
X9847500Y-10051500D01*
X9847500Y-10041500D02*
X9837500Y-10051500D01*
X10345500Y-12758500D02*
X10355500Y-12768500D01*
X10355500Y-12758500D02*
X10345500Y-12768500D01*
X10472500Y-6789500D02*
X10482500Y-6799500D01*
X10482500Y-6789500D02*
X10472500Y-6799500D01*
X10644253Y-8840248D02*
X10654253Y-8850248D01*
X10654253Y-8840248D02*
X10644253Y-8850248D01*
X11234500Y-8948500D02*
X11244500Y-8958500D01*
X11244500Y-8948500D02*
X11234500Y-8958500D01*
X11847252Y-8843747D02*
X11857252Y-8853747D01*
X11857252Y-8843747D02*
X11847252Y-8853747D01*
X11869500Y-8059500D02*
X11879500Y-8069500D01*
X11879500Y-8059500D02*
X11869500Y-8069500D01*
X11933000Y-9329500D02*
X11943000Y-9339500D01*
X11943000Y-9329500D02*
X11933000Y-9339500D01*
X11933000Y-10155000D02*
X11943000Y-10165000D01*
X11943000Y-10155000D02*
X11933000Y-10165000D01*
X12009500Y-9647000D02*
X12019500Y-9657000D01*
X12019500Y-9647000D02*
X12009500Y-9657000D01*
X12123500Y-7996000D02*
X12133500Y-8006000D01*
X12133500Y-7996000D02*
X12123500Y-8006000D01*
X12187000Y-10282000D02*
X12197000Y-10292000D01*
X12197000Y-10282000D02*
X12187000Y-10292000D01*
X12250500Y-12123500D02*
X12260500Y-12133500D01*
X12260500Y-12123500D02*
X12250500Y-12133500D01*
D13*
X7449500Y-8382000D02*
G75*
G03*
X7449500Y-8382000I-20000J0D01*
G01*
X7449500Y-10414000D02*
G75*
G03*
X7449500Y-10414000I-20000J0D01*
G01*
X8021000Y-7937500D02*
G75*
G03*
X8021000Y-7937500I-20000J0D01*
G01*
X8148000Y-9461500D02*
G75*
G03*
X8148000Y-9461500I-20000J0D01*
G01*
X8338500Y-10414000D02*
G75*
G03*
X8338500Y-10414000I-20000J0D01*
G01*
X8529000Y-11557000D02*
G75*
G03*
X8529000Y-11557000I-20000J0D01*
G01*
X8783000Y-8445500D02*
G75*
G03*
X8783000Y-8445500I-20000J0D01*
G01*
X8846500Y-9334500D02*
G75*
G03*
X8846500Y-9334500I-20000J0D01*
G01*
X9291000Y-10414000D02*
G75*
G03*
X9291000Y-10414000I-20000J0D01*
G01*
X9291000Y-11747500D02*
G75*
G03*
X9291000Y-11747500I-20000J0D01*
G01*
X9354500Y-7937500D02*
G75*
G03*
X9354500Y-7937500I-20000J0D01*
G01*
X9608500Y-8699500D02*
G75*
G03*
X9608500Y-8699500I-20000J0D01*
G01*
X10053000Y-8382000D02*
G75*
G03*
X10053000Y-8382000I-20000J0D01*
G01*
X10180000Y-10414000D02*
G75*
G03*
X10180000Y-10414000I-20000J0D01*
G01*
X10624500Y-7937500D02*
G75*
G03*
X10624500Y-7937500I-20000J0D01*
G01*
X11259500Y-8445500D02*
G75*
G03*
X11259500Y-8445500I-20000J0D01*
G01*
X11386500Y-10541000D02*
G75*
G03*
X11386500Y-10541000I-20000J0D01*
G01*
X11704000Y-7937500D02*
G75*
G03*
X11704000Y-7937500I-20000J0D01*
G01*
D14*
X8064500Y-8380500D02*
X8064500Y-8455500D01*
X8027000Y-8418000D02*
X8102000Y-8418000D01*
X8064500Y-8952000D02*
X8064500Y-9027000D01*
X8027000Y-8989500D02*
X8102000Y-8989500D01*
X8191500Y-8380500D02*
X8191500Y-8455500D01*
X8154000Y-8418000D02*
X8229000Y-8418000D01*
X8191500Y-8952000D02*
X8191500Y-9027000D01*
X8154000Y-8989500D02*
X8229000Y-8989500D01*
X8318500Y-8380500D02*
X8318500Y-8455500D01*
X8281000Y-8418000D02*
X8356000Y-8418000D01*
X8318500Y-8952000D02*
X8318500Y-9027000D01*
X8281000Y-8989500D02*
X8356000Y-8989500D01*
X9398000Y-8444000D02*
X9398000Y-8519000D01*
X9360500Y-8481500D02*
X9435500Y-8481500D01*
X9398000Y-8979500D02*
X9398000Y-9054500D01*
X9360500Y-9017000D02*
X9435500Y-9017000D01*
X9525000Y-8444000D02*
X9525000Y-8519000D01*
X9487500Y-8481500D02*
X9562500Y-8481500D01*
X9525000Y-8979500D02*
X9525000Y-9054500D01*
X9487500Y-9017000D02*
X9562500Y-9017000D01*
X9652000Y-8444000D02*
X9652000Y-8519000D01*
X9614500Y-8481500D02*
X9689500Y-8481500D01*
X9652000Y-8979500D02*
X9652000Y-9054500D01*
X9614500Y-9017000D02*
X9689500Y-9017000D01*
X10668000Y-8344500D02*
X10668000Y-8419500D01*
X10630500Y-8382000D02*
X10705500Y-8382000D01*
X10668000Y-8979500D02*
X10668000Y-9054500D01*
X10630500Y-9017000D02*
X10705500Y-9017000D01*
X10795000Y-8344500D02*
X10795000Y-8419500D01*
X10757500Y-8382000D02*
X10832500Y-8382000D01*
X10795000Y-8979500D02*
X10795000Y-9054500D01*
X10757500Y-9017000D02*
X10832500Y-9017000D01*
X10922000Y-8344500D02*
X10922000Y-8419500D01*
X10884500Y-8382000D02*
X10959500Y-8382000D01*
X10922000Y-8979500D02*
X10922000Y-9054500D01*
X10884500Y-9017000D02*
X10959500Y-9017000D01*
X11874500Y-8317000D02*
X11874500Y-8392000D01*
X11837000Y-8354500D02*
X11912000Y-8354500D01*
X11874500Y-8952000D02*
X11874500Y-9027000D01*
X11837000Y-8989500D02*
X11912000Y-8989500D01*
X12001500Y-8317000D02*
X12001500Y-8392000D01*
X11964000Y-8354500D02*
X12039000Y-8354500D01*
X12001500Y-8952000D02*
X12001500Y-9027000D01*
X11964000Y-8989500D02*
X12039000Y-8989500D01*
X12114275Y-6899833D02*
X12114275Y-6974833D01*
X12076775Y-6937333D02*
X12151775Y-6937333D01*
X12114275Y-7026833D02*
X12114275Y-7101833D01*
X12076775Y-7064333D02*
X12151775Y-7064333D01*
X12114275Y-7153833D02*
X12114275Y-7228833D01*
X12076775Y-7191333D02*
X12151775Y-7191333D01*
X12128500Y-8317000D02*
X12128500Y-8392000D01*
X12091000Y-8354500D02*
X12166000Y-8354500D01*
X12128500Y-8952000D02*
X12128500Y-9027000D01*
X12091000Y-8989500D02*
X12166000Y-8989500D01*
D15*
X7394284Y-9489785D02*
X7394284Y-9433216D01*
X7337715Y-9433216D01*
X7337715Y-9489785D01*
X7394284Y-9489785D01*
X7394284Y-9807285D02*
X7394284Y-9750716D01*
X7337715Y-9750716D01*
X7337715Y-9807285D01*
X7394284Y-9807285D01*
X7457784Y-8156284D02*
X7457784Y-8099715D01*
X7401215Y-8099715D01*
X7401215Y-8156284D01*
X7457784Y-8156284D01*
X7457784Y-9172285D02*
X7457784Y-9115716D01*
X7401215Y-9115716D01*
X7401215Y-9172285D01*
X7457784Y-9172285D01*
X7457784Y-13172784D02*
X7457784Y-13116215D01*
X7401215Y-13116215D01*
X7401215Y-13172784D01*
X7457784Y-13172784D01*
X7521284Y-11267784D02*
X7521284Y-11211215D01*
X7464715Y-11211215D01*
X7464715Y-11267784D01*
X7521284Y-11267784D01*
X7521284Y-12029784D02*
X7521284Y-11973215D01*
X7464715Y-11973215D01*
X7464715Y-12029784D01*
X7521284Y-12029784D01*
X7522284Y-10696285D02*
X7522284Y-10639716D01*
X7465715Y-10639716D01*
X7465715Y-10696285D01*
X7522284Y-10696285D01*
X7588784Y-12855284D02*
X7588784Y-12798715D01*
X7532215Y-12798715D01*
X7532215Y-12855284D01*
X7588784Y-12855284D01*
X7775284Y-8156284D02*
X7775284Y-8099715D01*
X7718715Y-8099715D01*
X7718715Y-8156284D01*
X7775284Y-8156284D01*
X7775284Y-9172285D02*
X7775284Y-9115716D01*
X7718715Y-9115716D01*
X7718715Y-9172285D01*
X7775284Y-9172285D01*
X7775284Y-11267784D02*
X7775284Y-11211215D01*
X7718715Y-11211215D01*
X7718715Y-11267784D01*
X7775284Y-11267784D01*
X7775284Y-12029784D02*
X7775284Y-11973215D01*
X7718715Y-11973215D01*
X7718715Y-12029784D01*
X7775284Y-12029784D01*
X7838784Y-12855284D02*
X7838784Y-12798715D01*
X7782215Y-12798715D01*
X7782215Y-12855284D01*
X7838784Y-12855284D01*
X7902284Y-10696285D02*
X7902284Y-10639716D01*
X7845715Y-10639716D01*
X7845715Y-10696285D01*
X7902284Y-10696285D01*
X8029284Y-11267784D02*
X8029284Y-11211215D01*
X7972715Y-11211215D01*
X7972715Y-11267784D01*
X8029284Y-11267784D01*
X8029284Y-12029784D02*
X8029284Y-11973215D01*
X7972715Y-11973215D01*
X7972715Y-12029784D01*
X8029284Y-12029784D01*
X8158284Y-13553784D02*
X8158284Y-13497215D01*
X8101715Y-13497215D01*
X8101715Y-13553784D01*
X8158284Y-13553784D01*
X8160284Y-12855284D02*
X8160284Y-12798715D01*
X8103715Y-12798715D01*
X8103715Y-12855284D01*
X8160284Y-12855284D01*
X8283284Y-11267784D02*
X8283284Y-11211215D01*
X8226715Y-11211215D01*
X8226715Y-11267784D01*
X8283284Y-11267784D01*
X8283284Y-12029784D02*
X8283284Y-11973215D01*
X8226715Y-11973215D01*
X8226715Y-12029784D01*
X8283284Y-12029784D01*
X8401050Y-10696285D02*
X8401050Y-10639716D01*
X8344481Y-10639716D01*
X8344481Y-10696285D01*
X8401050Y-10696285D01*
X8408285Y-13553784D02*
X8408285Y-13497215D01*
X8351715Y-13497215D01*
X8351715Y-13553784D01*
X8408285Y-13553784D01*
X8410285Y-9489785D02*
X8410285Y-9433216D01*
X8353715Y-9433216D01*
X8353715Y-9489785D01*
X8410285Y-9489785D01*
X8410285Y-9807285D02*
X8410285Y-9750716D01*
X8353715Y-9750716D01*
X8353715Y-9807285D01*
X8410285Y-9807285D01*
X8410285Y-12855284D02*
X8410285Y-12798715D01*
X8353715Y-12798715D01*
X8353715Y-12855284D01*
X8410285Y-12855284D01*
X8473785Y-13172784D02*
X8473785Y-13116215D01*
X8417216Y-13116215D01*
X8417216Y-13172784D01*
X8473785Y-13172784D01*
X8537285Y-11267784D02*
X8537285Y-11211215D01*
X8480716Y-11211215D01*
X8480716Y-11267784D01*
X8537285Y-11267784D01*
X8537285Y-12029784D02*
X8537285Y-11973215D01*
X8480716Y-11973215D01*
X8480716Y-12029784D01*
X8537285Y-12029784D01*
X8600785Y-6314784D02*
X8600785Y-6258215D01*
X8544216Y-6258215D01*
X8544216Y-6314784D01*
X8600785Y-6314784D01*
X8600785Y-6564784D02*
X8600785Y-6508215D01*
X8544216Y-6508215D01*
X8544216Y-6564784D01*
X8600785Y-6564784D01*
X8664285Y-9489785D02*
X8664285Y-9433216D01*
X8607716Y-9433216D01*
X8607716Y-9489785D01*
X8664285Y-9489785D01*
X8664285Y-9807285D02*
X8664285Y-9750716D01*
X8607716Y-9750716D01*
X8607716Y-9807285D01*
X8664285Y-9807285D01*
X8781050Y-10696285D02*
X8781050Y-10639716D01*
X8724481Y-10639716D01*
X8724481Y-10696285D01*
X8781050Y-10696285D01*
X8791285Y-8156284D02*
X8791285Y-8099715D01*
X8734716Y-8099715D01*
X8734716Y-8156284D01*
X8791285Y-8156284D01*
X8791285Y-9172285D02*
X8791285Y-9115716D01*
X8734716Y-9115716D01*
X8734716Y-9172285D01*
X8791285Y-9172285D01*
X8791285Y-11267784D02*
X8791285Y-11211215D01*
X8734716Y-11211215D01*
X8734716Y-11267784D01*
X8791285Y-11267784D01*
X8791285Y-12029784D02*
X8791285Y-11973215D01*
X8734716Y-11973215D01*
X8734716Y-12029784D01*
X8791285Y-12029784D01*
X8918285Y-6318784D02*
X8918285Y-6262215D01*
X8861716Y-6262215D01*
X8861716Y-6318784D01*
X8918285Y-6318784D01*
X8918285Y-6568784D02*
X8918285Y-6512215D01*
X8861716Y-6512215D01*
X8861716Y-6568784D01*
X8918285Y-6568784D01*
X9045285Y-11267784D02*
X9045285Y-11211215D01*
X8988716Y-11211215D01*
X8988716Y-11267784D01*
X9045285Y-11267784D01*
X9045285Y-12029784D02*
X9045285Y-11973215D01*
X8988716Y-11973215D01*
X8988716Y-12029784D01*
X9045285Y-12029784D01*
X9108785Y-8156284D02*
X9108785Y-8099715D01*
X9052216Y-8099715D01*
X9052216Y-8156284D01*
X9108785Y-8156284D01*
X9108785Y-9172285D02*
X9108785Y-9115716D01*
X9052216Y-9115716D01*
X9052216Y-9172285D01*
X9108785Y-9172285D01*
X9290050Y-10696285D02*
X9290050Y-10639716D01*
X9233481Y-10639716D01*
X9233481Y-10696285D01*
X9290050Y-10696285D01*
X9299285Y-11267784D02*
X9299285Y-11211215D01*
X9242716Y-11211215D01*
X9242716Y-11267784D01*
X9299285Y-11267784D01*
X9299285Y-12029784D02*
X9299285Y-11973215D01*
X9242716Y-11973215D01*
X9242716Y-12029784D01*
X9299285Y-12029784D01*
X9553285Y-11267784D02*
X9553285Y-11211215D01*
X9496716Y-11211215D01*
X9496716Y-11267784D01*
X9553285Y-11267784D01*
X9553285Y-12029784D02*
X9553285Y-11973215D01*
X9496716Y-11973215D01*
X9496716Y-12029784D01*
X9553285Y-12029784D01*
X9626924Y-12347284D02*
X9626924Y-12290715D01*
X9570355Y-12290715D01*
X9570355Y-12347284D01*
X9626924Y-12347284D01*
X9670050Y-10696285D02*
X9670050Y-10639716D01*
X9613481Y-10639716D01*
X9613481Y-10696285D01*
X9670050Y-10696285D01*
X9680285Y-9489785D02*
X9680285Y-9433216D01*
X9623716Y-9433216D01*
X9623716Y-9489785D01*
X9680285Y-9489785D01*
X9680285Y-9807285D02*
X9680285Y-9750716D01*
X9623716Y-9750716D01*
X9623716Y-9807285D01*
X9680285Y-9807285D01*
X9807285Y-11267784D02*
X9807285Y-11211215D01*
X9750716Y-11211215D01*
X9750716Y-11267784D01*
X9807285Y-11267784D01*
X9807285Y-12029784D02*
X9807285Y-11973215D01*
X9750716Y-11973215D01*
X9750716Y-12029784D01*
X9807285Y-12029784D01*
X9876924Y-12347284D02*
X9876924Y-12290715D01*
X9820355Y-12290715D01*
X9820355Y-12347284D01*
X9876924Y-12347284D01*
X9934285Y-9489785D02*
X9934285Y-9433216D01*
X9877716Y-9433216D01*
X9877716Y-9489785D01*
X9934285Y-9489785D01*
X9934285Y-9807285D02*
X9934285Y-9750716D01*
X9877716Y-9750716D01*
X9877716Y-9807285D01*
X9934285Y-9807285D01*
X10061285Y-8156284D02*
X10061285Y-8099715D01*
X10004716Y-8099715D01*
X10004716Y-8156284D01*
X10061285Y-8156284D01*
X10061285Y-9172285D02*
X10061285Y-9115716D01*
X10004716Y-9115716D01*
X10004716Y-9172285D01*
X10061285Y-9172285D01*
X10061285Y-11267784D02*
X10061285Y-11211215D01*
X10004716Y-11211215D01*
X10004716Y-11267784D01*
X10061285Y-11267784D01*
X10061285Y-12029784D02*
X10061285Y-11973215D01*
X10004716Y-11973215D01*
X10004716Y-12029784D01*
X10061285Y-12029784D01*
X10179050Y-10696285D02*
X10179050Y-10639716D01*
X10122481Y-10639716D01*
X10122481Y-10696285D01*
X10179050Y-10696285D01*
X10315285Y-11267784D02*
X10315285Y-11211215D01*
X10258716Y-11211215D01*
X10258716Y-11267784D01*
X10315285Y-11267784D01*
X10315285Y-12029784D02*
X10315285Y-11973215D01*
X10258716Y-11973215D01*
X10258716Y-12029784D01*
X10315285Y-12029784D01*
X10378785Y-8156284D02*
X10378785Y-8099715D01*
X10322216Y-8099715D01*
X10322216Y-8156284D01*
X10378785Y-8156284D01*
X10378785Y-9172285D02*
X10378785Y-9115716D01*
X10322216Y-9115716D01*
X10322216Y-9172285D01*
X10378785Y-9172285D01*
X10559050Y-10696285D02*
X10559050Y-10639716D01*
X10502481Y-10639716D01*
X10502481Y-10696285D01*
X10559050Y-10696285D01*
X10569285Y-11267784D02*
X10569285Y-11211215D01*
X10512716Y-11211215D01*
X10512716Y-11267784D01*
X10569285Y-11267784D01*
X10569285Y-12029784D02*
X10569285Y-11973215D01*
X10512716Y-11973215D01*
X10512716Y-12029784D01*
X10569285Y-12029784D01*
X10823285Y-11267784D02*
X10823285Y-11211215D01*
X10766716Y-11211215D01*
X10766716Y-11267784D01*
X10823285Y-11267784D01*
X10823285Y-12029784D02*
X10823285Y-11973215D01*
X10766716Y-11973215D01*
X10766716Y-12029784D01*
X10823285Y-12029784D01*
X10950285Y-9489785D02*
X10950285Y-9433216D01*
X10893716Y-9433216D01*
X10893716Y-9489785D01*
X10950285Y-9489785D01*
X10950285Y-9807285D02*
X10950285Y-9750716D01*
X10893716Y-9750716D01*
X10893716Y-9807285D01*
X10950285Y-9807285D01*
X11140785Y-10632785D02*
X11140785Y-10576216D01*
X11084216Y-10576216D01*
X11084216Y-10632785D01*
X11140785Y-10632785D01*
X11140785Y-11013785D02*
X11140785Y-10957216D01*
X11084216Y-10957216D01*
X11084216Y-11013785D01*
X11140785Y-11013785D01*
X11204284Y-9489785D02*
X11204284Y-9433216D01*
X11147716Y-9433216D01*
X11147716Y-9489785D01*
X11204284Y-9489785D01*
X11204284Y-9807285D02*
X11204284Y-9750716D01*
X11147716Y-9750716D01*
X11147716Y-9807285D01*
X11204284Y-9807285D01*
X11204284Y-10124785D02*
X11204284Y-10068216D01*
X11147716Y-10068216D01*
X11147716Y-10124785D01*
X11204284Y-10124785D01*
X11208284Y-11966284D02*
X11208284Y-11909715D01*
X11151716Y-11909715D01*
X11151716Y-11966284D01*
X11208284Y-11966284D01*
X11267784Y-8156284D02*
X11267784Y-8099715D01*
X11211215Y-8099715D01*
X11211215Y-8156284D01*
X11267784Y-8156284D01*
X11267784Y-9172285D02*
X11267784Y-9115716D01*
X11211215Y-9115716D01*
X11211215Y-9172285D01*
X11267784Y-9172285D01*
X11414784Y-11521784D02*
X11414784Y-11465215D01*
X11358215Y-11465215D01*
X11358215Y-11521784D01*
X11414784Y-11521784D01*
X11458284Y-11966284D02*
X11458284Y-11909715D01*
X11401715Y-11909715D01*
X11401715Y-11966284D01*
X11458284Y-11966284D01*
X11585284Y-8156284D02*
X11585284Y-8099715D01*
X11528715Y-8099715D01*
X11528715Y-8156284D01*
X11585284Y-8156284D01*
X11585284Y-9172285D02*
X11585284Y-9115716D01*
X11528715Y-9115716D01*
X11528715Y-9172285D01*
X11585284Y-9172285D01*
X11839284Y-11966284D02*
X11839284Y-11909715D01*
X11782715Y-11909715D01*
X11782715Y-11966284D01*
X11839284Y-11966284D01*
X11902784Y-11521784D02*
X11902784Y-11465215D01*
X11846215Y-11465215D01*
X11846215Y-11521784D01*
X11902784Y-11521784D01*
X12089284Y-11966284D02*
X12089284Y-11909715D01*
X12032715Y-11909715D01*
X12032715Y-11966284D01*
X12089284Y-11966284D01*
X12156784Y-10632785D02*
X12156784Y-10576216D01*
X12100215Y-10576216D01*
X12100215Y-10632785D01*
X12156784Y-10632785D01*
X12156784Y-11013785D02*
X12156784Y-10957216D01*
X12100215Y-10957216D01*
X12100215Y-11013785D01*
X12156784Y-11013785D01*
X12220284Y-9489785D02*
X12220284Y-9433216D01*
X12163715Y-9433216D01*
X12163715Y-9489785D01*
X12220284Y-9489785D01*
X12220284Y-9807285D02*
X12220284Y-9750716D01*
X12163715Y-9750716D01*
X12163715Y-9807285D01*
X12220284Y-9807285D01*
X12220284Y-10124785D02*
X12220284Y-10068216D01*
X12163715Y-10068216D01*
X12163715Y-10124785D01*
X12220284Y-10124785D01*
D16*
X7493000Y-6268000D02*
X7538000Y-6223000D01*
X7493000Y-6178000D01*
X7448000Y-6223000D01*
X7493000Y-6268000D01*
X7493000Y-6649000D02*
X7538000Y-6604000D01*
X7493000Y-6559000D01*
X7448000Y-6604000D01*
X7493000Y-6649000D01*
X8255000Y-6268000D02*
X8300000Y-6223000D01*
X8255000Y-6178000D01*
X8210000Y-6223000D01*
X8255000Y-6268000D01*
X8255000Y-6649000D02*
X8300000Y-6604000D01*
X8255000Y-6559000D01*
X8210000Y-6604000D01*
X8255000Y-6649000D01*
X8509000Y-12427500D02*
X8554000Y-12382500D01*
X8509000Y-12337500D01*
X8464000Y-12382500D01*
X8509000Y-12427500D01*
X9207500Y-6268000D02*
X9252500Y-6223000D01*
X9207500Y-6178000D01*
X9162500Y-6223000D01*
X9207500Y-6268000D01*
X9207500Y-6649000D02*
X9252500Y-6604000D01*
X9207500Y-6559000D01*
X9162500Y-6604000D01*
X9207500Y-6649000D01*
X9271000Y-12427500D02*
X9316000Y-12382500D01*
X9271000Y-12337500D01*
X9226000Y-12382500D01*
X9271000Y-12427500D01*
X9969500Y-6268000D02*
X10014500Y-6223000D01*
X9969500Y-6178000D01*
X9924500Y-6223000D01*
X9969500Y-6268000D01*
X9969500Y-6649000D02*
X10014500Y-6604000D01*
X9969500Y-6559000D01*
X9924500Y-6604000D01*
X9969500Y-6649000D01*
X10287000Y-6522000D02*
X10332000Y-6477000D01*
X10287000Y-6432000D01*
X10242000Y-6477000D01*
X10287000Y-6522000D01*
X10541000Y-12491000D02*
X10586000Y-12446000D01*
X10541000Y-12401000D01*
X10496000Y-12446000D01*
X10541000Y-12491000D01*
X10541000Y-12872000D02*
X10586000Y-12827000D01*
X10541000Y-12782000D01*
X10496000Y-12827000D01*
X10541000Y-12872000D01*
X11049000Y-6522000D02*
X11094000Y-6477000D01*
X11049000Y-6432000D01*
X11004000Y-6477000D01*
X11049000Y-6522000D01*
X11303000Y-6522000D02*
X11348000Y-6477000D01*
X11303000Y-6432000D01*
X11258000Y-6477000D01*
X11303000Y-6522000D01*
X11303000Y-12491000D02*
X11348000Y-12446000D01*
X11303000Y-12401000D01*
X11258000Y-12446000D01*
X11303000Y-12491000D01*
X11303000Y-12872000D02*
X11348000Y-12827000D01*
X11303000Y-12782000D01*
X11258000Y-12827000D01*
X11303000Y-12872000D01*
X11649551Y-13026821D02*
X11694551Y-12981821D01*
X11649551Y-12936821D01*
X11604551Y-12981821D01*
X11649551Y-13026821D01*
X11649551Y-13788821D02*
X11694551Y-13743821D01*
X11649551Y-13698821D01*
X11604551Y-13743821D01*
X11649551Y-13788821D01*
X11874500Y-12400506D02*
X11919500Y-12355506D01*
X11874500Y-12310506D01*
X11829500Y-12355506D01*
X11874500Y-12400506D01*
X11874500Y-12654506D02*
X11919500Y-12609506D01*
X11874500Y-12564506D01*
X11829500Y-12609506D01*
X11874500Y-12654506D01*
X12065000Y-6522000D02*
X12110000Y-6477000D01*
X12065000Y-6432000D01*
X12020000Y-6477000D01*
X12065000Y-6522000D01*
D10*
X7443000Y-13475500D02*
X7543000Y-13575500D01*
X7543000Y-13475500D02*
X7443000Y-13575500D01*
X7543000Y-13525500D02*
G75*
G03*
X7543000Y-13525500I-50000J0D01*
G01*
X7697000Y-13475500D02*
X7797000Y-13575500D01*
X7797000Y-13475500D02*
X7697000Y-13575500D01*
X7797000Y-13525500D02*
G75*
G03*
X7797000Y-13525500I-50000J0D01*
G01*
X8078000Y-14110500D02*
X8178000Y-14210500D01*
X8178000Y-14110500D02*
X8078000Y-14210500D01*
X8178000Y-14160500D02*
G75*
G03*
X8178000Y-14160500I-50000J0D01*
G01*
X8332000Y-14110500D02*
X8432000Y-14210500D01*
X8432000Y-14110500D02*
X8332000Y-14210500D01*
X8432000Y-14160500D02*
G75*
G03*
X8432000Y-14160500I-50000J0D01*
G01*
X8586000Y-14110500D02*
X8686000Y-14210500D01*
X8686000Y-14110500D02*
X8586000Y-14210500D01*
X8686000Y-14160500D02*
G75*
G03*
X8686000Y-14160500I-50000J0D01*
G01*
X8840000Y-13729500D02*
X8940000Y-13829500D01*
X8940000Y-13729500D02*
X8840000Y-13829500D01*
X8940000Y-13779500D02*
G75*
G03*
X8940000Y-13779500I-50000J0D01*
G01*
X8840000Y-14110500D02*
X8940000Y-14210500D01*
X8940000Y-14110500D02*
X8840000Y-14210500D01*
X8940000Y-14160500D02*
G75*
G03*
X8940000Y-14160500I-50000J0D01*
G01*
X9094000Y-13729500D02*
X9194000Y-13829500D01*
X9194000Y-13729500D02*
X9094000Y-13829500D01*
X9194000Y-13779500D02*
G75*
G03*
X9194000Y-13779500I-50000J0D01*
G01*
X9284500Y-14110500D02*
X9384500Y-14210500D01*
X9384500Y-14110500D02*
X9284500Y-14210500D01*
X9384500Y-14160500D02*
G75*
G03*
X9384500Y-14160500I-50000J0D01*
G01*
X9348000Y-13729500D02*
X9448000Y-13829500D01*
X9448000Y-13729500D02*
X9348000Y-13829500D01*
X9448000Y-13779500D02*
G75*
G03*
X9448000Y-13779500I-50000J0D01*
G01*
X9538500Y-14110500D02*
X9638500Y-14210500D01*
X9638500Y-14110500D02*
X9538500Y-14210500D01*
X9638500Y-14160500D02*
G75*
G03*
X9638500Y-14160500I-50000J0D01*
G01*
X9602000Y-13729500D02*
X9702000Y-13829500D01*
X9702000Y-13729500D02*
X9602000Y-13829500D01*
X9702000Y-13779500D02*
G75*
G03*
X9702000Y-13779500I-50000J0D01*
G01*
X9729000Y-12730732D02*
X9829000Y-12830732D01*
X9829000Y-12730732D02*
X9729000Y-12830732D01*
X9829000Y-12780732D02*
G75*
G03*
X9829000Y-12780732I-50000J0D01*
G01*
X9729000Y-13230732D02*
X9829000Y-13330732D01*
X9829000Y-13230732D02*
X9729000Y-13330732D01*
X9829000Y-13280732D02*
G75*
G03*
X9829000Y-13280732I-50000J0D01*
G01*
X9792500Y-14110500D02*
X9892500Y-14210500D01*
X9892500Y-14110500D02*
X9792500Y-14210500D01*
X9892500Y-14160500D02*
G75*
G03*
X9892500Y-14160500I-50000J0D01*
G01*
X9856000Y-13729500D02*
X9956000Y-13829500D01*
X9956000Y-13729500D02*
X9856000Y-13829500D01*
X9956000Y-13779500D02*
G75*
G03*
X9956000Y-13779500I-50000J0D01*
G01*
X10046500Y-14110500D02*
X10146500Y-14210500D01*
X10146500Y-14110500D02*
X10046500Y-14210500D01*
X10146500Y-14160500D02*
G75*
G03*
X10146500Y-14160500I-50000J0D01*
G01*
X10110000Y-13729500D02*
X10210000Y-13829500D01*
X10210000Y-13729500D02*
X10110000Y-13829500D01*
X10210000Y-13779500D02*
G75*
G03*
X10210000Y-13779500I-50000J0D01*
G01*
X12015000Y-7506500D02*
X12115000Y-7606500D01*
X12115000Y-7506500D02*
X12015000Y-7606500D01*
X12115000Y-7556500D02*
G75*
G03*
X12115000Y-7556500I-50000J0D01*
G01*
X12015000Y-7760500D02*
X12115000Y-7860500D01*
X12115000Y-7760500D02*
X12015000Y-7860500D01*
X12115000Y-7810500D02*
G75*
G03*
X12115000Y-7810500I-50000J0D01*
G01*
D17*
X7501500Y-12422000D02*
X7611500Y-12532000D01*
X7611500Y-12422000D02*
X7501500Y-12532000D01*
X7556500Y-12422000D02*
X7556500Y-12532000D01*
X7501500Y-12477000D02*
X7611500Y-12477000D01*
X7628500Y-7057000D02*
X7738500Y-7167000D01*
X7738500Y-7057000D02*
X7628500Y-7167000D01*
X7683500Y-7057000D02*
X7683500Y-7167000D01*
X7628500Y-7112000D02*
X7738500Y-7112000D01*
X7628500Y-7311000D02*
X7738500Y-7421000D01*
X7738500Y-7311000D02*
X7628500Y-7421000D01*
X7683500Y-7311000D02*
X7683500Y-7421000D01*
X7628500Y-7366000D02*
X7738500Y-7366000D01*
X7628500Y-7565000D02*
X7738500Y-7675000D01*
X7738500Y-7565000D02*
X7628500Y-7675000D01*
X7683500Y-7565000D02*
X7683500Y-7675000D01*
X7628500Y-7620000D02*
X7738500Y-7620000D01*
X7755500Y-12422000D02*
X7865500Y-12532000D01*
X7865500Y-12422000D02*
X7755500Y-12532000D01*
X7810500Y-12422000D02*
X7810500Y-12532000D01*
X7755500Y-12477000D02*
X7865500Y-12477000D01*
X8009500Y-12422000D02*
X8119500Y-12532000D01*
X8119500Y-12422000D02*
X8009500Y-12532000D01*
X8064500Y-12422000D02*
X8064500Y-12532000D01*
X8009500Y-12477000D02*
X8119500Y-12477000D01*
X8200000Y-7057000D02*
X8310000Y-7167000D01*
X8310000Y-7057000D02*
X8200000Y-7167000D01*
X8255000Y-7057000D02*
X8255000Y-7167000D01*
X8200000Y-7112000D02*
X8310000Y-7112000D01*
X8200000Y-7311000D02*
X8310000Y-7421000D01*
X8310000Y-7311000D02*
X8200000Y-7421000D01*
X8255000Y-7311000D02*
X8255000Y-7421000D01*
X8200000Y-7366000D02*
X8310000Y-7366000D01*
X8200000Y-7565000D02*
X8310000Y-7675000D01*
X8310000Y-7565000D02*
X8200000Y-7675000D01*
X8255000Y-7565000D02*
X8255000Y-7675000D01*
X8200000Y-7620000D02*
X8310000Y-7620000D01*
X8771500Y-7057000D02*
X8881500Y-7167000D01*
X8881500Y-7057000D02*
X8771500Y-7167000D01*
X8826500Y-7057000D02*
X8826500Y-7167000D01*
X8771500Y-7112000D02*
X8881500Y-7112000D01*
X8771500Y-7311000D02*
X8881500Y-7421000D01*
X8881500Y-7311000D02*
X8771500Y-7421000D01*
X8826500Y-7311000D02*
X8826500Y-7421000D01*
X8771500Y-7366000D02*
X8881500Y-7366000D01*
X8771500Y-7565000D02*
X8881500Y-7675000D01*
X8881500Y-7565000D02*
X8771500Y-7675000D01*
X8826500Y-7565000D02*
X8826500Y-7675000D01*
X8771500Y-7620000D02*
X8881500Y-7620000D01*
X9343000Y-7057000D02*
X9453000Y-7167000D01*
X9453000Y-7057000D02*
X9343000Y-7167000D01*
X9398000Y-7057000D02*
X9398000Y-7167000D01*
X9343000Y-7112000D02*
X9453000Y-7112000D01*
X9343000Y-7311000D02*
X9453000Y-7421000D01*
X9453000Y-7311000D02*
X9343000Y-7421000D01*
X9398000Y-7311000D02*
X9398000Y-7421000D01*
X9343000Y-7366000D02*
X9453000Y-7366000D01*
X9343000Y-7565000D02*
X9453000Y-7675000D01*
X9453000Y-7565000D02*
X9343000Y-7675000D01*
X9398000Y-7565000D02*
X9398000Y-7675000D01*
X9343000Y-7620000D02*
X9453000Y-7620000D01*
X9914500Y-7057000D02*
X10024500Y-7167000D01*
X10024500Y-7057000D02*
X9914500Y-7167000D01*
X9969500Y-7057000D02*
X9969500Y-7167000D01*
X9914500Y-7112000D02*
X10024500Y-7112000D01*
X9914500Y-7311000D02*
X10024500Y-7421000D01*
X10024500Y-7311000D02*
X9914500Y-7421000D01*
X9969500Y-7311000D02*
X9969500Y-7421000D01*
X9914500Y-7366000D02*
X10024500Y-7366000D01*
X9914500Y-7565000D02*
X10024500Y-7675000D01*
X10024500Y-7565000D02*
X9914500Y-7675000D01*
X9969500Y-7565000D02*
X9969500Y-7675000D01*
X9914500Y-7620000D02*
X10024500Y-7620000D01*
X10486000Y-7057000D02*
X10596000Y-7167000D01*
X10596000Y-7057000D02*
X10486000Y-7167000D01*
X10541000Y-7057000D02*
X10541000Y-7167000D01*
X10486000Y-7112000D02*
X10596000Y-7112000D01*
X10486000Y-7311000D02*
X10596000Y-7421000D01*
X10596000Y-7311000D02*
X10486000Y-7421000D01*
X10541000Y-7311000D02*
X10541000Y-7421000D01*
X10486000Y-7366000D02*
X10596000Y-7366000D01*
X10486000Y-7565000D02*
X10596000Y-7675000D01*
X10596000Y-7565000D02*
X10486000Y-7675000D01*
X10541000Y-7565000D02*
X10541000Y-7675000D01*
X10486000Y-7620000D02*
X10596000Y-7620000D01*
X11057500Y-7057000D02*
X11167500Y-7167000D01*
X11167500Y-7057000D02*
X11057500Y-7167000D01*
X11112500Y-7057000D02*
X11112500Y-7167000D01*
X11057500Y-7112000D02*
X11167500Y-7112000D01*
X11057500Y-7311000D02*
X11167500Y-7421000D01*
X11167500Y-7311000D02*
X11057500Y-7421000D01*
X11112500Y-7311000D02*
X11112500Y-7421000D01*
X11057500Y-7366000D02*
X11167500Y-7366000D01*
X11057500Y-7565000D02*
X11167500Y-7675000D01*
X11167500Y-7565000D02*
X11057500Y-7675000D01*
X11112500Y-7565000D02*
X11112500Y-7675000D01*
X11057500Y-7620000D02*
X11167500Y-7620000D01*
X11629000Y-7057000D02*
X11739000Y-7167000D01*
X11739000Y-7057000D02*
X11629000Y-7167000D01*
X11684000Y-7057000D02*
X11684000Y-7167000D01*
X11629000Y-7112000D02*
X11739000Y-7112000D01*
X11629000Y-7311000D02*
X11739000Y-7421000D01*
X11739000Y-7311000D02*
X11629000Y-7421000D01*
X11684000Y-7311000D02*
X11684000Y-7421000D01*
X11629000Y-7366000D02*
X11739000Y-7366000D01*
X11629000Y-7565000D02*
X11739000Y-7675000D01*
X11739000Y-7565000D02*
X11629000Y-7675000D01*
X11684000Y-7565000D02*
X11684000Y-7675000D01*
X11629000Y-7620000D02*
X11739000Y-7620000D01*
D18*
X10420500Y-5650000D02*
X10550500Y-5780000D01*
X10550500Y-5650000D02*
X10420500Y-5780000D01*
X10531462Y-5760962D02*
X10531462Y-5669038D01*
X10439538Y-5669038D01*
X10439538Y-5760962D01*
X10531462Y-5760962D01*
X10607000Y-13618000D02*
X10737000Y-13748000D01*
X10737000Y-13618000D02*
X10607000Y-13748000D01*
X10717962Y-13728962D02*
X10717962Y-13637038D01*
X10626038Y-13637038D01*
X10626038Y-13728962D01*
X10717962Y-13728962D01*
X10920500Y-5650000D02*
X11050500Y-5780000D01*
X11050500Y-5650000D02*
X10920500Y-5780000D01*
X11031462Y-5760962D02*
X11031462Y-5669038D01*
X10939538Y-5669038D01*
X10939538Y-5760962D01*
X11031462Y-5760962D01*
X11107000Y-13618000D02*
X11237000Y-13748000D01*
X11237000Y-13618000D02*
X11107000Y-13748000D01*
X11217962Y-13728962D02*
X11217962Y-13637038D01*
X11126038Y-13637038D01*
X11126038Y-13728962D01*
X11217962Y-13728962D01*
D19*
X8242500Y-5575500D02*
X8394500Y-5727500D01*
X8394500Y-5575500D02*
X8242500Y-5727500D01*
X8318500Y-5727500D02*
X8394500Y-5651500D01*
X8318500Y-5575500D01*
X8242500Y-5651500D01*
X8318500Y-5727500D01*
X8750500Y-5575500D02*
X8902500Y-5727500D01*
X8902500Y-5575500D02*
X8750500Y-5727500D01*
X8826500Y-5727500D02*
X8902500Y-5651500D01*
X8826500Y-5575500D01*
X8750500Y-5651500D01*
X8826500Y-5727500D01*
X9258500Y-5575500D02*
X9410500Y-5727500D01*
X9410500Y-5575500D02*
X9258500Y-5727500D01*
X9334500Y-5727500D02*
X9410500Y-5651500D01*
X9334500Y-5575500D01*
X9258500Y-5651500D01*
X9334500Y-5727500D01*
X9766500Y-5575500D02*
X9918500Y-5727500D01*
X9918500Y-5575500D02*
X9766500Y-5727500D01*
X9842500Y-5727500D02*
X9918500Y-5651500D01*
X9842500Y-5575500D01*
X9766500Y-5651500D01*
X9842500Y-5727500D01*
D11*
X7494777Y-14730984D02*
X7494777Y-14530984D01*
X7494777Y-14530984D02*
X7542396Y-14530984D01*
X7542396Y-14530984D02*
X7570967Y-14540508D01*
X7570967Y-14540508D02*
X7590015Y-14559555D01*
X7590015Y-14559555D02*
X7599539Y-14578603D01*
X7599539Y-14578603D02*
X7609062Y-14616698D01*
X7609062Y-14616698D02*
X7609062Y-14645269D01*
X7609062Y-14645269D02*
X7599539Y-14683365D01*
X7599539Y-14683365D02*
X7590015Y-14702412D01*
X7590015Y-14702412D02*
X7570967Y-14721460D01*
X7570967Y-14721460D02*
X7542396Y-14730984D01*
X7542396Y-14730984D02*
X7494777Y-14730984D01*
X7694777Y-14730984D02*
X7694777Y-14597650D01*
X7694777Y-14635746D02*
X7704301Y-14616698D01*
X7704301Y-14616698D02*
X7713824Y-14607174D01*
X7713824Y-14607174D02*
X7732872Y-14597650D01*
X7732872Y-14597650D02*
X7751920Y-14597650D01*
X7818586Y-14730984D02*
X7818586Y-14597650D01*
X7818586Y-14530984D02*
X7809062Y-14540508D01*
X7809062Y-14540508D02*
X7818586Y-14550031D01*
X7818586Y-14550031D02*
X7828110Y-14540508D01*
X7828110Y-14540508D02*
X7818586Y-14530984D01*
X7818586Y-14530984D02*
X7818586Y-14550031D01*
X7942396Y-14730984D02*
X7923348Y-14721460D01*
X7923348Y-14721460D02*
X7913824Y-14702412D01*
X7913824Y-14702412D02*
X7913824Y-14530984D01*
X8047158Y-14730984D02*
X8028110Y-14721460D01*
X8028110Y-14721460D02*
X8018586Y-14702412D01*
X8018586Y-14702412D02*
X8018586Y-14530984D01*
X8275729Y-14730984D02*
X8275729Y-14530984D01*
X8275729Y-14530984D02*
X8342396Y-14673841D01*
X8342396Y-14673841D02*
X8409063Y-14530984D01*
X8409063Y-14530984D02*
X8409063Y-14730984D01*
X8590015Y-14730984D02*
X8590015Y-14626222D01*
X8590015Y-14626222D02*
X8580491Y-14607174D01*
X8580491Y-14607174D02*
X8561444Y-14597650D01*
X8561444Y-14597650D02*
X8523348Y-14597650D01*
X8523348Y-14597650D02*
X8504301Y-14607174D01*
X8590015Y-14721460D02*
X8570967Y-14730984D01*
X8570967Y-14730984D02*
X8523348Y-14730984D01*
X8523348Y-14730984D02*
X8504301Y-14721460D01*
X8504301Y-14721460D02*
X8494777Y-14702412D01*
X8494777Y-14702412D02*
X8494777Y-14683365D01*
X8494777Y-14683365D02*
X8504301Y-14664317D01*
X8504301Y-14664317D02*
X8523348Y-14654793D01*
X8523348Y-14654793D02*
X8570967Y-14654793D01*
X8570967Y-14654793D02*
X8590015Y-14645269D01*
X8685253Y-14597650D02*
X8685253Y-14797650D01*
X8685253Y-14607174D02*
X8704301Y-14597650D01*
X8704301Y-14597650D02*
X8742396Y-14597650D01*
X8742396Y-14597650D02*
X8761444Y-14607174D01*
X8761444Y-14607174D02*
X8770967Y-14616698D01*
X8770967Y-14616698D02*
X8780491Y-14635746D01*
X8780491Y-14635746D02*
X8780491Y-14692888D01*
X8780491Y-14692888D02*
X8770967Y-14711936D01*
X8770967Y-14711936D02*
X8761444Y-14721460D01*
X8761444Y-14721460D02*
X8742396Y-14730984D01*
X8742396Y-14730984D02*
X8704301Y-14730984D01*
X8704301Y-14730984D02*
X8685253Y-14721460D01*
X8866205Y-14711936D02*
X8875729Y-14721460D01*
X8875729Y-14721460D02*
X8866205Y-14730984D01*
X8866205Y-14730984D02*
X8856682Y-14721460D01*
X8856682Y-14721460D02*
X8866205Y-14711936D01*
X8866205Y-14711936D02*
X8866205Y-14730984D01*
X8866205Y-14607174D02*
X8875729Y-14616698D01*
X8875729Y-14616698D02*
X8866205Y-14626222D01*
X8866205Y-14626222D02*
X8856682Y-14616698D01*
X8856682Y-14616698D02*
X8866205Y-14607174D01*
X8866205Y-14607174D02*
X8866205Y-14626222D01*
D12*
X7224000Y-15054500D02*
X7234000Y-15064500D01*
X7234000Y-15054500D02*
X7224000Y-15064500D01*
D11*
X7532872Y-14950984D02*
X7551920Y-14950984D01*
X7551920Y-14950984D02*
X7570967Y-14960508D01*
X7570967Y-14960508D02*
X7580491Y-14970031D01*
X7580491Y-14970031D02*
X7590015Y-14989079D01*
X7590015Y-14989079D02*
X7599539Y-15027174D01*
X7599539Y-15027174D02*
X7599539Y-15074793D01*
X7599539Y-15074793D02*
X7590015Y-15112888D01*
X7590015Y-15112888D02*
X7580491Y-15131936D01*
X7580491Y-15131936D02*
X7570967Y-15141460D01*
X7570967Y-15141460D02*
X7551920Y-15150984D01*
X7551920Y-15150984D02*
X7532872Y-15150984D01*
X7532872Y-15150984D02*
X7513824Y-15141460D01*
X7513824Y-15141460D02*
X7504301Y-15131936D01*
X7504301Y-15131936D02*
X7494777Y-15112888D01*
X7494777Y-15112888D02*
X7485253Y-15074793D01*
X7485253Y-15074793D02*
X7485253Y-15027174D01*
X7485253Y-15027174D02*
X7494777Y-14989079D01*
X7494777Y-14989079D02*
X7504301Y-14970031D01*
X7504301Y-14970031D02*
X7513824Y-14960508D01*
X7513824Y-14960508D02*
X7532872Y-14950984D01*
X7685253Y-15131936D02*
X7694777Y-15141460D01*
X7694777Y-15141460D02*
X7685253Y-15150984D01*
X7685253Y-15150984D02*
X7675729Y-15141460D01*
X7675729Y-15141460D02*
X7685253Y-15131936D01*
X7685253Y-15131936D02*
X7685253Y-15150984D01*
X7885253Y-15150984D02*
X7770967Y-15150984D01*
X7828110Y-15150984D02*
X7828110Y-14950984D01*
X7828110Y-14950984D02*
X7809062Y-14979555D01*
X7809062Y-14979555D02*
X7790015Y-14998603D01*
X7790015Y-14998603D02*
X7770967Y-15008127D01*
X8009062Y-14950984D02*
X8028110Y-14950984D01*
X8028110Y-14950984D02*
X8047158Y-14960508D01*
X8047158Y-14960508D02*
X8056682Y-14970031D01*
X8056682Y-14970031D02*
X8066205Y-14989079D01*
X8066205Y-14989079D02*
X8075729Y-15027174D01*
X8075729Y-15027174D02*
X8075729Y-15074793D01*
X8075729Y-15074793D02*
X8066205Y-15112888D01*
X8066205Y-15112888D02*
X8056682Y-15131936D01*
X8056682Y-15131936D02*
X8047158Y-15141460D01*
X8047158Y-15141460D02*
X8028110Y-15150984D01*
X8028110Y-15150984D02*
X8009062Y-15150984D01*
X8009062Y-15150984D02*
X7990015Y-15141460D01*
X7990015Y-15141460D02*
X7980491Y-15131936D01*
X7980491Y-15131936D02*
X7970967Y-15112888D01*
X7970967Y-15112888D02*
X7961443Y-15074793D01*
X7961443Y-15074793D02*
X7961443Y-15027174D01*
X7961443Y-15027174D02*
X7970967Y-14989079D01*
X7970967Y-14989079D02*
X7980491Y-14970031D01*
X7980491Y-14970031D02*
X7990015Y-14960508D01*
X7990015Y-14960508D02*
X8009062Y-14950984D01*
X8199539Y-14950984D02*
X8218586Y-14950984D01*
X8218586Y-14950984D02*
X8237634Y-14960508D01*
X8237634Y-14960508D02*
X8247158Y-14970031D01*
X8247158Y-14970031D02*
X8256682Y-14989079D01*
X8256682Y-14989079D02*
X8266205Y-15027174D01*
X8266205Y-15027174D02*
X8266205Y-15074793D01*
X8266205Y-15074793D02*
X8256682Y-15112888D01*
X8256682Y-15112888D02*
X8247158Y-15131936D01*
X8247158Y-15131936D02*
X8237634Y-15141460D01*
X8237634Y-15141460D02*
X8218586Y-15150984D01*
X8218586Y-15150984D02*
X8199539Y-15150984D01*
X8199539Y-15150984D02*
X8180491Y-15141460D01*
X8180491Y-15141460D02*
X8170967Y-15131936D01*
X8170967Y-15131936D02*
X8161443Y-15112888D01*
X8161443Y-15112888D02*
X8151920Y-15074793D01*
X8151920Y-15074793D02*
X8151920Y-15027174D01*
X8151920Y-15027174D02*
X8161443Y-14989079D01*
X8161443Y-14989079D02*
X8170967Y-14970031D01*
X8170967Y-14970031D02*
X8180491Y-14960508D01*
X8180491Y-14960508D02*
X8199539Y-14950984D01*
X8351920Y-15150984D02*
X8351920Y-15017650D01*
X8351920Y-15036698D02*
X8361443Y-15027174D01*
X8361443Y-15027174D02*
X8380491Y-15017650D01*
X8380491Y-15017650D02*
X8409063Y-15017650D01*
X8409063Y-15017650D02*
X8428110Y-15027174D01*
X8428110Y-15027174D02*
X8437634Y-15046222D01*
X8437634Y-15046222D02*
X8437634Y-15150984D01*
X8437634Y-15046222D02*
X8447158Y-15027174D01*
X8447158Y-15027174D02*
X8466205Y-15017650D01*
X8466205Y-15017650D02*
X8494777Y-15017650D01*
X8494777Y-15017650D02*
X8513825Y-15027174D01*
X8513825Y-15027174D02*
X8523348Y-15046222D01*
X8523348Y-15046222D02*
X8523348Y-15150984D01*
X8618586Y-15150984D02*
X8618586Y-15017650D01*
X8618586Y-15036698D02*
X8628110Y-15027174D01*
X8628110Y-15027174D02*
X8647158Y-15017650D01*
X8647158Y-15017650D02*
X8675729Y-15017650D01*
X8675729Y-15017650D02*
X8694777Y-15027174D01*
X8694777Y-15027174D02*
X8704301Y-15046222D01*
X8704301Y-15046222D02*
X8704301Y-15150984D01*
X8704301Y-15046222D02*
X8713825Y-15027174D01*
X8713825Y-15027174D02*
X8732872Y-15017650D01*
X8732872Y-15017650D02*
X8761444Y-15017650D01*
X8761444Y-15017650D02*
X8780491Y-15027174D01*
X8780491Y-15027174D02*
X8790015Y-15046222D01*
X8790015Y-15046222D02*
X8790015Y-15150984D01*
X9180491Y-14941460D02*
X9009063Y-15198603D01*
X9437634Y-14950984D02*
X9456682Y-14950984D01*
X9456682Y-14950984D02*
X9475729Y-14960508D01*
X9475729Y-14960508D02*
X9485253Y-14970031D01*
X9485253Y-14970031D02*
X9494777Y-14989079D01*
X9494777Y-14989079D02*
X9504301Y-15027174D01*
X9504301Y-15027174D02*
X9504301Y-15074793D01*
X9504301Y-15074793D02*
X9494777Y-15112888D01*
X9494777Y-15112888D02*
X9485253Y-15131936D01*
X9485253Y-15131936D02*
X9475729Y-15141460D01*
X9475729Y-15141460D02*
X9456682Y-15150984D01*
X9456682Y-15150984D02*
X9437634Y-15150984D01*
X9437634Y-15150984D02*
X9418587Y-15141460D01*
X9418587Y-15141460D02*
X9409063Y-15131936D01*
X9409063Y-15131936D02*
X9399539Y-15112888D01*
X9399539Y-15112888D02*
X9390015Y-15074793D01*
X9390015Y-15074793D02*
X9390015Y-15027174D01*
X9390015Y-15027174D02*
X9399539Y-14989079D01*
X9399539Y-14989079D02*
X9409063Y-14970031D01*
X9409063Y-14970031D02*
X9418587Y-14960508D01*
X9418587Y-14960508D02*
X9437634Y-14950984D01*
X9590015Y-15131936D02*
X9599539Y-15141460D01*
X9599539Y-15141460D02*
X9590015Y-15150984D01*
X9590015Y-15150984D02*
X9580491Y-15141460D01*
X9580491Y-15141460D02*
X9590015Y-15131936D01*
X9590015Y-15131936D02*
X9590015Y-15150984D01*
X9723348Y-14950984D02*
X9742396Y-14950984D01*
X9742396Y-14950984D02*
X9761444Y-14960508D01*
X9761444Y-14960508D02*
X9770968Y-14970031D01*
X9770968Y-14970031D02*
X9780491Y-14989079D01*
X9780491Y-14989079D02*
X9790015Y-15027174D01*
X9790015Y-15027174D02*
X9790015Y-15074793D01*
X9790015Y-15074793D02*
X9780491Y-15112888D01*
X9780491Y-15112888D02*
X9770968Y-15131936D01*
X9770968Y-15131936D02*
X9761444Y-15141460D01*
X9761444Y-15141460D02*
X9742396Y-15150984D01*
X9742396Y-15150984D02*
X9723348Y-15150984D01*
X9723348Y-15150984D02*
X9704301Y-15141460D01*
X9704301Y-15141460D02*
X9694777Y-15131936D01*
X9694777Y-15131936D02*
X9685253Y-15112888D01*
X9685253Y-15112888D02*
X9675729Y-15074793D01*
X9675729Y-15074793D02*
X9675729Y-15027174D01*
X9675729Y-15027174D02*
X9685253Y-14989079D01*
X9685253Y-14989079D02*
X9694777Y-14970031D01*
X9694777Y-14970031D02*
X9704301Y-14960508D01*
X9704301Y-14960508D02*
X9723348Y-14950984D01*
X9913825Y-14950984D02*
X9932872Y-14950984D01*
X9932872Y-14950984D02*
X9951920Y-14960508D01*
X9951920Y-14960508D02*
X9961444Y-14970031D01*
X9961444Y-14970031D02*
X9970968Y-14989079D01*
X9970968Y-14989079D02*
X9980491Y-15027174D01*
X9980491Y-15027174D02*
X9980491Y-15074793D01*
X9980491Y-15074793D02*
X9970968Y-15112888D01*
X9970968Y-15112888D02*
X9961444Y-15131936D01*
X9961444Y-15131936D02*
X9951920Y-15141460D01*
X9951920Y-15141460D02*
X9932872Y-15150984D01*
X9932872Y-15150984D02*
X9913825Y-15150984D01*
X9913825Y-15150984D02*
X9894777Y-15141460D01*
X9894777Y-15141460D02*
X9885253Y-15131936D01*
X9885253Y-15131936D02*
X9875729Y-15112888D01*
X9875729Y-15112888D02*
X9866206Y-15074793D01*
X9866206Y-15074793D02*
X9866206Y-15027174D01*
X9866206Y-15027174D02*
X9875729Y-14989079D01*
X9875729Y-14989079D02*
X9885253Y-14970031D01*
X9885253Y-14970031D02*
X9894777Y-14960508D01*
X9894777Y-14960508D02*
X9913825Y-14950984D01*
X10047158Y-14950984D02*
X10170968Y-14950984D01*
X10170968Y-14950984D02*
X10104301Y-15027174D01*
X10104301Y-15027174D02*
X10132872Y-15027174D01*
X10132872Y-15027174D02*
X10151920Y-15036698D01*
X10151920Y-15036698D02*
X10161444Y-15046222D01*
X10161444Y-15046222D02*
X10170968Y-15065269D01*
X10170968Y-15065269D02*
X10170968Y-15112888D01*
X10170968Y-15112888D02*
X10161444Y-15131936D01*
X10161444Y-15131936D02*
X10151920Y-15141460D01*
X10151920Y-15141460D02*
X10132872Y-15150984D01*
X10132872Y-15150984D02*
X10075729Y-15150984D01*
X10075729Y-15150984D02*
X10056682Y-15141460D01*
X10056682Y-15141460D02*
X10047158Y-15131936D01*
X10266206Y-15150984D02*
X10304301Y-15150984D01*
X10304301Y-15150984D02*
X10323349Y-15141460D01*
X10323349Y-15141460D02*
X10332872Y-15131936D01*
X10332872Y-15131936D02*
X10351920Y-15103365D01*
X10351920Y-15103365D02*
X10361444Y-15065269D01*
X10361444Y-15065269D02*
X10361444Y-14989079D01*
X10361444Y-14989079D02*
X10351920Y-14970031D01*
X10351920Y-14970031D02*
X10342396Y-14960508D01*
X10342396Y-14960508D02*
X10323349Y-14950984D01*
X10323349Y-14950984D02*
X10285253Y-14950984D01*
X10285253Y-14950984D02*
X10266206Y-14960508D01*
X10266206Y-14960508D02*
X10256682Y-14970031D01*
X10256682Y-14970031D02*
X10247158Y-14989079D01*
X10247158Y-14989079D02*
X10247158Y-15036698D01*
X10247158Y-15036698D02*
X10256682Y-15055746D01*
X10256682Y-15055746D02*
X10266206Y-15065269D01*
X10266206Y-15065269D02*
X10285253Y-15074793D01*
X10285253Y-15074793D02*
X10323349Y-15074793D01*
X10323349Y-15074793D02*
X10342396Y-15065269D01*
X10342396Y-15065269D02*
X10351920Y-15055746D01*
X10351920Y-15055746D02*
X10361444Y-15036698D01*
X10437634Y-14950984D02*
X10437634Y-14989079D01*
X10513825Y-14950984D02*
X10513825Y-14989079D01*
X10809063Y-15227174D02*
X10799539Y-15217650D01*
X10799539Y-15217650D02*
X10780491Y-15189079D01*
X10780491Y-15189079D02*
X10770968Y-15170031D01*
X10770968Y-15170031D02*
X10761444Y-15141460D01*
X10761444Y-15141460D02*
X10751920Y-15093841D01*
X10751920Y-15093841D02*
X10751920Y-15055746D01*
X10751920Y-15055746D02*
X10761444Y-15008127D01*
X10761444Y-15008127D02*
X10770968Y-14979555D01*
X10770968Y-14979555D02*
X10780491Y-14960508D01*
X10780491Y-14960508D02*
X10799539Y-14931936D01*
X10799539Y-14931936D02*
X10809063Y-14922412D01*
X10875730Y-14970031D02*
X10885253Y-14960508D01*
X10885253Y-14960508D02*
X10904301Y-14950984D01*
X10904301Y-14950984D02*
X10951920Y-14950984D01*
X10951920Y-14950984D02*
X10970968Y-14960508D01*
X10970968Y-14960508D02*
X10980491Y-14970031D01*
X10980491Y-14970031D02*
X10990015Y-14989079D01*
X10990015Y-14989079D02*
X10990015Y-15008127D01*
X10990015Y-15008127D02*
X10980491Y-15036698D01*
X10980491Y-15036698D02*
X10866206Y-15150984D01*
X10866206Y-15150984D02*
X10990015Y-15150984D01*
X11066206Y-14970031D02*
X11075730Y-14960508D01*
X11075730Y-14960508D02*
X11094777Y-14950984D01*
X11094777Y-14950984D02*
X11142396Y-14950984D01*
X11142396Y-14950984D02*
X11161444Y-14960508D01*
X11161444Y-14960508D02*
X11170968Y-14970031D01*
X11170968Y-14970031D02*
X11180491Y-14989079D01*
X11180491Y-14989079D02*
X11180491Y-15008127D01*
X11180491Y-15008127D02*
X11170968Y-15036698D01*
X11170968Y-15036698D02*
X11056682Y-15150984D01*
X11056682Y-15150984D02*
X11180491Y-15150984D01*
X11418587Y-15150984D02*
X11418587Y-14950984D01*
X11504301Y-15150984D02*
X11504301Y-15046222D01*
X11504301Y-15046222D02*
X11494777Y-15027174D01*
X11494777Y-15027174D02*
X11475730Y-15017650D01*
X11475730Y-15017650D02*
X11447158Y-15017650D01*
X11447158Y-15017650D02*
X11428110Y-15027174D01*
X11428110Y-15027174D02*
X11418587Y-15036698D01*
X11628110Y-15150984D02*
X11609063Y-15141460D01*
X11609063Y-15141460D02*
X11599539Y-15131936D01*
X11599539Y-15131936D02*
X11590015Y-15112888D01*
X11590015Y-15112888D02*
X11590015Y-15055746D01*
X11590015Y-15055746D02*
X11599539Y-15036698D01*
X11599539Y-15036698D02*
X11609063Y-15027174D01*
X11609063Y-15027174D02*
X11628110Y-15017650D01*
X11628110Y-15017650D02*
X11656682Y-15017650D01*
X11656682Y-15017650D02*
X11675730Y-15027174D01*
X11675730Y-15027174D02*
X11685253Y-15036698D01*
X11685253Y-15036698D02*
X11694777Y-15055746D01*
X11694777Y-15055746D02*
X11694777Y-15112888D01*
X11694777Y-15112888D02*
X11685253Y-15131936D01*
X11685253Y-15131936D02*
X11675730Y-15141460D01*
X11675730Y-15141460D02*
X11656682Y-15150984D01*
X11656682Y-15150984D02*
X11628110Y-15150984D01*
X11809063Y-15150984D02*
X11790015Y-15141460D01*
X11790015Y-15141460D02*
X11780491Y-15122412D01*
X11780491Y-15122412D02*
X11780491Y-14950984D01*
X11961444Y-15141460D02*
X11942396Y-15150984D01*
X11942396Y-15150984D02*
X11904301Y-15150984D01*
X11904301Y-15150984D02*
X11885253Y-15141460D01*
X11885253Y-15141460D02*
X11875730Y-15122412D01*
X11875730Y-15122412D02*
X11875730Y-15046222D01*
X11875730Y-15046222D02*
X11885253Y-15027174D01*
X11885253Y-15027174D02*
X11904301Y-15017650D01*
X11904301Y-15017650D02*
X11942396Y-15017650D01*
X11942396Y-15017650D02*
X11961444Y-15027174D01*
X11961444Y-15027174D02*
X11970968Y-15046222D01*
X11970968Y-15046222D02*
X11970968Y-15065269D01*
X11970968Y-15065269D02*
X11875730Y-15084317D01*
X12047158Y-15141460D02*
X12066206Y-15150984D01*
X12066206Y-15150984D02*
X12104301Y-15150984D01*
X12104301Y-15150984D02*
X12123349Y-15141460D01*
X12123349Y-15141460D02*
X12132872Y-15122412D01*
X12132872Y-15122412D02*
X12132872Y-15112888D01*
X12132872Y-15112888D02*
X12123349Y-15093841D01*
X12123349Y-15093841D02*
X12104301Y-15084317D01*
X12104301Y-15084317D02*
X12075730Y-15084317D01*
X12075730Y-15084317D02*
X12056682Y-15074793D01*
X12056682Y-15074793D02*
X12047158Y-15055746D01*
X12047158Y-15055746D02*
X12047158Y-15046222D01*
X12047158Y-15046222D02*
X12056682Y-15027174D01*
X12056682Y-15027174D02*
X12075730Y-15017650D01*
X12075730Y-15017650D02*
X12104301Y-15017650D01*
X12104301Y-15017650D02*
X12123349Y-15027174D01*
X12199539Y-15227174D02*
X12209063Y-15217650D01*
X12209063Y-15217650D02*
X12228111Y-15189079D01*
X12228111Y-15189079D02*
X12237634Y-15170031D01*
X12237634Y-15170031D02*
X12247158Y-15141460D01*
X12247158Y-15141460D02*
X12256682Y-15093841D01*
X12256682Y-15093841D02*
X12256682Y-15055746D01*
X12256682Y-15055746D02*
X12247158Y-15008127D01*
X12247158Y-15008127D02*
X12237634Y-14979555D01*
X12237634Y-14979555D02*
X12228111Y-14960508D01*
X12228111Y-14960508D02*
X12209063Y-14931936D01*
X12209063Y-14931936D02*
X12199539Y-14922412D01*
D13*
X7234000Y-15323500D02*
G75*
G03*
X7234000Y-15323500I-20000J0D01*
G01*
D11*
X7532872Y-15214984D02*
X7551920Y-15214984D01*
X7551920Y-15214984D02*
X7570967Y-15224508D01*
X7570967Y-15224508D02*
X7580491Y-15234031D01*
X7580491Y-15234031D02*
X7590015Y-15253079D01*
X7590015Y-15253079D02*
X7599539Y-15291174D01*
X7599539Y-15291174D02*
X7599539Y-15338793D01*
X7599539Y-15338793D02*
X7590015Y-15376888D01*
X7590015Y-15376888D02*
X7580491Y-15395936D01*
X7580491Y-15395936D02*
X7570967Y-15405460D01*
X7570967Y-15405460D02*
X7551920Y-15414984D01*
X7551920Y-15414984D02*
X7532872Y-15414984D01*
X7532872Y-15414984D02*
X7513824Y-15405460D01*
X7513824Y-15405460D02*
X7504301Y-15395936D01*
X7504301Y-15395936D02*
X7494777Y-15376888D01*
X7494777Y-15376888D02*
X7485253Y-15338793D01*
X7485253Y-15338793D02*
X7485253Y-15291174D01*
X7485253Y-15291174D02*
X7494777Y-15253079D01*
X7494777Y-15253079D02*
X7504301Y-15234031D01*
X7504301Y-15234031D02*
X7513824Y-15224508D01*
X7513824Y-15224508D02*
X7532872Y-15214984D01*
X7685253Y-15395936D02*
X7694777Y-15405460D01*
X7694777Y-15405460D02*
X7685253Y-15414984D01*
X7685253Y-15414984D02*
X7675729Y-15405460D01*
X7675729Y-15405460D02*
X7685253Y-15395936D01*
X7685253Y-15395936D02*
X7685253Y-15414984D01*
X7866205Y-15281650D02*
X7866205Y-15414984D01*
X7818586Y-15205460D02*
X7770967Y-15348317D01*
X7770967Y-15348317D02*
X7894777Y-15348317D01*
X8009062Y-15214984D02*
X8028110Y-15214984D01*
X8028110Y-15214984D02*
X8047158Y-15224508D01*
X8047158Y-15224508D02*
X8056682Y-15234031D01*
X8056682Y-15234031D02*
X8066205Y-15253079D01*
X8066205Y-15253079D02*
X8075729Y-15291174D01*
X8075729Y-15291174D02*
X8075729Y-15338793D01*
X8075729Y-15338793D02*
X8066205Y-15376888D01*
X8066205Y-15376888D02*
X8056682Y-15395936D01*
X8056682Y-15395936D02*
X8047158Y-15405460D01*
X8047158Y-15405460D02*
X8028110Y-15414984D01*
X8028110Y-15414984D02*
X8009062Y-15414984D01*
X8009062Y-15414984D02*
X7990015Y-15405460D01*
X7990015Y-15405460D02*
X7980491Y-15395936D01*
X7980491Y-15395936D02*
X7970967Y-15376888D01*
X7970967Y-15376888D02*
X7961443Y-15338793D01*
X7961443Y-15338793D02*
X7961443Y-15291174D01*
X7961443Y-15291174D02*
X7970967Y-15253079D01*
X7970967Y-15253079D02*
X7980491Y-15234031D01*
X7980491Y-15234031D02*
X7990015Y-15224508D01*
X7990015Y-15224508D02*
X8009062Y-15214984D01*
X8199539Y-15214984D02*
X8218586Y-15214984D01*
X8218586Y-15214984D02*
X8237634Y-15224508D01*
X8237634Y-15224508D02*
X8247158Y-15234031D01*
X8247158Y-15234031D02*
X8256682Y-15253079D01*
X8256682Y-15253079D02*
X8266205Y-15291174D01*
X8266205Y-15291174D02*
X8266205Y-15338793D01*
X8266205Y-15338793D02*
X8256682Y-15376888D01*
X8256682Y-15376888D02*
X8247158Y-15395936D01*
X8247158Y-15395936D02*
X8237634Y-15405460D01*
X8237634Y-15405460D02*
X8218586Y-15414984D01*
X8218586Y-15414984D02*
X8199539Y-15414984D01*
X8199539Y-15414984D02*
X8180491Y-15405460D01*
X8180491Y-15405460D02*
X8170967Y-15395936D01*
X8170967Y-15395936D02*
X8161443Y-15376888D01*
X8161443Y-15376888D02*
X8151920Y-15338793D01*
X8151920Y-15338793D02*
X8151920Y-15291174D01*
X8151920Y-15291174D02*
X8161443Y-15253079D01*
X8161443Y-15253079D02*
X8170967Y-15234031D01*
X8170967Y-15234031D02*
X8180491Y-15224508D01*
X8180491Y-15224508D02*
X8199539Y-15214984D01*
X8351920Y-15414984D02*
X8351920Y-15281650D01*
X8351920Y-15300698D02*
X8361443Y-15291174D01*
X8361443Y-15291174D02*
X8380491Y-15281650D01*
X8380491Y-15281650D02*
X8409063Y-15281650D01*
X8409063Y-15281650D02*
X8428110Y-15291174D01*
X8428110Y-15291174D02*
X8437634Y-15310222D01*
X8437634Y-15310222D02*
X8437634Y-15414984D01*
X8437634Y-15310222D02*
X8447158Y-15291174D01*
X8447158Y-15291174D02*
X8466205Y-15281650D01*
X8466205Y-15281650D02*
X8494777Y-15281650D01*
X8494777Y-15281650D02*
X8513825Y-15291174D01*
X8513825Y-15291174D02*
X8523348Y-15310222D01*
X8523348Y-15310222D02*
X8523348Y-15414984D01*
X8618586Y-15414984D02*
X8618586Y-15281650D01*
X8618586Y-15300698D02*
X8628110Y-15291174D01*
X8628110Y-15291174D02*
X8647158Y-15281650D01*
X8647158Y-15281650D02*
X8675729Y-15281650D01*
X8675729Y-15281650D02*
X8694777Y-15291174D01*
X8694777Y-15291174D02*
X8704301Y-15310222D01*
X8704301Y-15310222D02*
X8704301Y-15414984D01*
X8704301Y-15310222D02*
X8713825Y-15291174D01*
X8713825Y-15291174D02*
X8732872Y-15281650D01*
X8732872Y-15281650D02*
X8761444Y-15281650D01*
X8761444Y-15281650D02*
X8780491Y-15291174D01*
X8780491Y-15291174D02*
X8790015Y-15310222D01*
X8790015Y-15310222D02*
X8790015Y-15414984D01*
X9180491Y-15205460D02*
X9009063Y-15462603D01*
X9437634Y-15214984D02*
X9456682Y-15214984D01*
X9456682Y-15214984D02*
X9475729Y-15224508D01*
X9475729Y-15224508D02*
X9485253Y-15234031D01*
X9485253Y-15234031D02*
X9494777Y-15253079D01*
X9494777Y-15253079D02*
X9504301Y-15291174D01*
X9504301Y-15291174D02*
X9504301Y-15338793D01*
X9504301Y-15338793D02*
X9494777Y-15376888D01*
X9494777Y-15376888D02*
X9485253Y-15395936D01*
X9485253Y-15395936D02*
X9475729Y-15405460D01*
X9475729Y-15405460D02*
X9456682Y-15414984D01*
X9456682Y-15414984D02*
X9437634Y-15414984D01*
X9437634Y-15414984D02*
X9418587Y-15405460D01*
X9418587Y-15405460D02*
X9409063Y-15395936D01*
X9409063Y-15395936D02*
X9399539Y-15376888D01*
X9399539Y-15376888D02*
X9390015Y-15338793D01*
X9390015Y-15338793D02*
X9390015Y-15291174D01*
X9390015Y-15291174D02*
X9399539Y-15253079D01*
X9399539Y-15253079D02*
X9409063Y-15234031D01*
X9409063Y-15234031D02*
X9418587Y-15224508D01*
X9418587Y-15224508D02*
X9437634Y-15214984D01*
X9590015Y-15395936D02*
X9599539Y-15405460D01*
X9599539Y-15405460D02*
X9590015Y-15414984D01*
X9590015Y-15414984D02*
X9580491Y-15405460D01*
X9580491Y-15405460D02*
X9590015Y-15395936D01*
X9590015Y-15395936D02*
X9590015Y-15414984D01*
X9723348Y-15214984D02*
X9742396Y-15214984D01*
X9742396Y-15214984D02*
X9761444Y-15224508D01*
X9761444Y-15224508D02*
X9770968Y-15234031D01*
X9770968Y-15234031D02*
X9780491Y-15253079D01*
X9780491Y-15253079D02*
X9790015Y-15291174D01*
X9790015Y-15291174D02*
X9790015Y-15338793D01*
X9790015Y-15338793D02*
X9780491Y-15376888D01*
X9780491Y-15376888D02*
X9770968Y-15395936D01*
X9770968Y-15395936D02*
X9761444Y-15405460D01*
X9761444Y-15405460D02*
X9742396Y-15414984D01*
X9742396Y-15414984D02*
X9723348Y-15414984D01*
X9723348Y-15414984D02*
X9704301Y-15405460D01*
X9704301Y-15405460D02*
X9694777Y-15395936D01*
X9694777Y-15395936D02*
X9685253Y-15376888D01*
X9685253Y-15376888D02*
X9675729Y-15338793D01*
X9675729Y-15338793D02*
X9675729Y-15291174D01*
X9675729Y-15291174D02*
X9685253Y-15253079D01*
X9685253Y-15253079D02*
X9694777Y-15234031D01*
X9694777Y-15234031D02*
X9704301Y-15224508D01*
X9704301Y-15224508D02*
X9723348Y-15214984D01*
X9980491Y-15414984D02*
X9866206Y-15414984D01*
X9923348Y-15414984D02*
X9923348Y-15214984D01*
X9923348Y-15214984D02*
X9904301Y-15243555D01*
X9904301Y-15243555D02*
X9885253Y-15262603D01*
X9885253Y-15262603D02*
X9866206Y-15272127D01*
X10161444Y-15214984D02*
X10066206Y-15214984D01*
X10066206Y-15214984D02*
X10056682Y-15310222D01*
X10056682Y-15310222D02*
X10066206Y-15300698D01*
X10066206Y-15300698D02*
X10085253Y-15291174D01*
X10085253Y-15291174D02*
X10132872Y-15291174D01*
X10132872Y-15291174D02*
X10151920Y-15300698D01*
X10151920Y-15300698D02*
X10161444Y-15310222D01*
X10161444Y-15310222D02*
X10170968Y-15329269D01*
X10170968Y-15329269D02*
X10170968Y-15376888D01*
X10170968Y-15376888D02*
X10161444Y-15395936D01*
X10161444Y-15395936D02*
X10151920Y-15405460D01*
X10151920Y-15405460D02*
X10132872Y-15414984D01*
X10132872Y-15414984D02*
X10085253Y-15414984D01*
X10085253Y-15414984D02*
X10066206Y-15405460D01*
X10066206Y-15405460D02*
X10056682Y-15395936D01*
X10237634Y-15214984D02*
X10370968Y-15214984D01*
X10370968Y-15214984D02*
X10285253Y-15414984D01*
X10437634Y-15214984D02*
X10437634Y-15253079D01*
X10513825Y-15214984D02*
X10513825Y-15253079D01*
X10809063Y-15491174D02*
X10799539Y-15481650D01*
X10799539Y-15481650D02*
X10780491Y-15453079D01*
X10780491Y-15453079D02*
X10770968Y-15434031D01*
X10770968Y-15434031D02*
X10761444Y-15405460D01*
X10761444Y-15405460D02*
X10751920Y-15357841D01*
X10751920Y-15357841D02*
X10751920Y-15319746D01*
X10751920Y-15319746D02*
X10761444Y-15272127D01*
X10761444Y-15272127D02*
X10770968Y-15243555D01*
X10770968Y-15243555D02*
X10780491Y-15224508D01*
X10780491Y-15224508D02*
X10799539Y-15195936D01*
X10799539Y-15195936D02*
X10809063Y-15186412D01*
X10990015Y-15414984D02*
X10875730Y-15414984D01*
X10932872Y-15414984D02*
X10932872Y-15214984D01*
X10932872Y-15214984D02*
X10913825Y-15243555D01*
X10913825Y-15243555D02*
X10894777Y-15262603D01*
X10894777Y-15262603D02*
X10875730Y-15272127D01*
X11104301Y-15300698D02*
X11085253Y-15291174D01*
X11085253Y-15291174D02*
X11075730Y-15281650D01*
X11075730Y-15281650D02*
X11066206Y-15262603D01*
X11066206Y-15262603D02*
X11066206Y-15253079D01*
X11066206Y-15253079D02*
X11075730Y-15234031D01*
X11075730Y-15234031D02*
X11085253Y-15224508D01*
X11085253Y-15224508D02*
X11104301Y-15214984D01*
X11104301Y-15214984D02*
X11142396Y-15214984D01*
X11142396Y-15214984D02*
X11161444Y-15224508D01*
X11161444Y-15224508D02*
X11170968Y-15234031D01*
X11170968Y-15234031D02*
X11180491Y-15253079D01*
X11180491Y-15253079D02*
X11180491Y-15262603D01*
X11180491Y-15262603D02*
X11170968Y-15281650D01*
X11170968Y-15281650D02*
X11161444Y-15291174D01*
X11161444Y-15291174D02*
X11142396Y-15300698D01*
X11142396Y-15300698D02*
X11104301Y-15300698D01*
X11104301Y-15300698D02*
X11085253Y-15310222D01*
X11085253Y-15310222D02*
X11075730Y-15319746D01*
X11075730Y-15319746D02*
X11066206Y-15338793D01*
X11066206Y-15338793D02*
X11066206Y-15376888D01*
X11066206Y-15376888D02*
X11075730Y-15395936D01*
X11075730Y-15395936D02*
X11085253Y-15405460D01*
X11085253Y-15405460D02*
X11104301Y-15414984D01*
X11104301Y-15414984D02*
X11142396Y-15414984D01*
X11142396Y-15414984D02*
X11161444Y-15405460D01*
X11161444Y-15405460D02*
X11170968Y-15395936D01*
X11170968Y-15395936D02*
X11180491Y-15376888D01*
X11180491Y-15376888D02*
X11180491Y-15338793D01*
X11180491Y-15338793D02*
X11170968Y-15319746D01*
X11170968Y-15319746D02*
X11161444Y-15310222D01*
X11161444Y-15310222D02*
X11142396Y-15300698D01*
X11418587Y-15414984D02*
X11418587Y-15214984D01*
X11504301Y-15414984D02*
X11504301Y-15310222D01*
X11504301Y-15310222D02*
X11494777Y-15291174D01*
X11494777Y-15291174D02*
X11475730Y-15281650D01*
X11475730Y-15281650D02*
X11447158Y-15281650D01*
X11447158Y-15281650D02*
X11428110Y-15291174D01*
X11428110Y-15291174D02*
X11418587Y-15300698D01*
X11628110Y-15414984D02*
X11609063Y-15405460D01*
X11609063Y-15405460D02*
X11599539Y-15395936D01*
X11599539Y-15395936D02*
X11590015Y-15376888D01*
X11590015Y-15376888D02*
X11590015Y-15319746D01*
X11590015Y-15319746D02*
X11599539Y-15300698D01*
X11599539Y-15300698D02*
X11609063Y-15291174D01*
X11609063Y-15291174D02*
X11628110Y-15281650D01*
X11628110Y-15281650D02*
X11656682Y-15281650D01*
X11656682Y-15281650D02*
X11675730Y-15291174D01*
X11675730Y-15291174D02*
X11685253Y-15300698D01*
X11685253Y-15300698D02*
X11694777Y-15319746D01*
X11694777Y-15319746D02*
X11694777Y-15376888D01*
X11694777Y-15376888D02*
X11685253Y-15395936D01*
X11685253Y-15395936D02*
X11675730Y-15405460D01*
X11675730Y-15405460D02*
X11656682Y-15414984D01*
X11656682Y-15414984D02*
X11628110Y-15414984D01*
X11809063Y-15414984D02*
X11790015Y-15405460D01*
X11790015Y-15405460D02*
X11780491Y-15386412D01*
X11780491Y-15386412D02*
X11780491Y-15214984D01*
X11961444Y-15405460D02*
X11942396Y-15414984D01*
X11942396Y-15414984D02*
X11904301Y-15414984D01*
X11904301Y-15414984D02*
X11885253Y-15405460D01*
X11885253Y-15405460D02*
X11875730Y-15386412D01*
X11875730Y-15386412D02*
X11875730Y-15310222D01*
X11875730Y-15310222D02*
X11885253Y-15291174D01*
X11885253Y-15291174D02*
X11904301Y-15281650D01*
X11904301Y-15281650D02*
X11942396Y-15281650D01*
X11942396Y-15281650D02*
X11961444Y-15291174D01*
X11961444Y-15291174D02*
X11970968Y-15310222D01*
X11970968Y-15310222D02*
X11970968Y-15329269D01*
X11970968Y-15329269D02*
X11875730Y-15348317D01*
X12047158Y-15405460D02*
X12066206Y-15414984D01*
X12066206Y-15414984D02*
X12104301Y-15414984D01*
X12104301Y-15414984D02*
X12123349Y-15405460D01*
X12123349Y-15405460D02*
X12132872Y-15386412D01*
X12132872Y-15386412D02*
X12132872Y-15376888D01*
X12132872Y-15376888D02*
X12123349Y-15357841D01*
X12123349Y-15357841D02*
X12104301Y-15348317D01*
X12104301Y-15348317D02*
X12075730Y-15348317D01*
X12075730Y-15348317D02*
X12056682Y-15338793D01*
X12056682Y-15338793D02*
X12047158Y-15319746D01*
X12047158Y-15319746D02*
X12047158Y-15310222D01*
X12047158Y-15310222D02*
X12056682Y-15291174D01*
X12056682Y-15291174D02*
X12075730Y-15281650D01*
X12075730Y-15281650D02*
X12104301Y-15281650D01*
X12104301Y-15281650D02*
X12123349Y-15291174D01*
X12199539Y-15491174D02*
X12209063Y-15481650D01*
X12209063Y-15481650D02*
X12228111Y-15453079D01*
X12228111Y-15453079D02*
X12237634Y-15434031D01*
X12237634Y-15434031D02*
X12247158Y-15405460D01*
X12247158Y-15405460D02*
X12256682Y-15357841D01*
X12256682Y-15357841D02*
X12256682Y-15319746D01*
X12256682Y-15319746D02*
X12247158Y-15272127D01*
X12247158Y-15272127D02*
X12237634Y-15243555D01*
X12237634Y-15243555D02*
X12228111Y-15224508D01*
X12228111Y-15224508D02*
X12209063Y-15195936D01*
X12209063Y-15195936D02*
X12199539Y-15186412D01*
D14*
X7196500Y-15550000D02*
X7196500Y-15625000D01*
X7159000Y-15587500D02*
X7234000Y-15587500D01*
D11*
X7532872Y-15478984D02*
X7551920Y-15478984D01*
X7551920Y-15478984D02*
X7570967Y-15488508D01*
X7570967Y-15488508D02*
X7580491Y-15498031D01*
X7580491Y-15498031D02*
X7590015Y-15517079D01*
X7590015Y-15517079D02*
X7599539Y-15555174D01*
X7599539Y-15555174D02*
X7599539Y-15602793D01*
X7599539Y-15602793D02*
X7590015Y-15640888D01*
X7590015Y-15640888D02*
X7580491Y-15659936D01*
X7580491Y-15659936D02*
X7570967Y-15669460D01*
X7570967Y-15669460D02*
X7551920Y-15678984D01*
X7551920Y-15678984D02*
X7532872Y-15678984D01*
X7532872Y-15678984D02*
X7513824Y-15669460D01*
X7513824Y-15669460D02*
X7504301Y-15659936D01*
X7504301Y-15659936D02*
X7494777Y-15640888D01*
X7494777Y-15640888D02*
X7485253Y-15602793D01*
X7485253Y-15602793D02*
X7485253Y-15555174D01*
X7485253Y-15555174D02*
X7494777Y-15517079D01*
X7494777Y-15517079D02*
X7504301Y-15498031D01*
X7504301Y-15498031D02*
X7513824Y-15488508D01*
X7513824Y-15488508D02*
X7532872Y-15478984D01*
X7685253Y-15659936D02*
X7694777Y-15669460D01*
X7694777Y-15669460D02*
X7685253Y-15678984D01*
X7685253Y-15678984D02*
X7675729Y-15669460D01*
X7675729Y-15669460D02*
X7685253Y-15659936D01*
X7685253Y-15659936D02*
X7685253Y-15678984D01*
X7761443Y-15478984D02*
X7894777Y-15478984D01*
X7894777Y-15478984D02*
X7809062Y-15678984D01*
X8066205Y-15478984D02*
X7970967Y-15478984D01*
X7970967Y-15478984D02*
X7961443Y-15574222D01*
X7961443Y-15574222D02*
X7970967Y-15564698D01*
X7970967Y-15564698D02*
X7990015Y-15555174D01*
X7990015Y-15555174D02*
X8037634Y-15555174D01*
X8037634Y-15555174D02*
X8056682Y-15564698D01*
X8056682Y-15564698D02*
X8066205Y-15574222D01*
X8066205Y-15574222D02*
X8075729Y-15593269D01*
X8075729Y-15593269D02*
X8075729Y-15640888D01*
X8075729Y-15640888D02*
X8066205Y-15659936D01*
X8066205Y-15659936D02*
X8056682Y-15669460D01*
X8056682Y-15669460D02*
X8037634Y-15678984D01*
X8037634Y-15678984D02*
X7990015Y-15678984D01*
X7990015Y-15678984D02*
X7970967Y-15669460D01*
X7970967Y-15669460D02*
X7961443Y-15659936D01*
X8199539Y-15478984D02*
X8218586Y-15478984D01*
X8218586Y-15478984D02*
X8237634Y-15488508D01*
X8237634Y-15488508D02*
X8247158Y-15498031D01*
X8247158Y-15498031D02*
X8256682Y-15517079D01*
X8256682Y-15517079D02*
X8266205Y-15555174D01*
X8266205Y-15555174D02*
X8266205Y-15602793D01*
X8266205Y-15602793D02*
X8256682Y-15640888D01*
X8256682Y-15640888D02*
X8247158Y-15659936D01*
X8247158Y-15659936D02*
X8237634Y-15669460D01*
X8237634Y-15669460D02*
X8218586Y-15678984D01*
X8218586Y-15678984D02*
X8199539Y-15678984D01*
X8199539Y-15678984D02*
X8180491Y-15669460D01*
X8180491Y-15669460D02*
X8170967Y-15659936D01*
X8170967Y-15659936D02*
X8161443Y-15640888D01*
X8161443Y-15640888D02*
X8151920Y-15602793D01*
X8151920Y-15602793D02*
X8151920Y-15555174D01*
X8151920Y-15555174D02*
X8161443Y-15517079D01*
X8161443Y-15517079D02*
X8170967Y-15498031D01*
X8170967Y-15498031D02*
X8180491Y-15488508D01*
X8180491Y-15488508D02*
X8199539Y-15478984D01*
X8351920Y-15678984D02*
X8351920Y-15545650D01*
X8351920Y-15564698D02*
X8361443Y-15555174D01*
X8361443Y-15555174D02*
X8380491Y-15545650D01*
X8380491Y-15545650D02*
X8409063Y-15545650D01*
X8409063Y-15545650D02*
X8428110Y-15555174D01*
X8428110Y-15555174D02*
X8437634Y-15574222D01*
X8437634Y-15574222D02*
X8437634Y-15678984D01*
X8437634Y-15574222D02*
X8447158Y-15555174D01*
X8447158Y-15555174D02*
X8466205Y-15545650D01*
X8466205Y-15545650D02*
X8494777Y-15545650D01*
X8494777Y-15545650D02*
X8513825Y-15555174D01*
X8513825Y-15555174D02*
X8523348Y-15574222D01*
X8523348Y-15574222D02*
X8523348Y-15678984D01*
X8618586Y-15678984D02*
X8618586Y-15545650D01*
X8618586Y-15564698D02*
X8628110Y-15555174D01*
X8628110Y-15555174D02*
X8647158Y-15545650D01*
X8647158Y-15545650D02*
X8675729Y-15545650D01*
X8675729Y-15545650D02*
X8694777Y-15555174D01*
X8694777Y-15555174D02*
X8704301Y-15574222D01*
X8704301Y-15574222D02*
X8704301Y-15678984D01*
X8704301Y-15574222D02*
X8713825Y-15555174D01*
X8713825Y-15555174D02*
X8732872Y-15545650D01*
X8732872Y-15545650D02*
X8761444Y-15545650D01*
X8761444Y-15545650D02*
X8780491Y-15555174D01*
X8780491Y-15555174D02*
X8790015Y-15574222D01*
X8790015Y-15574222D02*
X8790015Y-15678984D01*
X9180491Y-15469460D02*
X9009063Y-15726603D01*
X9437634Y-15478984D02*
X9456682Y-15478984D01*
X9456682Y-15478984D02*
X9475729Y-15488508D01*
X9475729Y-15488508D02*
X9485253Y-15498031D01*
X9485253Y-15498031D02*
X9494777Y-15517079D01*
X9494777Y-15517079D02*
X9504301Y-15555174D01*
X9504301Y-15555174D02*
X9504301Y-15602793D01*
X9504301Y-15602793D02*
X9494777Y-15640888D01*
X9494777Y-15640888D02*
X9485253Y-15659936D01*
X9485253Y-15659936D02*
X9475729Y-15669460D01*
X9475729Y-15669460D02*
X9456682Y-15678984D01*
X9456682Y-15678984D02*
X9437634Y-15678984D01*
X9437634Y-15678984D02*
X9418587Y-15669460D01*
X9418587Y-15669460D02*
X9409063Y-15659936D01*
X9409063Y-15659936D02*
X9399539Y-15640888D01*
X9399539Y-15640888D02*
X9390015Y-15602793D01*
X9390015Y-15602793D02*
X9390015Y-15555174D01*
X9390015Y-15555174D02*
X9399539Y-15517079D01*
X9399539Y-15517079D02*
X9409063Y-15498031D01*
X9409063Y-15498031D02*
X9418587Y-15488508D01*
X9418587Y-15488508D02*
X9437634Y-15478984D01*
X9590015Y-15659936D02*
X9599539Y-15669460D01*
X9599539Y-15669460D02*
X9590015Y-15678984D01*
X9590015Y-15678984D02*
X9580491Y-15669460D01*
X9580491Y-15669460D02*
X9590015Y-15659936D01*
X9590015Y-15659936D02*
X9590015Y-15678984D01*
X9723348Y-15478984D02*
X9742396Y-15478984D01*
X9742396Y-15478984D02*
X9761444Y-15488508D01*
X9761444Y-15488508D02*
X9770968Y-15498031D01*
X9770968Y-15498031D02*
X9780491Y-15517079D01*
X9780491Y-15517079D02*
X9790015Y-15555174D01*
X9790015Y-15555174D02*
X9790015Y-15602793D01*
X9790015Y-15602793D02*
X9780491Y-15640888D01*
X9780491Y-15640888D02*
X9770968Y-15659936D01*
X9770968Y-15659936D02*
X9761444Y-15669460D01*
X9761444Y-15669460D02*
X9742396Y-15678984D01*
X9742396Y-15678984D02*
X9723348Y-15678984D01*
X9723348Y-15678984D02*
X9704301Y-15669460D01*
X9704301Y-15669460D02*
X9694777Y-15659936D01*
X9694777Y-15659936D02*
X9685253Y-15640888D01*
X9685253Y-15640888D02*
X9675729Y-15602793D01*
X9675729Y-15602793D02*
X9675729Y-15555174D01*
X9675729Y-15555174D02*
X9685253Y-15517079D01*
X9685253Y-15517079D02*
X9694777Y-15498031D01*
X9694777Y-15498031D02*
X9704301Y-15488508D01*
X9704301Y-15488508D02*
X9723348Y-15478984D01*
X9866206Y-15498031D02*
X9875729Y-15488508D01*
X9875729Y-15488508D02*
X9894777Y-15478984D01*
X9894777Y-15478984D02*
X9942396Y-15478984D01*
X9942396Y-15478984D02*
X9961444Y-15488508D01*
X9961444Y-15488508D02*
X9970968Y-15498031D01*
X9970968Y-15498031D02*
X9980491Y-15517079D01*
X9980491Y-15517079D02*
X9980491Y-15536127D01*
X9980491Y-15536127D02*
X9970968Y-15564698D01*
X9970968Y-15564698D02*
X9856682Y-15678984D01*
X9856682Y-15678984D02*
X9980491Y-15678984D01*
X10075729Y-15678984D02*
X10113825Y-15678984D01*
X10113825Y-15678984D02*
X10132872Y-15669460D01*
X10132872Y-15669460D02*
X10142396Y-15659936D01*
X10142396Y-15659936D02*
X10161444Y-15631365D01*
X10161444Y-15631365D02*
X10170968Y-15593269D01*
X10170968Y-15593269D02*
X10170968Y-15517079D01*
X10170968Y-15517079D02*
X10161444Y-15498031D01*
X10161444Y-15498031D02*
X10151920Y-15488508D01*
X10151920Y-15488508D02*
X10132872Y-15478984D01*
X10132872Y-15478984D02*
X10094777Y-15478984D01*
X10094777Y-15478984D02*
X10075729Y-15488508D01*
X10075729Y-15488508D02*
X10066206Y-15498031D01*
X10066206Y-15498031D02*
X10056682Y-15517079D01*
X10056682Y-15517079D02*
X10056682Y-15564698D01*
X10056682Y-15564698D02*
X10066206Y-15583746D01*
X10066206Y-15583746D02*
X10075729Y-15593269D01*
X10075729Y-15593269D02*
X10094777Y-15602793D01*
X10094777Y-15602793D02*
X10132872Y-15602793D01*
X10132872Y-15602793D02*
X10151920Y-15593269D01*
X10151920Y-15593269D02*
X10161444Y-15583746D01*
X10161444Y-15583746D02*
X10170968Y-15564698D01*
X10351920Y-15478984D02*
X10256682Y-15478984D01*
X10256682Y-15478984D02*
X10247158Y-15574222D01*
X10247158Y-15574222D02*
X10256682Y-15564698D01*
X10256682Y-15564698D02*
X10275729Y-15555174D01*
X10275729Y-15555174D02*
X10323349Y-15555174D01*
X10323349Y-15555174D02*
X10342396Y-15564698D01*
X10342396Y-15564698D02*
X10351920Y-15574222D01*
X10351920Y-15574222D02*
X10361444Y-15593269D01*
X10361444Y-15593269D02*
X10361444Y-15640888D01*
X10361444Y-15640888D02*
X10351920Y-15659936D01*
X10351920Y-15659936D02*
X10342396Y-15669460D01*
X10342396Y-15669460D02*
X10323349Y-15678984D01*
X10323349Y-15678984D02*
X10275729Y-15678984D01*
X10275729Y-15678984D02*
X10256682Y-15669460D01*
X10256682Y-15669460D02*
X10247158Y-15659936D01*
X10437634Y-15478984D02*
X10437634Y-15517079D01*
X10513825Y-15478984D02*
X10513825Y-15517079D01*
X10809063Y-15755174D02*
X10799539Y-15745650D01*
X10799539Y-15745650D02*
X10780491Y-15717079D01*
X10780491Y-15717079D02*
X10770968Y-15698031D01*
X10770968Y-15698031D02*
X10761444Y-15669460D01*
X10761444Y-15669460D02*
X10751920Y-15621841D01*
X10751920Y-15621841D02*
X10751920Y-15583746D01*
X10751920Y-15583746D02*
X10761444Y-15536127D01*
X10761444Y-15536127D02*
X10770968Y-15507555D01*
X10770968Y-15507555D02*
X10780491Y-15488508D01*
X10780491Y-15488508D02*
X10799539Y-15459936D01*
X10799539Y-15459936D02*
X10809063Y-15450412D01*
X10875730Y-15498031D02*
X10885253Y-15488508D01*
X10885253Y-15488508D02*
X10904301Y-15478984D01*
X10904301Y-15478984D02*
X10951920Y-15478984D01*
X10951920Y-15478984D02*
X10970968Y-15488508D01*
X10970968Y-15488508D02*
X10980491Y-15498031D01*
X10980491Y-15498031D02*
X10990015Y-15517079D01*
X10990015Y-15517079D02*
X10990015Y-15536127D01*
X10990015Y-15536127D02*
X10980491Y-15564698D01*
X10980491Y-15564698D02*
X10866206Y-15678984D01*
X10866206Y-15678984D02*
X10990015Y-15678984D01*
X11056682Y-15478984D02*
X11190015Y-15478984D01*
X11190015Y-15478984D02*
X11104301Y-15678984D01*
X11418587Y-15678984D02*
X11418587Y-15478984D01*
X11504301Y-15678984D02*
X11504301Y-15574222D01*
X11504301Y-15574222D02*
X11494777Y-15555174D01*
X11494777Y-15555174D02*
X11475730Y-15545650D01*
X11475730Y-15545650D02*
X11447158Y-15545650D01*
X11447158Y-15545650D02*
X11428110Y-15555174D01*
X11428110Y-15555174D02*
X11418587Y-15564698D01*
X11628110Y-15678984D02*
X11609063Y-15669460D01*
X11609063Y-15669460D02*
X11599539Y-15659936D01*
X11599539Y-15659936D02*
X11590015Y-15640888D01*
X11590015Y-15640888D02*
X11590015Y-15583746D01*
X11590015Y-15583746D02*
X11599539Y-15564698D01*
X11599539Y-15564698D02*
X11609063Y-15555174D01*
X11609063Y-15555174D02*
X11628110Y-15545650D01*
X11628110Y-15545650D02*
X11656682Y-15545650D01*
X11656682Y-15545650D02*
X11675730Y-15555174D01*
X11675730Y-15555174D02*
X11685253Y-15564698D01*
X11685253Y-15564698D02*
X11694777Y-15583746D01*
X11694777Y-15583746D02*
X11694777Y-15640888D01*
X11694777Y-15640888D02*
X11685253Y-15659936D01*
X11685253Y-15659936D02*
X11675730Y-15669460D01*
X11675730Y-15669460D02*
X11656682Y-15678984D01*
X11656682Y-15678984D02*
X11628110Y-15678984D01*
X11809063Y-15678984D02*
X11790015Y-15669460D01*
X11790015Y-15669460D02*
X11780491Y-15650412D01*
X11780491Y-15650412D02*
X11780491Y-15478984D01*
X11961444Y-15669460D02*
X11942396Y-15678984D01*
X11942396Y-15678984D02*
X11904301Y-15678984D01*
X11904301Y-15678984D02*
X11885253Y-15669460D01*
X11885253Y-15669460D02*
X11875730Y-15650412D01*
X11875730Y-15650412D02*
X11875730Y-15574222D01*
X11875730Y-15574222D02*
X11885253Y-15555174D01*
X11885253Y-15555174D02*
X11904301Y-15545650D01*
X11904301Y-15545650D02*
X11942396Y-15545650D01*
X11942396Y-15545650D02*
X11961444Y-15555174D01*
X11961444Y-15555174D02*
X11970968Y-15574222D01*
X11970968Y-15574222D02*
X11970968Y-15593269D01*
X11970968Y-15593269D02*
X11875730Y-15612317D01*
X12047158Y-15669460D02*
X12066206Y-15678984D01*
X12066206Y-15678984D02*
X12104301Y-15678984D01*
X12104301Y-15678984D02*
X12123349Y-15669460D01*
X12123349Y-15669460D02*
X12132872Y-15650412D01*
X12132872Y-15650412D02*
X12132872Y-15640888D01*
X12132872Y-15640888D02*
X12123349Y-15621841D01*
X12123349Y-15621841D02*
X12104301Y-15612317D01*
X12104301Y-15612317D02*
X12075730Y-15612317D01*
X12075730Y-15612317D02*
X12056682Y-15602793D01*
X12056682Y-15602793D02*
X12047158Y-15583746D01*
X12047158Y-15583746D02*
X12047158Y-15574222D01*
X12047158Y-15574222D02*
X12056682Y-15555174D01*
X12056682Y-15555174D02*
X12075730Y-15545650D01*
X12075730Y-15545650D02*
X12104301Y-15545650D01*
X12104301Y-15545650D02*
X12123349Y-15555174D01*
X12199539Y-15755174D02*
X12209063Y-15745650D01*
X12209063Y-15745650D02*
X12228111Y-15717079D01*
X12228111Y-15717079D02*
X12237634Y-15698031D01*
X12237634Y-15698031D02*
X12247158Y-15669460D01*
X12247158Y-15669460D02*
X12256682Y-15621841D01*
X12256682Y-15621841D02*
X12256682Y-15583746D01*
X12256682Y-15583746D02*
X12247158Y-15536127D01*
X12247158Y-15536127D02*
X12237634Y-15507555D01*
X12237634Y-15507555D02*
X12228111Y-15488508D01*
X12228111Y-15488508D02*
X12209063Y-15459936D01*
X12209063Y-15459936D02*
X12199539Y-15450412D01*
D15*
X7222284Y-15879784D02*
X7222284Y-15823215D01*
X7165715Y-15823215D01*
X7165715Y-15879784D01*
X7222284Y-15879784D01*
D11*
X7532872Y-15742984D02*
X7551920Y-15742984D01*
X7551920Y-15742984D02*
X7570967Y-15752508D01*
X7570967Y-15752508D02*
X7580491Y-15762031D01*
X7580491Y-15762031D02*
X7590015Y-15781079D01*
X7590015Y-15781079D02*
X7599539Y-15819174D01*
X7599539Y-15819174D02*
X7599539Y-15866793D01*
X7599539Y-15866793D02*
X7590015Y-15904888D01*
X7590015Y-15904888D02*
X7580491Y-15923936D01*
X7580491Y-15923936D02*
X7570967Y-15933460D01*
X7570967Y-15933460D02*
X7551920Y-15942984D01*
X7551920Y-15942984D02*
X7532872Y-15942984D01*
X7532872Y-15942984D02*
X7513824Y-15933460D01*
X7513824Y-15933460D02*
X7504301Y-15923936D01*
X7504301Y-15923936D02*
X7494777Y-15904888D01*
X7494777Y-15904888D02*
X7485253Y-15866793D01*
X7485253Y-15866793D02*
X7485253Y-15819174D01*
X7485253Y-15819174D02*
X7494777Y-15781079D01*
X7494777Y-15781079D02*
X7504301Y-15762031D01*
X7504301Y-15762031D02*
X7513824Y-15752508D01*
X7513824Y-15752508D02*
X7532872Y-15742984D01*
X7685253Y-15923936D02*
X7694777Y-15933460D01*
X7694777Y-15933460D02*
X7685253Y-15942984D01*
X7685253Y-15942984D02*
X7675729Y-15933460D01*
X7675729Y-15933460D02*
X7685253Y-15923936D01*
X7685253Y-15923936D02*
X7685253Y-15942984D01*
X7809062Y-15828698D02*
X7790015Y-15819174D01*
X7790015Y-15819174D02*
X7780491Y-15809650D01*
X7780491Y-15809650D02*
X7770967Y-15790603D01*
X7770967Y-15790603D02*
X7770967Y-15781079D01*
X7770967Y-15781079D02*
X7780491Y-15762031D01*
X7780491Y-15762031D02*
X7790015Y-15752508D01*
X7790015Y-15752508D02*
X7809062Y-15742984D01*
X7809062Y-15742984D02*
X7847158Y-15742984D01*
X7847158Y-15742984D02*
X7866205Y-15752508D01*
X7866205Y-15752508D02*
X7875729Y-15762031D01*
X7875729Y-15762031D02*
X7885253Y-15781079D01*
X7885253Y-15781079D02*
X7885253Y-15790603D01*
X7885253Y-15790603D02*
X7875729Y-15809650D01*
X7875729Y-15809650D02*
X7866205Y-15819174D01*
X7866205Y-15819174D02*
X7847158Y-15828698D01*
X7847158Y-15828698D02*
X7809062Y-15828698D01*
X7809062Y-15828698D02*
X7790015Y-15838222D01*
X7790015Y-15838222D02*
X7780491Y-15847746D01*
X7780491Y-15847746D02*
X7770967Y-15866793D01*
X7770967Y-15866793D02*
X7770967Y-15904888D01*
X7770967Y-15904888D02*
X7780491Y-15923936D01*
X7780491Y-15923936D02*
X7790015Y-15933460D01*
X7790015Y-15933460D02*
X7809062Y-15942984D01*
X7809062Y-15942984D02*
X7847158Y-15942984D01*
X7847158Y-15942984D02*
X7866205Y-15933460D01*
X7866205Y-15933460D02*
X7875729Y-15923936D01*
X7875729Y-15923936D02*
X7885253Y-15904888D01*
X7885253Y-15904888D02*
X7885253Y-15866793D01*
X7885253Y-15866793D02*
X7875729Y-15847746D01*
X7875729Y-15847746D02*
X7866205Y-15838222D01*
X7866205Y-15838222D02*
X7847158Y-15828698D01*
X8009062Y-15742984D02*
X8028110Y-15742984D01*
X8028110Y-15742984D02*
X8047158Y-15752508D01*
X8047158Y-15752508D02*
X8056682Y-15762031D01*
X8056682Y-15762031D02*
X8066205Y-15781079D01*
X8066205Y-15781079D02*
X8075729Y-15819174D01*
X8075729Y-15819174D02*
X8075729Y-15866793D01*
X8075729Y-15866793D02*
X8066205Y-15904888D01*
X8066205Y-15904888D02*
X8056682Y-15923936D01*
X8056682Y-15923936D02*
X8047158Y-15933460D01*
X8047158Y-15933460D02*
X8028110Y-15942984D01*
X8028110Y-15942984D02*
X8009062Y-15942984D01*
X8009062Y-15942984D02*
X7990015Y-15933460D01*
X7990015Y-15933460D02*
X7980491Y-15923936D01*
X7980491Y-15923936D02*
X7970967Y-15904888D01*
X7970967Y-15904888D02*
X7961443Y-15866793D01*
X7961443Y-15866793D02*
X7961443Y-15819174D01*
X7961443Y-15819174D02*
X7970967Y-15781079D01*
X7970967Y-15781079D02*
X7980491Y-15762031D01*
X7980491Y-15762031D02*
X7990015Y-15752508D01*
X7990015Y-15752508D02*
X8009062Y-15742984D01*
X8199539Y-15742984D02*
X8218586Y-15742984D01*
X8218586Y-15742984D02*
X8237634Y-15752508D01*
X8237634Y-15752508D02*
X8247158Y-15762031D01*
X8247158Y-15762031D02*
X8256682Y-15781079D01*
X8256682Y-15781079D02*
X8266205Y-15819174D01*
X8266205Y-15819174D02*
X8266205Y-15866793D01*
X8266205Y-15866793D02*
X8256682Y-15904888D01*
X8256682Y-15904888D02*
X8247158Y-15923936D01*
X8247158Y-15923936D02*
X8237634Y-15933460D01*
X8237634Y-15933460D02*
X8218586Y-15942984D01*
X8218586Y-15942984D02*
X8199539Y-15942984D01*
X8199539Y-15942984D02*
X8180491Y-15933460D01*
X8180491Y-15933460D02*
X8170967Y-15923936D01*
X8170967Y-15923936D02*
X8161443Y-15904888D01*
X8161443Y-15904888D02*
X8151920Y-15866793D01*
X8151920Y-15866793D02*
X8151920Y-15819174D01*
X8151920Y-15819174D02*
X8161443Y-15781079D01*
X8161443Y-15781079D02*
X8170967Y-15762031D01*
X8170967Y-15762031D02*
X8180491Y-15752508D01*
X8180491Y-15752508D02*
X8199539Y-15742984D01*
X8351920Y-15942984D02*
X8351920Y-15809650D01*
X8351920Y-15828698D02*
X8361443Y-15819174D01*
X8361443Y-15819174D02*
X8380491Y-15809650D01*
X8380491Y-15809650D02*
X8409063Y-15809650D01*
X8409063Y-15809650D02*
X8428110Y-15819174D01*
X8428110Y-15819174D02*
X8437634Y-15838222D01*
X8437634Y-15838222D02*
X8437634Y-15942984D01*
X8437634Y-15838222D02*
X8447158Y-15819174D01*
X8447158Y-15819174D02*
X8466205Y-15809650D01*
X8466205Y-15809650D02*
X8494777Y-15809650D01*
X8494777Y-15809650D02*
X8513825Y-15819174D01*
X8513825Y-15819174D02*
X8523348Y-15838222D01*
X8523348Y-15838222D02*
X8523348Y-15942984D01*
X8618586Y-15942984D02*
X8618586Y-15809650D01*
X8618586Y-15828698D02*
X8628110Y-15819174D01*
X8628110Y-15819174D02*
X8647158Y-15809650D01*
X8647158Y-15809650D02*
X8675729Y-15809650D01*
X8675729Y-15809650D02*
X8694777Y-15819174D01*
X8694777Y-15819174D02*
X8704301Y-15838222D01*
X8704301Y-15838222D02*
X8704301Y-15942984D01*
X8704301Y-15838222D02*
X8713825Y-15819174D01*
X8713825Y-15819174D02*
X8732872Y-15809650D01*
X8732872Y-15809650D02*
X8761444Y-15809650D01*
X8761444Y-15809650D02*
X8780491Y-15819174D01*
X8780491Y-15819174D02*
X8790015Y-15838222D01*
X8790015Y-15838222D02*
X8790015Y-15942984D01*
X9180491Y-15733460D02*
X9009063Y-15990603D01*
X9437634Y-15742984D02*
X9456682Y-15742984D01*
X9456682Y-15742984D02*
X9475729Y-15752508D01*
X9475729Y-15752508D02*
X9485253Y-15762031D01*
X9485253Y-15762031D02*
X9494777Y-15781079D01*
X9494777Y-15781079D02*
X9504301Y-15819174D01*
X9504301Y-15819174D02*
X9504301Y-15866793D01*
X9504301Y-15866793D02*
X9494777Y-15904888D01*
X9494777Y-15904888D02*
X9485253Y-15923936D01*
X9485253Y-15923936D02*
X9475729Y-15933460D01*
X9475729Y-15933460D02*
X9456682Y-15942984D01*
X9456682Y-15942984D02*
X9437634Y-15942984D01*
X9437634Y-15942984D02*
X9418587Y-15933460D01*
X9418587Y-15933460D02*
X9409063Y-15923936D01*
X9409063Y-15923936D02*
X9399539Y-15904888D01*
X9399539Y-15904888D02*
X9390015Y-15866793D01*
X9390015Y-15866793D02*
X9390015Y-15819174D01*
X9390015Y-15819174D02*
X9399539Y-15781079D01*
X9399539Y-15781079D02*
X9409063Y-15762031D01*
X9409063Y-15762031D02*
X9418587Y-15752508D01*
X9418587Y-15752508D02*
X9437634Y-15742984D01*
X9590015Y-15923936D02*
X9599539Y-15933460D01*
X9599539Y-15933460D02*
X9590015Y-15942984D01*
X9590015Y-15942984D02*
X9580491Y-15933460D01*
X9580491Y-15933460D02*
X9590015Y-15923936D01*
X9590015Y-15923936D02*
X9590015Y-15942984D01*
X9723348Y-15742984D02*
X9742396Y-15742984D01*
X9742396Y-15742984D02*
X9761444Y-15752508D01*
X9761444Y-15752508D02*
X9770968Y-15762031D01*
X9770968Y-15762031D02*
X9780491Y-15781079D01*
X9780491Y-15781079D02*
X9790015Y-15819174D01*
X9790015Y-15819174D02*
X9790015Y-15866793D01*
X9790015Y-15866793D02*
X9780491Y-15904888D01*
X9780491Y-15904888D02*
X9770968Y-15923936D01*
X9770968Y-15923936D02*
X9761444Y-15933460D01*
X9761444Y-15933460D02*
X9742396Y-15942984D01*
X9742396Y-15942984D02*
X9723348Y-15942984D01*
X9723348Y-15942984D02*
X9704301Y-15933460D01*
X9704301Y-15933460D02*
X9694777Y-15923936D01*
X9694777Y-15923936D02*
X9685253Y-15904888D01*
X9685253Y-15904888D02*
X9675729Y-15866793D01*
X9675729Y-15866793D02*
X9675729Y-15819174D01*
X9675729Y-15819174D02*
X9685253Y-15781079D01*
X9685253Y-15781079D02*
X9694777Y-15762031D01*
X9694777Y-15762031D02*
X9704301Y-15752508D01*
X9704301Y-15752508D02*
X9723348Y-15742984D01*
X9856682Y-15742984D02*
X9980491Y-15742984D01*
X9980491Y-15742984D02*
X9913825Y-15819174D01*
X9913825Y-15819174D02*
X9942396Y-15819174D01*
X9942396Y-15819174D02*
X9961444Y-15828698D01*
X9961444Y-15828698D02*
X9970968Y-15838222D01*
X9970968Y-15838222D02*
X9980491Y-15857269D01*
X9980491Y-15857269D02*
X9980491Y-15904888D01*
X9980491Y-15904888D02*
X9970968Y-15923936D01*
X9970968Y-15923936D02*
X9961444Y-15933460D01*
X9961444Y-15933460D02*
X9942396Y-15942984D01*
X9942396Y-15942984D02*
X9885253Y-15942984D01*
X9885253Y-15942984D02*
X9866206Y-15933460D01*
X9866206Y-15933460D02*
X9856682Y-15923936D01*
X10170968Y-15942984D02*
X10056682Y-15942984D01*
X10113825Y-15942984D02*
X10113825Y-15742984D01*
X10113825Y-15742984D02*
X10094777Y-15771555D01*
X10094777Y-15771555D02*
X10075729Y-15790603D01*
X10075729Y-15790603D02*
X10056682Y-15800127D01*
X10351920Y-15742984D02*
X10256682Y-15742984D01*
X10256682Y-15742984D02*
X10247158Y-15838222D01*
X10247158Y-15838222D02*
X10256682Y-15828698D01*
X10256682Y-15828698D02*
X10275729Y-15819174D01*
X10275729Y-15819174D02*
X10323349Y-15819174D01*
X10323349Y-15819174D02*
X10342396Y-15828698D01*
X10342396Y-15828698D02*
X10351920Y-15838222D01*
X10351920Y-15838222D02*
X10361444Y-15857269D01*
X10361444Y-15857269D02*
X10361444Y-15904888D01*
X10361444Y-15904888D02*
X10351920Y-15923936D01*
X10351920Y-15923936D02*
X10342396Y-15933460D01*
X10342396Y-15933460D02*
X10323349Y-15942984D01*
X10323349Y-15942984D02*
X10275729Y-15942984D01*
X10275729Y-15942984D02*
X10256682Y-15933460D01*
X10256682Y-15933460D02*
X10247158Y-15923936D01*
X10437634Y-15742984D02*
X10437634Y-15781079D01*
X10513825Y-15742984D02*
X10513825Y-15781079D01*
X10809063Y-16019174D02*
X10799539Y-16009650D01*
X10799539Y-16009650D02*
X10780491Y-15981079D01*
X10780491Y-15981079D02*
X10770968Y-15962031D01*
X10770968Y-15962031D02*
X10761444Y-15933460D01*
X10761444Y-15933460D02*
X10751920Y-15885841D01*
X10751920Y-15885841D02*
X10751920Y-15847746D01*
X10751920Y-15847746D02*
X10761444Y-15800127D01*
X10761444Y-15800127D02*
X10770968Y-15771555D01*
X10770968Y-15771555D02*
X10780491Y-15752508D01*
X10780491Y-15752508D02*
X10799539Y-15723936D01*
X10799539Y-15723936D02*
X10809063Y-15714412D01*
X10894777Y-15942984D02*
X10932872Y-15942984D01*
X10932872Y-15942984D02*
X10951920Y-15933460D01*
X10951920Y-15933460D02*
X10961444Y-15923936D01*
X10961444Y-15923936D02*
X10980491Y-15895365D01*
X10980491Y-15895365D02*
X10990015Y-15857269D01*
X10990015Y-15857269D02*
X10990015Y-15781079D01*
X10990015Y-15781079D02*
X10980491Y-15762031D01*
X10980491Y-15762031D02*
X10970968Y-15752508D01*
X10970968Y-15752508D02*
X10951920Y-15742984D01*
X10951920Y-15742984D02*
X10913825Y-15742984D01*
X10913825Y-15742984D02*
X10894777Y-15752508D01*
X10894777Y-15752508D02*
X10885253Y-15762031D01*
X10885253Y-15762031D02*
X10875730Y-15781079D01*
X10875730Y-15781079D02*
X10875730Y-15828698D01*
X10875730Y-15828698D02*
X10885253Y-15847746D01*
X10885253Y-15847746D02*
X10894777Y-15857269D01*
X10894777Y-15857269D02*
X10913825Y-15866793D01*
X10913825Y-15866793D02*
X10951920Y-15866793D01*
X10951920Y-15866793D02*
X10970968Y-15857269D01*
X10970968Y-15857269D02*
X10980491Y-15847746D01*
X10980491Y-15847746D02*
X10990015Y-15828698D01*
X11161444Y-15809650D02*
X11161444Y-15942984D01*
X11113825Y-15733460D02*
X11066206Y-15876317D01*
X11066206Y-15876317D02*
X11190015Y-15876317D01*
X11418587Y-15942984D02*
X11418587Y-15742984D01*
X11504301Y-15942984D02*
X11504301Y-15838222D01*
X11504301Y-15838222D02*
X11494777Y-15819174D01*
X11494777Y-15819174D02*
X11475730Y-15809650D01*
X11475730Y-15809650D02*
X11447158Y-15809650D01*
X11447158Y-15809650D02*
X11428110Y-15819174D01*
X11428110Y-15819174D02*
X11418587Y-15828698D01*
X11628110Y-15942984D02*
X11609063Y-15933460D01*
X11609063Y-15933460D02*
X11599539Y-15923936D01*
X11599539Y-15923936D02*
X11590015Y-15904888D01*
X11590015Y-15904888D02*
X11590015Y-15847746D01*
X11590015Y-15847746D02*
X11599539Y-15828698D01*
X11599539Y-15828698D02*
X11609063Y-15819174D01*
X11609063Y-15819174D02*
X11628110Y-15809650D01*
X11628110Y-15809650D02*
X11656682Y-15809650D01*
X11656682Y-15809650D02*
X11675730Y-15819174D01*
X11675730Y-15819174D02*
X11685253Y-15828698D01*
X11685253Y-15828698D02*
X11694777Y-15847746D01*
X11694777Y-15847746D02*
X11694777Y-15904888D01*
X11694777Y-15904888D02*
X11685253Y-15923936D01*
X11685253Y-15923936D02*
X11675730Y-15933460D01*
X11675730Y-15933460D02*
X11656682Y-15942984D01*
X11656682Y-15942984D02*
X11628110Y-15942984D01*
X11809063Y-15942984D02*
X11790015Y-15933460D01*
X11790015Y-15933460D02*
X11780491Y-15914412D01*
X11780491Y-15914412D02*
X11780491Y-15742984D01*
X11961444Y-15933460D02*
X11942396Y-15942984D01*
X11942396Y-15942984D02*
X11904301Y-15942984D01*
X11904301Y-15942984D02*
X11885253Y-15933460D01*
X11885253Y-15933460D02*
X11875730Y-15914412D01*
X11875730Y-15914412D02*
X11875730Y-15838222D01*
X11875730Y-15838222D02*
X11885253Y-15819174D01*
X11885253Y-15819174D02*
X11904301Y-15809650D01*
X11904301Y-15809650D02*
X11942396Y-15809650D01*
X11942396Y-15809650D02*
X11961444Y-15819174D01*
X11961444Y-15819174D02*
X11970968Y-15838222D01*
X11970968Y-15838222D02*
X11970968Y-15857269D01*
X11970968Y-15857269D02*
X11875730Y-15876317D01*
X12047158Y-15933460D02*
X12066206Y-15942984D01*
X12066206Y-15942984D02*
X12104301Y-15942984D01*
X12104301Y-15942984D02*
X12123349Y-15933460D01*
X12123349Y-15933460D02*
X12132872Y-15914412D01*
X12132872Y-15914412D02*
X12132872Y-15904888D01*
X12132872Y-15904888D02*
X12123349Y-15885841D01*
X12123349Y-15885841D02*
X12104301Y-15876317D01*
X12104301Y-15876317D02*
X12075730Y-15876317D01*
X12075730Y-15876317D02*
X12056682Y-15866793D01*
X12056682Y-15866793D02*
X12047158Y-15847746D01*
X12047158Y-15847746D02*
X12047158Y-15838222D01*
X12047158Y-15838222D02*
X12056682Y-15819174D01*
X12056682Y-15819174D02*
X12075730Y-15809650D01*
X12075730Y-15809650D02*
X12104301Y-15809650D01*
X12104301Y-15809650D02*
X12123349Y-15819174D01*
X12199539Y-16019174D02*
X12209063Y-16009650D01*
X12209063Y-16009650D02*
X12228111Y-15981079D01*
X12228111Y-15981079D02*
X12237634Y-15962031D01*
X12237634Y-15962031D02*
X12247158Y-15933460D01*
X12247158Y-15933460D02*
X12256682Y-15885841D01*
X12256682Y-15885841D02*
X12256682Y-15847746D01*
X12256682Y-15847746D02*
X12247158Y-15800127D01*
X12247158Y-15800127D02*
X12237634Y-15771555D01*
X12237634Y-15771555D02*
X12228111Y-15752508D01*
X12228111Y-15752508D02*
X12209063Y-15723936D01*
X12209063Y-15723936D02*
X12199539Y-15714412D01*
D16*
X7189000Y-16160500D02*
X7234000Y-16115500D01*
X7189000Y-16070500D01*
X7144000Y-16115500D01*
X7189000Y-16160500D01*
D11*
X7532872Y-16006984D02*
X7551920Y-16006984D01*
X7551920Y-16006984D02*
X7570967Y-16016508D01*
X7570967Y-16016508D02*
X7580491Y-16026031D01*
X7580491Y-16026031D02*
X7590015Y-16045079D01*
X7590015Y-16045079D02*
X7599539Y-16083174D01*
X7599539Y-16083174D02*
X7599539Y-16130793D01*
X7599539Y-16130793D02*
X7590015Y-16168888D01*
X7590015Y-16168888D02*
X7580491Y-16187936D01*
X7580491Y-16187936D02*
X7570967Y-16197460D01*
X7570967Y-16197460D02*
X7551920Y-16206984D01*
X7551920Y-16206984D02*
X7532872Y-16206984D01*
X7532872Y-16206984D02*
X7513824Y-16197460D01*
X7513824Y-16197460D02*
X7504301Y-16187936D01*
X7504301Y-16187936D02*
X7494777Y-16168888D01*
X7494777Y-16168888D02*
X7485253Y-16130793D01*
X7485253Y-16130793D02*
X7485253Y-16083174D01*
X7485253Y-16083174D02*
X7494777Y-16045079D01*
X7494777Y-16045079D02*
X7504301Y-16026031D01*
X7504301Y-16026031D02*
X7513824Y-16016508D01*
X7513824Y-16016508D02*
X7532872Y-16006984D01*
X7685253Y-16187936D02*
X7694777Y-16197460D01*
X7694777Y-16197460D02*
X7685253Y-16206984D01*
X7685253Y-16206984D02*
X7675729Y-16197460D01*
X7675729Y-16197460D02*
X7685253Y-16187936D01*
X7685253Y-16187936D02*
X7685253Y-16206984D01*
X7790015Y-16206984D02*
X7828110Y-16206984D01*
X7828110Y-16206984D02*
X7847158Y-16197460D01*
X7847158Y-16197460D02*
X7856682Y-16187936D01*
X7856682Y-16187936D02*
X7875729Y-16159365D01*
X7875729Y-16159365D02*
X7885253Y-16121269D01*
X7885253Y-16121269D02*
X7885253Y-16045079D01*
X7885253Y-16045079D02*
X7875729Y-16026031D01*
X7875729Y-16026031D02*
X7866205Y-16016508D01*
X7866205Y-16016508D02*
X7847158Y-16006984D01*
X7847158Y-16006984D02*
X7809062Y-16006984D01*
X7809062Y-16006984D02*
X7790015Y-16016508D01*
X7790015Y-16016508D02*
X7780491Y-16026031D01*
X7780491Y-16026031D02*
X7770967Y-16045079D01*
X7770967Y-16045079D02*
X7770967Y-16092698D01*
X7770967Y-16092698D02*
X7780491Y-16111746D01*
X7780491Y-16111746D02*
X7790015Y-16121269D01*
X7790015Y-16121269D02*
X7809062Y-16130793D01*
X7809062Y-16130793D02*
X7847158Y-16130793D01*
X7847158Y-16130793D02*
X7866205Y-16121269D01*
X7866205Y-16121269D02*
X7875729Y-16111746D01*
X7875729Y-16111746D02*
X7885253Y-16092698D01*
X8009062Y-16006984D02*
X8028110Y-16006984D01*
X8028110Y-16006984D02*
X8047158Y-16016508D01*
X8047158Y-16016508D02*
X8056682Y-16026031D01*
X8056682Y-16026031D02*
X8066205Y-16045079D01*
X8066205Y-16045079D02*
X8075729Y-16083174D01*
X8075729Y-16083174D02*
X8075729Y-16130793D01*
X8075729Y-16130793D02*
X8066205Y-16168888D01*
X8066205Y-16168888D02*
X8056682Y-16187936D01*
X8056682Y-16187936D02*
X8047158Y-16197460D01*
X8047158Y-16197460D02*
X8028110Y-16206984D01*
X8028110Y-16206984D02*
X8009062Y-16206984D01*
X8009062Y-16206984D02*
X7990015Y-16197460D01*
X7990015Y-16197460D02*
X7980491Y-16187936D01*
X7980491Y-16187936D02*
X7970967Y-16168888D01*
X7970967Y-16168888D02*
X7961443Y-16130793D01*
X7961443Y-16130793D02*
X7961443Y-16083174D01*
X7961443Y-16083174D02*
X7970967Y-16045079D01*
X7970967Y-16045079D02*
X7980491Y-16026031D01*
X7980491Y-16026031D02*
X7990015Y-16016508D01*
X7990015Y-16016508D02*
X8009062Y-16006984D01*
X8199539Y-16006984D02*
X8218586Y-16006984D01*
X8218586Y-16006984D02*
X8237634Y-16016508D01*
X8237634Y-16016508D02*
X8247158Y-16026031D01*
X8247158Y-16026031D02*
X8256682Y-16045079D01*
X8256682Y-16045079D02*
X8266205Y-16083174D01*
X8266205Y-16083174D02*
X8266205Y-16130793D01*
X8266205Y-16130793D02*
X8256682Y-16168888D01*
X8256682Y-16168888D02*
X8247158Y-16187936D01*
X8247158Y-16187936D02*
X8237634Y-16197460D01*
X8237634Y-16197460D02*
X8218586Y-16206984D01*
X8218586Y-16206984D02*
X8199539Y-16206984D01*
X8199539Y-16206984D02*
X8180491Y-16197460D01*
X8180491Y-16197460D02*
X8170967Y-16187936D01*
X8170967Y-16187936D02*
X8161443Y-16168888D01*
X8161443Y-16168888D02*
X8151920Y-16130793D01*
X8151920Y-16130793D02*
X8151920Y-16083174D01*
X8151920Y-16083174D02*
X8161443Y-16045079D01*
X8161443Y-16045079D02*
X8170967Y-16026031D01*
X8170967Y-16026031D02*
X8180491Y-16016508D01*
X8180491Y-16016508D02*
X8199539Y-16006984D01*
X8351920Y-16206984D02*
X8351920Y-16073650D01*
X8351920Y-16092698D02*
X8361443Y-16083174D01*
X8361443Y-16083174D02*
X8380491Y-16073650D01*
X8380491Y-16073650D02*
X8409063Y-16073650D01*
X8409063Y-16073650D02*
X8428110Y-16083174D01*
X8428110Y-16083174D02*
X8437634Y-16102222D01*
X8437634Y-16102222D02*
X8437634Y-16206984D01*
X8437634Y-16102222D02*
X8447158Y-16083174D01*
X8447158Y-16083174D02*
X8466205Y-16073650D01*
X8466205Y-16073650D02*
X8494777Y-16073650D01*
X8494777Y-16073650D02*
X8513825Y-16083174D01*
X8513825Y-16083174D02*
X8523348Y-16102222D01*
X8523348Y-16102222D02*
X8523348Y-16206984D01*
X8618586Y-16206984D02*
X8618586Y-16073650D01*
X8618586Y-16092698D02*
X8628110Y-16083174D01*
X8628110Y-16083174D02*
X8647158Y-16073650D01*
X8647158Y-16073650D02*
X8675729Y-16073650D01*
X8675729Y-16073650D02*
X8694777Y-16083174D01*
X8694777Y-16083174D02*
X8704301Y-16102222D01*
X8704301Y-16102222D02*
X8704301Y-16206984D01*
X8704301Y-16102222D02*
X8713825Y-16083174D01*
X8713825Y-16083174D02*
X8732872Y-16073650D01*
X8732872Y-16073650D02*
X8761444Y-16073650D01*
X8761444Y-16073650D02*
X8780491Y-16083174D01*
X8780491Y-16083174D02*
X8790015Y-16102222D01*
X8790015Y-16102222D02*
X8790015Y-16206984D01*
X9180491Y-15997460D02*
X9009063Y-16254603D01*
X9437634Y-16006984D02*
X9456682Y-16006984D01*
X9456682Y-16006984D02*
X9475729Y-16016508D01*
X9475729Y-16016508D02*
X9485253Y-16026031D01*
X9485253Y-16026031D02*
X9494777Y-16045079D01*
X9494777Y-16045079D02*
X9504301Y-16083174D01*
X9504301Y-16083174D02*
X9504301Y-16130793D01*
X9504301Y-16130793D02*
X9494777Y-16168888D01*
X9494777Y-16168888D02*
X9485253Y-16187936D01*
X9485253Y-16187936D02*
X9475729Y-16197460D01*
X9475729Y-16197460D02*
X9456682Y-16206984D01*
X9456682Y-16206984D02*
X9437634Y-16206984D01*
X9437634Y-16206984D02*
X9418587Y-16197460D01*
X9418587Y-16197460D02*
X9409063Y-16187936D01*
X9409063Y-16187936D02*
X9399539Y-16168888D01*
X9399539Y-16168888D02*
X9390015Y-16130793D01*
X9390015Y-16130793D02*
X9390015Y-16083174D01*
X9390015Y-16083174D02*
X9399539Y-16045079D01*
X9399539Y-16045079D02*
X9409063Y-16026031D01*
X9409063Y-16026031D02*
X9418587Y-16016508D01*
X9418587Y-16016508D02*
X9437634Y-16006984D01*
X9590015Y-16187936D02*
X9599539Y-16197460D01*
X9599539Y-16197460D02*
X9590015Y-16206984D01*
X9590015Y-16206984D02*
X9580491Y-16197460D01*
X9580491Y-16197460D02*
X9590015Y-16187936D01*
X9590015Y-16187936D02*
X9590015Y-16206984D01*
X9723348Y-16006984D02*
X9742396Y-16006984D01*
X9742396Y-16006984D02*
X9761444Y-16016508D01*
X9761444Y-16016508D02*
X9770968Y-16026031D01*
X9770968Y-16026031D02*
X9780491Y-16045079D01*
X9780491Y-16045079D02*
X9790015Y-16083174D01*
X9790015Y-16083174D02*
X9790015Y-16130793D01*
X9790015Y-16130793D02*
X9780491Y-16168888D01*
X9780491Y-16168888D02*
X9770968Y-16187936D01*
X9770968Y-16187936D02*
X9761444Y-16197460D01*
X9761444Y-16197460D02*
X9742396Y-16206984D01*
X9742396Y-16206984D02*
X9723348Y-16206984D01*
X9723348Y-16206984D02*
X9704301Y-16197460D01*
X9704301Y-16197460D02*
X9694777Y-16187936D01*
X9694777Y-16187936D02*
X9685253Y-16168888D01*
X9685253Y-16168888D02*
X9675729Y-16130793D01*
X9675729Y-16130793D02*
X9675729Y-16083174D01*
X9675729Y-16083174D02*
X9685253Y-16045079D01*
X9685253Y-16045079D02*
X9694777Y-16026031D01*
X9694777Y-16026031D02*
X9704301Y-16016508D01*
X9704301Y-16016508D02*
X9723348Y-16006984D01*
X9856682Y-16006984D02*
X9980491Y-16006984D01*
X9980491Y-16006984D02*
X9913825Y-16083174D01*
X9913825Y-16083174D02*
X9942396Y-16083174D01*
X9942396Y-16083174D02*
X9961444Y-16092698D01*
X9961444Y-16092698D02*
X9970968Y-16102222D01*
X9970968Y-16102222D02*
X9980491Y-16121269D01*
X9980491Y-16121269D02*
X9980491Y-16168888D01*
X9980491Y-16168888D02*
X9970968Y-16187936D01*
X9970968Y-16187936D02*
X9961444Y-16197460D01*
X9961444Y-16197460D02*
X9942396Y-16206984D01*
X9942396Y-16206984D02*
X9885253Y-16206984D01*
X9885253Y-16206984D02*
X9866206Y-16197460D01*
X9866206Y-16197460D02*
X9856682Y-16187936D01*
X10161444Y-16006984D02*
X10066206Y-16006984D01*
X10066206Y-16006984D02*
X10056682Y-16102222D01*
X10056682Y-16102222D02*
X10066206Y-16092698D01*
X10066206Y-16092698D02*
X10085253Y-16083174D01*
X10085253Y-16083174D02*
X10132872Y-16083174D01*
X10132872Y-16083174D02*
X10151920Y-16092698D01*
X10151920Y-16092698D02*
X10161444Y-16102222D01*
X10161444Y-16102222D02*
X10170968Y-16121269D01*
X10170968Y-16121269D02*
X10170968Y-16168888D01*
X10170968Y-16168888D02*
X10161444Y-16187936D01*
X10161444Y-16187936D02*
X10151920Y-16197460D01*
X10151920Y-16197460D02*
X10132872Y-16206984D01*
X10132872Y-16206984D02*
X10085253Y-16206984D01*
X10085253Y-16206984D02*
X10066206Y-16197460D01*
X10066206Y-16197460D02*
X10056682Y-16187936D01*
X10342396Y-16073650D02*
X10342396Y-16206984D01*
X10294777Y-15997460D02*
X10247158Y-16140317D01*
X10247158Y-16140317D02*
X10370968Y-16140317D01*
X10437634Y-16006984D02*
X10437634Y-16045079D01*
X10513825Y-16006984D02*
X10513825Y-16045079D01*
X10809063Y-16283174D02*
X10799539Y-16273650D01*
X10799539Y-16273650D02*
X10780491Y-16245079D01*
X10780491Y-16245079D02*
X10770968Y-16226031D01*
X10770968Y-16226031D02*
X10761444Y-16197460D01*
X10761444Y-16197460D02*
X10751920Y-16149841D01*
X10751920Y-16149841D02*
X10751920Y-16111746D01*
X10751920Y-16111746D02*
X10761444Y-16064127D01*
X10761444Y-16064127D02*
X10770968Y-16035555D01*
X10770968Y-16035555D02*
X10780491Y-16016508D01*
X10780491Y-16016508D02*
X10799539Y-15987936D01*
X10799539Y-15987936D02*
X10809063Y-15978412D01*
X10875730Y-16026031D02*
X10885253Y-16016508D01*
X10885253Y-16016508D02*
X10904301Y-16006984D01*
X10904301Y-16006984D02*
X10951920Y-16006984D01*
X10951920Y-16006984D02*
X10970968Y-16016508D01*
X10970968Y-16016508D02*
X10980491Y-16026031D01*
X10980491Y-16026031D02*
X10990015Y-16045079D01*
X10990015Y-16045079D02*
X10990015Y-16064127D01*
X10990015Y-16064127D02*
X10980491Y-16092698D01*
X10980491Y-16092698D02*
X10866206Y-16206984D01*
X10866206Y-16206984D02*
X10990015Y-16206984D01*
X11066206Y-16026031D02*
X11075730Y-16016508D01*
X11075730Y-16016508D02*
X11094777Y-16006984D01*
X11094777Y-16006984D02*
X11142396Y-16006984D01*
X11142396Y-16006984D02*
X11161444Y-16016508D01*
X11161444Y-16016508D02*
X11170968Y-16026031D01*
X11170968Y-16026031D02*
X11180491Y-16045079D01*
X11180491Y-16045079D02*
X11180491Y-16064127D01*
X11180491Y-16064127D02*
X11170968Y-16092698D01*
X11170968Y-16092698D02*
X11056682Y-16206984D01*
X11056682Y-16206984D02*
X11180491Y-16206984D01*
X11418587Y-16206984D02*
X11418587Y-16006984D01*
X11504301Y-16206984D02*
X11504301Y-16102222D01*
X11504301Y-16102222D02*
X11494777Y-16083174D01*
X11494777Y-16083174D02*
X11475730Y-16073650D01*
X11475730Y-16073650D02*
X11447158Y-16073650D01*
X11447158Y-16073650D02*
X11428110Y-16083174D01*
X11428110Y-16083174D02*
X11418587Y-16092698D01*
X11628110Y-16206984D02*
X11609063Y-16197460D01*
X11609063Y-16197460D02*
X11599539Y-16187936D01*
X11599539Y-16187936D02*
X11590015Y-16168888D01*
X11590015Y-16168888D02*
X11590015Y-16111746D01*
X11590015Y-16111746D02*
X11599539Y-16092698D01*
X11599539Y-16092698D02*
X11609063Y-16083174D01*
X11609063Y-16083174D02*
X11628110Y-16073650D01*
X11628110Y-16073650D02*
X11656682Y-16073650D01*
X11656682Y-16073650D02*
X11675730Y-16083174D01*
X11675730Y-16083174D02*
X11685253Y-16092698D01*
X11685253Y-16092698D02*
X11694777Y-16111746D01*
X11694777Y-16111746D02*
X11694777Y-16168888D01*
X11694777Y-16168888D02*
X11685253Y-16187936D01*
X11685253Y-16187936D02*
X11675730Y-16197460D01*
X11675730Y-16197460D02*
X11656682Y-16206984D01*
X11656682Y-16206984D02*
X11628110Y-16206984D01*
X11809063Y-16206984D02*
X11790015Y-16197460D01*
X11790015Y-16197460D02*
X11780491Y-16178412D01*
X11780491Y-16178412D02*
X11780491Y-16006984D01*
X11961444Y-16197460D02*
X11942396Y-16206984D01*
X11942396Y-16206984D02*
X11904301Y-16206984D01*
X11904301Y-16206984D02*
X11885253Y-16197460D01*
X11885253Y-16197460D02*
X11875730Y-16178412D01*
X11875730Y-16178412D02*
X11875730Y-16102222D01*
X11875730Y-16102222D02*
X11885253Y-16083174D01*
X11885253Y-16083174D02*
X11904301Y-16073650D01*
X11904301Y-16073650D02*
X11942396Y-16073650D01*
X11942396Y-16073650D02*
X11961444Y-16083174D01*
X11961444Y-16083174D02*
X11970968Y-16102222D01*
X11970968Y-16102222D02*
X11970968Y-16121269D01*
X11970968Y-16121269D02*
X11875730Y-16140317D01*
X12047158Y-16197460D02*
X12066206Y-16206984D01*
X12066206Y-16206984D02*
X12104301Y-16206984D01*
X12104301Y-16206984D02*
X12123349Y-16197460D01*
X12123349Y-16197460D02*
X12132872Y-16178412D01*
X12132872Y-16178412D02*
X12132872Y-16168888D01*
X12132872Y-16168888D02*
X12123349Y-16149841D01*
X12123349Y-16149841D02*
X12104301Y-16140317D01*
X12104301Y-16140317D02*
X12075730Y-16140317D01*
X12075730Y-16140317D02*
X12056682Y-16130793D01*
X12056682Y-16130793D02*
X12047158Y-16111746D01*
X12047158Y-16111746D02*
X12047158Y-16102222D01*
X12047158Y-16102222D02*
X12056682Y-16083174D01*
X12056682Y-16083174D02*
X12075730Y-16073650D01*
X12075730Y-16073650D02*
X12104301Y-16073650D01*
X12104301Y-16073650D02*
X12123349Y-16083174D01*
X12199539Y-16283174D02*
X12209063Y-16273650D01*
X12209063Y-16273650D02*
X12228111Y-16245079D01*
X12228111Y-16245079D02*
X12237634Y-16226031D01*
X12237634Y-16226031D02*
X12247158Y-16197460D01*
X12247158Y-16197460D02*
X12256682Y-16149841D01*
X12256682Y-16149841D02*
X12256682Y-16111746D01*
X12256682Y-16111746D02*
X12247158Y-16064127D01*
X12247158Y-16064127D02*
X12237634Y-16035555D01*
X12237634Y-16035555D02*
X12228111Y-16016508D01*
X12228111Y-16016508D02*
X12209063Y-15987936D01*
X12209063Y-15987936D02*
X12199539Y-15978412D01*
D10*
X7134000Y-16329500D02*
X7234000Y-16429500D01*
X7234000Y-16329500D02*
X7134000Y-16429500D01*
X7234000Y-16379500D02*
G75*
G03*
X7234000Y-16379500I-50000J0D01*
G01*
D11*
X7599539Y-16470984D02*
X7485253Y-16470984D01*
X7542396Y-16470984D02*
X7542396Y-16270984D01*
X7542396Y-16270984D02*
X7523348Y-16299555D01*
X7523348Y-16299555D02*
X7504301Y-16318603D01*
X7504301Y-16318603D02*
X7485253Y-16328127D01*
X7685253Y-16451936D02*
X7694777Y-16461460D01*
X7694777Y-16461460D02*
X7685253Y-16470984D01*
X7685253Y-16470984D02*
X7675729Y-16461460D01*
X7675729Y-16461460D02*
X7685253Y-16451936D01*
X7685253Y-16451936D02*
X7685253Y-16470984D01*
X7818586Y-16270984D02*
X7837634Y-16270984D01*
X7837634Y-16270984D02*
X7856682Y-16280508D01*
X7856682Y-16280508D02*
X7866205Y-16290031D01*
X7866205Y-16290031D02*
X7875729Y-16309079D01*
X7875729Y-16309079D02*
X7885253Y-16347174D01*
X7885253Y-16347174D02*
X7885253Y-16394793D01*
X7885253Y-16394793D02*
X7875729Y-16432888D01*
X7875729Y-16432888D02*
X7866205Y-16451936D01*
X7866205Y-16451936D02*
X7856682Y-16461460D01*
X7856682Y-16461460D02*
X7837634Y-16470984D01*
X7837634Y-16470984D02*
X7818586Y-16470984D01*
X7818586Y-16470984D02*
X7799539Y-16461460D01*
X7799539Y-16461460D02*
X7790015Y-16451936D01*
X7790015Y-16451936D02*
X7780491Y-16432888D01*
X7780491Y-16432888D02*
X7770967Y-16394793D01*
X7770967Y-16394793D02*
X7770967Y-16347174D01*
X7770967Y-16347174D02*
X7780491Y-16309079D01*
X7780491Y-16309079D02*
X7790015Y-16290031D01*
X7790015Y-16290031D02*
X7799539Y-16280508D01*
X7799539Y-16280508D02*
X7818586Y-16270984D01*
X8009062Y-16270984D02*
X8028110Y-16270984D01*
X8028110Y-16270984D02*
X8047158Y-16280508D01*
X8047158Y-16280508D02*
X8056682Y-16290031D01*
X8056682Y-16290031D02*
X8066205Y-16309079D01*
X8066205Y-16309079D02*
X8075729Y-16347174D01*
X8075729Y-16347174D02*
X8075729Y-16394793D01*
X8075729Y-16394793D02*
X8066205Y-16432888D01*
X8066205Y-16432888D02*
X8056682Y-16451936D01*
X8056682Y-16451936D02*
X8047158Y-16461460D01*
X8047158Y-16461460D02*
X8028110Y-16470984D01*
X8028110Y-16470984D02*
X8009062Y-16470984D01*
X8009062Y-16470984D02*
X7990015Y-16461460D01*
X7990015Y-16461460D02*
X7980491Y-16451936D01*
X7980491Y-16451936D02*
X7970967Y-16432888D01*
X7970967Y-16432888D02*
X7961443Y-16394793D01*
X7961443Y-16394793D02*
X7961443Y-16347174D01*
X7961443Y-16347174D02*
X7970967Y-16309079D01*
X7970967Y-16309079D02*
X7980491Y-16290031D01*
X7980491Y-16290031D02*
X7990015Y-16280508D01*
X7990015Y-16280508D02*
X8009062Y-16270984D01*
X8199539Y-16270984D02*
X8218586Y-16270984D01*
X8218586Y-16270984D02*
X8237634Y-16280508D01*
X8237634Y-16280508D02*
X8247158Y-16290031D01*
X8247158Y-16290031D02*
X8256682Y-16309079D01*
X8256682Y-16309079D02*
X8266205Y-16347174D01*
X8266205Y-16347174D02*
X8266205Y-16394793D01*
X8266205Y-16394793D02*
X8256682Y-16432888D01*
X8256682Y-16432888D02*
X8247158Y-16451936D01*
X8247158Y-16451936D02*
X8237634Y-16461460D01*
X8237634Y-16461460D02*
X8218586Y-16470984D01*
X8218586Y-16470984D02*
X8199539Y-16470984D01*
X8199539Y-16470984D02*
X8180491Y-16461460D01*
X8180491Y-16461460D02*
X8170967Y-16451936D01*
X8170967Y-16451936D02*
X8161443Y-16432888D01*
X8161443Y-16432888D02*
X8151920Y-16394793D01*
X8151920Y-16394793D02*
X8151920Y-16347174D01*
X8151920Y-16347174D02*
X8161443Y-16309079D01*
X8161443Y-16309079D02*
X8170967Y-16290031D01*
X8170967Y-16290031D02*
X8180491Y-16280508D01*
X8180491Y-16280508D02*
X8199539Y-16270984D01*
X8351920Y-16470984D02*
X8351920Y-16337650D01*
X8351920Y-16356698D02*
X8361443Y-16347174D01*
X8361443Y-16347174D02*
X8380491Y-16337650D01*
X8380491Y-16337650D02*
X8409063Y-16337650D01*
X8409063Y-16337650D02*
X8428110Y-16347174D01*
X8428110Y-16347174D02*
X8437634Y-16366222D01*
X8437634Y-16366222D02*
X8437634Y-16470984D01*
X8437634Y-16366222D02*
X8447158Y-16347174D01*
X8447158Y-16347174D02*
X8466205Y-16337650D01*
X8466205Y-16337650D02*
X8494777Y-16337650D01*
X8494777Y-16337650D02*
X8513825Y-16347174D01*
X8513825Y-16347174D02*
X8523348Y-16366222D01*
X8523348Y-16366222D02*
X8523348Y-16470984D01*
X8618586Y-16470984D02*
X8618586Y-16337650D01*
X8618586Y-16356698D02*
X8628110Y-16347174D01*
X8628110Y-16347174D02*
X8647158Y-16337650D01*
X8647158Y-16337650D02*
X8675729Y-16337650D01*
X8675729Y-16337650D02*
X8694777Y-16347174D01*
X8694777Y-16347174D02*
X8704301Y-16366222D01*
X8704301Y-16366222D02*
X8704301Y-16470984D01*
X8704301Y-16366222D02*
X8713825Y-16347174D01*
X8713825Y-16347174D02*
X8732872Y-16337650D01*
X8732872Y-16337650D02*
X8761444Y-16337650D01*
X8761444Y-16337650D02*
X8780491Y-16347174D01*
X8780491Y-16347174D02*
X8790015Y-16366222D01*
X8790015Y-16366222D02*
X8790015Y-16470984D01*
X9180491Y-16261460D02*
X9009063Y-16518603D01*
X9437634Y-16270984D02*
X9456682Y-16270984D01*
X9456682Y-16270984D02*
X9475729Y-16280508D01*
X9475729Y-16280508D02*
X9485253Y-16290031D01*
X9485253Y-16290031D02*
X9494777Y-16309079D01*
X9494777Y-16309079D02*
X9504301Y-16347174D01*
X9504301Y-16347174D02*
X9504301Y-16394793D01*
X9504301Y-16394793D02*
X9494777Y-16432888D01*
X9494777Y-16432888D02*
X9485253Y-16451936D01*
X9485253Y-16451936D02*
X9475729Y-16461460D01*
X9475729Y-16461460D02*
X9456682Y-16470984D01*
X9456682Y-16470984D02*
X9437634Y-16470984D01*
X9437634Y-16470984D02*
X9418587Y-16461460D01*
X9418587Y-16461460D02*
X9409063Y-16451936D01*
X9409063Y-16451936D02*
X9399539Y-16432888D01*
X9399539Y-16432888D02*
X9390015Y-16394793D01*
X9390015Y-16394793D02*
X9390015Y-16347174D01*
X9390015Y-16347174D02*
X9399539Y-16309079D01*
X9399539Y-16309079D02*
X9409063Y-16290031D01*
X9409063Y-16290031D02*
X9418587Y-16280508D01*
X9418587Y-16280508D02*
X9437634Y-16270984D01*
X9590015Y-16451936D02*
X9599539Y-16461460D01*
X9599539Y-16461460D02*
X9590015Y-16470984D01*
X9590015Y-16470984D02*
X9580491Y-16461460D01*
X9580491Y-16461460D02*
X9590015Y-16451936D01*
X9590015Y-16451936D02*
X9590015Y-16470984D01*
X9723348Y-16270984D02*
X9742396Y-16270984D01*
X9742396Y-16270984D02*
X9761444Y-16280508D01*
X9761444Y-16280508D02*
X9770968Y-16290031D01*
X9770968Y-16290031D02*
X9780491Y-16309079D01*
X9780491Y-16309079D02*
X9790015Y-16347174D01*
X9790015Y-16347174D02*
X9790015Y-16394793D01*
X9790015Y-16394793D02*
X9780491Y-16432888D01*
X9780491Y-16432888D02*
X9770968Y-16451936D01*
X9770968Y-16451936D02*
X9761444Y-16461460D01*
X9761444Y-16461460D02*
X9742396Y-16470984D01*
X9742396Y-16470984D02*
X9723348Y-16470984D01*
X9723348Y-16470984D02*
X9704301Y-16461460D01*
X9704301Y-16461460D02*
X9694777Y-16451936D01*
X9694777Y-16451936D02*
X9685253Y-16432888D01*
X9685253Y-16432888D02*
X9675729Y-16394793D01*
X9675729Y-16394793D02*
X9675729Y-16347174D01*
X9675729Y-16347174D02*
X9685253Y-16309079D01*
X9685253Y-16309079D02*
X9694777Y-16290031D01*
X9694777Y-16290031D02*
X9704301Y-16280508D01*
X9704301Y-16280508D02*
X9723348Y-16270984D01*
X9856682Y-16270984D02*
X9980491Y-16270984D01*
X9980491Y-16270984D02*
X9913825Y-16347174D01*
X9913825Y-16347174D02*
X9942396Y-16347174D01*
X9942396Y-16347174D02*
X9961444Y-16356698D01*
X9961444Y-16356698D02*
X9970968Y-16366222D01*
X9970968Y-16366222D02*
X9980491Y-16385269D01*
X9980491Y-16385269D02*
X9980491Y-16432888D01*
X9980491Y-16432888D02*
X9970968Y-16451936D01*
X9970968Y-16451936D02*
X9961444Y-16461460D01*
X9961444Y-16461460D02*
X9942396Y-16470984D01*
X9942396Y-16470984D02*
X9885253Y-16470984D01*
X9885253Y-16470984D02*
X9866206Y-16461460D01*
X9866206Y-16461460D02*
X9856682Y-16451936D01*
X10075729Y-16470984D02*
X10113825Y-16470984D01*
X10113825Y-16470984D02*
X10132872Y-16461460D01*
X10132872Y-16461460D02*
X10142396Y-16451936D01*
X10142396Y-16451936D02*
X10161444Y-16423365D01*
X10161444Y-16423365D02*
X10170968Y-16385269D01*
X10170968Y-16385269D02*
X10170968Y-16309079D01*
X10170968Y-16309079D02*
X10161444Y-16290031D01*
X10161444Y-16290031D02*
X10151920Y-16280508D01*
X10151920Y-16280508D02*
X10132872Y-16270984D01*
X10132872Y-16270984D02*
X10094777Y-16270984D01*
X10094777Y-16270984D02*
X10075729Y-16280508D01*
X10075729Y-16280508D02*
X10066206Y-16290031D01*
X10066206Y-16290031D02*
X10056682Y-16309079D01*
X10056682Y-16309079D02*
X10056682Y-16356698D01*
X10056682Y-16356698D02*
X10066206Y-16375746D01*
X10066206Y-16375746D02*
X10075729Y-16385269D01*
X10075729Y-16385269D02*
X10094777Y-16394793D01*
X10094777Y-16394793D02*
X10132872Y-16394793D01*
X10132872Y-16394793D02*
X10151920Y-16385269D01*
X10151920Y-16385269D02*
X10161444Y-16375746D01*
X10161444Y-16375746D02*
X10170968Y-16356698D01*
X10342396Y-16337650D02*
X10342396Y-16470984D01*
X10294777Y-16261460D02*
X10247158Y-16404317D01*
X10247158Y-16404317D02*
X10370968Y-16404317D01*
X10437634Y-16270984D02*
X10437634Y-16309079D01*
X10513825Y-16270984D02*
X10513825Y-16309079D01*
X10809063Y-16547174D02*
X10799539Y-16537650D01*
X10799539Y-16537650D02*
X10780491Y-16509079D01*
X10780491Y-16509079D02*
X10770968Y-16490031D01*
X10770968Y-16490031D02*
X10761444Y-16461460D01*
X10761444Y-16461460D02*
X10751920Y-16413841D01*
X10751920Y-16413841D02*
X10751920Y-16375746D01*
X10751920Y-16375746D02*
X10761444Y-16328127D01*
X10761444Y-16328127D02*
X10770968Y-16299555D01*
X10770968Y-16299555D02*
X10780491Y-16280508D01*
X10780491Y-16280508D02*
X10799539Y-16251936D01*
X10799539Y-16251936D02*
X10809063Y-16242412D01*
X10875730Y-16290031D02*
X10885253Y-16280508D01*
X10885253Y-16280508D02*
X10904301Y-16270984D01*
X10904301Y-16270984D02*
X10951920Y-16270984D01*
X10951920Y-16270984D02*
X10970968Y-16280508D01*
X10970968Y-16280508D02*
X10980491Y-16290031D01*
X10980491Y-16290031D02*
X10990015Y-16309079D01*
X10990015Y-16309079D02*
X10990015Y-16328127D01*
X10990015Y-16328127D02*
X10980491Y-16356698D01*
X10980491Y-16356698D02*
X10866206Y-16470984D01*
X10866206Y-16470984D02*
X10990015Y-16470984D01*
X11113825Y-16270984D02*
X11132872Y-16270984D01*
X11132872Y-16270984D02*
X11151920Y-16280508D01*
X11151920Y-16280508D02*
X11161444Y-16290031D01*
X11161444Y-16290031D02*
X11170968Y-16309079D01*
X11170968Y-16309079D02*
X11180491Y-16347174D01*
X11180491Y-16347174D02*
X11180491Y-16394793D01*
X11180491Y-16394793D02*
X11170968Y-16432888D01*
X11170968Y-16432888D02*
X11161444Y-16451936D01*
X11161444Y-16451936D02*
X11151920Y-16461460D01*
X11151920Y-16461460D02*
X11132872Y-16470984D01*
X11132872Y-16470984D02*
X11113825Y-16470984D01*
X11113825Y-16470984D02*
X11094777Y-16461460D01*
X11094777Y-16461460D02*
X11085253Y-16451936D01*
X11085253Y-16451936D02*
X11075730Y-16432888D01*
X11075730Y-16432888D02*
X11066206Y-16394793D01*
X11066206Y-16394793D02*
X11066206Y-16347174D01*
X11066206Y-16347174D02*
X11075730Y-16309079D01*
X11075730Y-16309079D02*
X11085253Y-16290031D01*
X11085253Y-16290031D02*
X11094777Y-16280508D01*
X11094777Y-16280508D02*
X11113825Y-16270984D01*
X11418587Y-16470984D02*
X11418587Y-16270984D01*
X11504301Y-16470984D02*
X11504301Y-16366222D01*
X11504301Y-16366222D02*
X11494777Y-16347174D01*
X11494777Y-16347174D02*
X11475730Y-16337650D01*
X11475730Y-16337650D02*
X11447158Y-16337650D01*
X11447158Y-16337650D02*
X11428110Y-16347174D01*
X11428110Y-16347174D02*
X11418587Y-16356698D01*
X11628110Y-16470984D02*
X11609063Y-16461460D01*
X11609063Y-16461460D02*
X11599539Y-16451936D01*
X11599539Y-16451936D02*
X11590015Y-16432888D01*
X11590015Y-16432888D02*
X11590015Y-16375746D01*
X11590015Y-16375746D02*
X11599539Y-16356698D01*
X11599539Y-16356698D02*
X11609063Y-16347174D01*
X11609063Y-16347174D02*
X11628110Y-16337650D01*
X11628110Y-16337650D02*
X11656682Y-16337650D01*
X11656682Y-16337650D02*
X11675730Y-16347174D01*
X11675730Y-16347174D02*
X11685253Y-16356698D01*
X11685253Y-16356698D02*
X11694777Y-16375746D01*
X11694777Y-16375746D02*
X11694777Y-16432888D01*
X11694777Y-16432888D02*
X11685253Y-16451936D01*
X11685253Y-16451936D02*
X11675730Y-16461460D01*
X11675730Y-16461460D02*
X11656682Y-16470984D01*
X11656682Y-16470984D02*
X11628110Y-16470984D01*
X11809063Y-16470984D02*
X11790015Y-16461460D01*
X11790015Y-16461460D02*
X11780491Y-16442412D01*
X11780491Y-16442412D02*
X11780491Y-16270984D01*
X11961444Y-16461460D02*
X11942396Y-16470984D01*
X11942396Y-16470984D02*
X11904301Y-16470984D01*
X11904301Y-16470984D02*
X11885253Y-16461460D01*
X11885253Y-16461460D02*
X11875730Y-16442412D01*
X11875730Y-16442412D02*
X11875730Y-16366222D01*
X11875730Y-16366222D02*
X11885253Y-16347174D01*
X11885253Y-16347174D02*
X11904301Y-16337650D01*
X11904301Y-16337650D02*
X11942396Y-16337650D01*
X11942396Y-16337650D02*
X11961444Y-16347174D01*
X11961444Y-16347174D02*
X11970968Y-16366222D01*
X11970968Y-16366222D02*
X11970968Y-16385269D01*
X11970968Y-16385269D02*
X11875730Y-16404317D01*
X12047158Y-16461460D02*
X12066206Y-16470984D01*
X12066206Y-16470984D02*
X12104301Y-16470984D01*
X12104301Y-16470984D02*
X12123349Y-16461460D01*
X12123349Y-16461460D02*
X12132872Y-16442412D01*
X12132872Y-16442412D02*
X12132872Y-16432888D01*
X12132872Y-16432888D02*
X12123349Y-16413841D01*
X12123349Y-16413841D02*
X12104301Y-16404317D01*
X12104301Y-16404317D02*
X12075730Y-16404317D01*
X12075730Y-16404317D02*
X12056682Y-16394793D01*
X12056682Y-16394793D02*
X12047158Y-16375746D01*
X12047158Y-16375746D02*
X12047158Y-16366222D01*
X12047158Y-16366222D02*
X12056682Y-16347174D01*
X12056682Y-16347174D02*
X12075730Y-16337650D01*
X12075730Y-16337650D02*
X12104301Y-16337650D01*
X12104301Y-16337650D02*
X12123349Y-16347174D01*
X12199539Y-16547174D02*
X12209063Y-16537650D01*
X12209063Y-16537650D02*
X12228111Y-16509079D01*
X12228111Y-16509079D02*
X12237634Y-16490031D01*
X12237634Y-16490031D02*
X12247158Y-16461460D01*
X12247158Y-16461460D02*
X12256682Y-16413841D01*
X12256682Y-16413841D02*
X12256682Y-16375746D01*
X12256682Y-16375746D02*
X12247158Y-16328127D01*
X12247158Y-16328127D02*
X12237634Y-16299555D01*
X12237634Y-16299555D02*
X12228111Y-16280508D01*
X12228111Y-16280508D02*
X12209063Y-16251936D01*
X12209063Y-16251936D02*
X12199539Y-16242412D01*
D17*
X7124000Y-16588500D02*
X7234000Y-16698500D01*
X7234000Y-16588500D02*
X7124000Y-16698500D01*
X7179000Y-16588500D02*
X7179000Y-16698500D01*
X7124000Y-16643500D02*
X7234000Y-16643500D01*
D11*
X7599539Y-16734984D02*
X7485253Y-16734984D01*
X7542396Y-16734984D02*
X7542396Y-16534984D01*
X7542396Y-16534984D02*
X7523348Y-16563555D01*
X7523348Y-16563555D02*
X7504301Y-16582603D01*
X7504301Y-16582603D02*
X7485253Y-16592127D01*
X7685253Y-16715936D02*
X7694777Y-16725460D01*
X7694777Y-16725460D02*
X7685253Y-16734984D01*
X7685253Y-16734984D02*
X7675729Y-16725460D01*
X7675729Y-16725460D02*
X7685253Y-16715936D01*
X7685253Y-16715936D02*
X7685253Y-16734984D01*
X7885253Y-16734984D02*
X7770967Y-16734984D01*
X7828110Y-16734984D02*
X7828110Y-16534984D01*
X7828110Y-16534984D02*
X7809062Y-16563555D01*
X7809062Y-16563555D02*
X7790015Y-16582603D01*
X7790015Y-16582603D02*
X7770967Y-16592127D01*
X8009062Y-16534984D02*
X8028110Y-16534984D01*
X8028110Y-16534984D02*
X8047158Y-16544508D01*
X8047158Y-16544508D02*
X8056682Y-16554031D01*
X8056682Y-16554031D02*
X8066205Y-16573079D01*
X8066205Y-16573079D02*
X8075729Y-16611174D01*
X8075729Y-16611174D02*
X8075729Y-16658793D01*
X8075729Y-16658793D02*
X8066205Y-16696888D01*
X8066205Y-16696888D02*
X8056682Y-16715936D01*
X8056682Y-16715936D02*
X8047158Y-16725460D01*
X8047158Y-16725460D02*
X8028110Y-16734984D01*
X8028110Y-16734984D02*
X8009062Y-16734984D01*
X8009062Y-16734984D02*
X7990015Y-16725460D01*
X7990015Y-16725460D02*
X7980491Y-16715936D01*
X7980491Y-16715936D02*
X7970967Y-16696888D01*
X7970967Y-16696888D02*
X7961443Y-16658793D01*
X7961443Y-16658793D02*
X7961443Y-16611174D01*
X7961443Y-16611174D02*
X7970967Y-16573079D01*
X7970967Y-16573079D02*
X7980491Y-16554031D01*
X7980491Y-16554031D02*
X7990015Y-16544508D01*
X7990015Y-16544508D02*
X8009062Y-16534984D01*
X8199539Y-16534984D02*
X8218586Y-16534984D01*
X8218586Y-16534984D02*
X8237634Y-16544508D01*
X8237634Y-16544508D02*
X8247158Y-16554031D01*
X8247158Y-16554031D02*
X8256682Y-16573079D01*
X8256682Y-16573079D02*
X8266205Y-16611174D01*
X8266205Y-16611174D02*
X8266205Y-16658793D01*
X8266205Y-16658793D02*
X8256682Y-16696888D01*
X8256682Y-16696888D02*
X8247158Y-16715936D01*
X8247158Y-16715936D02*
X8237634Y-16725460D01*
X8237634Y-16725460D02*
X8218586Y-16734984D01*
X8218586Y-16734984D02*
X8199539Y-16734984D01*
X8199539Y-16734984D02*
X8180491Y-16725460D01*
X8180491Y-16725460D02*
X8170967Y-16715936D01*
X8170967Y-16715936D02*
X8161443Y-16696888D01*
X8161443Y-16696888D02*
X8151920Y-16658793D01*
X8151920Y-16658793D02*
X8151920Y-16611174D01*
X8151920Y-16611174D02*
X8161443Y-16573079D01*
X8161443Y-16573079D02*
X8170967Y-16554031D01*
X8170967Y-16554031D02*
X8180491Y-16544508D01*
X8180491Y-16544508D02*
X8199539Y-16534984D01*
X8351920Y-16734984D02*
X8351920Y-16601650D01*
X8351920Y-16620698D02*
X8361443Y-16611174D01*
X8361443Y-16611174D02*
X8380491Y-16601650D01*
X8380491Y-16601650D02*
X8409063Y-16601650D01*
X8409063Y-16601650D02*
X8428110Y-16611174D01*
X8428110Y-16611174D02*
X8437634Y-16630222D01*
X8437634Y-16630222D02*
X8437634Y-16734984D01*
X8437634Y-16630222D02*
X8447158Y-16611174D01*
X8447158Y-16611174D02*
X8466205Y-16601650D01*
X8466205Y-16601650D02*
X8494777Y-16601650D01*
X8494777Y-16601650D02*
X8513825Y-16611174D01*
X8513825Y-16611174D02*
X8523348Y-16630222D01*
X8523348Y-16630222D02*
X8523348Y-16734984D01*
X8618586Y-16734984D02*
X8618586Y-16601650D01*
X8618586Y-16620698D02*
X8628110Y-16611174D01*
X8628110Y-16611174D02*
X8647158Y-16601650D01*
X8647158Y-16601650D02*
X8675729Y-16601650D01*
X8675729Y-16601650D02*
X8694777Y-16611174D01*
X8694777Y-16611174D02*
X8704301Y-16630222D01*
X8704301Y-16630222D02*
X8704301Y-16734984D01*
X8704301Y-16630222D02*
X8713825Y-16611174D01*
X8713825Y-16611174D02*
X8732872Y-16601650D01*
X8732872Y-16601650D02*
X8761444Y-16601650D01*
X8761444Y-16601650D02*
X8780491Y-16611174D01*
X8780491Y-16611174D02*
X8790015Y-16630222D01*
X8790015Y-16630222D02*
X8790015Y-16734984D01*
X9180491Y-16525460D02*
X9009063Y-16782603D01*
X9437634Y-16534984D02*
X9456682Y-16534984D01*
X9456682Y-16534984D02*
X9475729Y-16544508D01*
X9475729Y-16544508D02*
X9485253Y-16554031D01*
X9485253Y-16554031D02*
X9494777Y-16573079D01*
X9494777Y-16573079D02*
X9504301Y-16611174D01*
X9504301Y-16611174D02*
X9504301Y-16658793D01*
X9504301Y-16658793D02*
X9494777Y-16696888D01*
X9494777Y-16696888D02*
X9485253Y-16715936D01*
X9485253Y-16715936D02*
X9475729Y-16725460D01*
X9475729Y-16725460D02*
X9456682Y-16734984D01*
X9456682Y-16734984D02*
X9437634Y-16734984D01*
X9437634Y-16734984D02*
X9418587Y-16725460D01*
X9418587Y-16725460D02*
X9409063Y-16715936D01*
X9409063Y-16715936D02*
X9399539Y-16696888D01*
X9399539Y-16696888D02*
X9390015Y-16658793D01*
X9390015Y-16658793D02*
X9390015Y-16611174D01*
X9390015Y-16611174D02*
X9399539Y-16573079D01*
X9399539Y-16573079D02*
X9409063Y-16554031D01*
X9409063Y-16554031D02*
X9418587Y-16544508D01*
X9418587Y-16544508D02*
X9437634Y-16534984D01*
X9590015Y-16715936D02*
X9599539Y-16725460D01*
X9599539Y-16725460D02*
X9590015Y-16734984D01*
X9590015Y-16734984D02*
X9580491Y-16725460D01*
X9580491Y-16725460D02*
X9590015Y-16715936D01*
X9590015Y-16715936D02*
X9590015Y-16734984D01*
X9723348Y-16534984D02*
X9742396Y-16534984D01*
X9742396Y-16534984D02*
X9761444Y-16544508D01*
X9761444Y-16544508D02*
X9770968Y-16554031D01*
X9770968Y-16554031D02*
X9780491Y-16573079D01*
X9780491Y-16573079D02*
X9790015Y-16611174D01*
X9790015Y-16611174D02*
X9790015Y-16658793D01*
X9790015Y-16658793D02*
X9780491Y-16696888D01*
X9780491Y-16696888D02*
X9770968Y-16715936D01*
X9770968Y-16715936D02*
X9761444Y-16725460D01*
X9761444Y-16725460D02*
X9742396Y-16734984D01*
X9742396Y-16734984D02*
X9723348Y-16734984D01*
X9723348Y-16734984D02*
X9704301Y-16725460D01*
X9704301Y-16725460D02*
X9694777Y-16715936D01*
X9694777Y-16715936D02*
X9685253Y-16696888D01*
X9685253Y-16696888D02*
X9675729Y-16658793D01*
X9675729Y-16658793D02*
X9675729Y-16611174D01*
X9675729Y-16611174D02*
X9685253Y-16573079D01*
X9685253Y-16573079D02*
X9694777Y-16554031D01*
X9694777Y-16554031D02*
X9704301Y-16544508D01*
X9704301Y-16544508D02*
X9723348Y-16534984D01*
X9961444Y-16601650D02*
X9961444Y-16734984D01*
X9913825Y-16525460D02*
X9866206Y-16668317D01*
X9866206Y-16668317D02*
X9990015Y-16668317D01*
X10047158Y-16534984D02*
X10170968Y-16534984D01*
X10170968Y-16534984D02*
X10104301Y-16611174D01*
X10104301Y-16611174D02*
X10132872Y-16611174D01*
X10132872Y-16611174D02*
X10151920Y-16620698D01*
X10151920Y-16620698D02*
X10161444Y-16630222D01*
X10161444Y-16630222D02*
X10170968Y-16649269D01*
X10170968Y-16649269D02*
X10170968Y-16696888D01*
X10170968Y-16696888D02*
X10161444Y-16715936D01*
X10161444Y-16715936D02*
X10151920Y-16725460D01*
X10151920Y-16725460D02*
X10132872Y-16734984D01*
X10132872Y-16734984D02*
X10075729Y-16734984D01*
X10075729Y-16734984D02*
X10056682Y-16725460D01*
X10056682Y-16725460D02*
X10047158Y-16715936D01*
X10237634Y-16534984D02*
X10361444Y-16534984D01*
X10361444Y-16534984D02*
X10294777Y-16611174D01*
X10294777Y-16611174D02*
X10323349Y-16611174D01*
X10323349Y-16611174D02*
X10342396Y-16620698D01*
X10342396Y-16620698D02*
X10351920Y-16630222D01*
X10351920Y-16630222D02*
X10361444Y-16649269D01*
X10361444Y-16649269D02*
X10361444Y-16696888D01*
X10361444Y-16696888D02*
X10351920Y-16715936D01*
X10351920Y-16715936D02*
X10342396Y-16725460D01*
X10342396Y-16725460D02*
X10323349Y-16734984D01*
X10323349Y-16734984D02*
X10266206Y-16734984D01*
X10266206Y-16734984D02*
X10247158Y-16725460D01*
X10247158Y-16725460D02*
X10237634Y-16715936D01*
X10437634Y-16534984D02*
X10437634Y-16573079D01*
X10513825Y-16534984D02*
X10513825Y-16573079D01*
X10809063Y-16811174D02*
X10799539Y-16801650D01*
X10799539Y-16801650D02*
X10780491Y-16773079D01*
X10780491Y-16773079D02*
X10770968Y-16754031D01*
X10770968Y-16754031D02*
X10761444Y-16725460D01*
X10761444Y-16725460D02*
X10751920Y-16677841D01*
X10751920Y-16677841D02*
X10751920Y-16639746D01*
X10751920Y-16639746D02*
X10761444Y-16592127D01*
X10761444Y-16592127D02*
X10770968Y-16563555D01*
X10770968Y-16563555D02*
X10780491Y-16544508D01*
X10780491Y-16544508D02*
X10799539Y-16515936D01*
X10799539Y-16515936D02*
X10809063Y-16506412D01*
X10875730Y-16554031D02*
X10885253Y-16544508D01*
X10885253Y-16544508D02*
X10904301Y-16534984D01*
X10904301Y-16534984D02*
X10951920Y-16534984D01*
X10951920Y-16534984D02*
X10970968Y-16544508D01*
X10970968Y-16544508D02*
X10980491Y-16554031D01*
X10980491Y-16554031D02*
X10990015Y-16573079D01*
X10990015Y-16573079D02*
X10990015Y-16592127D01*
X10990015Y-16592127D02*
X10980491Y-16620698D01*
X10980491Y-16620698D02*
X10866206Y-16734984D01*
X10866206Y-16734984D02*
X10990015Y-16734984D01*
X11056682Y-16534984D02*
X11190015Y-16534984D01*
X11190015Y-16534984D02*
X11104301Y-16734984D01*
X11418587Y-16734984D02*
X11418587Y-16534984D01*
X11504301Y-16734984D02*
X11504301Y-16630222D01*
X11504301Y-16630222D02*
X11494777Y-16611174D01*
X11494777Y-16611174D02*
X11475730Y-16601650D01*
X11475730Y-16601650D02*
X11447158Y-16601650D01*
X11447158Y-16601650D02*
X11428110Y-16611174D01*
X11428110Y-16611174D02*
X11418587Y-16620698D01*
X11628110Y-16734984D02*
X11609063Y-16725460D01*
X11609063Y-16725460D02*
X11599539Y-16715936D01*
X11599539Y-16715936D02*
X11590015Y-16696888D01*
X11590015Y-16696888D02*
X11590015Y-16639746D01*
X11590015Y-16639746D02*
X11599539Y-16620698D01*
X11599539Y-16620698D02*
X11609063Y-16611174D01*
X11609063Y-16611174D02*
X11628110Y-16601650D01*
X11628110Y-16601650D02*
X11656682Y-16601650D01*
X11656682Y-16601650D02*
X11675730Y-16611174D01*
X11675730Y-16611174D02*
X11685253Y-16620698D01*
X11685253Y-16620698D02*
X11694777Y-16639746D01*
X11694777Y-16639746D02*
X11694777Y-16696888D01*
X11694777Y-16696888D02*
X11685253Y-16715936D01*
X11685253Y-16715936D02*
X11675730Y-16725460D01*
X11675730Y-16725460D02*
X11656682Y-16734984D01*
X11656682Y-16734984D02*
X11628110Y-16734984D01*
X11809063Y-16734984D02*
X11790015Y-16725460D01*
X11790015Y-16725460D02*
X11780491Y-16706412D01*
X11780491Y-16706412D02*
X11780491Y-16534984D01*
X11961444Y-16725460D02*
X11942396Y-16734984D01*
X11942396Y-16734984D02*
X11904301Y-16734984D01*
X11904301Y-16734984D02*
X11885253Y-16725460D01*
X11885253Y-16725460D02*
X11875730Y-16706412D01*
X11875730Y-16706412D02*
X11875730Y-16630222D01*
X11875730Y-16630222D02*
X11885253Y-16611174D01*
X11885253Y-16611174D02*
X11904301Y-16601650D01*
X11904301Y-16601650D02*
X11942396Y-16601650D01*
X11942396Y-16601650D02*
X11961444Y-16611174D01*
X11961444Y-16611174D02*
X11970968Y-16630222D01*
X11970968Y-16630222D02*
X11970968Y-16649269D01*
X11970968Y-16649269D02*
X11875730Y-16668317D01*
X12047158Y-16725460D02*
X12066206Y-16734984D01*
X12066206Y-16734984D02*
X12104301Y-16734984D01*
X12104301Y-16734984D02*
X12123349Y-16725460D01*
X12123349Y-16725460D02*
X12132872Y-16706412D01*
X12132872Y-16706412D02*
X12132872Y-16696888D01*
X12132872Y-16696888D02*
X12123349Y-16677841D01*
X12123349Y-16677841D02*
X12104301Y-16668317D01*
X12104301Y-16668317D02*
X12075730Y-16668317D01*
X12075730Y-16668317D02*
X12056682Y-16658793D01*
X12056682Y-16658793D02*
X12047158Y-16639746D01*
X12047158Y-16639746D02*
X12047158Y-16630222D01*
X12047158Y-16630222D02*
X12056682Y-16611174D01*
X12056682Y-16611174D02*
X12075730Y-16601650D01*
X12075730Y-16601650D02*
X12104301Y-16601650D01*
X12104301Y-16601650D02*
X12123349Y-16611174D01*
X12199539Y-16811174D02*
X12209063Y-16801650D01*
X12209063Y-16801650D02*
X12228111Y-16773079D01*
X12228111Y-16773079D02*
X12237634Y-16754031D01*
X12237634Y-16754031D02*
X12247158Y-16725460D01*
X12247158Y-16725460D02*
X12256682Y-16677841D01*
X12256682Y-16677841D02*
X12256682Y-16639746D01*
X12256682Y-16639746D02*
X12247158Y-16592127D01*
X12247158Y-16592127D02*
X12237634Y-16563555D01*
X12237634Y-16563555D02*
X12228111Y-16544508D01*
X12228111Y-16544508D02*
X12209063Y-16515936D01*
X12209063Y-16515936D02*
X12199539Y-16506412D01*
D18*
X7104000Y-16842500D02*
X7234000Y-16972500D01*
X7234000Y-16842500D02*
X7104000Y-16972500D01*
X7214962Y-16953462D02*
X7214962Y-16861538D01*
X7123038Y-16861538D01*
X7123038Y-16953462D01*
X7214962Y-16953462D01*
D11*
X7599539Y-16998984D02*
X7485253Y-16998984D01*
X7542396Y-16998984D02*
X7542396Y-16798984D01*
X7542396Y-16798984D02*
X7523348Y-16827555D01*
X7523348Y-16827555D02*
X7504301Y-16846603D01*
X7504301Y-16846603D02*
X7485253Y-16856127D01*
X7685253Y-16979936D02*
X7694777Y-16989460D01*
X7694777Y-16989460D02*
X7685253Y-16998984D01*
X7685253Y-16998984D02*
X7675729Y-16989460D01*
X7675729Y-16989460D02*
X7685253Y-16979936D01*
X7685253Y-16979936D02*
X7685253Y-16998984D01*
X7761443Y-16798984D02*
X7885253Y-16798984D01*
X7885253Y-16798984D02*
X7818586Y-16875174D01*
X7818586Y-16875174D02*
X7847158Y-16875174D01*
X7847158Y-16875174D02*
X7866205Y-16884698D01*
X7866205Y-16884698D02*
X7875729Y-16894222D01*
X7875729Y-16894222D02*
X7885253Y-16913270D01*
X7885253Y-16913270D02*
X7885253Y-16960889D01*
X7885253Y-16960889D02*
X7875729Y-16979936D01*
X7875729Y-16979936D02*
X7866205Y-16989460D01*
X7866205Y-16989460D02*
X7847158Y-16998984D01*
X7847158Y-16998984D02*
X7790015Y-16998984D01*
X7790015Y-16998984D02*
X7770967Y-16989460D01*
X7770967Y-16989460D02*
X7761443Y-16979936D01*
X8009062Y-16798984D02*
X8028110Y-16798984D01*
X8028110Y-16798984D02*
X8047158Y-16808508D01*
X8047158Y-16808508D02*
X8056682Y-16818031D01*
X8056682Y-16818031D02*
X8066205Y-16837079D01*
X8066205Y-16837079D02*
X8075729Y-16875174D01*
X8075729Y-16875174D02*
X8075729Y-16922793D01*
X8075729Y-16922793D02*
X8066205Y-16960889D01*
X8066205Y-16960889D02*
X8056682Y-16979936D01*
X8056682Y-16979936D02*
X8047158Y-16989460D01*
X8047158Y-16989460D02*
X8028110Y-16998984D01*
X8028110Y-16998984D02*
X8009062Y-16998984D01*
X8009062Y-16998984D02*
X7990015Y-16989460D01*
X7990015Y-16989460D02*
X7980491Y-16979936D01*
X7980491Y-16979936D02*
X7970967Y-16960889D01*
X7970967Y-16960889D02*
X7961443Y-16922793D01*
X7961443Y-16922793D02*
X7961443Y-16875174D01*
X7961443Y-16875174D02*
X7970967Y-16837079D01*
X7970967Y-16837079D02*
X7980491Y-16818031D01*
X7980491Y-16818031D02*
X7990015Y-16808508D01*
X7990015Y-16808508D02*
X8009062Y-16798984D01*
X8199539Y-16798984D02*
X8218586Y-16798984D01*
X8218586Y-16798984D02*
X8237634Y-16808508D01*
X8237634Y-16808508D02*
X8247158Y-16818031D01*
X8247158Y-16818031D02*
X8256682Y-16837079D01*
X8256682Y-16837079D02*
X8266205Y-16875174D01*
X8266205Y-16875174D02*
X8266205Y-16922793D01*
X8266205Y-16922793D02*
X8256682Y-16960889D01*
X8256682Y-16960889D02*
X8247158Y-16979936D01*
X8247158Y-16979936D02*
X8237634Y-16989460D01*
X8237634Y-16989460D02*
X8218586Y-16998984D01*
X8218586Y-16998984D02*
X8199539Y-16998984D01*
X8199539Y-16998984D02*
X8180491Y-16989460D01*
X8180491Y-16989460D02*
X8170967Y-16979936D01*
X8170967Y-16979936D02*
X8161443Y-16960889D01*
X8161443Y-16960889D02*
X8151920Y-16922793D01*
X8151920Y-16922793D02*
X8151920Y-16875174D01*
X8151920Y-16875174D02*
X8161443Y-16837079D01*
X8161443Y-16837079D02*
X8170967Y-16818031D01*
X8170967Y-16818031D02*
X8180491Y-16808508D01*
X8180491Y-16808508D02*
X8199539Y-16798984D01*
X8351920Y-16998984D02*
X8351920Y-16865650D01*
X8351920Y-16884698D02*
X8361443Y-16875174D01*
X8361443Y-16875174D02*
X8380491Y-16865650D01*
X8380491Y-16865650D02*
X8409063Y-16865650D01*
X8409063Y-16865650D02*
X8428110Y-16875174D01*
X8428110Y-16875174D02*
X8437634Y-16894222D01*
X8437634Y-16894222D02*
X8437634Y-16998984D01*
X8437634Y-16894222D02*
X8447158Y-16875174D01*
X8447158Y-16875174D02*
X8466205Y-16865650D01*
X8466205Y-16865650D02*
X8494777Y-16865650D01*
X8494777Y-16865650D02*
X8513825Y-16875174D01*
X8513825Y-16875174D02*
X8523348Y-16894222D01*
X8523348Y-16894222D02*
X8523348Y-16998984D01*
X8618586Y-16998984D02*
X8618586Y-16865650D01*
X8618586Y-16884698D02*
X8628110Y-16875174D01*
X8628110Y-16875174D02*
X8647158Y-16865650D01*
X8647158Y-16865650D02*
X8675729Y-16865650D01*
X8675729Y-16865650D02*
X8694777Y-16875174D01*
X8694777Y-16875174D02*
X8704301Y-16894222D01*
X8704301Y-16894222D02*
X8704301Y-16998984D01*
X8704301Y-16894222D02*
X8713825Y-16875174D01*
X8713825Y-16875174D02*
X8732872Y-16865650D01*
X8732872Y-16865650D02*
X8761444Y-16865650D01*
X8761444Y-16865650D02*
X8780491Y-16875174D01*
X8780491Y-16875174D02*
X8790015Y-16894222D01*
X8790015Y-16894222D02*
X8790015Y-16998984D01*
X9180491Y-16789460D02*
X9009063Y-17046603D01*
X9437634Y-16798984D02*
X9456682Y-16798984D01*
X9456682Y-16798984D02*
X9475729Y-16808508D01*
X9475729Y-16808508D02*
X9485253Y-16818031D01*
X9485253Y-16818031D02*
X9494777Y-16837079D01*
X9494777Y-16837079D02*
X9504301Y-16875174D01*
X9504301Y-16875174D02*
X9504301Y-16922793D01*
X9504301Y-16922793D02*
X9494777Y-16960889D01*
X9494777Y-16960889D02*
X9485253Y-16979936D01*
X9485253Y-16979936D02*
X9475729Y-16989460D01*
X9475729Y-16989460D02*
X9456682Y-16998984D01*
X9456682Y-16998984D02*
X9437634Y-16998984D01*
X9437634Y-16998984D02*
X9418587Y-16989460D01*
X9418587Y-16989460D02*
X9409063Y-16979936D01*
X9409063Y-16979936D02*
X9399539Y-16960889D01*
X9399539Y-16960889D02*
X9390015Y-16922793D01*
X9390015Y-16922793D02*
X9390015Y-16875174D01*
X9390015Y-16875174D02*
X9399539Y-16837079D01*
X9399539Y-16837079D02*
X9409063Y-16818031D01*
X9409063Y-16818031D02*
X9418587Y-16808508D01*
X9418587Y-16808508D02*
X9437634Y-16798984D01*
X9590015Y-16979936D02*
X9599539Y-16989460D01*
X9599539Y-16989460D02*
X9590015Y-16998984D01*
X9590015Y-16998984D02*
X9580491Y-16989460D01*
X9580491Y-16989460D02*
X9590015Y-16979936D01*
X9590015Y-16979936D02*
X9590015Y-16998984D01*
X9723348Y-16798984D02*
X9742396Y-16798984D01*
X9742396Y-16798984D02*
X9761444Y-16808508D01*
X9761444Y-16808508D02*
X9770968Y-16818031D01*
X9770968Y-16818031D02*
X9780491Y-16837079D01*
X9780491Y-16837079D02*
X9790015Y-16875174D01*
X9790015Y-16875174D02*
X9790015Y-16922793D01*
X9790015Y-16922793D02*
X9780491Y-16960889D01*
X9780491Y-16960889D02*
X9770968Y-16979936D01*
X9770968Y-16979936D02*
X9761444Y-16989460D01*
X9761444Y-16989460D02*
X9742396Y-16998984D01*
X9742396Y-16998984D02*
X9723348Y-16998984D01*
X9723348Y-16998984D02*
X9704301Y-16989460D01*
X9704301Y-16989460D02*
X9694777Y-16979936D01*
X9694777Y-16979936D02*
X9685253Y-16960889D01*
X9685253Y-16960889D02*
X9675729Y-16922793D01*
X9675729Y-16922793D02*
X9675729Y-16875174D01*
X9675729Y-16875174D02*
X9685253Y-16837079D01*
X9685253Y-16837079D02*
X9694777Y-16818031D01*
X9694777Y-16818031D02*
X9704301Y-16808508D01*
X9704301Y-16808508D02*
X9723348Y-16798984D01*
X9970968Y-16798984D02*
X9875729Y-16798984D01*
X9875729Y-16798984D02*
X9866206Y-16894222D01*
X9866206Y-16894222D02*
X9875729Y-16884698D01*
X9875729Y-16884698D02*
X9894777Y-16875174D01*
X9894777Y-16875174D02*
X9942396Y-16875174D01*
X9942396Y-16875174D02*
X9961444Y-16884698D01*
X9961444Y-16884698D02*
X9970968Y-16894222D01*
X9970968Y-16894222D02*
X9980491Y-16913270D01*
X9980491Y-16913270D02*
X9980491Y-16960889D01*
X9980491Y-16960889D02*
X9970968Y-16979936D01*
X9970968Y-16979936D02*
X9961444Y-16989460D01*
X9961444Y-16989460D02*
X9942396Y-16998984D01*
X9942396Y-16998984D02*
X9894777Y-16998984D01*
X9894777Y-16998984D02*
X9875729Y-16989460D01*
X9875729Y-16989460D02*
X9866206Y-16979936D01*
X10170968Y-16998984D02*
X10056682Y-16998984D01*
X10113825Y-16998984D02*
X10113825Y-16798984D01*
X10113825Y-16798984D02*
X10094777Y-16827555D01*
X10094777Y-16827555D02*
X10075729Y-16846603D01*
X10075729Y-16846603D02*
X10056682Y-16856127D01*
X10247158Y-16818031D02*
X10256682Y-16808508D01*
X10256682Y-16808508D02*
X10275729Y-16798984D01*
X10275729Y-16798984D02*
X10323349Y-16798984D01*
X10323349Y-16798984D02*
X10342396Y-16808508D01*
X10342396Y-16808508D02*
X10351920Y-16818031D01*
X10351920Y-16818031D02*
X10361444Y-16837079D01*
X10361444Y-16837079D02*
X10361444Y-16856127D01*
X10361444Y-16856127D02*
X10351920Y-16884698D01*
X10351920Y-16884698D02*
X10237634Y-16998984D01*
X10237634Y-16998984D02*
X10361444Y-16998984D01*
X10437634Y-16798984D02*
X10437634Y-16837079D01*
X10513825Y-16798984D02*
X10513825Y-16837079D01*
X10809063Y-17075174D02*
X10799539Y-17065650D01*
X10799539Y-17065650D02*
X10780491Y-17037079D01*
X10780491Y-17037079D02*
X10770968Y-17018031D01*
X10770968Y-17018031D02*
X10761444Y-16989460D01*
X10761444Y-16989460D02*
X10751920Y-16941841D01*
X10751920Y-16941841D02*
X10751920Y-16903746D01*
X10751920Y-16903746D02*
X10761444Y-16856127D01*
X10761444Y-16856127D02*
X10770968Y-16827555D01*
X10770968Y-16827555D02*
X10780491Y-16808508D01*
X10780491Y-16808508D02*
X10799539Y-16779936D01*
X10799539Y-16779936D02*
X10809063Y-16770412D01*
X10970968Y-16865650D02*
X10970968Y-16998984D01*
X10923349Y-16789460D02*
X10875730Y-16932317D01*
X10875730Y-16932317D02*
X10999539Y-16932317D01*
X11228110Y-16998984D02*
X11228110Y-16798984D01*
X11313825Y-16998984D02*
X11313825Y-16894222D01*
X11313825Y-16894222D02*
X11304301Y-16875174D01*
X11304301Y-16875174D02*
X11285253Y-16865650D01*
X11285253Y-16865650D02*
X11256682Y-16865650D01*
X11256682Y-16865650D02*
X11237634Y-16875174D01*
X11237634Y-16875174D02*
X11228110Y-16884698D01*
X11437634Y-16998984D02*
X11418587Y-16989460D01*
X11418587Y-16989460D02*
X11409063Y-16979936D01*
X11409063Y-16979936D02*
X11399539Y-16960889D01*
X11399539Y-16960889D02*
X11399539Y-16903746D01*
X11399539Y-16903746D02*
X11409063Y-16884698D01*
X11409063Y-16884698D02*
X11418587Y-16875174D01*
X11418587Y-16875174D02*
X11437634Y-16865650D01*
X11437634Y-16865650D02*
X11466206Y-16865650D01*
X11466206Y-16865650D02*
X11485253Y-16875174D01*
X11485253Y-16875174D02*
X11494777Y-16884698D01*
X11494777Y-16884698D02*
X11504301Y-16903746D01*
X11504301Y-16903746D02*
X11504301Y-16960889D01*
X11504301Y-16960889D02*
X11494777Y-16979936D01*
X11494777Y-16979936D02*
X11485253Y-16989460D01*
X11485253Y-16989460D02*
X11466206Y-16998984D01*
X11466206Y-16998984D02*
X11437634Y-16998984D01*
X11618587Y-16998984D02*
X11599539Y-16989460D01*
X11599539Y-16989460D02*
X11590015Y-16970412D01*
X11590015Y-16970412D02*
X11590015Y-16798984D01*
X11770968Y-16989460D02*
X11751920Y-16998984D01*
X11751920Y-16998984D02*
X11713825Y-16998984D01*
X11713825Y-16998984D02*
X11694777Y-16989460D01*
X11694777Y-16989460D02*
X11685253Y-16970412D01*
X11685253Y-16970412D02*
X11685253Y-16894222D01*
X11685253Y-16894222D02*
X11694777Y-16875174D01*
X11694777Y-16875174D02*
X11713825Y-16865650D01*
X11713825Y-16865650D02*
X11751920Y-16865650D01*
X11751920Y-16865650D02*
X11770968Y-16875174D01*
X11770968Y-16875174D02*
X11780491Y-16894222D01*
X11780491Y-16894222D02*
X11780491Y-16913270D01*
X11780491Y-16913270D02*
X11685253Y-16932317D01*
X11856682Y-16989460D02*
X11875730Y-16998984D01*
X11875730Y-16998984D02*
X11913825Y-16998984D01*
X11913825Y-16998984D02*
X11932872Y-16989460D01*
X11932872Y-16989460D02*
X11942396Y-16970412D01*
X11942396Y-16970412D02*
X11942396Y-16960889D01*
X11942396Y-16960889D02*
X11932872Y-16941841D01*
X11932872Y-16941841D02*
X11913825Y-16932317D01*
X11913825Y-16932317D02*
X11885253Y-16932317D01*
X11885253Y-16932317D02*
X11866206Y-16922793D01*
X11866206Y-16922793D02*
X11856682Y-16903746D01*
X11856682Y-16903746D02*
X11856682Y-16894222D01*
X11856682Y-16894222D02*
X11866206Y-16875174D01*
X11866206Y-16875174D02*
X11885253Y-16865650D01*
X11885253Y-16865650D02*
X11913825Y-16865650D01*
X11913825Y-16865650D02*
X11932872Y-16875174D01*
X12009063Y-17075174D02*
X12018587Y-17065650D01*
X12018587Y-17065650D02*
X12037634Y-17037079D01*
X12037634Y-17037079D02*
X12047158Y-17018031D01*
X12047158Y-17018031D02*
X12056682Y-16989460D01*
X12056682Y-16989460D02*
X12066206Y-16941841D01*
X12066206Y-16941841D02*
X12066206Y-16903746D01*
X12066206Y-16903746D02*
X12056682Y-16856127D01*
X12056682Y-16856127D02*
X12047158Y-16827555D01*
X12047158Y-16827555D02*
X12037634Y-16808508D01*
X12037634Y-16808508D02*
X12018587Y-16779936D01*
X12018587Y-16779936D02*
X12009063Y-16770412D01*
D19*
X7082000Y-17095500D02*
X7234000Y-17247500D01*
X7234000Y-17095500D02*
X7082000Y-17247500D01*
X7158000Y-17247500D02*
X7234000Y-17171500D01*
X7158000Y-17095500D01*
X7082000Y-17171500D01*
X7158000Y-17247500D01*
D11*
X7599539Y-17262984D02*
X7485253Y-17262984D01*
X7542396Y-17262984D02*
X7542396Y-17062984D01*
X7542396Y-17062984D02*
X7523348Y-17091555D01*
X7523348Y-17091555D02*
X7504301Y-17110603D01*
X7504301Y-17110603D02*
X7485253Y-17120127D01*
X7685253Y-17243936D02*
X7694777Y-17253460D01*
X7694777Y-17253460D02*
X7685253Y-17262984D01*
X7685253Y-17262984D02*
X7675729Y-17253460D01*
X7675729Y-17253460D02*
X7685253Y-17243936D01*
X7685253Y-17243936D02*
X7685253Y-17262984D01*
X7875729Y-17062984D02*
X7780491Y-17062984D01*
X7780491Y-17062984D02*
X7770967Y-17158222D01*
X7770967Y-17158222D02*
X7780491Y-17148698D01*
X7780491Y-17148698D02*
X7799539Y-17139174D01*
X7799539Y-17139174D02*
X7847158Y-17139174D01*
X7847158Y-17139174D02*
X7866205Y-17148698D01*
X7866205Y-17148698D02*
X7875729Y-17158222D01*
X7875729Y-17158222D02*
X7885253Y-17177270D01*
X7885253Y-17177270D02*
X7885253Y-17224889D01*
X7885253Y-17224889D02*
X7875729Y-17243936D01*
X7875729Y-17243936D02*
X7866205Y-17253460D01*
X7866205Y-17253460D02*
X7847158Y-17262984D01*
X7847158Y-17262984D02*
X7799539Y-17262984D01*
X7799539Y-17262984D02*
X7780491Y-17253460D01*
X7780491Y-17253460D02*
X7770967Y-17243936D01*
X7961443Y-17082031D02*
X7970967Y-17072508D01*
X7970967Y-17072508D02*
X7990015Y-17062984D01*
X7990015Y-17062984D02*
X8037634Y-17062984D01*
X8037634Y-17062984D02*
X8056682Y-17072508D01*
X8056682Y-17072508D02*
X8066205Y-17082031D01*
X8066205Y-17082031D02*
X8075729Y-17101079D01*
X8075729Y-17101079D02*
X8075729Y-17120127D01*
X8075729Y-17120127D02*
X8066205Y-17148698D01*
X8066205Y-17148698D02*
X7951920Y-17262984D01*
X7951920Y-17262984D02*
X8075729Y-17262984D01*
X8199539Y-17062984D02*
X8218586Y-17062984D01*
X8218586Y-17062984D02*
X8237634Y-17072508D01*
X8237634Y-17072508D02*
X8247158Y-17082031D01*
X8247158Y-17082031D02*
X8256682Y-17101079D01*
X8256682Y-17101079D02*
X8266205Y-17139174D01*
X8266205Y-17139174D02*
X8266205Y-17186793D01*
X8266205Y-17186793D02*
X8256682Y-17224889D01*
X8256682Y-17224889D02*
X8247158Y-17243936D01*
X8247158Y-17243936D02*
X8237634Y-17253460D01*
X8237634Y-17253460D02*
X8218586Y-17262984D01*
X8218586Y-17262984D02*
X8199539Y-17262984D01*
X8199539Y-17262984D02*
X8180491Y-17253460D01*
X8180491Y-17253460D02*
X8170967Y-17243936D01*
X8170967Y-17243936D02*
X8161443Y-17224889D01*
X8161443Y-17224889D02*
X8151920Y-17186793D01*
X8151920Y-17186793D02*
X8151920Y-17139174D01*
X8151920Y-17139174D02*
X8161443Y-17101079D01*
X8161443Y-17101079D02*
X8170967Y-17082031D01*
X8170967Y-17082031D02*
X8180491Y-17072508D01*
X8180491Y-17072508D02*
X8199539Y-17062984D01*
X8351920Y-17262984D02*
X8351920Y-17129650D01*
X8351920Y-17148698D02*
X8361443Y-17139174D01*
X8361443Y-17139174D02*
X8380491Y-17129650D01*
X8380491Y-17129650D02*
X8409063Y-17129650D01*
X8409063Y-17129650D02*
X8428110Y-17139174D01*
X8428110Y-17139174D02*
X8437634Y-17158222D01*
X8437634Y-17158222D02*
X8437634Y-17262984D01*
X8437634Y-17158222D02*
X8447158Y-17139174D01*
X8447158Y-17139174D02*
X8466205Y-17129650D01*
X8466205Y-17129650D02*
X8494777Y-17129650D01*
X8494777Y-17129650D02*
X8513825Y-17139174D01*
X8513825Y-17139174D02*
X8523348Y-17158222D01*
X8523348Y-17158222D02*
X8523348Y-17262984D01*
X8618586Y-17262984D02*
X8618586Y-17129650D01*
X8618586Y-17148698D02*
X8628110Y-17139174D01*
X8628110Y-17139174D02*
X8647158Y-17129650D01*
X8647158Y-17129650D02*
X8675729Y-17129650D01*
X8675729Y-17129650D02*
X8694777Y-17139174D01*
X8694777Y-17139174D02*
X8704301Y-17158222D01*
X8704301Y-17158222D02*
X8704301Y-17262984D01*
X8704301Y-17158222D02*
X8713825Y-17139174D01*
X8713825Y-17139174D02*
X8732872Y-17129650D01*
X8732872Y-17129650D02*
X8761444Y-17129650D01*
X8761444Y-17129650D02*
X8780491Y-17139174D01*
X8780491Y-17139174D02*
X8790015Y-17158222D01*
X8790015Y-17158222D02*
X8790015Y-17262984D01*
X9180491Y-17053460D02*
X9009063Y-17310603D01*
X9437634Y-17062984D02*
X9456682Y-17062984D01*
X9456682Y-17062984D02*
X9475729Y-17072508D01*
X9475729Y-17072508D02*
X9485253Y-17082031D01*
X9485253Y-17082031D02*
X9494777Y-17101079D01*
X9494777Y-17101079D02*
X9504301Y-17139174D01*
X9504301Y-17139174D02*
X9504301Y-17186793D01*
X9504301Y-17186793D02*
X9494777Y-17224889D01*
X9494777Y-17224889D02*
X9485253Y-17243936D01*
X9485253Y-17243936D02*
X9475729Y-17253460D01*
X9475729Y-17253460D02*
X9456682Y-17262984D01*
X9456682Y-17262984D02*
X9437634Y-17262984D01*
X9437634Y-17262984D02*
X9418587Y-17253460D01*
X9418587Y-17253460D02*
X9409063Y-17243936D01*
X9409063Y-17243936D02*
X9399539Y-17224889D01*
X9399539Y-17224889D02*
X9390015Y-17186793D01*
X9390015Y-17186793D02*
X9390015Y-17139174D01*
X9390015Y-17139174D02*
X9399539Y-17101079D01*
X9399539Y-17101079D02*
X9409063Y-17082031D01*
X9409063Y-17082031D02*
X9418587Y-17072508D01*
X9418587Y-17072508D02*
X9437634Y-17062984D01*
X9590015Y-17243936D02*
X9599539Y-17253460D01*
X9599539Y-17253460D02*
X9590015Y-17262984D01*
X9590015Y-17262984D02*
X9580491Y-17253460D01*
X9580491Y-17253460D02*
X9590015Y-17243936D01*
X9590015Y-17243936D02*
X9590015Y-17262984D01*
X9723348Y-17062984D02*
X9742396Y-17062984D01*
X9742396Y-17062984D02*
X9761444Y-17072508D01*
X9761444Y-17072508D02*
X9770968Y-17082031D01*
X9770968Y-17082031D02*
X9780491Y-17101079D01*
X9780491Y-17101079D02*
X9790015Y-17139174D01*
X9790015Y-17139174D02*
X9790015Y-17186793D01*
X9790015Y-17186793D02*
X9780491Y-17224889D01*
X9780491Y-17224889D02*
X9770968Y-17243936D01*
X9770968Y-17243936D02*
X9761444Y-17253460D01*
X9761444Y-17253460D02*
X9742396Y-17262984D01*
X9742396Y-17262984D02*
X9723348Y-17262984D01*
X9723348Y-17262984D02*
X9704301Y-17253460D01*
X9704301Y-17253460D02*
X9694777Y-17243936D01*
X9694777Y-17243936D02*
X9685253Y-17224889D01*
X9685253Y-17224889D02*
X9675729Y-17186793D01*
X9675729Y-17186793D02*
X9675729Y-17139174D01*
X9675729Y-17139174D02*
X9685253Y-17101079D01*
X9685253Y-17101079D02*
X9694777Y-17082031D01*
X9694777Y-17082031D02*
X9704301Y-17072508D01*
X9704301Y-17072508D02*
X9723348Y-17062984D01*
X9970968Y-17062984D02*
X9875729Y-17062984D01*
X9875729Y-17062984D02*
X9866206Y-17158222D01*
X9866206Y-17158222D02*
X9875729Y-17148698D01*
X9875729Y-17148698D02*
X9894777Y-17139174D01*
X9894777Y-17139174D02*
X9942396Y-17139174D01*
X9942396Y-17139174D02*
X9961444Y-17148698D01*
X9961444Y-17148698D02*
X9970968Y-17158222D01*
X9970968Y-17158222D02*
X9980491Y-17177270D01*
X9980491Y-17177270D02*
X9980491Y-17224889D01*
X9980491Y-17224889D02*
X9970968Y-17243936D01*
X9970968Y-17243936D02*
X9961444Y-17253460D01*
X9961444Y-17253460D02*
X9942396Y-17262984D01*
X9942396Y-17262984D02*
X9894777Y-17262984D01*
X9894777Y-17262984D02*
X9875729Y-17253460D01*
X9875729Y-17253460D02*
X9866206Y-17243936D01*
X10075729Y-17262984D02*
X10113825Y-17262984D01*
X10113825Y-17262984D02*
X10132872Y-17253460D01*
X10132872Y-17253460D02*
X10142396Y-17243936D01*
X10142396Y-17243936D02*
X10161444Y-17215365D01*
X10161444Y-17215365D02*
X10170968Y-17177270D01*
X10170968Y-17177270D02*
X10170968Y-17101079D01*
X10170968Y-17101079D02*
X10161444Y-17082031D01*
X10161444Y-17082031D02*
X10151920Y-17072508D01*
X10151920Y-17072508D02*
X10132872Y-17062984D01*
X10132872Y-17062984D02*
X10094777Y-17062984D01*
X10094777Y-17062984D02*
X10075729Y-17072508D01*
X10075729Y-17072508D02*
X10066206Y-17082031D01*
X10066206Y-17082031D02*
X10056682Y-17101079D01*
X10056682Y-17101079D02*
X10056682Y-17148698D01*
X10056682Y-17148698D02*
X10066206Y-17167746D01*
X10066206Y-17167746D02*
X10075729Y-17177270D01*
X10075729Y-17177270D02*
X10094777Y-17186793D01*
X10094777Y-17186793D02*
X10132872Y-17186793D01*
X10132872Y-17186793D02*
X10151920Y-17177270D01*
X10151920Y-17177270D02*
X10161444Y-17167746D01*
X10161444Y-17167746D02*
X10170968Y-17148698D01*
X10285253Y-17148698D02*
X10266206Y-17139174D01*
X10266206Y-17139174D02*
X10256682Y-17129650D01*
X10256682Y-17129650D02*
X10247158Y-17110603D01*
X10247158Y-17110603D02*
X10247158Y-17101079D01*
X10247158Y-17101079D02*
X10256682Y-17082031D01*
X10256682Y-17082031D02*
X10266206Y-17072508D01*
X10266206Y-17072508D02*
X10285253Y-17062984D01*
X10285253Y-17062984D02*
X10323349Y-17062984D01*
X10323349Y-17062984D02*
X10342396Y-17072508D01*
X10342396Y-17072508D02*
X10351920Y-17082031D01*
X10351920Y-17082031D02*
X10361444Y-17101079D01*
X10361444Y-17101079D02*
X10361444Y-17110603D01*
X10361444Y-17110603D02*
X10351920Y-17129650D01*
X10351920Y-17129650D02*
X10342396Y-17139174D01*
X10342396Y-17139174D02*
X10323349Y-17148698D01*
X10323349Y-17148698D02*
X10285253Y-17148698D01*
X10285253Y-17148698D02*
X10266206Y-17158222D01*
X10266206Y-17158222D02*
X10256682Y-17167746D01*
X10256682Y-17167746D02*
X10247158Y-17186793D01*
X10247158Y-17186793D02*
X10247158Y-17224889D01*
X10247158Y-17224889D02*
X10256682Y-17243936D01*
X10256682Y-17243936D02*
X10266206Y-17253460D01*
X10266206Y-17253460D02*
X10285253Y-17262984D01*
X10285253Y-17262984D02*
X10323349Y-17262984D01*
X10323349Y-17262984D02*
X10342396Y-17253460D01*
X10342396Y-17253460D02*
X10351920Y-17243936D01*
X10351920Y-17243936D02*
X10361444Y-17224889D01*
X10361444Y-17224889D02*
X10361444Y-17186793D01*
X10361444Y-17186793D02*
X10351920Y-17167746D01*
X10351920Y-17167746D02*
X10342396Y-17158222D01*
X10342396Y-17158222D02*
X10323349Y-17148698D01*
X10437634Y-17062984D02*
X10437634Y-17101079D01*
X10513825Y-17062984D02*
X10513825Y-17101079D01*
X10809063Y-17339174D02*
X10799539Y-17329650D01*
X10799539Y-17329650D02*
X10780491Y-17301079D01*
X10780491Y-17301079D02*
X10770968Y-17282031D01*
X10770968Y-17282031D02*
X10761444Y-17253460D01*
X10761444Y-17253460D02*
X10751920Y-17205841D01*
X10751920Y-17205841D02*
X10751920Y-17167746D01*
X10751920Y-17167746D02*
X10761444Y-17120127D01*
X10761444Y-17120127D02*
X10770968Y-17091555D01*
X10770968Y-17091555D02*
X10780491Y-17072508D01*
X10780491Y-17072508D02*
X10799539Y-17043936D01*
X10799539Y-17043936D02*
X10809063Y-17034412D01*
X10970968Y-17129650D02*
X10970968Y-17262984D01*
X10923349Y-17053460D02*
X10875730Y-17196317D01*
X10875730Y-17196317D02*
X10999539Y-17196317D01*
X11228110Y-17262984D02*
X11228110Y-17062984D01*
X11313825Y-17262984D02*
X11313825Y-17158222D01*
X11313825Y-17158222D02*
X11304301Y-17139174D01*
X11304301Y-17139174D02*
X11285253Y-17129650D01*
X11285253Y-17129650D02*
X11256682Y-17129650D01*
X11256682Y-17129650D02*
X11237634Y-17139174D01*
X11237634Y-17139174D02*
X11228110Y-17148698D01*
X11437634Y-17262984D02*
X11418587Y-17253460D01*
X11418587Y-17253460D02*
X11409063Y-17243936D01*
X11409063Y-17243936D02*
X11399539Y-17224889D01*
X11399539Y-17224889D02*
X11399539Y-17167746D01*
X11399539Y-17167746D02*
X11409063Y-17148698D01*
X11409063Y-17148698D02*
X11418587Y-17139174D01*
X11418587Y-17139174D02*
X11437634Y-17129650D01*
X11437634Y-17129650D02*
X11466206Y-17129650D01*
X11466206Y-17129650D02*
X11485253Y-17139174D01*
X11485253Y-17139174D02*
X11494777Y-17148698D01*
X11494777Y-17148698D02*
X11504301Y-17167746D01*
X11504301Y-17167746D02*
X11504301Y-17224889D01*
X11504301Y-17224889D02*
X11494777Y-17243936D01*
X11494777Y-17243936D02*
X11485253Y-17253460D01*
X11485253Y-17253460D02*
X11466206Y-17262984D01*
X11466206Y-17262984D02*
X11437634Y-17262984D01*
X11618587Y-17262984D02*
X11599539Y-17253460D01*
X11599539Y-17253460D02*
X11590015Y-17234412D01*
X11590015Y-17234412D02*
X11590015Y-17062984D01*
X11770968Y-17253460D02*
X11751920Y-17262984D01*
X11751920Y-17262984D02*
X11713825Y-17262984D01*
X11713825Y-17262984D02*
X11694777Y-17253460D01*
X11694777Y-17253460D02*
X11685253Y-17234412D01*
X11685253Y-17234412D02*
X11685253Y-17158222D01*
X11685253Y-17158222D02*
X11694777Y-17139174D01*
X11694777Y-17139174D02*
X11713825Y-17129650D01*
X11713825Y-17129650D02*
X11751920Y-17129650D01*
X11751920Y-17129650D02*
X11770968Y-17139174D01*
X11770968Y-17139174D02*
X11780491Y-17158222D01*
X11780491Y-17158222D02*
X11780491Y-17177270D01*
X11780491Y-17177270D02*
X11685253Y-17196317D01*
X11856682Y-17253460D02*
X11875730Y-17262984D01*
X11875730Y-17262984D02*
X11913825Y-17262984D01*
X11913825Y-17262984D02*
X11932872Y-17253460D01*
X11932872Y-17253460D02*
X11942396Y-17234412D01*
X11942396Y-17234412D02*
X11942396Y-17224889D01*
X11942396Y-17224889D02*
X11932872Y-17205841D01*
X11932872Y-17205841D02*
X11913825Y-17196317D01*
X11913825Y-17196317D02*
X11885253Y-17196317D01*
X11885253Y-17196317D02*
X11866206Y-17186793D01*
X11866206Y-17186793D02*
X11856682Y-17167746D01*
X11856682Y-17167746D02*
X11856682Y-17158222D01*
X11856682Y-17158222D02*
X11866206Y-17139174D01*
X11866206Y-17139174D02*
X11885253Y-17129650D01*
X11885253Y-17129650D02*
X11913825Y-17129650D01*
X11913825Y-17129650D02*
X11932872Y-17139174D01*
X12009063Y-17339174D02*
X12018587Y-17329650D01*
X12018587Y-17329650D02*
X12037634Y-17301079D01*
X12037634Y-17301079D02*
X12047158Y-17282031D01*
X12047158Y-17282031D02*
X12056682Y-17253460D01*
X12056682Y-17253460D02*
X12066206Y-17205841D01*
X12066206Y-17205841D02*
X12066206Y-17167746D01*
X12066206Y-17167746D02*
X12056682Y-17120127D01*
X12056682Y-17120127D02*
X12047158Y-17091555D01*
X12047158Y-17091555D02*
X12037634Y-17072508D01*
X12037634Y-17072508D02*
X12018587Y-17043936D01*
X12018587Y-17043936D02*
X12009063Y-17034412D01*
M02*
